<?xml version="1.0" encoding="utf-8" standalone="no"?>
<!DOCTYPE svg PUBLIC "-//W3C//DTD SVG 1.1//EN"
  "http://www.w3.org/Graphics/SVG/1.1/DTD/svg11.dtd">
<!-- Created with matplotlib (https://matplotlib.org/) -->
<svg height="263.63625pt" version="1.1" viewBox="0 0 379.7 263.63625" width="379.7pt" xmlns="http://www.w3.org/2000/svg" xmlns:xlink="http://www.w3.org/1999/xlink">
 <metadata>
  <rdf:RDF xmlns:cc="http://creativecommons.org/ns#" xmlns:dc="http://purl.org/dc/elements/1.1/" xmlns:rdf="http://www.w3.org/1999/02/22-rdf-syntax-ns#">
   <cc:Work>
    <dc:type rdf:resource="http://purl.org/dc/dcmitype/StillImage"/>
    <dc:date>2022-03-29T19:15:53.145928</dc:date>
    <dc:format>image/svg+xml</dc:format>
    <dc:creator>
     <cc:Agent>
      <dc:title>Matplotlib v3.3.4, https://matplotlib.org/</dc:title>
     </cc:Agent>
    </dc:creator>
   </cc:Work>
  </rdf:RDF>
 </metadata>
 <defs>
  <style type="text/css">*{stroke-linecap:butt;stroke-linejoin:round;}</style>
 </defs>
 <g id="figure_1">
  <g id="patch_1">
   <path d="M 0 263.63625 
L 379.7 263.63625 
L 379.7 0 
L 0 0 
z
" style="fill:none;"/>
  </g>
  <g id="axes_1">
   <g id="patch_2">
    <path d="M 37.7 239.758125 
L 372.5 239.758125 
L 372.5 22.318125 
L 37.7 22.318125 
z
" style="fill:#ffffff;"/>
   </g>
   <g id="matplotlib.axis_1">
    <g id="xtick_1">
     <g id="line2d_1">
      <defs>
       <path d="M 0 0 
L 0 3.5 
" id="mc06e3b5831" style="stroke:#000000;stroke-width:0.8;"/>
      </defs>
      <g>
       <use style="stroke:#000000;stroke-width:0.8;" x="52.918182" xlink:href="#mc06e3b5831" y="239.758125"/>
      </g>
     </g>
     <g id="text_1">
      <!-- 0 -->
      <g transform="translate(49.736932 254.356563)scale(0.1 -0.1)">
       <defs>
        <path d="M 31.78125 66.40625 
Q 24.171875 66.40625 20.328125 58.90625 
Q 16.5 51.421875 16.5 36.375 
Q 16.5 21.390625 20.328125 13.890625 
Q 24.171875 6.390625 31.78125 6.390625 
Q 39.453125 6.390625 43.28125 13.890625 
Q 47.125 21.390625 47.125 36.375 
Q 47.125 51.421875 43.28125 58.90625 
Q 39.453125 66.40625 31.78125 66.40625 
z
M 31.78125 74.21875 
Q 44.046875 74.21875 50.515625 64.515625 
Q 56.984375 54.828125 56.984375 36.375 
Q 56.984375 17.96875 50.515625 8.265625 
Q 44.046875 -1.421875 31.78125 -1.421875 
Q 19.53125 -1.421875 13.0625 8.265625 
Q 6.59375 17.96875 6.59375 36.375 
Q 6.59375 54.828125 13.0625 64.515625 
Q 19.53125 74.21875 31.78125 74.21875 
z
" id="DejaVuSans-48"/>
       </defs>
       <use xlink:href="#DejaVuSans-48"/>
      </g>
     </g>
    </g>
    <g id="xtick_2">
     <g id="line2d_2">
      <g>
       <use style="stroke:#000000;stroke-width:0.8;" x="112.422314" xlink:href="#mc06e3b5831" y="239.758125"/>
      </g>
     </g>
     <g id="text_2">
      <!-- 200 -->
      <g transform="translate(102.878564 254.356563)scale(0.1 -0.1)">
       <defs>
        <path d="M 19.1875 8.296875 
L 53.609375 8.296875 
L 53.609375 0 
L 7.328125 0 
L 7.328125 8.296875 
Q 12.9375 14.109375 22.625 23.890625 
Q 32.328125 33.6875 34.8125 36.53125 
Q 39.546875 41.84375 41.421875 45.53125 
Q 43.3125 49.21875 43.3125 52.78125 
Q 43.3125 58.59375 39.234375 62.25 
Q 35.15625 65.921875 28.609375 65.921875 
Q 23.96875 65.921875 18.8125 64.3125 
Q 13.671875 62.703125 7.8125 59.421875 
L 7.8125 69.390625 
Q 13.765625 71.78125 18.9375 73 
Q 24.125 74.21875 28.421875 74.21875 
Q 39.75 74.21875 46.484375 68.546875 
Q 53.21875 62.890625 53.21875 53.421875 
Q 53.21875 48.921875 51.53125 44.890625 
Q 49.859375 40.875 45.40625 35.40625 
Q 44.1875 33.984375 37.640625 27.21875 
Q 31.109375 20.453125 19.1875 8.296875 
z
" id="DejaVuSans-50"/>
       </defs>
       <use xlink:href="#DejaVuSans-50"/>
       <use x="63.623047" xlink:href="#DejaVuSans-48"/>
       <use x="127.246094" xlink:href="#DejaVuSans-48"/>
      </g>
     </g>
    </g>
    <g id="xtick_3">
     <g id="line2d_3">
      <g>
       <use style="stroke:#000000;stroke-width:0.8;" x="171.926446" xlink:href="#mc06e3b5831" y="239.758125"/>
      </g>
     </g>
     <g id="text_3">
      <!-- 400 -->
      <g transform="translate(162.382696 254.356563)scale(0.1 -0.1)">
       <defs>
        <path d="M 37.796875 64.3125 
L 12.890625 25.390625 
L 37.796875 25.390625 
z
M 35.203125 72.90625 
L 47.609375 72.90625 
L 47.609375 25.390625 
L 58.015625 25.390625 
L 58.015625 17.1875 
L 47.609375 17.1875 
L 47.609375 0 
L 37.796875 0 
L 37.796875 17.1875 
L 4.890625 17.1875 
L 4.890625 26.703125 
z
" id="DejaVuSans-52"/>
       </defs>
       <use xlink:href="#DejaVuSans-52"/>
       <use x="63.623047" xlink:href="#DejaVuSans-48"/>
       <use x="127.246094" xlink:href="#DejaVuSans-48"/>
      </g>
     </g>
    </g>
    <g id="xtick_4">
     <g id="line2d_4">
      <g>
       <use style="stroke:#000000;stroke-width:0.8;" x="231.430579" xlink:href="#mc06e3b5831" y="239.758125"/>
      </g>
     </g>
     <g id="text_4">
      <!-- 600 -->
      <g transform="translate(221.886829 254.356563)scale(0.1 -0.1)">
       <defs>
        <path d="M 33.015625 40.375 
Q 26.375 40.375 22.484375 35.828125 
Q 18.609375 31.296875 18.609375 23.390625 
Q 18.609375 15.53125 22.484375 10.953125 
Q 26.375 6.390625 33.015625 6.390625 
Q 39.65625 6.390625 43.53125 10.953125 
Q 47.40625 15.53125 47.40625 23.390625 
Q 47.40625 31.296875 43.53125 35.828125 
Q 39.65625 40.375 33.015625 40.375 
z
M 52.59375 71.296875 
L 52.59375 62.3125 
Q 48.875 64.0625 45.09375 64.984375 
Q 41.3125 65.921875 37.59375 65.921875 
Q 27.828125 65.921875 22.671875 59.328125 
Q 17.53125 52.734375 16.796875 39.40625 
Q 19.671875 43.65625 24.015625 45.921875 
Q 28.375 48.1875 33.59375 48.1875 
Q 44.578125 48.1875 50.953125 41.515625 
Q 57.328125 34.859375 57.328125 23.390625 
Q 57.328125 12.15625 50.6875 5.359375 
Q 44.046875 -1.421875 33.015625 -1.421875 
Q 20.359375 -1.421875 13.671875 8.265625 
Q 6.984375 17.96875 6.984375 36.375 
Q 6.984375 53.65625 15.1875 63.9375 
Q 23.390625 74.21875 37.203125 74.21875 
Q 40.921875 74.21875 44.703125 73.484375 
Q 48.484375 72.75 52.59375 71.296875 
z
" id="DejaVuSans-54"/>
       </defs>
       <use xlink:href="#DejaVuSans-54"/>
       <use x="63.623047" xlink:href="#DejaVuSans-48"/>
       <use x="127.246094" xlink:href="#DejaVuSans-48"/>
      </g>
     </g>
    </g>
    <g id="xtick_5">
     <g id="line2d_5">
      <g>
       <use style="stroke:#000000;stroke-width:0.8;" x="290.934711" xlink:href="#mc06e3b5831" y="239.758125"/>
      </g>
     </g>
     <g id="text_5">
      <!-- 800 -->
      <g transform="translate(281.390961 254.356563)scale(0.1 -0.1)">
       <defs>
        <path d="M 31.78125 34.625 
Q 24.75 34.625 20.71875 30.859375 
Q 16.703125 27.09375 16.703125 20.515625 
Q 16.703125 13.921875 20.71875 10.15625 
Q 24.75 6.390625 31.78125 6.390625 
Q 38.8125 6.390625 42.859375 10.171875 
Q 46.921875 13.96875 46.921875 20.515625 
Q 46.921875 27.09375 42.890625 30.859375 
Q 38.875 34.625 31.78125 34.625 
z
M 21.921875 38.8125 
Q 15.578125 40.375 12.03125 44.71875 
Q 8.5 49.078125 8.5 55.328125 
Q 8.5 64.0625 14.71875 69.140625 
Q 20.953125 74.21875 31.78125 74.21875 
Q 42.671875 74.21875 48.875 69.140625 
Q 55.078125 64.0625 55.078125 55.328125 
Q 55.078125 49.078125 51.53125 44.71875 
Q 48 40.375 41.703125 38.8125 
Q 48.828125 37.15625 52.796875 32.3125 
Q 56.78125 27.484375 56.78125 20.515625 
Q 56.78125 9.90625 50.3125 4.234375 
Q 43.84375 -1.421875 31.78125 -1.421875 
Q 19.734375 -1.421875 13.25 4.234375 
Q 6.78125 9.90625 6.78125 20.515625 
Q 6.78125 27.484375 10.78125 32.3125 
Q 14.796875 37.15625 21.921875 38.8125 
z
M 18.3125 54.390625 
Q 18.3125 48.734375 21.84375 45.5625 
Q 25.390625 42.390625 31.78125 42.390625 
Q 38.140625 42.390625 41.71875 45.5625 
Q 45.3125 48.734375 45.3125 54.390625 
Q 45.3125 60.0625 41.71875 63.234375 
Q 38.140625 66.40625 31.78125 66.40625 
Q 25.390625 66.40625 21.84375 63.234375 
Q 18.3125 60.0625 18.3125 54.390625 
z
" id="DejaVuSans-56"/>
       </defs>
       <use xlink:href="#DejaVuSans-56"/>
       <use x="63.623047" xlink:href="#DejaVuSans-48"/>
       <use x="127.246094" xlink:href="#DejaVuSans-48"/>
      </g>
     </g>
    </g>
    <g id="xtick_6">
     <g id="line2d_6">
      <g>
       <use style="stroke:#000000;stroke-width:0.8;" x="350.438843" xlink:href="#mc06e3b5831" y="239.758125"/>
      </g>
     </g>
     <g id="text_6">
      <!-- 1000 -->
      <g transform="translate(337.713843 254.356563)scale(0.1 -0.1)">
       <defs>
        <path d="M 12.40625 8.296875 
L 28.515625 8.296875 
L 28.515625 63.921875 
L 10.984375 60.40625 
L 10.984375 69.390625 
L 28.421875 72.90625 
L 38.28125 72.90625 
L 38.28125 8.296875 
L 54.390625 8.296875 
L 54.390625 0 
L 12.40625 0 
z
" id="DejaVuSans-49"/>
       </defs>
       <use xlink:href="#DejaVuSans-49"/>
       <use x="63.623047" xlink:href="#DejaVuSans-48"/>
       <use x="127.246094" xlink:href="#DejaVuSans-48"/>
       <use x="190.869141" xlink:href="#DejaVuSans-48"/>
      </g>
     </g>
    </g>
   </g>
   <g id="matplotlib.axis_2">
    <g id="ytick_1">
     <g id="line2d_7">
      <defs>
       <path d="M 0 0 
L -3.5 0 
" id="m776bfc1848" style="stroke:#000000;stroke-width:0.8;"/>
      </defs>
      <g>
       <use style="stroke:#000000;stroke-width:0.8;" x="37.7" xlink:href="#m776bfc1848" y="194.713705"/>
      </g>
     </g>
     <g id="text_7">
      <!-- $\mathdefault{10^{-3}}$ -->
      <g transform="translate(7.2 198.512924)scale(0.1 -0.1)">
       <defs>
        <path d="M 10.59375 35.5 
L 73.1875 35.5 
L 73.1875 27.203125 
L 10.59375 27.203125 
z
" id="DejaVuSans-8722"/>
        <path d="M 40.578125 39.3125 
Q 47.65625 37.796875 51.625 33 
Q 55.609375 28.21875 55.609375 21.1875 
Q 55.609375 10.40625 48.1875 4.484375 
Q 40.765625 -1.421875 27.09375 -1.421875 
Q 22.515625 -1.421875 17.65625 -0.515625 
Q 12.796875 0.390625 7.625 2.203125 
L 7.625 11.71875 
Q 11.71875 9.328125 16.59375 8.109375 
Q 21.484375 6.890625 26.8125 6.890625 
Q 36.078125 6.890625 40.9375 10.546875 
Q 45.796875 14.203125 45.796875 21.1875 
Q 45.796875 27.640625 41.28125 31.265625 
Q 36.765625 34.90625 28.71875 34.90625 
L 20.21875 34.90625 
L 20.21875 43.015625 
L 29.109375 43.015625 
Q 36.375 43.015625 40.234375 45.921875 
Q 44.09375 48.828125 44.09375 54.296875 
Q 44.09375 59.90625 40.109375 62.90625 
Q 36.140625 65.921875 28.71875 65.921875 
Q 24.65625 65.921875 20.015625 65.03125 
Q 15.375 64.15625 9.8125 62.3125 
L 9.8125 71.09375 
Q 15.4375 72.65625 20.34375 73.4375 
Q 25.25 74.21875 29.59375 74.21875 
Q 40.828125 74.21875 47.359375 69.109375 
Q 53.90625 64.015625 53.90625 55.328125 
Q 53.90625 49.265625 50.4375 45.09375 
Q 46.96875 40.921875 40.578125 39.3125 
z
" id="DejaVuSans-51"/>
       </defs>
       <use transform="translate(0 0.765625)" xlink:href="#DejaVuSans-49"/>
       <use transform="translate(63.623047 0.765625)" xlink:href="#DejaVuSans-48"/>
       <use transform="translate(128.203125 39.046875)scale(0.7)" xlink:href="#DejaVuSans-8722"/>
       <use transform="translate(186.855469 39.046875)scale(0.7)" xlink:href="#DejaVuSans-51"/>
      </g>
     </g>
    </g>
    <g id="ytick_2">
     <g id="line2d_8">
      <g>
       <use style="stroke:#000000;stroke-width:0.8;" x="37.7" xlink:href="#m776bfc1848" y="140.473353"/>
      </g>
     </g>
     <g id="text_8">
      <!-- $\mathdefault{10^{-2}}$ -->
      <g transform="translate(7.2 144.272572)scale(0.1 -0.1)">
       <use transform="translate(0 0.765625)" xlink:href="#DejaVuSans-49"/>
       <use transform="translate(63.623047 0.765625)" xlink:href="#DejaVuSans-48"/>
       <use transform="translate(128.203125 39.046875)scale(0.7)" xlink:href="#DejaVuSans-8722"/>
       <use transform="translate(186.855469 39.046875)scale(0.7)" xlink:href="#DejaVuSans-50"/>
      </g>
     </g>
    </g>
    <g id="ytick_3">
     <g id="line2d_9">
      <g>
       <use style="stroke:#000000;stroke-width:0.8;" x="37.7" xlink:href="#m776bfc1848" y="86.233002"/>
      </g>
     </g>
     <g id="text_9">
      <!-- $\mathdefault{10^{-1}}$ -->
      <g transform="translate(7.2 90.032221)scale(0.1 -0.1)">
       <use transform="translate(0 0.684375)" xlink:href="#DejaVuSans-49"/>
       <use transform="translate(63.623047 0.684375)" xlink:href="#DejaVuSans-48"/>
       <use transform="translate(128.203125 38.965625)scale(0.7)" xlink:href="#DejaVuSans-8722"/>
       <use transform="translate(186.855469 38.965625)scale(0.7)" xlink:href="#DejaVuSans-49"/>
      </g>
     </g>
    </g>
    <g id="ytick_4">
     <g id="line2d_10">
      <g>
       <use style="stroke:#000000;stroke-width:0.8;" x="37.7" xlink:href="#m776bfc1848" y="31.992651"/>
      </g>
     </g>
     <g id="text_10">
      <!-- $\mathdefault{10^{0}}$ -->
      <g transform="translate(13.1 35.791869)scale(0.1 -0.1)">
       <use transform="translate(0 0.765625)" xlink:href="#DejaVuSans-49"/>
       <use transform="translate(63.623047 0.765625)" xlink:href="#DejaVuSans-48"/>
       <use transform="translate(128.203125 39.046875)scale(0.7)" xlink:href="#DejaVuSans-48"/>
      </g>
     </g>
    </g>
    <g id="ytick_5">
     <g id="line2d_11">
      <defs>
       <path d="M 0 0 
L -2 0 
" id="mc04e8ad74e" style="stroke:#000000;stroke-width:0.6;"/>
      </defs>
      <g>
       <use style="stroke:#000000;stroke-width:0.6;" x="37.7" xlink:href="#mc04e8ad74e" y="232.626083"/>
      </g>
     </g>
    </g>
    <g id="ytick_6">
     <g id="line2d_12">
      <g>
       <use style="stroke:#000000;stroke-width:0.6;" x="37.7" xlink:href="#mc04e8ad74e" y="223.074832"/>
      </g>
     </g>
    </g>
    <g id="ytick_7">
     <g id="line2d_13">
      <g>
       <use style="stroke:#000000;stroke-width:0.6;" x="37.7" xlink:href="#mc04e8ad74e" y="216.298111"/>
      </g>
     </g>
    </g>
    <g id="ytick_8">
     <g id="line2d_14">
      <g>
       <use style="stroke:#000000;stroke-width:0.6;" x="37.7" xlink:href="#mc04e8ad74e" y="211.041678"/>
      </g>
     </g>
    </g>
    <g id="ytick_9">
     <g id="line2d_15">
      <g>
       <use style="stroke:#000000;stroke-width:0.6;" x="37.7" xlink:href="#mc04e8ad74e" y="206.746859"/>
      </g>
     </g>
    </g>
    <g id="ytick_10">
     <g id="line2d_16">
      <g>
       <use style="stroke:#000000;stroke-width:0.6;" x="37.7" xlink:href="#mc04e8ad74e" y="203.115642"/>
      </g>
     </g>
    </g>
    <g id="ytick_11">
     <g id="line2d_17">
      <g>
       <use style="stroke:#000000;stroke-width:0.6;" x="37.7" xlink:href="#mc04e8ad74e" y="199.970138"/>
      </g>
     </g>
    </g>
    <g id="ytick_12">
     <g id="line2d_18">
      <g>
       <use style="stroke:#000000;stroke-width:0.6;" x="37.7" xlink:href="#mc04e8ad74e" y="197.195607"/>
      </g>
     </g>
    </g>
    <g id="ytick_13">
     <g id="line2d_19">
      <g>
       <use style="stroke:#000000;stroke-width:0.6;" x="37.7" xlink:href="#mc04e8ad74e" y="178.385732"/>
      </g>
     </g>
    </g>
    <g id="ytick_14">
     <g id="line2d_20">
      <g>
       <use style="stroke:#000000;stroke-width:0.6;" x="37.7" xlink:href="#mc04e8ad74e" y="168.83448"/>
      </g>
     </g>
    </g>
    <g id="ytick_15">
     <g id="line2d_21">
      <g>
       <use style="stroke:#000000;stroke-width:0.6;" x="37.7" xlink:href="#mc04e8ad74e" y="162.057759"/>
      </g>
     </g>
    </g>
    <g id="ytick_16">
     <g id="line2d_22">
      <g>
       <use style="stroke:#000000;stroke-width:0.6;" x="37.7" xlink:href="#mc04e8ad74e" y="156.801326"/>
      </g>
     </g>
    </g>
    <g id="ytick_17">
     <g id="line2d_23">
      <g>
       <use style="stroke:#000000;stroke-width:0.6;" x="37.7" xlink:href="#mc04e8ad74e" y="152.506508"/>
      </g>
     </g>
    </g>
    <g id="ytick_18">
     <g id="line2d_24">
      <g>
       <use style="stroke:#000000;stroke-width:0.6;" x="37.7" xlink:href="#mc04e8ad74e" y="148.87529"/>
      </g>
     </g>
    </g>
    <g id="ytick_19">
     <g id="line2d_25">
      <g>
       <use style="stroke:#000000;stroke-width:0.6;" x="37.7" xlink:href="#mc04e8ad74e" y="145.729787"/>
      </g>
     </g>
    </g>
    <g id="ytick_20">
     <g id="line2d_26">
      <g>
       <use style="stroke:#000000;stroke-width:0.6;" x="37.7" xlink:href="#mc04e8ad74e" y="142.955256"/>
      </g>
     </g>
    </g>
    <g id="ytick_21">
     <g id="line2d_27">
      <g>
       <use style="stroke:#000000;stroke-width:0.6;" x="37.7" xlink:href="#mc04e8ad74e" y="124.145381"/>
      </g>
     </g>
    </g>
    <g id="ytick_22">
     <g id="line2d_28">
      <g>
       <use style="stroke:#000000;stroke-width:0.6;" x="37.7" xlink:href="#mc04e8ad74e" y="114.594129"/>
      </g>
     </g>
    </g>
    <g id="ytick_23">
     <g id="line2d_29">
      <g>
       <use style="stroke:#000000;stroke-width:0.6;" x="37.7" xlink:href="#mc04e8ad74e" y="107.817408"/>
      </g>
     </g>
    </g>
    <g id="ytick_24">
     <g id="line2d_30">
      <g>
       <use style="stroke:#000000;stroke-width:0.6;" x="37.7" xlink:href="#mc04e8ad74e" y="102.560975"/>
      </g>
     </g>
    </g>
    <g id="ytick_25">
     <g id="line2d_31">
      <g>
       <use style="stroke:#000000;stroke-width:0.6;" x="37.7" xlink:href="#mc04e8ad74e" y="98.266156"/>
      </g>
     </g>
    </g>
    <g id="ytick_26">
     <g id="line2d_32">
      <g>
       <use style="stroke:#000000;stroke-width:0.6;" x="37.7" xlink:href="#mc04e8ad74e" y="94.634939"/>
      </g>
     </g>
    </g>
    <g id="ytick_27">
     <g id="line2d_33">
      <g>
       <use style="stroke:#000000;stroke-width:0.6;" x="37.7" xlink:href="#mc04e8ad74e" y="91.489435"/>
      </g>
     </g>
    </g>
    <g id="ytick_28">
     <g id="line2d_34">
      <g>
       <use style="stroke:#000000;stroke-width:0.6;" x="37.7" xlink:href="#mc04e8ad74e" y="88.714904"/>
      </g>
     </g>
    </g>
    <g id="ytick_29">
     <g id="line2d_35">
      <g>
       <use style="stroke:#000000;stroke-width:0.6;" x="37.7" xlink:href="#mc04e8ad74e" y="69.905029"/>
      </g>
     </g>
    </g>
    <g id="ytick_30">
     <g id="line2d_36">
      <g>
       <use style="stroke:#000000;stroke-width:0.6;" x="37.7" xlink:href="#mc04e8ad74e" y="60.353777"/>
      </g>
     </g>
    </g>
    <g id="ytick_31">
     <g id="line2d_37">
      <g>
       <use style="stroke:#000000;stroke-width:0.6;" x="37.7" xlink:href="#mc04e8ad74e" y="53.577057"/>
      </g>
     </g>
    </g>
    <g id="ytick_32">
     <g id="line2d_38">
      <g>
       <use style="stroke:#000000;stroke-width:0.6;" x="37.7" xlink:href="#mc04e8ad74e" y="48.320623"/>
      </g>
     </g>
    </g>
    <g id="ytick_33">
     <g id="line2d_39">
      <g>
       <use style="stroke:#000000;stroke-width:0.6;" x="37.7" xlink:href="#mc04e8ad74e" y="44.025805"/>
      </g>
     </g>
    </g>
    <g id="ytick_34">
     <g id="line2d_40">
      <g>
       <use style="stroke:#000000;stroke-width:0.6;" x="37.7" xlink:href="#mc04e8ad74e" y="40.394587"/>
      </g>
     </g>
    </g>
    <g id="ytick_35">
     <g id="line2d_41">
      <g>
       <use style="stroke:#000000;stroke-width:0.6;" x="37.7" xlink:href="#mc04e8ad74e" y="37.249084"/>
      </g>
     </g>
    </g>
    <g id="ytick_36">
     <g id="line2d_42">
      <g>
       <use style="stroke:#000000;stroke-width:0.6;" x="37.7" xlink:href="#mc04e8ad74e" y="34.474553"/>
      </g>
     </g>
    </g>
   </g>
   <g id="line2d_43">
    <path clip-path="url(#p829372d58c)" d="M 52.918182 32.201761 
L 53.215702 32.515436 
L 53.513223 32.515436 
L 54.108264 33.038257 
L 54.405785 33.038257 
L 54.703306 33.351932 
L 55.000826 33.351932 
L 55.298347 33.770268 
L 55.893388 33.874752 
L 56.190909 34.083943 
L 56.48843 34.083943 
L 56.78595 34.606764 
L 57.678512 34.711536 
L 57.976033 35.025211 
L 58.273554 35.025211 
L 58.868595 35.548031 
L 59.166116 35.548031 
L 59.463636 35.862149 
L 59.761157 35.862149 
L 60.058678 36.175824 
L 60.95124 36.280043 
L 61.24876 36.698644 
L 61.546281 36.698644 
L 61.843802 37.221311 
L 62.438843 37.222223 
L 62.736364 37.430656 
L 63.628926 37.535897 
L 63.926446 38.058718 
L 64.223967 38.058718 
L 64.521488 38.371924 
L 64.819008 38.371924 
L 65.116529 38.790729 
L 66.009091 38.791903 
L 66.306612 39.105578 
L 66.604132 39.105578 
L 66.901653 39.522537 
L 67.794215 39.731997 
L 68.091736 39.731997 
L 68.389256 40.36041 
L 68.686777 40.36041 
L 68.984298 40.571373 
L 69.281818 40.571373 
L 69.579339 40.88261 
L 70.471901 40.885048 
L 70.769421 41.301678 
L 71.661983 41.407869 
L 71.959504 42.13988 
L 72.554545 42.242684 
L 72.852066 42.452291 
L 73.744628 42.560859 
L 74.042149 42.874534 
L 74.339669 42.874534 
L 74.63719 43.081148 
L 74.934711 43.081148 
L 75.232231 43.397354 
L 75.529752 43.397354 
L 75.827273 43.812364 
L 76.124793 43.812364 
L 76.422314 44.129366 
L 77.314876 44.231761 
L 77.612397 44.760636 
L 77.909917 44.760636 
L 78.207438 45.070633 
L 79.1 45.07431 
L 79.695041 45.591835 
L 80.587603 45.597131 
L 80.885124 46.221246 
L 81.777686 46.329142 
L 82.075207 47.161515 
L 83.56281 47.27041 
L 83.860331 47.484713 
L 84.752893 47.58132 
L 85.050413 48.007534 
L 85.347934 48.007534 
L 85.645455 48.421023 
L 85.942975 48.421023 
L 86.240496 48.739545 
L 86.538017 48.739545 
L 87.133058 49.151001 
L 87.430579 49.151001 
L 87.728099 49.680813 
L 88.620661 49.781097 
L 89.215702 49.792471 
L 89.513223 50.106146 
L 89.810744 50.106146 
L 90.108264 50.628967 
L 90.405785 50.628967 
L 90.703306 50.831426 
L 91.595868 50.930471 
L 91.893388 51.350777 
L 92.78595 51.360978 
L 93.083471 52.1915 
L 93.976033 52.302246 
L 94.273554 52.625414 
L 94.571074 52.625414 
L 94.868595 52.919956 
L 95.463636 52.939088 
L 95.761157 53.130247 
L 96.058678 53.130247 
L 96.356198 53.452859 
L 97.24876 53.461909 
L 97.546281 53.76118 
L 97.843802 53.76118 
L 98.141322 54.19392 
L 98.438843 54.19392 
L 98.736364 54.812932 
L 99.033884 54.812932 
L 99.331405 55.119733 
L 100.223967 55.135188 
L 100.521488 55.540651 
L 100.819008 55.540651 
L 101.116529 55.670431 
L 101.41405 55.670431 
L 101.71157 55.984106 
L 102.009091 55.984106 
L 102.306612 56.285801 
L 103.199174 56.382613 
L 103.496694 56.506927 
L 103.794215 56.506927 
L 104.091736 57.238938 
L 104.686777 57.31951 
L 104.984298 57.530136 
L 105.281818 57.530136 
L 105.87686 57.645875 
L 106.17438 58.162083 
L 107.066942 58.180206 
L 107.364463 58.928177 
L 107.661983 58.928177 
L 107.959504 59.215555 
L 108.852066 59.241852 
L 109.447107 59.330819 
L 109.744628 59.729913 
L 110.63719 59.764673 
L 110.934711 60.151569 
L 111.232231 60.151569 
L 111.529752 60.496684 
L 111.827273 60.496684 
L 112.124793 60.690893 
L 112.422314 60.690893 
L 112.719835 60.995026 
L 113.017355 60.995026 
L 113.314876 61.437952 
L 113.612397 61.437952 
L 113.909917 62.140316 
L 114.207438 62.260573 
L 115.1 62.351345 
L 116.290083 62.588565 
L 116.587603 62.713059 
L 116.885124 62.713059 
L 117.182645 62.984511 
L 117.480165 62.984511 
L 117.777686 63.23588 
L 118.075207 63.23588 
L 118.372727 63.948638 
L 119.860331 64.040043 
L 120.157851 64.761748 
L 120.455372 64.761748 
L 120.752893 64.909159 
L 121.050413 64.909159 
L 121.347934 65.184288 
L 121.645455 65.184288 
L 121.942975 65.518319 
L 122.240496 65.518319 
L 122.538017 66.029529 
L 124.02562 66.084838 
L 124.32314 66.398513 
L 124.620661 66.398513 
L 124.918182 66.921333 
L 125.215702 66.921333 
L 125.513223 67.297789 
L 126.108264 67.383181 
L 127.893388 67.653345 
L 128.190909 68.229305 
L 128.48843 68.229305 
L 128.78595 68.594612 
L 129.083471 68.594612 
L 129.380992 68.989526 
L 129.678512 68.989526 
L 129.976033 69.287275 
L 130.273554 69.287275 
L 130.571074 69.745225 
L 130.868595 69.745225 
L 131.166116 69.985306 
L 131.463636 69.985306 
L 131.761157 70.216123 
L 132.653719 70.298981 
L 132.95124 70.639709 
L 133.24876 70.639709 
L 133.546281 70.768996 
L 134.438843 70.821801 
L 134.736364 71.105299 
L 135.033884 71.105299 
L 135.331405 71.487051 
L 136.223967 71.553813 
L 136.521488 72.495081 
L 136.819008 72.495081 
L 137.116529 72.67498 
L 138.009091 72.758482 
L 138.604132 73.261141 
L 138.901653 73.261141 
L 139.199174 73.645694 
L 139.496694 73.645694 
L 139.794215 73.897454 
L 140.091736 73.897454 
L 140.389256 74.101396 
L 140.686777 74.101396 
L 140.984298 74.415071 
L 141.87686 74.45445 
L 142.17438 74.937891 
L 143.661983 75.005767 
L 143.959504 75.669903 
L 144.257025 75.669903 
L 144.554545 76.094084 
L 144.852066 76.094084 
L 145.149587 76.443935 
L 146.042149 76.518887 
L 146.934711 76.61117 
L 147.232231 76.61117 
L 147.529752 77.368662 
L 147.827273 77.368662 
L 148.124793 77.761783 
L 148.422314 77.761783 
L 148.719835 78.354918 
L 149.612397 78.433266 
L 149.909917 78.643712 
L 150.802479 78.746941 
L 151.1 79.121857 
L 151.695041 79.139101 
L 151.992562 79.269762 
L 152.885124 79.351829 
L 153.182645 79.990094 
L 154.075207 80.001773 
L 154.372727 80.344403 
L 154.670248 80.344403 
L 154.967769 80.691538 
L 155.265289 80.691538 
L 155.56281 80.943041 
L 156.455372 81.054115 
L 156.752893 82.093654 
L 157.050413 82.093654 
L 157.347934 82.396847 
L 158.240496 82.471008 
L 158.835537 82.54418 
L 159.133058 82.823037 
L 159.430579 82.823037 
L 159.728099 82.980083 
L 160.02562 82.980083 
L 160.32314 83.293758 
L 160.620661 83.293758 
L 160.918182 83.453728 
L 161.215702 83.453728 
L 161.513223 83.675548 
L 161.810744 83.675548 
L 162.108264 83.816578 
L 162.405785 83.816578 
L 162.703306 84.460493 
L 163.595868 84.54859 
L 163.893388 84.954583 
L 164.78595 85.023408 
L 165.083471 85.489858 
L 165.380992 85.489858 
L 166.273554 85.868054 
L 166.571074 86.50849 
L 166.868595 86.50849 
L 167.166116 86.640471 
L 168.058678 86.66027 
L 168.356198 86.802878 
L 168.653719 86.802878 
L 168.95124 87.576016 
L 169.24876 87.576016 
L 169.546281 87.738994 
L 169.843802 87.738994 
L 170.141322 88.000544 
L 171.033884 88.052669 
L 171.331405 88.57549 
L 171.628926 88.57549 
L 171.926446 88.792364 
L 172.223967 88.792364 
L 172.521488 89.070673 
L 173.41405 89.1258 
L 173.71157 89.307501 
L 174.009091 89.307501 
L 174.306612 89.553508 
L 175.199174 89.570225 
L 175.496694 90.248769 
L 175.794215 90.248769 
L 176.091736 90.408958 
L 176.389256 90.408958 
L 176.686777 90.99214 
L 176.984298 90.99214 
L 177.281818 91.349695 
L 178.17438 91.399382 
L 178.471901 91.692106 
L 178.769421 91.692106 
L 179.066942 92.597007 
L 179.661983 92.703245 
L 180.554545 92.811254 
L 180.852066 92.811254 
L 181.149587 93.01692 
L 181.447107 93.01692 
L 181.744628 93.33918 
L 182.63719 93.402544 
L 183.827273 93.539741 
L 184.124793 94.271752 
L 185.017355 94.329136 
L 185.314876 94.525048 
L 185.612397 94.525048 
L 185.909917 95.21302 
L 186.207438 95.21302 
L 186.504959 95.538957 
L 186.802479 95.538957 
L 187.1 96.023976 
L 187.992562 96.108606 
L 188.290083 96.282461 
L 189.182645 96.363633 
L 189.480165 96.711722 
L 189.777686 96.711722 
L 190.075207 97.570066 
L 190.372727 97.570066 
L 190.670248 97.723707 
L 190.967769 97.723707 
L 191.265289 97.858731 
L 192.157851 97.94936 
L 192.455372 98.098092 
L 193.347934 98.172405 
L 193.645455 98.695226 
L 193.942975 98.695226 
L 194.240496 98.856919 
L 194.538017 98.856919 
L 194.835537 99.293387 
L 195.133058 99.293387 
L 195.430579 99.427237 
L 195.728099 99.427237 
L 196.02562 99.967914 
L 196.32314 100.182929 
L 196.620661 100.182929 
L 197.215702 100.297869 
L 198.405785 100.570793 
L 198.703306 100.827812 
L 199.000826 100.827812 
L 199.298347 101.072857 
L 199.595868 101.072857 
L 199.893388 101.519118 
L 200.190909 101.519118 
L 200.48843 101.901936 
L 200.78595 101.901936 
L 201.083471 102.708272 
L 201.380992 102.708272 
L 201.678512 102.879192 
L 201.976033 102.879192 
L 202.273554 103.062343 
L 202.571074 103.062343 
L 203.463636 103.403735 
L 204.356198 103.491478 
L 204.653719 103.868383 
L 204.95124 103.868383 
L 205.24876 104.014299 
L 205.546281 104.014299 
L 205.843802 104.299019 
L 206.141322 104.299019 
L 206.438843 104.448872 
L 206.736364 104.448872 
L 207.033884 104.74631 
L 207.331405 104.74631 
L 207.628926 105.159682 
L 208.521488 105.26212 
L 209.116529 105.329704 
L 209.41405 105.687578 
L 209.71157 105.687578 
L 210.009091 106.228343 
L 210.306612 106.228343 
L 210.604132 106.448753 
L 210.901653 106.448753 
L 211.199174 106.838191 
L 211.496694 106.838191 
L 211.794215 107.672523 
L 212.389256 107.768851 
L 212.686777 107.984472 
L 212.984298 107.984472 
L 213.281818 108.162647 
L 214.769421 108.217828 
L 215.066942 108.608413 
L 215.959504 108.630889 
L 216.257025 108.922088 
L 216.554545 108.922088 
L 216.852066 109.444909 
L 217.149587 109.444909 
L 217.447107 109.706499 
L 218.339669 109.767945 
L 218.63719 110.17692 
L 218.934711 110.17692 
L 219.827273 110.417605 
L 220.124793 110.417605 
L 220.422314 111.118188 
L 221.314876 111.207664 
L 221.612397 111.547415 
L 221.909917 111.547415 
L 222.207438 111.884941 
L 222.504959 111.884941 
L 222.802479 112.268801 
L 223.695041 112.316343 
L 223.992562 112.828008 
L 224.290083 112.828008 
L 224.587603 113.126898 
L 225.480165 113.177706 
L 225.777686 113.536901 
L 226.670248 113.628875 
L 226.967769 114.055892 
L 227.265289 114.055892 
L 227.56281 114.369567 
L 228.455372 114.46541 
L 228.752893 114.892388 
L 229.050413 114.892388 
L 229.347934 115.198555 
L 229.645455 115.198555 
L 229.942975 115.44944 
L 230.240496 115.44944 
L 230.538017 115.624399 
L 230.835537 115.624399 
L 232.620661 116.216811 
L 232.918182 116.216811 
L 233.215702 116.565667 
L 233.513223 116.565667 
L 233.810744 116.863159 
L 234.108264 116.863159 
L 234.703306 116.978025 
L 235.000826 117.71628 
L 235.298347 117.71628 
L 235.595868 117.936617 
L 235.893388 117.936617 
L 236.190909 118.147081 
L 236.48843 118.147081 
L 236.78595 118.282383 
L 237.083471 118.282383 
L 237.380992 118.967511 
L 238.273554 119.076354 
L 238.571074 119.355034 
L 239.463636 119.429661 
L 239.761157 119.668709 
L 240.058678 119.668709 
L 240.356198 120.19153 
L 240.653719 120.19153 
L 240.95124 120.332901 
L 241.24876 120.332901 
L 241.546281 120.646034 
L 241.843802 120.646034 
L 242.438843 120.763628 
L 243.033884 120.768513 
L 243.331405 120.923541 
L 243.628926 120.923541 
L 243.926446 121.167287 
L 244.223967 121.167287 
L 244.521488 121.327401 
L 244.819008 121.327401 
L 245.116529 121.622071 
L 245.41405 121.622071 
L 245.71157 121.864809 
L 246.009091 121.864809 
L 246.306612 122.425504 
L 246.604132 122.425504 
L 246.901653 122.900868 
L 247.199174 122.900868 
L 247.794215 123.015422 
L 248.091736 123.577691 
L 248.984298 123.601456 
L 249.281818 124.234932 
L 249.579339 124.234932 
L 249.87686 124.375496 
L 250.769421 124.41499 
L 251.066942 124.548606 
L 251.959504 124.585146 
L 252.257025 124.664771 
L 252.554545 124.879717 
L 252.852066 124.879717 
L 253.149587 125.071427 
L 253.447107 125.071427 
L 253.744628 125.522539 
L 254.042149 125.522539 
L 254.339669 125.803438 
L 254.63719 125.803438 
L 254.934711 125.945176 
L 255.232231 125.945176 
L 255.529752 126.199123 
L 255.827273 126.199123 
L 256.124793 126.586322 
L 257.612397 126.646473 
L 258.207438 126.744706 
L 258.504959 127.724646 
L 258.802479 127.724646 
L 259.1 127.895319 
L 259.397521 127.895319 
L 259.695041 128.056354 
L 259.992562 128.056354 
L 260.290083 128.294919 
L 260.587603 128.294919 
L 260.885124 128.608594 
L 261.182645 128.608594 
L 261.480165 129.02517 
L 262.967769 129.131414 
L 263.56281 129.211588 
L 264.157851 129.255393 
L 264.455372 129.638629 
L 265.347934 129.714132 
L 265.645455 129.863426 
L 266.538017 129.904219 
L 266.835537 130.48679 
L 267.133058 130.48679 
L 267.430579 130.804693 
L 268.32314 130.825073 
L 268.620661 131.038125 
L 268.918182 131.038125 
L 269.215702 131.3518 
L 269.513223 131.3518 
L 269.810744 131.646602 
L 270.703306 131.741807 
L 271.000826 131.87462 
L 272.48843 131.955306 
L 272.78595 132.077083 
L 273.083471 132.077083 
L 273.380992 132.604544 
L 274.273554 132.606632 
L 274.571074 133.31538 
L 275.463636 133.375426 
L 275.761157 133.5479 
L 276.058678 133.5479 
L 276.653719 133.970499 
L 276.95124 133.970499 
L 277.24876 134.324312 
L 277.546281 134.324312 
L 277.843802 134.479545 
L 278.141322 134.479545 
L 278.736364 134.594029 
L 279.926446 134.698513 
L 280.223967 134.885061 
L 280.521488 134.885061 
L 280.819008 135.334829 
L 281.116529 135.334829 
L 281.41405 135.642275 
L 281.71157 135.642275 
L 282.009091 136.058586 
L 282.306612 136.058586 
L 282.604132 136.664531 
L 282.901653 136.664531 
L 283.199174 136.793806 
L 283.496694 136.793806 
L 283.794215 136.945744 
L 284.091736 136.945744 
L 284.686777 137.06088 
L 284.984298 137.524562 
L 285.87686 137.628267 
L 286.17438 138.517316 
L 286.471901 138.517316 
L 286.769421 138.654016 
L 287.066942 138.654016 
L 287.364463 138.806036 
L 287.661983 138.806036 
L 287.959504 138.93475 
L 288.257025 138.93475 
L 288.554545 139.204209 
L 288.852066 139.204209 
L 289.149587 139.407737 
L 289.447107 139.407737 
L 289.744628 139.758365 
L 290.63719 139.778687 
L 290.934711 140.782308 
L 291.827273 140.853793 
L 292.422314 140.961348 
L 292.719835 141.397222 
L 293.017355 141.397222 
L 293.314876 141.825641 
L 293.612397 141.825641 
L 293.909917 142.49149 
L 294.207438 142.49149 
L 294.504959 142.823704 
L 294.802479 142.823704 
L 295.1 143.264196 
L 295.695041 143.276228 
L 295.992562 143.481567 
L 296.290083 143.481567 
L 296.885124 143.596999 
L 297.182645 144.090236 
L 297.480165 144.090236 
L 297.777686 144.253515 
L 298.075207 144.253515 
L 298.372727 144.658584 
L 298.670248 144.658584 
L 298.967769 145.077438 
L 299.265289 145.077438 
L 299.56281 145.885629 
L 299.860331 145.885629 
L 300.157851 146.007402 
L 301.050413 146.08145 
L 301.347934 146.391958 
L 301.645455 146.391958 
L 301.942975 147.703602 
L 302.240496 147.703602 
L 302.538017 147.938969 
L 302.835537 147.938969 
L 303.133058 148.240479 
L 303.430579 148.240479 
L 303.728099 148.628835 
L 305.215702 148.718571 
L 305.513223 149.409308 
L 305.810744 149.409308 
L 306.108264 149.552657 
L 306.405785 149.552657 
L 306.703306 150.508048 
L 307.000826 150.508048 
L 307.298347 150.961347 
L 307.595868 150.961347 
L 307.893388 151.461777 
L 308.190909 151.461777 
L 308.48843 151.763589 
L 309.380992 151.839437 
L 309.678512 153.204729 
L 310.868595 153.395964 
L 311.166116 153.956125 
L 311.463636 153.956125 
L 311.761157 154.432555 
L 312.653719 154.506795 
L 312.95124 154.839918 
L 313.24876 154.839918 
L 313.546281 155.021335 
L 313.843802 155.021335 
L 314.141322 155.955527 
L 314.438843 155.955527 
L 314.736364 157.138579 
L 315.033884 157.138579 
L 315.331405 157.764541 
L 315.628926 157.764541 
L 315.926446 158.118008 
L 316.223967 158.118008 
L 316.521488 158.360215 
L 316.819008 158.360215 
L 317.116529 158.492542 
L 317.41405 158.492542 
L 317.71157 158.715037 
L 318.009091 158.715037 
L 318.306612 159.386735 
L 318.604132 159.386735 
L 318.901653 160.287397 
L 319.199174 160.287397 
L 319.496694 161.235748 
L 320.389256 161.254669 
L 320.686777 162.018476 
L 320.984298 162.018476 
L 321.281818 162.177995 
L 321.579339 162.177995 
L 321.87686 163.5157 
L 322.17438 163.679288 
L 322.471901 163.679288 
L 322.769421 164.145646 
L 323.066942 164.145646 
L 323.364463 164.834214 
L 324.257025 164.921201 
L 324.554545 165.586539 
L 324.852066 165.586539 
L 325.149587 166.078464 
L 326.042149 166.134566 
L 326.339669 168.82167 
L 327.232231 168.834773 
L 327.529752 169.109897 
L 327.827273 169.109897 
L 328.124793 169.593125 
L 328.422314 169.593125 
L 328.719835 170.133356 
L 329.612397 170.194553 
L 329.909917 170.466437 
L 330.207438 170.466437 
L 330.504959 172.937759 
L 330.802479 172.937759 
L 331.1 174.153846 
L 332.290083 174.526424 
L 332.885124 174.557376 
L 333.182645 174.892267 
L 333.480165 174.892267 
L 333.777686 175.013253 
L 334.075207 175.013253 
L 334.372727 177.26963 
L 334.670248 177.26963 
L 334.967769 179.07324 
L 335.265289 179.07324 
L 335.56281 179.584455 
L 335.860331 179.584455 
L 336.157851 179.712862 
L 337.050413 179.772165 
L 337.645455 179.856518 
L 337.942975 181.816447 
L 338.240496 181.816447 
L 338.538017 183.832152 
L 338.835537 183.832152 
L 339.133058 184.736416 
L 339.430579 184.736416 
L 339.728099 185.012004 
L 340.918182 185.031934 
L 341.215702 186.575358 
L 341.513223 186.575358 
L 341.810744 188.796403 
L 342.108264 188.796403 
L 342.405785 189.891901 
L 342.703306 189.891901 
L 343.000826 190.331077 
L 343.298347 190.331077 
L 343.595868 190.462544 
L 343.893388 190.462544 
L 344.190909 191.539609 
L 344.48843 191.539609 
L 344.78595 193.951888 
L 345.083471 193.951888 
L 345.380992 195.210974 
L 345.678512 195.210974 
L 345.976033 195.761686 
L 346.273554 195.761686 
L 346.571074 195.910023 
L 346.868595 196.695094 
L 347.166116 196.695094 
L 347.463636 199.270961 
L 347.761157 199.270961 
L 348.058678 200.641584 
L 348.356198 200.641584 
L 348.653719 201.209165 
L 348.95124 201.209165 
L 349.24876 202.014167 
L 349.546281 202.014167 
L 349.843802 204.701571 
L 350.141322 204.701571 
L 350.438843 206.089063 
L 350.736364 206.089063 
L 351.033884 206.508307 
L 351.331405 207.444777 
L 351.628926 207.444777 
L 351.926446 210.14905 
L 352.223967 210.14905 
L 352.521488 211.388205 
L 352.819008 211.388205 
L 353.116529 212.892256 
L 353.41405 212.892256 
L 353.71157 215.448192 
L 354.009091 215.448192 
L 354.306612 216.268102 
L 354.604132 218.191398 
L 354.901653 218.191398 
L 355.199174 220.328089 
L 355.496694 220.328089 
L 355.794215 223.071295 
L 356.091736 223.071295 
L 356.389256 224.388076 
L 356.686777 227.131282 
L 356.984298 227.131282 
L 357.281818 229.874489 
L 357.281818 229.874489 
" style="fill:none;stroke:#1f77b4;stroke-linecap:square;stroke-width:1.5;"/>
   </g>
   <g id="patch_3">
    <path d="M 37.7 239.758125 
L 37.7 22.318125 
" style="fill:none;stroke:#000000;stroke-linecap:square;stroke-linejoin:miter;stroke-width:0.8;"/>
   </g>
   <g id="patch_4">
    <path d="M 372.5 239.758125 
L 372.5 22.318125 
" style="fill:none;stroke:#000000;stroke-linecap:square;stroke-linejoin:miter;stroke-width:0.8;"/>
   </g>
   <g id="patch_5">
    <path d="M 37.7 239.758125 
L 372.5 239.758125 
" style="fill:none;stroke:#000000;stroke-linecap:square;stroke-linejoin:miter;stroke-width:0.8;"/>
   </g>
   <g id="patch_6">
    <path d="M 37.7 22.318125 
L 372.5 22.318125 
" style="fill:none;stroke:#000000;stroke-linecap:square;stroke-linejoin:miter;stroke-width:0.8;"/>
   </g>
   <g id="text_11">
    <!-- Singular values. Condition number: 4409 -->
    <g transform="translate(82.115 16.318125)scale(0.12 -0.12)">
     <defs>
      <path d="M 53.515625 70.515625 
L 53.515625 60.890625 
Q 47.90625 63.578125 42.921875 64.890625 
Q 37.9375 66.21875 33.296875 66.21875 
Q 25.25 66.21875 20.875 63.09375 
Q 16.5 59.96875 16.5 54.203125 
Q 16.5 49.359375 19.40625 46.890625 
Q 22.3125 44.4375 30.421875 42.921875 
L 36.375 41.703125 
Q 47.40625 39.59375 52.65625 34.296875 
Q 57.90625 29 57.90625 20.125 
Q 57.90625 9.515625 50.796875 4.046875 
Q 43.703125 -1.421875 29.984375 -1.421875 
Q 24.8125 -1.421875 18.96875 -0.25 
Q 13.140625 0.921875 6.890625 3.21875 
L 6.890625 13.375 
Q 12.890625 10.015625 18.65625 8.296875 
Q 24.421875 6.59375 29.984375 6.59375 
Q 38.421875 6.59375 43.015625 9.90625 
Q 47.609375 13.234375 47.609375 19.390625 
Q 47.609375 24.75 44.3125 27.78125 
Q 41.015625 30.8125 33.5 32.328125 
L 27.484375 33.5 
Q 16.453125 35.6875 11.515625 40.375 
Q 6.59375 45.0625 6.59375 53.421875 
Q 6.59375 63.09375 13.40625 68.65625 
Q 20.21875 74.21875 32.171875 74.21875 
Q 37.3125 74.21875 42.625 73.28125 
Q 47.953125 72.359375 53.515625 70.515625 
z
" id="DejaVuSans-83"/>
      <path d="M 9.421875 54.6875 
L 18.40625 54.6875 
L 18.40625 0 
L 9.421875 0 
z
M 9.421875 75.984375 
L 18.40625 75.984375 
L 18.40625 64.59375 
L 9.421875 64.59375 
z
" id="DejaVuSans-105"/>
      <path d="M 54.890625 33.015625 
L 54.890625 0 
L 45.90625 0 
L 45.90625 32.71875 
Q 45.90625 40.484375 42.875 44.328125 
Q 39.84375 48.1875 33.796875 48.1875 
Q 26.515625 48.1875 22.3125 43.546875 
Q 18.109375 38.921875 18.109375 30.90625 
L 18.109375 0 
L 9.078125 0 
L 9.078125 54.6875 
L 18.109375 54.6875 
L 18.109375 46.1875 
Q 21.34375 51.125 25.703125 53.5625 
Q 30.078125 56 35.796875 56 
Q 45.21875 56 50.046875 50.171875 
Q 54.890625 44.34375 54.890625 33.015625 
z
" id="DejaVuSans-110"/>
      <path d="M 45.40625 27.984375 
Q 45.40625 37.75 41.375 43.109375 
Q 37.359375 48.484375 30.078125 48.484375 
Q 22.859375 48.484375 18.828125 43.109375 
Q 14.796875 37.75 14.796875 27.984375 
Q 14.796875 18.265625 18.828125 12.890625 
Q 22.859375 7.515625 30.078125 7.515625 
Q 37.359375 7.515625 41.375 12.890625 
Q 45.40625 18.265625 45.40625 27.984375 
z
M 54.390625 6.78125 
Q 54.390625 -7.171875 48.1875 -13.984375 
Q 42 -20.796875 29.203125 -20.796875 
Q 24.46875 -20.796875 20.265625 -20.09375 
Q 16.0625 -19.390625 12.109375 -17.921875 
L 12.109375 -9.1875 
Q 16.0625 -11.328125 19.921875 -12.34375 
Q 23.78125 -13.375 27.78125 -13.375 
Q 36.625 -13.375 41.015625 -8.765625 
Q 45.40625 -4.15625 45.40625 5.171875 
L 45.40625 9.625 
Q 42.625 4.78125 38.28125 2.390625 
Q 33.9375 0 27.875 0 
Q 17.828125 0 11.671875 7.65625 
Q 5.515625 15.328125 5.515625 27.984375 
Q 5.515625 40.671875 11.671875 48.328125 
Q 17.828125 56 27.875 56 
Q 33.9375 56 38.28125 53.609375 
Q 42.625 51.21875 45.40625 46.390625 
L 45.40625 54.6875 
L 54.390625 54.6875 
z
" id="DejaVuSans-103"/>
      <path d="M 8.5 21.578125 
L 8.5 54.6875 
L 17.484375 54.6875 
L 17.484375 21.921875 
Q 17.484375 14.15625 20.5 10.265625 
Q 23.53125 6.390625 29.59375 6.390625 
Q 36.859375 6.390625 41.078125 11.03125 
Q 45.3125 15.671875 45.3125 23.6875 
L 45.3125 54.6875 
L 54.296875 54.6875 
L 54.296875 0 
L 45.3125 0 
L 45.3125 8.40625 
Q 42.046875 3.421875 37.71875 1 
Q 33.40625 -1.421875 27.6875 -1.421875 
Q 18.265625 -1.421875 13.375 4.4375 
Q 8.5 10.296875 8.5 21.578125 
z
M 31.109375 56 
z
" id="DejaVuSans-117"/>
      <path d="M 9.421875 75.984375 
L 18.40625 75.984375 
L 18.40625 0 
L 9.421875 0 
z
" id="DejaVuSans-108"/>
      <path d="M 34.28125 27.484375 
Q 23.390625 27.484375 19.1875 25 
Q 14.984375 22.515625 14.984375 16.5 
Q 14.984375 11.71875 18.140625 8.90625 
Q 21.296875 6.109375 26.703125 6.109375 
Q 34.1875 6.109375 38.703125 11.40625 
Q 43.21875 16.703125 43.21875 25.484375 
L 43.21875 27.484375 
z
M 52.203125 31.203125 
L 52.203125 0 
L 43.21875 0 
L 43.21875 8.296875 
Q 40.140625 3.328125 35.546875 0.953125 
Q 30.953125 -1.421875 24.3125 -1.421875 
Q 15.921875 -1.421875 10.953125 3.296875 
Q 6 8.015625 6 15.921875 
Q 6 25.140625 12.171875 29.828125 
Q 18.359375 34.515625 30.609375 34.515625 
L 43.21875 34.515625 
L 43.21875 35.40625 
Q 43.21875 41.609375 39.140625 45 
Q 35.0625 48.390625 27.6875 48.390625 
Q 23 48.390625 18.546875 47.265625 
Q 14.109375 46.140625 10.015625 43.890625 
L 10.015625 52.203125 
Q 14.9375 54.109375 19.578125 55.046875 
Q 24.21875 56 28.609375 56 
Q 40.484375 56 46.34375 49.84375 
Q 52.203125 43.703125 52.203125 31.203125 
z
" id="DejaVuSans-97"/>
      <path d="M 41.109375 46.296875 
Q 39.59375 47.171875 37.8125 47.578125 
Q 36.03125 48 33.890625 48 
Q 26.265625 48 22.1875 43.046875 
Q 18.109375 38.09375 18.109375 28.8125 
L 18.109375 0 
L 9.078125 0 
L 9.078125 54.6875 
L 18.109375 54.6875 
L 18.109375 46.1875 
Q 20.953125 51.171875 25.484375 53.578125 
Q 30.03125 56 36.53125 56 
Q 37.453125 56 38.578125 55.875 
Q 39.703125 55.765625 41.0625 55.515625 
z
" id="DejaVuSans-114"/>
      <path id="DejaVuSans-32"/>
      <path d="M 2.984375 54.6875 
L 12.5 54.6875 
L 29.59375 8.796875 
L 46.6875 54.6875 
L 56.203125 54.6875 
L 35.6875 0 
L 23.484375 0 
z
" id="DejaVuSans-118"/>
      <path d="M 56.203125 29.59375 
L 56.203125 25.203125 
L 14.890625 25.203125 
Q 15.484375 15.921875 20.484375 11.0625 
Q 25.484375 6.203125 34.421875 6.203125 
Q 39.59375 6.203125 44.453125 7.46875 
Q 49.3125 8.734375 54.109375 11.28125 
L 54.109375 2.78125 
Q 49.265625 0.734375 44.1875 -0.34375 
Q 39.109375 -1.421875 33.890625 -1.421875 
Q 20.796875 -1.421875 13.15625 6.1875 
Q 5.515625 13.8125 5.515625 26.8125 
Q 5.515625 40.234375 12.765625 48.109375 
Q 20.015625 56 32.328125 56 
Q 43.359375 56 49.78125 48.890625 
Q 56.203125 41.796875 56.203125 29.59375 
z
M 47.21875 32.234375 
Q 47.125 39.59375 43.09375 43.984375 
Q 39.0625 48.390625 32.421875 48.390625 
Q 24.90625 48.390625 20.390625 44.140625 
Q 15.875 39.890625 15.1875 32.171875 
z
" id="DejaVuSans-101"/>
      <path d="M 44.28125 53.078125 
L 44.28125 44.578125 
Q 40.484375 46.53125 36.375 47.5 
Q 32.28125 48.484375 27.875 48.484375 
Q 21.1875 48.484375 17.84375 46.4375 
Q 14.5 44.390625 14.5 40.28125 
Q 14.5 37.15625 16.890625 35.375 
Q 19.28125 33.59375 26.515625 31.984375 
L 29.59375 31.296875 
Q 39.15625 29.25 43.1875 25.515625 
Q 47.21875 21.78125 47.21875 15.09375 
Q 47.21875 7.46875 41.1875 3.015625 
Q 35.15625 -1.421875 24.609375 -1.421875 
Q 20.21875 -1.421875 15.453125 -0.5625 
Q 10.6875 0.296875 5.421875 2 
L 5.421875 11.28125 
Q 10.40625 8.6875 15.234375 7.390625 
Q 20.0625 6.109375 24.8125 6.109375 
Q 31.15625 6.109375 34.5625 8.28125 
Q 37.984375 10.453125 37.984375 14.40625 
Q 37.984375 18.0625 35.515625 20.015625 
Q 33.0625 21.96875 24.703125 23.78125 
L 21.578125 24.515625 
Q 13.234375 26.265625 9.515625 29.90625 
Q 5.8125 33.546875 5.8125 39.890625 
Q 5.8125 47.609375 11.28125 51.796875 
Q 16.75 56 26.8125 56 
Q 31.78125 56 36.171875 55.265625 
Q 40.578125 54.546875 44.28125 53.078125 
z
" id="DejaVuSans-115"/>
      <path d="M 10.6875 12.40625 
L 21 12.40625 
L 21 0 
L 10.6875 0 
z
" id="DejaVuSans-46"/>
      <path d="M 64.40625 67.28125 
L 64.40625 56.890625 
Q 59.421875 61.53125 53.78125 63.8125 
Q 48.140625 66.109375 41.796875 66.109375 
Q 29.296875 66.109375 22.65625 58.46875 
Q 16.015625 50.828125 16.015625 36.375 
Q 16.015625 21.96875 22.65625 14.328125 
Q 29.296875 6.6875 41.796875 6.6875 
Q 48.140625 6.6875 53.78125 8.984375 
Q 59.421875 11.28125 64.40625 15.921875 
L 64.40625 5.609375 
Q 59.234375 2.09375 53.4375 0.328125 
Q 47.65625 -1.421875 41.21875 -1.421875 
Q 24.65625 -1.421875 15.125 8.703125 
Q 5.609375 18.84375 5.609375 36.375 
Q 5.609375 53.953125 15.125 64.078125 
Q 24.65625 74.21875 41.21875 74.21875 
Q 47.75 74.21875 53.53125 72.484375 
Q 59.328125 70.75 64.40625 67.28125 
z
" id="DejaVuSans-67"/>
      <path d="M 30.609375 48.390625 
Q 23.390625 48.390625 19.1875 42.75 
Q 14.984375 37.109375 14.984375 27.296875 
Q 14.984375 17.484375 19.15625 11.84375 
Q 23.34375 6.203125 30.609375 6.203125 
Q 37.796875 6.203125 41.984375 11.859375 
Q 46.1875 17.53125 46.1875 27.296875 
Q 46.1875 37.015625 41.984375 42.703125 
Q 37.796875 48.390625 30.609375 48.390625 
z
M 30.609375 56 
Q 42.328125 56 49.015625 48.375 
Q 55.71875 40.765625 55.71875 27.296875 
Q 55.71875 13.875 49.015625 6.21875 
Q 42.328125 -1.421875 30.609375 -1.421875 
Q 18.84375 -1.421875 12.171875 6.21875 
Q 5.515625 13.875 5.515625 27.296875 
Q 5.515625 40.765625 12.171875 48.375 
Q 18.84375 56 30.609375 56 
z
" id="DejaVuSans-111"/>
      <path d="M 45.40625 46.390625 
L 45.40625 75.984375 
L 54.390625 75.984375 
L 54.390625 0 
L 45.40625 0 
L 45.40625 8.203125 
Q 42.578125 3.328125 38.25 0.953125 
Q 33.9375 -1.421875 27.875 -1.421875 
Q 17.96875 -1.421875 11.734375 6.484375 
Q 5.515625 14.40625 5.515625 27.296875 
Q 5.515625 40.1875 11.734375 48.09375 
Q 17.96875 56 27.875 56 
Q 33.9375 56 38.25 53.625 
Q 42.578125 51.265625 45.40625 46.390625 
z
M 14.796875 27.296875 
Q 14.796875 17.390625 18.875 11.75 
Q 22.953125 6.109375 30.078125 6.109375 
Q 37.203125 6.109375 41.296875 11.75 
Q 45.40625 17.390625 45.40625 27.296875 
Q 45.40625 37.203125 41.296875 42.84375 
Q 37.203125 48.484375 30.078125 48.484375 
Q 22.953125 48.484375 18.875 42.84375 
Q 14.796875 37.203125 14.796875 27.296875 
z
" id="DejaVuSans-100"/>
      <path d="M 18.3125 70.21875 
L 18.3125 54.6875 
L 36.8125 54.6875 
L 36.8125 47.703125 
L 18.3125 47.703125 
L 18.3125 18.015625 
Q 18.3125 11.328125 20.140625 9.421875 
Q 21.96875 7.515625 27.59375 7.515625 
L 36.8125 7.515625 
L 36.8125 0 
L 27.59375 0 
Q 17.1875 0 13.234375 3.875 
Q 9.28125 7.765625 9.28125 18.015625 
L 9.28125 47.703125 
L 2.6875 47.703125 
L 2.6875 54.6875 
L 9.28125 54.6875 
L 9.28125 70.21875 
z
" id="DejaVuSans-116"/>
      <path d="M 52 44.1875 
Q 55.375 50.25 60.0625 53.125 
Q 64.75 56 71.09375 56 
Q 79.640625 56 84.28125 50.015625 
Q 88.921875 44.046875 88.921875 33.015625 
L 88.921875 0 
L 79.890625 0 
L 79.890625 32.71875 
Q 79.890625 40.578125 77.09375 44.375 
Q 74.3125 48.1875 68.609375 48.1875 
Q 61.625 48.1875 57.5625 43.546875 
Q 53.515625 38.921875 53.515625 30.90625 
L 53.515625 0 
L 44.484375 0 
L 44.484375 32.71875 
Q 44.484375 40.625 41.703125 44.40625 
Q 38.921875 48.1875 33.109375 48.1875 
Q 26.21875 48.1875 22.15625 43.53125 
Q 18.109375 38.875 18.109375 30.90625 
L 18.109375 0 
L 9.078125 0 
L 9.078125 54.6875 
L 18.109375 54.6875 
L 18.109375 46.1875 
Q 21.1875 51.21875 25.484375 53.609375 
Q 29.78125 56 35.6875 56 
Q 41.65625 56 45.828125 52.96875 
Q 50 49.953125 52 44.1875 
z
" id="DejaVuSans-109"/>
      <path d="M 48.6875 27.296875 
Q 48.6875 37.203125 44.609375 42.84375 
Q 40.53125 48.484375 33.40625 48.484375 
Q 26.265625 48.484375 22.1875 42.84375 
Q 18.109375 37.203125 18.109375 27.296875 
Q 18.109375 17.390625 22.1875 11.75 
Q 26.265625 6.109375 33.40625 6.109375 
Q 40.53125 6.109375 44.609375 11.75 
Q 48.6875 17.390625 48.6875 27.296875 
z
M 18.109375 46.390625 
Q 20.953125 51.265625 25.265625 53.625 
Q 29.59375 56 35.59375 56 
Q 45.5625 56 51.78125 48.09375 
Q 58.015625 40.1875 58.015625 27.296875 
Q 58.015625 14.40625 51.78125 6.484375 
Q 45.5625 -1.421875 35.59375 -1.421875 
Q 29.59375 -1.421875 25.265625 0.953125 
Q 20.953125 3.328125 18.109375 8.203125 
L 18.109375 0 
L 9.078125 0 
L 9.078125 75.984375 
L 18.109375 75.984375 
z
" id="DejaVuSans-98"/>
      <path d="M 11.71875 12.40625 
L 22.015625 12.40625 
L 22.015625 0 
L 11.71875 0 
z
M 11.71875 51.703125 
L 22.015625 51.703125 
L 22.015625 39.3125 
L 11.71875 39.3125 
z
" id="DejaVuSans-58"/>
      <path d="M 10.984375 1.515625 
L 10.984375 10.5 
Q 14.703125 8.734375 18.5 7.8125 
Q 22.3125 6.890625 25.984375 6.890625 
Q 35.75 6.890625 40.890625 13.453125 
Q 46.046875 20.015625 46.78125 33.40625 
Q 43.953125 29.203125 39.59375 26.953125 
Q 35.25 24.703125 29.984375 24.703125 
Q 19.046875 24.703125 12.671875 31.3125 
Q 6.296875 37.9375 6.296875 49.421875 
Q 6.296875 60.640625 12.9375 67.421875 
Q 19.578125 74.21875 30.609375 74.21875 
Q 43.265625 74.21875 49.921875 64.515625 
Q 56.59375 54.828125 56.59375 36.375 
Q 56.59375 19.140625 48.40625 8.859375 
Q 40.234375 -1.421875 26.421875 -1.421875 
Q 22.703125 -1.421875 18.890625 -0.6875 
Q 15.09375 0.046875 10.984375 1.515625 
z
M 30.609375 32.421875 
Q 37.25 32.421875 41.125 36.953125 
Q 45.015625 41.5 45.015625 49.421875 
Q 45.015625 57.28125 41.125 61.84375 
Q 37.25 66.40625 30.609375 66.40625 
Q 23.96875 66.40625 20.09375 61.84375 
Q 16.21875 57.28125 16.21875 49.421875 
Q 16.21875 41.5 20.09375 36.953125 
Q 23.96875 32.421875 30.609375 32.421875 
z
" id="DejaVuSans-57"/>
     </defs>
     <use xlink:href="#DejaVuSans-83"/>
     <use x="63.476562" xlink:href="#DejaVuSans-105"/>
     <use x="91.259766" xlink:href="#DejaVuSans-110"/>
     <use x="154.638672" xlink:href="#DejaVuSans-103"/>
     <use x="218.115234" xlink:href="#DejaVuSans-117"/>
     <use x="281.494141" xlink:href="#DejaVuSans-108"/>
     <use x="309.277344" xlink:href="#DejaVuSans-97"/>
     <use x="370.556641" xlink:href="#DejaVuSans-114"/>
     <use x="411.669922" xlink:href="#DejaVuSans-32"/>
     <use x="443.457031" xlink:href="#DejaVuSans-118"/>
     <use x="502.636719" xlink:href="#DejaVuSans-97"/>
     <use x="563.916016" xlink:href="#DejaVuSans-108"/>
     <use x="591.699219" xlink:href="#DejaVuSans-117"/>
     <use x="655.078125" xlink:href="#DejaVuSans-101"/>
     <use x="716.601562" xlink:href="#DejaVuSans-115"/>
     <use x="768.701172" xlink:href="#DejaVuSans-46"/>
     <use x="800.488281" xlink:href="#DejaVuSans-32"/>
     <use x="832.275391" xlink:href="#DejaVuSans-67"/>
     <use x="902.099609" xlink:href="#DejaVuSans-111"/>
     <use x="963.28125" xlink:href="#DejaVuSans-110"/>
     <use x="1026.660156" xlink:href="#DejaVuSans-100"/>
     <use x="1090.136719" xlink:href="#DejaVuSans-105"/>
     <use x="1117.919922" xlink:href="#DejaVuSans-116"/>
     <use x="1157.128906" xlink:href="#DejaVuSans-105"/>
     <use x="1184.912109" xlink:href="#DejaVuSans-111"/>
     <use x="1246.09375" xlink:href="#DejaVuSans-110"/>
     <use x="1309.472656" xlink:href="#DejaVuSans-32"/>
     <use x="1341.259766" xlink:href="#DejaVuSans-110"/>
     <use x="1404.638672" xlink:href="#DejaVuSans-117"/>
     <use x="1468.017578" xlink:href="#DejaVuSans-109"/>
     <use x="1565.429688" xlink:href="#DejaVuSans-98"/>
     <use x="1628.90625" xlink:href="#DejaVuSans-101"/>
     <use x="1690.429688" xlink:href="#DejaVuSans-114"/>
     <use x="1729.792969" xlink:href="#DejaVuSans-58"/>
     <use x="1763.484375" xlink:href="#DejaVuSans-32"/>
     <use x="1795.271484" xlink:href="#DejaVuSans-52"/>
     <use x="1858.894531" xlink:href="#DejaVuSans-52"/>
     <use x="1922.517578" xlink:href="#DejaVuSans-48"/>
     <use x="1986.140625" xlink:href="#DejaVuSans-57"/>
    </g>
   </g>
  </g>
 </g>
 <defs>
  <clipPath id="p829372d58c">
   <rect height="217.44" width="334.8" x="37.7" y="22.318125"/>
  </clipPath>
 </defs>
</svg>
