<?xml version="1.0" encoding="utf-8" standalone="no"?>
<!DOCTYPE svg PUBLIC "-//W3C//DTD SVG 1.1//EN"
  "http://www.w3.org/Graphics/SVG/1.1/DTD/svg11.dtd">
<!-- Created with matplotlib (https://matplotlib.org/) -->
<svg height="248.518125pt" version="1.1" viewBox="0 0 384.1 248.518125" width="384.1pt" xmlns="http://www.w3.org/2000/svg" xmlns:xlink="http://www.w3.org/1999/xlink">
 <metadata>
  <rdf:RDF xmlns:cc="http://creativecommons.org/ns#" xmlns:dc="http://purl.org/dc/elements/1.1/" xmlns:rdf="http://www.w3.org/1999/02/22-rdf-syntax-ns#">
   <cc:Work>
    <dc:type rdf:resource="http://purl.org/dc/dcmitype/StillImage"/>
    <dc:date>2022-03-29T19:15:39.646983</dc:date>
    <dc:format>image/svg+xml</dc:format>
    <dc:creator>
     <cc:Agent>
      <dc:title>Matplotlib v3.3.4, https://matplotlib.org/</dc:title>
     </cc:Agent>
    </dc:creator>
   </cc:Work>
  </rdf:RDF>
 </metadata>
 <defs>
  <style type="text/css">*{stroke-linecap:butt;stroke-linejoin:round;}</style>
 </defs>
 <g id="figure_1">
  <g id="patch_1">
   <path d="M 0 248.518125 
L 384.1 248.518125 
L 384.1 0 
L 0 0 
z
" style="fill:none;"/>
  </g>
  <g id="axes_1">
   <g id="patch_2">
    <path d="M 42.1 224.64 
L 376.9 224.64 
L 376.9 7.2 
L 42.1 7.2 
z
" style="fill:#ffffff;"/>
   </g>
   <g id="matplotlib.axis_1">
    <g id="xtick_1">
     <g id="line2d_1">
      <defs>
       <path d="M 0 0 
L 0 3.5 
" id="mc6954958d9" style="stroke:#000000;stroke-width:0.8;"/>
      </defs>
      <g>
       <use style="stroke:#000000;stroke-width:0.8;" x="54.243802" xlink:href="#mc6954958d9" y="224.64"/>
      </g>
     </g>
     <g id="text_1">
      <!-- 0 -->
      <g transform="translate(51.062552 239.238437)scale(0.1 -0.1)">
       <defs>
        <path d="M 31.78125 66.40625 
Q 24.171875 66.40625 20.328125 58.90625 
Q 16.5 51.421875 16.5 36.375 
Q 16.5 21.390625 20.328125 13.890625 
Q 24.171875 6.390625 31.78125 6.390625 
Q 39.453125 6.390625 43.28125 13.890625 
Q 47.125 21.390625 47.125 36.375 
Q 47.125 51.421875 43.28125 58.90625 
Q 39.453125 66.40625 31.78125 66.40625 
z
M 31.78125 74.21875 
Q 44.046875 74.21875 50.515625 64.515625 
Q 56.984375 54.828125 56.984375 36.375 
Q 56.984375 17.96875 50.515625 8.265625 
Q 44.046875 -1.421875 31.78125 -1.421875 
Q 19.53125 -1.421875 13.0625 8.265625 
Q 6.59375 17.96875 6.59375 36.375 
Q 6.59375 54.828125 13.0625 64.515625 
Q 19.53125 74.21875 31.78125 74.21875 
z
" id="DejaVuSans-48"/>
       </defs>
       <use xlink:href="#DejaVuSans-48"/>
      </g>
     </g>
    </g>
    <g id="xtick_2">
     <g id="line2d_2">
      <g>
       <use style="stroke:#000000;stroke-width:0.8;" x="92.673554" xlink:href="#mc6954958d9" y="224.64"/>
      </g>
     </g>
     <g id="text_2">
      <!-- 250 -->
      <g transform="translate(83.129804 239.238437)scale(0.1 -0.1)">
       <defs>
        <path d="M 19.1875 8.296875 
L 53.609375 8.296875 
L 53.609375 0 
L 7.328125 0 
L 7.328125 8.296875 
Q 12.9375 14.109375 22.625 23.890625 
Q 32.328125 33.6875 34.8125 36.53125 
Q 39.546875 41.84375 41.421875 45.53125 
Q 43.3125 49.21875 43.3125 52.78125 
Q 43.3125 58.59375 39.234375 62.25 
Q 35.15625 65.921875 28.609375 65.921875 
Q 23.96875 65.921875 18.8125 64.3125 
Q 13.671875 62.703125 7.8125 59.421875 
L 7.8125 69.390625 
Q 13.765625 71.78125 18.9375 73 
Q 24.125 74.21875 28.421875 74.21875 
Q 39.75 74.21875 46.484375 68.546875 
Q 53.21875 62.890625 53.21875 53.421875 
Q 53.21875 48.921875 51.53125 44.890625 
Q 49.859375 40.875 45.40625 35.40625 
Q 44.1875 33.984375 37.640625 27.21875 
Q 31.109375 20.453125 19.1875 8.296875 
z
" id="DejaVuSans-50"/>
        <path d="M 10.796875 72.90625 
L 49.515625 72.90625 
L 49.515625 64.59375 
L 19.828125 64.59375 
L 19.828125 46.734375 
Q 21.96875 47.46875 24.109375 47.828125 
Q 26.265625 48.1875 28.421875 48.1875 
Q 40.625 48.1875 47.75 41.5 
Q 54.890625 34.8125 54.890625 23.390625 
Q 54.890625 11.625 47.5625 5.09375 
Q 40.234375 -1.421875 26.90625 -1.421875 
Q 22.3125 -1.421875 17.546875 -0.640625 
Q 12.796875 0.140625 7.71875 1.703125 
L 7.71875 11.625 
Q 12.109375 9.234375 16.796875 8.0625 
Q 21.484375 6.890625 26.703125 6.890625 
Q 35.15625 6.890625 40.078125 11.328125 
Q 45.015625 15.765625 45.015625 23.390625 
Q 45.015625 31 40.078125 35.4375 
Q 35.15625 39.890625 26.703125 39.890625 
Q 22.75 39.890625 18.8125 39.015625 
Q 14.890625 38.140625 10.796875 36.28125 
z
" id="DejaVuSans-53"/>
       </defs>
       <use xlink:href="#DejaVuSans-50"/>
       <use x="63.623047" xlink:href="#DejaVuSans-53"/>
       <use x="127.246094" xlink:href="#DejaVuSans-48"/>
      </g>
     </g>
    </g>
    <g id="xtick_3">
     <g id="line2d_3">
      <g>
       <use style="stroke:#000000;stroke-width:0.8;" x="131.103306" xlink:href="#mc6954958d9" y="224.64"/>
      </g>
     </g>
     <g id="text_3">
      <!-- 500 -->
      <g transform="translate(121.559556 239.238437)scale(0.1 -0.1)">
       <use xlink:href="#DejaVuSans-53"/>
       <use x="63.623047" xlink:href="#DejaVuSans-48"/>
       <use x="127.246094" xlink:href="#DejaVuSans-48"/>
      </g>
     </g>
    </g>
    <g id="xtick_4">
     <g id="line2d_4">
      <g>
       <use style="stroke:#000000;stroke-width:0.8;" x="169.533058" xlink:href="#mc6954958d9" y="224.64"/>
      </g>
     </g>
     <g id="text_4">
      <!-- 750 -->
      <g transform="translate(159.989308 239.238437)scale(0.1 -0.1)">
       <defs>
        <path d="M 8.203125 72.90625 
L 55.078125 72.90625 
L 55.078125 68.703125 
L 28.609375 0 
L 18.3125 0 
L 43.21875 64.59375 
L 8.203125 64.59375 
z
" id="DejaVuSans-55"/>
       </defs>
       <use xlink:href="#DejaVuSans-55"/>
       <use x="63.623047" xlink:href="#DejaVuSans-53"/>
       <use x="127.246094" xlink:href="#DejaVuSans-48"/>
      </g>
     </g>
    </g>
    <g id="xtick_5">
     <g id="line2d_5">
      <g>
       <use style="stroke:#000000;stroke-width:0.8;" x="207.96281" xlink:href="#mc6954958d9" y="224.64"/>
      </g>
     </g>
     <g id="text_5">
      <!-- 1000 -->
      <g transform="translate(195.23781 239.238437)scale(0.1 -0.1)">
       <defs>
        <path d="M 12.40625 8.296875 
L 28.515625 8.296875 
L 28.515625 63.921875 
L 10.984375 60.40625 
L 10.984375 69.390625 
L 28.421875 72.90625 
L 38.28125 72.90625 
L 38.28125 8.296875 
L 54.390625 8.296875 
L 54.390625 0 
L 12.40625 0 
z
" id="DejaVuSans-49"/>
       </defs>
       <use xlink:href="#DejaVuSans-49"/>
       <use x="63.623047" xlink:href="#DejaVuSans-48"/>
       <use x="127.246094" xlink:href="#DejaVuSans-48"/>
       <use x="190.869141" xlink:href="#DejaVuSans-48"/>
      </g>
     </g>
    </g>
    <g id="xtick_6">
     <g id="line2d_6">
      <g>
       <use style="stroke:#000000;stroke-width:0.8;" x="246.392562" xlink:href="#mc6954958d9" y="224.64"/>
      </g>
     </g>
     <g id="text_6">
      <!-- 1250 -->
      <g transform="translate(233.667562 239.238437)scale(0.1 -0.1)">
       <use xlink:href="#DejaVuSans-49"/>
       <use x="63.623047" xlink:href="#DejaVuSans-50"/>
       <use x="127.246094" xlink:href="#DejaVuSans-53"/>
       <use x="190.869141" xlink:href="#DejaVuSans-48"/>
      </g>
     </g>
    </g>
    <g id="xtick_7">
     <g id="line2d_7">
      <g>
       <use style="stroke:#000000;stroke-width:0.8;" x="284.822314" xlink:href="#mc6954958d9" y="224.64"/>
      </g>
     </g>
     <g id="text_7">
      <!-- 1500 -->
      <g transform="translate(272.097314 239.238437)scale(0.1 -0.1)">
       <use xlink:href="#DejaVuSans-49"/>
       <use x="63.623047" xlink:href="#DejaVuSans-53"/>
       <use x="127.246094" xlink:href="#DejaVuSans-48"/>
       <use x="190.869141" xlink:href="#DejaVuSans-48"/>
      </g>
     </g>
    </g>
    <g id="xtick_8">
     <g id="line2d_8">
      <g>
       <use style="stroke:#000000;stroke-width:0.8;" x="323.252066" xlink:href="#mc6954958d9" y="224.64"/>
      </g>
     </g>
     <g id="text_8">
      <!-- 1750 -->
      <g transform="translate(310.527066 239.238437)scale(0.1 -0.1)">
       <use xlink:href="#DejaVuSans-49"/>
       <use x="63.623047" xlink:href="#DejaVuSans-55"/>
       <use x="127.246094" xlink:href="#DejaVuSans-53"/>
       <use x="190.869141" xlink:href="#DejaVuSans-48"/>
      </g>
     </g>
    </g>
    <g id="xtick_9">
     <g id="line2d_9">
      <g>
       <use style="stroke:#000000;stroke-width:0.8;" x="361.681818" xlink:href="#mc6954958d9" y="224.64"/>
      </g>
     </g>
     <g id="text_9">
      <!-- 2000 -->
      <g transform="translate(348.956818 239.238437)scale(0.1 -0.1)">
       <use xlink:href="#DejaVuSans-50"/>
       <use x="63.623047" xlink:href="#DejaVuSans-48"/>
       <use x="127.246094" xlink:href="#DejaVuSans-48"/>
       <use x="190.869141" xlink:href="#DejaVuSans-48"/>
      </g>
     </g>
    </g>
   </g>
   <g id="matplotlib.axis_2">
    <g id="ytick_1">
     <g id="line2d_10">
      <defs>
       <path d="M 0 0 
L -3.5 0 
" id="md626e92eb4" style="stroke:#000000;stroke-width:0.8;"/>
      </defs>
      <g>
       <use style="stroke:#000000;stroke-width:0.8;" x="42.1" xlink:href="#md626e92eb4" y="204.396521"/>
      </g>
     </g>
     <g id="text_10">
      <!-- $\mathdefault{10^{-26}}$ -->
      <g transform="translate(7.2 208.19574)scale(0.1 -0.1)">
       <defs>
        <path d="M 10.59375 35.5 
L 73.1875 35.5 
L 73.1875 27.203125 
L 10.59375 27.203125 
z
" id="DejaVuSans-8722"/>
        <path d="M 33.015625 40.375 
Q 26.375 40.375 22.484375 35.828125 
Q 18.609375 31.296875 18.609375 23.390625 
Q 18.609375 15.53125 22.484375 10.953125 
Q 26.375 6.390625 33.015625 6.390625 
Q 39.65625 6.390625 43.53125 10.953125 
Q 47.40625 15.53125 47.40625 23.390625 
Q 47.40625 31.296875 43.53125 35.828125 
Q 39.65625 40.375 33.015625 40.375 
z
M 52.59375 71.296875 
L 52.59375 62.3125 
Q 48.875 64.0625 45.09375 64.984375 
Q 41.3125 65.921875 37.59375 65.921875 
Q 27.828125 65.921875 22.671875 59.328125 
Q 17.53125 52.734375 16.796875 39.40625 
Q 19.671875 43.65625 24.015625 45.921875 
Q 28.375 48.1875 33.59375 48.1875 
Q 44.578125 48.1875 50.953125 41.515625 
Q 57.328125 34.859375 57.328125 23.390625 
Q 57.328125 12.15625 50.6875 5.359375 
Q 44.046875 -1.421875 33.015625 -1.421875 
Q 20.359375 -1.421875 13.671875 8.265625 
Q 6.984375 17.96875 6.984375 36.375 
Q 6.984375 53.65625 15.1875 63.9375 
Q 23.390625 74.21875 37.203125 74.21875 
Q 40.921875 74.21875 44.703125 73.484375 
Q 48.484375 72.75 52.59375 71.296875 
z
" id="DejaVuSans-54"/>
       </defs>
       <use transform="translate(0 0.765625)" xlink:href="#DejaVuSans-49"/>
       <use transform="translate(63.623047 0.765625)" xlink:href="#DejaVuSans-48"/>
       <use transform="translate(128.203125 39.046875)scale(0.7)" xlink:href="#DejaVuSans-8722"/>
       <use transform="translate(186.855469 39.046875)scale(0.7)" xlink:href="#DejaVuSans-50"/>
       <use transform="translate(231.391602 39.046875)scale(0.7)" xlink:href="#DejaVuSans-54"/>
      </g>
     </g>
    </g>
    <g id="ytick_2">
     <g id="line2d_11">
      <g>
       <use style="stroke:#000000;stroke-width:0.8;" x="42.1" xlink:href="#md626e92eb4" y="178.501745"/>
      </g>
     </g>
     <g id="text_11">
      <!-- $\mathdefault{10^{-23}}$ -->
      <g transform="translate(7.2 182.300964)scale(0.1 -0.1)">
       <defs>
        <path d="M 40.578125 39.3125 
Q 47.65625 37.796875 51.625 33 
Q 55.609375 28.21875 55.609375 21.1875 
Q 55.609375 10.40625 48.1875 4.484375 
Q 40.765625 -1.421875 27.09375 -1.421875 
Q 22.515625 -1.421875 17.65625 -0.515625 
Q 12.796875 0.390625 7.625 2.203125 
L 7.625 11.71875 
Q 11.71875 9.328125 16.59375 8.109375 
Q 21.484375 6.890625 26.8125 6.890625 
Q 36.078125 6.890625 40.9375 10.546875 
Q 45.796875 14.203125 45.796875 21.1875 
Q 45.796875 27.640625 41.28125 31.265625 
Q 36.765625 34.90625 28.71875 34.90625 
L 20.21875 34.90625 
L 20.21875 43.015625 
L 29.109375 43.015625 
Q 36.375 43.015625 40.234375 45.921875 
Q 44.09375 48.828125 44.09375 54.296875 
Q 44.09375 59.90625 40.109375 62.90625 
Q 36.140625 65.921875 28.71875 65.921875 
Q 24.65625 65.921875 20.015625 65.03125 
Q 15.375 64.15625 9.8125 62.3125 
L 9.8125 71.09375 
Q 15.4375 72.65625 20.34375 73.4375 
Q 25.25 74.21875 29.59375 74.21875 
Q 40.828125 74.21875 47.359375 69.109375 
Q 53.90625 64.015625 53.90625 55.328125 
Q 53.90625 49.265625 50.4375 45.09375 
Q 46.96875 40.921875 40.578125 39.3125 
z
" id="DejaVuSans-51"/>
       </defs>
       <use transform="translate(0 0.765625)" xlink:href="#DejaVuSans-49"/>
       <use transform="translate(63.623047 0.765625)" xlink:href="#DejaVuSans-48"/>
       <use transform="translate(128.203125 39.046875)scale(0.7)" xlink:href="#DejaVuSans-8722"/>
       <use transform="translate(186.855469 39.046875)scale(0.7)" xlink:href="#DejaVuSans-50"/>
       <use transform="translate(231.391602 39.046875)scale(0.7)" xlink:href="#DejaVuSans-51"/>
      </g>
     </g>
    </g>
    <g id="ytick_3">
     <g id="line2d_12">
      <g>
       <use style="stroke:#000000;stroke-width:0.8;" x="42.1" xlink:href="#md626e92eb4" y="152.606969"/>
      </g>
     </g>
     <g id="text_12">
      <!-- $\mathdefault{10^{-20}}$ -->
      <g transform="translate(7.2 156.406188)scale(0.1 -0.1)">
       <use transform="translate(0 0.765625)" xlink:href="#DejaVuSans-49"/>
       <use transform="translate(63.623047 0.765625)" xlink:href="#DejaVuSans-48"/>
       <use transform="translate(128.203125 39.046875)scale(0.7)" xlink:href="#DejaVuSans-8722"/>
       <use transform="translate(186.855469 39.046875)scale(0.7)" xlink:href="#DejaVuSans-50"/>
       <use transform="translate(231.391602 39.046875)scale(0.7)" xlink:href="#DejaVuSans-48"/>
      </g>
     </g>
    </g>
    <g id="ytick_4">
     <g id="line2d_13">
      <g>
       <use style="stroke:#000000;stroke-width:0.8;" x="42.1" xlink:href="#md626e92eb4" y="126.712193"/>
      </g>
     </g>
     <g id="text_13">
      <!-- $\mathdefault{10^{-17}}$ -->
      <g transform="translate(7.2 130.511412)scale(0.1 -0.1)">
       <use transform="translate(0 0.684375)" xlink:href="#DejaVuSans-49"/>
       <use transform="translate(63.623047 0.684375)" xlink:href="#DejaVuSans-48"/>
       <use transform="translate(128.203125 38.965625)scale(0.7)" xlink:href="#DejaVuSans-8722"/>
       <use transform="translate(186.855469 38.965625)scale(0.7)" xlink:href="#DejaVuSans-49"/>
       <use transform="translate(231.391602 38.965625)scale(0.7)" xlink:href="#DejaVuSans-55"/>
      </g>
     </g>
    </g>
    <g id="ytick_5">
     <g id="line2d_14">
      <g>
       <use style="stroke:#000000;stroke-width:0.8;" x="42.1" xlink:href="#md626e92eb4" y="100.817417"/>
      </g>
     </g>
     <g id="text_14">
      <!-- $\mathdefault{10^{-14}}$ -->
      <g transform="translate(7.2 104.616636)scale(0.1 -0.1)">
       <defs>
        <path d="M 37.796875 64.3125 
L 12.890625 25.390625 
L 37.796875 25.390625 
z
M 35.203125 72.90625 
L 47.609375 72.90625 
L 47.609375 25.390625 
L 58.015625 25.390625 
L 58.015625 17.1875 
L 47.609375 17.1875 
L 47.609375 0 
L 37.796875 0 
L 37.796875 17.1875 
L 4.890625 17.1875 
L 4.890625 26.703125 
z
" id="DejaVuSans-52"/>
       </defs>
       <use transform="translate(0 0.684375)" xlink:href="#DejaVuSans-49"/>
       <use transform="translate(63.623047 0.684375)" xlink:href="#DejaVuSans-48"/>
       <use transform="translate(128.203125 38.965625)scale(0.7)" xlink:href="#DejaVuSans-8722"/>
       <use transform="translate(186.855469 38.965625)scale(0.7)" xlink:href="#DejaVuSans-49"/>
       <use transform="translate(231.391602 38.965625)scale(0.7)" xlink:href="#DejaVuSans-52"/>
      </g>
     </g>
    </g>
    <g id="ytick_6">
     <g id="line2d_15">
      <g>
       <use style="stroke:#000000;stroke-width:0.8;" x="42.1" xlink:href="#md626e92eb4" y="74.922641"/>
      </g>
     </g>
     <g id="text_15">
      <!-- $\mathdefault{10^{-11}}$ -->
      <g transform="translate(7.2 78.721859)scale(0.1 -0.1)">
       <use transform="translate(0 0.684375)" xlink:href="#DejaVuSans-49"/>
       <use transform="translate(63.623047 0.684375)" xlink:href="#DejaVuSans-48"/>
       <use transform="translate(128.203125 38.965625)scale(0.7)" xlink:href="#DejaVuSans-8722"/>
       <use transform="translate(186.855469 38.965625)scale(0.7)" xlink:href="#DejaVuSans-49"/>
       <use transform="translate(231.391602 38.965625)scale(0.7)" xlink:href="#DejaVuSans-49"/>
      </g>
     </g>
    </g>
    <g id="ytick_7">
     <g id="line2d_16">
      <g>
       <use style="stroke:#000000;stroke-width:0.8;" x="42.1" xlink:href="#md626e92eb4" y="49.027865"/>
      </g>
     </g>
     <g id="text_16">
      <!-- $\mathdefault{10^{-8}}$ -->
      <g transform="translate(11.6 52.827083)scale(0.1 -0.1)">
       <defs>
        <path d="M 31.78125 34.625 
Q 24.75 34.625 20.71875 30.859375 
Q 16.703125 27.09375 16.703125 20.515625 
Q 16.703125 13.921875 20.71875 10.15625 
Q 24.75 6.390625 31.78125 6.390625 
Q 38.8125 6.390625 42.859375 10.171875 
Q 46.921875 13.96875 46.921875 20.515625 
Q 46.921875 27.09375 42.890625 30.859375 
Q 38.875 34.625 31.78125 34.625 
z
M 21.921875 38.8125 
Q 15.578125 40.375 12.03125 44.71875 
Q 8.5 49.078125 8.5 55.328125 
Q 8.5 64.0625 14.71875 69.140625 
Q 20.953125 74.21875 31.78125 74.21875 
Q 42.671875 74.21875 48.875 69.140625 
Q 55.078125 64.0625 55.078125 55.328125 
Q 55.078125 49.078125 51.53125 44.71875 
Q 48 40.375 41.703125 38.8125 
Q 48.828125 37.15625 52.796875 32.3125 
Q 56.78125 27.484375 56.78125 20.515625 
Q 56.78125 9.90625 50.3125 4.234375 
Q 43.84375 -1.421875 31.78125 -1.421875 
Q 19.734375 -1.421875 13.25 4.234375 
Q 6.78125 9.90625 6.78125 20.515625 
Q 6.78125 27.484375 10.78125 32.3125 
Q 14.796875 37.15625 21.921875 38.8125 
z
M 18.3125 54.390625 
Q 18.3125 48.734375 21.84375 45.5625 
Q 25.390625 42.390625 31.78125 42.390625 
Q 38.140625 42.390625 41.71875 45.5625 
Q 45.3125 48.734375 45.3125 54.390625 
Q 45.3125 60.0625 41.71875 63.234375 
Q 38.140625 66.40625 31.78125 66.40625 
Q 25.390625 66.40625 21.84375 63.234375 
Q 18.3125 60.0625 18.3125 54.390625 
z
" id="DejaVuSans-56"/>
       </defs>
       <use transform="translate(0 0.765625)" xlink:href="#DejaVuSans-49"/>
       <use transform="translate(63.623047 0.765625)" xlink:href="#DejaVuSans-48"/>
       <use transform="translate(128.203125 39.046875)scale(0.7)" xlink:href="#DejaVuSans-8722"/>
       <use transform="translate(186.855469 39.046875)scale(0.7)" xlink:href="#DejaVuSans-56"/>
      </g>
     </g>
    </g>
    <g id="ytick_8">
     <g id="line2d_17">
      <g>
       <use style="stroke:#000000;stroke-width:0.8;" x="42.1" xlink:href="#md626e92eb4" y="23.133088"/>
      </g>
     </g>
     <g id="text_17">
      <!-- $\mathdefault{10^{-5}}$ -->
      <g transform="translate(11.6 26.932307)scale(0.1 -0.1)">
       <use transform="translate(0 0.684375)" xlink:href="#DejaVuSans-49"/>
       <use transform="translate(63.623047 0.684375)" xlink:href="#DejaVuSans-48"/>
       <use transform="translate(128.203125 38.965625)scale(0.7)" xlink:href="#DejaVuSans-8722"/>
       <use transform="translate(186.855469 38.965625)scale(0.7)" xlink:href="#DejaVuSans-53"/>
      </g>
     </g>
    </g>
   </g>
   <g id="line2d_18">
    <path clip-path="url(#p3385a4d475)" d="M 57.318182 17.083636 
L 60.392562 30.744391 
L 63.466942 38.019771 
L 66.541322 42.489395 
L 69.615702 45.758884 
L 72.690083 48.334676 
L 75.764463 50.433061 
L 78.838843 52.206859 
L 81.913223 53.744833 
L 84.987603 55.111589 
L 88.061983 56.348064 
L 91.136364 57.484921 
L 94.210744 58.542874 
L 97.285124 59.537767 
L 100.359504 60.480988 
L 103.433884 61.381399 
L 106.508264 62.245757 
L 109.582645 63.079375 
L 112.657025 63.886514 
L 115.731405 64.670542 
L 118.805785 65.434283 
L 121.880165 66.17998 
L 124.954545 66.909586 
L 128.028926 67.624667 
L 131.103306 68.326626 
L 134.177686 69.016606 
L 137.252066 69.695653 
L 140.326446 70.364634 
L 143.400826 71.024351 
L 146.475207 71.675486 
L 149.549587 72.318672 
L 152.623967 72.954459 
L 155.698347 73.583357 
L 158.772727 74.20582 
L 161.847107 74.822264 
L 164.921488 75.433071 
L 167.995868 76.038588 
L 171.070248 76.639136 
L 174.144628 77.235008 
L 177.219008 77.826478 
L 180.293388 78.413796 
L 183.367769 78.997196 
L 186.442149 79.576892 
L 189.516529 80.153087 
L 192.590909 80.725964 
L 195.665289 81.295699 
L 198.739669 81.862451 
L 201.81405 82.426373 
L 204.88843 82.987602 
L 207.96281 83.546274 
L 211.03719 84.102505 
L 214.11157 84.656416 
L 217.18595 85.20811 
L 220.260331 85.75769 
L 223.334711 86.305247 
L 226.409091 86.850874 
L 229.483471 87.394649 
L 232.557851 87.936654 
L 235.632231 88.476959 
L 238.706612 89.015636 
L 241.780992 89.552746 
L 244.855372 90.088354 
L 247.929752 90.622514 
L 251.004132 91.155283 
L 254.078512 91.686711 
L 257.152893 92.216847 
L 260.227273 92.745736 
L 263.301653 93.273423 
L 266.376033 93.799945 
L 269.450413 94.325346 
L 272.524793 94.849658 
L 275.599174 95.37292 
L 278.673554 95.895162 
L 281.747934 96.416417 
L 284.822314 96.936713 
L 287.896694 97.456081 
L 290.971074 97.974546 
L 294.045455 98.492135 
L 297.119835 99.008871 
L 300.194215 99.52478 
L 303.268595 100.039881 
L 306.342975 100.554197 
L 309.417355 101.067748 
L 312.491736 101.580555 
L 315.566116 102.092634 
L 318.640496 102.604004 
L 321.714876 103.114682 
L 324.789256 103.624686 
L 327.863636 104.134028 
L 330.938017 104.642727 
L 334.012397 105.150794 
L 337.086777 105.658245 
L 340.161157 106.165093 
L 343.235537 106.671351 
L 346.309917 107.177031 
L 349.384298 107.682145 
L 352.458678 108.186704 
L 355.533058 108.69072 
L 358.607438 109.194203 
L 361.681818 109.697164 
" style="fill:none;stroke:#1f77b4;stroke-linecap:square;stroke-width:1.5;"/>
    <defs>
     <path d="M 0 1.5 
C 0.397805 1.5 0.77937 1.341951 1.06066 1.06066 
C 1.341951 0.77937 1.5 0.397805 1.5 0 
C 1.5 -0.397805 1.341951 -0.77937 1.06066 -1.06066 
C 0.77937 -1.341951 0.397805 -1.5 0 -1.5 
C -0.397805 -1.5 -0.77937 -1.341951 -1.06066 -1.06066 
C -1.341951 -0.77937 -1.5 -0.397805 -1.5 0 
C -1.5 0.397805 -1.341951 0.77937 -1.06066 1.06066 
C -0.77937 1.341951 -0.397805 1.5 0 1.5 
z
" id="m941cd554d5" style="stroke:#1f77b4;"/>
    </defs>
    <g clip-path="url(#p3385a4d475)">
     <use style="fill:#1f77b4;stroke:#1f77b4;" x="57.318182" xlink:href="#m941cd554d5" y="17.083636"/>
     <use style="fill:#1f77b4;stroke:#1f77b4;" x="60.392562" xlink:href="#m941cd554d5" y="30.744391"/>
     <use style="fill:#1f77b4;stroke:#1f77b4;" x="63.466942" xlink:href="#m941cd554d5" y="38.019771"/>
     <use style="fill:#1f77b4;stroke:#1f77b4;" x="66.541322" xlink:href="#m941cd554d5" y="42.489395"/>
     <use style="fill:#1f77b4;stroke:#1f77b4;" x="69.615702" xlink:href="#m941cd554d5" y="45.758884"/>
     <use style="fill:#1f77b4;stroke:#1f77b4;" x="72.690083" xlink:href="#m941cd554d5" y="48.334676"/>
     <use style="fill:#1f77b4;stroke:#1f77b4;" x="75.764463" xlink:href="#m941cd554d5" y="50.433061"/>
     <use style="fill:#1f77b4;stroke:#1f77b4;" x="78.838843" xlink:href="#m941cd554d5" y="52.206859"/>
     <use style="fill:#1f77b4;stroke:#1f77b4;" x="81.913223" xlink:href="#m941cd554d5" y="53.744833"/>
     <use style="fill:#1f77b4;stroke:#1f77b4;" x="84.987603" xlink:href="#m941cd554d5" y="55.111589"/>
     <use style="fill:#1f77b4;stroke:#1f77b4;" x="88.061983" xlink:href="#m941cd554d5" y="56.348064"/>
     <use style="fill:#1f77b4;stroke:#1f77b4;" x="91.136364" xlink:href="#m941cd554d5" y="57.484921"/>
     <use style="fill:#1f77b4;stroke:#1f77b4;" x="94.210744" xlink:href="#m941cd554d5" y="58.542874"/>
     <use style="fill:#1f77b4;stroke:#1f77b4;" x="97.285124" xlink:href="#m941cd554d5" y="59.537767"/>
     <use style="fill:#1f77b4;stroke:#1f77b4;" x="100.359504" xlink:href="#m941cd554d5" y="60.480988"/>
     <use style="fill:#1f77b4;stroke:#1f77b4;" x="103.433884" xlink:href="#m941cd554d5" y="61.381399"/>
     <use style="fill:#1f77b4;stroke:#1f77b4;" x="106.508264" xlink:href="#m941cd554d5" y="62.245757"/>
     <use style="fill:#1f77b4;stroke:#1f77b4;" x="109.582645" xlink:href="#m941cd554d5" y="63.079375"/>
     <use style="fill:#1f77b4;stroke:#1f77b4;" x="112.657025" xlink:href="#m941cd554d5" y="63.886514"/>
     <use style="fill:#1f77b4;stroke:#1f77b4;" x="115.731405" xlink:href="#m941cd554d5" y="64.670542"/>
     <use style="fill:#1f77b4;stroke:#1f77b4;" x="118.805785" xlink:href="#m941cd554d5" y="65.434283"/>
     <use style="fill:#1f77b4;stroke:#1f77b4;" x="121.880165" xlink:href="#m941cd554d5" y="66.17998"/>
     <use style="fill:#1f77b4;stroke:#1f77b4;" x="124.954545" xlink:href="#m941cd554d5" y="66.909586"/>
     <use style="fill:#1f77b4;stroke:#1f77b4;" x="128.028926" xlink:href="#m941cd554d5" y="67.624667"/>
     <use style="fill:#1f77b4;stroke:#1f77b4;" x="131.103306" xlink:href="#m941cd554d5" y="68.326626"/>
     <use style="fill:#1f77b4;stroke:#1f77b4;" x="134.177686" xlink:href="#m941cd554d5" y="69.016606"/>
     <use style="fill:#1f77b4;stroke:#1f77b4;" x="137.252066" xlink:href="#m941cd554d5" y="69.695653"/>
     <use style="fill:#1f77b4;stroke:#1f77b4;" x="140.326446" xlink:href="#m941cd554d5" y="70.364634"/>
     <use style="fill:#1f77b4;stroke:#1f77b4;" x="143.400826" xlink:href="#m941cd554d5" y="71.024351"/>
     <use style="fill:#1f77b4;stroke:#1f77b4;" x="146.475207" xlink:href="#m941cd554d5" y="71.675486"/>
     <use style="fill:#1f77b4;stroke:#1f77b4;" x="149.549587" xlink:href="#m941cd554d5" y="72.318672"/>
     <use style="fill:#1f77b4;stroke:#1f77b4;" x="152.623967" xlink:href="#m941cd554d5" y="72.954459"/>
     <use style="fill:#1f77b4;stroke:#1f77b4;" x="155.698347" xlink:href="#m941cd554d5" y="73.583357"/>
     <use style="fill:#1f77b4;stroke:#1f77b4;" x="158.772727" xlink:href="#m941cd554d5" y="74.20582"/>
     <use style="fill:#1f77b4;stroke:#1f77b4;" x="161.847107" xlink:href="#m941cd554d5" y="74.822264"/>
     <use style="fill:#1f77b4;stroke:#1f77b4;" x="164.921488" xlink:href="#m941cd554d5" y="75.433071"/>
     <use style="fill:#1f77b4;stroke:#1f77b4;" x="167.995868" xlink:href="#m941cd554d5" y="76.038588"/>
     <use style="fill:#1f77b4;stroke:#1f77b4;" x="171.070248" xlink:href="#m941cd554d5" y="76.639136"/>
     <use style="fill:#1f77b4;stroke:#1f77b4;" x="174.144628" xlink:href="#m941cd554d5" y="77.235008"/>
     <use style="fill:#1f77b4;stroke:#1f77b4;" x="177.219008" xlink:href="#m941cd554d5" y="77.826478"/>
     <use style="fill:#1f77b4;stroke:#1f77b4;" x="180.293388" xlink:href="#m941cd554d5" y="78.413796"/>
     <use style="fill:#1f77b4;stroke:#1f77b4;" x="183.367769" xlink:href="#m941cd554d5" y="78.997196"/>
     <use style="fill:#1f77b4;stroke:#1f77b4;" x="186.442149" xlink:href="#m941cd554d5" y="79.576892"/>
     <use style="fill:#1f77b4;stroke:#1f77b4;" x="189.516529" xlink:href="#m941cd554d5" y="80.153087"/>
     <use style="fill:#1f77b4;stroke:#1f77b4;" x="192.590909" xlink:href="#m941cd554d5" y="80.725964"/>
     <use style="fill:#1f77b4;stroke:#1f77b4;" x="195.665289" xlink:href="#m941cd554d5" y="81.295699"/>
     <use style="fill:#1f77b4;stroke:#1f77b4;" x="198.739669" xlink:href="#m941cd554d5" y="81.862451"/>
     <use style="fill:#1f77b4;stroke:#1f77b4;" x="201.81405" xlink:href="#m941cd554d5" y="82.426373"/>
     <use style="fill:#1f77b4;stroke:#1f77b4;" x="204.88843" xlink:href="#m941cd554d5" y="82.987602"/>
     <use style="fill:#1f77b4;stroke:#1f77b4;" x="207.96281" xlink:href="#m941cd554d5" y="83.546274"/>
     <use style="fill:#1f77b4;stroke:#1f77b4;" x="211.03719" xlink:href="#m941cd554d5" y="84.102505"/>
     <use style="fill:#1f77b4;stroke:#1f77b4;" x="214.11157" xlink:href="#m941cd554d5" y="84.656416"/>
     <use style="fill:#1f77b4;stroke:#1f77b4;" x="217.18595" xlink:href="#m941cd554d5" y="85.20811"/>
     <use style="fill:#1f77b4;stroke:#1f77b4;" x="220.260331" xlink:href="#m941cd554d5" y="85.75769"/>
     <use style="fill:#1f77b4;stroke:#1f77b4;" x="223.334711" xlink:href="#m941cd554d5" y="86.305247"/>
     <use style="fill:#1f77b4;stroke:#1f77b4;" x="226.409091" xlink:href="#m941cd554d5" y="86.850874"/>
     <use style="fill:#1f77b4;stroke:#1f77b4;" x="229.483471" xlink:href="#m941cd554d5" y="87.394649"/>
     <use style="fill:#1f77b4;stroke:#1f77b4;" x="232.557851" xlink:href="#m941cd554d5" y="87.936654"/>
     <use style="fill:#1f77b4;stroke:#1f77b4;" x="235.632231" xlink:href="#m941cd554d5" y="88.476959"/>
     <use style="fill:#1f77b4;stroke:#1f77b4;" x="238.706612" xlink:href="#m941cd554d5" y="89.015636"/>
     <use style="fill:#1f77b4;stroke:#1f77b4;" x="241.780992" xlink:href="#m941cd554d5" y="89.552746"/>
     <use style="fill:#1f77b4;stroke:#1f77b4;" x="244.855372" xlink:href="#m941cd554d5" y="90.088354"/>
     <use style="fill:#1f77b4;stroke:#1f77b4;" x="247.929752" xlink:href="#m941cd554d5" y="90.622514"/>
     <use style="fill:#1f77b4;stroke:#1f77b4;" x="251.004132" xlink:href="#m941cd554d5" y="91.155283"/>
     <use style="fill:#1f77b4;stroke:#1f77b4;" x="254.078512" xlink:href="#m941cd554d5" y="91.686711"/>
     <use style="fill:#1f77b4;stroke:#1f77b4;" x="257.152893" xlink:href="#m941cd554d5" y="92.216847"/>
     <use style="fill:#1f77b4;stroke:#1f77b4;" x="260.227273" xlink:href="#m941cd554d5" y="92.745736"/>
     <use style="fill:#1f77b4;stroke:#1f77b4;" x="263.301653" xlink:href="#m941cd554d5" y="93.273423"/>
     <use style="fill:#1f77b4;stroke:#1f77b4;" x="266.376033" xlink:href="#m941cd554d5" y="93.799945"/>
     <use style="fill:#1f77b4;stroke:#1f77b4;" x="269.450413" xlink:href="#m941cd554d5" y="94.325346"/>
     <use style="fill:#1f77b4;stroke:#1f77b4;" x="272.524793" xlink:href="#m941cd554d5" y="94.849658"/>
     <use style="fill:#1f77b4;stroke:#1f77b4;" x="275.599174" xlink:href="#m941cd554d5" y="95.37292"/>
     <use style="fill:#1f77b4;stroke:#1f77b4;" x="278.673554" xlink:href="#m941cd554d5" y="95.895162"/>
     <use style="fill:#1f77b4;stroke:#1f77b4;" x="281.747934" xlink:href="#m941cd554d5" y="96.416417"/>
     <use style="fill:#1f77b4;stroke:#1f77b4;" x="284.822314" xlink:href="#m941cd554d5" y="96.936713"/>
     <use style="fill:#1f77b4;stroke:#1f77b4;" x="287.896694" xlink:href="#m941cd554d5" y="97.456081"/>
     <use style="fill:#1f77b4;stroke:#1f77b4;" x="290.971074" xlink:href="#m941cd554d5" y="97.974546"/>
     <use style="fill:#1f77b4;stroke:#1f77b4;" x="294.045455" xlink:href="#m941cd554d5" y="98.492135"/>
     <use style="fill:#1f77b4;stroke:#1f77b4;" x="297.119835" xlink:href="#m941cd554d5" y="99.008871"/>
     <use style="fill:#1f77b4;stroke:#1f77b4;" x="300.194215" xlink:href="#m941cd554d5" y="99.52478"/>
     <use style="fill:#1f77b4;stroke:#1f77b4;" x="303.268595" xlink:href="#m941cd554d5" y="100.039881"/>
     <use style="fill:#1f77b4;stroke:#1f77b4;" x="306.342975" xlink:href="#m941cd554d5" y="100.554197"/>
     <use style="fill:#1f77b4;stroke:#1f77b4;" x="309.417355" xlink:href="#m941cd554d5" y="101.067748"/>
     <use style="fill:#1f77b4;stroke:#1f77b4;" x="312.491736" xlink:href="#m941cd554d5" y="101.580555"/>
     <use style="fill:#1f77b4;stroke:#1f77b4;" x="315.566116" xlink:href="#m941cd554d5" y="102.092634"/>
     <use style="fill:#1f77b4;stroke:#1f77b4;" x="318.640496" xlink:href="#m941cd554d5" y="102.604004"/>
     <use style="fill:#1f77b4;stroke:#1f77b4;" x="321.714876" xlink:href="#m941cd554d5" y="103.114682"/>
     <use style="fill:#1f77b4;stroke:#1f77b4;" x="324.789256" xlink:href="#m941cd554d5" y="103.624686"/>
     <use style="fill:#1f77b4;stroke:#1f77b4;" x="327.863636" xlink:href="#m941cd554d5" y="104.134028"/>
     <use style="fill:#1f77b4;stroke:#1f77b4;" x="330.938017" xlink:href="#m941cd554d5" y="104.642727"/>
     <use style="fill:#1f77b4;stroke:#1f77b4;" x="334.012397" xlink:href="#m941cd554d5" y="105.150794"/>
     <use style="fill:#1f77b4;stroke:#1f77b4;" x="337.086777" xlink:href="#m941cd554d5" y="105.658245"/>
     <use style="fill:#1f77b4;stroke:#1f77b4;" x="340.161157" xlink:href="#m941cd554d5" y="106.165093"/>
     <use style="fill:#1f77b4;stroke:#1f77b4;" x="343.235537" xlink:href="#m941cd554d5" y="106.671351"/>
     <use style="fill:#1f77b4;stroke:#1f77b4;" x="346.309917" xlink:href="#m941cd554d5" y="107.177031"/>
     <use style="fill:#1f77b4;stroke:#1f77b4;" x="349.384298" xlink:href="#m941cd554d5" y="107.682145"/>
     <use style="fill:#1f77b4;stroke:#1f77b4;" x="352.458678" xlink:href="#m941cd554d5" y="108.186704"/>
     <use style="fill:#1f77b4;stroke:#1f77b4;" x="355.533058" xlink:href="#m941cd554d5" y="108.69072"/>
     <use style="fill:#1f77b4;stroke:#1f77b4;" x="358.607438" xlink:href="#m941cd554d5" y="109.194203"/>
     <use style="fill:#1f77b4;stroke:#1f77b4;" x="361.681818" xlink:href="#m941cd554d5" y="109.697164"/>
    </g>
   </g>
   <g id="line2d_19">
    <path clip-path="url(#p3385a4d475)" d="M 61.929752 35.866589 
L 69.615702 48.721149 
L 77.301653 55.939332 
L 84.987603 60.964675 
L 92.673554 65.183922 
L 100.359504 69.0061 
L 108.045455 72.561652 
L 115.731405 75.943212 
L 123.417355 79.196204 
L 131.103306 82.358883 
L 138.789256 85.451007 
L 146.475207 88.490203 
L 154.161157 91.485799 
L 161.847107 94.446738 
L 169.533058 97.377827 
L 177.219008 100.284099 
L 184.904959 103.168265 
L 192.590909 106.033457 
L 200.27686 108.881352 
L 207.96281 111.714081 
L 215.64876 114.532777 
L 223.334711 117.338997 
L 231.020661 120.133567 
L 238.706612 122.917689 
L 246.392562 125.691999 
L 254.078512 128.457454 
L 261.764463 131.214567 
L 269.450413 133.964123 
L 277.136364 136.706532 
L 284.822314 139.442461 
L 292.508264 142.172241 
L 300.194215 144.896445 
L 307.880165 147.615332 
L 315.566116 150.329346 
L 323.252066 153.038759 
L 330.938017 155.744006 
L 338.623967 158.445175 
L 346.309917 161.142661 
L 353.995868 163.836687 
L 361.681818 166.527568 
" style="fill:none;stroke:#ff7f0e;stroke-linecap:square;stroke-width:1.5;"/>
    <defs>
     <path d="M 0 1.5 
C 0.397805 1.5 0.77937 1.341951 1.06066 1.06066 
C 1.341951 0.77937 1.5 0.397805 1.5 0 
C 1.5 -0.397805 1.341951 -0.77937 1.06066 -1.06066 
C 0.77937 -1.341951 0.397805 -1.5 0 -1.5 
C -0.397805 -1.5 -0.77937 -1.341951 -1.06066 -1.06066 
C -1.341951 -0.77937 -1.5 -0.397805 -1.5 0 
C -1.5 0.397805 -1.341951 0.77937 -1.06066 1.06066 
C -0.77937 1.341951 -0.397805 1.5 0 1.5 
z
" id="m286a3f5838" style="stroke:#ff7f0e;"/>
    </defs>
    <g clip-path="url(#p3385a4d475)">
     <use style="fill:#ff7f0e;stroke:#ff7f0e;" x="61.929752" xlink:href="#m286a3f5838" y="35.866589"/>
     <use style="fill:#ff7f0e;stroke:#ff7f0e;" x="69.615702" xlink:href="#m286a3f5838" y="48.721149"/>
     <use style="fill:#ff7f0e;stroke:#ff7f0e;" x="77.301653" xlink:href="#m286a3f5838" y="55.939332"/>
     <use style="fill:#ff7f0e;stroke:#ff7f0e;" x="84.987603" xlink:href="#m286a3f5838" y="60.964675"/>
     <use style="fill:#ff7f0e;stroke:#ff7f0e;" x="92.673554" xlink:href="#m286a3f5838" y="65.183922"/>
     <use style="fill:#ff7f0e;stroke:#ff7f0e;" x="100.359504" xlink:href="#m286a3f5838" y="69.0061"/>
     <use style="fill:#ff7f0e;stroke:#ff7f0e;" x="108.045455" xlink:href="#m286a3f5838" y="72.561652"/>
     <use style="fill:#ff7f0e;stroke:#ff7f0e;" x="115.731405" xlink:href="#m286a3f5838" y="75.943212"/>
     <use style="fill:#ff7f0e;stroke:#ff7f0e;" x="123.417355" xlink:href="#m286a3f5838" y="79.196204"/>
     <use style="fill:#ff7f0e;stroke:#ff7f0e;" x="131.103306" xlink:href="#m286a3f5838" y="82.358883"/>
     <use style="fill:#ff7f0e;stroke:#ff7f0e;" x="138.789256" xlink:href="#m286a3f5838" y="85.451007"/>
     <use style="fill:#ff7f0e;stroke:#ff7f0e;" x="146.475207" xlink:href="#m286a3f5838" y="88.490203"/>
     <use style="fill:#ff7f0e;stroke:#ff7f0e;" x="154.161157" xlink:href="#m286a3f5838" y="91.485799"/>
     <use style="fill:#ff7f0e;stroke:#ff7f0e;" x="161.847107" xlink:href="#m286a3f5838" y="94.446738"/>
     <use style="fill:#ff7f0e;stroke:#ff7f0e;" x="169.533058" xlink:href="#m286a3f5838" y="97.377827"/>
     <use style="fill:#ff7f0e;stroke:#ff7f0e;" x="177.219008" xlink:href="#m286a3f5838" y="100.284099"/>
     <use style="fill:#ff7f0e;stroke:#ff7f0e;" x="184.904959" xlink:href="#m286a3f5838" y="103.168265"/>
     <use style="fill:#ff7f0e;stroke:#ff7f0e;" x="192.590909" xlink:href="#m286a3f5838" y="106.033457"/>
     <use style="fill:#ff7f0e;stroke:#ff7f0e;" x="200.27686" xlink:href="#m286a3f5838" y="108.881352"/>
     <use style="fill:#ff7f0e;stroke:#ff7f0e;" x="207.96281" xlink:href="#m286a3f5838" y="111.714081"/>
     <use style="fill:#ff7f0e;stroke:#ff7f0e;" x="215.64876" xlink:href="#m286a3f5838" y="114.532777"/>
     <use style="fill:#ff7f0e;stroke:#ff7f0e;" x="223.334711" xlink:href="#m286a3f5838" y="117.338997"/>
     <use style="fill:#ff7f0e;stroke:#ff7f0e;" x="231.020661" xlink:href="#m286a3f5838" y="120.133567"/>
     <use style="fill:#ff7f0e;stroke:#ff7f0e;" x="238.706612" xlink:href="#m286a3f5838" y="122.917689"/>
     <use style="fill:#ff7f0e;stroke:#ff7f0e;" x="246.392562" xlink:href="#m286a3f5838" y="125.691999"/>
     <use style="fill:#ff7f0e;stroke:#ff7f0e;" x="254.078512" xlink:href="#m286a3f5838" y="128.457454"/>
     <use style="fill:#ff7f0e;stroke:#ff7f0e;" x="261.764463" xlink:href="#m286a3f5838" y="131.214567"/>
     <use style="fill:#ff7f0e;stroke:#ff7f0e;" x="269.450413" xlink:href="#m286a3f5838" y="133.964123"/>
     <use style="fill:#ff7f0e;stroke:#ff7f0e;" x="277.136364" xlink:href="#m286a3f5838" y="136.706532"/>
     <use style="fill:#ff7f0e;stroke:#ff7f0e;" x="284.822314" xlink:href="#m286a3f5838" y="139.442461"/>
     <use style="fill:#ff7f0e;stroke:#ff7f0e;" x="292.508264" xlink:href="#m286a3f5838" y="142.172241"/>
     <use style="fill:#ff7f0e;stroke:#ff7f0e;" x="300.194215" xlink:href="#m286a3f5838" y="144.896445"/>
     <use style="fill:#ff7f0e;stroke:#ff7f0e;" x="307.880165" xlink:href="#m286a3f5838" y="147.615332"/>
     <use style="fill:#ff7f0e;stroke:#ff7f0e;" x="315.566116" xlink:href="#m286a3f5838" y="150.329346"/>
     <use style="fill:#ff7f0e;stroke:#ff7f0e;" x="323.252066" xlink:href="#m286a3f5838" y="153.038759"/>
     <use style="fill:#ff7f0e;stroke:#ff7f0e;" x="330.938017" xlink:href="#m286a3f5838" y="155.744006"/>
     <use style="fill:#ff7f0e;stroke:#ff7f0e;" x="338.623967" xlink:href="#m286a3f5838" y="158.445175"/>
     <use style="fill:#ff7f0e;stroke:#ff7f0e;" x="346.309917" xlink:href="#m286a3f5838" y="161.142661"/>
     <use style="fill:#ff7f0e;stroke:#ff7f0e;" x="353.995868" xlink:href="#m286a3f5838" y="163.836687"/>
     <use style="fill:#ff7f0e;stroke:#ff7f0e;" x="361.681818" xlink:href="#m286a3f5838" y="166.527568"/>
    </g>
   </g>
   <g id="line2d_20">
    <path clip-path="url(#p3385a4d475)" d="M 84.987603 63.916528 
L 115.731405 88.670019 
L 146.475207 111.423417 
L 177.219008 133.498431 
L 207.96281 155.35439 
L 238.706612 177.068075 
L 269.450413 198.615799 
L 300.194215 212.93376 
L 330.938017 214.305786 
L 361.681818 214.756364 
" style="fill:none;stroke:#2ca02c;stroke-linecap:square;stroke-width:1.5;"/>
    <defs>
     <path d="M 0 1.5 
C 0.397805 1.5 0.77937 1.341951 1.06066 1.06066 
C 1.341951 0.77937 1.5 0.397805 1.5 0 
C 1.5 -0.397805 1.341951 -0.77937 1.06066 -1.06066 
C 0.77937 -1.341951 0.397805 -1.5 0 -1.5 
C -0.397805 -1.5 -0.77937 -1.341951 -1.06066 -1.06066 
C -1.341951 -0.77937 -1.5 -0.397805 -1.5 0 
C -1.5 0.397805 -1.341951 0.77937 -1.06066 1.06066 
C -0.77937 1.341951 -0.397805 1.5 0 1.5 
z
" id="m95a2863de9" style="stroke:#2ca02c;"/>
    </defs>
    <g clip-path="url(#p3385a4d475)">
     <use style="fill:#2ca02c;stroke:#2ca02c;" x="84.987603" xlink:href="#m95a2863de9" y="63.916528"/>
     <use style="fill:#2ca02c;stroke:#2ca02c;" x="115.731405" xlink:href="#m95a2863de9" y="88.670019"/>
     <use style="fill:#2ca02c;stroke:#2ca02c;" x="146.475207" xlink:href="#m95a2863de9" y="111.423417"/>
     <use style="fill:#2ca02c;stroke:#2ca02c;" x="177.219008" xlink:href="#m95a2863de9" y="133.498431"/>
     <use style="fill:#2ca02c;stroke:#2ca02c;" x="207.96281" xlink:href="#m95a2863de9" y="155.35439"/>
     <use style="fill:#2ca02c;stroke:#2ca02c;" x="238.706612" xlink:href="#m95a2863de9" y="177.068075"/>
     <use style="fill:#2ca02c;stroke:#2ca02c;" x="269.450413" xlink:href="#m95a2863de9" y="198.615799"/>
     <use style="fill:#2ca02c;stroke:#2ca02c;" x="300.194215" xlink:href="#m95a2863de9" y="212.93376"/>
     <use style="fill:#2ca02c;stroke:#2ca02c;" x="330.938017" xlink:href="#m95a2863de9" y="214.305786"/>
     <use style="fill:#2ca02c;stroke:#2ca02c;" x="361.681818" xlink:href="#m95a2863de9" y="214.756364"/>
    </g>
   </g>
   <g id="line2d_21">
    <path clip-path="url(#p3385a4d475)" d="M 131.103306 103.396789 
L 207.96281 167.887001 
L 284.822314 212.440258 
L 361.681818 214.39921 
" style="fill:none;stroke:#d62728;stroke-linecap:square;stroke-width:1.5;"/>
    <defs>
     <path d="M 0 1.5 
C 0.397805 1.5 0.77937 1.341951 1.06066 1.06066 
C 1.341951 0.77937 1.5 0.397805 1.5 0 
C 1.5 -0.397805 1.341951 -0.77937 1.06066 -1.06066 
C 0.77937 -1.341951 0.397805 -1.5 0 -1.5 
C -0.397805 -1.5 -0.77937 -1.341951 -1.06066 -1.06066 
C -1.341951 -0.77937 -1.5 -0.397805 -1.5 0 
C -1.5 0.397805 -1.341951 0.77937 -1.06066 1.06066 
C -0.77937 1.341951 -0.397805 1.5 0 1.5 
z
" id="m85d02dff63" style="stroke:#d62728;"/>
    </defs>
    <g clip-path="url(#p3385a4d475)">
     <use style="fill:#d62728;stroke:#d62728;" x="131.103306" xlink:href="#m85d02dff63" y="103.396789"/>
     <use style="fill:#d62728;stroke:#d62728;" x="207.96281" xlink:href="#m85d02dff63" y="167.887001"/>
     <use style="fill:#d62728;stroke:#d62728;" x="284.822314" xlink:href="#m85d02dff63" y="212.440258"/>
     <use style="fill:#d62728;stroke:#d62728;" x="361.681818" xlink:href="#m85d02dff63" y="214.39921"/>
    </g>
   </g>
   <g id="patch_3">
    <path d="M 42.1 224.64 
L 42.1 7.2 
" style="fill:none;stroke:#000000;stroke-linecap:square;stroke-linejoin:miter;stroke-width:0.8;"/>
   </g>
   <g id="patch_4">
    <path d="M 376.9 224.64 
L 376.9 7.2 
" style="fill:none;stroke:#000000;stroke-linecap:square;stroke-linejoin:miter;stroke-width:0.8;"/>
   </g>
   <g id="patch_5">
    <path d="M 42.1 224.64 
L 376.9 224.64 
" style="fill:none;stroke:#000000;stroke-linecap:square;stroke-linejoin:miter;stroke-width:0.8;"/>
   </g>
   <g id="patch_6">
    <path d="M 42.1 7.2 
L 376.9 7.2 
" style="fill:none;stroke:#000000;stroke-linecap:square;stroke-linejoin:miter;stroke-width:0.8;"/>
   </g>
   <g id="legend_1">
    <g id="patch_7">
     <path d="M 220.854688 73.9125 
L 369.9 73.9125 
Q 371.9 73.9125 371.9 71.9125 
L 371.9 14.2 
Q 371.9 12.2 369.9 12.2 
L 220.854688 12.2 
Q 218.854688 12.2 218.854688 14.2 
L 218.854688 71.9125 
Q 218.854688 73.9125 220.854688 73.9125 
z
" style="fill:#ffffff;opacity:0.8;stroke:#cccccc;stroke-linejoin:miter;"/>
    </g>
    <g id="line2d_22">
     <path d="M 222.854688 20.298437 
L 242.854688 20.298437 
" style="fill:none;stroke:#1f77b4;stroke-linecap:square;stroke-width:1.5;"/>
    </g>
    <g id="line2d_23">
     <g>
      <use style="fill:#1f77b4;stroke:#1f77b4;" x="232.854688" xlink:href="#m941cd554d5" y="20.298437"/>
     </g>
    </g>
    <g id="text_18">
     <!-- restart every 20 steps -->
     <g transform="translate(250.854688 23.798437)scale(0.1 -0.1)">
      <defs>
       <path d="M 41.109375 46.296875 
Q 39.59375 47.171875 37.8125 47.578125 
Q 36.03125 48 33.890625 48 
Q 26.265625 48 22.1875 43.046875 
Q 18.109375 38.09375 18.109375 28.8125 
L 18.109375 0 
L 9.078125 0 
L 9.078125 54.6875 
L 18.109375 54.6875 
L 18.109375 46.1875 
Q 20.953125 51.171875 25.484375 53.578125 
Q 30.03125 56 36.53125 56 
Q 37.453125 56 38.578125 55.875 
Q 39.703125 55.765625 41.0625 55.515625 
z
" id="DejaVuSans-114"/>
       <path d="M 56.203125 29.59375 
L 56.203125 25.203125 
L 14.890625 25.203125 
Q 15.484375 15.921875 20.484375 11.0625 
Q 25.484375 6.203125 34.421875 6.203125 
Q 39.59375 6.203125 44.453125 7.46875 
Q 49.3125 8.734375 54.109375 11.28125 
L 54.109375 2.78125 
Q 49.265625 0.734375 44.1875 -0.34375 
Q 39.109375 -1.421875 33.890625 -1.421875 
Q 20.796875 -1.421875 13.15625 6.1875 
Q 5.515625 13.8125 5.515625 26.8125 
Q 5.515625 40.234375 12.765625 48.109375 
Q 20.015625 56 32.328125 56 
Q 43.359375 56 49.78125 48.890625 
Q 56.203125 41.796875 56.203125 29.59375 
z
M 47.21875 32.234375 
Q 47.125 39.59375 43.09375 43.984375 
Q 39.0625 48.390625 32.421875 48.390625 
Q 24.90625 48.390625 20.390625 44.140625 
Q 15.875 39.890625 15.1875 32.171875 
z
" id="DejaVuSans-101"/>
       <path d="M 44.28125 53.078125 
L 44.28125 44.578125 
Q 40.484375 46.53125 36.375 47.5 
Q 32.28125 48.484375 27.875 48.484375 
Q 21.1875 48.484375 17.84375 46.4375 
Q 14.5 44.390625 14.5 40.28125 
Q 14.5 37.15625 16.890625 35.375 
Q 19.28125 33.59375 26.515625 31.984375 
L 29.59375 31.296875 
Q 39.15625 29.25 43.1875 25.515625 
Q 47.21875 21.78125 47.21875 15.09375 
Q 47.21875 7.46875 41.1875 3.015625 
Q 35.15625 -1.421875 24.609375 -1.421875 
Q 20.21875 -1.421875 15.453125 -0.5625 
Q 10.6875 0.296875 5.421875 2 
L 5.421875 11.28125 
Q 10.40625 8.6875 15.234375 7.390625 
Q 20.0625 6.109375 24.8125 6.109375 
Q 31.15625 6.109375 34.5625 8.28125 
Q 37.984375 10.453125 37.984375 14.40625 
Q 37.984375 18.0625 35.515625 20.015625 
Q 33.0625 21.96875 24.703125 23.78125 
L 21.578125 24.515625 
Q 13.234375 26.265625 9.515625 29.90625 
Q 5.8125 33.546875 5.8125 39.890625 
Q 5.8125 47.609375 11.28125 51.796875 
Q 16.75 56 26.8125 56 
Q 31.78125 56 36.171875 55.265625 
Q 40.578125 54.546875 44.28125 53.078125 
z
" id="DejaVuSans-115"/>
       <path d="M 18.3125 70.21875 
L 18.3125 54.6875 
L 36.8125 54.6875 
L 36.8125 47.703125 
L 18.3125 47.703125 
L 18.3125 18.015625 
Q 18.3125 11.328125 20.140625 9.421875 
Q 21.96875 7.515625 27.59375 7.515625 
L 36.8125 7.515625 
L 36.8125 0 
L 27.59375 0 
Q 17.1875 0 13.234375 3.875 
Q 9.28125 7.765625 9.28125 18.015625 
L 9.28125 47.703125 
L 2.6875 47.703125 
L 2.6875 54.6875 
L 9.28125 54.6875 
L 9.28125 70.21875 
z
" id="DejaVuSans-116"/>
       <path d="M 34.28125 27.484375 
Q 23.390625 27.484375 19.1875 25 
Q 14.984375 22.515625 14.984375 16.5 
Q 14.984375 11.71875 18.140625 8.90625 
Q 21.296875 6.109375 26.703125 6.109375 
Q 34.1875 6.109375 38.703125 11.40625 
Q 43.21875 16.703125 43.21875 25.484375 
L 43.21875 27.484375 
z
M 52.203125 31.203125 
L 52.203125 0 
L 43.21875 0 
L 43.21875 8.296875 
Q 40.140625 3.328125 35.546875 0.953125 
Q 30.953125 -1.421875 24.3125 -1.421875 
Q 15.921875 -1.421875 10.953125 3.296875 
Q 6 8.015625 6 15.921875 
Q 6 25.140625 12.171875 29.828125 
Q 18.359375 34.515625 30.609375 34.515625 
L 43.21875 34.515625 
L 43.21875 35.40625 
Q 43.21875 41.609375 39.140625 45 
Q 35.0625 48.390625 27.6875 48.390625 
Q 23 48.390625 18.546875 47.265625 
Q 14.109375 46.140625 10.015625 43.890625 
L 10.015625 52.203125 
Q 14.9375 54.109375 19.578125 55.046875 
Q 24.21875 56 28.609375 56 
Q 40.484375 56 46.34375 49.84375 
Q 52.203125 43.703125 52.203125 31.203125 
z
" id="DejaVuSans-97"/>
       <path id="DejaVuSans-32"/>
       <path d="M 2.984375 54.6875 
L 12.5 54.6875 
L 29.59375 8.796875 
L 46.6875 54.6875 
L 56.203125 54.6875 
L 35.6875 0 
L 23.484375 0 
z
" id="DejaVuSans-118"/>
       <path d="M 32.171875 -5.078125 
Q 28.375 -14.84375 24.75 -17.8125 
Q 21.140625 -20.796875 15.09375 -20.796875 
L 7.90625 -20.796875 
L 7.90625 -13.28125 
L 13.1875 -13.28125 
Q 16.890625 -13.28125 18.9375 -11.515625 
Q 21 -9.765625 23.484375 -3.21875 
L 25.09375 0.875 
L 2.984375 54.6875 
L 12.5 54.6875 
L 29.59375 11.921875 
L 46.6875 54.6875 
L 56.203125 54.6875 
z
" id="DejaVuSans-121"/>
       <path d="M 18.109375 8.203125 
L 18.109375 -20.796875 
L 9.078125 -20.796875 
L 9.078125 54.6875 
L 18.109375 54.6875 
L 18.109375 46.390625 
Q 20.953125 51.265625 25.265625 53.625 
Q 29.59375 56 35.59375 56 
Q 45.5625 56 51.78125 48.09375 
Q 58.015625 40.1875 58.015625 27.296875 
Q 58.015625 14.40625 51.78125 6.484375 
Q 45.5625 -1.421875 35.59375 -1.421875 
Q 29.59375 -1.421875 25.265625 0.953125 
Q 20.953125 3.328125 18.109375 8.203125 
z
M 48.6875 27.296875 
Q 48.6875 37.203125 44.609375 42.84375 
Q 40.53125 48.484375 33.40625 48.484375 
Q 26.265625 48.484375 22.1875 42.84375 
Q 18.109375 37.203125 18.109375 27.296875 
Q 18.109375 17.390625 22.1875 11.75 
Q 26.265625 6.109375 33.40625 6.109375 
Q 40.53125 6.109375 44.609375 11.75 
Q 48.6875 17.390625 48.6875 27.296875 
z
" id="DejaVuSans-112"/>
      </defs>
      <use xlink:href="#DejaVuSans-114"/>
      <use x="38.863281" xlink:href="#DejaVuSans-101"/>
      <use x="100.386719" xlink:href="#DejaVuSans-115"/>
      <use x="152.486328" xlink:href="#DejaVuSans-116"/>
      <use x="191.695312" xlink:href="#DejaVuSans-97"/>
      <use x="252.974609" xlink:href="#DejaVuSans-114"/>
      <use x="294.087891" xlink:href="#DejaVuSans-116"/>
      <use x="333.296875" xlink:href="#DejaVuSans-32"/>
      <use x="365.083984" xlink:href="#DejaVuSans-101"/>
      <use x="426.607422" xlink:href="#DejaVuSans-118"/>
      <use x="485.787109" xlink:href="#DejaVuSans-101"/>
      <use x="547.310547" xlink:href="#DejaVuSans-114"/>
      <use x="588.423828" xlink:href="#DejaVuSans-121"/>
      <use x="647.603516" xlink:href="#DejaVuSans-32"/>
      <use x="679.390625" xlink:href="#DejaVuSans-50"/>
      <use x="743.013672" xlink:href="#DejaVuSans-48"/>
      <use x="806.636719" xlink:href="#DejaVuSans-32"/>
      <use x="838.423828" xlink:href="#DejaVuSans-115"/>
      <use x="890.523438" xlink:href="#DejaVuSans-116"/>
      <use x="929.732422" xlink:href="#DejaVuSans-101"/>
      <use x="991.255859" xlink:href="#DejaVuSans-112"/>
      <use x="1054.732422" xlink:href="#DejaVuSans-115"/>
     </g>
    </g>
    <g id="line2d_24">
     <path d="M 222.854688 34.976562 
L 242.854688 34.976562 
" style="fill:none;stroke:#ff7f0e;stroke-linecap:square;stroke-width:1.5;"/>
    </g>
    <g id="line2d_25">
     <g>
      <use style="fill:#ff7f0e;stroke:#ff7f0e;" x="232.854688" xlink:href="#m286a3f5838" y="34.976562"/>
     </g>
    </g>
    <g id="text_19">
     <!-- restart every 50 steps -->
     <g transform="translate(250.854688 38.476562)scale(0.1 -0.1)">
      <use xlink:href="#DejaVuSans-114"/>
      <use x="38.863281" xlink:href="#DejaVuSans-101"/>
      <use x="100.386719" xlink:href="#DejaVuSans-115"/>
      <use x="152.486328" xlink:href="#DejaVuSans-116"/>
      <use x="191.695312" xlink:href="#DejaVuSans-97"/>
      <use x="252.974609" xlink:href="#DejaVuSans-114"/>
      <use x="294.087891" xlink:href="#DejaVuSans-116"/>
      <use x="333.296875" xlink:href="#DejaVuSans-32"/>
      <use x="365.083984" xlink:href="#DejaVuSans-101"/>
      <use x="426.607422" xlink:href="#DejaVuSans-118"/>
      <use x="485.787109" xlink:href="#DejaVuSans-101"/>
      <use x="547.310547" xlink:href="#DejaVuSans-114"/>
      <use x="588.423828" xlink:href="#DejaVuSans-121"/>
      <use x="647.603516" xlink:href="#DejaVuSans-32"/>
      <use x="679.390625" xlink:href="#DejaVuSans-53"/>
      <use x="743.013672" xlink:href="#DejaVuSans-48"/>
      <use x="806.636719" xlink:href="#DejaVuSans-32"/>
      <use x="838.423828" xlink:href="#DejaVuSans-115"/>
      <use x="890.523438" xlink:href="#DejaVuSans-116"/>
      <use x="929.732422" xlink:href="#DejaVuSans-101"/>
      <use x="991.255859" xlink:href="#DejaVuSans-112"/>
      <use x="1054.732422" xlink:href="#DejaVuSans-115"/>
     </g>
    </g>
    <g id="line2d_26">
     <path d="M 222.854688 49.654687 
L 242.854688 49.654687 
" style="fill:none;stroke:#2ca02c;stroke-linecap:square;stroke-width:1.5;"/>
    </g>
    <g id="line2d_27">
     <g>
      <use style="fill:#2ca02c;stroke:#2ca02c;" x="232.854688" xlink:href="#m95a2863de9" y="49.654687"/>
     </g>
    </g>
    <g id="text_20">
     <!-- restart every 200 steps -->
     <g transform="translate(250.854688 53.154687)scale(0.1 -0.1)">
      <use xlink:href="#DejaVuSans-114"/>
      <use x="38.863281" xlink:href="#DejaVuSans-101"/>
      <use x="100.386719" xlink:href="#DejaVuSans-115"/>
      <use x="152.486328" xlink:href="#DejaVuSans-116"/>
      <use x="191.695312" xlink:href="#DejaVuSans-97"/>
      <use x="252.974609" xlink:href="#DejaVuSans-114"/>
      <use x="294.087891" xlink:href="#DejaVuSans-116"/>
      <use x="333.296875" xlink:href="#DejaVuSans-32"/>
      <use x="365.083984" xlink:href="#DejaVuSans-101"/>
      <use x="426.607422" xlink:href="#DejaVuSans-118"/>
      <use x="485.787109" xlink:href="#DejaVuSans-101"/>
      <use x="547.310547" xlink:href="#DejaVuSans-114"/>
      <use x="588.423828" xlink:href="#DejaVuSans-121"/>
      <use x="647.603516" xlink:href="#DejaVuSans-32"/>
      <use x="679.390625" xlink:href="#DejaVuSans-50"/>
      <use x="743.013672" xlink:href="#DejaVuSans-48"/>
      <use x="806.636719" xlink:href="#DejaVuSans-48"/>
      <use x="870.259766" xlink:href="#DejaVuSans-32"/>
      <use x="902.046875" xlink:href="#DejaVuSans-115"/>
      <use x="954.146484" xlink:href="#DejaVuSans-116"/>
      <use x="993.355469" xlink:href="#DejaVuSans-101"/>
      <use x="1054.878906" xlink:href="#DejaVuSans-112"/>
      <use x="1118.355469" xlink:href="#DejaVuSans-115"/>
     </g>
    </g>
    <g id="line2d_28">
     <path d="M 222.854688 64.332812 
L 242.854688 64.332812 
" style="fill:none;stroke:#d62728;stroke-linecap:square;stroke-width:1.5;"/>
    </g>
    <g id="line2d_29">
     <g>
      <use style="fill:#d62728;stroke:#d62728;" x="232.854688" xlink:href="#m85d02dff63" y="64.332812"/>
     </g>
    </g>
    <g id="text_21">
     <!-- restart every 500 steps -->
     <g transform="translate(250.854688 67.832812)scale(0.1 -0.1)">
      <use xlink:href="#DejaVuSans-114"/>
      <use x="38.863281" xlink:href="#DejaVuSans-101"/>
      <use x="100.386719" xlink:href="#DejaVuSans-115"/>
      <use x="152.486328" xlink:href="#DejaVuSans-116"/>
      <use x="191.695312" xlink:href="#DejaVuSans-97"/>
      <use x="252.974609" xlink:href="#DejaVuSans-114"/>
      <use x="294.087891" xlink:href="#DejaVuSans-116"/>
      <use x="333.296875" xlink:href="#DejaVuSans-32"/>
      <use x="365.083984" xlink:href="#DejaVuSans-101"/>
      <use x="426.607422" xlink:href="#DejaVuSans-118"/>
      <use x="485.787109" xlink:href="#DejaVuSans-101"/>
      <use x="547.310547" xlink:href="#DejaVuSans-114"/>
      <use x="588.423828" xlink:href="#DejaVuSans-121"/>
      <use x="647.603516" xlink:href="#DejaVuSans-32"/>
      <use x="679.390625" xlink:href="#DejaVuSans-53"/>
      <use x="743.013672" xlink:href="#DejaVuSans-48"/>
      <use x="806.636719" xlink:href="#DejaVuSans-48"/>
      <use x="870.259766" xlink:href="#DejaVuSans-32"/>
      <use x="902.046875" xlink:href="#DejaVuSans-115"/>
      <use x="954.146484" xlink:href="#DejaVuSans-116"/>
      <use x="993.355469" xlink:href="#DejaVuSans-101"/>
      <use x="1054.878906" xlink:href="#DejaVuSans-112"/>
      <use x="1118.355469" xlink:href="#DejaVuSans-115"/>
     </g>
    </g>
   </g>
  </g>
 </g>
 <defs>
  <clipPath id="p3385a4d475">
   <rect height="217.44" width="334.8" x="42.1" y="7.2"/>
  </clipPath>
 </defs>
</svg>
