<?xml version="1.0" encoding="UTF-8" standalone="no"?>
<!-- Created with Inkscape (http://www.inkscape.org/) -->

<svg
   version="1.1"
   id="svg2"
   xml:space="preserve"
   width="97.125061"
   height="103.85053"
   viewBox="0 0 97.125061 103.85054"
   sodipodi:docname="fac sciences_pant.svg"
   inkscape:version="1.2.2 (b0a8486541, 2022-12-01)"
   inkscape:export-filename="/home/rik/git/RikVoorhaar.github.io/assets/images/fac sciences_pant.png"
   inkscape:export-xdpi="98.841629"
   inkscape:export-ydpi="98.841629"
   xmlns:inkscape="http://www.inkscape.org/namespaces/inkscape"
   xmlns:sodipodi="http://sodipodi.sourceforge.net/DTD/sodipodi-0.dtd"
   xmlns="http://www.w3.org/2000/svg"
   xmlns:svg="http://www.w3.org/2000/svg"><defs
     id="defs6" /><sodipodi:namedview
     id="namedview4"
     pagecolor="#ffffff"
     bordercolor="#666666"
     borderopacity="1.0"
     inkscape:pageshadow="2"
     inkscape:pageopacity="0.0"
     inkscape:pagecheckerboard="0"
     showgrid="false"
     inkscape:zoom="3.9281568"
     inkscape:cx="54.351191"
     inkscape:cy="74.080546"
     inkscape:window-width="1920"
     inkscape:window-height="1013"
     inkscape:window-x="4480"
     inkscape:window-y="180"
     inkscape:window-maximized="1"
     inkscape:current-layer="g10"
     inkscape:showpageshadow="2"
     inkscape:deskcolor="#d1d1d1" /><g
     id="g8"
     inkscape:groupmode="layer"
     inkscape:label="ink_ext_XXXXXX"
     transform="matrix(1.3333333,0,0,-1.3333333,-38.293587,125.76013)"><g
       id="g10"
       transform="scale(0.1)"><path
         d="m 460.65491,769.30598 17.059,-22.062 12.523,9.687 -27.785,35.918 -9.812,-7.578 c 3.898,-6.055 -1.692,-13.34 -8.59,-18.516 l 4.984,-6.445 11.621,8.996"
         style="fill:#9c9a9b;fill-opacity:1;fill-rule:nonzero;stroke:none"
         id="path48" /><path
         d="m 505.94791,790.02498 c 0.863,3.515 3.356,5.597 7.109,7.531 5.477,2.813 10.004,1.699 12.032,-2.246 2.019,-3.945 -0.582,-8.496 -5.742,-11.152 -3.997,-2.051 -9.641,-2.61 -11.36,0.546 l -13.301,-6.835 c 5.754,-9.278 16.871,-7.813 28.766,-1.711 12.676,6.515 19.82,16.476 14.703,26.445 -4.316,8.41 -13.879,9.504 -25.07,3.762 -4.149,-2.129 -7.426,-4.993 -9.153,-8.371 l -0.16,-0.079 -1.746,8.411 24.184,12.41 -4.285,8.351 -34.434,-17.676 6.406,-25.578 12.051,6.192"
         style="fill:#9c9a9b;fill-opacity:1;fill-rule:nonzero;stroke:none"
         id="path50" /><path
         d="m 794.40491,803.98998 c -4.16,2.101 -8.398,3.078 -12.148,2.492 l -0.157,0.078 5.778,6.348 24.258,-12.247 4.23,8.368 -34.547,17.453 -16.918,-20.215 12.098,-6.113 c 3.348,1.375 6.504,0.586 10.266,-1.309 5.5,-2.785 7.257,-7.109 5.257,-11.055 -1.996,-3.964 -7.215,-4.531 -12.394,-1.914 -4.004,2.02 -7.781,6.27 -6.242,9.5 l -13.344,6.75 c -4.121,-10.117 3.594,-18.242 15.527,-24.277 12.719,-6.426 24.981,-6.348 30.039,3.652 4.258,8.438 -0.472,16.817 -11.703,22.489"
         style="fill:#9c9a9b;fill-opacity:1;fill-rule:nonzero;stroke:none"
         id="path52" /><path
         d="m 849.40891,786.61898 c -10.094,7.8 -22.652,9.101 -28.59,1.425 -5.414,-7.011 -2.824,-17.324 6.778,-24.758 4.175,-3.23 9.539,-5.632 13.843,-4.519 l 0.141,-0.109 c -3.945,-4.532 -9.629,-7.137 -16.027,-2.188 -1.465,1.125 -2.793,2.57 -3.543,4.055 -0.786,1.426 -1.008,3.008 -0.414,4.355 l -11.067,8.555 c -3.469,-7.949 0.504,-16.035 9.344,-22.871 15.453,-11.934 28.121,-7.481 36.133,2.871 7.449,9.648 7.527,22.266 -6.598,33.184 z m -1.57,-19.297 c -2.512,-3.243 -7.606,-3.508 -12.617,0.371 -4.872,3.769 -5.762,8.652 -3.172,12 2.308,3 7.613,3.097 12.066,-0.352 5.082,-3.926 6.191,-8.816 3.723,-12.019"
         style="fill:#9c9a9b;fill-opacity:1;fill-rule:nonzero;stroke:none"
         id="path54" /><path
         d="m 347.79571,600.37598 c 7.9726,-2.636 13.8242,5.051 18.4687,13.067 4.6719,8.086 8.1445,16.488 11.5469,15.363 2.9023,-0.957 2.3867,-5.43 1.2851,-8.77 -1.5859,-4.765 -4.5742,-9.433 -8.5117,-7.843 l -5.1445,-15.528 c 9.9883,-3.222 18.2109,7.297 22.1367,19.161 3.719,11.203 4.281,25.546 -5.3594,28.742 -8.1054,2.683 -13.9179,-5.305 -18.5312,-13.215 -4.6485,-8.008 -8.1992,-16.289 -12.1055,-14.981 -3.2773,1.086 -2.9062,6.34 -1.3516,11.016 2.1719,6.582 5.2891,10.375 10.5899,8.984 l 5.1523,15.539 c -11.3515,3.653 -19.8086,-6.972 -24.3554,-20.656 -4.336,-13.105 -5.0157,-27.168 6.1797,-30.879"
         style="fill:#9c9a9b;fill-opacity:1;fill-rule:nonzero;stroke:none"
         id="path56" /><path
         d="m 342.67851,522.10698 1.25,16.308 c -5.2852,1.024 -8.1953,5.664 -7.6094,13.301 0.8203,10.516 8.0156,14.024 14.9062,13.485 6.8829,-0.536 13.4571,-5.098 12.6446,-15.614 -0.5196,-6.847 -3.3711,-11.574 -8.1172,-12.082 l -1.2617,-16.308 c 11.2109,-0.438 18.7109,13.722 19.7422,27.246 1.4687,18.926 -8.3047,32.031 -21.754,33.07 -13.4453,1.031 -25.1171,-10.414 -26.582,-29.359 -1.2148,-15.879 4.8906,-28.27 16.7813,-30.047"
         style="fill:#9c9a9b;fill-opacity:1;fill-rule:nonzero;stroke:none"
         id="path58" /><path
         d="m 378.49101,469.57598 -16.7032,-2.86 -3.6601,21.231 16.7031,2.871 -2.7812,16.133 -45.8477,-7.903 2.7773,-16.133 18.8829,3.266 3.6562,-21.242 -18.8828,-3.262 2.7852,-16.121 45.8437,7.898 -2.7734,16.122"
         style="fill:#9c9a9b;fill-opacity:1;fill-rule:nonzero;stroke:none"
         id="path60" /><path
         d="m 397.84991,414.07898 c -8.097,18.055 -22.4761,23.856 -34.7886,18.34 -12.3047,-5.527 -17.5391,-20.117 -9.4453,-38.183 8.0976,-18.055 22.4687,-23.84 34.7769,-18.332 12.317,5.519 17.547,20.109 9.457,38.175 z m -16.1519,-23.242 c -6.3008,-2.824 -14.2539,-1.965 -18.5781,7.676 -4.3164,9.629 0.3359,16.152 6.6367,18.973 6.3008,2.812 14.2578,1.953 18.5783,-7.676 4.32,-9.629 -0.32,-16.152 -6.6369,-18.973"
         style="fill:#9c9a9b;fill-opacity:1;fill-rule:nonzero;stroke:none"
         id="path62" /><path
         d="m 426.72191,362.61498 -9.911,13.027 -37.0113,-28.184 27.6523,-36.328 8.289,6.309 -17.734,23.308 28.715,21.868"
         style="fill:#9c9a9b;fill-opacity:1;fill-rule:nonzero;stroke:none"
         id="path64" /><path
         d="m 415.99091,301.09098 12.754,-10.949 8.434,3.75 16.617,-14.277 -2.496,-8.836 12.941,-11.125 12.492,50.597 -12.605,10.828 z m 40.723,-12.129 -10.805,9.285 16.016,7.715 0.136,-0.105 -5.347,-16.895"
         style="fill:#9c9a9b;fill-opacity:1;fill-rule:nonzero;stroke:none"
         id="path66" /><path
         d="m 593.75691,244.72398 c 6.457,-1.336 11.14,-4.766 10.847,-8.77 l 16.02,-3.32 c 0.902,11.727 -11.66,19.59 -24.406,22.235 -18.606,3.859 -32.848,-4.18 -35.586,-17.383 -2.739,-13.203 7.136,-26.231 25.742,-30.086 5.687,-1.18 13.238,-1.153 18.371,2.371 l -0.082,-5.164 10.332,-2.149 5.176,24.95 -25.84,5.355 -1.824,-8.801 11.199,-2.324 c -1.723,-3.965 -7.637,-5.605 -15.563,-3.957 -10.332,2.141 -12.894,9.727 -11.492,16.484 1.406,6.758 6.766,12.707 17.106,10.559"
         style="fill:#9c9a9b;fill-opacity:1;fill-rule:nonzero;stroke:none"
         id="path68" /><path
         d="m 661.20591,212.02898 -0.449,8.847 30.746,1.563 -0.477,9.375 -30.75,-1.574 -0.406,8.136 33.641,1.719 -0.493,9.695 -49.988,-2.539 2.363,-46.465 50.868,2.579 -0.528,10.41 -34.527,-1.746"
         style="fill:#9c9a9b;fill-opacity:1;fill-rule:nonzero;stroke:none"
         id="path70" /><path
         d="m 747.54591,264.20398 8.523,-27.371 -0.168,-0.05 -29.347,20.89 -16.047,-5 13.836,-44.426 14.695,4.582 -8.621,27.684 0.168,0.059 29.449,-21.2 16.047,5 -13.84,44.414 -14.695,-4.582"
         style="fill:#9c9a9b;fill-opacity:1;fill-rule:nonzero;stroke:none"
         id="path72" /><path
         d="m 812.15891,254.80198 -4.66,7.539 26.187,16.18 -4.925,7.98 -26.2,-16.183 -4.281,6.933 28.668,17.707 -5.101,8.262 -42.582,-26.309 24.453,-39.582 43.324,26.77 -5.477,8.867 -29.406,-18.164"
         style="fill:#9c9a9b;fill-opacity:1;fill-rule:nonzero;stroke:none"
         id="path74" /><path
         d="m 860.77591,339.86898 15.891,-33.114 -0.125,-0.129 -33.235,15.637 -12.019,-12.121 46.969,-18.711 13.258,13.359 -18.711,47.188 -12.028,-12.109"
         style="fill:#9c9a9b;fill-opacity:1;fill-rule:nonzero;stroke:none"
         id="path76" /><path
         d="m 919.58491,357.70098 -7.578,4.601 15.965,26.317 -8.028,4.863 -15.961,-26.317 -6.961,4.227 17.465,28.801 -8.301,5.039 -25.953,-42.801 39.782,-24.125 26.41,43.555 -8.914,5.402 -17.926,-29.562"
         style="fill:#9c9a9b;fill-opacity:1;fill-rule:nonzero;stroke:none"
         id="path78" /><path
         d="m 924.83891,458.62998 27.453,-8.273 -0.047,-0.164 -33.75,-12.617 -4.848,-16.086 44.551,-13.426 4.442,14.734 -27.766,8.371 0.055,0.164 34.054,12.532 4.844,16.082 -44.547,13.418 -4.441,-14.735"
         style="fill:#9c9a9b;fill-opacity:1;fill-rule:nonzero;stroke:none"
         id="path80" /><path
         d="m 966.19391,541.82198 c -8.394,0.371 -11.926,-8.621 -14.219,-17.598 -2.289,-9.051 -3.335,-18.074 -6.921,-17.918 -3.063,0.137 -3.774,4.57 -3.618,8.086 0.219,5.008 1.821,10.312 6.043,9.852 l 0.731,16.347 c -10.488,0.383 -15.535,-11.992 -16.098,-24.472 -0.519,-11.778 2.844,-25.743 12.996,-26.188 8.532,-0.383 11.938,8.883 14.227,17.762 2.293,8.972 3.469,17.898 7.57,17.722 3.449,-0.152 4.52,-5.312 4.305,-10.234 -0.309,-6.941 -2.27,-11.434 -7.754,-11.543 l -0.723,-16.348 c 11.914,-0.437 17.168,12.102 17.809,26.504 0.613,13.809 -2.563,27.5 -14.348,28.028"
         style="fill:#9c9a9b;fill-opacity:1;fill-rule:nonzero;stroke:none"
         id="path82" /><path
         d="m 931.66691,560.78598 46.047,6.645 -2.332,16.188 -46.051,-6.629 2.336,-16.204"
         style="fill:#9c9a9b;fill-opacity:1;fill-rule:nonzero;stroke:none"
         id="path84" /><path
         d="m 939.00291,599.72398 c 8.07,2.773 7.847,12.645 6.73,21.746 -1.16,9.18 -3.332,17.922 0.555,19.258 3.262,1.125 6.152,-3.281 7.75,-7.938 2.258,-6.582 2.074,-11.476 -2.984,-13.586 l 5.308,-15.476 c 11.25,3.953 11.555,17.539 6.863,31.191 -4.476,13.055 -12.449,24.637 -23.601,20.821 -7.949,-2.727 -7.942,-12.395 -6.793,-21.582 1.184,-9.27 3.508,-18.047 0.117,-19.211 -2.894,-0.985 -5.187,2.871 -6.328,6.191 -1.625,4.75 -2.074,10.266 2.023,11.398 l -5.32,15.477 c -9.887,-3.484 -10.058,-16.844 -6.004,-28.66 3.824,-11.152 12.067,-22.93 21.684,-19.629"
         style="fill:#9c9a9b;fill-opacity:1;fill-rule:nonzero;stroke:none"
         id="path86" /><path
         d="m 506.04991,260.23998 c -3.692,-4.891 -2.703,-11.852 2.187,-15.547 4.899,-3.699 11.856,-2.715 15.535,2.179 3.703,4.903 2.727,11.856 -2.168,15.547 -4.906,3.692 -11.863,2.715 -15.554,-2.179"
         style="fill:#9c9a9b;fill-opacity:1;fill-rule:nonzero;stroke:none"
         id="path88" /><path
         d="m 415.22891,703.51298 c 3.614,4.961 2.532,11.895 -2.422,15.508 -4.96,3.613 -11.894,2.539 -15.515,-2.422 -3.613,-4.961 -2.531,-11.895 2.422,-15.508 4.961,-3.613 11.902,-2.531 15.515,2.422"
         style="fill:#9c9a9b;fill-opacity:1;fill-rule:nonzero;stroke:none"
         id="path90" /><path
         d="m 887.34691,716.59898 c -3.614,-4.961 -2.528,-11.895 2.433,-15.508 4.949,-3.613 11.895,-2.531 15.508,2.422 3.613,4.961 2.527,11.895 -2.422,15.508 -4.961,3.613 -11.894,2.539 -15.519,-2.422"
         style="fill:#9c9a9b;fill-opacity:1;fill-rule:nonzero;stroke:none"
         id="path92" /><path
         d="m 679.60391,837.65398 -9.011,-14.121 h 22.058 v 6.836 l -8.691,-0.04 4.812,7.188 -4.812,7.422 8.535,0.047 v 6.75 h -21.902 l 9.011,-14.082"
         style="fill:#9c9a9b;fill-opacity:1;fill-rule:nonzero;stroke:none"
         id="path94" /><path
         d="m 631.92891,830.32898 -5.442,-0.058 v 14.715 l 5.063,-0.047 v 6.797 h -18.149 v -6.797 l 5.039,0.047 v -14.715 l -5.371,0.058 v -6.796 h 18.86 v 6.796"
         style="fill:#9c9a9b;fill-opacity:1;fill-rule:nonzero;stroke:none"
         id="path96" /><path
         d="m 657.61191,841.79398 h -11.484 l 0.051,10.039 h -8.418 v -28.3 h 8.418 l -0.051,11.25 h 11.484 v -11.25 h 8.399 v 28.3 h -8.399 v -10.039"
         style="fill:#9c9a9b;fill-opacity:1;fill-rule:nonzero;stroke:none"
         id="path98" /><path
         d="m 648.33491,868.57198 c 0,2.129 1.535,3.476 3.762,3.476 2,0 3.496,-1.523 3.496,-3.476 l 0.105,-10 h 15.692 v 8.398 h -9.618 l -0.039,2.149 c -0.058,6.023 -2.843,10.878 -9.695,10.878 -5.266,0 -8.906,-2.949 -9.555,-8.007 -0.113,-1.075 -0.113,-2.207 -0.113,-3.313 v -1.707 h -9.609 l -0.012,-8.398 h 15.566 l 0.02,10"
         style="fill:#9c9a9b;fill-opacity:1;fill-rule:nonzero;stroke:none"
         id="path100" /><path
         d="m 652.09691,816.89198 c -2.786,0 -5.051,-2.266 -5.051,-5.059 0,-2.785 2.265,-5.05 5.051,-5.05 2.793,0 5.054,2.265 5.054,5.05 0,2.793 -2.261,5.059 -5.054,5.059"
         style="fill:#9c9a9b;fill-opacity:1;fill-rule:nonzero;stroke:none"
         id="path102" /><path
         d="m 730.09291,884.11898 7.453,9.179 -43.406,-6.387 6.871,42.911 -34.2,-27.715 -15.714,41.094 -15.704,-41.114 -34.128,27.774 6.945,-43.496 -43.508,6.972 7.563,-9.316 c -162.883,-36.25 -285.063,-181.836 -285.063,-355.469 0,-200.84 163.391,-364.23 364.219,-364.23 200.832,0 364.21899,163.39 364.21899,364.23 0,173.809 -122.41799,319.5 -285.54699,355.567 z m -78.203,8.925 c 27.542,0 49.953,-22.402 49.953,-49.941 0,-27.539 -22.411,-49.942 -49.953,-49.942 -27.543,0 -49.954,22.403 -49.954,49.942 0,27.539 22.411,49.941 49.954,49.941 z m 45.996,-113.008 c 54.355,-10.019 102.754,-37.218 139.296,-75.8 h -23.398 v -17.461 h -21.301 v 17.461 h -28.98 v -24.114 h -17.129 c 0,0 0.113,36.711 0.113,37.082 0,8.262 -6.722,14.981 -14.984,14.981 -8.262,0 -14.985,-6.719 -14.985,-14.981 0,-0.371 0.118,-194.531 0.118,-194.531 l -29.715,-27.383 v -14.464 c -13.071,-1.883 -23.926,-10.262 -29.453,-21.688 v 296.348 l 9.937,28.769 33.586,-27.304 z m 13.886,-419.55 c -7.414,-2.903 -12.683,-10.071 -12.683,-18.496 0,-10.977 8.906,-19.883 19.89,-19.883 h 25.047 c 10.989,0 19.895,8.906 19.895,19.883 0,8.425 -5.27,15.593 -12.68,18.496 33.895,11.804 58.266,43.965 58.266,81.894 0,19.629 -14.547,35.723 -33.418,38.446 v 14.464 l -29.715,27.383 v 57.031 h 17.129 v -24.101 h 28.98 v 18.223 h 21.301 v -18.223 h 28.984 v 64.433 h -28.984 v -15.585 h -21.301 v 15.585 h -24.043 v 19.766 h 24.043 v 15.574 h 21.301 v -15.574 h 28.984 v 58.418 c 40.137,-45.176 64.551,-104.609 64.551,-169.668 0,-139.082 -111.539,-252.519 -249.851,-255.754 v 143.742 c 8.187,-26.191 28.449,-47.05 54.304,-56.054 z m -38.222,81.894 c 0,9.324 6.738,17.031 15.59,18.614 0.75,-11.063 9.871,-19.844 21.128,-19.844 h 42.539 c 11.25,0 20.375,8.769 21.125,19.844 8.821,-1.622 15.528,-9.317 15.528,-18.614 0,-35.82 -24.68,-57.461 -57.949,-65.695 -33.274,8.234 -57.961,29.875 -57.961,65.695 z m -193.352,189.727 c -1.351,-1.797 -2.305,-3.926 -2.305,-6.348 0,-1.699 0.477,-3.242 1.172,-4.668 l -66.203,-0.129 c 2.91,7.492 6.153,14.797 9.731,21.926 z m -41.766,38.086 c 7.497,11.23 15.86,21.836 24.985,31.738 4.601,-16.23 14.676,-30.82 27.91,-41.289 -1.82,-1.106 -3.395,-2.656 -4.223,-4.805 -0.527,-1.367 -0.699,-2.765 -0.629,-4.14 z m -23.792,-84.903 c 0,0 31.664,5.907 66.125,12.325 -0.262,-1.778 -0.247,-3.614 0.453,-5.411 0.457,-1.191 1.179,-2.168 1.961,-3.066 l -65.137,-25.363 c -9.106,-5.555 -11.738,-16.746 -6.485,-25.235 2.54,-4.109 6.536,-6.98 11.243,-8.093 4.707,-1.114 9.566,-0.313 13.679,2.226 l 57.227,35.371 c 0.394,-1.758 1.07,-3.457 2.375,-4.883 0.848,-0.937 1.879,-1.601 2.934,-2.16 l -51.594,-47.156 c -6.481,-8.476 -4.903,-19.855 3.051,-25.879 7.964,-6.027 19.351,-4.445 25.378,3.516 l 41.059,54.258 c 0.945,-1.485 2.145,-2.825 3.84,-3.672 0.902,-0.449 1.851,-0.586 2.797,-0.754 0.203,-0.145 0.39,-0.301 0.59,-0.438 l -28.61,-57.617 c -2.91,-9.953 2.5,-19.687 11.813,-22.363 9.312,-2.649 19.047,2.762 21.711,12.07 l 16.511,57.754 c 7.106,-2.129 14.621,-3.301 22.411,-3.301 6.339,0 10.503,0.528 16.41,1.953 -0.055,-10.429 -0.11,-20.332 -0.114,-21.25 -1.386,-1.503 -52.472,-57.011 -52.472,-57.011 -8.996,-7.383 -12.258,-7.774 -18.106,-1.934 l -1.699,1.699 -15.961,-12.519 2.164,-2.168 c 6.012,-6.016 11.672,-10.156 19.324,-10.899 -11.101,-5.839 -20.57,-10.832 -22.23,-11.699 -1.723,1.778 -9.996,10.352 -14.359,14.871 -0.657,11.367 -10.028,20.442 -21.559,20.442 -11.949,0 -21.672,-9.719 -21.672,-21.66 v -1.133 l 8.305,-8.301 v 6.562 c 0,1.465 0.562,2.832 1.594,3.868 2.132,2.129 5.613,2.129 7.746,0 0,0 6.39,-6.954 10.644,-11.582 l -0.047,-0.051 1.715,-1.766 c 1.207,-1.308 2.043,-2.207 2.043,-2.207 l 0.055,0.059 4.812,-4.942 -6.23,0.012 c -4.113,3.406 -9.223,5.223 -14.602,5.008 -5.789,-0.235 -11.14,-2.695 -15.07,-6.953 -2.848,-3.086 -4.664,-6.856 -5.375,-10.899 -23.934,38.926 -37.766,84.688 -37.766,133.633 0,20.527 2.5,40.477 7.09,59.629 3.188,-2.734 7.309,-3.77 12.028,-2.891 z m 29.5,-201.855 c 0,1.601 0.64,3.301 1.839,4.57 1.246,1.387 2.953,2.168 4.813,2.246 l 15.586,-0.039 c -7.789,-1.777 -14.504,-6.894 -18.196,-14.199 -1.91,2.773 -3.839,5.898 -4.042,7.207 0,0.078 0,0.156 0,0.215 z m 19.847,-22.734 c 0.34,1.414 1.199,2.617 2.434,3.398 l 32.676,18.457 9.144,-9.406 -0.133,-0.106 2.254,-2.07 1.68,-1.719 0.101,0.078 11.668,-10.722 c 2.039,-2.051 2.039,-5.528 -0.093,-7.657 -1.032,-1.023 -2.411,-1.601 -3.871,-1.601 h -6.559 l 8.309,-8.293 h 1.125 c 5.785,-0.008 11.222,2.258 15.32,6.34 4.094,4.101 6.348,9.531 6.348,15.332 0,11.523 -9.063,20.879 -20.418,21.543 -2.551,2.558 -6.2,6.191 -8.008,8.008 5.199,3.3 95.75,60.761 104.183,66.101 -2.84,-31.668 -30.164,-68.836 -55.941,-91.113 -11.801,-11.797 -16.328,-24.961 -16.328,-36.367 0,-10.067 3.527,-18.758 8.703,-23.934 4.535,-4.531 11.445,-5.898 17.191,-3.371 l 3.633,1.594 -2.805,2.812 c -4.57,4.571 -6.199,12.539 -6.199,18.477 0,11.914 3.078,17.969 8.836,24.219 1.219,-1.211 3.781,-3.782 7.383,-7.383 -2.438,-6.582 -3.609,-13.223 -3.609,-19.59 0,-12.734 4.496,-24.277 11.937,-31.719 1.555,-1.555 18.047,-15.234 24.981,-12.91 l 4.964,1.68 -4.226,3.086 c -2.422,1.777 -10.227,10.867 -12.871,16.414 -2.117,4.433 -3.379,9.757 -3.379,15.382 0,9.063 3.707,19.559 11.902,27.754 0.438,0.645 18.508,45.235 27.727,66.719 0.004,-0.488 0.015,-4.219 0.015,-4.219 0.059,-5.058 0.114,-10.058 0.114,-14.961 0,-25.949 -1.575,-48.984 -12.985,-60.398 -7.09,-7.094 -20.273,-10.844 -20.273,-10.844 l 3.418,-4.023 c 0.332,-0.379 5.812,-8.828 14.68,-9.11 2.117,-0.078 3.781,1.348 5.621,2.215 0.464,-20.32 4.293,-28.289 11.125,-35.945 -68.168,2.012 -129.727,30.77 -174.489,76.18 l -4.597,7.55 c -0.547,0.868 -0.828,1.856 -0.828,2.872 0,0.41 0.05,0.828 0.14,1.25 z m 137.192,363.457 6.16,10.468 h -25.457 l 2.976,10.887 c 0,5.246 -4.25,9.504 -9.504,9.504 -1.273,0 -2.484,-0.266 -3.589,-0.723 0.207,0.957 0.347,1.864 0.347,2.559 0,3.457 -2.801,6.269 -6.258,6.269 -3.457,0 -6.269,-2.812 -6.269,-6.269 0,-0.695 0.14,-1.602 0.351,-2.559 -1.109,0.457 -2.312,0.723 -3.586,0.723 -5.253,0 -9.5,-4.258 -9.5,-9.504 l 2.969,-10.887 h -6.711 c -4.605,0 -8.445,-3.281 -9.312,-7.617 -1.399,0.391 -2.864,0.625 -4.375,0.625 -8.633,0 -15.625,-6.992 -15.625,-15.625 0,-2.695 0.691,-5.234 1.883,-7.441 2.644,4.883 7.8,8.195 13.73,8.195 5.32,0 10.012,-2.668 12.832,-6.73 0.332,-0.469 0.637,-0.957 0.906,-1.465 0.813,-1.496 1.274,-3.176 1.555,-4.914 h -31.602 c -8.632,0 -15.625,7.004 -15.625,15.617 v -3.262 -3.535 -3.262 c 0,-8.633 6.993,-15.625 15.625,-15.625 h 29.954 c -2.668,-4.785 -7.766,-8.027 -13.645,-8.027 -0.305,0 -0.605,0.019 -0.918,0.039 2.82,-4.082 7.527,-6.758 12.871,-6.758 6.668,0 12.356,4.188 14.59,10.078 h 42.313 c 8.625,0 15.625,-6.992 15.625,-15.613 0,-4.016 0.023,-9.668 -3.985,-13.957 l -3.894,-5.852 -26.657,-41.132 c -4.863,-7.137 -14.578,-8.973 -21.718,-4.102 -7.118,4.856 -8.993,14.875 -4.129,22.004 6.199,3.445 8.633,10.586 7.472,18.008 -1.433,9.179 -9.824,15.496 -18.964,14.57 l -5.25,0.117 c -33.418,0 -58.375,22.598 -61.829,54.629 35.27,33.653 80.098,57.324 129.946,66.524 l -3.703,-23.125 33.968,27.578 11.457,-29.473 v -45.617 z m 50.242,-538.118 c -188.86,0 -342.5002,153.653 -342.5002,342.512 0,167.07 120.2732,306.504 278.7732,336.465 l 4.774,-5.879 -41.157,-15.695 41.133,-15.731 -27.781,-34.179 43.484,6.933 -1.437,-8.976 c -125.863,-21.336 -222.0471,-131.094 -222.0471,-262.938 0,-147.09 119.6681,-266.769 266.7581,-266.769 147.09,0 266.758,119.679 266.758,266.769 0,131.777 -96.067,241.473 -221.829,262.91 l -1.183,8.809 42.355,-6.797 -26.648,34.617 40.039,15.293 -40.496,16.516 4.234,5.215 c 158.735,-29.766 279.27,-169.317 279.27,-336.563 0,-188.859 -153.649,-342.512 -342.5,-342.512"
         style="fill:#9c9a9b;fill-opacity:1;fill-rule:nonzero;stroke:none"
         id="path104" /></g></g></svg>
