<?xml version="1.0" encoding="UTF-8"?>
<!-- Created with Inkscape (http://www.inkscape.org/) -->
<svg width="97.125" height="103.85" version="1.1" viewBox="0 0 97.125 103.85" xml:space="preserve" xmlns="http://www.w3.org/2000/svg"><g transform="matrix(1.3333 0 0 -1.3333 -38.294 125.76)"><g transform="scale(.1)" fill="#9c9a9b"><path d="m460.65 769.31 17.059-22.062 12.523 9.687-27.785 35.918-9.812-7.578c3.898-6.055-1.692-13.34-8.59-18.516l4.984-6.445 11.621 8.996"/><path d="m505.95 790.02c0.863 3.515 3.356 5.597 7.109 7.531 5.477 2.813 10.004 1.699 12.032-2.246 2.019-3.945-0.582-8.496-5.742-11.152-3.997-2.051-9.641-2.61-11.36 0.546l-13.301-6.835c5.754-9.278 16.871-7.813 28.766-1.711 12.676 6.515 19.82 16.476 14.703 26.445-4.316 8.41-13.879 9.504-25.07 3.762-4.149-2.129-7.426-4.993-9.153-8.371l-0.16-0.079-1.746 8.411 24.184 12.41-4.285 8.351-34.434-17.676 6.406-25.578 12.051 6.192"/><path d="m794.4 803.99c-4.16 2.101-8.398 3.078-12.148 2.492l-0.157 0.078 5.778 6.348 24.258-12.247 4.23 8.368-34.547 17.453-16.918-20.215 12.098-6.113c3.348 1.375 6.504 0.586 10.266-1.309 5.5-2.785 7.257-7.109 5.257-11.055-1.996-3.964-7.215-4.531-12.394-1.914-4.004 2.02-7.781 6.27-6.242 9.5l-13.344 6.75c-4.121-10.117 3.594-18.242 15.527-24.277 12.719-6.426 24.981-6.348 30.039 3.652 4.258 8.438-0.472 16.817-11.703 22.489"/><path d="m849.41 786.62c-10.094 7.8-22.652 9.101-28.59 1.425-5.414-7.011-2.824-17.324 6.778-24.758 4.175-3.23 9.539-5.632 13.843-4.519l0.141-0.109c-3.945-4.532-9.629-7.137-16.027-2.188-1.465 1.125-2.793 2.57-3.543 4.055-0.786 1.426-1.008 3.008-0.414 4.355l-11.067 8.555c-3.469-7.949 0.504-16.035 9.344-22.871 15.453-11.934 28.121-7.481 36.133 2.871 7.449 9.648 7.527 22.266-6.598 33.184zm-1.57-19.297c-2.512-3.243-7.606-3.508-12.617 0.371-4.872 3.769-5.762 8.652-3.172 12 2.308 3 7.613 3.097 12.066-0.352 5.082-3.926 6.191-8.816 3.723-12.019"/><path d="m347.8 600.38c7.9726-2.636 13.824 5.051 18.469 13.067 4.6719 8.086 8.1445 16.488 11.547 15.363 2.9023-0.957 2.3867-5.43 1.2851-8.77-1.5859-4.765-4.5742-9.433-8.5117-7.843l-5.1445-15.528c9.9883-3.222 18.211 7.297 22.137 19.161 3.719 11.203 4.281 25.546-5.3594 28.742-8.1054 2.683-13.918-5.305-18.531-13.215-4.6485-8.008-8.1992-16.289-12.106-14.981-3.2773 1.086-2.9062 6.34-1.3516 11.016 2.1719 6.582 5.2891 10.375 10.59 8.984l5.1523 15.539c-11.352 3.653-19.809-6.972-24.355-20.656-4.336-13.105-5.0157-27.168 6.1797-30.879"/><path d="m342.68 522.11 1.25 16.308c-5.2852 1.024-8.1953 5.664-7.6094 13.301 0.8203 10.516 8.0156 14.024 14.906 13.485 6.8829-0.536 13.457-5.098 12.645-15.614-0.5196-6.847-3.3711-11.574-8.1172-12.082l-1.2617-16.308c11.211-0.438 18.711 13.722 19.742 27.246 1.4687 18.926-8.3047 32.031-21.754 33.07-13.445 1.031-25.117-10.414-26.582-29.359-1.2148-15.879 4.8906-28.27 16.781-30.047"/><path d="m378.49 469.58-16.703-2.86-3.6601 21.231 16.703 2.871-2.7812 16.133-45.848-7.903 2.7773-16.133 18.883 3.266 3.6562-21.242-18.883-3.262 2.7852-16.121 45.844 7.898-2.7734 16.122"/><path d="m397.85 414.08c-8.097 18.055-22.476 23.856-34.789 18.34-12.305-5.527-17.539-20.117-9.4453-38.183 8.0976-18.055 22.469-23.84 34.777-18.332 12.317 5.519 17.547 20.109 9.457 38.175zm-16.152-23.242c-6.3008-2.824-14.254-1.965-18.578 7.676-4.3164 9.629 0.3359 16.152 6.6367 18.973 6.3008 2.812 14.258 1.953 18.578-7.676 4.32-9.629-0.32-16.152-6.6369-18.973"/><path d="m426.72 362.61-9.911 13.027-37.011-28.184 27.652-36.328 8.289 6.309-17.734 23.308 28.715 21.868"/><path d="m415.99 301.09 12.754-10.949 8.434 3.75 16.617-14.277-2.496-8.836 12.941-11.125 12.492 50.597-12.605 10.828zm40.723-12.129-10.805 9.285 16.016 7.715 0.136-0.105-5.347-16.895"/><path d="m593.76 244.72c6.457-1.336 11.14-4.766 10.847-8.77l16.02-3.32c0.902 11.727-11.66 19.59-24.406 22.235-18.606 3.859-32.848-4.18-35.586-17.383-2.739-13.203 7.136-26.231 25.742-30.086 5.687-1.18 13.238-1.153 18.371 2.371l-0.082-5.164 10.332-2.149 5.176 24.95-25.84 5.355-1.824-8.801 11.199-2.324c-1.723-3.965-7.637-5.605-15.563-3.957-10.332 2.141-12.894 9.727-11.492 16.484 1.406 6.758 6.766 12.707 17.106 10.559"/><path d="m661.21 212.03-0.449 8.847 30.746 1.563-0.477 9.375-30.75-1.574-0.406 8.136 33.641 1.719-0.493 9.695-49.988-2.539 2.363-46.465 50.868 2.579-0.528 10.41-34.527-1.746"/><path d="m747.55 264.2 8.523-27.371-0.168-0.05-29.347 20.89-16.047-5 13.836-44.426 14.695 4.582-8.621 27.684 0.168 0.059 29.449-21.2 16.047 5-13.84 44.414-14.695-4.582"/><path d="m812.16 254.8-4.66 7.539 26.187 16.18-4.925 7.98-26.2-16.183-4.281 6.933 28.668 17.707-5.101 8.262-42.582-26.309 24.453-39.582 43.324 26.77-5.477 8.867-29.406-18.164"/><path d="m860.78 339.87 15.891-33.114-0.125-0.129-33.235 15.637-12.019-12.121 46.969-18.711 13.258 13.359-18.711 47.188-12.028-12.109"/><path d="m919.58 357.7-7.578 4.601 15.965 26.317-8.028 4.863-15.961-26.317-6.961 4.227 17.465 28.801-8.301 5.039-25.953-42.801 39.782-24.125 26.41 43.555-8.914 5.402-17.926-29.562"/><path d="m924.84 458.63 27.453-8.273-0.047-0.164-33.75-12.617-4.848-16.086 44.551-13.426 4.442 14.734-27.766 8.371 0.055 0.164 34.054 12.532 4.844 16.082-44.547 13.418-4.441-14.735"/><path d="m966.19 541.82c-8.394 0.371-11.926-8.621-14.219-17.598-2.289-9.051-3.335-18.074-6.921-17.918-3.063 0.137-3.774 4.57-3.618 8.086 0.219 5.008 1.821 10.312 6.043 9.852l0.731 16.347c-10.488 0.383-15.535-11.992-16.098-24.472-0.519-11.778 2.844-25.743 12.996-26.188 8.532-0.383 11.938 8.883 14.227 17.762 2.293 8.972 3.469 17.898 7.57 17.722 3.449-0.152 4.52-5.312 4.305-10.234-0.309-6.941-2.27-11.434-7.754-11.543l-0.723-16.348c11.914-0.437 17.168 12.102 17.809 26.504 0.613 13.809-2.563 27.5-14.348 28.028"/><path d="m931.67 560.79 46.047 6.645-2.332 16.188-46.051-6.629 2.336-16.204"/><path d="m939 599.72c8.07 2.773 7.847 12.645 6.73 21.746-1.16 9.18-3.332 17.922 0.555 19.258 3.262 1.125 6.152-3.281 7.75-7.938 2.258-6.582 2.074-11.476-2.984-13.586l5.308-15.476c11.25 3.953 11.555 17.539 6.863 31.191-4.476 13.055-12.449 24.637-23.601 20.821-7.949-2.727-7.942-12.395-6.793-21.582 1.184-9.27 3.508-18.047 0.117-19.211-2.894-0.985-5.187 2.871-6.328 6.191-1.625 4.75-2.074 10.266 2.023 11.398l-5.32 15.477c-9.887-3.484-10.058-16.844-6.004-28.66 3.824-11.152 12.067-22.93 21.684-19.629"/><path d="m506.05 260.24c-3.692-4.891-2.703-11.852 2.187-15.547 4.899-3.699 11.856-2.715 15.535 2.179 3.703 4.903 2.727 11.856-2.168 15.547-4.906 3.692-11.863 2.715-15.554-2.179"/><path d="m415.23 703.51c3.614 4.961 2.532 11.895-2.422 15.508-4.96 3.613-11.894 2.539-15.515-2.422-3.613-4.961-2.531-11.895 2.422-15.508 4.961-3.613 11.902-2.531 15.515 2.422"/><path d="m887.35 716.6c-3.614-4.961-2.528-11.895 2.433-15.508 4.949-3.613 11.895-2.531 15.508 2.422 3.613 4.961 2.527 11.895-2.422 15.508-4.961 3.613-11.894 2.539-15.519-2.422"/><path d="m679.6 837.65-9.011-14.121h22.058v6.836l-8.691-0.04 4.812 7.188-4.812 7.422 8.535 0.047v6.75h-21.902l9.011-14.082"/><path d="m631.93 830.33-5.442-0.058v14.715l5.063-0.047v6.797h-18.149v-6.797l5.039 0.047v-14.715l-5.371 0.058v-6.796h18.86v6.796"/><path d="m657.61 841.79h-11.484l0.051 10.039h-8.418v-28.3h8.418l-0.051 11.25h11.484v-11.25h8.399v28.3h-8.399v-10.039"/><path d="m648.33 868.57c0 2.129 1.535 3.476 3.762 3.476 2 0 3.496-1.523 3.496-3.476l0.105-10h15.692v8.398h-9.618l-0.039 2.149c-0.058 6.023-2.843 10.878-9.695 10.878-5.266 0-8.906-2.949-9.555-8.007-0.113-1.075-0.113-2.207-0.113-3.313v-1.707h-9.609l-0.012-8.398h15.566l0.02 10"/><path d="m652.1 816.89c-2.786 0-5.051-2.266-5.051-5.059 0-2.785 2.265-5.05 5.051-5.05 2.793 0 5.054 2.265 5.054 5.05 0 2.793-2.261 5.059-5.054 5.059"/><path d="m730.09 884.12 7.453 9.179-43.406-6.387 6.871 42.911-34.2-27.715-15.714 41.094-15.704-41.114-34.128 27.774 6.945-43.496-43.508 6.972 7.563-9.316c-162.88-36.25-285.06-181.84-285.06-355.47 0-200.84 163.39-364.23 364.22-364.23 200.83 0 364.22 163.39 364.22 364.23 0 173.81-122.42 319.5-285.55 355.57zm-78.203 8.925c27.542 0 49.953-22.402 49.953-49.941s-22.411-49.942-49.953-49.942c-27.543 0-49.954 22.403-49.954 49.942s22.411 49.941 49.954 49.941zm45.996-113.01c54.355-10.019 102.75-37.218 139.3-75.8h-23.398v-17.461h-21.301v17.461h-28.98v-24.114h-17.129s0.113 36.711 0.113 37.082c0 8.262-6.722 14.981-14.984 14.981s-14.985-6.719-14.985-14.981c0-0.371 0.118-194.53 0.118-194.53l-29.715-27.383v-14.464c-13.071-1.883-23.926-10.262-29.453-21.688v296.35l9.937 28.769 33.586-27.304zm13.886-419.55c-7.414-2.903-12.683-10.071-12.683-18.496 0-10.977 8.906-19.883 19.89-19.883h25.047c10.989 0 19.895 8.906 19.895 19.883 0 8.425-5.27 15.593-12.68 18.496 33.895 11.804 58.266 43.965 58.266 81.894 0 19.629-14.547 35.723-33.418 38.446v14.464l-29.715 27.383v57.031h17.129v-24.101h28.98v18.223h21.301v-18.223h28.984v64.433h-28.984v-15.585h-21.301v15.585h-24.043v19.766h24.043v15.574h21.301v-15.574h28.984v58.418c40.137-45.176 64.551-104.61 64.551-169.67 0-139.08-111.54-252.52-249.85-255.75v143.74c8.187-26.191 28.449-47.05 54.304-56.054zm-38.222 81.894c0 9.324 6.738 17.031 15.59 18.614 0.75-11.063 9.871-19.844 21.128-19.844h42.539c11.25 0 20.375 8.769 21.125 19.844 8.821-1.622 15.528-9.317 15.528-18.614 0-35.82-24.68-57.461-57.949-65.695-33.274 8.234-57.961 29.875-57.961 65.695zm-193.35 189.73c-1.351-1.797-2.305-3.926-2.305-6.348 0-1.699 0.477-3.242 1.172-4.668l-66.203-0.129c2.91 7.492 6.153 14.797 9.731 21.926zm-41.766 38.086c7.497 11.23 15.86 21.836 24.985 31.738 4.601-16.23 14.676-30.82 27.91-41.289-1.82-1.106-3.395-2.656-4.223-4.805-0.527-1.367-0.699-2.765-0.629-4.14zm-23.792-84.903s31.664 5.907 66.125 12.325c-0.262-1.778-0.247-3.614 0.453-5.411 0.457-1.191 1.179-2.168 1.961-3.066l-65.137-25.363c-9.106-5.555-11.738-16.746-6.485-25.235 2.54-4.109 6.536-6.98 11.243-8.093 4.707-1.114 9.566-0.313 13.679 2.226l57.227 35.371c0.394-1.758 1.07-3.457 2.375-4.883 0.848-0.937 1.879-1.601 2.934-2.16l-51.594-47.156c-6.481-8.476-4.903-19.855 3.051-25.879 7.964-6.027 19.351-4.445 25.378 3.516l41.059 54.258c0.945-1.485 2.145-2.825 3.84-3.672 0.902-0.449 1.851-0.586 2.797-0.754 0.203-0.145 0.39-0.301 0.59-0.438l-28.61-57.617c-2.91-9.953 2.5-19.687 11.813-22.363 9.312-2.649 19.047 2.762 21.711 12.07l16.511 57.754c7.106-2.129 14.621-3.301 22.411-3.301 6.339 0 10.503 0.528 16.41 1.953-0.055-10.429-0.11-20.332-0.114-21.25-1.386-1.503-52.472-57.011-52.472-57.011-8.996-7.383-12.258-7.774-18.106-1.934l-1.699 1.699-15.961-12.519 2.164-2.168c6.012-6.016 11.672-10.156 19.324-10.899-11.101-5.839-20.57-10.832-22.23-11.699-1.723 1.778-9.996 10.352-14.359 14.871-0.657 11.367-10.028 20.442-21.559 20.442-11.949 0-21.672-9.719-21.672-21.66v-1.133l8.305-8.301v6.562c0 1.465 0.562 2.832 1.594 3.868 2.132 2.129 5.613 2.129 7.746 0 0 0 6.39-6.954 10.644-11.582l-0.047-0.051 1.715-1.766c1.207-1.308 2.043-2.207 2.043-2.207l0.055 0.059 4.812-4.942-6.23 0.012c-4.113 3.406-9.223 5.223-14.602 5.008-5.789-0.235-11.14-2.695-15.07-6.953-2.848-3.086-4.664-6.856-5.375-10.899-23.934 38.926-37.766 84.688-37.766 133.63 0 20.527 2.5 40.477 7.09 59.629 3.188-2.734 7.309-3.77 12.028-2.891zm29.5-201.86c0 1.601 0.64 3.301 1.839 4.57 1.246 1.387 2.953 2.168 4.813 2.246l15.586-0.039c-7.789-1.777-14.504-6.894-18.196-14.199-1.91 2.773-3.839 5.898-4.042 7.207v0.215zm19.847-22.734c0.34 1.414 1.199 2.617 2.434 3.398l32.676 18.457 9.144-9.406-0.133-0.106 2.254-2.07 1.68-1.719 0.101 0.078 11.668-10.722c2.039-2.051 2.039-5.528-0.093-7.657-1.032-1.023-2.411-1.601-3.871-1.601h-6.559l8.309-8.293h1.125c5.785-8e-3 11.222 2.258 15.32 6.34 4.094 4.101 6.348 9.531 6.348 15.332 0 11.523-9.063 20.879-20.418 21.543-2.551 2.558-6.2 6.191-8.008 8.008 5.199 3.3 95.75 60.761 104.18 66.101-2.84-31.668-30.164-68.836-55.941-91.113-11.801-11.797-16.328-24.961-16.328-36.367 0-10.067 3.527-18.758 8.703-23.934 4.535-4.531 11.445-5.898 17.191-3.371l3.633 1.594-2.805 2.812c-4.57 4.571-6.199 12.539-6.199 18.477 0 11.914 3.078 17.969 8.836 24.219 1.219-1.211 3.781-3.782 7.383-7.383-2.438-6.582-3.609-13.223-3.609-19.59 0-12.734 4.496-24.277 11.937-31.719 1.555-1.555 18.047-15.234 24.981-12.91l4.964 1.68-4.226 3.086c-2.422 1.777-10.227 10.867-12.871 16.414-2.117 4.433-3.379 9.757-3.379 15.382 0 9.063 3.707 19.559 11.902 27.754 0.438 0.645 18.508 45.235 27.727 66.719 4e-3 -0.488 0.015-4.219 0.015-4.219 0.059-5.058 0.114-10.058 0.114-14.961 0-25.949-1.575-48.984-12.985-60.398-7.09-7.094-20.273-10.844-20.273-10.844l3.418-4.023c0.332-0.379 5.812-8.828 14.68-9.11 2.117-0.078 3.781 1.348 5.621 2.215 0.464-20.32 4.293-28.289 11.125-35.945-68.168 2.012-129.73 30.77-174.49 76.18l-4.597 7.55c-0.547 0.868-0.828 1.856-0.828 2.872 0 0.41 0.05 0.828 0.14 1.25zm137.19 363.46 6.16 10.468h-25.457l2.976 10.887c0 5.246-4.25 9.504-9.504 9.504-1.273 0-2.484-0.266-3.589-0.723 0.207 0.957 0.347 1.864 0.347 2.559 0 3.457-2.801 6.269-6.258 6.269s-6.269-2.812-6.269-6.269c0-0.695 0.14-1.602 0.351-2.559-1.109 0.457-2.312 0.723-3.586 0.723-5.253 0-9.5-4.258-9.5-9.504l2.969-10.887h-6.711c-4.605 0-8.445-3.281-9.312-7.617-1.399 0.391-2.864 0.625-4.375 0.625-8.633 0-15.625-6.992-15.625-15.625 0-2.695 0.691-5.234 1.883-7.441 2.644 4.883 7.8 8.195 13.73 8.195 5.32 0 10.012-2.668 12.832-6.73 0.332-0.469 0.637-0.957 0.906-1.465 0.813-1.496 1.274-3.176 1.555-4.914h-31.602c-8.632 0-15.625 7.004-15.625 15.617v-10.059c0-8.633 6.993-15.625 15.625-15.625h29.954c-2.668-4.785-7.766-8.027-13.645-8.027-0.305 0-0.605 0.019-0.918 0.039 2.82-4.082 7.527-6.758 12.871-6.758 6.668 0 12.356 4.188 14.59 10.078h42.313c8.625 0 15.625-6.992 15.625-15.613 0-4.016 0.023-9.668-3.985-13.957l-3.894-5.852-26.657-41.132c-4.863-7.137-14.578-8.973-21.718-4.102-7.118 4.856-8.993 14.875-4.129 22.004 6.199 3.445 8.633 10.586 7.472 18.008-1.433 9.179-9.824 15.496-18.964 14.57l-5.25 0.117c-33.418 0-58.375 22.598-61.829 54.629 35.27 33.653 80.098 57.324 129.95 66.524l-3.703-23.125 33.968 27.578 11.457-29.473v-45.617zm50.242-538.12c-188.86 0-342.5 153.65-342.5 342.51 0 167.07 120.27 306.5 278.77 336.46l4.774-5.879-41.157-15.695 41.133-15.731-27.781-34.179 43.484 6.933-1.437-8.976c-125.86-21.336-222.05-131.09-222.05-262.94 0-147.09 119.67-266.77 266.76-266.77s266.76 119.68 266.76 266.77c0 131.78-96.067 241.47-221.83 262.91l-1.183 8.809 42.355-6.797-26.648 34.617 40.039 15.293-40.496 16.516 4.234 5.215c158.74-29.766 279.27-169.32 279.27-336.56 0-188.86-153.65-342.51-342.5-342.51"/></g></g></svg>
