<?xml version="1.0" encoding="UTF-8"?>
<!-- Created with Inkscape (http://www.inkscape.org/) -->
<svg width="17.875mm" height="4.8201mm" version="1.1" viewBox="0 0 17.875 4.8201" xmlns="http://www.w3.org/2000/svg" xmlns:xlink="http://www.w3.org/1999/xlink">
 <defs>
  <linearGradient id="nice2">
   <stop stop-color="#005bf6" offset="0"/>
   <stop stop-color="#1f7fe2" stop-opacity=".50967" offset="1"/>
  </linearGradient>
  <linearGradient id="nice">
   <stop stop-color="#004ac7" offset="0"/>
   <stop stop-color="#00b3e2" stop-opacity=".50967" offset="1"/>
  </linearGradient>
  <linearGradient id="linearGradient1815" x1="89.187" x2="90.369" y1="13.463" y2="13.463" gradientTransform="translate(-.074036)" gradientUnits="userSpaceOnUse" xlink:href="#nice2"/>
  <linearGradient id="linearGradient1817" x1="87.536" x2="89.12" y1="13.488" y2="13.488" gradientTransform="translate(-.074036)" gradientUnits="userSpaceOnUse" xlink:href="#nice2"/>
  <linearGradient id="linearGradient1821" x1="84.329" x2="85.786" y1="12.895" y2="12.895" gradientTransform="translate(-.074036)" gradientUnits="userSpaceOnUse" xlink:href="#nice2"/>
  <linearGradient id="linearGradient1823" x1="83.252" x2="84.433" y1="13.463" y2="13.463" gradientTransform="translate(-.074036)" gradientUnits="userSpaceOnUse" xlink:href="#nice2"/>
  <linearGradient id="linearGradient1825" x1="82.157" x2="83.254" y1="13.514" y2="13.514" gradientUnits="userSpaceOnUse" xlink:href="#nice2"/>
  <linearGradient id="linearGradient1827" x1="80.989" x2="82.086" y1="13.514" y2="13.514" gradientUnits="userSpaceOnUse" xlink:href="#nice2"/>
  <linearGradient id="linearGradient1829" x1="79.701" x2="83.328" y1="12.147" y2="12.147" gradientTransform="matrix(.96248 0 0 .96248 3.1267 .53648)" gradientUnits="userSpaceOnUse" xlink:href="#nice"/>
  <linearGradient id="linearGradient1831" x1="75.83" x2="77.358" y1="12.874" y2="12.874" gradientTransform="translate(.17665)" gradientUnits="userSpaceOnUse" xlink:href="#nice2"/>
  <linearGradient id="linearGradient1833" x1="75" x2="75.804" y1="13.216" y2="13.216" gradientTransform="matrix(1.1557 0 0 1.1557 -11.463 -2.1839)" gradientUnits="userSpaceOnUse" xlink:href="#nice2"/>
  <linearGradient id="linearGradient1835" x1="72.42" x2="76.388" y1="12.386" y2="12.386" gradientTransform="translate(0 .20586)" gradientUnits="userSpaceOnUse" xlink:href="#nice"/>
  <linearGradient id="linearGradient1872" x1="85.882" x2="87.466" y1="13.488" y2="13.488" gradientTransform="translate(-.074036)" gradientUnits="userSpaceOnUse" xlink:href="#nice2"/>
 </defs>
 <g transform="translate(-72.42 -10.158)">
  <g>
   <path d="m75.404 14.649 0.03175 0.29751q-0.17778 0.03165-0.3111 0.03165-0.2984 0-0.5714-0.39879-0.273-0.39246-0.43173-0.92418-0.15238-0.53172-0.19047-1.0255-0.31745 0.8229-0.60315 1.1964-0.27935 0.36714-0.57775 0.36714-0.15238 0-0.24126-0.12027-0.08889-0.12661-0.08889-0.32916 0-0.46842 0.43173-1.19 0.43808-0.72162 1.0222-1.1837 0.01278-0.03799 0.10793-0.46209 0.10158-0.42411 0.12063-0.46842l0.36824-0.03165q0 0.10761-0.05714 0.44943 0.85711-0.65199 1.4095-0.65199 0.2603 0 0.41268 0.14559 0.15238 0.13926 0.15238 0.3798 0 0.60135-0.6095 1.2154-0.6095 0.60768-1.3015 0.71529 0.05079 0.91785 0.31745 1.4369 0.273 0.51906 0.6095 0.55071zm-1.8475-2.1142q0.17142-0.45576 0.23491-0.72795-0.34919 0.32283-0.64759 0.86088-0.29205 0.53805-0.29205 0.79758 0 0.13292 0.10793 0.13292 0.19047 0 0.5968-1.0634zm0.43173-0.08862q0.67299 0 1.2063-0.46842 0.53331-0.46842 0.53331-0.93051 0-0.17091-0.08889-0.26586-0.08254-0.09496-0.26666-0.09496-0.18412 0-0.53331 0.20889-0.34919 0.20256-0.50156 0.33549-0.19682 0.77859-0.34919 1.2154z" fill="url(#linearGradient1835)"/>
   <path d="m75.967 12.44q-0.22832 0-0.22832-0.18347 0-0.10192 0.05708-0.17124 0.05708-0.06931 0.14678-0.06931 0.0897 0 0.14678 0.053 0.05708 0.053 0.05708 0.13862 0 0.08562-0.04892 0.15901-0.04892 0.07339-0.13047 0.07339zm-0.053 1.2028 0.08155 0.06931q-0.09785 0.18755-0.26094 0.32209-0.15901 0.13047-0.28948 0.13047-0.22832 0-0.22832-0.31802 0-0.39548 0.32617-1.0315 0.07339-0.13862 0.08562-0.16309l0.17532 0.106q-0.08562 0.15493-0.21201 0.49334-0.12232 0.3384-0.12232 0.43625 0 0.09378 0.04077 0.13454 0.04077 0.04077 0.09786 0.04077 0.11008 0 0.30578-0.22016z" fill="url(#linearGradient1833)"/>
   <path d="m77.446 13.789 0.08819 0.07761q-0.20461 0.33514-0.43392 0.33514-0.14111 0-0.28928-0.20814t-0.14817-0.34219q0-0.08467 0.254-0.16933 0.09525-0.03175 0.17286-0.09525 0.08114-0.06703 0.08114-0.13758 0-0.07056-0.03881-0.10583-0.03881-0.0388-0.09878-0.0388-0.38806 0.03528-0.81139 1.0442l-0.21519-0.07408q0-0.15169 0.40922-1.2277 0.41275-1.076 0.58561-1.3017l0.17286 0.0635q-0.47625 0.82903-0.79728 1.9262 0.27517-0.41275 0.47272-0.55033 0.19756-0.13758 0.37747-0.13758 0.10936 0 0.17286 0.06703 0.06703 0.06703 0.06703 0.17286 0 0.1023-0.05292 0.18697-0.04939 0.08467-0.14464 0.14817-0.13758 0.09172-0.33867 0.17992 0.03175 0.1658 0.10936 0.25047 0.07761 0.08467 0.17639 0.08467 0.05292 0 0.2293-0.14817z" fill="url(#linearGradient1831)"/>
   <path d="m83.143 10.355 0.18474 0.273q-0.65616 0.43172-1.4142 1.3777-0.75808 0.93963-1.1849 1.9428-0.08919 0.20951-0.15926 0.27935-0.06371 0.06985-0.19111 0.06985-0.12104 0-0.22297-0.08253-0.09557-0.08888-0.09557-0.2603 0-0.17777 0.04458-0.66663 0.05095-0.49521 0.05095-0.69838 0-1.4285-0.31852-2.3046l0.46504-0.12699q0.36312 0.62854 0.36312 2.2666 0 0.5333-0.0191 0.85075 1.0193-2.0824 2.4972-2.9205z" fill="url(#linearGradient1829)"/>
   <path d="m81.994 13.102q0.09172 0.15169 0.09172 0.33514 0 0.28575-0.19756 0.51153-0.19756 0.22225-0.46567 0.22225-0.20461 0-0.32103-0.11642-0.11289-0.11994-0.11289-0.32808 0-0.33514 0.26106-0.59972 0.26106-0.26811 0.58561-0.26811 0.05997 0 0.08467 0.0035l0.01058 0.11642q-0.28222 0-0.46919 0.16228-0.18697 0.16228-0.18697 0.41628 0 0.15169 0.07408 0.24694 0.07408 0.09172 0.21519 0.09172 0.14464 0 0.2293-0.127 0.08467-0.127 0.08467-0.29633 0-0.17286-0.06703-0.31397z" fill="url(#linearGradient1827)"/>
   <path d="m83.162 13.102q0.09172 0.15169 0.09172 0.33514 0 0.28575-0.19756 0.51153-0.19756 0.22225-0.46567 0.22225-0.20461 0-0.32103-0.11642-0.11289-0.11994-0.11289-0.32808 0-0.33514 0.26106-0.59972 0.26106-0.26811 0.58561-0.26811 0.05997 0 0.08467 0.0035l0.01058 0.11642q-0.28222 0-0.46919 0.16228-0.18697 0.16228-0.18697 0.41628 0 0.15169 0.07408 0.24694 0.07408 0.09172 0.21519 0.09172 0.14464 0 0.2293-0.127 0.08467-0.127 0.08467-0.29633 0-0.17286-0.06703-0.31397z" fill="url(#linearGradient1825)"/>
   <path d="m84.158 12.9q0.08819 0 0.14464 0.05997 0.05644 0.05997 0.05644 0.15522 0 0.1905-0.21872 0.40217l-0.08467-0.06703q0.04939-0.10936 0.04939-0.15875 0-0.09525-0.10583-0.09525t-0.20108 0.13406-0.22578 0.41628q-0.127 0.27869-0.19403 0.39511l-0.20108-0.08819q0.19403-0.44097 0.22225-0.51858 0.09525-0.27517 0.09525-0.6985l0.19756-0.05292q-0.01058 0.2293-0.03175 0.3563-0.02117 0.12347-0.1023 0.40569 0.3563-0.64558 0.59972-0.64558z" fill="url(#linearGradient1823)"/>
   <path d="m85.631 13.892 0.08114 0.06703q-0.14817 0.24694-0.38453 0.24694-0.20461 0-0.20461-0.20108 0-0.11642 0.09878-0.37042 0.10231-0.25753 0.10231-0.33866 0-0.10231-0.13053-0.10231-0.13053 0-0.3563 0.28222-0.22225 0.27869-0.37394 0.64911l-0.20814-0.07408q0.18344-0.92075 0.95955-2.4659l0.17286 0.05644q-0.39158 0.78316-0.56092 1.2453-0.17639 0.47978-0.26458 0.79375 0.27164-0.44803 0.46567-0.62089 0.19756-0.17286 0.34219-0.17286 0.26106 0 0.26106 0.18697 0 0.11642-0.13053 0.41628-0.13053 0.29986-0.13053 0.39864 0 0.09878 0.09525 0.09878 0.04939 0 0.1658-0.09525z" fill="url(#linearGradient1821)"/>
   <path d="m87.311 13.793 0.08114 0.05997q-0.04939 0.10583-0.18344 0.20108-0.13053 0.09525-0.23989 0.09525-0.20814 0-0.20814-0.21872 0-0.1023 0.05292-0.24342l-0.13053 0.13406q-0.1905 0.19403-0.33161 0.26106-0.13758 0.06703-0.27164 0.06703t-0.20461-0.07408q-0.06703-0.07761-0.06703-0.21167 0-0.24694 0.1905-0.48683 0.1905-0.24342 0.48683-0.39511 0.29633-0.15169 0.59266-0.15522l0.0071 0.11642-0.14817 0.03175q-0.32103 0.07056-0.56797 0.28222-0.24342 0.21167-0.24342 0.42333 0 0.20814 0.16933 0.20814 0.15875 0 0.39158-0.22225 0.23283-0.22225 0.38805-0.52211l0.14817 0.08819q-0.21872 0.44097-0.21872 0.56092 0 0.04939 0.03175 0.08467 0.03528 0.03175 0.06703 0.03175 0.03528 0 0.04586-0.0035t0.02117-0.0071q0.01058-0.0071 0.02469-0.01764 0.01764-0.01058 0.02822-0.02117 0.01411-0.01058 0.04233-0.03175t0.04586-0.03528z" fill="url(#linearGradient1872)"/>
   <path d="m88.965 13.793 0.08114 0.05997q-0.04939 0.10583-0.18344 0.20108-0.13053 0.09525-0.23989 0.09525-0.20814 0-0.20814-0.21872 0-0.1023 0.05292-0.24342l-0.13053 0.13406q-0.1905 0.19403-0.33161 0.26106-0.13758 0.06703-0.27164 0.06703t-0.20461-0.07408q-0.06703-0.07761-0.06703-0.21167 0-0.24694 0.1905-0.48683 0.1905-0.24342 0.48683-0.39511 0.29633-0.15169 0.59267-0.15522l0.0071 0.11642-0.14817 0.03175q-0.32103 0.07056-0.56797 0.28222-0.24342 0.21167-0.24342 0.42333 0 0.20814 0.16933 0.20814 0.15875 0 0.39158-0.22225 0.23283-0.22225 0.38806-0.52211l0.14817 0.08819q-0.21872 0.44097-0.21872 0.56092 0 0.04939 0.03175 0.08467 0.03528 0.03175 0.06703 0.03175 0.03528 0 0.04586-0.0035t0.02117-0.0071q0.01058-0.0071 0.02469-0.01764 0.01764-0.01058 0.02822-0.02117 0.01411-0.01058 0.04233-0.03175t0.04586-0.03528z" fill="url(#linearGradient1817)"/>
   <path d="m90.094 12.9q0.08819 0 0.14464 0.05997 0.05644 0.05997 0.05644 0.15522 0 0.1905-0.21872 0.40217l-0.08467-0.06703q0.04939-0.10936 0.04939-0.15875 0-0.09525-0.10583-0.09525t-0.20108 0.13406-0.22578 0.41628q-0.127 0.27869-0.19403 0.39511l-0.20108-0.08819q0.19403-0.44097 0.22225-0.51858 0.09525-0.27517 0.09525-0.6985l0.19756-0.05292q-0.01058 0.2293-0.03175 0.3563-0.02117 0.12347-0.1023 0.40569 0.3563-0.64558 0.59972-0.64558z" fill="url(#linearGradient1815)"/>
  </g>
 </g>
</svg>
