<?xml version="1.0" encoding="UTF-8"?>
<!-- Generator: Adobe Illustrator 16.0.0, SVG Export Plug-In . SVG Version: 6.00 Build 0)  -->
<svg width="100" height="100" enable-background="new 0 0 102.84 158.789" version="1.1" viewBox="0 0 100 100" xml:space="preserve" xmlns="http://www.w3.org/2000/svg" xmlns:xlink="http://www.w3.org/1999/xlink">
<circle cx="49.899" cy="50.337" r="49.28" fill="#21252d" stop-color="#000000" style="paint-order:fill markers stroke"/><g transform="matrix(.62017 0 0 .62017 16.352 -6.162)" stroke-width="1.6125">
	<g fill="#fff" stroke-width="5.25">
		<path d="m36.988 83.811-6.971 0.254-1.055-1.185c0.73-4.271 1.759-8.896 2.254-9.362 0.598-0.404 2.621-1.102 3.717-1.455l2.382 6.83z"/>
		<path d="m51.582 112.88 0.171-3.864 2.173-3.181-0.371-2.336s1.064-1.635 1.23-2.696c0.16-1.064 0.07-1.72 0.215-2.574 0.141-0.851-0.785-2.646-0.785-2.646s0.17-1.064 1.209-3.838c1.043-2.771-2.137-4.646-1.303-5.637 0.828-0.994 2.045-3.105 2.045-3.105l7.936-1.479-10.271-1.23c-0.177-0.439-0.283-0.932-0.213-1.152 2.928 0.084 6.926-2.479 7.104-2.597l2.155-1.401-9.524 2.386c-0.383-0.152-1.62-0.699-2.256-1.618 0.114-3.014-2.299-4.34-3.354-4.783l-0.271-0.11-0.979 1.033 0.289 0.296c0.946 0.969 3.336 3.795 2.997 5.266-0.667 2.9-2.787 9.523-4.743 10.267-0.942 0.354-2.462 0.466-4.397 0.308-0.836-0.078-1.563-0.188-1.984-0.254 0.158-1.572 0.639-6.674 0.284-8.402 0.929-1.08 2.148-1.76 2.162-1.766l-0.35-0.785-1.913 0.662-1.847-6.473c1.063-1.199 8.104-8.439 21.19-7.333 0.715 0.058 1.444 0.15 2.174 0.26 3.858 2.858 9.112 8.034 13.229 12.564 8e-3 7e-3 0.013 9e-3 0.021 0.021 2.402 2.584 6.297 4.352 6.297 4.352l22.939 3.037c0.035 0.213 0.092 0.428 0.15 0.621 0.064 0.334 0.152 0.69 0.242 1.045 0.074 0.34 0.145 0.697 0.207 1.063 0.192 1.084 0.182 0.486 0.274 1.693 0.146 1.75 0.222 3.514 0.285 5.297v0.066c0.019 0.471 0.043 0.932 0.058 1.41 0.047 1.315-0.043 2.655-0.125 3.957h-0.082l0.233-0.168h0.017c-0.017 0.268-0.027 0.532-0.035 0.795-0.047 1.121-0.029 2.053 0.039 2.924-0.06 0.336-0.115 0.666-0.176 1l-0.285-0.012-0.195 1.864 0.191 0.021c-0.146 1.03-0.283 2.076-0.412 3.117-0.078 0.459-0.174 0.959-0.267 1.446l-0.012 0.106-9e-3 2e-3c-0.221 1.152-0.465 2.347-0.817 3.492l-0.013 0.033-19.926-2.729-3.496 3.092h-4e-3l-7.262 3.352s-7.646 3.189-20.251 1.908l-0.236-3.543 0.381-1.889z"/>
		<path d="m49.294 96.236 2.83 1.385 0.556 5.461-2.599 1.893-17.367 0.619c-0.265-0.063-1.354-0.385-2.048-0.811-0.388-0.314-0.784-3.025-0.93-5.438l2.884-2.032z"/>
		<path d="m37.194 86-0.839 3.75 0.396 0.105c0.104 0.026 2.548 0.688 5.003 0.889 1.869 0.164 3.244 0.02 4.1-0.436 1.471-0.771 2.778-3.408 3.15-4.213 0.58-0.062 1.34-0.132 1.689-0.158 0.421 0.6 1.556 3.412 1.612 3.836 0.021 0.453-0.937 3.576-1.184 4.016-0.237 0.139-2.036 0.344-3.535 0.396l-15.83 0.959c-0.529-0.404-2.25-2.859-2.685-4.072-0.241-0.68 0.438-2.703 1.697-5.053 0.582-0.21 3.646-0.176 6.426-0.019z"/>
		<polygon points="37.056 115.17 35.449 114.78 32.458 109.32 34.408 107.57 48.592 107.16 50.256 108.5 49.628 112.75 46.613 114.46"/>
	
	
		</g><g stroke-width="1.6125">
			<g stroke-width="1.6125">
				<g stroke-width="1.6125">
					<defs>
						<path id="SVGID_1_" d="m56.061 67.748-13.463 3.623-5.609-0.206-4.03 4.035s-5.318 9.342-7.162 3.659c-1.849-5.672-7.382-14.782-13.046-24.718-5.661-9.936-15.243-23.282-12.151-30.668 3.087-7.387 10.688-13.928 21.229-11.549 10.545 2.384 28.921 6.762 30.349 13.221 1.424 6.457 5.238 16.2 5.238 16.2z"/>
					</defs>
					<clipPath id="SVGID_2_">
						<use overflow="visible" xlink:href="#SVGID_1_"/>
					</clipPath>
					<g clip-path="url(#SVGID_2_)">
						<g stroke-width="1.6125">
							<g fill="#fff" stroke-width="5.25">
								<path d="m18.768 119.22c-0.582-2.618 0.157-4.577 0.28-4.87l12.575-39.209-4.969-22.521c-2.262-1.476-3.195-2.569-3.024-3.521 0.058-0.338 0.322-0.948 1.389-1.186 0.085-0.016 0.161-0.029 0.228-0.038 0.248-0.11 0.556-0.21 0.916-0.291 0.587-0.128 1.156-0.175 1.331-0.193l15.105-3.336c0.168-0.056 0.701-0.255 1.284-0.378 0.362-0.083 0.687-0.128 0.959-0.128 0.063-0.018 0.134-0.036 0.219-0.056 1.071-0.233 1.564 0.197 1.76 0.486 0.558 0.791 0.171 2.178-1.262 4.463l4.975 22.52 27.903 30.281c0.234 0.223 1.73 1.684 2.313 4.305 0.621 2.818-1.524 5.438-5.106 6.23l-49.624 10.951c-3.582 0.789-6.633-0.688-7.252-3.509zm27.016-74.487c-0.031-0.014-0.17-0.041-0.443 0.022-0.081 0.018-0.152 0.038-0.195 0.052l-0.111 0.036-0.113-4e-3c-0.135-2e-3 -0.368 0.011-0.756 0.099-0.584 0.125-1.136 0.341-1.141 0.341l-15.298 3.383-0.099 0.011c-9e-3 2e-3 -0.598 0.04-1.188 0.172-0.381 0.083-0.601 0.17-0.72 0.231l-0.104 0.056-0.114 9e-3c-0.045 6e-3 -0.116 0.018-0.203 0.034-0.273 0.063-0.386 0.157-0.395 0.136 0 9e-3 0.018 0.672 2.67 2.361l0.227 0.146 5.158 23.382-12.688 39.567-0.022 0.067c-9e-3 0.015-0.748 1.726-0.223 4.108 0.546 2.474 3.346 3.048 5.717 2.521l49.626-10.95c2.367-0.521 4.666-2.212 4.117-4.693-0.521-2.354-1.91-3.621-1.926-3.629l-28.214-30.61-5.157-23.376 0.144-0.231c1.662-2.605 1.436-3.239 1.451-3.241z"/>
								<path d="m17.926 119.41c-0.628-2.846 0.166-4.98 0.305-5.316l12.502-38.99-4.845-21.953c-1.745-1.174-3.392-2.572-3.104-4.194 0.076-0.446 0.432-1.521 2.043-1.877 0.063-0.016 0.121-0.022 0.177-0.034 0.27-0.112 0.592-0.208 0.975-0.295 0.526-0.117 1.037-0.175 1.331-0.193l14.985-3.293c0.182-0.071 0.769-0.284 1.405-0.425 0.381-0.085 0.726-0.132 1.024-0.146l0.152-0.036c1.224-0.278 2.113 0.063 2.644 0.831 0.955 1.36 0.051 3.325-1.046 5.115l4.847 21.958 27.705 30.056c0.316 0.297 1.938 1.924 2.562 4.75 0.731 3.307-1.692 6.358-5.758 7.258l-49.623 10.948c-0.421 0.094-0.836 0.156-1.241 0.188-3.562 0.324-6.394-1.419-7.04-4.352zm59.133-16.517c-0.047-0.033-0.094-0.074-0.133-0.117l-28.213-30.606c-0.102-0.114-0.175-0.251-0.211-0.401l-5.155-23.381c-0.047-0.222-7e-3 -0.452 0.114-0.647l0.144-0.224c0.508-0.791 0.82-1.374 1.014-1.79-0.076 0.011-0.166 0.027-0.27 0.051-0.497 0.11-0.973 0.289-1.141 0.343l-15.462 3.408v-4e-3c-0.069 4e-3 -0.132 0.022-0.173 0.024-0.185 0.014-0.564 0.054-0.945 0.134-0.101 0.027-0.188 0.047-0.264 0.07 0.349 0.295 0.878 0.694 1.676 1.201l0.222 0.144c0.194 0.123 0.329 0.316 0.378 0.535l5.158 23.387c0.031 0.15 0.026 0.303-0.021 0.444l-12.743 39.715c-2e-3 0.015-0.623 1.521-0.171 3.582 0.474 2.142 3.063 2.072 3.847 2 0.285-0.024 0.569-0.067 0.848-0.133l49.624-10.949c1.963-0.436 3.885-1.768 3.463-3.67-0.439-2-1.594-3.116-1.586-3.116z"/>
							</g>
						</g><g fill="#75c5d3" stroke-width="5.25">
						<path d="m23.42 117.61c1.376 2.826 5.126 1.883 5.126 1.883s35.421-7.822 41.162-9.088c5.742-1.262 5.896-2.529 6.135-4.521 0.23-1.984-1.688-4.213-1.688-4.213l-17.074-17.984c-0.858-0.652-3.631 1.153-6.156 2.916 0.085 1.604-0.988 3.09-2.61 3.444-0.838 0.187-1.669 0.021-2.362-0.364-0.408 0.146-0.846 0.276-1.298 0.399 1.104 0.293 2.017 1.172 2.278 2.366 0.378 1.707-0.701 3.396-2.405 3.773-1.707 0.373-3.405-0.711-3.777-2.41-0.271-1.215 0.208-2.416 1.115-3.146-1.702 0.293-3.418 0.523-4.764 0.842-2.971 0.689-6.502-0.395-6.502-0.395s-4.775 13.885-6.255 17.938c-1.484 4.055-2.304 5.73-0.925 8.56zm25.196-21.6c-0.242-1.1 0.459-2.196 1.557-2.438 1.102-0.245 2.197 0.459 2.44 1.556 0.24 1.104-0.457 2.199-1.562 2.438-1.098 0.244-2.189-0.454-2.435-1.556z"/>
						<path d="m17.137 28.895c0.524 2.381 2.881 3.892 5.267 3.367 2.388-0.526 3.889-2.881 3.366-5.269-0.528-2.393-2.886-3.892-5.271-3.374-2.384 0.534-3.89 2.892-3.362 5.276zm1.238-0.273c-0.372-1.696 0.708-3.376 2.396-3.748 0.091-0.027 0.176 0.034 0.195 0.114 0.021 0.09-0.036 0.175-0.123 0.195-1.52 0.336-2.484 1.851-2.15 3.367 0.021 0.085-0.038 0.173-0.125 0.195-0.083 0.013-0.176-0.038-0.193-0.123z"/>
						<path d="m25.848 33.67c0.379 1.718 2.079 2.803 3.8 2.424 1.722-0.376 2.806-2.081 2.425-3.795-0.376-1.721-2.079-2.812-3.799-2.424-1.723 0.373-2.803 2.078-2.426 3.795zm0.855-0.191c-0.275-1.241 0.513-2.482 1.763-2.753 0.083-0.027 0.171 0.034 0.188 0.123 0.021 0.079-0.036 0.166-0.121 0.188-1.07 0.233-1.752 1.302-1.516 2.375 0.02 0.087-0.04 0.17-0.123 0.188-0.087 0.018-0.177-0.031-0.191-0.121z"/>
						<path d="m22.272 39.983c0.359 1.622 1.964 2.644 3.58 2.292 1.627-0.36 2.65-1.974 2.295-3.589-0.357-1.625-1.968-2.648-3.585-2.29-1.622 0.354-2.647 1.956-2.29 3.587zm0.793-0.18c-0.26-1.178 0.489-2.352 1.673-2.612 0.085-0.02 0.168 0.036 0.191 0.13 0.02 0.081-0.036 0.164-0.125 0.186-1.009 0.22-1.645 1.221-1.423 2.229 0.021 0.081-0.033 0.172-0.121 0.192-0.087 0.021-0.176-0.039-0.195-0.125z"/>
						<path d="m30.145 42.178c0.225 1.017 1.229 1.653 2.24 1.434 1.021-0.224 1.662-1.228 1.438-2.242-0.225-1.018-1.229-1.663-2.249-1.438-1.012 0.223-1.653 1.227-1.429 2.246zm0.44-0.094c-0.173-0.775 0.317-1.546 1.089-1.716 0.087-9e-3 0.175 0.04 0.192 0.125 0.02 0.094-0.036 0.181-0.121 0.19-0.602 0.136-0.979 0.728-0.848 1.326 0.019 0.092-0.035 0.175-0.12 0.195-0.09 0.017-0.175-0.03-0.192-0.12z"/>
					</g></g>
				
			
		
	
	
		
			
				
					<defs>
						<path id="SVGID_3_" d="m75.934 115.48s-5.608 2.932-9.342 3.643c-3.732 0.717-8.982 0.641-8.982 0.641l-5.225-0.191-10.15-1.02s-0.201-7.223-1.52-7.555c-1.322-0.326-16.321 0.619-17.152 0.695-0.828 0.071-11.26 0.563-12.892 10.262-1.628 9.707-15.938 36.58-6.416 42.205 9.521 5.621 7.688 12.494 42.249 1.172 34.555-11.314 49.969-19.221 52.818-22.412 2.853-3.201 5.919-8.576 1.736-13.086-4.177-4.511-25.124-14.354-25.124-14.354z"/>
					</defs>
					<clipPath id="SVGID_4_">
						<use overflow="visible" xlink:href="#SVGID_3_"/>
					</clipPath>
					<g clip-path="url(#SVGID_4_)">
						<g stroke-width="1.6125">
							<g fill="#fff" stroke-width="5.25">
								<path d="m26.458 152.74c-0.578-2.621 0.161-4.576 0.282-4.873l12.572-39.211-4.965-22.527c-2.263-1.471-3.194-2.563-3.023-3.516 0.058-0.348 0.316-0.948 1.389-1.186 0.081-0.022 0.157-0.029 0.222-0.043 0.255-0.108 0.563-0.205 0.919-0.287 0.59-0.125 1.153-0.184 1.331-0.192l15.111-3.335c0.161-0.063 0.696-0.251 1.281-0.379 0.362-0.08 0.687-0.123 0.958-0.135 0.063-0.013 0.135-0.035 0.219-0.054 1.072-0.233 1.563 0.213 1.756 0.491 0.559 0.793 0.172 2.178-1.262 4.463l4.975 22.525 27.912 30.277c0.234 0.215 1.727 1.676 2.307 4.301 0.617 2.815-1.522 5.442-5.104 6.229l-49.628 10.954c-3.579 0.793-6.628-0.683-7.252-3.502zm27.013-74.491c-0.022-0.013-0.17-0.04-0.438 0.021-0.086 0.019-0.158 0.043-0.199 0.052l-0.105 0.038-0.119-8e-3c-0.129 0-0.362 0.015-0.754 0.104-0.581 0.125-1.138 0.343-1.138 0.343l-15.302 3.384-0.099 0.01c-6e-3 4e-3 -0.597 0.041-1.184 0.17-0.381 0.084-0.604 0.172-0.722 0.228l-0.104 0.052-0.113 0.02c-0.048 8e-3 -0.118 0.014-0.206 0.035-0.271 0.061-0.389 0.146-0.393 0.137 0 0.012 0.019 0.664 2.668 2.354l0.228 0.148 5.156 23.387-12.688 39.57-0.024 0.063c-5e-3 0.018-0.745 1.729-0.217 4.104 0.544 2.476 3.345 3.043 5.71 2.524l49.627-10.956c2.367-0.517 4.668-2.205 4.119-4.689-0.521-2.358-1.914-3.625-1.928-3.637l-28.211-30.601-5.16-23.385 0.143-0.222c1.664-2.612 1.443-3.244 1.453-3.246z"/>
								<path d="m25.619 152.93c-0.628-2.846 0.165-4.983 0.307-5.319l12.501-38.992-4.846-21.957c-1.75-1.164-3.396-2.564-3.104-4.188 0.057-0.349 0.284-1.065 1.134-1.538l-0.055-0.822 0.488 0.623c0.144-0.049 0.301-0.094 0.476-0.138 0.063-0.019 0.118-0.026 0.176-0.036 0.269-0.113 0.591-0.211 0.977-0.291 0.524-0.117 1.04-0.183 1.326-0.194l14.988-3.298c0.184-0.065 0.769-0.278 1.406-0.416 0.382-0.088 0.727-0.137 1.025-0.149l0.146-0.041c1.223-0.274 2.113 0.074 2.646 0.836 0.287 0.405 0.406 0.871 0.398 1.366l0.346 0.177-0.354 0.083c-0.102 1.096-0.729 2.319-1.438 3.483l4.846 21.952 27.705 30.061c0.32 0.301 1.938 1.926 2.563 4.746 0.729 3.313-1.688 6.367-5.758 7.262l-49.625 10.951c-0.421 0.096-0.838 0.148-1.237 0.189-3.564 0.327-6.391-1.42-7.037-4.35zm59.13-16.521-28.347-30.723-0.151-0.168-5.287-23.959 0.334-0.522c0.504-0.791 0.82-1.373 1.013-1.786-0.074 7e-3 -0.166 0.021-0.27 0.045-0.5 0.109-0.971 0.287-1.141 0.348l-15.464 3.405-0.171 0.022c-0.186 0.015-0.567 0.05-0.948 0.134-0.103 0.021-0.185 0.039-0.261 0.065 0.351 0.297 0.876 0.689 1.671 1.199l0.526 0.34 5.285 23.955-12.814 39.93c-5e-3 0.017-0.623 1.521-0.171 3.584 0.472 2.142 3.063 2.072 3.85 1.998 0.282-0.022 0.566-0.069 0.845-0.131l49.623-10.947c1.967-0.438 3.891-1.771 3.465-3.672-0.44-2.002-1.593-3.113-1.587-3.117z"/>
							</g>
						</g><g fill="#75c5d3" stroke-width="5.25">
						<path d="m31.109 151.13c0.691 1.615 4.213 0.729 4.213 0.729s35.423-7.815 41.163-9.082c5.738-1.272 6.813-1.387 7.048-3.375 0.233-1.991-1.688-4.227-1.688-4.227l-17.072-17.977c-0.86-0.658-3.633 1.152-6.151 2.916 0.082 1.607-0.992 3.09-2.615 3.447-0.836 0.186-1.666 0.021-2.36-0.365-0.412 0.146-0.843 0.275-1.302 0.398 1.104 0.293 2.022 1.172 2.283 2.36 0.375 1.707-0.705 3.401-2.412 3.774-1.707 0.384-3.399-0.705-3.773-2.403-0.267-1.216 0.21-2.416 1.117-3.15-1.705 0.296-3.423 0.529-4.765 0.839-2.974 0.694-6.502-0.394-6.502-0.394s-4.774 13.889-6.255 17.938c-1.49 4.063-2.165 5.684-0.929 8.572zm25.2-21.599c-0.242-1.105 0.457-2.197 1.555-2.439 1.104-0.248 2.197 0.455 2.441 1.553 0.238 1.101-0.459 2.195-1.561 2.439-1.096 0.244-2.193-0.456-2.435-1.553z"/>
						<path d="m24.828 62.416c0.525 2.384 2.886 3.892 5.27 3.37 2.383-0.536 3.89-2.888 3.364-5.272-0.528-2.388-2.886-3.896-5.271-3.369-2.388 0.523-3.894 2.883-3.363 5.271zm1.241-0.274c-0.374-1.696 0.7-3.378 2.395-3.748 0.09-0.025 0.177 0.029 0.195 0.119 0.013 0.083-0.036 0.166-0.124 0.193-1.521 0.333-2.484 1.844-2.148 3.369 0.02 0.085-0.04 0.175-0.123 0.193-0.094 0.013-0.178-0.038-0.195-0.126z"/>
						<path d="m33.538 67.188c0.381 1.721 2.084 2.805 3.802 2.422 1.719-0.375 2.803-2.079 2.427-3.797-0.379-1.714-2.079-2.801-3.795-2.427-1.723 0.38-2.808 2.083-2.434 3.802zm0.855-0.186c-0.274-1.244 0.516-2.484 1.762-2.765 0.087-0.016 0.175 0.045 0.191 0.123 0.022 0.09-0.035 0.184-0.123 0.197-1.07 0.235-1.75 1.302-1.512 2.373 0.016 0.092-0.041 0.175-0.128 0.193-0.086 0.02-0.169-0.038-0.19-0.121z"/>
						<path d="m29.965 73.499c0.354 1.626 1.963 2.649 3.578 2.294 1.625-0.359 2.65-1.969 2.292-3.589-0.358-1.629-1.962-2.644-3.585-2.288-1.619 0.357-2.645 1.963-2.285 3.583zm0.794-0.173c-0.261-1.186 0.488-2.355 1.669-2.615 0.087-0.013 0.17 0.041 0.19 0.123 0.02 0.09-0.036 0.175-0.124 0.2-1.001 0.213-1.646 1.216-1.422 2.218 0.018 0.09-0.034 0.18-0.121 0.197-0.088 0.02-0.173-0.045-0.192-0.123z"/>
						<path d="m37.835 75.693c0.226 1.019 1.231 1.66 2.244 1.438 1.02-0.222 1.658-1.229 1.434-2.238-0.224-1.021-1.228-1.666-2.244-1.439-1.014 0.221-1.656 1.23-1.434 2.239zm0.438-0.082c-0.17-0.781 0.318-1.543 1.092-1.721 0.088-0.02 0.173 0.041 0.189 0.121 0.022 0.096-0.031 0.182-0.12 0.195-0.599 0.134-0.978 0.727-0.845 1.324 0.021 0.094-0.034 0.177-0.121 0.193-0.088 0.02-0.174-0.034-0.195-0.112z"/>
					</g></g>
				</g>
			</g>
		</g>
	
</g>
</svg>
