<svg version="1.1" xmlns="http://www.w3.org/2000/svg" viewBox="0 0 557.9734109736039 359.66601260578506" width="557.9734109736039" height="359.66601260578506">
  <!-- svg-source:excalidraw -->
  
  <defs>
    <style class="style-fonts">
      @font-face {
        font-family: "Virgil";
        src: url("https://excalidraw.com/Virgil.woff2");
      }
      @font-face {
        font-family: "Cascadia";
        src: url("https://excalidraw.com/Cascadia.woff2");
      }
    </style>
    <clipPath id="6UKdLqWWion_fUex05SLN">
            <rect transform="translate(0 0) rotate(0 278.98670548680195 179.83300630289253)" width="557.9734109736039" height="359.666012605785">
          </rect>
        </clipPath>
  </defs>
  <g clip-path="url(#6UKdLqWWion_fUex05SLN)"><g stroke-linecap="round" transform="translate(479.06521559502585 17.88799689630929) rotate(340.1848910826517 24.20066218743648 17.18318690662383)"><path d="M8.59 0 M8.59 0 C20.96 1.74, 31.51 1.9, 39.81 0 M8.59 0 C15.25 -0.92, 22.1 0.06, 39.81 0 M39.81 0 C45.18 0.29, 50.19 2.24, 48.4 8.59 M39.81 0 C46.7 -1.82, 49.84 3.31, 48.4 8.59 M48.4 8.59 C46.9 12.59, 47.05 18.18, 48.4 25.77 M48.4 8.59 C48.52 11.74, 48.02 16.14, 48.4 25.77 M48.4 25.77 C49.68 31.78, 45.58 33.32, 39.81 34.37 M48.4 25.77 C47.39 31.16, 45.35 33.41, 39.81 34.37 M39.81 34.37 C32.11 33.32, 21.98 32.15, 8.59 34.37 M39.81 34.37 C29.62 33.56, 20.6 35.11, 8.59 34.37 M8.59 34.37 C1.97 34.97, 1.43 33.35, 0 25.77 M8.59 34.37 C1.53 35.22, 0.6 31.74, 0 25.77 M0 25.77 C0.43 20.44, 0.54 15.4, 0 8.59 M0 25.77 C-0.01 21.22, -0.89 14.89, 0 8.59 M0 8.59 C-1.17 3.11, 1.61 0.25, 8.59 0 M0 8.59 C1.03 1.91, 1.4 0.86, 8.59 0" stroke="#4dabf7" stroke-width="1" fill="none"></path></g></g><g clip-path="url(#6UKdLqWWion_fUex05SLN)"><g stroke-linecap="round"><g transform="translate(480.71779679641236 41.25592189380515) rotate(340.1848910826517 -11.678071786692783 5.552926087280937)"><path d="M1.02 1.18 C-2.18 -1.66, -15.4 -20, -19.39 -15.9 C-23.38 -11.8, -26.23 21.43, -22.93 25.77 C-19.63 30.1, -3.45 12.53, 0.42 10.12 M0.09 0.76 C-3.15 -1.45, -16.3 -19.21, -19.75 -14.85 C-23.21 -10.48, -23.99 22.72, -20.62 26.96 C-17.25 31.2, -3.33 13.14, 0.47 10.6" stroke="#4dabf7" stroke-width="1" fill="none"></path></g></g><mask></mask></g><g clip-path="url(#6UKdLqWWion_fUex05SLN)"><g stroke-linecap="round" transform="translate(137.62738525952977 79.8614844930683) rotate(0 32.099004796206486 31.619915172382463)"><path d="M16.71 2.93 C21.89 -0.07, 30.91 -0.99, 37.31 0.24 C43.7 1.47, 50.71 5.77, 55.08 10.29 C59.45 14.81, 62.73 21.29, 63.52 27.37 C64.31 33.45, 62.63 41.44, 59.82 46.77 C57.02 52.1, 52.09 56.59, 46.69 59.33 C41.29 62.06, 33.81 64.11, 27.42 63.17 C21.03 62.24, 12.99 58.07, 8.34 53.72 C3.69 49.37, 0.46 43.24, -0.47 37.06 C-1.41 30.88, -0.6 22.34, 2.72 16.62 C6.04 10.9, 16.38 5.18, 19.44 2.75 C22.49 0.32, 20.79 1.49, 21.06 2.04 M33.67 -0.15 C39.64 -0.13, 47.77 2.69, 52.61 6.78 C57.45 10.86, 61.4 18.19, 62.72 24.38 C64.05 30.56, 62.95 38.39, 60.58 43.9 C58.22 49.42, 53.89 54.26, 48.52 57.49 C43.16 60.71, 34.79 63.45, 28.4 63.26 C22 63.07, 14.89 60.58, 10.16 56.36 C5.43 52.13, 1.34 43.84, 0.02 37.91 C-1.31 31.97, -0.19 26.17, 2.21 20.73 C4.61 15.29, 8.89 8.47, 14.42 5.26 C19.95 2.05, 32.24 2.13, 35.41 1.46 C38.57 0.79, 33.57 0.94, 33.42 1.26" stroke="#1e1e1e" stroke-width="1" fill="none"></path></g></g><g clip-path="url(#6UKdLqWWion_fUex05SLN)"><g stroke-linecap="round"><g transform="translate(167.33094193661645 141.1849563425372) rotate(0 -0.5084413705766337 56.64735575484835)"><path d="M-1.12 -0.25 C-1.36 18.87, -0.47 94.59, -0.37 113.8 M0.5 -1.42 C-0.04 17.88, -1.17 95.1, -1.52 114.72" stroke="#1e1e1e" stroke-width="1" fill="none"></path></g></g><mask></mask></g><g clip-path="url(#6UKdLqWWion_fUex05SLN)"><g stroke-linecap="round"><g transform="translate(168.41923930779922 254.35066072805108) rotate(0 -19.22546513788842 39.35248583373999)"><path d="M-0.37 -1.18 C-5.15 5.44, -23.29 26.23, -29.76 39.51 C-36.23 52.78, -37.85 72.07, -39.21 78.48 M1.63 0.81 C-3.25 7.66, -24.03 27.86, -30.98 41.04 C-37.93 54.22, -38.45 73.59, -40.08 79.89" stroke="#1e1e1e" stroke-width="1" fill="none"></path></g></g><mask></mask></g><g clip-path="url(#6UKdLqWWion_fUex05SLN)"><g stroke-linecap="round"><g transform="translate(166.13031386432158 255.42125142036883) rotate(0 17.116818983413737 38.88091611421618)"><path d="M-0.52 0 C3.93 6.43, 20.46 24.48, 26.33 37.42 C32.21 50.37, 33.43 71.08, 34.76 77.69 M1.41 -1.05 C5.71 5.71, 19.75 25.74, 25.27 39.05 C30.8 52.36, 32.96 72.37, 34.55 78.81" stroke="#1e1e1e" stroke-width="1" fill="none"></path></g></g><mask></mask></g><g clip-path="url(#6UKdLqWWion_fUex05SLN)"><g stroke-linecap="round"><g transform="translate(167.71544790997223 191.6196060829273) rotate(0 29.723806666500195 -29.117376665109532)"><path d="M-0.22 0.17 C7.05 -4.58, 32.84 -18.75, 43.08 -28.51 C53.32 -38.28, 58.19 -53.62, 61.24 -58.41 M-1.79 -0.78 C5.46 -5.36, 32.26 -17.7, 42.69 -27.17 C53.12 -36.64, 57.57 -52.78, 60.79 -57.59" stroke="#1e1e1e" stroke-width="1" fill="none"></path></g></g><mask></mask></g><g clip-path="url(#6UKdLqWWion_fUex05SLN)"><g stroke-linecap="round"><g transform="translate(166.92288088714645 189.63818852586388) rotate(0 -30.977435803776586 -21.670042123564514)"><path d="M1.07 -0.38 C-4.74 -3.2, -24.44 -9.7, -35.06 -16.8 C-45.68 -23.9, -57.82 -38.67, -62.65 -42.96 M0.17 -1.62 C-5.72 -4.34, -25.16 -9.11, -35.69 -15.76 C-46.22 -22.41, -58.28 -36.69, -63.03 -41.53" stroke="#1e1e1e" stroke-width="1" fill="none"></path></g></g><mask></mask></g><g clip-path="url(#6UKdLqWWion_fUex05SLN)"><g stroke-linecap="round" transform="translate(128.68152203582304 169.22958768811105) rotate(0 3.368409847007797 3.7646933584204305)"><path d="M2.66 -0.58 C3.27 -0.54, 5.08 -0.35, 5.77 0.37 C6.47 1.09, 6.83 2.93, 6.83 3.73 C6.84 4.53, 6.14 4.72, 5.79 5.16 C5.44 5.61, 5.31 5.96, 4.74 6.39 C4.17 6.83, 2.99 7.91, 2.37 7.76 C1.76 7.62, 1.3 6.19, 1.06 5.52 C0.82 4.86, 0.93 4.52, 0.91 3.78 C0.89 3.04, 0.46 1.73, 0.93 1.08 C1.4 0.42, 3.15 0.04, 3.73 -0.15 C4.31 -0.35, 4.49 -0.1, 4.43 -0.1 M2.49 0.57 C3.31 0.28, 6.2 -0.99, 6.77 -0.35 C7.34 0.29, 5.95 3.39, 5.9 4.43 C5.85 5.47, 6.88 5.51, 6.49 5.88 C6.09 6.24, 4.15 6.38, 3.54 6.62 C2.92 6.86, 3.5 7.37, 2.8 7.31 C2.1 7.26, -0.11 6.95, -0.67 6.28 C-1.23 5.61, -1.05 4.09, -0.55 3.28 C-0.05 2.47, 1.5 1.74, 2.31 1.44 C3.11 1.14, 4.15 1.78, 4.27 1.48 C4.38 1.18, 3.06 0.07, 3 -0.35" stroke="none" stroke-width="0" fill="#e03131"></path><path d="M4.94 0.54 C5.42 0.8, 5.14 0.9, 5.3 1.64 C5.45 2.38, 5.96 4.23, 5.87 4.97 C5.78 5.71, 5.17 5.62, 4.76 6.09 C4.35 6.55, 4.06 7.71, 3.38 7.76 C2.7 7.81, 1.21 6.81, 0.7 6.39 C0.19 5.96, 0.35 5.92, 0.32 5.19 C0.29 4.47, 0.32 2.92, 0.53 2.02 C0.74 1.13, 0.93 0.14, 1.58 -0.17 C2.23 -0.47, 3.99 0.14, 4.45 0.18 C4.92 0.22, 4.3 0.15, 4.35 0.08 M2.4 0.14 C2.96 0.44, 4.01 1.42, 4.58 1.78 C5.14 2.14, 5.58 1.42, 5.8 2.3 C6.02 3.18, 6.29 6.13, 5.88 7.06 C5.48 8, 3.88 7.68, 3.37 7.91 C2.87 8.14, 3.5 8.83, 2.83 8.46 C2.17 8.09, -0.26 6.66, -0.64 5.7 C-1.01 4.75, 0.1 3.42, 0.56 2.73 C1.02 2.04, 1.5 1.95, 2.13 1.58 C2.76 1.22, 3.99 0.67, 4.34 0.52 C4.68 0.37, 4.14 0.72, 4.22 0.69" stroke="#e03131" stroke-width="1" fill="none"></path></g></g><g clip-path="url(#6UKdLqWWion_fUex05SLN)"><g stroke-linecap="round" transform="translate(99.75282570269724 141.0934583778108) rotate(0 3.368409847007797 3.7646933584204305)"><path d="M1.98 -0.23 C2.74 -0.44, 3.66 0.36, 4.27 0.55 C4.89 0.74, 5.19 0.47, 5.66 0.89 C6.13 1.3, 7.03 2.02, 7.1 3.02 C7.18 4.02, 6.56 6.13, 6.12 6.88 C5.68 7.63, 5.07 7.39, 4.44 7.54 C3.81 7.68, 3.13 8.15, 2.34 7.75 C1.56 7.35, 0.1 6.09, -0.26 5.15 C-0.61 4.2, -0.31 2.97, 0.22 2.09 C0.75 1.21, 2.48 0.29, 2.92 -0.13 C3.36 -0.55, 2.92 -0.6, 2.88 -0.45 M4.88 -1.3 C5.59 -1.16, 4.64 1.52, 5 2.35 C5.35 3.17, 6.96 3.14, 7 3.63 C7.03 4.12, 5.57 4.62, 5.22 5.26 C4.86 5.91, 5.6 7.04, 4.87 7.48 C4.13 7.92, 1.68 8.21, 0.82 7.89 C-0.05 7.58, -0.39 6.34, -0.34 5.59 C-0.29 4.83, 0.71 3.94, 1.14 3.36 C1.58 2.78, 1.92 2.74, 2.27 2.11 C2.62 1.48, 2.93 0.17, 3.24 -0.41 C3.55 -0.98, 4.06 -1.35, 4.11 -1.34" stroke="none" stroke-width="0" fill="#e03131"></path><path d="M1.53 0.02 C1.95 -0.18, 3.24 0.74, 3.91 1.01 C4.58 1.29, 5.1 1, 5.54 1.65 C5.97 2.31, 6.66 4.12, 6.52 4.92 C6.39 5.72, 5.27 5.93, 4.74 6.47 C4.21 7.01, 3.96 8.16, 3.36 8.16 C2.77 8.16, 1.8 7.23, 1.16 6.48 C0.51 5.74, -0.38 4.52, -0.5 3.7 C-0.63 2.88, -0.1 2.24, 0.43 1.57 C0.97 0.9, 2.09 0.05, 2.7 -0.34 C3.3 -0.72, 3.92 -0.8, 4.04 -0.75 M1.01 0.7 C1.74 0.18, 2.82 -1.47, 3.69 -1.09 C4.55 -0.72, 5.83 1.93, 6.21 2.95 C6.6 3.96, 5.94 4.14, 5.99 5 C6.04 5.86, 7.12 7.6, 6.52 8.11 C5.92 8.62, 3.22 8.31, 2.39 8.08 C1.55 7.85, 1.81 7.18, 1.51 6.72 C1.2 6.26, 0.65 6.07, 0.56 5.32 C0.47 4.58, 0.63 3.02, 0.98 2.26 C1.34 1.5, 2.3 1.11, 2.69 0.76 C3.08 0.42, 3.25 0.39, 3.34 0.18" stroke="#e03131" stroke-width="1" fill="none"></path></g></g><g clip-path="url(#6UKdLqWWion_fUex05SLN)"><g stroke-linecap="round" transform="translate(163.55447104013865 187.06234570168164) rotate(0 3.368409847007797 3.7646933584204305)"><path d="M2.52 0.61 C3.07 0.34, 3.58 -0.41, 4.28 -0.33 C4.98 -0.25, 6.3 0.19, 6.75 1.1 C7.19 2.02, 7.07 4.2, 6.95 5.15 C6.84 6.1, 6.56 6.27, 6.07 6.81 C5.58 7.35, 4.91 8.36, 4.01 8.37 C3.11 8.37, 1.34 7.54, 0.66 6.82 C-0.01 6.09, -0.08 4.92, -0.04 4.03 C0.01 3.13, 0.57 2.2, 0.94 1.45 C1.32 0.71, 1.88 -0.24, 2.19 -0.41 C2.49 -0.59, 2.65 0.38, 2.76 0.42 M3.2 1.25 C3.73 1.59, 5.8 1.19, 6.25 1.5 C6.69 1.81, 5.81 2.3, 5.87 3.1 C5.93 3.89, 7.12 5.43, 6.61 6.29 C6.11 7.15, 3.77 8.07, 2.84 8.24 C1.91 8.4, 1.29 7.73, 1.01 7.3 C0.74 6.87, 1.2 6.21, 1.19 5.64 C1.19 5.08, 0.99 4.83, 0.99 3.9 C1 2.97, 0.67 0.92, 1.24 0.05 C1.8 -0.83, 3.95 -1.26, 4.39 -1.37 C4.83 -1.48, 3.74 -0.98, 3.87 -0.61" stroke="none" stroke-width="0" fill="#e03131"></path><path d="M3.12 0.74 C3.81 0.77, 4.5 0.33, 5.09 0.88 C5.67 1.42, 6.59 3.18, 6.63 4.01 C6.67 4.83, 5.75 5.16, 5.34 5.84 C4.94 6.53, 4.78 7.91, 4.19 8.11 C3.6 8.31, 2.57 7.63, 1.82 7.04 C1.06 6.46, -0.03 5.38, -0.32 4.6 C-0.61 3.83, -0.21 3.13, 0.06 2.39 C0.32 1.65, 0.5 0.66, 1.28 0.15 C2.05 -0.35, 4.07 -0.64, 4.72 -0.65 C5.38 -0.66, 5.35 0.06, 5.18 0.1 M2.54 -1.36 C3.42 -1.31, 4.91 1.07, 5.49 1.92 C6.07 2.76, 5.73 2.82, 6.03 3.69 C6.33 4.55, 7.71 6.43, 7.3 7.13 C6.89 7.83, 4.35 7.85, 3.55 7.9 C2.75 7.94, 2.94 7.63, 2.5 7.41 C2.07 7.19, 1.25 7.23, 0.93 6.57 C0.6 5.91, 0.43 4.34, 0.55 3.47 C0.67 2.61, 1 1.97, 1.65 1.38 C2.31 0.79, 4.04 0.31, 4.47 -0.07 C4.9 -0.46, 4.38 -1.15, 4.24 -0.92" stroke="#e03131" stroke-width="1" fill="none"></path></g></g><g clip-path="url(#6UKdLqWWion_fUex05SLN)"><g stroke-linecap="round" transform="translate(152.85481623199644 97.89855563382872) rotate(0 3.368409847007797 3.7646933584204305)"><path d="M1.91 -0.45 C2.59 -0.97, 4.21 -1.19, 5 -0.69 C5.79 -0.2, 6.26 1.64, 6.65 2.52 C7.04 3.4, 7.41 3.74, 7.35 4.58 C7.29 5.42, 7.02 7.03, 6.27 7.57 C5.52 8.12, 3.72 8.03, 2.85 7.84 C1.98 7.64, 1.46 7.01, 1.06 6.38 C0.65 5.75, 0.58 4.9, 0.43 4.04 C0.28 3.18, -0.23 1.86, 0.16 1.24 C0.56 0.62, 2.26 0.64, 2.78 0.34 C3.31 0.03, 3.26 -0.72, 3.33 -0.58 M2.2 0.47 C2.79 -0.22, 2.59 -0.8, 3.36 -0.6 C4.13 -0.41, 6.43 0.75, 6.82 1.65 C7.2 2.56, 5.94 3.99, 5.66 4.83 C5.38 5.67, 5.3 6.17, 5.13 6.72 C4.97 7.27, 5.17 7.89, 4.68 8.16 C4.2 8.43, 3.06 8.97, 2.22 8.33 C1.38 7.7, -0.12 5.59, -0.37 4.32 C-0.63 3.06, 0.33 1.54, 0.69 0.75 C1.06 -0.04, 1.4 -0.4, 1.81 -0.39 C2.23 -0.38, 3.25 0.47, 3.19 0.82" stroke="none" stroke-width="0" fill="#e03131"></path><path d="M2.3 -0.47 C3.1 -0.64, 4.64 0.47, 5.26 0.97 C5.89 1.47, 5.82 1.69, 6.04 2.54 C6.27 3.39, 6.83 5.3, 6.63 6.08 C6.43 6.87, 5.64 7.1, 4.85 7.24 C4.06 7.38, 2.63 7.18, 1.89 6.93 C1.15 6.69, 0.79 6.42, 0.41 5.76 C0.03 5.11, -0.54 3.92, -0.39 2.99 C-0.24 2.06, 0.65 0.75, 1.32 0.18 C1.99 -0.38, 3.35 -0.21, 3.6 -0.39 C3.86 -0.57, 2.86 -0.88, 2.83 -0.9 M3.82 1.01 C4.55 1.4, 4.61 1.11, 5.27 1.79 C5.94 2.48, 7.84 4.31, 7.81 5.14 C7.77 5.96, 5.66 6.32, 5.08 6.73 C4.51 7.15, 4.83 7.4, 4.35 7.62 C3.87 7.85, 2.83 8.4, 2.22 8.06 C1.61 7.71, 0.96 6.37, 0.68 5.54 C0.41 4.71, 0.24 3.91, 0.57 3.06 C0.9 2.21, 1.98 1.1, 2.67 0.44 C3.36 -0.23, 4.48 -1.05, 4.71 -0.95 C4.94 -0.85, 4.44 1.02, 4.07 1.03" stroke="#e03131" stroke-width="1" fill="none"></path></g></g><g clip-path="url(#6UKdLqWWion_fUex05SLN)"><g stroke-linecap="round" transform="translate(177.8206774509954 97.89855563382872) rotate(0 3.368409847007797 3.7646933584204305)"><path d="M4.49 -0.87 C5.29 -0.55, 5.87 1.21, 6.36 2.02 C6.85 2.82, 7.37 3.12, 7.42 3.98 C7.47 4.84, 7.34 6.53, 6.67 7.16 C6 7.8, 4.26 7.88, 3.39 7.81 C2.53 7.74, 1.96 7.28, 1.48 6.75 C1.01 6.22, 0.81 5.46, 0.55 4.63 C0.28 3.8, -0.31 2.43, -0.08 1.77 C0.14 1.12, 1.1 1.05, 1.9 0.68 C2.7 0.31, 4.16 -0.54, 4.71 -0.45 C5.26 -0.36, 5.4 1.13, 5.2 1.21 M3.8 -0.44 C4.52 -0.2, 6.76 1.13, 7.06 2.1 C7.35 3.06, 5.97 4.51, 5.59 5.34 C5.22 6.17, 5.02 6.59, 4.79 7.06 C4.56 7.53, 4.71 8.01, 4.22 8.17 C3.73 8.33, 2.64 8.74, 1.86 8.01 C1.08 7.29, -0.31 5.1, -0.47 3.82 C-0.62 2.53, 0.46 1.03, 0.92 0.3 C1.37 -0.44, 1.42 -0.64, 2.25 -0.58 C3.08 -0.51, 5.6 0.36, 5.89 0.68 C6.18 1.01, 4.16 1.18, 3.99 1.37" stroke="none" stroke-width="0" fill="#e03131"></path><path d="M4.39 0.45 C5.09 0.68, 5.25 0.75, 5.67 1.51 C6.1 2.27, 6.93 4.17, 6.93 5.03 C6.94 5.89, 6.37 6.31, 5.69 6.65 C5.02 6.99, 3.64 7.1, 2.87 7.09 C2.1 7.08, 1.61 7.09, 1.07 6.59 C0.54 6.09, -0.3 5.02, -0.36 4.1 C-0.42 3.18, 0.24 1.77, 0.71 1.06 C1.18 0.35, 1.93 0.14, 2.49 -0.15 C3.04 -0.44, 3.63 -0.64, 4.02 -0.69 C4.42 -0.74, 4.71 -0.56, 4.85 -0.44 M1.22 0.84 C2.01 0.53, 4.58 1.28, 5.25 1.49 C5.92 1.7, 4.91 1.66, 5.22 2.1 C5.53 2.55, 6.93 3.29, 7.12 4.18 C7.3 5.06, 6.81 6.77, 6.32 7.4 C5.83 8.04, 4.94 7.98, 4.2 7.99 C3.46 8, 2.37 8.01, 1.86 7.46 C1.34 6.92, 1.26 5.77, 1.13 4.73 C0.99 3.69, 0.9 1.81, 1.05 1.24 C1.21 0.66, 2.12 1.63, 2.03 1.29 C1.94 0.94, 0.67 -0.79, 0.53 -0.85" stroke="#e03131" stroke-width="1" fill="none"></path></g></g><g clip-path="url(#6UKdLqWWion_fUex05SLN)"><g stroke-linecap="round" transform="translate(165.13960508578907 110.57962799903447) rotate(0 3.368409847007797 3.7646933584204305)"><path d="M2.62 0.71 C3.31 0.6, 4.55 -0.05, 5.31 0.3 C6.06 0.65, 7.01 2.07, 7.17 2.83 C7.33 3.58, 6.56 4.22, 6.27 4.84 C5.97 5.46, 5.83 6.13, 5.39 6.54 C4.96 6.95, 4.43 7.36, 3.66 7.28 C2.89 7.2, 1.37 6.49, 0.78 6.04 C0.18 5.59, 0.12 5.39, 0.11 4.56 C0.1 3.74, 0.23 1.74, 0.72 1.12 C1.21 0.49, 2.81 1.1, 3.05 0.84 C3.29 0.58, 2.08 -0.41, 2.16 -0.44 M4.19 0.06 C4.85 0.29, 4.25 1.15, 4.57 1.73 C4.88 2.31, 5.64 2.77, 6.08 3.56 C6.52 4.34, 7.38 5.54, 7.23 6.41 C7.08 7.29, 6.11 8.76, 5.17 8.82 C4.24 8.89, 2.34 7.61, 1.6 6.82 C0.87 6.03, 1.05 4.85, 0.78 4.08 C0.5 3.32, -0.33 2.7, -0.04 2.22 C0.25 1.74, 2.05 1.39, 2.53 1.19 C3.01 0.99, 2.63 1, 2.85 1.01 C3.06 1.02, 3.66 1.14, 3.84 1.24" stroke="none" stroke-width="0" fill="#e03131"></path><path d="M1.98 -0.24 C2.7 -0.4, 4.34 0.61, 5.11 1.03 C5.88 1.46, 6.44 1.72, 6.6 2.28 C6.76 2.84, 6.33 3.63, 6.08 4.39 C5.82 5.15, 5.66 6.36, 5.08 6.82 C4.5 7.28, 3.22 7.38, 2.58 7.16 C1.93 6.94, 1.58 6.1, 1.2 5.51 C0.82 4.91, 0.5 4.43, 0.3 3.61 C0.11 2.78, -0.39 1.29, 0.03 0.55 C0.45 -0.19, 2.28 -0.63, 2.82 -0.81 C3.36 -0.99, 3.44 -0.71, 3.29 -0.52 M5.49 1.57 C6.12 1.78, 5.1 1.86, 5.36 2.34 C5.63 2.82, 6.96 3.58, 7.09 4.46 C7.22 5.34, 6.66 7.01, 6.14 7.6 C5.61 8.19, 4.69 8.06, 3.95 8.01 C3.2 7.96, 2.13 7.89, 1.65 7.3 C1.17 6.7, 1.15 5.51, 1.07 4.46 C0.99 3.4, 0.97 1.53, 1.17 0.98 C1.37 0.43, 1.95 1.52, 2.26 1.17 C2.57 0.82, 2.82 -0.99, 3.03 -1.11 C3.24 -1.23, 3.47 0.14, 3.52 0.44" stroke="#e03131" stroke-width="1" fill="none"></path></g></g><g clip-path="url(#6UKdLqWWion_fUex05SLN)"><g stroke-linecap="round" transform="translate(204.37167271564476 162.49276799409546) rotate(0 3.368409847007797 3.7646933584204305)"><path d="M2.49 0.46 C3.17 0.12, 4.39 0.71, 4.92 0.93 C5.44 1.15, 5.34 1.31, 5.64 1.77 C5.93 2.24, 6.57 3.02, 6.67 3.74 C6.78 4.45, 6.79 5.51, 6.25 6.05 C5.72 6.59, 4.24 6.77, 3.47 6.96 C2.7 7.16, 2.16 7.66, 1.64 7.21 C1.12 6.75, 0.54 4.93, 0.38 4.24 C0.21 3.55, 0.47 3.85, 0.63 3.09 C0.79 2.34, 0.86 0.15, 1.33 -0.31 C1.8 -0.77, 3.27 0.29, 3.45 0.34 M1.5 0.86 C1.93 0.67, 3.23 0.35, 4.23 0.69 C5.22 1.03, 6.93 1.95, 7.45 2.89 C7.98 3.82, 7.83 5.69, 7.38 6.29 C6.93 6.88, 5.42 6.5, 4.75 6.46 C4.09 6.42, 4.05 6.21, 3.39 6.07 C2.74 5.93, 1.18 5.9, 0.82 5.62 C0.46 5.35, 1.37 4.93, 1.24 4.41 C1.1 3.9, -0.28 3.08, 0 2.56 C0.28 2.03, 2.41 1.46, 2.9 1.28 C3.4 1.09, 3.14 1.61, 2.98 1.46" stroke="none" stroke-width="0" fill="#e03131"></path><path d="M4 0.67 C4.81 0.77, 5.59 0.8, 5.96 1.2 C6.33 1.61, 6.22 2.32, 6.21 3.1 C6.2 3.89, 6.33 5.27, 5.92 5.93 C5.51 6.6, 4.36 7.02, 3.73 7.08 C3.1 7.14, 2.65 6.65, 2.13 6.28 C1.6 5.91, 1.01 5.63, 0.57 4.87 C0.13 4.1, -0.66 2.56, -0.49 1.71 C-0.32 0.85, 0.76 0.12, 1.58 -0.25 C2.41 -0.63, 4.13 -0.61, 4.46 -0.53 C4.78 -0.46, 3.49 0.1, 3.52 0.19 M3.01 0.6 C3.58 0.46, 5.58 0.75, 6.29 1.43 C7 2.12, 7.23 3.85, 7.26 4.71 C7.29 5.57, 6.95 6.05, 6.47 6.6 C5.99 7.15, 5.02 7.97, 4.4 8.03 C3.77 8.1, 3.31 7.64, 2.75 6.99 C2.18 6.34, 1.4 4.72, 0.99 4.13 C0.59 3.54, 0.45 4.28, 0.32 3.46 C0.19 2.65, -0.22 -0.21, 0.23 -0.75 C0.67 -1.29, 2.55 0.05, 3 0.23 C3.45 0.4, 2.68 0.38, 2.93 0.3" stroke="#e03131" stroke-width="1" fill="none"></path></g></g><g clip-path="url(#6UKdLqWWion_fUex05SLN)"><g stroke-linecap="round" transform="translate(223.789564774866 129.20495303543026) rotate(0 3.368409847007797 3.7646933584204305)"><path d="M5.07 0.97 C5.57 1.17, 5.47 1.43, 5.73 1.92 C6 2.41, 6.6 3.2, 6.66 3.91 C6.73 4.62, 6.7 5.67, 6.14 6.18 C5.58 6.69, 4.08 6.83, 3.31 6.98 C2.54 7.14, 2 7.59, 1.51 7.11 C1.01 6.62, 0.47 4.77, 0.33 4.07 C0.2 3.37, 0.57 3.64, 0.7 2.93 C0.82 2.22, 0.29 0.23, 1.07 -0.19 C1.85 -0.6, 4.72 0.42, 5.37 0.43 C6.02 0.45, 5.18 -0.2, 4.95 -0.1 M2.81 0.31 C3.84 0.25, 5.82 0.85, 6.59 1.58 C7.37 2.3, 7.61 4.05, 7.47 4.66 C7.33 5.28, 6.2 5.08, 5.76 5.28 C5.32 5.49, 5.46 5.68, 4.84 5.89 C4.22 6.1, 2.57 6.51, 2.04 6.53 C1.5 6.54, 2.08 6.39, 1.65 5.98 C1.21 5.56, -0.58 4.71, -0.58 4.05 C-0.59 3.38, 0.86 2.46, 1.6 2 C2.34 1.54, 3.65 1.61, 3.84 1.28 C4.03 0.94, 2.75 0.29, 2.73 -0.01" stroke="none" stroke-width="0" fill="#e03131"></path><path d="M2.93 0.08 C3.47 -0.28, 3.96 -0.32, 4.53 0.06 C5.11 0.45, 6.12 1.63, 6.39 2.4 C6.65 3.17, 6.3 4.08, 6.12 4.71 C5.94 5.34, 5.83 5.78, 5.32 6.18 C4.81 6.57, 3.94 7.24, 3.08 7.08 C2.21 6.92, 0.66 5.9, 0.15 5.21 C-0.35 4.51, -0.1 3.64, 0.06 2.89 C0.23 2.14, 0.79 1.21, 1.13 0.72 C1.48 0.23, 1.68 0.11, 2.15 -0.07 C2.62 -0.25, 3.76 -0.57, 3.97 -0.37 M5.25 0.55 C6.12 0.92, 6.68 2.49, 6.98 3.29 C7.29 4.08, 7.31 4.61, 7.07 5.31 C6.84 6.01, 6.11 7.12, 5.6 7.48 C5.09 7.83, 4.64 7.78, 3.99 7.43 C3.34 7.08, 2.33 5.78, 1.69 5.36 C1.05 4.94, 0.55 5.76, 0.15 4.9 C-0.26 4.05, -0.99 1, -0.73 0.23 C-0.48 -0.54, 0.92 0.23, 1.7 0.29 C2.47 0.35, 3.29 0.65, 3.92 0.58 C4.56 0.5, 5.53 -0.28, 5.51 -0.16" stroke="#e03131" stroke-width="1" fill="none"></path></g></g><g clip-path="url(#6UKdLqWWion_fUex05SLN)"><g stroke-linecap="round" transform="translate(164.34703806296397 250.07142401629773) rotate(0 3.368409847007797 3.7646933584204305)"><path d="M3.02 0.31 C3.56 0.1, 4.84 0.3, 5.52 0.74 C6.19 1.17, 7.02 2.18, 7.09 2.92 C7.16 3.66, 6.34 4.39, 5.91 5.17 C5.49 5.94, 5.13 7.34, 4.54 7.59 C3.96 7.83, 3.01 6.82, 2.38 6.62 C1.76 6.41, 1.34 7.04, 0.8 6.36 C0.27 5.67, -1.03 3.4, -0.82 2.52 C-0.62 1.63, 1.17 1.51, 2.03 1.02 C2.9 0.53, 3.93 -0.44, 4.35 -0.44 C4.77 -0.43, 4.58 1.01, 4.56 1.05 M5.21 0.76 C6.12 1.1, 6.71 2.57, 6.88 3.05 C7.05 3.53, 6.35 3.3, 6.23 3.62 C6.11 3.94, 6.6 4.44, 6.16 4.96 C5.72 5.48, 4.16 6.38, 3.58 6.76 C3 7.15, 3.38 7.43, 2.69 7.27 C2.01 7.1, -0.18 6.44, -0.52 5.79 C-0.87 5.14, 0.17 4.07, 0.64 3.38 C1.12 2.69, 1.84 2.21, 2.32 1.65 C2.79 1.09, 3.14 0.43, 3.5 0.03 C3.86 -0.36, 4.44 -0.64, 4.49 -0.73" stroke="none" stroke-width="0" fill="#e03131"></path><path d="M3.91 -0.25 C4.52 -0.07, 5.69 1.01, 6.09 1.71 C6.48 2.41, 6.32 3.3, 6.29 3.97 C6.25 4.63, 6.3 5.2, 5.88 5.73 C5.46 6.26, 4.63 7.14, 3.76 7.14 C2.89 7.14, 1.25 6.32, 0.65 5.74 C0.04 5.16, 0.12 4.38, 0.13 3.65 C0.15 2.92, 0.57 1.93, 0.75 1.35 C0.93 0.77, 0.42 0.42, 1.22 0.18 C2.01 -0.05, 4.79 -0.26, 5.51 -0.05 C6.23 0.16, 5.53 1.41, 5.55 1.44 M4.51 1.09 C5.21 1.24, 6.01 1.31, 6.45 1.86 C6.88 2.4, 7.02 3.66, 7.1 4.38 C7.18 5.09, 7.33 5.79, 6.92 6.14 C6.52 6.49, 5.54 6.18, 4.68 6.48 C3.83 6.77, 2.78 8.37, 1.8 7.91 C0.81 7.45, -0.79 4.6, -1.2 3.72 C-1.61 2.84, -0.99 3.13, -0.66 2.62 C-0.34 2.12, -0.12 1.2, 0.77 0.67 C1.66 0.14, 4.28 -0.56, 4.66 -0.56 C5.03 -0.55, 3.39 0.46, 3.02 0.7" stroke="#e03131" stroke-width="1" fill="none"></path></g></g><g clip-path="url(#6UKdLqWWion_fUex05SLN)"><g stroke-linecap="round" transform="translate(138.19232630972715 287.71835760050254) rotate(0 3.368409847007797 3.7646933584204305)"><path d="M4.69 0.14 C5.46 0.32, 6.53 1.2, 6.79 1.87 C7.06 2.54, 6.52 3.28, 6.29 4.15 C6.06 5.02, 5.91 6.63, 5.42 7.08 C4.93 7.53, 4.01 6.83, 3.34 6.85 C2.68 6.88, 2.1 7.77, 1.4 7.23 C0.7 6.69, -0.86 4.51, -0.86 3.61 C-0.87 2.71, 0.81 2.51, 1.37 1.83 C1.93 1.16, 1.93 -0.33, 2.52 -0.43 C3.11 -0.53, 4.35 1.04, 4.92 1.23 C5.5 1.42, 5.82 0.8, 5.95 0.71 M4.48 1.5 C4.92 1.35, 4.85 0.62, 5.29 0.71 C5.73 0.8, 7 1.3, 7.11 2.05 C7.23 2.8, 6.26 4.26, 5.98 5.22 C5.7 6.18, 6.21 7.32, 5.42 7.81 C4.63 8.3, 2.05 8.39, 1.25 8.16 C0.46 7.94, 0.76 7.16, 0.64 6.47 C0.52 5.78, 0.51 5, 0.53 4.02 C0.55 3.03, 0.19 1.38, 0.77 0.56 C1.35 -0.26, 3.58 -0.66, 4.01 -0.9 C4.44 -1.14, 3.66 -1.18, 3.37 -0.88" stroke="none" stroke-width="0" fill="#e03131"></path><path d="M3.26 -0.08 C3.96 -0.1, 4.53 0.16, 5.15 0.56 C5.76 0.96, 6.73 1.51, 6.96 2.3 C7.2 3.09, 7.08 4.62, 6.56 5.29 C6.04 5.97, 4.57 6.15, 3.85 6.34 C3.13 6.53, 2.76 6.64, 2.25 6.41 C1.73 6.19, 1.29 5.56, 0.78 4.99 C0.26 4.42, -1.03 3.75, -0.85 2.99 C-0.67 2.22, 1 0.77, 1.87 0.41 C2.74 0.04, 3.74 0.89, 4.35 0.79 C4.97 0.69, 5.56 -0.21, 5.56 -0.22 M4.02 0.49 C4.68 0.4, 5.42 1.13, 6.03 1.58 C6.65 2.04, 7.55 2.69, 7.71 3.23 C7.86 3.77, 7.5 3.97, 6.96 4.81 C6.43 5.65, 5.55 8.08, 4.5 8.27 C3.45 8.46, 1.5 6.37, 0.66 5.93 C-0.17 5.5, -0.26 6.13, -0.51 5.66 C-0.76 5.19, -1.28 4.03, -0.86 3.11 C-0.44 2.19, 1.43 0.56, 2.01 0.14 C2.58 -0.29, 2.57 0.5, 2.59 0.56 C2.6 0.63, 1.8 0.4, 2.09 0.54" stroke="#e03131" stroke-width="1" fill="none"></path></g></g><g clip-path="url(#6UKdLqWWion_fUex05SLN)"><g stroke-linecap="round" transform="translate(190.50174981620103 294.45517729451814) rotate(0 3.368409847007797 3.7646933584204305)"><path d="M4.28 -0.2 C4.92 -0.19, 5.14 0.06, 5.56 0.76 C5.98 1.45, 6.7 3.17, 6.81 3.95 C6.92 4.74, 6.61 4.75, 6.21 5.46 C5.81 6.17, 5.29 8.04, 4.4 8.22 C3.51 8.4, 1.43 7.01, 0.86 6.53 C0.3 6.04, 1.12 6.06, 1.02 5.3 C0.92 4.54, 0.24 2.69, 0.26 1.97 C0.28 1.26, 0.46 1.43, 1.14 1.01 C1.82 0.58, 3.66 -0.39, 4.34 -0.56 C5.01 -0.74, 5.15 -0.34, 5.17 -0.05 M3.59 -0.34 C4.21 -0.71, 5.92 -0.56, 6.42 0.02 C6.92 0.61, 6.51 2.06, 6.62 3.17 C6.73 4.28, 7.66 5.8, 7.09 6.69 C6.51 7.58, 4.03 8.27, 3.17 8.51 C2.31 8.74, 2.35 8.5, 1.91 8.11 C1.48 7.73, 0.96 7.16, 0.56 6.19 C0.17 5.21, -0.71 3.36, -0.45 2.25 C-0.2 1.14, 1.4 0.03, 2.1 -0.49 C2.8 -1.01, 3.66 -1.08, 3.76 -0.88 C3.85 -0.69, 2.84 0.52, 2.65 0.71" stroke="none" stroke-width="0" fill="#e03131"></path><path d="M2.22 -0.25 C2.95 -0.6, 4.43 -0.79, 5.19 -0.43 C5.95 -0.07, 6.64 1.2, 6.77 1.92 C6.9 2.65, 6.2 3.22, 5.95 3.91 C5.7 4.6, 5.69 5.57, 5.25 6.06 C4.8 6.55, 4.16 6.85, 3.28 6.87 C2.4 6.9, 0.42 6.8, -0.02 6.23 C-0.46 5.67, 0.47 4.17, 0.64 3.49 C0.81 2.82, 0.46 2.87, 0.99 2.19 C1.53 1.52, 3.41 -0.24, 3.84 -0.55 C4.27 -0.86, 3.7 0.12, 3.57 0.34 M4.87 0.79 C5.61 0.91, 6.84 1.35, 7.27 1.79 C7.7 2.22, 7.72 2.43, 7.45 3.39 C7.19 4.35, 6.6 7.06, 5.69 7.54 C4.78 8.01, 2.89 6.34, 2 6.23 C1.11 6.11, 0.82 7.11, 0.34 6.85 C-0.14 6.58, -1.02 5.56, -0.89 4.63 C-0.76 3.7, 0.76 1.92, 1.11 1.28 C1.47 0.64, 0.92 0.9, 1.24 0.79 C1.57 0.69, 2.38 0.59, 3.05 0.68 C3.72 0.76, 5.04 1.13, 5.27 1.32" stroke="#e03131" stroke-width="1" fill="none"></path></g></g><g clip-path="url(#6UKdLqWWion_fUex05SLN)"><g stroke-linecap="round" transform="translate(195.65343546456552 329.7244098102465) rotate(0 3.368409847007797 3.764693358420459)"><path d="M2.71 -0.52 C3.34 -0.55, 4.67 0.5, 5.36 0.93 C6.05 1.37, 6.59 1.25, 6.84 2.11 C7.08 2.97, 7.29 5.35, 6.81 6.1 C6.32 6.86, 4.51 6.39, 3.92 6.63 C3.34 6.88, 3.84 7.8, 3.3 7.58 C2.76 7.37, 1.32 5.97, 0.69 5.36 C0.06 4.75, -0.53 4.74, -0.47 3.92 C-0.42 3.09, 0.26 1.13, 1.02 0.41 C1.77 -0.31, 3.52 -0.48, 4.06 -0.41 C4.6 -0.34, 4.26 0.61, 4.24 0.82 M5.35 -0.99 C6.03 -0.73, 5.97 0.56, 6.38 1.62 C6.79 2.67, 8.11 4.28, 7.8 5.34 C7.48 6.4, 5.26 7.42, 4.5 7.98 C3.73 8.53, 3.77 8.73, 3.23 8.66 C2.69 8.59, 1.92 8.36, 1.26 7.55 C0.6 6.74, -0.66 4.97, -0.7 3.8 C-0.74 2.62, 0.51 1.3, 1.02 0.52 C1.53 -0.26, 1.93 -0.97, 2.35 -0.89 C2.77 -0.81, 3.34 0.8, 3.54 0.99 C3.73 1.19, 3.54 0.4, 3.5 0.27" stroke="none" stroke-width="0" fill="#e03131"></path><path d="M3.51 -0.85 C4.31 -0.93, 5.3 -0.08, 5.72 0.4 C6.14 0.87, 5.91 1.28, 6.03 1.99 C6.14 2.69, 6.59 3.87, 6.41 4.64 C6.24 5.41, 5.82 6.19, 4.99 6.62 C4.16 7.06, 2.07 7.48, 1.43 7.27 C0.8 7.05, 1.34 5.88, 1.16 5.33 C0.98 4.78, 0.19 4.79, 0.33 3.97 C0.48 3.15, 1.42 1.02, 2.02 0.4 C2.63 -0.22, 3.62 0.25, 3.96 0.27 C4.29 0.28, 3.98 0.41, 4.03 0.48 M4.9 -0.03 C5.65 -0.21, 6.35 -0.47, 6.68 0.3 C7.01 1.08, 7.23 3.86, 6.88 4.62 C6.53 5.37, 5.21 4.34, 4.59 4.84 C3.96 5.35, 3.76 7.25, 3.12 7.65 C2.49 8.04, 1.15 7.76, 0.78 7.24 C0.41 6.71, 1.15 5.17, 0.89 4.48 C0.63 3.79, -0.65 3.67, -0.77 3.09 C-0.88 2.51, -0.72 1.32, 0.19 0.99 C1.1 0.65, 4.07 1.01, 4.69 1.08 C5.32 1.14, 3.87 1.58, 3.94 1.37" stroke="#e03131" stroke-width="1" fill="none"></path></g></g><g clip-path="url(#6UKdLqWWion_fUex05SLN)"><g stroke-linecap="round" transform="translate(127.09638799017216 328.53555927600866) rotate(0 3.368409847007797 3.764693358420459)"><path d="M3.02 0.29 C3.79 0.13, 4.76 -0.58, 5.41 -0.06 C6.07 0.46, 6.94 2.62, 6.97 3.42 C7 4.21, 5.8 4.05, 5.59 4.69 C5.38 5.34, 6.18 6.93, 5.69 7.29 C5.21 7.65, 3.61 6.99, 2.69 6.86 C1.78 6.72, 0.64 7.17, 0.2 6.5 C-0.24 5.84, -0.16 3.82, 0.05 2.87 C0.25 1.92, 0.79 1.15, 1.4 0.79 C2.01 0.42, 3.2 0.69, 3.72 0.67 C4.23 0.66, 4.36 0.78, 4.49 0.67 M2.77 -0.71 C3.58 -0.56, 5.85 0.24, 6.37 0.96 C6.9 1.68, 5.84 2.7, 5.92 3.6 C6 4.49, 6.93 5.53, 6.84 6.33 C6.75 7.12, 6.17 8.19, 5.36 8.36 C4.55 8.53, 2.7 7.89, 1.98 7.36 C1.25 6.83, 1.41 5.96, 1.02 5.17 C0.64 4.39, -0.07 3.24, -0.33 2.68 C-0.59 2.11, -0.87 2.28, -0.57 1.8 C-0.27 1.32, 1.13 0.17, 1.46 -0.21 C1.8 -0.59, 1.34 -0.7, 1.44 -0.48" stroke="none" stroke-width="0" fill="#e03131"></path><path d="M3.08 -0.33 C3.6 -0.53, 3.84 -0.79, 4.42 -0.47 C5.01 -0.15, 6.19 0.79, 6.6 1.61 C7.01 2.43, 7.29 3.54, 6.88 4.43 C6.47 5.32, 4.72 6.51, 4.14 6.94 C3.56 7.38, 3.93 7.03, 3.42 7.02 C2.91 7.02, 1.51 7.53, 1.09 6.89 C0.67 6.25, 0.91 4.06, 0.92 3.18 C0.93 2.3, 0.78 2.07, 1.16 1.6 C1.54 1.13, 2.71 0.56, 3.2 0.36 C3.69 0.16, 4.06 0.35, 4.1 0.39 M4.78 -0.93 C5.31 -0.67, 6.03 1.72, 6.13 2.3 C6.22 2.88, 5.53 1.84, 5.34 2.53 C5.16 3.22, 5.43 5.56, 5.03 6.42 C4.63 7.27, 3.41 7.68, 2.95 7.67 C2.5 7.66, 2.93 6.72, 2.31 6.37 C1.69 6.02, -0.18 6.13, -0.77 5.55 C-1.36 4.97, -1.77 3.55, -1.22 2.87 C-0.68 2.2, 1.64 1.76, 2.52 1.5 C3.4 1.24, 3.6 1.64, 4.06 1.31 C4.51 0.99, 5.2 -0.29, 5.26 -0.45" stroke="#e03131" stroke-width="1" fill="none"></path></g></g><g clip-path="url(#6UKdLqWWion_fUex05SLN)"><g stroke-linecap="round"><g transform="translate(454.6908109967924 31.391117448431885) rotate(0 -213.7709192756521 34.33308596371373)"><path d="M-0.42 0.33 C-71.59 11.8, -356.1 57.19, -427.13 68.34" stroke="#4dabf7" stroke-width="1.5" fill="none" stroke-dasharray="8 9"></path></g></g><mask></mask></g><g clip-path="url(#6UKdLqWWion_fUex05SLN)"><g stroke-linecap="round"><g transform="translate(466.8075342047166 67.74128707220501) rotate(0 -140.42364203900496 141.4950769448474)"><path d="M-1.02 0.35 C-47.59 47.4, -233.24 235.45, -279.83 282.64" stroke="#4dabf7" stroke-width="1.5" fill="none" stroke-dasharray="8 9"></path></g></g><mask></mask></g><g clip-path="url(#6UKdLqWWion_fUex05SLN)"><g stroke-linecap="round" transform="translate(276.04941247859597 57.197104456985755) rotate(0 19.798702908484074 19.503199879999244)"><path d="M10.85 1.66 C14.13 -0.3, 18.81 -0.56, 23.01 0.34 C27.21 1.24, 33.23 3.63, 36.04 7.05 C38.86 10.48, 39.99 16.75, 39.89 20.9 C39.79 25.06, 38.26 28.95, 35.43 31.98 C32.6 35.01, 27.25 38.34, 22.92 39.08 C18.58 39.81, 12.95 38.6, 9.4 36.39 C5.86 34.18, 2.93 29.83, 1.65 25.84 C0.38 21.85, 0.03 16.35, 1.76 12.44 C3.5 8.53, 10.2 4.1, 12.06 2.38 C13.93 0.66, 13.02 1.9, 12.98 2.1 M24.8 1.06 C28.8 2.25, 32.96 5.77, 35.51 9.15 C38.06 12.53, 40.65 17.14, 40.11 21.35 C39.57 25.56, 35.75 31.38, 32.28 34.39 C28.81 37.41, 23.24 39.17, 19.29 39.44 C15.34 39.72, 11.72 38.45, 8.59 36.05 C5.47 33.65, 1.39 29.39, 0.53 25.04 C-0.32 20.7, 1.45 13.9, 3.46 9.97 C5.48 6.03, 8.96 2.84, 12.61 1.42 C16.27 0.01, 23.31 1.59, 25.4 1.47 C27.5 1.36, 25.37 0.5, 25.19 0.73" stroke="#1e1e1e" stroke-width="1" fill="none"></path></g></g><g clip-path="url(#6UKdLqWWion_fUex05SLN)"><g stroke-linecap="round"><g transform="translate(294.37060024465563 95.02149210304486) rotate(0 -0.04537545745120042 35.20195302261041)"><path d="M-1.17 0.08 C-1.27 12.09, -1.12 59.71, -1.05 71.33 M0.41 -0.93 C0.72 10.78, 0.89 57.51, 1.11 69.43" stroke="#1e1e1e" stroke-width="1" fill="none"></path></g></g><mask></mask></g><g clip-path="url(#6UKdLqWWion_fUex05SLN)"><g stroke-linecap="round"><g transform="translate(295.04186330919447 164.82222813156244) rotate(0 -12.182336398286111 24.323654635915716)"><path d="M-1.05 0.41 C-3.98 4.28, -14.93 15.17, -18.78 23.28 C-22.63 31.39, -23.18 44.83, -24.15 49.06 M0.6 -0.42 C-1.84 3.55, -12.2 16.32, -16.46 24.24 C-20.73 32.17, -23.61 42.84, -24.97 47.12" stroke="#1e1e1e" stroke-width="1" fill="none"></path></g></g><mask></mask></g><g clip-path="url(#6UKdLqWWion_fUex05SLN)"><g stroke-linecap="round"><g transform="translate(293.6300514750642 165.48256969630432) rotate(0 9.74539184505386 23.71297855746505)"><path d="M-0.75 -1.09 C2.14 2.8, 12.78 15.47, 16.28 23.74 C19.78 32.01, 19.35 44.26, 20.24 48.52 M1.06 0.95 C3.87 4.46, 12.25 14.45, 15.28 22.02 C18.3 29.59, 18.02 42.16, 19.19 46.37" stroke="#1e1e1e" stroke-width="1" fill="none"></path></g></g><mask></mask></g><g clip-path="url(#6UKdLqWWion_fUex05SLN)"><g stroke-linecap="round"><g transform="translate(294.60776396924257 126.12964180560044) rotate(0 18.32074341578891 -17.6658776078539)"><path d="M-0.1 0.77 C4.25 -1.88, 18.98 -11.14, 25.37 -16.99 C31.77 -22.84, 36.36 -31.33, 38.25 -34.34 M-1.61 0.12 C2.6 -2.81, 17.55 -12.88, 24.14 -18.92 C30.73 -24.96, 35.86 -33.64, 37.94 -36.1" stroke="#1e1e1e" stroke-width="1" fill="none"></path></g></g><mask></mask></g><g clip-path="url(#6UKdLqWWion_fUex05SLN)"><g stroke-linecap="round"><g transform="translate(294.1189077221529 124.90750118787668) rotate(0 -19.777416121202066 -13.97184053931835)"><path d="M-0.54 0.37 C-4.04 -1.21, -14.6 -4.24, -21.14 -8.67 C-27.69 -13.1, -36.86 -23.22, -39.81 -26.2 M1.38 -0.49 C-2.2 -2.44, -14.59 -5.58, -21.64 -10.21 C-28.7 -14.85, -38.15 -25.79, -40.94 -28.31" stroke="#1e1e1e" stroke-width="1" fill="none"></path></g></g><mask></mask></g><g clip-path="url(#6UKdLqWWion_fUex05SLN)"><g stroke-linecap="round" transform="translate(270.5315938000854 112.31945282532234) rotate(0 2.077639050130358 2.322067173675066)"><path d="M1.56 0.81 C1.94 0.78, 2.66 0.65, 3.21 0.65 C3.76 0.65, 4.75 0.44, 4.86 0.82 C4.96 1.21, 4.24 2.44, 3.84 2.97 C3.44 3.5, 2.84 3.6, 2.46 4.02 C2.09 4.43, 1.83 5.52, 1.59 5.46 C1.35 5.41, 1.16 4.09, 1.01 3.68 C0.87 3.26, 0.7 3.34, 0.71 2.97 C0.71 2.59, 0.74 2.01, 1.05 1.44 C1.36 0.87, 2.39 -0.23, 2.55 -0.43 C2.7 -0.63, 2.23 0.17, 1.99 0.25 M-0.01 -0.13 C0.38 -0.49, 0.87 -0.77, 1.39 -0.43 C1.9 -0.1, 2.64 1.44, 3.06 1.9 C3.48 2.35, 3.85 2.03, 3.91 2.28 C3.97 2.53, 3.8 2.8, 3.43 3.4 C3.06 4, 2.16 5.89, 1.7 5.88 C1.24 5.88, 0.81 3.86, 0.67 3.35 C0.53 2.85, 1.05 3.16, 0.84 2.85 C0.63 2.55, -0.8 1.9, -0.6 1.52 C-0.4 1.15, 1.59 0.87, 2.04 0.58 C2.49 0.3, 2.38 -0.38, 2.09 -0.2" stroke="none" stroke-width="0" fill="#e03131"></path><path d="M1.58 0.45 C2.04 0.29, 3.14 0.33, 3.59 0.51 C4.03 0.69, 4.11 1.02, 4.25 1.53 C4.4 2.03, 4.65 2.99, 4.48 3.52 C4.32 4.05, 3.8 4.49, 3.27 4.7 C2.74 4.9, 1.62 5, 1.29 4.73 C0.95 4.47, 1.61 3.54, 1.25 3.08 C0.9 2.63, -0.72 2.45, -0.85 2 C-0.98 1.56, -0.05 0.68, 0.46 0.42 C0.98 0.16, 1.93 0.6, 2.24 0.45 C2.55 0.3, 2.27 -0.27, 2.31 -0.47 M2.44 1.27 C2.94 1.04, 4.54 0.04, 4.9 0.19 C5.26 0.35, 4.86 1.49, 4.62 2.18 C4.37 2.88, 3.84 4.05, 3.42 4.37 C3 4.68, 2.63 4.06, 2.11 4.08 C1.59 4.1, 0.54 4.57, 0.28 4.47 C0.02 4.37, 0.73 3.88, 0.54 3.49 C0.34 3.1, -1.16 2.89, -0.89 2.15 C-0.62 1.4, 1.73 -0.83, 2.14 -0.99 C2.55 -1.14, 1.5 1.02, 1.59 1.21 C1.67 1.41, 2.67 0.47, 2.65 0.19" stroke="#e03131" stroke-width="1" fill="none"></path></g></g><g clip-path="url(#6UKdLqWWion_fUex05SLN)"><g stroke-linecap="round" transform="translate(252.68834078131886 94.96505605364558) rotate(0 2.077639050130358 2.322067173675066)"><path d="M2.08 0.57 C2.62 0.27, 3.77 -0.25, 4.04 -0.06 C4.31 0.13, 3.88 1.21, 3.72 1.71 C3.56 2.21, 3.27 2.4, 3.09 2.96 C2.92 3.53, 2.85 4.91, 2.68 5.11 C2.5 5.32, 2.3 4.36, 2.05 4.19 C1.8 4.02, 1.42 4.36, 1.21 4.1 C0.99 3.85, 0.76 3.28, 0.78 2.67 C0.79 2.06, 1.11 0.83, 1.29 0.42 C1.48 0.01, 1.82 0.3, 1.87 0.21 C1.92 0.11, 1.69 -0.02, 1.6 -0.17 M1 -0.56 C1.52 -0.34, 2.34 1.13, 2.83 1.53 C3.32 1.93, 3.8 1.57, 3.95 1.83 C4.1 2.09, 4.02 2.42, 3.72 3.09 C3.41 3.76, 2.55 5.77, 2.1 5.85 C1.64 5.94, 1.19 4.04, 0.99 3.61 C0.8 3.19, 1.23 3.57, 0.94 3.29 C0.64 3, -0.9 2.34, -0.78 1.92 C-0.65 1.5, 1.03 1.14, 1.68 0.77 C2.33 0.39, 3.19 -0.43, 3.11 -0.33 C3.03 -0.22, 1.27 1.5, 1.23 1.4" stroke="none" stroke-width="0" fill="#e03131"></path><path d="M3.03 0.34 C3.49 0.35, 3.68 0.57, 3.93 1 C4.18 1.42, 4.58 2.34, 4.54 2.88 C4.5 3.42, 4.12 3.94, 3.68 4.24 C3.23 4.54, 2.19 4.81, 1.86 4.68 C1.54 4.55, 2.15 3.8, 1.72 3.46 C1.3 3.11, -0.46 3.04, -0.71 2.63 C-0.96 2.22, -0.08 1.3, 0.22 1 C0.52 0.7, 0.75 1.07, 1.08 0.81 C1.41 0.55, 1.85 -0.3, 2.21 -0.55 C2.57 -0.81, 3.14 -0.97, 3.25 -0.74 M4.04 -0.46 C4.52 -0.55, 4.36 0.43, 4.33 1.06 C4.3 1.69, 4.06 2.89, 3.85 3.3 C3.64 3.72, 3.48 3.33, 3.05 3.57 C2.62 3.81, 1.61 4.61, 1.29 4.75 C0.98 4.9, 1.52 4.68, 1.15 4.44 C0.77 4.2, -1.01 4.07, -0.96 3.31 C-0.92 2.54, 1.16 0.18, 1.41 -0.15 C1.67 -0.48, 0.28 1.26, 0.55 1.33 C0.82 1.4, 2.82 0.56, 3.04 0.25 C3.27 -0.06, 1.84 -0.58, 1.9 -0.55" stroke="#e03131" stroke-width="1" fill="none"></path></g></g><g clip-path="url(#6UKdLqWWion_fUex05SLN)"><g stroke-linecap="round" transform="translate(292.0412686720224 123.3187183848359) rotate(0 2.077639050130358 2.322067173675066)"><path d="M3.75 -0.2 C4.03 -0.12, 3.67 0.92, 3.58 1.39 C3.48 1.86, 3.28 2.03, 3.17 2.62 C3.06 3.2, 3.07 4.63, 2.93 4.9 C2.8 5.17, 2.62 4.3, 2.37 4.21 C2.12 4.12, 1.7 4.55, 1.44 4.35 C1.18 4.15, 0.87 3.63, 0.81 3.03 C0.76 2.42, 1.04 1.16, 1.12 0.72 C1.19 0.27, 1.07 0.47, 1.28 0.35 C1.5 0.24, 2.19 0.17, 2.41 0.03 C2.62 -0.11, 2.44 -0.41, 2.59 -0.5 M1.06 0.69 C1.69 0.64, 2.56 -0.13, 3.07 -0.08 C3.59 -0.03, 4.05 0.22, 4.14 1 C4.24 1.77, 3.83 4.1, 3.63 4.56 C3.42 5.01, 3.13 3.69, 2.91 3.72 C2.7 3.75, 2.92 4.69, 2.34 4.75 C1.77 4.8, -0.25 4.42, -0.54 4.06 C-0.82 3.69, 0.33 3.2, 0.63 2.57 C0.94 1.95, 1.26 0.51, 1.27 0.3 C1.28 0.1, 0.51 1.56, 0.69 1.32 C0.86 1.08, 2.33 -0.73, 2.32 -1.15" stroke="none" stroke-width="0" fill="#e03131"></path><path d="M2.76 0.28 C3.13 0.39, 3.83 1.07, 4.05 1.5 C4.28 1.92, 4.28 2.43, 4.11 2.83 C3.93 3.24, 3.18 3.77, 3 3.91 C2.82 4.05, 3.51 3.71, 3.04 3.68 C2.57 3.65, 0.64 3.94, 0.17 3.75 C-0.3 3.55, 0.23 2.78, 0.25 2.48 C0.26 2.19, 0.19 2.44, 0.25 1.97 C0.31 1.5, 0.14 0.14, 0.63 -0.33 C1.11 -0.79, 2.69 -1.03, 3.15 -0.83 C3.6 -0.63, 3.33 0.66, 3.37 0.86 M3.38 0.11 C3.52 0.47, 3.61 1.51, 3.67 1.89 C3.72 2.26, 3.92 1.95, 3.72 2.36 C3.53 2.76, 2.74 3.87, 2.51 4.31 C2.28 4.74, 2.81 4.92, 2.34 4.97 C1.86 5.01, -0.16 5.19, -0.36 4.57 C-0.56 3.95, 1.17 1.64, 1.15 1.25 C1.14 0.86, -0.56 2.39, -0.45 2.22 C-0.35 2.04, 1.35 0.66, 1.76 0.21 C2.18 -0.25, 1.74 -0.55, 2.05 -0.53 C2.35 -0.51, 3.64 0.02, 3.59 0.3" stroke="#e03131" stroke-width="1" fill="none"></path></g></g><g clip-path="url(#6UKdLqWWion_fUex05SLN)"><g stroke-linecap="round" transform="translate(285.44170933631494 68.32239058726833) rotate(0 2.077639050130358 2.322067173675066)"><path d="M2.32 0.33 C2.41 0.47, 2.59 0.4, 2.82 0.9 C3.04 1.4, 3.48 2.9, 3.65 3.33 C3.81 3.77, 3.93 3.27, 3.82 3.53 C3.7 3.78, 3.3 4.7, 2.94 4.86 C2.58 5.03, 2.01 4.9, 1.67 4.5 C1.33 4.1, 1.18 2.95, 0.93 2.46 C0.67 1.97, 0.19 1.96, 0.13 1.55 C0.08 1.14, 0.2 0.37, 0.58 0 C0.96 -0.37, 1.88 -0.62, 2.41 -0.67 C2.95 -0.73, 3.73 -0.36, 3.8 -0.33 M1.46 -0.46 C2.02 -0.82, 2.76 -0.98, 3.13 -0.45 C3.5 0.08, 3.54 2.25, 3.69 2.72 C3.83 3.19, 3.97 2.06, 4.01 2.36 C4.06 2.65, 4.5 4.05, 3.97 4.49 C3.45 4.94, 1.33 5.06, 0.86 5.03 C0.38 5, 1.18 4.82, 1.14 4.32 C1.11 3.82, 0.97 2.36, 0.66 2.01 C0.34 1.65, -1 2.71, -0.76 2.18 C-0.53 1.66, 1.89 -0.57, 2.08 -1.16 C2.28 -1.74, 0.45 -1.59, 0.41 -1.33" stroke="none" stroke-width="0" fill="#e03131"></path><path d="M2.79 0.69 C3.15 0.78, 3.48 1.03, 3.6 1.31 C3.71 1.59, 3.37 2.12, 3.49 2.38 C3.6 2.64, 4.61 2.58, 4.29 2.86 C3.98 3.13, 2.12 3.87, 1.6 4.02 C1.09 4.16, 1.41 3.79, 1.19 3.72 C0.97 3.65, 0.51 4.06, 0.26 3.6 C0.01 3.13, -0.49 1.63, -0.3 0.93 C-0.11 0.22, 0.8 -0.6, 1.38 -0.64 C1.97 -0.67, 2.76 0.52, 3.19 0.71 C3.63 0.9, 3.91 0.44, 3.98 0.53 M1.39 0.64 C1.66 0.44, 2.4 -0.39, 2.7 -0.24 C3 -0.08, 2.93 0.98, 3.22 1.59 C3.51 2.19, 4.62 2.84, 4.44 3.39 C4.27 3.94, 2.42 4.89, 2.16 4.87 C1.91 4.86, 3.32 3.27, 2.91 3.3 C2.5 3.32, 0.15 5.18, -0.29 5.04 C-0.73 4.91, 0.29 3.31, 0.27 2.49 C0.25 1.68, -0.76 0.54, -0.41 0.15 C-0.06 -0.25, 2.19 -0.01, 2.36 0.11 C2.53 0.22, 0.83 0.77, 0.61 0.84" stroke="#e03131" stroke-width="1" fill="none"></path></g></g><g clip-path="url(#6UKdLqWWion_fUex05SLN)"><g stroke-linecap="round" transform="translate(300.8406811196337 68.32239058726833) rotate(0 2.077639050130358 2.322067173675066)"><path d="M0.78 -0.05 C1.16 -0.06, 2.05 0.95, 2.63 1.14 C3.22 1.34, 3.96 0.75, 4.3 1.12 C4.64 1.49, 4.77 2.78, 4.7 3.37 C4.63 3.95, 4.23 4.49, 3.88 4.61 C3.52 4.74, 3.13 4.24, 2.55 4.13 C1.97 4.03, 0.94 4.34, 0.42 4 C-0.11 3.65, -0.52 2.77, -0.61 2.08 C-0.71 1.39, -0.7 0.36, -0.15 -0.14 C0.41 -0.64, 2.23 -0.83, 2.71 -0.93 C3.2 -1.03, 2.89 -0.82, 2.76 -0.72 M2.6 -0.68 C3 -0.31, 3.16 1.77, 3.41 2.17 C3.66 2.57, 3.95 1.42, 4.12 1.74 C4.29 2.06, 4.86 3.54, 4.41 4.09 C3.96 4.64, 1.89 4.93, 1.42 5.04 C0.95 5.15, 1.68 5.13, 1.57 4.73 C1.46 4.33, 1.18 2.96, 0.75 2.63 C0.31 2.3, -1.19 3.32, -1.05 2.73 C-0.92 2.13, 1.16 -0.27, 1.55 -0.95 C1.94 -1.63, 1.09 -1.56, 1.28 -1.36 C1.47 -1.17, 2.44 -0.25, 2.67 0.22" stroke="none" stroke-width="0" fill="#e03131"></path><path d="M2.28 0.53 C2.53 0.46, 2.52 0.71, 2.93 0.83 C3.34 0.96, 4.77 0.89, 4.76 1.27 C4.75 1.66, 3.22 2.69, 2.87 3.13 C2.52 3.58, 2.93 3.67, 2.67 3.96 C2.4 4.24, 1.74 5.06, 1.26 4.84 C0.77 4.61, -0.12 3.29, -0.25 2.59 C-0.38 1.9, 0.21 0.96, 0.46 0.68 C0.71 0.39, 0.76 0.99, 1.25 0.9 C1.74 0.81, 2.97 0.1, 3.41 0.15 C3.85 0.19, 4.1 1.1, 3.91 1.18 M1.64 -0.52 C1.98 -0.64, 2.09 0.16, 2.57 0.61 C3.05 1.06, 4.45 1.61, 4.51 2.18 C4.56 2.74, 3 3.83, 2.91 3.99 C2.82 4.16, 4.37 2.87, 3.99 3.16 C3.61 3.44, 1.19 5.63, 0.62 5.71 C0.05 5.79, 0.82 4.4, 0.58 3.65 C0.33 2.91, -0.98 1.76, -0.85 1.26 C-0.71 0.76, 1.09 0.73, 1.39 0.65 C1.69 0.57, 0.95 0.8, 0.95 0.75 C0.95 0.7, 1.05 0.33, 1.39 0.35" stroke="#e03131" stroke-width="1" fill="none"></path></g></g><g clip-path="url(#6UKdLqWWion_fUex05SLN)"><g stroke-linecap="round" transform="translate(293.0189811662017 76.14409054070023) rotate(0 2.077639050130358 2.322067173675066)"><path d="M1.84 0.84 C2.47 0.81, 3.37 0.05, 3.87 0.32 C4.37 0.58, 4.72 1.83, 4.83 2.44 C4.93 3.06, 4.75 3.72, 4.51 4 C4.27 4.28, 3.96 4.02, 3.38 4.12 C2.81 4.21, 1.71 4.77, 1.07 4.58 C0.43 4.4, -0.18 3.65, -0.45 2.99 C-0.72 2.34, -0.85 1.28, -0.55 0.68 C-0.26 0.08, 0.83 -0.32, 1.32 -0.58 C1.81 -0.85, 2.21 -0.94, 2.38 -0.91 C2.55 -0.88, 2.23 -0.58, 2.33 -0.4 M1.4 1.27 C1.8 1.17, 2.52 -0.47, 3.09 -0.39 C3.67 -0.32, 4.85 1.07, 4.85 1.73 C4.85 2.38, 3.3 3.03, 3.12 3.54 C2.93 4.05, 3.86 4.69, 3.73 4.8 C3.61 4.92, 3.11 4.19, 2.36 4.24 C1.62 4.29, -0.42 5.64, -0.74 5.12 C-1.07 4.6, 0.42 2.06, 0.41 1.11 C0.41 0.15, -1.02 -0.45, -0.78 -0.6 C-0.53 -0.76, 1.41 -0.16, 1.86 0.15 C2.32 0.46, 1.93 1.48, 1.94 1.27" stroke="none" stroke-width="0" fill="#e03131"></path><path d="M2.09 0.22 C2.6 0.11, 4.27 -0.11, 4.46 0.2 C4.66 0.51, 3.41 1.56, 3.26 2.1 C3.11 2.64, 3.73 2.95, 3.56 3.45 C3.39 3.94, 2.77 5.08, 2.24 5.09 C1.7 5.1, 0.66 4.04, 0.35 3.49 C0.05 2.94, 0.38 2.09, 0.41 1.8 C0.45 1.5, 0.3 1.99, 0.57 1.72 C0.83 1.45, 1.45 0.28, 2.02 0.19 C2.59 0.09, 3.79 1.04, 3.96 1.16 C4.13 1.28, 3.2 1.07, 3.03 0.93 M1.69 0.16 C2.24 0.36, 3.85 0.73, 4.09 1.2 C4.34 1.66, 3.04 2.72, 3.16 2.95 C3.27 3.17, 5.04 2.06, 4.78 2.53 C4.52 3.01, 2.17 5.49, 1.59 5.8 C1 6.12, 1.66 5, 1.26 4.42 C0.87 3.84, -0.69 2.82, -0.76 2.34 C-0.83 1.86, 0.71 1.76, 0.84 1.54 C0.97 1.32, -0.15 1.24, 0.02 1.04 C0.19 0.84, 1.28 0.4, 1.86 0.35 C2.44 0.3, 3.26 0.5, 3.48 0.74" stroke="#e03131" stroke-width="1" fill="none"></path></g></g><g clip-path="url(#6UKdLqWWion_fUex05SLN)"><g stroke-linecap="round" transform="translate(317.21736539713174 108.16417472506163) rotate(0 2.077639050130358 2.322067173675066)"><path d="M2.26 -0.43 C2.88 -0.58, 3.59 0.29, 4.02 0.72 C4.46 1.14, 4.76 1.73, 4.89 2.1 C5.01 2.47, 5.11 2.5, 4.77 2.93 C4.42 3.36, 3.46 4.44, 2.81 4.67 C2.15 4.9, 1.35 4.66, 0.83 4.31 C0.31 3.97, -0.25 3.15, -0.33 2.61 C-0.4 2.07, 0.24 1.56, 0.38 1.06 C0.52 0.56, 0.3 -0.1, 0.52 -0.37 C0.73 -0.64, 1.33 -0.61, 1.68 -0.56 C2.03 -0.52, 2.61 -0.23, 2.62 -0.09 M1.54 -0.64 C2.14 -0.96, 3.55 0.02, 3.8 0.42 C4.06 0.82, 2.92 1.29, 3.07 1.79 C3.22 2.29, 4.56 3.08, 4.7 3.42 C4.84 3.77, 4.57 3.46, 3.9 3.88 C3.22 4.3, 1.13 6.14, 0.64 5.95 C0.16 5.75, 1.32 3.55, 1 2.74 C0.68 1.92, -1.19 1.34, -1.26 1.06 C-1.34 0.79, 0.03 1.04, 0.53 1.08 C1.04 1.11, 1.58 1.65, 1.77 1.26 C1.97 0.88, 1.62 -1.03, 1.71 -1.24" stroke="none" stroke-width="0" fill="#e03131"></path><path d="M3.21 -0.85 C3.59 -0.88, 2.73 -0.06, 2.91 0.39 C3.08 0.85, 4.14 1.21, 4.27 1.88 C4.4 2.55, 4.08 4.05, 3.68 4.4 C3.28 4.75, 2.26 4.19, 1.86 4 C1.46 3.81, 1.52 3.36, 1.27 3.27 C1.02 3.18, 0.45 3.78, 0.38 3.46 C0.31 3.15, 0.6 1.79, 0.87 1.39 C1.15 0.99, 1.74 1.21, 2.02 1.07 C2.29 0.92, 2.34 0.65, 2.53 0.51 C2.72 0.38, 3.03 0.31, 3.15 0.25 M2.11 0.36 C2.49 0.33, 1.61 0.91, 2.12 0.88 C2.63 0.86, 4.99 -0.36, 5.17 0.21 C5.36 0.78, 3.52 3.6, 3.22 4.3 C2.93 5.01, 3.78 4.52, 3.38 4.45 C2.99 4.38, 1.21 3.98, 0.85 3.88 C0.48 3.79, 1.5 4.01, 1.18 3.87 C0.86 3.74, -0.84 3.53, -1.06 3.07 C-1.28 2.62, -0.77 1.53, -0.14 1.13 C0.49 0.73, 2.29 0.61, 2.73 0.68 C3.16 0.75, 2.74 1.7, 2.5 1.56" stroke="#e03131" stroke-width="1" fill="none"></path></g></g><g clip-path="url(#6UKdLqWWion_fUex05SLN)"><g stroke-linecap="round" transform="translate(329.1943434508239 87.6322123473031) rotate(0 2.077639050130358 2.322067173675066)"><path d="M3.58 0.42 C4.06 0.7, 4.49 1.22, 4.71 1.55 C4.94 1.88, 5.19 1.92, 4.95 2.39 C4.71 2.86, 3.86 4.05, 3.26 4.39 C2.66 4.72, 1.88 4.64, 1.34 4.42 C0.8 4.2, 0.16 3.52, 0 3.06 C-0.16 2.6, 0.35 2.14, 0.38 1.64 C0.41 1.14, 0.06 0.42, 0.18 0.07 C0.3 -0.28, 0.53 -0.48, 1.09 -0.47 C1.65 -0.46, 3.23 -0.01, 3.52 0.14 C3.81 0.3, 3.03 0.44, 2.86 0.46 M3.73 0.38 C3.98 0.73, 2.87 1.21, 3.03 1.71 C3.2 2.2, 4.57 2.98, 4.72 3.34 C4.88 3.69, 4.63 3.39, 3.96 3.83 C3.3 4.26, 1.21 6.12, 0.72 5.95 C0.24 5.78, 1.38 3.6, 1.05 2.8 C0.72 2, -1.16 1.43, -1.26 1.15 C-1.35 0.88, -0.01 1.13, 0.49 1.15 C0.98 1.17, 1.27 1.67, 1.7 1.29 C2.12 0.9, 2.72 -0.94, 3.04 -1.16 C3.35 -1.38, 3.5 -0.11, 3.59 -0.06" stroke="none" stroke-width="0" fill="#e03131"></path><path d="M1.31 -0.58 C1.65 -0.54, 3.12 -0.52, 3.61 -0.01 C4.1 0.5, 4.29 1.98, 4.26 2.47 C4.23 2.97, 3.61 2.76, 3.41 2.94 C3.21 3.12, 3.37 3.23, 3.07 3.57 C2.76 3.92, 1.94 5.02, 1.58 4.99 C1.22 4.96, 1.03 3.81, 0.92 3.42 C0.8 3.03, 0.96 3.09, 0.88 2.65 C0.8 2.21, 0.19 1.25, 0.42 0.78 C0.65 0.31, 1.87 -0.01, 2.28 -0.17 C2.69 -0.32, 2.94 -0.14, 2.89 -0.15 M1.16 0.57 C1.7 0.28, 4.25 -1.16, 4.61 -0.72 C4.97 -0.29, 3.42 2.46, 3.33 3.19 C3.25 3.92, 4.35 3.57, 4.1 3.67 C3.86 3.77, 2.2 3.66, 1.85 3.81 C1.5 3.95, 2.44 4.48, 1.99 4.53 C1.55 4.59, -0.39 4.56, -0.82 4.16 C-1.25 3.76, -1.02 2.64, -0.58 2.14 C-0.14 1.64, 1.22 1.24, 1.81 1.13 C2.39 1.02, 2.95 1.73, 2.93 1.48 C2.9 1.23, 1.73 0.06, 1.66 -0.38" stroke="#e03131" stroke-width="1" fill="none"></path></g></g><g clip-path="url(#6UKdLqWWion_fUex05SLN)"><g stroke-linecap="round" transform="translate(292.53012491911204 162.18279002845037) rotate(0 2.077639050130358 2.322067173675066)"><path d="M2.41 0.32 C2.85 0.08, 3.64 -0.42, 3.89 -0.21 C4.15 0.01, 4.02 1.14, 3.94 1.64 C3.87 2.14, 3.68 2.52, 3.44 2.8 C3.21 3.09, 2.76 3.19, 2.54 3.33 C2.33 3.48, 2.53 3.74, 2.17 3.67 C1.81 3.61, 0.81 3.22, 0.38 2.92 C-0.05 2.62, -0.48 2.21, -0.39 1.85 C-0.31 1.5, 0.53 1.07, 0.89 0.77 C1.25 0.46, 1.56 0.18, 1.75 0.04 C1.94 -0.11, 1.85 -0.14, 2.04 -0.11 M0.68 0.48 C1.06 0.38, 2.97 0.62, 3.63 0.71 C4.29 0.8, 4.77 0.43, 4.64 1.03 C4.51 1.62, 3.02 3.95, 2.85 4.29 C2.68 4.63, 4.02 3.24, 3.64 3.06 C3.26 2.88, 1.06 3.04, 0.58 3.21 C0.09 3.37, 0.77 3.97, 0.71 4.04 C0.65 4.12, 0.23 4.4, 0.21 3.66 C0.18 2.92, 0.19 0.23, 0.53 -0.41 C0.88 -1.06, 1.98 -0.11, 2.28 -0.23 C2.57 -0.35, 2.42 -1.32, 2.3 -1.11" stroke="none" stroke-width="0" fill="#e03131"></path><path d="M1.27 -0.38 C1.8 -0.45, 2.34 0.4, 2.68 0.51 C3.03 0.62, 3.02 0.14, 3.33 0.3 C3.64 0.47, 4.43 0.8, 4.52 1.49 C4.62 2.19, 4.15 3.92, 3.89 4.44 C3.64 4.97, 3.36 4.55, 3 4.66 C2.65 4.77, 2.32 5.33, 1.76 5.1 C1.21 4.87, -0.04 3.94, -0.31 3.29 C-0.59 2.65, -0.27 1.79, 0.11 1.22 C0.49 0.64, 1.7 0.11, 1.95 -0.17 C2.21 -0.46, 1.69 -0.61, 1.64 -0.48 M3.44 -1.31 C3.9 -1.18, 2.61 1.3, 2.77 1.9 C2.94 2.5, 4.4 2.1, 4.42 2.28 C4.44 2.46, 3.08 2.58, 2.89 2.97 C2.69 3.36, 3.73 4.27, 3.27 4.64 C2.8 5, 0.72 5.34, 0.1 5.16 C-0.52 4.98, -0.61 4.04, -0.45 3.56 C-0.28 3.09, 0.73 2.6, 1.09 2.32 C1.45 2.04, 1.58 2.32, 1.7 1.87 C1.82 1.41, 1.65 0.12, 1.81 -0.42 C1.97 -0.96, 2.62 -1.36, 2.68 -1.38" stroke="#e03131" stroke-width="1" fill="none"></path></g></g><g clip-path="url(#6UKdLqWWion_fUex05SLN)"><g stroke-linecap="round" transform="translate(276.3978687651593 185.40346176520114) rotate(0 2.077639050130358 2.322067173675066)"><path d="M3.17 -0.46 C3.45 -0.44, 3.47 0.52, 3.53 0.92 C3.59 1.33, 3.61 1.66, 3.54 1.96 C3.47 2.27, 3.2 2.48, 3.1 2.76 C3 3.03, 3.28 3.52, 2.92 3.63 C2.57 3.74, 1.51 3.59, 0.98 3.43 C0.46 3.27, -0.15 3, -0.22 2.68 C-0.3 2.36, 0.41 1.9, 0.54 1.52 C0.68 1.15, 0.32 0.7, 0.6 0.42 C0.87 0.15, 1.64 -0.1, 2.17 -0.12 C2.71 -0.15, 3.81 0.1, 3.81 0.26 M2.83 0.47 C3.52 0.34, 4.15 -0.21, 4.17 0.27 C4.18 0.76, 2.91 3.02, 2.92 3.37 C2.93 3.73, 4.48 2.45, 4.22 2.4 C3.97 2.36, 1.87 2.76, 1.4 3.12 C0.92 3.49, 1.55 4.33, 1.38 4.57 C1.22 4.81, 0.62 5.24, 0.42 4.55 C0.22 3.86, 0 1.15, 0.18 0.42 C0.37 -0.31, 1.08 0.43, 1.53 0.16 C1.99 -0.11, 2.8 -1.32, 2.91 -1.21 C3.02 -1.1, 2.17 0.44, 2.17 0.81" stroke="none" stroke-width="0" fill="#e03131"></path><path d="M1.6 0.55 C1.91 0.38, 2.03 -0.41, 2.48 -0.45 C2.93 -0.49, 3.98 -0.33, 4.3 0.31 C4.63 0.95, 4.46 2.73, 4.41 3.38 C4.36 4.03, 4.28 3.86, 4.01 4.21 C3.74 4.56, 3.42 5.46, 2.79 5.48 C2.17 5.5, 0.73 4.83, 0.26 4.32 C-0.22 3.81, -0.12 3, -0.04 2.41 C0.03 1.83, 0.52 1.28, 0.73 0.8 C0.94 0.32, 1.05 -0.38, 1.22 -0.46 C1.38 -0.53, 1.63 0.34, 1.73 0.36 M1.66 1.23 C1.94 1.53, 3.69 0.9, 3.96 0.97 C4.23 1.04, 3.22 1.14, 3.29 1.63 C3.35 2.12, 4.67 3.28, 4.34 3.9 C4.02 4.53, 2 5.25, 1.35 5.37 C0.69 5.49, 0.42 4.89, 0.39 4.62 C0.35 4.35, 1.03 4, 1.12 3.73 C1.21 3.45, 1 3.62, 0.91 2.97 C0.82 2.33, 0.25 0.59, 0.57 -0.14 C0.9 -0.86, 2.56 -1.31, 2.85 -1.4 C3.15 -1.48, 2.21 -1.01, 2.35 -0.66" stroke="#e03131" stroke-width="1" fill="none"></path></g></g><g clip-path="url(#6UKdLqWWion_fUex05SLN)"><g stroke-linecap="round" transform="translate(308.6623810730657 189.55873986546186) rotate(0 2.077639050130358 2.322067173675066)"><path d="M2.3 0.22 C2.48 0.3, 2.8 0.36, 3 0.54 C3.2 0.71, 3.33 0.9, 3.51 1.28 C3.69 1.66, 4.28 2.4, 4.09 2.79 C3.89 3.18, 2.92 3.45, 2.36 3.62 C1.8 3.79, 1.01 3.91, 0.72 3.81 C0.43 3.72, 0.77 3.43, 0.61 3.07 C0.45 2.71, -0.22 2.14, -0.24 1.65 C-0.26 1.17, -0.18 0.39, 0.48 0.14 C1.13 -0.11, 3.28 0, 3.67 0.14 C4.05 0.29, 2.92 1.07, 2.79 1.01 M3.02 -0.35 C3.13 -0.17, 2.14 1.85, 2.4 2.08 C2.66 2.31, 4.56 1, 4.57 1.04 C4.57 1.08, 2.77 1.71, 2.45 2.32 C2.13 2.94, 2.84 4.17, 2.65 4.71 C2.46 5.25, 1.7 6.04, 1.31 5.57 C0.91 5.09, 0.36 2.55, 0.28 1.84 C0.19 1.13, 0.56 1.76, 0.79 1.31 C1.02 0.86, 1.42 -0.77, 1.68 -0.86 C1.93 -0.95, 2.1 0.5, 2.33 0.78 C2.56 1.07, 3.31 1.18, 3.07 0.86" stroke="none" stroke-width="0" fill="#e03131"></path><path d="M1.02 -0.52 C1.46 -0.93, 2.7 -1.18, 3.23 -0.8 C3.76 -0.42, 3.96 1.15, 4.22 1.76 C4.48 2.36, 4.8 2.3, 4.8 2.84 C4.79 3.38, 4.72 4.64, 4.19 4.99 C3.66 5.35, 2.2 5.14, 1.61 4.95 C1.01 4.76, 0.83 4.29, 0.63 3.86 C0.43 3.44, 0.53 2.95, 0.42 2.4 C0.31 1.85, -0.25 0.91, -0.03 0.56 C0.19 0.21, 1.38 0.5, 1.75 0.31 C2.11 0.11, 2.08 -0.73, 2.14 -0.61 M1.46 0.33 C1.82 -0.21, 1.24 -0.77, 1.74 -0.65 C2.24 -0.53, 4.25 0.39, 4.47 1.04 C4.69 1.7, 3.34 2.73, 3.09 3.27 C2.83 3.8, 2.9 3.93, 2.93 4.26 C2.96 4.6, 3.48 5.04, 3.27 5.28 C3.06 5.52, 2.28 6.17, 1.67 5.71 C1.05 5.24, -0.24 3.47, -0.42 2.5 C-0.6 1.54, 0.33 0.42, 0.58 -0.09 C0.83 -0.59, 0.76 -0.65, 1.07 -0.53 C1.39 -0.4, 2.51 0.33, 2.44 0.66" stroke="#e03131" stroke-width="1" fill="none"></path></g></g><g clip-path="url(#6UKdLqWWion_fUex05SLN)"><g stroke-linecap="round" transform="translate(311.83994667914703 211.31284286094404) rotate(0 2.077639050130358 2.322067173675066)"><path d="M0.98 -0.16 C1.29 -0.49, 1.8 -0.81, 2.36 -0.7 C2.92 -0.6, 4.09 -0.01, 4.35 0.45 C4.61 0.9, 4.16 1.47, 3.91 2.01 C3.65 2.56, 3.1 3.28, 2.83 3.69 C2.56 4.11, 2.73 4.45, 2.3 4.49 C1.87 4.54, 0.7 4.33, 0.23 3.96 C-0.23 3.58, -0.65 2.75, -0.49 2.25 C-0.32 1.74, 0.88 1.2, 1.24 0.92 C1.59 0.64, 1.39 0.78, 1.65 0.54 C1.9 0.31, 2.63 -0.49, 2.75 -0.47 M1.18 1.34 C1.56 1.25, 3.77 -0.32, 4.05 -0.41 C4.34 -0.49, 2.92 0.13, 2.89 0.85 C2.85 1.57, 3.87 3.07, 3.83 3.9 C3.8 4.72, 3.12 5.94, 2.68 5.79 C2.24 5.64, 1.51 3.49, 1.2 3 C0.89 2.51, 0.89 3.31, 0.83 2.87 C0.76 2.42, 0.79 0.65, 0.81 0.36 C0.84 0.06, 0.59 1.02, 0.97 1.1 C1.35 1.17, 3.11 1.23, 3.11 0.82 C3.11 0.42, 1.25 -1.11, 0.97 -1.32" stroke="none" stroke-width="0" fill="#e03131"></path><path d="M2.91 -0.91 C3.45 -0.64, 3.72 0.88, 4.04 1.44 C4.36 2.01, 4.77 1.92, 4.84 2.47 C4.9 3.02, 4.92 4.33, 4.43 4.74 C3.95 5.15, 2.53 5.04, 1.94 4.93 C1.35 4.83, 1.13 4.45, 0.89 4.09 C0.65 3.73, 0.67 3.29, 0.49 2.76 C0.31 2.23, -0.3 1.26, -0.18 0.89 C-0.07 0.52, 0.67 0.76, 1.2 0.52 C1.73 0.28, 2.63 -0.62, 2.99 -0.53 C3.34 -0.45, 3.55 0.98, 3.35 1.04 M2.01 -0.55 C2.48 -0.4, 4.45 0.63, 4.62 1.32 C4.79 2, 3.36 3.06, 3.04 3.58 C2.73 4.11, 2.72 4.19, 2.71 4.47 C2.7 4.76, 3.2 5.11, 2.99 5.29 C2.78 5.46, 2.02 6.02, 1.44 5.51 C0.87 4.99, -0.35 3.17, -0.48 2.19 C-0.6 1.21, 0.41 0.1, 0.71 -0.37 C1.02 -0.84, 0.78 -0.8, 1.34 -0.64 C1.91 -0.49, 3.96 0.26, 4.11 0.57 C4.25 0.89, 2.37 1.07, 2.21 1.23" stroke="#e03131" stroke-width="1" fill="none"></path></g></g><g clip-path="url(#6UKdLqWWion_fUex05SLN)"><g stroke-linecap="round" transform="translate(269.5538813059061 210.5795584903098) rotate(0 2.077639050130358 2.322067173675066)"><path d="M1.64 -0.94 C2.22 -1.04, 3.54 -0.6, 3.93 -0.25 C4.32 0.1, 4.08 0.62, 3.99 1.18 C3.89 1.74, 3.53 2.57, 3.37 3.11 C3.21 3.66, 3.47 4.21, 3.05 4.43 C2.62 4.66, 1.4 4.68, 0.84 4.45 C0.28 4.22, -0.32 3.52, -0.31 3.06 C-0.3 2.6, 0.78 2.02, 0.91 1.67 C1.03 1.32, 0.15 1.32, 0.43 0.95 C0.72 0.58, 2.21 -0.49, 2.63 -0.55 C3.06 -0.62, 2.97 0.37, 2.99 0.58 M2.24 -1.18 C2.64 -1.73, 1.61 -1.54, 1.94 -1.05 C2.27 -0.56, 3.83 0.85, 4.2 1.76 C4.58 2.67, 4.37 4.21, 4.19 4.42 C4.02 4.63, 3.46 3.06, 3.15 3.04 C2.83 3.01, 2.64 4.38, 2.3 4.29 C1.96 4.2, 1.51 2.73, 1.12 2.5 C0.73 2.28, -0.06 3.13, -0.03 2.96 C-0.01 2.8, 1.2 2.26, 1.27 1.53 C1.34 0.81, 0.47 -1.01, 0.4 -1.38 C0.33 -1.74, 0.72 -1.02, 0.85 -0.65" stroke="none" stroke-width="0" fill="#e03131"></path><path d="M1.73 0.64 C2.18 0.63, 3.03 -0.04, 3.54 0.2 C4.04 0.44, 4.71 1.58, 4.74 2.07 C4.77 2.55, 3.95 2.79, 3.71 3.11 C3.47 3.42, 3.52 3.75, 3.3 3.96 C3.09 4.18, 2.9 4.47, 2.41 4.39 C1.91 4.32, 0.73 3.77, 0.35 3.52 C-0.04 3.28, 0.06 3.43, 0.09 2.92 C0.13 2.4, 0.21 0.78, 0.53 0.43 C0.85 0.08, 1.95 0.96, 2.03 0.81 C2.11 0.66, 0.92 -0.42, 1 -0.48 M2.85 0.06 C3.24 0.3, 2.3 0.98, 2.41 1.35 C2.52 1.73, 3.1 1.84, 3.51 2.31 C3.92 2.78, 4.85 3.59, 4.84 4.2 C4.84 4.82, 4.16 6.04, 3.49 6.01 C2.81 5.98, 1.28 4.72, 0.8 4.04 C0.32 3.37, 0.77 2.46, 0.63 1.97 C0.48 1.47, -0.3 1.26, -0.07 1.08 C0.16 0.9, 1.77 0.9, 2.03 0.88 C2.29 0.87, 1.43 0.96, 1.51 1.01 C1.59 1.07, 2.32 1.13, 2.5 1.21" stroke="#e03131" stroke-width="1" fill="none"></path></g></g><g clip-path="url(#6UKdLqWWion_fUex05SLN)"><g stroke-linecap="round" transform="translate(367.06219315469343 42.387776091744826) rotate(0 12.240744950445674 12.05804726461814)"><path d="M7.25 1.41 C9.47 0.19, 13.31 0.52, 15.69 1.12 C18.07 1.72, 20.08 3.13, 21.53 5 C22.99 6.88, 24.39 9.88, 24.41 12.37 C24.44 14.86, 23.5 18.08, 21.68 19.93 C19.87 21.78, 16.18 23.05, 13.52 23.48 C10.87 23.91, 7.89 23.91, 5.76 22.51 C3.64 21.1, 1.54 17.43, 0.79 15.05 C0.05 12.67, 0.24 10.71, 1.3 8.23 C2.36 5.76, 5.64 1.45, 7.17 0.19 C8.69 -1.06, 10.22 0.51, 10.45 0.7 M8.24 1.11 C10.4 0.41, 14.3 0.42, 17 1.54 C19.7 2.66, 23.14 5.26, 24.44 7.82 C25.73 10.38, 25.75 14.58, 24.77 16.88 C23.79 19.19, 20.81 20.68, 18.57 21.64 C16.33 22.59, 13.87 22.94, 11.32 22.61 C8.78 22.28, 4.98 21.22, 3.3 19.67 C1.62 18.11, 1.52 15.55, 1.26 13.27 C0.99 10.98, 0.31 7.92, 1.71 5.96 C3.1 4, 8.3 2.2, 9.65 1.52 C10.99 0.84, 9.89 1.88, 9.77 1.86" stroke="#1e1e1e" stroke-width="1" fill="none"></path></g></g><g clip-path="url(#6UKdLqWWion_fUex05SLN)"><g stroke-linecap="round"><g transform="translate(378.38944967600173 65.77307987767068) rotate(0 -0.2635496545582896 22.09174981289172)"><path d="M-1.16 0.37 C-0.93 7.74, 0.43 37.26, 0.63 44.67 M0.43 -0.49 C0.63 6.51, 0.2 35.73, 0.01 42.98" stroke="#1e1e1e" stroke-width="1" fill="none"></path></g></g><mask></mask></g><g clip-path="url(#6UKdLqWWion_fUex05SLN)"><g stroke-linecap="round"><g transform="translate(378.80446474065775 108.92807902220244) rotate(0 -6.731397876582321 15.32954789624435)"><path d="M0.63 0.82 C-1.03 3.44, -8.7 11.3, -11.11 16.06 C-13.53 20.82, -13.29 27.1, -13.86 29.38 M-0.5 0.21 C-2.21 2.47, -9.77 9.42, -12.04 14.46 C-14.31 19.5, -13.76 27.72, -14.09 30.45" stroke="#1e1e1e" stroke-width="1" fill="none"></path></g></g><mask></mask></g><g clip-path="url(#6UKdLqWWion_fUex05SLN)"><g stroke-linecap="round"><g transform="translate(377.93159803522303 109.3363417610064) rotate(0 5.907082885382124 15.726808522678425)"><path d="M0.04 1 C1.79 3.15, 8.94 8.94, 11.14 13.73 C13.33 18.51, 12.97 26.95, 13.22 29.7 M-1.4 0.47 C0.22 2.72, 8.38 9.93, 10.72 15.01 C13.06 20.1, 12.3 28.22, 12.64 30.98" stroke="#1e1e1e" stroke-width="1" fill="none"></path></g></g><mask></mask></g><g clip-path="url(#6UKdLqWWion_fUex05SLN)"><g stroke-linecap="round"><g transform="translate(378.5360785070716 85.00600276910387) rotate(0 11.491138158698504 -12.004584159871484)"><path d="M1.01 -0.48 C3.74 -2.44, 12.74 -7.31, 16.39 -10.8 C20.04 -14.29, 21.83 -19.52, 22.9 -21.44 M0.08 -1.77 C2.68 -3.02, 11.98 -5.67, 15.64 -9.3 C19.29 -12.93, 20.81 -21.51, 22.02 -23.53" stroke="#1e1e1e" stroke-width="1" fill="none"></path></g></g><mask></mask></g><g clip-path="url(#6UKdLqWWion_fUex05SLN)"><g stroke-linecap="round"><g transform="translate(378.2338382711473 84.25040217929319) rotate(0 -12.514863398615319 -8.479555549802654)"><path d="M0.37 -0.07 C-2.1 -0.92, -9.68 -2.77, -13.82 -5.57 C-17.96 -8.37, -22.64 -15.09, -24.48 -16.89 M-0.89 -1.15 C-3.63 -2.32, -10.8 -5, -14.88 -7.44 C-18.97 -9.88, -23.73 -14.49, -25.4 -15.79" stroke="#1e1e1e" stroke-width="1" fill="none"></path></g></g><mask></mask></g><g clip-path="url(#6UKdLqWWion_fUex05SLN)"><g stroke-linecap="round" transform="translate(363.65074688780214 76.4677161042436) rotate(0 1.2845210026781047 1.4356411206402129)"><path d="M2.14 -0.02 C2.4 0.09, 1.57 0.79, 1.66 0.9 C1.75 1, 2.51 0.33, 2.68 0.61 C2.84 0.89, 2.77 2.16, 2.66 2.59 C2.55 3.03, 2.36 3.34, 2.01 3.23 C1.66 3.13, 0.74 2.1, 0.58 1.96 C0.41 1.82, 1.26 2.68, 1.04 2.4 C0.81 2.13, -0.53 0.65, -0.78 0.31 C-1.03 -0.02, -0.85 0.44, -0.47 0.41 C-0.09 0.38, 1.04 0.19, 1.52 0.14 C1.99 0.1, 2.52 0.07, 2.35 0.15 M1.12 0.77 C1.38 1.06, 2.73 1.23, 2.72 1.05 C2.72 0.86, 1.3 -0.39, 1.1 -0.34 C0.89 -0.3, 1.47 0.7, 1.48 1.32 C1.49 1.93, 1.42 3.11, 1.17 3.32 C0.93 3.52, 0.18 2.95, 0 2.55 C-0.19 2.15, -0.11 1.31, 0.08 0.93 C0.27 0.54, 1.11 0.18, 1.15 0.24 C1.19 0.3, 0.09 1.58, 0.31 1.29 C0.53 1.01, 2.28 -1.24, 2.47 -1.47 C2.66 -1.7, 1.43 -0.47, 1.47 -0.11" stroke="none" stroke-width="0" fill="#e03131"></path><path d="M1.2 0.27 C1.55 0.2, 1.92 -0.69, 2.2 -0.44 C2.48 -0.19, 2.99 1.46, 2.89 1.77 C2.79 2.09, 1.63 1.27, 1.59 1.46 C1.55 1.64, 2.75 2.76, 2.66 2.89 C2.57 3.02, 1.55 2.28, 1.07 2.26 C0.59 2.24, -0.05 3.03, -0.22 2.77 C-0.4 2.5, -0.14 1.11, 0.04 0.66 C0.22 0.2, 0.6 0.04, 0.85 0.04 C1.1 0.04, 1.35 0.58, 1.54 0.67 C1.73 0.76, 1.85 0.72, 1.98 0.58 M0.98 -0.74 C1.38 -0.49, 3.04 0.15, 3.19 0.61 C3.33 1.07, 1.92 1.58, 1.86 2 C1.8 2.42, 2.75 2.8, 2.82 3.13 C2.89 3.46, 2.71 4.04, 2.29 3.98 C1.88 3.92, 0.6 3.18, 0.32 2.75 C0.03 2.33, 0.68 1.79, 0.57 1.4 C0.47 1.02, -0.05 0.48, -0.33 0.42 C-0.61 0.36, -1.1 1.13, -1.1 1.03 C-1.09 0.92, -0.45 0.03, -0.32 -0.23 C-0.2 -0.49, -0.45 -0.73, -0.35 -0.55" stroke="#e03131" stroke-width="1" fill="none"></path></g></g><g clip-path="url(#6UKdLqWWion_fUex05SLN)"><g stroke-linecap="round" transform="translate(352.6189782765664 65.73818772893236) rotate(0 1.2845210026781047 1.4356411206402129)"><path d="M0.67 0.55 C0.81 0.41, 1.77 -0.51, 2.12 -0.36 C2.48 -0.21, 2.69 0.98, 2.79 1.45 C2.9 1.92, 2.97 2.37, 2.77 2.45 C2.57 2.53, 1.76 1.8, 1.61 1.91 C1.45 2.02, 2.21 3.18, 1.85 3.11 C1.49 3.03, -0.08 1.72, -0.55 1.44 C-1.02 1.16, -1.11 1.58, -0.95 1.43 C-0.78 1.29, -0.06 0.8, 0.44 0.58 C0.94 0.35, 2.05 0.1, 2.05 0.08 C2.06 0.07, 0.63 0.4, 0.47 0.49 M1.49 0.91 C1.49 0.42, 0.25 -1.17, 0.23 -1.33 C0.21 -1.49, 1.11 -0.65, 1.38 -0.06 C1.66 0.52, 1.93 1.82, 1.89 2.19 C1.86 2.57, 1.31 2.31, 1.19 2.2 C1.08 2.09, 1.12 1.64, 1.19 1.53 C1.27 1.41, 1.86 1.31, 1.66 1.5 C1.46 1.68, 0.02 2.99, -0.02 2.63 C-0.05 2.26, 1.26 -0.25, 1.45 -0.69 C1.63 -1.13, 0.94 -0.26, 1.08 -0.03 C1.22 0.21, 2.18 0.43, 2.27 0.71" stroke="none" stroke-width="0" fill="#e03131"></path><path d="M1.17 -0.62 C1.46 -0.63, 2.14 0.74, 2.2 0.89 C2.27 1.04, 1.38 0.11, 1.57 0.29 C1.75 0.47, 3.23 1.69, 3.32 1.98 C3.41 2.27, 2.54 1.81, 2.1 2.03 C1.66 2.26, 0.97 3.38, 0.69 3.33 C0.41 3.28, 0.45 2.11, 0.42 1.75 C0.39 1.38, 0.51 1.23, 0.51 1.15 C0.51 1.07, 0.27 1.39, 0.43 1.29 C0.6 1.19, 1.21 0.8, 1.5 0.54 C1.79 0.27, 2.29 -0.28, 2.17 -0.3 M1.92 0.56 C2.06 0.7, 0.79 0.85, 0.91 1.05 C1.04 1.24, 2.3 1.44, 2.65 1.73 C2.99 2.02, 3.16 2.68, 2.97 2.78 C2.78 2.88, 1.73 2.46, 1.53 2.32 C1.32 2.18, 1.96 2.05, 1.75 1.94 C1.54 1.83, 0.78 1.6, 0.26 1.68 C-0.26 1.75, -1.1 2.59, -1.36 2.41 C-1.63 2.24, -1.43 1.11, -1.33 0.64 C-1.23 0.17, -0.96 -0.47, -0.76 -0.43 C-0.56 -0.39, -0.36 0.84, -0.14 0.87" stroke="#e03131" stroke-width="1" fill="none"></path></g></g><g clip-path="url(#6UKdLqWWion_fUex05SLN)"><g stroke-linecap="round" transform="translate(376.94931726846926 83.26812141253941) rotate(0 1.2845210026781047 1.4356411206402129)"><path d="M1.39 -0.61 C1.78 -0.65, 2.13 0.37, 2.38 0.74 C2.62 1.11, 2.89 1.51, 2.86 1.61 C2.82 1.71, 2.2 1.09, 2.16 1.33 C2.12 1.57, 2.96 2.95, 2.61 3.05 C2.26 3.16, 0.62 2.08, 0.06 1.94 C-0.51 1.81, -0.78 2.36, -0.77 2.26 C-0.76 2.16, -0.24 1.64, 0.1 1.34 C0.43 1.03, 1.15 0.57, 1.24 0.43 C1.33 0.29, 0.57 0.46, 0.63 0.49 C0.69 0.52, 1.57 0.67, 1.58 0.61 M0.18 -1.35 C0.16 -1.54, 1.07 -0.69, 1.36 -0.11 C1.64 0.47, 1.92 1.76, 1.9 2.14 C1.88 2.52, 1.34 2.27, 1.23 2.16 C1.12 2.06, 1.17 1.63, 1.24 1.52 C1.32 1.42, 1.91 1.34, 1.7 1.53 C1.49 1.72, 0.04 3.04, -0.01 2.68 C-0.05 2.32, 1.25 -0.19, 1.42 -0.64 C1.6 -1.09, 0.76 -0.21, 1.04 0 C1.31 0.21, 2.86 0.37, 3.09 0.62 C3.32 0.86, 2.81 1.56, 2.42 1.47" stroke="none" stroke-width="0" fill="#e03131"></path><path d="M1.83 0.77 C1.91 0.81, 1.1 -0.2, 1.35 -0.07 C1.6 0.06, 3.19 1.25, 3.36 1.55 C3.53 1.85, 2.76 1.44, 2.38 1.73 C2 2.02, 1.35 3.26, 1.08 3.3 C0.8 3.35, 0.81 2.29, 0.73 2 C0.65 1.71, 0.68 1.62, 0.6 1.57 C0.52 1.51, 0.19 1.81, 0.26 1.67 C0.33 1.54, 0.64 1.07, 1.02 0.74 C1.41 0.41, 2.51 -0.22, 2.59 -0.28 C2.66 -0.34, 1.78 0.31, 1.45 0.38 M0.32 1.06 C0.42 1.09, 1.76 1.13, 2.18 1.31 C2.61 1.49, 2.92 2.05, 2.86 2.12 C2.8 2.19, 1.91 1.81, 1.82 1.74 C1.72 1.67, 2.47 1.68, 2.31 1.7 C2.14 1.73, 1.39 1.68, 0.83 1.89 C0.26 2.11, -0.68 3.08, -1.06 2.99 C-1.43 2.89, -1.39 1.8, -1.42 1.3 C-1.45 0.8, -1.47 0.1, -1.21 0 C-0.95 -0.09, -0.21 0.8, 0.12 0.73 C0.45 0.66, 0.61 -0.22, 0.77 -0.43" stroke="#e03131" stroke-width="1" fill="none"></path></g></g><g clip-path="url(#6UKdLqWWion_fUex05SLN)"><g stroke-linecap="round" transform="translate(372.86907408349134 49.26609487106049) rotate(0 1.2845210026781047 1.4356411206402129)"><path d="M1.9 0.47 C2.19 0.7, 2.58 1.01, 2.65 1.06 C2.72 1.11, 2.25 0.48, 2.32 0.76 C2.39 1.04, 3.35 2.53, 3.06 2.74 C2.77 2.95, 1.16 2.03, 0.58 2.02 C0 2.01, -0.34 2.71, -0.41 2.69 C-0.49 2.68, -0.1 2.23, 0.12 1.93 C0.34 1.63, 0.97 1.12, 0.92 0.9 C0.88 0.68, -0.25 0.64, -0.15 0.59 C-0.05 0.53, 1.35 0.63, 1.54 0.56 C1.74 0.49, 0.91 0.12, 1.02 0.15 M0.65 -0.66 C1.03 -0.27, 1.52 0.88, 1.67 1.2 C1.83 1.53, 1.53 1.3, 1.59 1.29 C1.65 1.27, 1.87 1.03, 2.03 1.11 C2.19 1.19, 2.79 1.39, 2.54 1.78 C2.28 2.17, 0.69 3.71, 0.49 3.47 C0.29 3.23, 1.36 0.79, 1.35 0.33 C1.34 -0.14, 0.28 0.62, 0.43 0.68 C0.57 0.75, 1.89 0.57, 2.23 0.7 C2.56 0.83, 2.68 1.57, 2.44 1.45 C2.2 1.33, 1.05 0.4, 0.77 0" stroke="none" stroke-width="0" fill="#e03131"></path><path d="M-0.02 -0.46 C0.29 -0.67, 2.12 0.17, 2.53 0.27 C2.95 0.38, 2.56 -0.16, 2.48 0.16 C2.4 0.48, 2.12 1.89, 2.06 2.17 C2 2.45, 2.18 1.8, 2.13 1.84 C2.09 1.89, 2.01 2.23, 1.77 2.45 C1.52 2.68, 0.87 3.24, 0.65 3.19 C0.43 3.14, 0.36 2.65, 0.45 2.18 C0.53 1.71, 1.11 0.69, 1.17 0.37 C1.23 0.05, 0.94 0.34, 0.8 0.27 C0.67 0.2, 0.39 -0.17, 0.36 -0.05 M1.8 1.18 C2.23 1.24, 2.62 1.73, 2.64 1.75 C2.65 1.76, 1.87 1.35, 1.86 1.29 C1.86 1.23, 2.71 1.29, 2.6 1.39 C2.5 1.49, 1.79 1.56, 1.23 1.87 C0.67 2.18, -0.31 3.28, -0.73 3.25 C-1.16 3.23, -1.22 2.21, -1.33 1.74 C-1.44 1.26, -1.57 0.55, -1.39 0.41 C-1.21 0.27, -0.69 1.06, -0.25 0.91 C0.19 0.76, 0.95 -0.23, 1.25 -0.49 C1.54 -0.76, 1.53 -1.01, 1.51 -0.7" stroke="#e03131" stroke-width="1" fill="none"></path></g></g><g clip-path="url(#6UKdLqWWion_fUex05SLN)"><g stroke-linecap="round" transform="translate(382.3896415151057 49.26609487106049) rotate(0 1.2845210026781047 1.4356411206402129)"><path d="M1.21 0.5 C1.37 0.19, 1.19 -0.79, 1.53 -0.7 C1.88 -0.61, 3.27 0.78, 3.3 1.05 C3.34 1.32, 2.1 0.63, 1.74 0.9 C1.37 1.17, 1.19 2.32, 1.11 2.67 C1.04 3.02, 1.29 3.02, 1.3 3 C1.32 2.99, 1.58 2.73, 1.21 2.58 C0.84 2.42, -0.69 2.32, -0.89 2.08 C-1.09 1.84, -0.2 1.48, 0.01 1.13 C0.21 0.78, 0.01 0.09, 0.32 -0.01 C0.63 -0.12, 1.65 0.64, 1.88 0.51 M0.04 0.74 C0.27 0.67, 0.26 0.01, 0.61 -0.24 C0.96 -0.49, 1.64 -0.88, 2.15 -0.76 C2.67 -0.65, 3.71 -0.24, 3.71 0.43 C3.71 1.11, 2.33 3.13, 2.17 3.28 C2 3.44, 2.96 1.52, 2.74 1.38 C2.53 1.25, 1.08 2.32, 0.88 2.49 C0.68 2.66, 1.53 2.45, 1.54 2.42 C1.54 2.38, 1.2 2.65, 0.92 2.26 C0.64 1.87, 0.04 0.61, -0.14 0.07 C-0.31 -0.47, -0.39 -1.15, -0.11 -0.98" stroke="none" stroke-width="0" fill="#e03131"></path><path d="M2.55 0.28 C2.96 0.37, 2.57 -0.14, 2.49 0.18 C2.41 0.5, 2.12 1.91, 2.06 2.19 C2 2.47, 2.17 1.81, 2.12 1.86 C2.07 1.9, 1.99 2.23, 1.75 2.45 C1.5 2.67, 0.85 3.23, 0.63 3.18 C0.41 3.13, 0.35 2.63, 0.44 2.16 C0.53 1.68, 1.15 0.65, 1.18 0.35 C1.2 0.05, 0.63 0.37, 0.6 0.33 C0.56 0.29, 0.8 -0.03, 0.95 0.11 C1.11 0.24, 1.35 1.17, 1.54 1.13 M2.11 1.36 C2.19 1.23, 1.56 0.72, 1.68 0.62 C1.81 0.51, 2.83 0.59, 2.85 0.75 C2.87 0.9, 2.29 1.11, 1.79 1.55 C1.29 2, 0.33 3.29, -0.12 3.42 C-0.58 3.54, -0.73 2.69, -0.95 2.3 C-1.17 1.92, -1.48 1.26, -1.43 1.11 C-1.39 0.96, -1.02 1.67, -0.68 1.42 C-0.34 1.16, 0.22 -0.07, 0.62 -0.41 C1.03 -0.76, 1.64 -0.95, 1.77 -0.66 C1.89 -0.36, 1.4 1.32, 1.37 1.35" stroke="#e03131" stroke-width="1" fill="none"></path></g></g><g clip-path="url(#6UKdLqWWion_fUex05SLN)"><g stroke-linecap="round" transform="translate(377.55379774031735 54.10193864584852) rotate(0 1.2845210026781047 1.4356411206402129)"><path d="M1.31 -0.78 C1.66 -0.77, 3.09 0.59, 3.17 0.83 C3.25 1.06, 2.08 0.36, 1.77 0.64 C1.45 0.92, 1.33 2.09, 1.29 2.49 C1.25 2.88, 1.53 2.95, 1.54 2.99 C1.56 3.03, 1.8 2.85, 1.4 2.74 C1 2.63, -0.59 2.57, -0.84 2.34 C-1.09 2.11, -0.22 1.73, -0.1 1.37 C0.02 1, -0.52 0.28, -0.13 0.15 C0.26 0.01, 1.8 0.71, 2.22 0.56 C2.63 0.4, 2.63 -0.61, 2.38 -0.77 M0.01 -0.24 C0.35 -0.65, 1.09 -1.2, 1.69 -1.19 C2.29 -1.19, 3.48 -0.88, 3.61 -0.23 C3.74 0.42, 2.52 2.47, 2.47 2.7 C2.41 2.93, 3.47 1.15, 3.3 1.15 C3.13 1.16, 1.69 2.41, 1.45 2.72 C1.2 3.03, 1.94 2.96, 1.84 3 C1.73 3.03, 1.23 3.34, 0.82 2.92 C0.42 2.51, -0.48 1.18, -0.59 0.5 C-0.7 -0.17, -0.25 -1.18, 0.16 -1.12 C0.56 -1.06, 1.46 0.87, 1.82 0.86" stroke="none" stroke-width="0" fill="#e03131"></path><path d="M1.02 -0.53 C1.05 -0.57, 1.09 0.49, 1.34 0.59 C1.58 0.7, 2.2 -0.02, 2.49 0.11 C2.77 0.24, 3.07 0.85, 3.03 1.38 C2.99 1.91, 2.47 2.94, 2.23 3.28 C1.99 3.61, 1.75 3.57, 1.61 3.38 C1.47 3.19, 1.68 2.39, 1.37 2.13 C1.05 1.87, 0.07 2.09, -0.28 1.83 C-0.63 1.56, -0.86 0.7, -0.73 0.54 C-0.6 0.38, 0.16 1.01, 0.51 0.85 C0.85 0.7, 1.14 -0.31, 1.34 -0.38 M1.07 0.02 C1.3 -0.25, 2.53 -0.28, 2.72 -0.15 C2.91 -0.03, 2.55 0.22, 2.21 0.77 C1.86 1.31, 1.05 2.81, 0.65 3.12 C0.25 3.43, 0.09 2.83, -0.19 2.62 C-0.47 2.42, -0.92 1.96, -1.03 1.9 C-1.14 1.85, -1.01 2.6, -0.83 2.31 C-0.66 2.02, -0.31 0.66, -0.01 0.16 C0.29 -0.33, 0.71 -0.87, 0.95 -0.67 C1.19 -0.47, 1.31 1.33, 1.44 1.35 C1.57 1.36, 1.55 -0.42, 1.73 -0.58" stroke="#e03131" stroke-width="1" fill="none"></path></g></g><g clip-path="url(#6UKdLqWWion_fUex05SLN)"><g stroke-linecap="round" transform="translate(392.51468941856876 73.8986740988874) rotate(0 1.2845210026781047 1.4356411206402129)"><path d="M2.44 0.31 C2.61 0.35, 1.64 -0.5, 1.5 -0.28 C1.37 -0.07, 1.48 1.12, 1.62 1.59 C1.75 2.06, 2.21 2.31, 2.31 2.54 C2.41 2.77, 2.68 2.85, 2.25 2.94 C1.81 3.04, 0.09 3.21, -0.31 3.11 C-0.71 3, -0.07 2.71, -0.14 2.34 C-0.2 1.96, -0.94 1.15, -0.71 0.86 C-0.49 0.58, 0.69 0.92, 1.2 0.64 C1.71 0.36, 2.36 -0.66, 2.34 -0.83 C2.32 -0.99, 1.26 -0.47, 1.09 -0.36 M1.37 -1.32 C1.98 -1.41, 3.24 -1.16, 3.43 -0.55 C3.62 0.06, 2.5 2.09, 2.52 2.33 C2.54 2.57, 3.68 0.84, 3.56 0.9 C3.44 0.97, 2.03 2.32, 1.78 2.71 C1.54 3.1, 2.25 3.14, 2.1 3.23 C1.95 3.33, 1.36 3.7, 0.89 3.3 C0.41 2.9, -0.58 1.55, -0.76 0.83 C-0.93 0.12, -0.68 -0.98, -0.16 -0.98 C0.36 -0.99, 1.87 0.87, 2.37 0.82 C2.87 0.77, 3.08 -1.24, 2.86 -1.31" stroke="none" stroke-width="0" fill="#e03131"></path><path d="M0.91 0.47 C1.17 0.46, 1.88 -0.36, 2.24 -0.29 C2.59 -0.21, 3.02 0.36, 3.07 0.9 C3.12 1.43, 2.71 2.52, 2.54 2.93 C2.37 3.34, 2.18 3.43, 2.04 3.34 C1.91 3.25, 2.09 2.58, 1.72 2.41 C1.36 2.23, 0.27 2.53, -0.17 2.3 C-0.61 2.06, -0.95 1.19, -0.91 0.98 C-0.88 0.78, -0.42 1.31, 0.05 1.08 C0.52 0.85, 1.47 -0.27, 1.88 -0.38 C2.29 -0.5, 2.41 0.25, 2.49 0.39 M2.11 -0.79 C2.42 -0.83, 2.28 -0.68, 2.11 -0.16 C1.94 0.37, 1.36 1.92, 1.11 2.34 C0.86 2.76, 0.84 2.37, 0.61 2.36 C0.38 2.35, -0.09 2.14, -0.27 2.27 C-0.45 2.4, -0.47 3.35, -0.46 3.15 C-0.45 2.94, -0.32 1.61, -0.2 1.07 C-0.08 0.53, 0.15 -0.15, 0.28 -0.11 C0.42 -0.07, 0.36 1.37, 0.61 1.29 C0.86 1.22, 1.45 -0.42, 1.78 -0.58 C2.12 -0.74, 2.78 0.13, 2.62 0.34" stroke="#e03131" stroke-width="1" fill="none"></path></g></g><g clip-path="url(#6UKdLqWWion_fUex05SLN)"><g stroke-linecap="round" transform="translate(399.9195751987123 61.20458419006849) rotate(0 1.2845210026781047 1.4356411206402129)"><path d="M-0.02 -0.73 C-0.09 -0.89, 0.29 -0.1, 0.7 0.15 C1.11 0.4, 2 0.53, 2.44 0.78 C2.88 1.04, 3.55 1.33, 3.35 1.69 C3.16 2.05, 1.63 2.66, 1.26 2.94 C0.9 3.21, 1.42 3.4, 1.16 3.34 C0.9 3.27, -0.19 2.75, -0.29 2.56 C-0.4 2.38, 0.38 2.69, 0.54 2.24 C0.7 1.79, 0.76 0.31, 0.67 -0.16 C0.58 -0.63, 0.01 -0.56, 0.01 -0.6 C0 -0.64, 0.4 -0.42, 0.63 -0.4 M2.31 -1.08 C2.59 -0.76, 1.71 1.01, 1.96 1.12 C2.22 1.23, 3.7 -0.55, 3.83 -0.42 C3.96 -0.29, 2.84 1.27, 2.76 1.89 C2.67 2.51, 3.48 2.91, 3.32 3.3 C3.15 3.69, 2.43 4.41, 1.78 4.22 C1.12 4.04, -0.18 2.86, -0.61 2.18 C-1.04 1.51, -1.12 0.32, -0.82 0.16 C-0.52 0, 0.65 1.47, 1.21 1.22 C1.76 0.97, 2.58 -1.2, 2.5 -1.36 C2.42 -1.51, 1.1 -0.1, 0.72 0.29" stroke="none" stroke-width="0" fill="#e03131"></path><path d="M0.96 -0.65 C1.37 -0.9, 2.02 -0.65, 2.3 -0.3 C2.58 0.05, 2.53 1.03, 2.64 1.46 C2.75 1.89, 2.9 2.15, 2.96 2.28 C3.03 2.42, 3.37 2.12, 3.03 2.26 C2.69 2.4, 1.52 3.1, 0.92 3.13 C0.32 3.15, -0.32 2.52, -0.56 2.4 C-0.79 2.28, -0.66 2.78, -0.49 2.42 C-0.32 2.05, 0.1 0.58, 0.48 0.21 C0.86 -0.15, 1.52 0.23, 1.79 0.24 C2.06 0.26, 2.06 0.39, 2.09 0.3 M0.92 -0.97 C0.89 -0.75, 0.62 0.54, 0.66 0.86 C0.69 1.17, 1.07 0.79, 1.12 0.9 C1.17 1.01, 1 1.1, 0.96 1.52 C0.93 1.95, 0.96 3.33, 0.91 3.45 C0.86 3.58, 0.78 2.63, 0.67 2.29 C0.56 1.96, 0.41 1.42, 0.25 1.45 C0.08 1.48, -0.34 2.77, -0.31 2.47 C-0.29 2.17, 0 0.03, 0.4 -0.35 C0.8 -0.73, 2.07 0.05, 2.06 0.19 C2.05 0.32, 0.37 0.37, 0.34 0.44" stroke="#e03131" stroke-width="1" fill="none"></path></g></g><g clip-path="url(#6UKdLqWWion_fUex05SLN)"><g stroke-linecap="round" transform="translate(377.2515575043931 107.29622016851778) rotate(0 1.2845210026781047 1.4356411206402129)"><path d="M0.51 0.1 C0.92 0.29, 1.84 0.38, 2.32 0.61 C2.79 0.83, 3.52 1.1, 3.36 1.47 C3.21 1.83, 1.73 2.47, 1.39 2.78 C1.06 3.08, 1.61 3.32, 1.36 3.31 C1.1 3.29, 0 2.82, -0.13 2.68 C-0.25 2.54, 0.48 2.89, 0.6 2.45 C0.72 2.01, 0.75 0.52, 0.59 0.04 C0.44 -0.44, -0.42 -0.36, -0.33 -0.43 C-0.23 -0.5, 0.75 -0.38, 1.18 -0.38 C1.6 -0.39, 2.17 -0.56, 2.21 -0.48 M0.68 1 C0.93 0.8, 2.59 -1.34, 2.91 -1.43 C3.24 -1.52, 2.44 -0.13, 2.63 0.46 C2.82 1.05, 3.98 1.55, 4.05 2.11 C4.11 2.68, 3.6 3.73, 3.02 3.84 C2.44 3.95, 1.11 3.18, 0.57 2.78 C0.02 2.39, -0.32 1.49, -0.27 1.46 C-0.21 1.43, 0.6 2.94, 0.88 2.61 C1.17 2.28, 1.55 -0.15, 1.45 -0.52 C1.35 -0.89, 0.56 0.14, 0.28 0.4 C0 0.66, -0.38 1.25, -0.24 1.02" stroke="none" stroke-width="0" fill="#e03131"></path><path d="M2.08 -0.38 C2.37 -0.1, 2.36 0.85, 2.52 1.25 C2.67 1.65, 2.88 1.89, 3 2.03 C3.11 2.17, 3.51 1.91, 3.2 2.09 C2.9 2.27, 1.74 3.04, 1.15 3.12 C0.55 3.2, -0.11 2.63, -0.38 2.56 C-0.65 2.48, -0.57 3.02, -0.45 2.67 C-0.32 2.31, 0.06 0.82, 0.37 0.44 C0.67 0.06, 1.03 0.4, 1.38 0.38 C1.73 0.37, 2.24 0.46, 2.45 0.33 C2.65 0.21, 2.75 -0.35, 2.6 -0.34 M-0.53 0.61 C-0.46 0.63, 0.1 -0.06, 0.35 -0.14 C0.6 -0.21, 0.75 -0.25, 0.97 0.18 C1.19 0.61, 1.54 2.11, 1.69 2.43 C1.84 2.74, 1.93 2.12, 1.86 2.07 C1.79 2.02, 1.58 1.86, 1.29 2.13 C0.99 2.41, 0.31 3.94, 0.09 3.74 C-0.13 3.53, -0.17 1.4, -0.02 0.91 C0.13 0.43, 1.01 0.92, 1.02 0.85 C1.02 0.78, -0.1 0.53, -0.01 0.48 C0.07 0.43, 1.26 0.67, 1.53 0.56" stroke="#e03131" stroke-width="1" fill="none"></path></g></g><g clip-path="url(#6UKdLqWWion_fUex05SLN)"><g stroke-linecap="round" transform="translate(367.27762971889297 121.65263137491985) rotate(0 1.2845210026781047 1.4356411206402129)"><path d="M0.84 0.26 C1.36 0.12, 2.33 0, 2.43 0.14 C2.53 0.28, 1.45 0.77, 1.44 1.09 C1.43 1.41, 2.38 1.82, 2.37 2.05 C2.35 2.27, 1.45 2.23, 1.37 2.44 C1.29 2.66, 1.94 3.47, 1.89 3.34 C1.84 3.21, 1.53 2.02, 1.06 1.65 C0.6 1.28, -0.65 1.35, -0.89 1.14 C-1.12 0.92, -0.7 0.65, -0.35 0.37 C0 0.09, 1.04 -0.49, 1.22 -0.55 C1.4 -0.62, 0.93 -0.27, 0.72 -0.01 M2.14 -1.38 C2.44 -1.67, 1.72 -0.5, 2.01 -0.06 C2.3 0.38, 3.65 0.75, 3.87 1.27 C4.1 1.79, 3.8 2.87, 3.37 3.06 C2.94 3.26, 1.76 2.67, 1.28 2.44 C0.8 2.22, 0.47 1.56, 0.48 1.71 C0.48 1.86, 1.16 3.57, 1.31 3.34 C1.45 3.11, 1.62 0.73, 1.35 0.34 C1.09 -0.05, -0.03 0.89, -0.28 0.99 C-0.53 1.09, -0.4 1.3, -0.15 0.95 C0.1 0.59, 0.82 -1.13, 1.2 -1.14" stroke="none" stroke-width="0" fill="#e03131"></path><path d="M1.04 0.76 C1.27 0.8, 1.76 0.66, 2.15 0.6 C2.54 0.54, 3.36 0.16, 3.38 0.38 C3.4 0.61, 2.63 1.59, 2.26 1.93 C1.89 2.28, 1.4 2.16, 1.16 2.45 C0.91 2.75, 0.86 3.75, 0.79 3.69 C0.72 3.63, 0.74 2.4, 0.73 2.11 C0.71 1.81, 0.66 2.11, 0.69 1.92 C0.73 1.74, 0.75 1.39, 0.95 0.99 C1.15 0.6, 1.86 -0.32, 1.9 -0.45 C1.94 -0.57, 1.45 0.16, 1.21 0.23 M-0.55 -0.17 C-0.31 -0.47, -0.05 -0.76, 0.3 -0.49 C0.65 -0.23, 1.23 1.15, 1.57 1.43 C1.91 1.72, 2.24 1.15, 2.34 1.21 C2.43 1.28, 2.38 1.34, 2.14 1.82 C1.91 2.31, 1.22 4.12, 0.93 4.11 C0.64 4.11, 0.42 2.18, 0.4 1.8 C0.39 1.42, 1.02 1.95, 0.83 1.83 C0.64 1.72, -0.83 1.32, -0.72 1.1 C-0.61 0.88, 1.13 0.77, 1.5 0.54 C1.88 0.31, 1.84 -0.43, 1.54 -0.27" stroke="#e03131" stroke-width="1" fill="none"></path></g></g><g clip-path="url(#6UKdLqWWion_fUex05SLN)"><g stroke-linecap="round" transform="translate(387.22548528989364 124.22167338027617) rotate(0 1.2845210026781047 1.4356411206402129)"><path d="M2.14 0.09 C2.24 0.13, 1.21 0.57, 1.25 0.84 C1.29 1.11, 2.31 1.49, 2.36 1.72 C2.41 1.94, 1.59 1.93, 1.56 2.19 C1.52 2.45, 2.22 3.34, 2.18 3.28 C2.14 3.22, 1.81 2.12, 1.32 1.81 C0.83 1.5, -0.49 1.63, -0.78 1.45 C-1.08 1.26, -0.72 0.98, -0.44 0.68 C-0.16 0.38, 0.62 -0.22, 0.9 -0.35 C1.17 -0.48, 1.27 -0.3, 1.21 -0.1 C1.15 0.09, 0.63 0.77, 0.54 0.8 M1.95 -0.08 C2.24 0.32, 3.6 0.7, 3.84 1.21 C4.08 1.72, 3.8 2.8, 3.38 3 C2.96 3.19, 1.8 2.61, 1.33 2.4 C0.85 2.18, 0.53 1.54, 0.54 1.71 C0.54 1.87, 1.22 3.6, 1.36 3.38 C1.49 3.17, 1.65 0.8, 1.37 0.41 C1.09 0.02, -0.05 0.96, -0.31 1.05 C-0.58 1.15, -0.59 1.35, -0.21 0.97 C0.18 0.6, 1.5 -1.16, 2.01 -1.2 C2.53 -1.24, 2.82 0.75, 2.89 0.73" stroke="none" stroke-width="0" fill="#e03131"></path><path d="M1.45 0.55 C1.83 0.3, 2.75 -0.26, 2.87 -0.16 C3 -0.06, 2.41 0.83, 2.19 1.16 C1.97 1.48, 1.67 1.42, 1.55 1.8 C1.43 2.19, 1.49 3.37, 1.46 3.47 C1.43 3.58, 1.44 2.57, 1.37 2.43 C1.29 2.28, 1.1 2.74, 1 2.62 C0.9 2.51, 0.76 2.18, 0.78 1.75 C0.8 1.33, 1.07 0.34, 1.13 0.08 C1.18 -0.18, 1.2 0.25, 1.13 0.2 C1.07 0.16, 0.85 -0.02, 0.75 -0.19 M0.06 -0.57 C0.42 -0.38, 1.05 0.95, 1.43 1.21 C1.81 1.46, 2.21 0.87, 2.36 0.94 C2.51 1.01, 2.52 1.1, 2.32 1.63 C2.12 2.16, 1.46 4.04, 1.17 4.09 C0.88 4.15, 0.65 2.3, 0.6 1.96 C0.56 1.63, 1.13 2.21, 0.89 2.1 C0.65 2, -0.89 1.59, -0.83 1.35 C-0.76 1.11, 0.78 0.93, 1.28 0.65 C1.78 0.37, 2.34 -0.46, 2.17 -0.34 C2.01 -0.22, 0.34 1.48, 0.29 1.37" stroke="#e03131" stroke-width="1" fill="none"></path></g></g><g clip-path="url(#6UKdLqWWion_fUex05SLN)"><g stroke-linecap="round" transform="translate(389.1900468234012 137.67136387890542) rotate(0 1.2845210026781047 1.4356411206402129)"><path d="M0.47 0.46 C0.56 0.53, 1.76 0.74, 1.98 0.87 C2.19 1, 1.6 0.95, 1.75 1.26 C1.9 1.57, 2.79 2.61, 2.86 2.71 C2.93 2.81, 2.68 1.97, 2.17 1.86 C1.67 1.76, 0.26 2.14, -0.16 2.1 C-0.58 2.06, -0.44 1.9, -0.34 1.63 C-0.24 1.35, 0.32 0.69, 0.43 0.45 C0.54 0.2, 0.3 0.11, 0.34 0.17 C0.38 0.23, 0.56 0.81, 0.67 0.8 C0.78 0.79, 0.78 0.05, 1.02 0.09 M2.16 0.74 C2.47 0.84, 2.48 1.47, 2.36 1.43 C2.25 1.38, 1.55 0.65, 1.45 0.47 C1.35 0.28, 1.47 -0.13, 1.74 0.32 C2.01 0.77, 2.9 2.99, 3.08 3.18 C3.25 3.38, 3.29 1.54, 2.8 1.49 C2.31 1.45, 0.78 2.71, 0.16 2.91 C-0.46 3.12, -0.96 3.28, -0.91 2.74 C-0.86 2.19, -0.02 -0.04, 0.46 -0.36 C0.93 -0.68, 1.75 0.97, 1.93 0.82 C2.11 0.66, 1.78 -1, 1.54 -1.3" stroke="none" stroke-width="0" fill="#e03131"></path><path d="M2.69 -0.25 C2.82 -0.21, 2.28 0.65, 2.1 0.96 C1.92 1.26, 1.67 1.19, 1.59 1.59 C1.51 1.99, 1.63 3.2, 1.62 3.34 C1.62 3.48, 1.65 2.53, 1.57 2.44 C1.49 2.35, 1.27 2.85, 1.15 2.78 C1.02 2.7, 0.82 2.39, 0.8 1.97 C0.78 1.55, 1.02 0.54, 1.02 0.26 C1.01 -0.02, 0.73 0.35, 0.77 0.29 C0.81 0.24, 1.16 0.1, 1.25 -0.07 C1.35 -0.23, 1.2 -0.57, 1.35 -0.67 M0.33 0.69 C0.8 0.66, 1.45 -0.18, 1.82 -0.24 C2.2 -0.3, 2.53 -0.25, 2.58 0.34 C2.63 0.92, 2.25 3.01, 2.12 3.29 C1.99 3.57, 1.85 2.08, 1.79 2.03 C1.73 1.98, 2.17 2.9, 1.76 3.01 C1.35 3.11, -0.49 2.87, -0.68 2.67 C-0.87 2.46, 0.35 2.2, 0.63 1.77 C0.92 1.33, 1.15 0.12, 1.04 0.05 C0.93 -0.03, -0.13 1.52, -0.04 1.32 C0.05 1.12, 1.6 -0.73, 1.59 -1.17" stroke="#e03131" stroke-width="1" fill="none"></path></g></g><g clip-path="url(#6UKdLqWWion_fUex05SLN)"><g stroke-linecap="round" transform="translate(363.0462664159536 137.21800352501901) rotate(0 1.2845210026781047 1.4356411206402129)"><path d="M1.14 0.47 C1.42 0.38, 1.02 0.14, 1.34 0.35 C1.66 0.56, 2.81 1.57, 3.07 1.72 C3.33 1.87, 3.29 1.18, 2.9 1.25 C2.51 1.33, 1.17 1.98, 0.74 2.15 C0.31 2.33, 0.35 2.44, 0.32 2.32 C0.29 2.2, 0.62 1.67, 0.54 1.45 C0.46 1.24, 0 1.08, -0.16 1.02 C-0.31 0.95, -0.57 1.23, -0.4 1.06 C-0.22 0.89, 0.43 0.02, 0.91 0.02 C1.39 0.02, 2.53 1.02, 2.48 1.08 M2.04 1.4 C1.91 1.26, 1.27 0.45, 1.22 0.21 C1.16 -0.03, 1.37 -0.49, 1.71 -0.04 C2.05 0.4, 3.03 2.65, 3.26 2.89 C3.49 3.12, 3.58 1.37, 3.11 1.4 C2.64 1.43, 1.1 2.79, 0.46 3.06 C-0.19 3.34, -0.76 3.58, -0.77 3.06 C-0.79 2.55, -0.03 0.33, 0.38 -0.01 C0.78 -0.35, 1.38 1.27, 1.67 1.03 C1.95 0.78, 2.19 -1.12, 2.08 -1.49 C1.97 -1.86, 1.4 -1.33, 1.02 -1.19" stroke="none" stroke-width="0" fill="#e03131"></path><path d="M1.32 0.3 C1.26 0.4, 1.25 0.18, 1.37 0.53 C1.5 0.87, 1.88 2.13, 2.06 2.37 C2.25 2.62, 2.46 1.89, 2.46 2.01 C2.46 2.13, 2.26 2.95, 2.08 3.09 C1.89 3.24, 1.53 3.18, 1.33 2.88 C1.13 2.59, 1.11 1.65, 0.9 1.34 C0.69 1.03, 0.19 1.27, 0.06 1.03 C-0.07 0.8, -0.07 0.22, 0.12 -0.08 C0.32 -0.39, 0.85 -0.7, 1.24 -0.78 C1.64 -0.86, 2.42 -0.58, 2.49 -0.56 M0.83 -0.48 C1.23 -0.79, 1.74 -1, 1.96 -0.56 C2.18 -0.12, 2.07 1.86, 2.15 2.15 C2.24 2.45, 2.37 1.07, 2.47 1.19 C2.57 1.3, 3.15 2.5, 2.77 2.85 C2.39 3.19, 0.49 3.27, 0.18 3.27 C-0.12 3.27, 0.87 3.21, 0.95 2.85 C1.02 2.49, 0.97 1.27, 0.66 1.1 C0.34 0.94, -1.07 2.23, -0.94 1.85 C-0.81 1.47, 1.33 -0.64, 1.44 -1.17 C1.56 -1.71, -0.19 -1.61, -0.23 -1.37" stroke="#e03131" stroke-width="1" fill="none"></path></g></g></svg>