<svg version="1.1" xmlns="http://www.w3.org/2000/svg" viewBox="0 0 610.7815593509968 401.7329461408441" width="610.7815593509968" height="401.7329461408441">
  <!-- svg-source:excalidraw -->
  
  <defs>
    <style class="style-fonts">
      @font-face {
        font-family: "Virgil";
        src: url("https://excalidraw.com/Virgil.woff2");
      }
      @font-face {
        font-family: "Cascadia";
        src: url("https://excalidraw.com/Cascadia.woff2");
      }
    </style>
    
  </defs>
  <g stroke-linecap="round" transform="translate(547.9882619145599 59.65889677436516) rotate(340.1848910826517 24.200662187436535 17.18318690662383)"><path d="M8.59 0 M8.59 0 C16.4 -0.41, 25.11 0.92, 39.81 0 M8.59 0 C15.55 0.96, 23.3 0.95, 39.81 0 M39.81 0 C44.32 0.73, 49.21 1.07, 48.4 8.59 M39.81 0 C46.21 -0.91, 46.12 4.79, 48.4 8.59 M48.4 8.59 C48.87 12.82, 48.88 18.35, 48.4 25.77 M48.4 8.59 C49.01 14.38, 49.19 20.22, 48.4 25.77 M48.4 25.77 C48.09 29.71, 47.36 35.47, 39.81 34.37 M48.4 25.77 C50.61 29.26, 46.7 34.8, 39.81 34.37 M39.81 34.37 C27.71 33.28, 17.18 35.76, 8.59 34.37 M39.81 34.37 C29.51 33.81, 19.49 34.65, 8.59 34.37 M8.59 34.37 C2.76 33.57, -1.59 31.04, 0 25.77 M8.59 34.37 C1.38 36.29, -1.38 30.93, 0 25.77 M0 25.77 C0.93 20.35, -1.53 14.51, 0 8.59 M0 25.77 C-0.69 20.13, 0.28 14.41, 0 8.59 M0 8.59 C-0.99 1.53, 4.64 1.13, 8.59 0 M0 8.59 C2 4.48, 2.47 -0.96, 8.59 0" stroke="#4dabf7" stroke-width="1" fill="none"></path></g><g stroke-linecap="round"><g transform="translate(549.6408431159464 83.02682177186102) rotate(340.1848910826517 -10.510888440884912 5.5182164314645945)"><path d="M0.49 -0.83 C-2.84 -3.39, -17.59 -20.29, -21.18 -15.88 C-24.77 -11.46, -24.57 21.2, -21.03 25.66 C-17.49 30.12, -3.59 13.28, 0.06 10.88 M-0.71 1.35 C-3.54 -1.05, -15.38 -19.05, -18.83 -14.81 C-22.28 -10.57, -24.52 22.36, -21.39 26.79 C-18.26 31.21, -3.55 14.29, -0.07 11.76" stroke="#4dabf7" stroke-width="1" fill="none"></path></g></g><mask></mask><g stroke-linecap="round" transform="translate(204.84084794435358 124.99814081776981) rotate(0 29.20084264190382 28.765009169636585)"><path d="M22.89 0.92 C28.64 -0.87, 37.26 0.26, 42.76 3.07 C48.26 5.87, 53.55 12.17, 55.89 17.76 C58.24 23.34, 58.57 30.71, 56.82 36.57 C55.08 42.44, 50.51 49.41, 45.43 52.95 C40.34 56.48, 32.49 58.4, 26.32 57.8 C20.15 57.2, 12.83 54.07, 8.4 49.34 C3.97 44.6, 0.16 35.65, -0.27 29.4 C-0.7 23.14, 1.25 16.85, 5.83 11.83 C10.41 6.8, 23.1 1.2, 27.23 -0.77 C31.36 -2.75, 30.55 -0.56, 30.59 0 M39.36 2.31 C44.93 4.1, 51.43 9.25, 54.26 14.84 C57.08 20.44, 57.6 29.81, 56.31 35.88 C55.03 41.95, 51.11 47.53, 46.55 51.26 C41.99 54.98, 35.28 58.47, 28.94 58.22 C22.59 57.97, 13.12 54.27, 8.48 49.75 C3.84 45.24, 1.49 37.1, 1.08 31.1 C0.66 25.1, 2.69 18.96, 6 13.76 C9.3 8.55, 15.18 2.04, 20.92 -0.11 C26.67 -2.26, 37.14 0.19, 40.47 0.88 C43.81 1.56, 40.84 3.19, 40.91 4.01" stroke="#1e1e1e" stroke-width="1" fill="none"></path></g><g stroke-linecap="round"><g transform="translate(231.8625232249213 180.78482526797404) rotate(0 -0.07106578461980462 52.03632599142864)"><path d="M-0.93 -1.2 C-0.77 16.46, 0.1 87.7, 0.15 105.27 M0.78 0.79 C0.88 18.16, -0.31 86.07, -0.71 103.5" stroke="#1e1e1e" stroke-width="1" fill="none"></path></g></g><mask></mask><g stroke-linecap="round"><g transform="translate(232.85256015862916 283.73299911952387) rotate(0 -18.38513494978065 36.13480846793345)"><path d="M0.41 0.88 C-4.14 7, -20.72 24.07, -26.81 35.92 C-32.89 47.77, -34.82 66.25, -36.09 71.97 M-0.84 0.3 C-5.6 6.68, -21.81 25.83, -27.86 37.45 C-33.92 49.07, -36.22 64.45, -37.18 70.02" stroke="#1e1e1e" stroke-width="1" fill="none"></path></g></g><mask></mask><g stroke-linecap="round"><g transform="translate(230.77029772967245 284.70692807896467) rotate(0 14.89571253509439 35.54339082097346)"><path d="M-1.04 -0.27 C3 5.26, 19.19 22.04, 24.5 33.95 C29.81 45.85, 29.89 64.86, 30.83 71.16 M0.62 -1.46 C4.51 4.22, 18.81 23.18, 23.73 35.52 C28.66 47.85, 29.1 66.88, 30.16 72.55" stroke="#1e1e1e" stroke-width="1" fill="none"></path></g></g><mask></mask><g stroke-linecap="round"><g transform="translate(232.21231283659682 226.6658200252544) rotate(0 27.33713401142637 -26.34142177067389)"><path d="M0.68 0.77 C7.11 -3.47, 30.22 -15.38, 39.29 -24.42 C48.36 -33.45, 52.31 -48.86, 55.1 -53.45 M-0.42 0.12 C5.89 -3.89, 29.78 -17.11, 38.9 -25.92 C48.02 -34.73, 51.33 -48.63, 54.3 -52.75" stroke="#1e1e1e" stroke-width="1" fill="none"></path></g></g><mask></mask><g stroke-linecap="round"><g transform="translate(231.4913052831343 224.86330114159887) rotate(0 -29.11233014398516 -19.11130911320987)"><path d="M0.19 1.12 C-5.06 -1.17, -21.99 -7.93, -31.76 -14.68 C-41.52 -21.42, -53.95 -35.38, -58.41 -39.34 M-1.18 0.66 C-6.5 -1.36, -23.22 -6.82, -32.34 -13.27 C-41.46 -19.72, -51.51 -33.51, -55.9 -38.04" stroke="#1e1e1e" stroke-width="1" fill="none"></path></g></g><mask></mask><g stroke-linecap="round" transform="translate(196.70269082858118 206.2973566399462) rotate(0 3.06428210221452 3.424785878945613)"><path d="M3.65 0.91 C4.04 0.81, 3.86 -0.47, 4.19 -0.2 C4.52 0.08, 5.4 1.81, 5.61 2.57 C5.82 3.33, 5.75 3.53, 5.45 4.36 C5.15 5.18, 4.47 7.16, 3.81 7.51 C3.16 7.86, 2 6.81, 1.51 6.44 C1.01 6.07, 1.2 5.98, 0.82 5.3 C0.45 4.62, -0.66 3.08, -0.75 2.36 C-0.85 1.65, -0.55 1.46, 0.26 1.01 C1.07 0.57, 3.32 -0.15, 4.1 -0.29 C4.89 -0.44, 5.09 0.18, 4.95 0.15 M5.34 1.33 C5.67 1.56, 4.83 1.63, 4.73 2.04 C4.63 2.45, 4.51 2.89, 4.74 3.8 C4.97 4.71, 6.24 7, 6.12 7.51 C6 8.03, 4.75 6.96, 4.03 6.9 C3.32 6.85, 2.65 7.83, 1.85 7.17 C1.04 6.51, -0.43 3.75, -0.8 2.92 C-1.18 2.1, -0.82 2.56, -0.41 2.22 C0.01 1.87, 0.89 1.21, 1.68 0.86 C2.48 0.52, 4.15 0.16, 4.38 0.15 C4.61 0.13, 3.11 0.66, 3.08 0.78" stroke="none" stroke-width="0" fill="#e03131"></path><path d="M2.87 0.38 C3.4 0.6, 4.38 0.9, 4.8 1.42 C5.22 1.93, 5.25 2.88, 5.39 3.48 C5.53 4.07, 6.07 4.54, 5.63 4.96 C5.19 5.39, 3.32 5.62, 2.77 6.01 C2.21 6.41, 2.64 7.7, 2.28 7.31 C1.93 6.93, 0.86 4.51, 0.66 3.7 C0.46 2.89, 0.81 3.03, 1.09 2.45 C1.36 1.87, 1.89 0.44, 2.31 0.23 C2.73 0.02, 3.04 1.19, 3.62 1.2 C4.2 1.21, 5.78 0.36, 5.79 0.31 M3.17 -0.96 C3.79 -0.87, 6.44 -0.08, 6.87 0.81 C7.3 1.69, 6.26 3.69, 5.75 4.34 C5.24 4.99, 4.27 4.25, 3.81 4.7 C3.36 5.16, 3.3 6.77, 3.02 7.08 C2.75 7.39, 2.68 6.9, 2.18 6.55 C1.67 6.2, 0.41 5.71, -0.01 4.99 C-0.42 4.28, -0.35 3.01, -0.31 2.26 C-0.27 1.5, -0.55 0.72, 0.22 0.47 C0.99 0.22, 3.93 0.76, 4.31 0.75 C4.69 0.73, 2.71 0.2, 2.5 0.37" stroke="#e03131" stroke-width="1" fill="none"></path></g><g stroke-linecap="round" transform="translate(170.38591512720933 180.70158849203676) rotate(0 3.06428210221452 3.424785878945613)"><path d="M3.96 0.2 C4.61 0.51, 5.27 0.51, 5.54 1.36 C5.82 2.21, 5.84 4.51, 5.61 5.29 C5.38 6.06, 4.58 5.76, 4.16 6.03 C3.74 6.3, 3.78 7.03, 3.1 6.9 C2.41 6.76, 0.71 5.73, 0.07 5.21 C-0.57 4.7, -0.91 4.49, -0.75 3.79 C-0.6 3.1, 0.39 1.7, 1 1.04 C1.62 0.39, 2.35 0.08, 2.93 -0.15 C3.51 -0.37, 4 -0.54, 4.49 -0.29 C4.97 -0.03, 5.79 1.05, 5.84 1.38 M2.85 0.01 C3.79 0.41, 6.15 2.56, 6.85 3.25 C7.55 3.94, 7.23 3.49, 7.05 4.16 C6.86 4.82, 6.55 6.96, 5.73 7.23 C4.91 7.5, 3.06 5.88, 2.14 5.76 C1.22 5.64, 0.62 6.7, 0.21 6.5 C-0.19 6.31, -0.39 5.42, -0.31 4.6 C-0.22 3.77, 0.48 2.23, 0.71 1.58 C0.94 0.92, 0.46 0.85, 1.06 0.68 C1.67 0.52, 3.82 0.49, 4.35 0.59 C4.88 0.7, 4.14 1.53, 4.22 1.33" stroke="none" stroke-width="0" fill="#e03131"></path><path d="M2.85 0.19 C3.59 0.12, 5.18 0.21, 5.58 0.62 C5.97 1.03, 5.14 1.67, 5.22 2.65 C5.31 3.63, 6.3 5.97, 6.1 6.5 C5.91 7.03, 4.66 5.82, 4.05 5.82 C3.45 5.82, 2.97 6.76, 2.47 6.51 C1.96 6.26, 1.54 4.89, 1.03 4.33 C0.53 3.77, -0.76 3.88, -0.56 3.13 C-0.36 2.39, 1.62 0.32, 2.25 -0.15 C2.88 -0.62, 2.86 0.12, 3.22 0.33 C3.57 0.54, 4.34 1.14, 4.37 1.09 M1.65 0.96 C1.74 0.6, 2.01 -1.01, 2.61 -0.84 C3.22 -0.67, 4.59 1.12, 5.29 1.97 C6 2.82, 6.92 3.49, 6.85 4.26 C6.78 5.04, 5.61 6.14, 4.89 6.6 C4.16 7.06, 3.39 7.09, 2.51 7.01 C1.64 6.93, -0.03 6.52, -0.35 6.14 C-0.66 5.75, 0.69 5.38, 0.61 4.68 C0.54 3.98, -0.95 2.45, -0.82 1.93 C-0.69 1.41, 0.75 1.73, 1.4 1.56 C2.05 1.39, 2.99 0.95, 3.09 0.93" stroke="#e03131" stroke-width="1" fill="none"></path></g><g stroke-linecap="round" transform="translate(228.42702318091966 222.52002659284665) rotate(0 3.06428210221452 3.424785878945613)"><path d="M2.44 0.92 C3.01 0.9, 3.59 0.12, 4.25 0.41 C4.91 0.7, 6.26 2, 6.39 2.65 C6.52 3.31, 5.51 3.66, 5.04 4.33 C4.57 5, 3.96 6.35, 3.56 6.68 C3.16 7.02, 3.05 6.62, 2.65 6.36 C2.24 6.09, 1.62 5.8, 1.13 5.1 C0.64 4.41, -0.4 2.8, -0.31 2.18 C-0.23 1.55, 1.06 1.59, 1.63 1.36 C2.21 1.13, 2.74 1.14, 3.14 0.81 C3.53 0.49, 3.97 -0.36, 3.99 -0.58 M3.81 0.06 C4.37 -0.09, 5.38 1.53, 5.61 1.77 C5.83 2, 5.28 0.88, 5.18 1.48 C5.08 2.09, 5.2 4.46, 5 5.42 C4.8 6.37, 4.41 7, 3.99 7.2 C3.57 7.41, 3.25 6.88, 2.5 6.66 C1.75 6.44, -0.1 6.4, -0.49 5.87 C-0.87 5.33, -0.06 4.09, 0.18 3.45 C0.43 2.81, 0.41 2.77, 0.98 2.01 C1.56 1.25, 3.5 -0.59, 3.62 -1.12 C3.74 -1.66, 1.96 -1.32, 1.71 -1.21" stroke="none" stroke-width="0" fill="#e03131"></path><path d="M2.37 -0.76 C3.08 -0.51, 5.18 1.36, 5.87 1.84 C6.57 2.31, 6.45 1.48, 6.56 2.08 C6.67 2.69, 6.84 4.73, 6.54 5.45 C6.24 6.18, 5.67 6.11, 4.76 6.44 C3.85 6.77, 1.7 7.79, 1.08 7.43 C0.46 7.08, 1.29 5.09, 1.03 4.32 C0.78 3.55, -0.58 3.3, -0.46 2.84 C-0.35 2.38, 1.1 2.07, 1.7 1.54 C2.31 1.01, 2.96 -0.27, 3.17 -0.35 C3.38 -0.44, 2.98 0.97, 2.96 1.04 M3.4 0.37 C4.39 0.71, 5.9 1.03, 6.33 1.67 C6.75 2.32, 6.24 3.52, 5.97 4.24 C5.7 4.96, 5.38 5.53, 4.71 5.98 C4.03 6.43, 2.39 6.77, 1.92 6.92 C1.46 7.08, 2.41 7.31, 1.9 6.91 C1.39 6.52, -0.74 5.16, -1.12 4.57 C-1.49 3.97, -1 3.96, -0.35 3.37 C0.31 2.77, 2.12 1.38, 2.8 1 C3.47 0.62, 3.72 1.04, 3.72 1.07 C3.72 1.11, 2.56 1.5, 2.79 1.21" stroke="#e03131" stroke-width="1" fill="none"></path></g><g stroke-linecap="round" transform="translate(218.69342120917946 141.40667682834464) rotate(0 3.06428210221452 3.424785878945613)"><path d="M4.77 0.42 C5.32 0.63, 5 0.77, 5.08 1.45 C5.16 2.14, 5.23 3.77, 5.25 4.51 C5.27 5.25, 5.51 5.56, 5.19 5.9 C4.87 6.25, 4.11 6.75, 3.34 6.58 C2.56 6.42, 0.97 5.32, 0.53 4.9 C0.09 4.48, 0.68 4.5, 0.71 4.05 C0.74 3.6, 0.29 2.99, 0.68 2.22 C1.08 1.45, 2.38 -0.12, 3.08 -0.56 C3.77 -1, 4.57 -0.75, 4.83 -0.42 C5.09 -0.09, 4.53 1.09, 4.63 1.4 M2.27 -1.09 C2.63 -1.22, 3.67 0.58, 4.25 1.35 C4.83 2.13, 5.47 2.92, 5.75 3.55 C6.03 4.18, 6.4 4.52, 5.95 5.13 C5.5 5.73, 3.67 6.86, 3.04 7.17 C2.4 7.48, 2.56 7.16, 2.13 6.98 C1.7 6.8, 0.66 7.01, 0.45 6.12 C0.23 5.23, 0.92 2.74, 0.85 1.64 C0.77 0.53, -0.25 -0.12, 0.01 -0.52 C0.27 -0.93, 1.73 -0.98, 2.39 -0.81 C3.05 -0.65, 3.61 0.08, 3.98 0.46" stroke="none" stroke-width="0" fill="#e03131"></path><path d="M2.37 -0.73 C2.97 -1.16, 4.25 -0.06, 4.94 0.29 C5.63 0.63, 6.44 0.59, 6.51 1.34 C6.58 2.09, 5.47 4.11, 5.36 4.78 C5.24 5.45, 6.29 4.97, 5.84 5.36 C5.38 5.74, 3.32 6.81, 2.62 7.08 C1.91 7.36, 2.1 7.56, 1.62 7.01 C1.15 6.45, 0.09 4.47, -0.23 3.75 C-0.56 3.04, -0.66 3.36, -0.34 2.73 C-0.02 2.09, 1.17 0.54, 1.67 -0.05 C2.17 -0.63, 2.72 -0.83, 2.68 -0.78 M3.18 0.56 C3.59 0.57, 4.43 0.72, 4.68 1.16 C4.93 1.6, 4.43 2.4, 4.68 3.21 C4.92 4.03, 6.48 5.43, 6.14 6.05 C5.8 6.67, 3.46 6.64, 2.63 6.95 C1.8 7.26, 1.37 8.12, 1.15 7.88 C0.94 7.65, 1.54 6.27, 1.34 5.54 C1.15 4.81, 0.18 4.15, 0 3.5 C-0.17 2.86, -0.49 2.43, 0.29 1.66 C1.07 0.88, 4.42 -0.76, 4.7 -1.13 C4.97 -1.51, 2.2 -0.76, 1.93 -0.6" stroke="#e03131" stroke-width="1" fill="none"></path></g><g stroke-linecap="round" transform="translate(241.40515914323993 141.40667682834464) rotate(0 3.06428210221452 3.424785878945613)"><path d="M2.41 0.14 C3.23 0.15, 4.81 0.09, 5.53 0.51 C6.24 0.94, 6.73 2.06, 6.7 2.7 C6.66 3.34, 5.67 3.61, 5.34 4.34 C5.01 5.06, 5.27 6.56, 4.72 7.07 C4.16 7.58, 2.62 7.86, 2.01 7.41 C1.41 6.96, 1.4 5.31, 1.11 4.38 C0.82 3.45, 0.29 2.31, 0.28 1.82 C0.26 1.34, 0.3 1.64, 1.02 1.46 C1.75 1.27, 4.11 0.83, 4.63 0.72 C5.15 0.6, 4.19 0.93, 4.14 0.78 M1.64 0.88 C2.39 0.5, 3.83 -0.09, 4.33 0.13 C4.84 0.34, 4.35 1.48, 4.67 2.18 C4.99 2.88, 6.18 3.52, 6.26 4.33 C6.33 5.14, 5.52 6.82, 5.13 7.05 C4.74 7.28, 4.75 6.09, 3.9 5.72 C3.04 5.34, 0.76 5.2, 0 4.79 C-0.76 4.38, -0.89 3.69, -0.68 3.25 C-0.47 2.81, 0.56 2.46, 1.25 2.15 C1.94 1.84, 3.09 1.57, 3.46 1.39 C3.83 1.22, 3.75 1.36, 3.45 1.1" stroke="none" stroke-width="0" fill="#e03131"></path><path d="M2.47 0.13 C2.73 -0.11, 2.34 0.85, 2.96 0.95 C3.58 1.05, 5.77 0.23, 6.2 0.71 C6.64 1.18, 5.64 2.8, 5.57 3.78 C5.5 4.77, 6.18 6.16, 5.79 6.6 C5.39 7.04, 4.03 6.33, 3.19 6.43 C2.35 6.54, 1.31 7.6, 0.74 7.24 C0.18 6.87, -0.21 5.25, -0.22 4.23 C-0.22 3.22, 0.41 1.88, 0.73 1.14 C1.04 0.4, 1.22 -0.1, 1.65 -0.19 C2.08 -0.28, 3.14 0.5, 3.29 0.58 M2.18 0.15 C2.99 0.32, 5.55 1.32, 6 1.91 C6.45 2.5, 5.1 2.83, 4.9 3.68 C4.69 4.52, 4.82 6.37, 4.77 7.01 C4.73 7.64, 5.19 7.41, 4.62 7.47 C4.06 7.52, 2.32 7.65, 1.41 7.34 C0.5 7.03, -0.87 6.64, -0.84 5.6 C-0.82 4.56, 1.39 2.05, 1.56 1.08 C1.73 0.1, -0.14 0.02, 0.17 -0.23 C0.47 -0.48, 3 -0.39, 3.4 -0.42 C3.81 -0.46, 2.34 -0.45, 2.6 -0.47" stroke="#e03131" stroke-width="1" fill="none"></path></g><g stroke-linecap="round" transform="translate(229.86903828784403 152.94279768374054) rotate(0 3.06428210221452 3.424785878945613)"><path d="M3.87 -0.24 C4.37 -0.32, 4.37 -0.56, 4.86 0.06 C5.35 0.67, 6.67 2.44, 6.81 3.45 C6.95 4.47, 6.06 5.71, 5.7 6.15 C5.34 6.58, 5.27 6.14, 4.66 6.06 C4.05 5.98, 2.79 5.73, 2.04 5.66 C1.28 5.6, 0.32 6.06, 0.16 5.66 C0 5.26, 0.87 4, 1.06 3.25 C1.25 2.5, 0.77 1.8, 1.29 1.16 C1.81 0.53, 3.92 -0.28, 4.18 -0.54 C4.45 -0.81, 2.93 -0.54, 2.86 -0.43 M2.71 0.59 C3.31 0.77, 5.09 1.03, 5.67 1.7 C6.25 2.37, 6.11 4.13, 6.19 4.62 C6.26 5.1, 6.75 4.46, 6.11 4.61 C5.47 4.76, 3.24 5.39, 2.33 5.53 C1.43 5.68, 0.9 5.61, 0.68 5.5 C0.46 5.38, 0.82 5.21, 1 4.84 C1.17 4.47, 1.37 3.89, 1.72 3.28 C2.07 2.67, 2.85 1.84, 3.11 1.2 C3.37 0.55, 3.26 -0.28, 3.29 -0.61 C3.33 -0.94, 3.19 -0.81, 3.31 -0.77" stroke="none" stroke-width="0" fill="#e03131"></path><path d="M3.37 -0.58 C4.01 -0.82, 3.63 0.12, 4.14 0.76 C4.65 1.4, 6.18 2.66, 6.43 3.26 C6.67 3.85, 6.04 3.65, 5.6 4.33 C5.16 5.02, 4.39 7, 3.8 7.36 C3.21 7.73, 2.49 7, 2.05 6.53 C1.61 6.05, 1.6 5.11, 1.15 4.53 C0.69 3.94, -0.67 3.49, -0.7 3.01 C-0.73 2.53, 0.26 2.15, 0.97 1.64 C1.67 1.12, 2.96 0.21, 3.54 -0.08 C4.12 -0.37, 4.45 -0.01, 4.44 -0.1 M1.93 0.22 C2.35 0.31, 3.61 1.66, 4.48 2.22 C5.36 2.79, 6.97 2.93, 7.15 3.59 C7.33 4.26, 6.26 5.5, 5.57 6.19 C4.88 6.87, 3.39 7.83, 3.01 7.71 C2.63 7.59, 3.97 6.02, 3.3 5.46 C2.63 4.9, -0.45 4.91, -1.02 4.37 C-1.6 3.84, -0.35 2.95, -0.16 2.25 C0.04 1.54, -0.63 0.67, 0.15 0.14 C0.93 -0.38, 4.08 -0.99, 4.52 -0.91 C4.96 -0.83, 3.01 0.59, 2.8 0.61" stroke="#e03131" stroke-width="1" fill="none"></path></g><g stroke-linecap="round" transform="translate(265.558912184225 200.16879243551716) rotate(0 3.06428210221452 3.424785878945613)"><path d="M3.39 0.42 C4.08 0.57, 4.27 1.14, 4.83 1.36 C5.39 1.59, 6.53 1.34, 6.74 1.76 C6.95 2.18, 6.5 2.96, 6.1 3.87 C5.69 4.78, 4.76 6.61, 4.3 7.2 C3.85 7.79, 3.96 7.62, 3.35 7.41 C2.74 7.21, 1.09 6.78, 0.65 5.99 C0.22 5.2, 0.85 3.59, 0.76 2.68 C0.66 1.77, -0.37 1.03, 0.1 0.54 C0.56 0.06, 2.88 -0.19, 3.56 -0.22 C4.23 -0.26, 4.23 0.34, 4.16 0.32 M3.64 1.08 C4.37 0.91, 5.96 -0.1, 6.19 0.08 C6.42 0.25, 5.25 1.33, 5 2.12 C4.75 2.91, 4.78 3.95, 4.69 4.8 C4.6 5.64, 4.75 6.73, 4.47 7.19 C4.19 7.65, 3.5 7.87, 3.03 7.57 C2.56 7.28, 2.19 6.42, 1.64 5.43 C1.1 4.43, -0.17 2.56, -0.26 1.58 C-0.35 0.6, 0.41 -0.06, 1.11 -0.45 C1.81 -0.83, 3.66 -0.86, 3.94 -0.73 C4.22 -0.6, 2.84 -0.06, 2.77 0.32" stroke="none" stroke-width="0" fill="#e03131"></path><path d="M2.59 1.04 C3.21 0.69, 3.52 -0.41, 3.93 -0.12 C4.35 0.16, 4.79 2.08, 5.09 2.75 C5.38 3.43, 5.63 3.52, 5.69 3.92 C5.75 4.32, 6.01 4.7, 5.43 5.14 C4.86 5.58, 2.94 6.34, 2.23 6.56 C1.52 6.78, 1.51 6.93, 1.17 6.46 C0.83 6, 0.24 4.65, 0.19 3.78 C0.13 2.9, 0.36 2.01, 0.85 1.22 C1.34 0.43, 2.62 -0.85, 3.13 -0.96 C3.65 -1.07, 3.9 0.5, 3.96 0.58 M4.34 0.67 C5.05 0.61, 4.97 1.36, 5.1 1.93 C5.22 2.5, 4.78 3.73, 5.1 4.11 C5.41 4.49, 7.4 3.88, 6.97 4.2 C6.54 4.52, 3.41 5.73, 2.51 6.04 C1.61 6.35, 2.13 6.35, 1.59 6.07 C1.05 5.78, -0.69 5.05, -0.71 4.32 C-0.73 3.59, 1.19 2.2, 1.46 1.67 C1.73 1.15, 0.59 1.66, 0.91 1.18 C1.23 0.71, 3.14 -0.79, 3.39 -1.17 C3.64 -1.54, 2.39 -1.42, 2.41 -1.06" stroke="#e03131" stroke-width="1" fill="none"></path></g><g stroke-linecap="round" transform="translate(283.2235972440499 169.88647519010306) rotate(0 3.06428210221452 3.424785878945613)"><path d="M4.41 -0.59 C5.05 -0.79, 5.4 -0.42, 5.66 0.39 C5.93 1.19, 5.86 3.23, 5.97 4.22 C6.09 5.22, 6.74 5.82, 6.34 6.33 C5.94 6.85, 4.25 7.4, 3.57 7.31 C2.88 7.22, 2.92 6.34, 2.23 5.79 C1.54 5.23, -0.28 4.62, -0.56 3.98 C-0.84 3.34, 0.12 2.52, 0.55 1.96 C0.98 1.4, 1.45 1.01, 2.03 0.6 C2.61 0.19, 3.56 -0.49, 4.01 -0.5 C4.46 -0.51, 4.71 0.36, 4.74 0.53 M2.97 -1.08 C3.32 -0.84, 4.32 -0.03, 4.98 0.89 C5.64 1.8, 6.68 3.35, 6.94 4.4 C7.2 5.45, 6.93 6.67, 6.53 7.21 C6.13 7.75, 5.51 7.97, 4.53 7.66 C3.55 7.35, 1.48 6.12, 0.66 5.37 C-0.15 4.61, -0.38 3.85, -0.36 3.12 C-0.34 2.38, 0.5 1.39, 0.76 0.95 C1.02 0.5, 0.65 0.35, 1.2 0.42 C1.76 0.49, 3.83 1.63, 4.09 1.36 C4.36 1.1, 2.73 -0.78, 2.77 -1.17" stroke="none" stroke-width="0" fill="#e03131"></path><path d="M3.68 1.24 C4.25 1.52, 5.01 1.4, 5.48 1.74 C5.96 2.09, 6.75 2.63, 6.52 3.33 C6.29 4.03, 4.71 5.29, 4.11 5.96 C3.52 6.63, 3.47 7.38, 2.96 7.35 C2.45 7.31, 1.48 6.41, 1.05 5.74 C0.62 5.07, 0.44 4.22, 0.38 3.34 C0.31 2.47, 0.34 0.96, 0.67 0.49 C1 0.01, 1.56 0.59, 2.35 0.49 C3.13 0.39, 4.83 -0.18, 5.35 -0.13 C5.87 -0.08, 5.42 0.5, 5.47 0.8 M2.72 1.12 C3.58 0.88, 6.53 -0.1, 6.87 0.2 C7.2 0.5, 5.03 2.06, 4.73 2.91 C4.44 3.75, 5.48 4.71, 5.1 5.26 C4.71 5.82, 2.82 6.2, 2.44 6.23 C2.05 6.25, 3.22 5.6, 2.78 5.4 C2.33 5.19, 0.19 5.73, -0.22 4.98 C-0.62 4.24, 0.17 1.89, 0.34 0.93 C0.51 -0.03, 0.18 -0.72, 0.78 -0.76 C1.38 -0.8, 3.54 0.4, 3.94 0.71 C4.34 1.01, 3.28 1.18, 3.18 1.05" stroke="#e03131" stroke-width="1" fill="none"></path></g><g stroke-linecap="round" transform="translate(229.14803073438185 279.8401270930947) rotate(0 3.06428210221452 3.424785878945613)"><path d="M1.92 0.91 C2.62 0.9, 4.5 0.65, 5.14 0.88 C5.79 1.11, 5.5 1.84, 5.78 2.28 C6.06 2.72, 7.08 2.98, 6.82 3.52 C6.57 4.06, 4.84 5.02, 4.26 5.54 C3.68 6.06, 3.81 6.52, 3.35 6.62 C2.88 6.73, 2.05 6.74, 1.49 6.18 C0.93 5.62, 0.11 4.01, -0.01 3.27 C-0.12 2.54, 0.25 2.3, 0.78 1.77 C1.31 1.23, 2.57 0.22, 3.19 0.04 C3.81 -0.13, 4.67 0.78, 4.51 0.7 M2.65 0.7 C3.57 0.71, 4.63 1.03, 5.36 1.29 C6.09 1.56, 6.99 2, 7.04 2.29 C7.09 2.59, 6.05 2.61, 5.67 3.06 C5.3 3.5, 5.14 4.45, 4.81 4.95 C4.47 5.45, 4.39 5.81, 3.67 6.06 C2.95 6.3, 1.08 6.52, 0.49 6.42 C-0.11 6.32, 0.34 6.43, 0.09 5.45 C-0.16 4.46, -1.35 1.62, -1.01 0.52 C-0.68 -0.58, 1.38 -1.22, 2.1 -1.18 C2.82 -1.13, 3.09 0.45, 3.29 0.8" stroke="none" stroke-width="0" fill="#e03131"></path><path d="M4.91 -0.65 C5.43 -0.39, 4.95 0.83, 5.17 1.75 C5.38 2.67, 6.22 4.15, 6.18 4.89 C6.14 5.62, 5.45 5.91, 4.94 6.17 C4.43 6.43, 3.77 6.69, 3.11 6.47 C2.45 6.24, 1.47 5.25, 0.96 4.84 C0.46 4.44, 0.06 4.75, 0.07 4.04 C0.08 3.33, 0.63 1.31, 1.03 0.59 C1.43 -0.14, 1.73 -0.4, 2.47 -0.31 C3.21 -0.22, 5.03 1.01, 5.48 1.15 C5.92 1.29, 5.21 0.72, 5.14 0.54 M2.71 -0.48 C3.04 -0.17, 5.1 0.57, 5.49 1.22 C5.88 1.87, 4.91 2.76, 5.07 3.41 C5.22 4.06, 6.8 4.46, 6.41 5.13 C6.02 5.79, 3.59 7.43, 2.72 7.39 C1.85 7.35, 1.8 5.63, 1.21 4.88 C0.62 4.13, -0.73 3.32, -0.83 2.89 C-0.93 2.47, 0.23 2.64, 0.61 2.35 C0.99 2.05, 0.94 1.55, 1.46 1.11 C1.98 0.67, 3.52 -0.33, 3.73 -0.29 C3.94 -0.25, 2.59 1.16, 2.73 1.32" stroke="#e03131" stroke-width="1" fill="none"></path></g><g stroke-linecap="round" transform="translate(205.3547814701281 314.0879858825511) rotate(0 3.06428210221452 3.424785878945613)"><path d="M4.19 0.73 C4.75 0.73, 6.3 0.73, 6.49 1.19 C6.69 1.66, 5.54 2.74, 5.35 3.52 C5.15 4.3, 5.65 5.27, 5.34 5.85 C5.02 6.44, 4.18 7.11, 3.46 7.02 C2.74 6.94, 1.53 5.82, 1.02 5.33 C0.5 4.84, 0.43 4.68, 0.38 4.08 C0.32 3.48, 0.28 2.27, 0.67 1.71 C1.07 1.15, 2.26 1.07, 2.75 0.72 C3.24 0.36, 3.47 -0.3, 3.64 -0.41 C3.8 -0.52, 3.72 -0.23, 3.73 0.04 M4.92 0.84 C5.22 0.58, 4.75 0.17, 4.88 0.42 C5.02 0.67, 5.56 1.64, 5.72 2.36 C5.88 3.08, 6.32 3.96, 5.85 4.73 C5.39 5.5, 3.63 6.49, 2.93 6.98 C2.22 7.46, 2.31 8.23, 1.64 7.62 C0.97 7.01, -0.88 4.42, -1.08 3.3 C-1.28 2.18, -0.21 1.3, 0.45 0.91 C1.11 0.52, 2.16 1.06, 2.89 0.96 C3.63 0.87, 4.87 0.24, 4.87 0.33 C4.87 0.43, 3.13 1.58, 2.91 1.54" stroke="none" stroke-width="0" fill="#e03131"></path><path d="M1.77 0.93 C2.44 0.59, 3.15 -0.03, 3.83 -0.03 C4.51 -0.03, 5.42 0.49, 5.83 0.92 C6.23 1.35, 6.3 1.69, 6.23 2.55 C6.17 3.4, 5.8 5.49, 5.42 6.07 C5.05 6.64, 4.6 6.01, 3.97 5.99 C3.33 5.97, 2.1 6.06, 1.62 5.94 C1.13 5.81, 1.22 5.86, 1.06 5.22 C0.9 4.59, 0.38 3.06, 0.65 2.11 C0.93 1.16, 2.28 -0.31, 2.72 -0.5 C3.16 -0.68, 3.51 1.01, 3.29 1.02 M1.36 -0.51 C2.22 -0.78, 5.13 -1.06, 5.82 -0.54 C6.52 -0.01, 5.48 2, 5.53 2.63 C5.57 3.26, 6.37 2.83, 6.1 3.26 C5.82 3.68, 4.39 4.46, 3.85 5.16 C3.32 5.86, 3.49 7.2, 2.89 7.45 C2.29 7.7, 0.82 7.38, 0.27 6.65 C-0.27 5.93, -0.2 3.81, -0.36 3.11 C-0.53 2.4, -1.29 2.89, -0.73 2.41 C-0.18 1.94, 2.24 0.42, 2.97 0.23 C3.69 0.04, 3.86 1.19, 3.61 1.28" stroke="#e03131" stroke-width="1" fill="none"></path></g><g stroke-linecap="round" transform="translate(252.94127999863582 320.2165500869801) rotate(0 3.06428210221452 3.424785878945613)"><path d="M3.1 -0.44 C3.65 -0.25, 5.32 0.49, 5.9 1.21 C6.47 1.93, 6.67 3.21, 6.56 3.87 C6.44 4.52, 5.69 4.63, 5.21 5.14 C4.73 5.65, 4.3 6.75, 3.7 6.94 C3.09 7.14, 2.05 6.64, 1.57 6.29 C1.09 5.94, 1.14 5.71, 0.8 4.87 C0.46 4.03, -0.49 2.09, -0.48 1.26 C-0.47 0.42, 0.17 -0.09, 0.89 -0.15 C1.6 -0.22, 3.11 0.58, 3.8 0.89 C4.5 1.19, 4.85 1.54, 5.05 1.66 M3.48 -0.79 C4.22 -0.66, 5.64 -0.09, 5.95 0.71 C6.26 1.5, 5.44 2.91, 5.31 3.96 C5.19 5.01, 5.76 6.79, 5.21 7.03 C4.65 7.27, 2.6 5.79, 1.99 5.41 C1.39 5.02, 1.67 4.84, 1.6 4.73 C1.52 4.61, 1.55 5.12, 1.57 4.71 C1.59 4.3, 1.76 2.75, 1.7 2.25 C1.65 1.76, 0.86 2.16, 1.24 1.75 C1.62 1.34, 3.8 0.04, 3.99 -0.2 C4.18 -0.43, 2.33 0.31, 2.38 0.32" stroke="none" stroke-width="0" fill="#e03131"></path><path d="M4.21 -0.25 C4.81 -0.26, 5.34 -0.24, 5.67 0.49 C6 1.21, 6.18 3.33, 6.18 4.08 C6.18 4.84, 6.13 4.62, 5.68 5.01 C5.24 5.4, 4.07 6.1, 3.49 6.42 C2.92 6.74, 2.71 7.3, 2.22 6.94 C1.73 6.58, 0.77 5.2, 0.55 4.26 C0.33 3.32, 0.61 1.82, 0.92 1.32 C1.24 0.81, 2.02 1.57, 2.44 1.24 C2.87 0.91, 3.2 -0.52, 3.48 -0.66 C3.77 -0.8, 4.1 0.3, 4.15 0.39 M2.1 0.6 C2.5 0.38, 4.14 -0.83, 4.63 -0.76 C5.12 -0.68, 4.79 0.05, 5.04 1.04 C5.3 2.02, 6.33 4.11, 6.17 5.14 C6.02 6.18, 4.77 7.05, 4.11 7.25 C3.46 7.44, 3.02 6.4, 2.24 6.32 C1.45 6.24, -0.31 7.19, -0.59 6.74 C-0.86 6.3, 0.17 4.37, 0.59 3.65 C1 2.93, 1.74 2.95, 1.89 2.41 C2.03 1.86, 1.6 0.8, 1.47 0.39 C1.35 -0.03, 0.78 -0.34, 1.13 -0.1" stroke="#e03131" stroke-width="1" fill="none"></path></g><g stroke-linecap="round" transform="translate(257.6278290961404 352.30138621604976) rotate(0 3.06428210221452 3.424785878945613)"><path d="M2.67 0.3 C3.2 0, 3.7 -0.67, 4.28 -0.38 C4.86 -0.09, 5.83 1.27, 6.16 2.05 C6.49 2.83, 6.38 3.53, 6.27 4.31 C6.17 5.09, 6.24 6.43, 5.54 6.73 C4.85 7.03, 2.99 6.31, 2.08 6.09 C1.17 5.87, 0.5 5.68, 0.07 5.39 C-0.37 5.1, -0.65 4.82, -0.53 4.34 C-0.41 3.85, 0.18 3.03, 0.79 2.49 C1.41 1.94, 2.79 1.5, 3.18 1.05 C3.57 0.61, 3.31 -0.03, 3.12 -0.18 M1.34 0.37 C1.86 0.44, 3.71 1.41, 4.23 1.42 C4.75 1.43, 4.12 0.2, 4.47 0.41 C4.83 0.62, 6.05 1.65, 6.37 2.68 C6.69 3.71, 6.74 5.82, 6.4 6.57 C6.06 7.31, 5.33 7.01, 4.33 7.15 C3.34 7.29, 1.14 7.99, 0.44 7.39 C-0.26 6.79, 0.37 4.5, 0.13 3.55 C-0.11 2.61, -1.43 2.38, -1.01 1.72 C-0.59 1.06, 2.26 -0.07, 2.63 -0.42 C3 -0.76, 1.2 -0.75, 1.2 -0.36" stroke="none" stroke-width="0" fill="#e03131"></path><path d="M2.57 0.44 C3.23 0.29, 4.43 -0.61, 5.02 -0.38 C5.6 -0.15, 5.77 0.87, 6.08 1.81 C6.39 2.76, 7.03 4.52, 6.86 5.27 C6.69 6.02, 5.67 6.17, 5.06 6.31 C4.45 6.45, 3.81 6.08, 3.2 6.12 C2.59 6.17, 2.08 7.16, 1.42 6.56 C0.76 5.96, -0.57 3.44, -0.76 2.53 C-0.96 1.62, -0.33 1.63, 0.25 1.1 C0.83 0.56, 2.23 -0.67, 2.71 -0.68 C3.19 -0.69, 3.19 0.89, 3.15 1.02 M2.73 -1.09 C3.37 -0.7, 5.15 0.95, 5.62 1.86 C6.1 2.76, 5.68 3.79, 5.58 4.34 C5.48 4.89, 5.59 4.56, 5.03 5.15 C4.48 5.73, 2.72 7.62, 2.23 7.85 C1.74 8.08, 2.25 6.88, 2.11 6.53 C1.97 6.17, 1.88 6.36, 1.4 5.7 C0.91 5.04, -0.6 3.47, -0.8 2.56 C-1 1.64, -0.71 0.39, 0.21 0.22 C1.12 0.05, 3.97 1.52, 4.7 1.51 C5.43 1.51, 4.64 0.17, 4.58 0.18" stroke="#e03131" stroke-width="1" fill="none"></path></g><g stroke-linecap="round" transform="translate(195.2606757216567 351.21987488585637) rotate(0 3.06428210221452 3.424785878945613)"><path d="M3.67 0.12 C4.34 0.26, 4.95 0.46, 5.47 1.04 C5.99 1.63, 6.91 3.05, 6.81 3.65 C6.7 4.25, 5.45 4.21, 4.82 4.64 C4.19 5.07, 3.6 5.83, 3 6.24 C2.4 6.65, 1.64 7.16, 1.23 7.1 C0.82 7.04, 0.61 6.46, 0.55 5.86 C0.49 5.26, 0.67 4.43, 0.88 3.51 C1.1 2.59, 1.43 0.94, 1.85 0.33 C2.26 -0.29, 3.07 -0.21, 3.38 -0.16 C3.69 -0.11, 3.71 0.59, 3.69 0.61 M1.97 -1.43 C2.64 -1.86, 4.57 -1.35, 5.5 -0.53 C6.44 0.29, 7.33 2.46, 7.58 3.49 C7.84 4.52, 7.71 4.86, 7.01 5.64 C6.3 6.42, 4.21 8.06, 3.36 8.16 C2.51 8.25, 2.68 6.75, 1.92 6.23 C1.17 5.72, -0.95 5.76, -1.18 5.06 C-1.4 4.36, 0.33 2.85, 0.58 2.02 C0.83 1.19, -0.21 0.17, 0.3 0.08 C0.81 -0.02, 3.09 1.62, 3.65 1.47 C4.22 1.32, 3.95 -0.53, 3.69 -0.83" stroke="none" stroke-width="0" fill="#e03131"></path><path d="M3.79 -0.35 C4.48 -0.01, 5.88 1.34, 6.34 1.97 C6.81 2.59, 6.62 2.9, 6.57 3.41 C6.52 3.91, 6.41 4.27, 6.02 4.99 C5.64 5.71, 5.12 7.64, 4.24 7.72 C3.36 7.79, 1.48 5.99, 0.73 5.44 C-0.03 4.89, -0.14 5.05, -0.28 4.4 C-0.42 3.75, -0.36 2.04, -0.12 1.53 C0.12 1.02, 0.6 1.62, 1.17 1.34 C1.75 1.07, 2.75 0.06, 3.31 -0.1 C3.87 -0.27, 4.56 0.37, 4.52 0.37 M1.38 1.14 C1.85 0.66, 3.17 -0.58, 3.65 -0.32 C4.14 -0.06, 3.81 1.95, 4.32 2.68 C4.82 3.41, 6.35 3.32, 6.68 4.06 C7.02 4.79, 7.07 6.58, 6.32 7.1 C5.57 7.62, 3.25 7.37, 2.17 7.17 C1.09 6.96, 0 6.15, -0.17 5.89 C-0.34 5.62, 0.9 6.26, 1.16 5.58 C1.41 4.91, 1.09 2.56, 1.34 1.86 C1.6 1.16, 2.72 1.81, 2.68 1.37 C2.64 0.93, 1.35 -0.73, 1.1 -0.78" stroke="#e03131" stroke-width="1" fill="none"></path></g><g stroke-linecap="round"><g transform="translate(523.6138573163266 73.16201732648776) rotate(0 -212.8151222180532 34.01285331680138)"><path d="M1.2 -0.34 C-69.95 10.98, -355.63 56.85, -426.83 68.36" stroke="#4dabf7" stroke-width="1.5" fill="none" stroke-dasharray="8 9"></path></g></g><mask></mask><g stroke-linecap="round"><g transform="translate(535.7305805242509 109.51218695026085) rotate(0 -140.01278849959766 141.40627767236978)"><path d="M-0.06 0.59 C-46.61 47.75, -233.23 234.99, -279.97 282.22" stroke="#4dabf7" stroke-width="1.5" fill="none" stroke-dasharray="8 9"></path></g></g><mask></mask><g stroke-linecap="round" transform="translate(15.334557838340004 21.668013277175874) rotate(581.0477910152957 24.20066218743648 17.18318690662383)"><path d="M8.59 0 M8.59 0 C21.27 0.68, 31.2 1.57, 39.81 0 M8.59 0 C17.36 0.64, 27.75 1.05, 39.81 0 M39.81 0 C43.58 -0.61, 47.74 4.01, 48.4 8.59 M39.81 0 C45.93 0.26, 50.12 1.07, 48.4 8.59 M48.4 8.59 C48.84 12.39, 47.8 19.81, 48.4 25.77 M48.4 8.59 C47.88 12.3, 47.8 16.82, 48.4 25.77 M48.4 25.77 C47.7 32.86, 44.97 35.33, 39.81 34.37 M48.4 25.77 C46.67 31.75, 47.21 35.45, 39.81 34.37 M39.81 34.37 C27.88 34.08, 18.95 33.85, 8.59 34.37 M39.81 34.37 C27.59 34.57, 17.81 34.73, 8.59 34.37 M8.59 34.37 C3.66 35.73, -1.13 32.45, 0 25.77 M8.59 34.37 C2.69 35.05, 1.18 30.72, 0 25.77 M0 25.77 C0.87 20.17, -1.11 15.34, 0 8.59 M0 25.77 C0.53 20.5, -0.58 14.29, 0 8.59 M0 8.59 C-0.76 4.45, 1.22 1.56, 8.59 0 M0 8.59 C1.19 1.88, 1.42 2.03, 8.59 0" stroke="#2f9e44" stroke-width="1" fill="none"></path></g><g stroke-linecap="round"><g transform="translate(78.40422670477227 57.501906927319055) rotate(581.0477910152957 -11.821933493622225 5.621538709230293)"><path d="M0.59 -0.63 C-2.83 -3.2, -15.62 -19.23, -19.37 -14.89 C-23.13 -10.56, -25.13 20.9, -21.93 25.36 C-18.73 29.83, -3.97 14.04, -0.18 11.87 M-0.57 1.65 C-4.15 -0.75, -16.03 -17.43, -19.73 -13.31 C-23.43 -9.2, -25.98 22.52, -22.76 26.34 C-19.55 30.16, -4.13 12.4, -0.45 9.61" stroke="#2f9e44" stroke-width="1" fill="none"></path></g></g><mask></mask><g stroke-linecap="round"><g transform="translate(58.46631638989703 83.93243795575384) rotate(0 19.36067475648781 146.06358278056058)"><path d="M0.09 1.01 C6.36 49.54, 32.18 242.7, 38.63 291.12" stroke="#2f9e44" stroke-width="1.5" fill="none" stroke-dasharray="8 9"></path></g></g><mask></mask><g stroke-linecap="round"><g transform="translate(85.39236796306233 57.0063863825886) rotate(0 204.1118922613643 66.98697416563844)"><path d="M-0.78 -1.07 C67.54 21.58, 340.54 112.35, 409 135.04" stroke="#2f9e44" stroke-width="1.5" fill="none" stroke-dasharray="8 9"></path></g></g><mask></mask></svg>