<?xml version="1.0" encoding="utf-8" standalone="no"?>
<!DOCTYPE svg PUBLIC "-//W3C//DTD SVG 1.1//EN"
  "http://www.w3.org/Graphics/SVG/1.1/DTD/svg11.dtd">
<!-- Created with matplotlib (https://matplotlib.org/) -->
<svg height="317.99625pt" version="1.1" viewBox="0 0 930.103125 317.99625" width="930.103125pt" xmlns="http://www.w3.org/2000/svg" xmlns:xlink="http://www.w3.org/1999/xlink">
 <defs>
  <style type="text/css">
*{stroke-linecap:butt;stroke-linejoin:round;}
  </style>
 </defs>
 <g id="figure_1">
  <g id="patch_1">
   <path d="M 0 317.99625 
L 930.103125 317.99625 
L 930.103125 0 
L 0 0 
z
" style="fill:none;"/>
  </g>
  <g id="axes_1">
   <g id="patch_2">
    <path d="M 30.103125 294.118125 
L 435.921307 294.118125 
L 435.921307 22.318125 
L 30.103125 22.318125 
z
" style="fill:#ffffff;"/>
   </g>
   <g id="matplotlib.axis_1">
    <g id="xtick_1">
     <g id="line2d_1">
      <defs>
       <path d="M 0 0 
L 0 3.5 
" id="m6c40e1cb56" style="stroke:#000000;stroke-width:0.8;"/>
      </defs>
      <g>
       <use style="stroke:#000000;stroke-width:0.8;" x="39.804987" xlink:href="#m6c40e1cb56" y="294.118125"/>
      </g>
     </g>
     <g id="text_1">
      <!-- 0 -->
      <defs>
       <path d="M 31.78125 66.40625 
Q 24.171875 66.40625 20.328125 58.90625 
Q 16.5 51.421875 16.5 36.375 
Q 16.5 21.390625 20.328125 13.890625 
Q 24.171875 6.390625 31.78125 6.390625 
Q 39.453125 6.390625 43.28125 13.890625 
Q 47.125 21.390625 47.125 36.375 
Q 47.125 51.421875 43.28125 58.90625 
Q 39.453125 66.40625 31.78125 66.40625 
z
M 31.78125 74.21875 
Q 44.046875 74.21875 50.515625 64.515625 
Q 56.984375 54.828125 56.984375 36.375 
Q 56.984375 17.96875 50.515625 8.265625 
Q 44.046875 -1.421875 31.78125 -1.421875 
Q 19.53125 -1.421875 13.0625 8.265625 
Q 6.59375 17.96875 6.59375 36.375 
Q 6.59375 54.828125 13.0625 64.515625 
Q 19.53125 74.21875 31.78125 74.21875 
z
" id="DejaVuSans-48"/>
      </defs>
      <g transform="translate(36.623737 308.716563)scale(0.1 -0.1)">
       <use xlink:href="#DejaVuSans-48"/>
      </g>
     </g>
    </g>
    <g id="xtick_2">
     <g id="line2d_2">
      <g>
       <use style="stroke:#000000;stroke-width:0.8;" x="114.309802" xlink:href="#m6c40e1cb56" y="294.118125"/>
      </g>
     </g>
     <g id="text_2">
      <!-- 20 -->
      <defs>
       <path d="M 19.1875 8.296875 
L 53.609375 8.296875 
L 53.609375 0 
L 7.328125 0 
L 7.328125 8.296875 
Q 12.9375 14.109375 22.625 23.890625 
Q 32.328125 33.6875 34.8125 36.53125 
Q 39.546875 41.84375 41.421875 45.53125 
Q 43.3125 49.21875 43.3125 52.78125 
Q 43.3125 58.59375 39.234375 62.25 
Q 35.15625 65.921875 28.609375 65.921875 
Q 23.96875 65.921875 18.8125 64.3125 
Q 13.671875 62.703125 7.8125 59.421875 
L 7.8125 69.390625 
Q 13.765625 71.78125 18.9375 73 
Q 24.125 74.21875 28.421875 74.21875 
Q 39.75 74.21875 46.484375 68.546875 
Q 53.21875 62.890625 53.21875 53.421875 
Q 53.21875 48.921875 51.53125 44.890625 
Q 49.859375 40.875 45.40625 35.40625 
Q 44.1875 33.984375 37.640625 27.21875 
Q 31.109375 20.453125 19.1875 8.296875 
z
" id="DejaVuSans-50"/>
      </defs>
      <g transform="translate(107.947302 308.716563)scale(0.1 -0.1)">
       <use xlink:href="#DejaVuSans-50"/>
       <use x="63.623047" xlink:href="#DejaVuSans-48"/>
      </g>
     </g>
    </g>
    <g id="xtick_3">
     <g id="line2d_3">
      <g>
       <use style="stroke:#000000;stroke-width:0.8;" x="188.814617" xlink:href="#m6c40e1cb56" y="294.118125"/>
      </g>
     </g>
     <g id="text_3">
      <!-- 40 -->
      <defs>
       <path d="M 37.796875 64.3125 
L 12.890625 25.390625 
L 37.796875 25.390625 
z
M 35.203125 72.90625 
L 47.609375 72.90625 
L 47.609375 25.390625 
L 58.015625 25.390625 
L 58.015625 17.1875 
L 47.609375 17.1875 
L 47.609375 0 
L 37.796875 0 
L 37.796875 17.1875 
L 4.890625 17.1875 
L 4.890625 26.703125 
z
" id="DejaVuSans-52"/>
      </defs>
      <g transform="translate(182.452117 308.716563)scale(0.1 -0.1)">
       <use xlink:href="#DejaVuSans-52"/>
       <use x="63.623047" xlink:href="#DejaVuSans-48"/>
      </g>
     </g>
    </g>
    <g id="xtick_4">
     <g id="line2d_4">
      <g>
       <use style="stroke:#000000;stroke-width:0.8;" x="263.319432" xlink:href="#m6c40e1cb56" y="294.118125"/>
      </g>
     </g>
     <g id="text_4">
      <!-- 60 -->
      <defs>
       <path d="M 33.015625 40.375 
Q 26.375 40.375 22.484375 35.828125 
Q 18.609375 31.296875 18.609375 23.390625 
Q 18.609375 15.53125 22.484375 10.953125 
Q 26.375 6.390625 33.015625 6.390625 
Q 39.65625 6.390625 43.53125 10.953125 
Q 47.40625 15.53125 47.40625 23.390625 
Q 47.40625 31.296875 43.53125 35.828125 
Q 39.65625 40.375 33.015625 40.375 
z
M 52.59375 71.296875 
L 52.59375 62.3125 
Q 48.875 64.0625 45.09375 64.984375 
Q 41.3125 65.921875 37.59375 65.921875 
Q 27.828125 65.921875 22.671875 59.328125 
Q 17.53125 52.734375 16.796875 39.40625 
Q 19.671875 43.65625 24.015625 45.921875 
Q 28.375 48.1875 33.59375 48.1875 
Q 44.578125 48.1875 50.953125 41.515625 
Q 57.328125 34.859375 57.328125 23.390625 
Q 57.328125 12.15625 50.6875 5.359375 
Q 44.046875 -1.421875 33.015625 -1.421875 
Q 20.359375 -1.421875 13.671875 8.265625 
Q 6.984375 17.96875 6.984375 36.375 
Q 6.984375 53.65625 15.1875 63.9375 
Q 23.390625 74.21875 37.203125 74.21875 
Q 40.921875 74.21875 44.703125 73.484375 
Q 48.484375 72.75 52.59375 71.296875 
z
" id="DejaVuSans-54"/>
      </defs>
      <g transform="translate(256.956932 308.716563)scale(0.1 -0.1)">
       <use xlink:href="#DejaVuSans-54"/>
       <use x="63.623047" xlink:href="#DejaVuSans-48"/>
      </g>
     </g>
    </g>
    <g id="xtick_5">
     <g id="line2d_5">
      <g>
       <use style="stroke:#000000;stroke-width:0.8;" x="337.824247" xlink:href="#m6c40e1cb56" y="294.118125"/>
      </g>
     </g>
     <g id="text_5">
      <!-- 80 -->
      <defs>
       <path d="M 31.78125 34.625 
Q 24.75 34.625 20.71875 30.859375 
Q 16.703125 27.09375 16.703125 20.515625 
Q 16.703125 13.921875 20.71875 10.15625 
Q 24.75 6.390625 31.78125 6.390625 
Q 38.8125 6.390625 42.859375 10.171875 
Q 46.921875 13.96875 46.921875 20.515625 
Q 46.921875 27.09375 42.890625 30.859375 
Q 38.875 34.625 31.78125 34.625 
z
M 21.921875 38.8125 
Q 15.578125 40.375 12.03125 44.71875 
Q 8.5 49.078125 8.5 55.328125 
Q 8.5 64.0625 14.71875 69.140625 
Q 20.953125 74.21875 31.78125 74.21875 
Q 42.671875 74.21875 48.875 69.140625 
Q 55.078125 64.0625 55.078125 55.328125 
Q 55.078125 49.078125 51.53125 44.71875 
Q 48 40.375 41.703125 38.8125 
Q 48.828125 37.15625 52.796875 32.3125 
Q 56.78125 27.484375 56.78125 20.515625 
Q 56.78125 9.90625 50.3125 4.234375 
Q 43.84375 -1.421875 31.78125 -1.421875 
Q 19.734375 -1.421875 13.25 4.234375 
Q 6.78125 9.90625 6.78125 20.515625 
Q 6.78125 27.484375 10.78125 32.3125 
Q 14.796875 37.15625 21.921875 38.8125 
z
M 18.3125 54.390625 
Q 18.3125 48.734375 21.84375 45.5625 
Q 25.390625 42.390625 31.78125 42.390625 
Q 38.140625 42.390625 41.71875 45.5625 
Q 45.3125 48.734375 45.3125 54.390625 
Q 45.3125 60.0625 41.71875 63.234375 
Q 38.140625 66.40625 31.78125 66.40625 
Q 25.390625 66.40625 21.84375 63.234375 
Q 18.3125 60.0625 18.3125 54.390625 
z
" id="DejaVuSans-56"/>
      </defs>
      <g transform="translate(331.461747 308.716563)scale(0.1 -0.1)">
       <use xlink:href="#DejaVuSans-56"/>
       <use x="63.623047" xlink:href="#DejaVuSans-48"/>
      </g>
     </g>
    </g>
    <g id="xtick_6">
     <g id="line2d_6">
      <g>
       <use style="stroke:#000000;stroke-width:0.8;" x="412.329062" xlink:href="#m6c40e1cb56" y="294.118125"/>
      </g>
     </g>
     <g id="text_6">
      <!-- 100 -->
      <defs>
       <path d="M 12.40625 8.296875 
L 28.515625 8.296875 
L 28.515625 63.921875 
L 10.984375 60.40625 
L 10.984375 69.390625 
L 28.421875 72.90625 
L 38.28125 72.90625 
L 38.28125 8.296875 
L 54.390625 8.296875 
L 54.390625 0 
L 12.40625 0 
z
" id="DejaVuSans-49"/>
      </defs>
      <g transform="translate(402.785312 308.716563)scale(0.1 -0.1)">
       <use xlink:href="#DejaVuSans-49"/>
       <use x="63.623047" xlink:href="#DejaVuSans-48"/>
       <use x="127.246094" xlink:href="#DejaVuSans-48"/>
      </g>
     </g>
    </g>
   </g>
   <g id="matplotlib.axis_2">
    <g id="ytick_1">
     <g id="line2d_7">
      <defs>
       <path d="M 0 0 
L -3.5 0 
" id="mbd57cf6070" style="stroke:#000000;stroke-width:0.8;"/>
      </defs>
      <g>
       <use style="stroke:#000000;stroke-width:0.8;" x="30.103125" xlink:href="#mbd57cf6070" y="281.76358"/>
      </g>
     </g>
     <g id="text_7">
      <!-- 0.0 -->
      <defs>
       <path d="M 10.6875 12.40625 
L 21 12.40625 
L 21 0 
L 10.6875 0 
z
" id="DejaVuSans-46"/>
      </defs>
      <g transform="translate(7.2 285.562798)scale(0.1 -0.1)">
       <use xlink:href="#DejaVuSans-48"/>
       <use x="63.623047" xlink:href="#DejaVuSans-46"/>
       <use x="95.410156" xlink:href="#DejaVuSans-48"/>
      </g>
     </g>
    </g>
    <g id="ytick_2">
     <g id="line2d_8">
      <g>
       <use style="stroke:#000000;stroke-width:0.8;" x="30.103125" xlink:href="#mbd57cf6070" y="232.345398"/>
      </g>
     </g>
     <g id="text_8">
      <!-- 0.2 -->
      <g transform="translate(7.2 236.144616)scale(0.1 -0.1)">
       <use xlink:href="#DejaVuSans-48"/>
       <use x="63.623047" xlink:href="#DejaVuSans-46"/>
       <use x="95.410156" xlink:href="#DejaVuSans-50"/>
      </g>
     </g>
    </g>
    <g id="ytick_3">
     <g id="line2d_9">
      <g>
       <use style="stroke:#000000;stroke-width:0.8;" x="30.103125" xlink:href="#mbd57cf6070" y="182.927216"/>
      </g>
     </g>
     <g id="text_9">
      <!-- 0.4 -->
      <g transform="translate(7.2 186.726435)scale(0.1 -0.1)">
       <use xlink:href="#DejaVuSans-48"/>
       <use x="63.623047" xlink:href="#DejaVuSans-46"/>
       <use x="95.410156" xlink:href="#DejaVuSans-52"/>
      </g>
     </g>
    </g>
    <g id="ytick_4">
     <g id="line2d_10">
      <g>
       <use style="stroke:#000000;stroke-width:0.8;" x="30.103125" xlink:href="#mbd57cf6070" y="133.509034"/>
      </g>
     </g>
     <g id="text_10">
      <!-- 0.6 -->
      <g transform="translate(7.2 137.308253)scale(0.1 -0.1)">
       <use xlink:href="#DejaVuSans-48"/>
       <use x="63.623047" xlink:href="#DejaVuSans-46"/>
       <use x="95.410156" xlink:href="#DejaVuSans-54"/>
      </g>
     </g>
    </g>
    <g id="ytick_5">
     <g id="line2d_11">
      <g>
       <use style="stroke:#000000;stroke-width:0.8;" x="30.103125" xlink:href="#mbd57cf6070" y="84.090852"/>
      </g>
     </g>
     <g id="text_11">
      <!-- 0.8 -->
      <g transform="translate(7.2 87.890071)scale(0.1 -0.1)">
       <use xlink:href="#DejaVuSans-48"/>
       <use x="63.623047" xlink:href="#DejaVuSans-46"/>
       <use x="95.410156" xlink:href="#DejaVuSans-56"/>
      </g>
     </g>
    </g>
    <g id="ytick_6">
     <g id="line2d_12">
      <g>
       <use style="stroke:#000000;stroke-width:0.8;" x="30.103125" xlink:href="#mbd57cf6070" y="34.67267"/>
      </g>
     </g>
     <g id="text_12">
      <!-- 1.0 -->
      <g transform="translate(7.2 38.471889)scale(0.1 -0.1)">
       <use xlink:href="#DejaVuSans-49"/>
       <use x="63.623047" xlink:href="#DejaVuSans-46"/>
       <use x="95.410156" xlink:href="#DejaVuSans-48"/>
      </g>
     </g>
    </g>
   </g>
   <g id="line2d_13">
    <path clip-path="url(#p34d5c32f7a)" d="M 63.971536 281.76358 
L 71.78789 281.634148 
L 73.265632 281.557666 
L 75.912263 281.357635 
L 76.363664 281.328219 
L 77.665597 281.192904 
L 80.117414 280.881091 
L 80.207694 280.851675 
L 81.167514 280.71636 
L 81.243539 280.69871 
L 82.754542 280.381014 
L 83.695356 280.098618 
L 84.569647 279.92212 
L 84.945022 279.810338 
L 85.634001 279.604424 
L 87.458609 278.963149 
L 87.786468 278.810185 
L 88.323397 278.598387 
L 88.793804 278.416006 
L 88.90309 278.36894 
L 89.107408 278.274808 
L 89.335484 278.145377 
L 89.440019 278.057128 
L 90.452106 277.545284 
L 90.860742 277.37467 
L 90.970028 277.315837 
L 91.207608 277.198172 
L 96.367826 273.874132 
L 96.458106 273.79765 
L 96.795469 273.603502 
L 96.900004 273.532903 
L 97.322894 273.23874 
L 97.750537 272.879862 
L 98.159173 272.591582 
L 98.472777 272.379785 
L 98.710357 272.162104 
L 98.971694 271.985606 
L 99.161757 271.850292 
L 99.941016 271.238433 
L 100.325895 270.92662 
L 100.539716 270.744239 
L 100.97211 270.355944 
L 101.143167 270.214746 
L 101.765624 269.702903 
L 101.870159 269.549938 
L 102.240782 269.191059 
L 102.340566 269.073394 
L 102.497368 268.908663 
L 103.053303 268.39682 
L 103.447684 268.026175 
L 103.552219 267.926159 
L 103.761289 267.761428 
L 104.084396 267.431966 
L 104.193683 267.279001 
L 104.450268 266.990721 
L 105.039465 266.437695 
L 105.376827 266.10235 
L 105.486113 266.014101 
L 105.799718 265.690522 
L 105.885246 265.608156 
L 106.099067 265.466958 
L 106.270124 265.302227 
L 106.379411 265.155145 
L 106.564723 264.913932 
L 106.669257 264.796266 
L 106.954352 264.490337 
L 107.415256 264.096159 
L 107.595816 263.854945 
L 108.227776 263.24897 
L 108.403585 263.078355 
L 108.50812 262.931274 
L 108.645916 262.754776 
L 108.755202 262.566512 
L 108.921507 262.337065 
L 109.016539 262.23705 
L 109.135329 262.084085 
L 111.715438 258.712979 
L 111.824724 258.565897 
L 115.74478 253.535713 
L 115.849315 253.359215 
L 115.977608 253.153301 
L 116.082142 252.98857 
L 116.276957 252.741473 
L 116.386244 252.612041 
L 116.875657 251.829568 
L 116.984943 251.717786 
L 117.555133 250.835298 
L 117.650165 250.711749 
L 117.768954 250.570551 
L 117.863986 250.382287 
L 117.973272 250.217556 
L 118.586226 249.282118 
L 118.68601 249.08797 
L 118.809551 248.917356 
L 118.914086 248.687909 
L 119.056633 248.470228 
L 119.16592 248.352563 
L 119.313219 248.134883 
L 119.422505 247.940735 
L 119.840644 247.246511 
L 119.949931 247.093546 
L 120.553382 246.169875 
L 120.662668 245.993377 
L 120.752948 245.840413 
L 120.862235 245.693331 
L 121.413418 244.834376 
L 121.522704 244.628462 
L 121.888576 243.998953 
L 121.997863 243.822455 
L 122.263951 243.316495 
L 122.373238 243.098815 
L 122.473021 242.939967 
L 122.824638 242.328108 
L 122.933925 242.075128 
L 123.171504 241.604468 
L 123.28079 241.41032 
L 123.428089 241.19264 
L 123.532624 240.986726 
L 123.651413 240.786695 
L 123.7607 240.545481 
L 123.998279 240.074821 
L 124.107565 239.851257 
L 124.39266 239.321764 
L 124.501947 239.062901 
L 124.753781 238.57459 
L 124.853564 238.380443 
L 124.96285 238.215712 
L 125.252697 237.680335 
L 125.361983 237.503837 
L 125.547295 237.262624 
L 125.65183 237.07436 
L 125.718352 236.903745 
L 125.974937 236.409552 
L 126.074721 236.221287 
L 126.160249 236.068323 
L 126.264784 235.885942 
L 126.350312 235.703561 
L 126.568885 235.256433 
L 126.678172 235.074052 
L 126.949012 234.562209 
L 127.058298 234.379828 
L 127.12482 234.209214 
L 127.234107 233.9327 
L 127.504947 233.420857 
L 127.614233 233.185527 
L 127.8138 232.761932 
L 127.918335 232.497186 
L 127.99436 232.320688 
L 128.255697 231.820611 
L 128.364983 231.63823 
L 128.602563 231.16757 
L 128.711849 230.938123 
L 128.906664 230.520411 
L 129.011199 230.35568 
L 129.101479 230.202716 
L 129.210765 229.985035 
L 129.491108 229.461425 
L 129.600395 229.220212 
L 129.790458 228.808384 
L 129.894993 228.58482 
L 129.985273 228.402439 
L 130.094559 228.155342 
L 130.341642 227.672915 
L 130.450928 227.467001 
L 130.807297 226.849259 
L 130.916583 226.678645 
L 131.249194 226.090319 
L 131.35848 225.849105 
L 131.444009 225.666724 
L 131.553295 225.507876 
L 131.8669 224.943084 
L 131.976186 224.70187 
L 132.099727 224.495956 
L 132.285039 224.090012 
L 132.394325 223.92528 
L 132.70793 223.360488 
L 132.812465 223.113391 
L 132.907496 222.925127 
L 133.012031 222.725096 
L 133.083305 222.578015 
L 133.192591 222.330918 
L 133.316132 222.160303 
L 133.420667 221.907323 
L 133.487189 221.760242 
L 133.582221 221.571978 
L 133.691507 221.366064 
L 133.838807 221.148383 
L 133.948093 220.942469 
L 134.104895 220.571824 
L 134.214182 220.318844 
L 134.575302 219.695219 
L 134.684588 219.448122 
L 134.855645 219.059827 
L 134.964932 218.84803 
L 135.093224 218.512684 
L 135.202511 218.236171 
L 135.354561 217.871409 
L 135.463848 217.618429 
L 135.568383 217.3125 
L 135.677669 217.030103 
L 135.89149 216.588859 
L 136.000777 216.371178 
L 136.205095 215.941701 
L 136.314381 215.72402 
L 136.409413 215.565172 
L 136.661247 215.076862 
L 136.770533 214.847415 
L 136.922584 214.482653 
L 137.03187 214.282622 
L 137.155411 213.95316 
L 137.264698 213.70018 
L 137.435755 213.311885 
L 137.545041 213.000072 
L 137.749359 212.570594 
L 137.858645 212.329381 
L 138.039206 211.929319 
L 138.148492 211.635157 
L 138.314797 211.252745 
L 138.424084 211.023298 
L 138.709179 210.493805 
L 138.818465 210.276124 
L 139.003777 209.870179 
L 139.113063 209.646616 
L 139.307878 209.228904 
L 139.417165 209.02299 
L 139.535954 208.699411 
L 139.64524 208.452315 
L 139.76403 208.128735 
L 139.873316 207.852222 
L 140.115647 207.375679 
L 140.224934 207.146232 
L 140.491022 206.640271 
L 140.600309 206.322576 
L 140.804627 205.893098 
L 140.913913 205.669534 
L 141.032703 205.469503 
L 141.141989 205.21064 
L 141.322549 204.810578 
L 141.427084 204.498766 
L 141.512612 204.316385 
L 141.674166 203.939856 
L 141.783453 203.67511 
L 142.097057 203.110317 
L 142.206343 202.869104 
L 142.515196 202.310194 
L 142.624483 202.033681 
L 142.776533 201.668919 
L 142.88582 201.392406 
L 142.980851 201.204142 
L 143.090138 200.933512 
L 143.356226 200.427552 
L 143.465513 200.115739 
L 143.641321 199.721561 
L 143.750608 199.456815 
L 143.950174 199.03322 
L 144.054709 198.733174 
L 144.149741 198.54491 
L 144.335052 198.138965 
L 144.444339 197.927168 
L 144.59639 197.562406 
L 144.705676 197.385908 
L 144.810211 197.079979 
L 144.919497 196.868182 
L 144.990771 196.603435 
L 145.100057 196.426937 
L 145.242605 196.073942 
L 145.34714 195.832728 
L 145.413662 195.662114 
L 145.58947 195.267936 
L 145.698757 194.997306 
L 145.79854 194.69726 
L 145.907826 194.385447 
L 145.983852 194.208949 
L 146.093138 193.90302 
L 146.283201 193.491192 
L 146.392488 193.244095 
L 146.596806 192.814618 
L 146.706092 192.585171 
L 146.843888 192.238058 
L 146.953174 191.979195 
L 147.143238 191.567367 
L 147.247773 191.296737 
L 147.342804 191.108473 
L 147.466345 190.779011 
L 147.575632 190.514264 
L 147.756192 190.114203 
L 147.860727 189.80239 
L 147.922497 189.637659 
L 148.031784 189.308196 
L 148.236102 188.878719 
L 148.345388 188.53749 
L 148.397656 188.396292 
L 148.506942 188.090362 
L 148.725515 187.643235 
L 148.834801 187.302006 
L 148.925081 187.013726 
L 149.034368 186.766629 
L 149.138902 186.4607 
L 149.248189 186.319502 
L 149.485768 185.848841 
L 149.595054 185.595861 
L 149.908659 185.031069 
L 150.017945 184.778089 
L 150.174747 184.407443 
L 150.284034 184.189763 
L 150.478849 183.772052 
L 150.588135 183.530838 
L 150.754441 183.148426 
L 150.863727 182.824847 
L 150.996771 182.483618 
L 151.106058 182.254171 
L 151.26286 181.883526 
L 151.372146 181.577597 
L 151.481433 181.265784 
L 151.590719 180.930438 
L 151.690502 180.630392 
L 151.799789 180.453895 
L 151.875814 180.277397 
L 152.032616 179.906752 
L 152.141903 179.606706 
L 152.298705 179.23606 
L 152.407991 179.00073 
L 152.569545 178.624202 
L 152.678832 178.318272 
L 152.88315 177.888795 
L 152.992436 177.629931 
L 153.106474 177.312235 
L 153.21576 177.047489 
L 153.458091 176.570945 
L 153.562626 176.323848 
L 153.667161 176.129701 
L 153.842969 175.735523 
L 153.952256 175.506076 
L 154.185083 175.041298 
L 154.29437 174.841268 
L 154.598471 174.288241 
L 154.703006 173.976429 
L 154.769528 173.805814 
L 154.878814 173.641083 
L 154.992852 173.323387 
L 155.102139 173.11159 
L 155.277947 172.717412 
L 155.387234 172.470315 
L 155.501272 172.152619 
L 155.610558 171.870223 
L 155.800621 171.458395 
L 155.909908 171.223065 
L 156.095219 170.81712 
L 156.204506 170.517074 
L 156.304289 170.217028 
L 156.413575 169.934631 
L 156.570378 169.563986 
L 156.679664 169.293356 
L 156.784199 169.099209 
L 156.960007 168.705031 
L 157.069294 168.440284 
L 157.235599 168.057872 
L 157.340134 167.834309 
L 157.406656 167.663694 
L 157.572962 167.281282 
L 157.682248 166.957703 
L 157.853305 166.569408 
L 157.95784 166.351728 
L 158.029113 166.181113 
L 158.1384 165.9046 
L 158.266693 165.569255 
L 158.371227 165.228026 
L 158.442501 165.057411 
L 158.551788 164.680883 
L 158.665826 164.363187 
L 158.775112 164.110207 
L 158.931914 163.739562 
L 159.041201 163.539531 
L 159.207506 163.157119 
L 159.307289 162.927672 
L 159.397569 162.774708 
L 159.506856 162.474661 
L 159.658906 162.109899 
L 159.768193 161.798087 
L 159.84897 161.621589 
L 159.958256 161.427442 
L 160.077046 161.103863 
L 160.186332 160.886182 
L 160.376395 160.474354 
L 160.485682 160.197841 
L 160.651987 159.815429 
L 160.761273 159.485967 
L 160.927579 159.103555 
L 161.036865 158.756443 
L 161.274444 158.285782 
L 161.383731 157.921021 
L 161.569043 157.515076 
L 161.678329 157.303279 
L 161.858889 156.903217 
L 161.968175 156.614937 
L 162.148736 156.214876 
L 162.258022 155.956013 
L 162.376812 155.632434 
L 162.486098 155.320621 
L 162.633397 154.961742 
L 162.742683 154.685229 
L 162.847218 154.3793 
L 162.951753 154.09102 
L 163.061039 153.896873 
L 163.170326 153.661542 
L 163.274861 153.355613 
L 163.384147 153.0791 
L 163.517191 152.737871 
L 163.626478 152.402525 
L 163.826044 151.978931 
L 163.935331 151.684768 
L 164.044617 151.372956 
L 164.153903 151.05526 
L 164.277445 150.725797 
L 164.386731 150.402218 
L 164.638565 149.913908 
L 164.747851 149.613862 
L 164.89515 149.254983 
L 165.004437 148.913754 
L 165.175494 148.525459 
L 165.280029 148.20188 
L 165.356054 148.025382 
L 165.46534 147.778286 
L 165.58413 147.454706 
L 165.693416 147.148777 
L 165.797951 146.842848 
L 165.907237 146.531035 
L 166.15432 146.048608 
L 166.263606 145.813278 
L 166.448918 145.407333 
L 166.558204 145.136703 
L 166.624726 144.966089 
L 166.805287 144.566027 
L 166.914573 144.365996 
L 167.028611 144.165966 
L 167.133146 143.889453 
L 167.218674 143.707072 
L 167.427744 143.271711 
L 167.522776 143.03638 
L 167.598801 142.901066 
L 167.708087 142.630436 
L 167.931412 142.177425 
L 168.035946 141.942095 
L 168.159488 141.736181 
L 168.354302 141.318469 
L 168.463589 141.053723 
L 168.653652 140.641895 
L 168.762939 140.312432 
L 169.029027 139.806472 
L 169.138314 139.588792 
L 169.309371 139.200497 
L 169.418657 138.959283 
L 169.494682 138.782786 
L 169.603969 138.518039 
L 169.813038 138.082678 
L 169.922325 137.735566 
L 170.060121 137.388454 
L 170.164655 137.094291 
L 170.250184 136.91191 
L 170.378477 136.576564 
L 170.487763 136.3883 
L 170.587546 136.088254 
L 170.692081 135.858807 
L 170.787113 135.670543 
L 170.896399 135.435212 
L 171.043698 135.076334 
L 171.148233 134.87042 
L 171.214755 134.699805 
L 171.333545 134.376226 
L 171.442831 134.164429 
L 171.637646 133.746718 
L 171.746932 133.487854 
L 171.989263 133.011311 
L 172.09855 132.787747 
L 172.393148 132.246487 
L 172.502434 131.952324 
L 172.682994 131.552263 
L 172.792281 131.375765 
L 173.020357 130.916871 
L 173.129643 130.610942 
L 173.262687 130.399144 
L 173.419489 130.028499 
L 173.528776 129.746103 
L 173.718839 129.334275 
L 173.828126 129.081295 
L 173.937412 128.887147 
L 174.046698 128.681233 
L 174.203501 128.310588 
L 174.312787 128.092908 
L 174.474341 127.716379 
L 174.578876 127.469282 
L 174.688162 127.275135 
L 174.797448 127.016272 
L 174.882977 126.863307 
L 174.992263 126.680926 
L 175.258352 126.174966 
L 175.367638 125.763138 
L 175.590963 125.310127 
L 175.700249 125.021848 
L 175.76202 124.857116 
L 175.871306 124.662969 
L 176.080376 124.227608 
L 176.189662 124.021694 
L 176.403483 123.58045 
L 176.51277 123.298053 
L 176.702833 122.886225 
L 176.812119 122.656778 
L 176.96417 122.292016 
L 177.073457 122.068453 
L 177.230259 121.697807 
L 177.339545 121.474244 
L 177.529608 121.062416 
L 177.638895 120.850618 
L 177.710169 120.585872 
L 177.819455 120.397608 
L 178.004767 119.991663 
L 178.109302 119.773982 
L 178.190078 119.597485 
L 178.294613 119.420987 
L 178.408651 119.220956 
L 178.650982 118.744412 
L 178.760268 118.479666 
L 179.040612 117.956056 
L 179.149898 117.661893 
L 179.406484 117.1677 
L 179.51577 116.89707 
L 179.753349 116.426409 
L 179.862635 116.185196 
L 180.047947 115.779251 
L 180.157234 115.56157 
L 180.437577 115.037961 
L 180.546863 114.755564 
L 180.841461 114.214305 
L 180.950748 114.020157 
L 181.088544 113.673045 
L 181.19783 113.461248 
L 181.326123 113.125902 
L 181.435409 112.925871 
L 181.539944 112.731724 
L 181.701498 112.355195 
L 181.810784 112.149281 
L 181.97709 111.76687 
L 182.081625 111.578605 
L 182.167153 111.396224 
L 182.33821 111.00793 
L 182.442745 110.778482 
L 182.561534 110.578452 
L 182.670821 110.390188 
L 182.974922 109.837161 
L 183.084208 109.625364 
L 183.188743 109.431217 
L 183.29803 109.172353 
L 183.597379 108.62521 
L 183.706666 108.366347 
L 183.858716 108.142783 
L 183.963251 107.878037 
L 184.029773 107.707422 
L 184.134308 107.483859 
L 184.257849 107.277945 
L 184.362384 107.08968 
L 184.50018 106.877883 
L 184.609466 106.654319 
L 184.704498 106.466055 
L 184.809033 106.260141 
L 184.923071 106.06011 
L 185.032357 105.830663 
L 185.307949 105.312937 
L 185.417236 105.10114 
L 185.735592 104.530464 
L 185.840126 104.353966 
L 185.920903 104.201001 
L 186.03019 103.959788 
L 186.153731 103.753874 
L 186.396062 103.27733 
L 186.500596 103.000817 
L 186.671653 102.765487 
L 186.776188 102.571339 
L 186.909232 102.359542 
L 187.151563 101.882998 
L 187.26085 101.647668 
L 187.626721 101.018159 
L 187.736008 100.765179 
L 187.835791 100.629864 
L 188.002096 100.247453 
L 188.111383 100.082721 
L 188.230172 99.882691 
L 188.339459 99.623827 
L 188.463 99.453213 
L 188.572286 99.317898 
L 188.771853 98.894303 
L 188.876388 98.711922 
L 188.971419 98.523658 
L 189.380055 97.8412 
L 189.489342 97.652936 
L 189.840959 97.041077 
L 189.950245 96.805747 
L 190.501429 95.946792 
L 190.610715 95.693812 
L 191.057364 94.964288 
L 191.157147 94.764257 
L 191.28544 94.593643 
L 191.922152 93.628788 
L 192.031438 93.440524 
L 192.435323 92.76395 
L 192.539858 92.581569 
L 192.634889 92.422721 
L 192.744176 92.234457 
L 193.44741 91.187237 
L 193.556696 90.97544 
L 194.065116 90.169433 
L 194.174402 90.022352 
L 194.982171 88.845701 
L 195.086706 88.698619 
L 195.257763 88.463289 
L 195.367049 88.216192 
L 195.447826 88.063227 
L 195.557113 87.863197 
L 195.922985 87.233688 
L 196.027519 87.016008 
L 196.141557 86.851276 
L 196.507429 86.221768 
L 196.611964 86.02762 
L 196.84004 85.756991 
L 197.937656 84.221461 
L 198.046942 84.044963 
L 199.040023 82.638864 
L 199.149309 82.4506 
L 199.852543 81.40338 
L 199.957078 81.268066 
L 200.170899 81.009202 
L 200.280186 80.809172 
L 201.952743 78.561767 
L 202.057278 78.444102 
L 202.199825 78.285254 
L 202.309112 78.120523 
L 205.164813 74.408188 
L 205.274099 74.261107 
L 205.39764 74.055193 
L 205.506927 73.919878 
L 210.04944 68.471982 
L 210.168229 68.319017 
L 210.895221 67.589493 
L 211.004508 67.424762 
L 212.054607 66.30106 
L 212.230416 66.130445 
L 213.090452 65.23619 
L 213.199739 65.089109 
L 214.112043 64.136021 
L 214.306858 63.935991 
L 214.568195 63.647711 
L 214.677481 63.488863 
L 215.765593 62.312212 
L 215.96516 62.112181 
L 216.958241 61.059078 
L 217.357374 60.682549 
L 217.46666 60.564884 
L 217.666227 60.388387 
L 217.770761 60.258955 
L 218.074863 59.941259 
L 218.564276 59.500015 
L 218.678314 59.3647 
L 219.072695 59.052887 
L 219.343535 58.82344 
L 219.438567 58.752841 
L 219.619127 58.582227 
L 219.723662 58.511628 
L 220.369877 57.982135 
L 220.811774 57.611489 
L 221.928396 56.793717 
L 222.018676 56.676051 
L 222.237249 56.51132 
L 222.346535 56.405422 
L 222.66014 56.158325 
L 222.816942 56.028893 
L 223.192317 55.722964 
L 223.401387 55.587649 
L 223.496418 55.428801 
L 224.670059 54.575729 
L 224.760339 54.463947 
L 225.078695 54.287449 
L 225.477828 54.005053 
L 225.587115 53.887388 
L 225.910222 53.634408 
L 226.190566 53.481443 
L 226.618208 53.128448 
L 229.022509 51.510552 
L 229.345617 51.281105 
L 229.668724 51.069308 
L 229.773259 50.986942 
L 230.115373 50.769261 
L 230.219908 50.692779 
L 230.899384 50.292718 
L 231.00867 50.210352 
L 231.260504 50.063271 
L 231.57886 49.910306 
L 231.939981 49.645559 
L 232.035012 49.539661 
L 232.467406 49.32198 
L 232.819023 49.063117 
L 234.296766 48.268877 
L 234.719656 48.068847 
L 235.247082 47.792333 
L 235.54168 47.598186 
L 236.012087 47.368739 
L 236.900633 46.945144 
L 237.608619 46.609799 
L 245.320437 43.526972 
L 245.909633 43.374007 
L 249.373537 42.18559 
L 249.558849 42.126757 
L 250.960566 41.66198 
L 252.590359 41.261918 
L 252.699645 41.208969 
L 253.231822 41.008938 
L 254.196393 40.726542 
L 254.300928 40.691242 
L 255.602862 40.402963 
L 256.344109 40.214699 
L 256.895292 40.0735 
L 258.496576 39.744038 
L 259.114281 39.608723 
L 261.043424 39.238078 
L 261.884454 39.06158 
L 262.074517 38.996864 
L 263.352693 38.767417 
L 263.490489 38.738001 
L 264.882703 38.514437 
L 266.213146 38.332056 
L 267.363029 38.190858 
L 267.84769 38.102609 
L 275.526248 37.149522 
L 277.369862 36.949491 
L 277.403123 36.931841 
L 279.560341 36.696511 
L 280.045003 36.608262 
L 297.169706 35.46691 
L 333.980217 34.74327 
L 353.570992 34.69032 
L 417.475026 34.67267 
L 417.475026 34.67267 
" style="fill:none;stroke:#1f77b4;stroke-linecap:square;stroke-width:1.5;"/>
   </g>
   <g id="line2d_14">
    <path clip-path="url(#p34d5c32f7a)" d="M 48.549406 281.76358 
L 60.280914 281.516464 
L 63.991231 281.318771 
L 67.325446 281.195214 
L 71.113544 280.997521 
L 74.346804 280.700982 
L 74.739861 280.552713 
L 76.06459 280.404444 
L 78.964657 280.058482 
L 80.857208 279.737231 
L 81.423491 279.588962 
L 82.424795 279.415981 
L 86.924176 278.279249 
L 87.075973 278.205115 
L 90.038565 277.364921 
L 90.130588 277.315498 
L 90.338257 277.117806 
L 90.477957 277.043671 
L 91.979794 276.376459 
L 92.758138 276.22819 
L 92.92587 276.178767 
L 93.369482 276.005786 
L 94.575913 275.387997 
L 94.882746 275.28915 
L 95.30824 275.140881 
L 95.714225 274.918477 
L 96.58325 274.399534 
L 98.576083 273.238091 
L 98.808509 272.966263 
L 99.491354 272.496744 
L 99.749016 272.373186 
L 100.220026 272.224917 
L 101.922538 271.088185 
L 102.606338 270.593953 
L 102.70738 270.495107 
L 103.452086 269.926741 
L 103.529653 269.803184 
L 103.854716 269.531356 
L 105.362968 268.098086 
L 105.581053 267.974528 
L 105.953422 267.653278 
L 106.084705 267.480297 
L 106.27833 267.307316 
L 106.562358 267.109623 
L 107.023361 266.689527 
L 107.321529 266.516546 
L 109.368454 264.341928 
L 109.460358 264.21837 
L 109.626476 264.020678 
L 109.81563 263.724139 
L 110.063884 263.501735 
L 110.228666 263.328754 
L 110.398423 263.155773 
L 110.417794 263.10635 
L 110.638547 262.958081 
L 110.751203 262.859235 
L 111.131 262.46385 
L 111.402294 261.944907 
L 112.062302 261.055291 
L 112.253579 260.684617 
L 112.715705 260.165674 
L 112.852796 259.992693 
L 112.960757 259.819712 
L 113.505216 259.226635 
L 113.629979 259.127789 
L 115.33649 256.977883 
L 115.438833 256.804902 
L 115.77655 256.310671 
L 115.884961 256.13769 
L 116.057584 255.816439 
L 116.44466 255.272785 
L 116.563434 255.075093 
L 116.654113 254.827977 
L 116.777255 254.605573 
L 116.964903 254.234899 
L 117.074056 254.061918 
L 117.139536 253.888938 
L 117.458532 253.691245 
L 117.593828 253.592399 
L 117.985134 253.048744 
L 118.074751 252.875763 
L 118.251727 252.381532 
L 118.326972 252.109705 
L 118.565244 251.640185 
L 118.771991 251.39307 
L 118.973811 250.948262 
L 119.252975 250.627011 
L 119.362493 250.379896 
L 119.50407 250.182203 
L 119.791404 249.638549 
L 119.837432 249.465568 
L 119.945243 249.169029 
L 120.319586 248.575952 
L 120.463985 248.304125 
L 121.030094 247.636912 
L 121.264761 247.192104 
L 121.450899 246.772008 
L 122.896247 243.757197 
L 123.016038 243.435947 
L 123.295583 242.917004 
L 123.369321 242.719311 
L 123.522537 242.546331 
L 123.778108 242.126234 
L 123.95947 241.755561 
L 124.098596 241.58258 
L 124.275951 241.063637 
L 124.493764 240.64354 
L 124.734489 240.198732 
L 124.868343 239.976328 
L 124.977656 239.803347 
L 125.270981 239.21027 
L 125.372721 238.889019 
L 125.481945 238.641904 
L 125.575451 238.4195 
L 126.170921 237.604018 
L 126.965612 235.89892 
L 127.10022 235.750651 
L 127.233908 235.503535 
L 127.527083 235.132862 
L 127.668255 234.910458 
L 128.274951 233.724303 
L 128.401912 233.427764 
L 128.612566 232.88411 
L 128.715186 232.488725 
L 128.976388 231.895647 
L 129.253391 231.228435 
L 129.36461 231.080166 
L 129.605379 230.684781 
L 129.765961 230.412954 
L 129.870339 230.19055 
L 130.012486 229.992857 
L 130.153746 229.473914 
L 131.093708 227.398143 
L 131.442787 226.780354 
L 131.565652 226.533238 
L 131.892751 225.841315 
L 131.996969 225.594199 
L 132.13731 225.322372 
L 132.321859 224.852852 
L 132.529194 224.457467 
L 132.643136 224.086794 
L 132.797745 223.814967 
L 132.917338 223.419582 
L 133.039652 223.048908 
L 133.363344 222.159292 
L 133.515189 221.862753 
L 133.635692 221.665061 
L 133.736284 221.49208 
L 133.881933 221.170829 
L 133.987347 220.948425 
L 135.283125 218.304288 
L 135.417486 217.958326 
L 135.652844 217.266403 
L 135.75884 217.043998 
L 135.906902 216.772171 
L 136.098357 216.352075 
L 136.203068 216.080248 
L 136.715848 214.894093 
L 136.990698 214.37515 
L 137.664281 212.571206 
L 137.769232 212.299379 
L 138.033133 211.68159 
L 138.140374 211.53332 
L 138.321773 211.0638 
L 139.836897 207.208797 
L 139.909381 207.011104 
L 140.115137 206.442738 
L 140.187176 206.269757 
L 140.346662 205.899084 
L 140.636828 205.35543 
L 140.899955 204.638794 
L 141.035845 204.292832 
L 141.658332 202.686581 
L 141.794499 202.414754 
L 142.412559 200.783791 
L 142.506833 200.61081 
L 142.708082 199.943598 
L 142.91889 199.375232 
L 143.069315 199.02927 
L 143.167094 198.782154 
L 143.331131 198.337346 
L 143.454352 198.065519 
L 143.618776 197.521864 
L 143.74983 197.250037 
L 144.499873 195.07542 
L 144.635226 194.680035 
L 144.770187 194.235227 
L 144.964101 193.568015 
L 145.054322 193.34561 
L 145.177323 193.123206 
L 145.2645 192.925514 
L 145.359731 192.727821 
L 145.568901 192.357148 
L 145.914095 191.44282 
L 146.07693 191.220416 
L 146.236147 190.750896 
L 146.416144 190.454358 
L 146.743541 189.614165 
L 146.874747 189.317626 
L 146.996954 189.07051 
L 147.816163 187.143008 
L 147.940375 186.722912 
L 148.216619 186.105123 
L 148.343122 185.858007 
L 148.494126 185.487334 
L 148.656129 185.141372 
L 148.776397 184.894256 
L 150.994102 179.877809 
L 151.176169 179.457713 
L 151.412019 178.741077 
L 151.550445 178.493962 
L 151.653289 178.172711 
L 151.910522 177.703192 
L 152.018335 177.431365 
L 152.207938 176.961845 
L 152.311526 176.764152 
L 152.460398 176.24521 
L 152.575906 176.022805 
L 152.69911 175.726267 
L 152.96102 174.98492 
L 153.074709 174.713093 
L 153.427871 173.848188 
L 153.540351 173.452803 
L 153.930898 172.637321 
L 153.996698 172.390206 
L 154.102874 171.895975 
L 154.267618 171.426455 
L 154.769418 170.215588 
L 154.877892 170.042607 
L 155.106456 169.573088 
L 155.198409 169.276549 
L 155.300591 169.054145 
L 155.521812 168.288087 
L 155.84217 167.497317 
L 156.012585 167.003085 
L 156.228033 166.311162 
L 156.416657 165.989911 
L 156.608456 165.446257 
L 159.282188 159.070674 
L 159.388744 158.922405 
L 159.528898 158.576443 
L 160.013885 157.464422 
L 160.248938 156.994903 
L 160.425717 156.574806 
L 160.590761 156.401825 
L 161.261574 154.474323 
L 161.38901 154.177785 
L 161.492133 153.807111 
L 161.625025 153.63413 
L 161.76014 153.189322 
L 161.929834 152.818649 
L 162.280134 151.929032 
L 162.58219 151.41009 
L 162.700062 151.138262 
L 162.796361 150.891147 
L 162.932908 150.495762 
L 163.013664 150.322781 
L 163.421722 149.408453 
L 163.47812 149.210761 
L 163.703694 148.617683 
L 163.998978 147.555086 
L 164.140458 147.382105 
L 164.207122 147.134989 
L 164.311809 146.962008 
L 164.461054 146.739604 
L 164.497742 146.66547 
L 164.668594 146.5172 
L 164.778713 146.270085 
L 164.962976 145.973546 
L 165.091148 145.528738 
L 168.342886 139.029597 
L 168.490979 138.584789 
L 168.655236 138.312962 
L 168.844724 137.794019 
L 169.036024 137.398634 
L 169.144554 137.151518 
L 169.512286 136.360748 
L 169.671723 136.06421 
L 169.77515 135.891229 
L 170.093164 135.12517 
L 170.254698 134.952189 
L 170.369953 134.556804 
L 170.630204 134.087285 
L 170.700331 133.889592 
L 170.815136 133.6919 
L 170.985244 133.345938 
L 171.42577 132.382187 
L 171.566781 132.135071 
L 171.833093 131.146609 
L 171.925435 130.899493 
L 172.008305 130.726512 
L 172.098914 130.52882 
L 172.192826 130.306416 
L 172.354152 129.762761 
L 172.446045 129.58978 
L 172.990976 128.304779 
L 173.060234 128.131798 
L 173.209881 127.662279 
L 173.575448 126.797374 
L 173.921243 126.377277 
L 174.890923 124.350929 
L 175.25407 124.029679 
L 175.390604 123.757852 
L 175.577388 123.486025 
L 175.69153 123.065928 
L 176.008075 122.522274 
L 176.284894 121.953908 
L 176.385209 121.780927 
L 176.582711 121.336119 
L 176.766181 121.064291 
L 177.024276 120.397079 
L 177.152861 120.100541 
L 177.232774 120.001694 
L 177.326007 119.853425 
L 177.73892 118.864962 
L 177.976745 118.444866 
L 178.147548 117.925923 
L 178.66286 117.159865 
L 178.733812 116.888037 
L 178.946515 116.665633 
L 179.14421 116.196114 
L 179.282479 115.850152 
L 179.393885 115.627748 
L 179.50254 115.405344 
L 180.502246 113.823804 
L 180.601016 113.650823 
L 180.765119 113.206015 
L 183.059993 109.523992 
L 183.186085 109.276876 
L 183.353807 109.029761 
L 183.504754 108.683799 
L 183.591385 108.510818 
L 183.716952 108.362549 
L 184.116994 107.695336 
L 184.225563 107.423509 
L 184.962933 106.089085 
L 185.2684 105.792546 
L 185.3833 105.446584 
L 185.489957 105.273603 
L 185.670813 104.927641 
L 186.132516 104.235718 
L 186.259093 104.013314 
L 186.429658 103.840333 
L 186.730938 103.444948 
L 186.966842 103.123697 
L 187.137898 102.85187 
L 187.550393 102.135235 
L 187.745558 101.764561 
L 187.952548 101.566869 
L 188.445441 100.800811 
L 188.716476 100.62783 
L 188.879874 100.281868 
L 188.995411 100.034752 
L 189.172791 99.861771 
L 189.792478 99.021578 
L 189.878956 98.922732 
L 190.170379 98.601482 
L 191.032846 97.094076 
L 191.268706 96.945807 
L 191.515055 96.426864 
L 191.641682 96.278595 
L 191.977099 95.759652 
L 192.078603 95.586671 
L 192.303771 95.191286 
L 192.407998 94.993593 
L 192.684572 94.548785 
L 192.809998 94.326381 
L 193.075657 93.955708 
L 193.200696 93.733304 
L 193.290338 93.436765 
L 193.46732 93.04138 
L 194.85442 91.089167 
L 195.002534 90.792628 
L 195.314413 90.397243 
L 195.548619 90.125416 
L 195.645253 90.026569 
L 195.955662 89.754742 
L 196.0689 89.433492 
L 196.232355 89.235799 
L 196.361629 88.963972 
L 196.471639 88.667434 
L 196.728538 88.370895 
L 196.900545 88.024933 
L 197.063223 87.876664 
L 197.169662 87.728394 
L 197.300508 87.530702 
L 197.435415 87.382432 
L 197.622025 87.085894 
L 198.50973 85.998585 
L 198.858867 85.553777 
L 199.725697 84.293487 
L 200.050467 83.947525 
L 200.281087 83.502717 
L 200.411817 83.329736 
L 200.521871 83.156755 
L 200.617055 82.983774 
L 200.822159 82.736659 
L 201.146224 82.464831 
L 201.561198 82.069446 
L 201.685433 81.847042 
L 202.018011 81.426946 
L 202.296431 81.080984 
L 202.526145 80.883292 
L 202.870345 80.487907 
L 203.619276 79.27704 
L 204.060473 78.832232 
L 204.179974 78.659251 
L 204.498355 78.338001 
L 204.675677 78.01675 
L 207.317122 74.878382 
L 207.464705 74.730113 
L 207.570884 74.680689 
L 208.196012 73.791073 
L 208.422528 73.618092 
L 208.615406 73.346265 
L 208.732149 73.197996 
L 209.149688 72.852034 
L 209.965308 71.912994 
L 210.070942 71.665879 
L 210.252214 71.394052 
L 210.442079 71.072801 
L 210.726142 70.850397 
L 210.83537 70.677416 
L 210.955955 70.455012 
L 211.102904 70.25732 
L 211.380818 70.059627 
L 211.533745 69.861935 
L 211.829288 69.590108 
L 212.244304 68.99703 
L 212.38805 68.749915 
L 212.752987 68.576934 
L 212.893827 68.280395 
L 213.196268 67.909721 
L 214.120649 67.242509 
L 214.500647 66.871836 
L 214.560114 66.77299 
L 214.889835 66.600009 
L 215.376344 65.932796 
L 215.70148 65.660969 
L 215.833085 65.463277 
L 216.806958 64.598372 
L 216.987374 64.40068 
L 217.217276 64.104141 
L 217.375679 63.906448 
L 217.502232 63.758179 
L 217.887157 63.412217 
L 218.107731 63.165102 
L 218.232079 62.967409 
L 218.582228 62.769717 
L 218.964251 62.34962 
L 219.20203 62.127216 
L 219.400185 61.805966 
L 219.55475 61.608273 
L 220.139104 61.311734 
L 220.310097 61.114042 
L 220.783018 60.891638 
L 221.060845 60.669234 
L 221.584513 60.026733 
L 222.072024 59.532502 
L 222.799542 58.890001 
L 222.960168 58.71702 
L 223.291567 58.420482 
L 223.541396 58.148654 
L 223.550585 58.123943 
L 223.879005 57.975673 
L 225.652494 56.665961 
L 226.287608 56.02346 
L 226.358929 55.875191 
L 226.548386 55.726921 
L 227.14276 55.207979 
L 227.27282 55.084421 
L 228.058023 54.466632 
L 228.426958 54.071247 
L 228.665234 53.873554 
L 228.857199 53.725285 
L 229.908235 52.885092 
L 230.478318 52.563841 
L 230.597013 52.415572 
L 230.943901 52.21788 
L 231.162025 51.995475 
L 231.807031 51.624802 
L 231.910282 51.451821 
L 232.308523 51.105859 
L 233.61309 50.240955 
L 234.075588 50.043262 
L 234.522443 49.647877 
L 234.623006 49.499608 
L 234.957478 49.301915 
L 235.02994 49.227781 
L 235.376989 49.079511 
L 235.486829 48.955953 
L 235.738971 48.807684 
L 236.421227 48.511145 
L 236.701946 48.362876 
L 236.833096 48.313453 
L 237.422532 48.091049 
L 237.721907 47.79451 
L 238.116919 47.621529 
L 239.484441 46.904894 
L 239.82993 46.707201 
L 239.832973 46.68249 
L 240.268426 46.509509 
L 240.403059 46.385951 
L 240.69946 46.237682 
L 240.797648 46.138835 
L 241.224415 45.965854 
L 242.078274 45.496335 
L 242.275698 45.273931 
L 244.573439 44.507872 
L 244.656126 44.433737 
L 246.368392 43.494698 
L 247.135006 43.04989 
L 247.6655 42.876909 
L 248.173096 42.679217 
L 248.682141 42.506236 
L 248.713284 42.456813 
L 249.470084 42.308543 
L 249.626945 42.25912 
L 250.584632 41.987293 
L 251.663541 41.641331 
L 252.005358 41.46835 
L 253.601864 41.023542 
L 254.069429 40.875273 
L 256.343121 40.158637 
L 257.364446 39.960945 
L 257.43623 39.862098 
L 258.083438 39.738541 
L 258.923239 39.466713 
L 258.923992 39.442002 
L 259.953667 39.145463 
L 260.69117 38.873636 
L 261.733253 38.725367 
L 261.965781 38.601809 
L 263.527953 38.354693 
L 263.65115 38.280559 
L 264.517177 38.132289 
L 265.161873 37.885174 
L 269.285021 37.267384 
L 269.317668 37.242673 
L 270.633711 36.995557 
L 270.765736 36.921423 
L 272.073298 36.748442 
L 272.333095 36.649595 
L 274.392824 36.40248 
L 277.875753 36.105941 
L 297.361547 34.919786 
L 310.500927 34.722094 
L 332.601843 34.67267 
L 332.601843 34.67267 
" style="fill:none;stroke:#ff7f0e;stroke-linecap:square;stroke-width:1.5;"/>
   </g>
   <g id="patch_3">
    <path d="M 30.103125 294.118125 
L 30.103125 22.318125 
" style="fill:none;stroke:#000000;stroke-linecap:square;stroke-linejoin:miter;stroke-width:0.8;"/>
   </g>
   <g id="patch_4">
    <path d="M 435.921307 294.118125 
L 435.921307 22.318125 
" style="fill:none;stroke:#000000;stroke-linecap:square;stroke-linejoin:miter;stroke-width:0.8;"/>
   </g>
   <g id="patch_5">
    <path d="M 30.103125 294.118125 
L 435.921307 294.118125 
" style="fill:none;stroke:#000000;stroke-linecap:square;stroke-linejoin:miter;stroke-width:0.8;"/>
   </g>
   <g id="patch_6">
    <path d="M 30.103125 22.318125 
L 435.921307 22.318125 
" style="fill:none;stroke:#000000;stroke-linecap:square;stroke-linejoin:miter;stroke-width:0.8;"/>
   </g>
   <g id="text_13">
    <!-- CDF of mean brightness compared to Gaussian mixture CDF -->
    <defs>
     <path d="M 64.40625 67.28125 
L 64.40625 56.890625 
Q 59.421875 61.53125 53.78125 63.8125 
Q 48.140625 66.109375 41.796875 66.109375 
Q 29.296875 66.109375 22.65625 58.46875 
Q 16.015625 50.828125 16.015625 36.375 
Q 16.015625 21.96875 22.65625 14.328125 
Q 29.296875 6.6875 41.796875 6.6875 
Q 48.140625 6.6875 53.78125 8.984375 
Q 59.421875 11.28125 64.40625 15.921875 
L 64.40625 5.609375 
Q 59.234375 2.09375 53.4375 0.328125 
Q 47.65625 -1.421875 41.21875 -1.421875 
Q 24.65625 -1.421875 15.125 8.703125 
Q 5.609375 18.84375 5.609375 36.375 
Q 5.609375 53.953125 15.125 64.078125 
Q 24.65625 74.21875 41.21875 74.21875 
Q 47.75 74.21875 53.53125 72.484375 
Q 59.328125 70.75 64.40625 67.28125 
z
" id="DejaVuSans-67"/>
     <path d="M 19.671875 64.796875 
L 19.671875 8.109375 
L 31.59375 8.109375 
Q 46.6875 8.109375 53.6875 14.9375 
Q 60.6875 21.78125 60.6875 36.53125 
Q 60.6875 51.171875 53.6875 57.984375 
Q 46.6875 64.796875 31.59375 64.796875 
z
M 9.8125 72.90625 
L 30.078125 72.90625 
Q 51.265625 72.90625 61.171875 64.09375 
Q 71.09375 55.28125 71.09375 36.53125 
Q 71.09375 17.671875 61.125 8.828125 
Q 51.171875 0 30.078125 0 
L 9.8125 0 
z
" id="DejaVuSans-68"/>
     <path d="M 9.8125 72.90625 
L 51.703125 72.90625 
L 51.703125 64.59375 
L 19.671875 64.59375 
L 19.671875 43.109375 
L 48.578125 43.109375 
L 48.578125 34.8125 
L 19.671875 34.8125 
L 19.671875 0 
L 9.8125 0 
z
" id="DejaVuSans-70"/>
     <path id="DejaVuSans-32"/>
     <path d="M 30.609375 48.390625 
Q 23.390625 48.390625 19.1875 42.75 
Q 14.984375 37.109375 14.984375 27.296875 
Q 14.984375 17.484375 19.15625 11.84375 
Q 23.34375 6.203125 30.609375 6.203125 
Q 37.796875 6.203125 41.984375 11.859375 
Q 46.1875 17.53125 46.1875 27.296875 
Q 46.1875 37.015625 41.984375 42.703125 
Q 37.796875 48.390625 30.609375 48.390625 
z
M 30.609375 56 
Q 42.328125 56 49.015625 48.375 
Q 55.71875 40.765625 55.71875 27.296875 
Q 55.71875 13.875 49.015625 6.21875 
Q 42.328125 -1.421875 30.609375 -1.421875 
Q 18.84375 -1.421875 12.171875 6.21875 
Q 5.515625 13.875 5.515625 27.296875 
Q 5.515625 40.765625 12.171875 48.375 
Q 18.84375 56 30.609375 56 
z
" id="DejaVuSans-111"/>
     <path d="M 37.109375 75.984375 
L 37.109375 68.5 
L 28.515625 68.5 
Q 23.6875 68.5 21.796875 66.546875 
Q 19.921875 64.59375 19.921875 59.515625 
L 19.921875 54.6875 
L 34.71875 54.6875 
L 34.71875 47.703125 
L 19.921875 47.703125 
L 19.921875 0 
L 10.890625 0 
L 10.890625 47.703125 
L 2.296875 47.703125 
L 2.296875 54.6875 
L 10.890625 54.6875 
L 10.890625 58.5 
Q 10.890625 67.625 15.140625 71.796875 
Q 19.390625 75.984375 28.609375 75.984375 
z
" id="DejaVuSans-102"/>
     <path d="M 52 44.1875 
Q 55.375 50.25 60.0625 53.125 
Q 64.75 56 71.09375 56 
Q 79.640625 56 84.28125 50.015625 
Q 88.921875 44.046875 88.921875 33.015625 
L 88.921875 0 
L 79.890625 0 
L 79.890625 32.71875 
Q 79.890625 40.578125 77.09375 44.375 
Q 74.3125 48.1875 68.609375 48.1875 
Q 61.625 48.1875 57.5625 43.546875 
Q 53.515625 38.921875 53.515625 30.90625 
L 53.515625 0 
L 44.484375 0 
L 44.484375 32.71875 
Q 44.484375 40.625 41.703125 44.40625 
Q 38.921875 48.1875 33.109375 48.1875 
Q 26.21875 48.1875 22.15625 43.53125 
Q 18.109375 38.875 18.109375 30.90625 
L 18.109375 0 
L 9.078125 0 
L 9.078125 54.6875 
L 18.109375 54.6875 
L 18.109375 46.1875 
Q 21.1875 51.21875 25.484375 53.609375 
Q 29.78125 56 35.6875 56 
Q 41.65625 56 45.828125 52.96875 
Q 50 49.953125 52 44.1875 
z
" id="DejaVuSans-109"/>
     <path d="M 56.203125 29.59375 
L 56.203125 25.203125 
L 14.890625 25.203125 
Q 15.484375 15.921875 20.484375 11.0625 
Q 25.484375 6.203125 34.421875 6.203125 
Q 39.59375 6.203125 44.453125 7.46875 
Q 49.3125 8.734375 54.109375 11.28125 
L 54.109375 2.78125 
Q 49.265625 0.734375 44.1875 -0.34375 
Q 39.109375 -1.421875 33.890625 -1.421875 
Q 20.796875 -1.421875 13.15625 6.1875 
Q 5.515625 13.8125 5.515625 26.8125 
Q 5.515625 40.234375 12.765625 48.109375 
Q 20.015625 56 32.328125 56 
Q 43.359375 56 49.78125 48.890625 
Q 56.203125 41.796875 56.203125 29.59375 
z
M 47.21875 32.234375 
Q 47.125 39.59375 43.09375 43.984375 
Q 39.0625 48.390625 32.421875 48.390625 
Q 24.90625 48.390625 20.390625 44.140625 
Q 15.875 39.890625 15.1875 32.171875 
z
" id="DejaVuSans-101"/>
     <path d="M 34.28125 27.484375 
Q 23.390625 27.484375 19.1875 25 
Q 14.984375 22.515625 14.984375 16.5 
Q 14.984375 11.71875 18.140625 8.90625 
Q 21.296875 6.109375 26.703125 6.109375 
Q 34.1875 6.109375 38.703125 11.40625 
Q 43.21875 16.703125 43.21875 25.484375 
L 43.21875 27.484375 
z
M 52.203125 31.203125 
L 52.203125 0 
L 43.21875 0 
L 43.21875 8.296875 
Q 40.140625 3.328125 35.546875 0.953125 
Q 30.953125 -1.421875 24.3125 -1.421875 
Q 15.921875 -1.421875 10.953125 3.296875 
Q 6 8.015625 6 15.921875 
Q 6 25.140625 12.171875 29.828125 
Q 18.359375 34.515625 30.609375 34.515625 
L 43.21875 34.515625 
L 43.21875 35.40625 
Q 43.21875 41.609375 39.140625 45 
Q 35.0625 48.390625 27.6875 48.390625 
Q 23 48.390625 18.546875 47.265625 
Q 14.109375 46.140625 10.015625 43.890625 
L 10.015625 52.203125 
Q 14.9375 54.109375 19.578125 55.046875 
Q 24.21875 56 28.609375 56 
Q 40.484375 56 46.34375 49.84375 
Q 52.203125 43.703125 52.203125 31.203125 
z
" id="DejaVuSans-97"/>
     <path d="M 54.890625 33.015625 
L 54.890625 0 
L 45.90625 0 
L 45.90625 32.71875 
Q 45.90625 40.484375 42.875 44.328125 
Q 39.84375 48.1875 33.796875 48.1875 
Q 26.515625 48.1875 22.3125 43.546875 
Q 18.109375 38.921875 18.109375 30.90625 
L 18.109375 0 
L 9.078125 0 
L 9.078125 54.6875 
L 18.109375 54.6875 
L 18.109375 46.1875 
Q 21.34375 51.125 25.703125 53.5625 
Q 30.078125 56 35.796875 56 
Q 45.21875 56 50.046875 50.171875 
Q 54.890625 44.34375 54.890625 33.015625 
z
" id="DejaVuSans-110"/>
     <path d="M 48.6875 27.296875 
Q 48.6875 37.203125 44.609375 42.84375 
Q 40.53125 48.484375 33.40625 48.484375 
Q 26.265625 48.484375 22.1875 42.84375 
Q 18.109375 37.203125 18.109375 27.296875 
Q 18.109375 17.390625 22.1875 11.75 
Q 26.265625 6.109375 33.40625 6.109375 
Q 40.53125 6.109375 44.609375 11.75 
Q 48.6875 17.390625 48.6875 27.296875 
z
M 18.109375 46.390625 
Q 20.953125 51.265625 25.265625 53.625 
Q 29.59375 56 35.59375 56 
Q 45.5625 56 51.78125 48.09375 
Q 58.015625 40.1875 58.015625 27.296875 
Q 58.015625 14.40625 51.78125 6.484375 
Q 45.5625 -1.421875 35.59375 -1.421875 
Q 29.59375 -1.421875 25.265625 0.953125 
Q 20.953125 3.328125 18.109375 8.203125 
L 18.109375 0 
L 9.078125 0 
L 9.078125 75.984375 
L 18.109375 75.984375 
z
" id="DejaVuSans-98"/>
     <path d="M 41.109375 46.296875 
Q 39.59375 47.171875 37.8125 47.578125 
Q 36.03125 48 33.890625 48 
Q 26.265625 48 22.1875 43.046875 
Q 18.109375 38.09375 18.109375 28.8125 
L 18.109375 0 
L 9.078125 0 
L 9.078125 54.6875 
L 18.109375 54.6875 
L 18.109375 46.1875 
Q 20.953125 51.171875 25.484375 53.578125 
Q 30.03125 56 36.53125 56 
Q 37.453125 56 38.578125 55.875 
Q 39.703125 55.765625 41.0625 55.515625 
z
" id="DejaVuSans-114"/>
     <path d="M 9.421875 54.6875 
L 18.40625 54.6875 
L 18.40625 0 
L 9.421875 0 
z
M 9.421875 75.984375 
L 18.40625 75.984375 
L 18.40625 64.59375 
L 9.421875 64.59375 
z
" id="DejaVuSans-105"/>
     <path d="M 45.40625 27.984375 
Q 45.40625 37.75 41.375 43.109375 
Q 37.359375 48.484375 30.078125 48.484375 
Q 22.859375 48.484375 18.828125 43.109375 
Q 14.796875 37.75 14.796875 27.984375 
Q 14.796875 18.265625 18.828125 12.890625 
Q 22.859375 7.515625 30.078125 7.515625 
Q 37.359375 7.515625 41.375 12.890625 
Q 45.40625 18.265625 45.40625 27.984375 
z
M 54.390625 6.78125 
Q 54.390625 -7.171875 48.1875 -13.984375 
Q 42 -20.796875 29.203125 -20.796875 
Q 24.46875 -20.796875 20.265625 -20.09375 
Q 16.0625 -19.390625 12.109375 -17.921875 
L 12.109375 -9.1875 
Q 16.0625 -11.328125 19.921875 -12.34375 
Q 23.78125 -13.375 27.78125 -13.375 
Q 36.625 -13.375 41.015625 -8.765625 
Q 45.40625 -4.15625 45.40625 5.171875 
L 45.40625 9.625 
Q 42.625 4.78125 38.28125 2.390625 
Q 33.9375 0 27.875 0 
Q 17.828125 0 11.671875 7.65625 
Q 5.515625 15.328125 5.515625 27.984375 
Q 5.515625 40.671875 11.671875 48.328125 
Q 17.828125 56 27.875 56 
Q 33.9375 56 38.28125 53.609375 
Q 42.625 51.21875 45.40625 46.390625 
L 45.40625 54.6875 
L 54.390625 54.6875 
z
" id="DejaVuSans-103"/>
     <path d="M 54.890625 33.015625 
L 54.890625 0 
L 45.90625 0 
L 45.90625 32.71875 
Q 45.90625 40.484375 42.875 44.328125 
Q 39.84375 48.1875 33.796875 48.1875 
Q 26.515625 48.1875 22.3125 43.546875 
Q 18.109375 38.921875 18.109375 30.90625 
L 18.109375 0 
L 9.078125 0 
L 9.078125 75.984375 
L 18.109375 75.984375 
L 18.109375 46.1875 
Q 21.34375 51.125 25.703125 53.5625 
Q 30.078125 56 35.796875 56 
Q 45.21875 56 50.046875 50.171875 
Q 54.890625 44.34375 54.890625 33.015625 
z
" id="DejaVuSans-104"/>
     <path d="M 18.3125 70.21875 
L 18.3125 54.6875 
L 36.8125 54.6875 
L 36.8125 47.703125 
L 18.3125 47.703125 
L 18.3125 18.015625 
Q 18.3125 11.328125 20.140625 9.421875 
Q 21.96875 7.515625 27.59375 7.515625 
L 36.8125 7.515625 
L 36.8125 0 
L 27.59375 0 
Q 17.1875 0 13.234375 3.875 
Q 9.28125 7.765625 9.28125 18.015625 
L 9.28125 47.703125 
L 2.6875 47.703125 
L 2.6875 54.6875 
L 9.28125 54.6875 
L 9.28125 70.21875 
z
" id="DejaVuSans-116"/>
     <path d="M 44.28125 53.078125 
L 44.28125 44.578125 
Q 40.484375 46.53125 36.375 47.5 
Q 32.28125 48.484375 27.875 48.484375 
Q 21.1875 48.484375 17.84375 46.4375 
Q 14.5 44.390625 14.5 40.28125 
Q 14.5 37.15625 16.890625 35.375 
Q 19.28125 33.59375 26.515625 31.984375 
L 29.59375 31.296875 
Q 39.15625 29.25 43.1875 25.515625 
Q 47.21875 21.78125 47.21875 15.09375 
Q 47.21875 7.46875 41.1875 3.015625 
Q 35.15625 -1.421875 24.609375 -1.421875 
Q 20.21875 -1.421875 15.453125 -0.5625 
Q 10.6875 0.296875 5.421875 2 
L 5.421875 11.28125 
Q 10.40625 8.6875 15.234375 7.390625 
Q 20.0625 6.109375 24.8125 6.109375 
Q 31.15625 6.109375 34.5625 8.28125 
Q 37.984375 10.453125 37.984375 14.40625 
Q 37.984375 18.0625 35.515625 20.015625 
Q 33.0625 21.96875 24.703125 23.78125 
L 21.578125 24.515625 
Q 13.234375 26.265625 9.515625 29.90625 
Q 5.8125 33.546875 5.8125 39.890625 
Q 5.8125 47.609375 11.28125 51.796875 
Q 16.75 56 26.8125 56 
Q 31.78125 56 36.171875 55.265625 
Q 40.578125 54.546875 44.28125 53.078125 
z
" id="DejaVuSans-115"/>
     <path d="M 48.78125 52.59375 
L 48.78125 44.1875 
Q 44.96875 46.296875 41.140625 47.34375 
Q 37.3125 48.390625 33.40625 48.390625 
Q 24.65625 48.390625 19.8125 42.84375 
Q 14.984375 37.3125 14.984375 27.296875 
Q 14.984375 17.28125 19.8125 11.734375 
Q 24.65625 6.203125 33.40625 6.203125 
Q 37.3125 6.203125 41.140625 7.25 
Q 44.96875 8.296875 48.78125 10.40625 
L 48.78125 2.09375 
Q 45.015625 0.34375 40.984375 -0.53125 
Q 36.96875 -1.421875 32.421875 -1.421875 
Q 20.0625 -1.421875 12.78125 6.34375 
Q 5.515625 14.109375 5.515625 27.296875 
Q 5.515625 40.671875 12.859375 48.328125 
Q 20.21875 56 33.015625 56 
Q 37.15625 56 41.109375 55.140625 
Q 45.0625 54.296875 48.78125 52.59375 
z
" id="DejaVuSans-99"/>
     <path d="M 18.109375 8.203125 
L 18.109375 -20.796875 
L 9.078125 -20.796875 
L 9.078125 54.6875 
L 18.109375 54.6875 
L 18.109375 46.390625 
Q 20.953125 51.265625 25.265625 53.625 
Q 29.59375 56 35.59375 56 
Q 45.5625 56 51.78125 48.09375 
Q 58.015625 40.1875 58.015625 27.296875 
Q 58.015625 14.40625 51.78125 6.484375 
Q 45.5625 -1.421875 35.59375 -1.421875 
Q 29.59375 -1.421875 25.265625 0.953125 
Q 20.953125 3.328125 18.109375 8.203125 
z
M 48.6875 27.296875 
Q 48.6875 37.203125 44.609375 42.84375 
Q 40.53125 48.484375 33.40625 48.484375 
Q 26.265625 48.484375 22.1875 42.84375 
Q 18.109375 37.203125 18.109375 27.296875 
Q 18.109375 17.390625 22.1875 11.75 
Q 26.265625 6.109375 33.40625 6.109375 
Q 40.53125 6.109375 44.609375 11.75 
Q 48.6875 17.390625 48.6875 27.296875 
z
" id="DejaVuSans-112"/>
     <path d="M 45.40625 46.390625 
L 45.40625 75.984375 
L 54.390625 75.984375 
L 54.390625 0 
L 45.40625 0 
L 45.40625 8.203125 
Q 42.578125 3.328125 38.25 0.953125 
Q 33.9375 -1.421875 27.875 -1.421875 
Q 17.96875 -1.421875 11.734375 6.484375 
Q 5.515625 14.40625 5.515625 27.296875 
Q 5.515625 40.1875 11.734375 48.09375 
Q 17.96875 56 27.875 56 
Q 33.9375 56 38.25 53.625 
Q 42.578125 51.265625 45.40625 46.390625 
z
M 14.796875 27.296875 
Q 14.796875 17.390625 18.875 11.75 
Q 22.953125 6.109375 30.078125 6.109375 
Q 37.203125 6.109375 41.296875 11.75 
Q 45.40625 17.390625 45.40625 27.296875 
Q 45.40625 37.203125 41.296875 42.84375 
Q 37.203125 48.484375 30.078125 48.484375 
Q 22.953125 48.484375 18.875 42.84375 
Q 14.796875 37.203125 14.796875 27.296875 
z
" id="DejaVuSans-100"/>
     <path d="M 59.515625 10.40625 
L 59.515625 29.984375 
L 43.40625 29.984375 
L 43.40625 38.09375 
L 69.28125 38.09375 
L 69.28125 6.78125 
Q 63.578125 2.734375 56.6875 0.65625 
Q 49.8125 -1.421875 42 -1.421875 
Q 24.90625 -1.421875 15.25 8.5625 
Q 5.609375 18.5625 5.609375 36.375 
Q 5.609375 54.25 15.25 64.234375 
Q 24.90625 74.21875 42 74.21875 
Q 49.125 74.21875 55.546875 72.453125 
Q 61.96875 70.703125 67.390625 67.28125 
L 67.390625 56.78125 
Q 61.921875 61.421875 55.765625 63.765625 
Q 49.609375 66.109375 42.828125 66.109375 
Q 29.4375 66.109375 22.71875 58.640625 
Q 16.015625 51.171875 16.015625 36.375 
Q 16.015625 21.625 22.71875 14.15625 
Q 29.4375 6.6875 42.828125 6.6875 
Q 48.046875 6.6875 52.140625 7.59375 
Q 56.25 8.5 59.515625 10.40625 
z
" id="DejaVuSans-71"/>
     <path d="M 8.5 21.578125 
L 8.5 54.6875 
L 17.484375 54.6875 
L 17.484375 21.921875 
Q 17.484375 14.15625 20.5 10.265625 
Q 23.53125 6.390625 29.59375 6.390625 
Q 36.859375 6.390625 41.078125 11.03125 
Q 45.3125 15.671875 45.3125 23.6875 
L 45.3125 54.6875 
L 54.296875 54.6875 
L 54.296875 0 
L 45.3125 0 
L 45.3125 8.40625 
Q 42.046875 3.421875 37.71875 1 
Q 33.40625 -1.421875 27.6875 -1.421875 
Q 18.265625 -1.421875 13.375 4.4375 
Q 8.5 10.296875 8.5 21.578125 
z
M 31.109375 56 
z
" id="DejaVuSans-117"/>
     <path d="M 54.890625 54.6875 
L 35.109375 28.078125 
L 55.90625 0 
L 45.3125 0 
L 29.390625 21.484375 
L 13.484375 0 
L 2.875 0 
L 24.125 28.609375 
L 4.6875 54.6875 
L 15.28125 54.6875 
L 29.78125 35.203125 
L 44.28125 54.6875 
z
" id="DejaVuSans-120"/>
    </defs>
    <g transform="translate(51.861903 16.318125)scale(0.12 -0.12)">
     <use xlink:href="#DejaVuSans-67"/>
     <use x="69.824219" xlink:href="#DejaVuSans-68"/>
     <use x="146.826172" xlink:href="#DejaVuSans-70"/>
     <use x="204.345703" xlink:href="#DejaVuSans-32"/>
     <use x="236.132812" xlink:href="#DejaVuSans-111"/>
     <use x="297.314453" xlink:href="#DejaVuSans-102"/>
     <use x="332.519531" xlink:href="#DejaVuSans-32"/>
     <use x="364.306641" xlink:href="#DejaVuSans-109"/>
     <use x="461.71875" xlink:href="#DejaVuSans-101"/>
     <use x="523.242188" xlink:href="#DejaVuSans-97"/>
     <use x="584.521484" xlink:href="#DejaVuSans-110"/>
     <use x="647.900391" xlink:href="#DejaVuSans-32"/>
     <use x="679.6875" xlink:href="#DejaVuSans-98"/>
     <use x="743.164062" xlink:href="#DejaVuSans-114"/>
     <use x="784.277344" xlink:href="#DejaVuSans-105"/>
     <use x="812.060547" xlink:href="#DejaVuSans-103"/>
     <use x="875.537109" xlink:href="#DejaVuSans-104"/>
     <use x="938.916016" xlink:href="#DejaVuSans-116"/>
     <use x="978.125" xlink:href="#DejaVuSans-110"/>
     <use x="1041.503906" xlink:href="#DejaVuSans-101"/>
     <use x="1103.027344" xlink:href="#DejaVuSans-115"/>
     <use x="1155.126953" xlink:href="#DejaVuSans-115"/>
     <use x="1207.226562" xlink:href="#DejaVuSans-32"/>
     <use x="1239.013672" xlink:href="#DejaVuSans-99"/>
     <use x="1293.994141" xlink:href="#DejaVuSans-111"/>
     <use x="1355.175781" xlink:href="#DejaVuSans-109"/>
     <use x="1452.587891" xlink:href="#DejaVuSans-112"/>
     <use x="1516.064453" xlink:href="#DejaVuSans-97"/>
     <use x="1577.34375" xlink:href="#DejaVuSans-114"/>
     <use x="1616.207031" xlink:href="#DejaVuSans-101"/>
     <use x="1677.730469" xlink:href="#DejaVuSans-100"/>
     <use x="1741.207031" xlink:href="#DejaVuSans-32"/>
     <use x="1772.994141" xlink:href="#DejaVuSans-116"/>
     <use x="1812.203125" xlink:href="#DejaVuSans-111"/>
     <use x="1873.384766" xlink:href="#DejaVuSans-32"/>
     <use x="1905.171875" xlink:href="#DejaVuSans-71"/>
     <use x="1982.662109" xlink:href="#DejaVuSans-97"/>
     <use x="2043.941406" xlink:href="#DejaVuSans-117"/>
     <use x="2107.320312" xlink:href="#DejaVuSans-115"/>
     <use x="2159.419922" xlink:href="#DejaVuSans-115"/>
     <use x="2211.519531" xlink:href="#DejaVuSans-105"/>
     <use x="2239.302734" xlink:href="#DejaVuSans-97"/>
     <use x="2300.582031" xlink:href="#DejaVuSans-110"/>
     <use x="2363.960938" xlink:href="#DejaVuSans-32"/>
     <use x="2395.748047" xlink:href="#DejaVuSans-109"/>
     <use x="2493.160156" xlink:href="#DejaVuSans-105"/>
     <use x="2520.943359" xlink:href="#DejaVuSans-120"/>
     <use x="2580.123047" xlink:href="#DejaVuSans-116"/>
     <use x="2619.332031" xlink:href="#DejaVuSans-117"/>
     <use x="2682.710938" xlink:href="#DejaVuSans-114"/>
     <use x="2721.574219" xlink:href="#DejaVuSans-101"/>
     <use x="2783.097656" xlink:href="#DejaVuSans-32"/>
     <use x="2814.884766" xlink:href="#DejaVuSans-67"/>
     <use x="2884.708984" xlink:href="#DejaVuSans-68"/>
     <use x="2961.710938" xlink:href="#DejaVuSans-70"/>
    </g>
   </g>
   <g id="legend_1">
    <g id="patch_7">
     <path d="M 37.103125 59.674375 
L 156.892188 59.674375 
Q 158.892188 59.674375 158.892188 57.674375 
L 158.892188 29.318125 
Q 158.892188 27.318125 156.892188 27.318125 
L 37.103125 27.318125 
Q 35.103125 27.318125 35.103125 29.318125 
L 35.103125 57.674375 
Q 35.103125 59.674375 37.103125 59.674375 
z
" style="fill:#ffffff;opacity:0.8;stroke:#cccccc;stroke-linejoin:miter;"/>
    </g>
    <g id="line2d_15">
     <path d="M 39.103125 35.416562 
L 59.103125 35.416562 
" style="fill:none;stroke:#1f77b4;stroke-linecap:square;stroke-width:1.5;"/>
    </g>
    <g id="line2d_16"/>
    <g id="text_14">
     <!-- Data -->
     <g transform="translate(67.103125 38.916562)scale(0.1 -0.1)">
      <use xlink:href="#DejaVuSans-68"/>
      <use x="77.001953" xlink:href="#DejaVuSans-97"/>
      <use x="138.28125" xlink:href="#DejaVuSans-116"/>
      <use x="177.490234" xlink:href="#DejaVuSans-97"/>
     </g>
    </g>
    <g id="line2d_17">
     <path d="M 39.103125 50.094688 
L 59.103125 50.094688 
" style="fill:none;stroke:#ff7f0e;stroke-linecap:square;stroke-width:1.5;"/>
    </g>
    <g id="line2d_18"/>
    <g id="text_15">
     <!-- Gaussian mixture -->
     <g transform="translate(67.103125 53.594688)scale(0.1 -0.1)">
      <use xlink:href="#DejaVuSans-71"/>
      <use x="77.490234" xlink:href="#DejaVuSans-97"/>
      <use x="138.769531" xlink:href="#DejaVuSans-117"/>
      <use x="202.148438" xlink:href="#DejaVuSans-115"/>
      <use x="254.248047" xlink:href="#DejaVuSans-115"/>
      <use x="306.347656" xlink:href="#DejaVuSans-105"/>
      <use x="334.130859" xlink:href="#DejaVuSans-97"/>
      <use x="395.410156" xlink:href="#DejaVuSans-110"/>
      <use x="458.789062" xlink:href="#DejaVuSans-32"/>
      <use x="490.576172" xlink:href="#DejaVuSans-109"/>
      <use x="587.988281" xlink:href="#DejaVuSans-105"/>
      <use x="615.771484" xlink:href="#DejaVuSans-120"/>
      <use x="674.951172" xlink:href="#DejaVuSans-116"/>
      <use x="714.160156" xlink:href="#DejaVuSans-117"/>
      <use x="777.539062" xlink:href="#DejaVuSans-114"/>
      <use x="816.402344" xlink:href="#DejaVuSans-101"/>
     </g>
    </g>
   </g>
  </g>
  <g id="axes_2">
   <g id="patch_8">
    <path d="M 517.084943 294.118125 
L 922.903125 294.118125 
L 922.903125 22.318125 
L 517.084943 22.318125 
z
" style="fill:#ffffff;"/>
   </g>
   <g id="matplotlib.axis_3">
    <g id="xtick_7">
     <g id="line2d_19">
      <g>
       <use style="stroke:#000000;stroke-width:0.8;" x="588.065574" xlink:href="#m6c40e1cb56" y="294.118125"/>
      </g>
     </g>
     <g id="text_16">
      <!-- 20 -->
      <g transform="translate(581.703074 308.716563)scale(0.1 -0.1)">
       <use xlink:href="#DejaVuSans-50"/>
       <use x="63.623047" xlink:href="#DejaVuSans-48"/>
      </g>
     </g>
    </g>
    <g id="xtick_8">
     <g id="line2d_20">
      <g>
       <use style="stroke:#000000;stroke-width:0.8;" x="665.820775" xlink:href="#m6c40e1cb56" y="294.118125"/>
      </g>
     </g>
     <g id="text_17">
      <!-- 40 -->
      <g transform="translate(659.458275 308.716563)scale(0.1 -0.1)">
       <use xlink:href="#DejaVuSans-52"/>
       <use x="63.623047" xlink:href="#DejaVuSans-48"/>
      </g>
     </g>
    </g>
    <g id="xtick_9">
     <g id="line2d_21">
      <g>
       <use style="stroke:#000000;stroke-width:0.8;" x="743.575977" xlink:href="#m6c40e1cb56" y="294.118125"/>
      </g>
     </g>
     <g id="text_18">
      <!-- 60 -->
      <g transform="translate(737.213477 308.716563)scale(0.1 -0.1)">
       <use xlink:href="#DejaVuSans-54"/>
       <use x="63.623047" xlink:href="#DejaVuSans-48"/>
      </g>
     </g>
    </g>
    <g id="xtick_10">
     <g id="line2d_22">
      <g>
       <use style="stroke:#000000;stroke-width:0.8;" x="821.331178" xlink:href="#m6c40e1cb56" y="294.118125"/>
      </g>
     </g>
     <g id="text_19">
      <!-- 80 -->
      <g transform="translate(814.968678 308.716563)scale(0.1 -0.1)">
       <use xlink:href="#DejaVuSans-56"/>
       <use x="63.623047" xlink:href="#DejaVuSans-48"/>
      </g>
     </g>
    </g>
    <g id="xtick_11">
     <g id="line2d_23">
      <g>
       <use style="stroke:#000000;stroke-width:0.8;" x="899.08638" xlink:href="#m6c40e1cb56" y="294.118125"/>
      </g>
     </g>
     <g id="text_20">
      <!-- 100 -->
      <g transform="translate(889.54263 308.716563)scale(0.1 -0.1)">
       <use xlink:href="#DejaVuSans-49"/>
       <use x="63.623047" xlink:href="#DejaVuSans-48"/>
       <use x="127.246094" xlink:href="#DejaVuSans-48"/>
      </g>
     </g>
    </g>
   </g>
   <g id="matplotlib.axis_4">
    <g id="ytick_7">
     <g id="line2d_24">
      <g>
       <use style="stroke:#000000;stroke-width:0.8;" x="517.084943" xlink:href="#mbd57cf6070" y="281.76358"/>
      </g>
     </g>
     <g id="text_21">
      <!-- 0.000 -->
      <g transform="translate(481.456818 285.562798)scale(0.1 -0.1)">
       <use xlink:href="#DejaVuSans-48"/>
       <use x="63.623047" xlink:href="#DejaVuSans-46"/>
       <use x="95.410156" xlink:href="#DejaVuSans-48"/>
       <use x="159.033203" xlink:href="#DejaVuSans-48"/>
       <use x="222.65625" xlink:href="#DejaVuSans-48"/>
      </g>
     </g>
    </g>
    <g id="ytick_8">
     <g id="line2d_25">
      <g>
       <use style="stroke:#000000;stroke-width:0.8;" x="517.084943" xlink:href="#mbd57cf6070" y="248.270952"/>
      </g>
     </g>
     <g id="text_22">
      <!-- 0.005 -->
      <defs>
       <path d="M 10.796875 72.90625 
L 49.515625 72.90625 
L 49.515625 64.59375 
L 19.828125 64.59375 
L 19.828125 46.734375 
Q 21.96875 47.46875 24.109375 47.828125 
Q 26.265625 48.1875 28.421875 48.1875 
Q 40.625 48.1875 47.75 41.5 
Q 54.890625 34.8125 54.890625 23.390625 
Q 54.890625 11.625 47.5625 5.09375 
Q 40.234375 -1.421875 26.90625 -1.421875 
Q 22.3125 -1.421875 17.546875 -0.640625 
Q 12.796875 0.140625 7.71875 1.703125 
L 7.71875 11.625 
Q 12.109375 9.234375 16.796875 8.0625 
Q 21.484375 6.890625 26.703125 6.890625 
Q 35.15625 6.890625 40.078125 11.328125 
Q 45.015625 15.765625 45.015625 23.390625 
Q 45.015625 31 40.078125 35.4375 
Q 35.15625 39.890625 26.703125 39.890625 
Q 22.75 39.890625 18.8125 39.015625 
Q 14.890625 38.140625 10.796875 36.28125 
z
" id="DejaVuSans-53"/>
      </defs>
      <g transform="translate(481.456818 252.070171)scale(0.1 -0.1)">
       <use xlink:href="#DejaVuSans-48"/>
       <use x="63.623047" xlink:href="#DejaVuSans-46"/>
       <use x="95.410156" xlink:href="#DejaVuSans-48"/>
       <use x="159.033203" xlink:href="#DejaVuSans-48"/>
       <use x="222.65625" xlink:href="#DejaVuSans-53"/>
      </g>
     </g>
    </g>
    <g id="ytick_9">
     <g id="line2d_26">
      <g>
       <use style="stroke:#000000;stroke-width:0.8;" x="517.084943" xlink:href="#mbd57cf6070" y="214.778324"/>
      </g>
     </g>
     <g id="text_23">
      <!-- 0.010 -->
      <g transform="translate(481.456818 218.577543)scale(0.1 -0.1)">
       <use xlink:href="#DejaVuSans-48"/>
       <use x="63.623047" xlink:href="#DejaVuSans-46"/>
       <use x="95.410156" xlink:href="#DejaVuSans-48"/>
       <use x="159.033203" xlink:href="#DejaVuSans-49"/>
       <use x="222.65625" xlink:href="#DejaVuSans-48"/>
      </g>
     </g>
    </g>
    <g id="ytick_10">
     <g id="line2d_27">
      <g>
       <use style="stroke:#000000;stroke-width:0.8;" x="517.084943" xlink:href="#mbd57cf6070" y="181.285697"/>
      </g>
     </g>
     <g id="text_24">
      <!-- 0.015 -->
      <g transform="translate(481.456818 185.084915)scale(0.1 -0.1)">
       <use xlink:href="#DejaVuSans-48"/>
       <use x="63.623047" xlink:href="#DejaVuSans-46"/>
       <use x="95.410156" xlink:href="#DejaVuSans-48"/>
       <use x="159.033203" xlink:href="#DejaVuSans-49"/>
       <use x="222.65625" xlink:href="#DejaVuSans-53"/>
      </g>
     </g>
    </g>
    <g id="ytick_11">
     <g id="line2d_28">
      <g>
       <use style="stroke:#000000;stroke-width:0.8;" x="517.084943" xlink:href="#mbd57cf6070" y="147.793069"/>
      </g>
     </g>
     <g id="text_25">
      <!-- 0.020 -->
      <g transform="translate(481.456818 151.592288)scale(0.1 -0.1)">
       <use xlink:href="#DejaVuSans-48"/>
       <use x="63.623047" xlink:href="#DejaVuSans-46"/>
       <use x="95.410156" xlink:href="#DejaVuSans-48"/>
       <use x="159.033203" xlink:href="#DejaVuSans-50"/>
       <use x="222.65625" xlink:href="#DejaVuSans-48"/>
      </g>
     </g>
    </g>
    <g id="ytick_12">
     <g id="line2d_29">
      <g>
       <use style="stroke:#000000;stroke-width:0.8;" x="517.084943" xlink:href="#mbd57cf6070" y="114.300441"/>
      </g>
     </g>
     <g id="text_26">
      <!-- 0.025 -->
      <g transform="translate(481.456818 118.09966)scale(0.1 -0.1)">
       <use xlink:href="#DejaVuSans-48"/>
       <use x="63.623047" xlink:href="#DejaVuSans-46"/>
       <use x="95.410156" xlink:href="#DejaVuSans-48"/>
       <use x="159.033203" xlink:href="#DejaVuSans-50"/>
       <use x="222.65625" xlink:href="#DejaVuSans-53"/>
      </g>
     </g>
    </g>
    <g id="ytick_13">
     <g id="line2d_30">
      <g>
       <use style="stroke:#000000;stroke-width:0.8;" x="517.084943" xlink:href="#mbd57cf6070" y="80.807814"/>
      </g>
     </g>
     <g id="text_27">
      <!-- 0.030 -->
      <defs>
       <path d="M 40.578125 39.3125 
Q 47.65625 37.796875 51.625 33 
Q 55.609375 28.21875 55.609375 21.1875 
Q 55.609375 10.40625 48.1875 4.484375 
Q 40.765625 -1.421875 27.09375 -1.421875 
Q 22.515625 -1.421875 17.65625 -0.515625 
Q 12.796875 0.390625 7.625 2.203125 
L 7.625 11.71875 
Q 11.71875 9.328125 16.59375 8.109375 
Q 21.484375 6.890625 26.8125 6.890625 
Q 36.078125 6.890625 40.9375 10.546875 
Q 45.796875 14.203125 45.796875 21.1875 
Q 45.796875 27.640625 41.28125 31.265625 
Q 36.765625 34.90625 28.71875 34.90625 
L 20.21875 34.90625 
L 20.21875 43.015625 
L 29.109375 43.015625 
Q 36.375 43.015625 40.234375 45.921875 
Q 44.09375 48.828125 44.09375 54.296875 
Q 44.09375 59.90625 40.109375 62.90625 
Q 36.140625 65.921875 28.71875 65.921875 
Q 24.65625 65.921875 20.015625 65.03125 
Q 15.375 64.15625 9.8125 62.3125 
L 9.8125 71.09375 
Q 15.4375 72.65625 20.34375 73.4375 
Q 25.25 74.21875 29.59375 74.21875 
Q 40.828125 74.21875 47.359375 69.109375 
Q 53.90625 64.015625 53.90625 55.328125 
Q 53.90625 49.265625 50.4375 45.09375 
Q 46.96875 40.921875 40.578125 39.3125 
z
" id="DejaVuSans-51"/>
      </defs>
      <g transform="translate(481.456818 84.607032)scale(0.1 -0.1)">
       <use xlink:href="#DejaVuSans-48"/>
       <use x="63.623047" xlink:href="#DejaVuSans-46"/>
       <use x="95.410156" xlink:href="#DejaVuSans-48"/>
       <use x="159.033203" xlink:href="#DejaVuSans-51"/>
       <use x="222.65625" xlink:href="#DejaVuSans-48"/>
      </g>
     </g>
    </g>
    <g id="ytick_14">
     <g id="line2d_31">
      <g>
       <use style="stroke:#000000;stroke-width:0.8;" x="517.084943" xlink:href="#mbd57cf6070" y="47.315186"/>
      </g>
     </g>
     <g id="text_28">
      <!-- 0.035 -->
      <g transform="translate(481.456818 51.114405)scale(0.1 -0.1)">
       <use xlink:href="#DejaVuSans-48"/>
       <use x="63.623047" xlink:href="#DejaVuSans-46"/>
       <use x="95.410156" xlink:href="#DejaVuSans-48"/>
       <use x="159.033203" xlink:href="#DejaVuSans-51"/>
       <use x="222.65625" xlink:href="#DejaVuSans-53"/>
      </g>
     </g>
    </g>
   </g>
   <g id="line2d_32">
    <path clip-path="url(#pdc23bcffca)" d="M 535.531224 281.047009 
L 539.257746 279.695206 
L 542.984267 277.235943 
L 546.710788 273.466265 
L 550.43731 267.806911 
L 554.163831 259.505199 
L 557.890353 248.467611 
L 561.616874 235.721346 
L 565.343395 223.035832 
L 569.069917 211.032166 
L 572.796438 198.719691 
L 576.52296 185.660993 
L 580.249481 171.999273 
L 583.976003 158.362978 
L 587.702524 144.893016 
L 591.429045 129.537834 
L 595.155567 112.378435 
L 598.882088 97.237296 
L 602.60861 87.340845 
L 606.335131 79.629715 
L 610.061652 70.337325 
L 613.788174 61.936305 
L 617.514695 54.999303 
L 621.241217 48.878482 
L 624.967738 46.363034 
L 628.694259 45.906738 
L 632.420781 42.901439 
L 636.147302 39.142544 
L 639.873824 40.595287 
L 643.600345 48.209816 
L 647.326867 56.659622 
L 651.053388 63.194964 
L 654.779909 69.905759 
L 658.506431 79.090138 
L 662.232952 90.821131 
L 665.959474 103.917805 
L 669.685995 116.525141 
L 673.412516 127.888046 
L 677.139038 138.766972 
L 680.865559 148.495533 
L 684.592081 157.481773 
L 688.318602 166.625158 
L 692.045123 175.550566 
L 695.771645 185.590144 
L 699.498166 196.314639 
L 703.224688 205.34746 
L 706.951209 212.969752 
L 710.677731 220.763772 
L 714.404252 229.027766 
L 718.130773 236.558816 
L 721.857295 242.370793 
L 725.583816 246.513993 
L 729.310338 249.926217 
L 733.036859 253.727806 
L 736.76338 257.777472 
L 740.489902 261.394274 
L 744.216423 264.527138 
L 747.942945 266.958224 
L 751.669466 268.544583 
L 755.395988 269.77409 
L 759.122509 271.084981 
L 762.84903 272.582865 
L 766.575552 273.825421 
L 770.302073 274.885323 
L 774.028595 275.965462 
L 777.755116 276.92223 
L 781.481637 277.913798 
L 785.208159 278.850338 
L 788.93468 279.431755 
L 792.661202 279.738903 
L 796.387723 279.988266 
L 800.114244 280.210272 
L 803.840766 280.297467 
L 807.567287 280.319325 
L 811.293809 280.476341 
L 815.02033 280.730196 
L 818.746852 281.010526 
L 822.473373 281.321625 
L 826.199894 281.566323 
L 829.926416 281.636006 
L 833.652937 281.613432 
L 837.379459 281.631106 
L 841.10598 281.692126 
L 844.832501 281.725392 
L 848.559023 281.707185 
L 852.285544 281.678115 
L 856.012066 281.676412 
L 859.738587 281.705791 
L 863.465108 281.741732 
L 867.19163 281.759365 
L 870.918151 281.763185 
L 874.644673 281.763562 
L 878.371194 281.763579 
L 882.097716 281.763579 
L 885.824237 281.763575 
L 889.550758 281.763435 
L 893.27728 281.761597 
L 897.003801 281.750718 
L 900.730323 281.724083 
L 904.456844 281.706171 
" style="fill:none;stroke:#1f77b4;stroke-linecap:square;stroke-width:1.5;"/>
   </g>
   <g id="line2d_33">
    <path clip-path="url(#pdc23bcffca)" d="M 535.531224 276.793947 
L 539.257746 274.994996 
L 542.984267 272.420616 
L 546.710788 268.998021 
L 550.43731 264.708706 
L 554.163831 259.493513 
L 557.890353 253.222407 
L 561.616874 245.69508 
L 565.343395 236.665862 
L 569.069917 225.90631 
L 572.796438 213.226452 
L 576.52296 198.468984 
L 580.249481 181.606965 
L 583.976003 162.914736 
L 587.702524 143.119299 
L 591.429045 123.461875 
L 595.155567 105.334967 
L 598.882088 89.432437 
L 602.60861 75.355981 
L 606.335131 62.409143 
L 610.061652 50.767968 
L 613.788174 41.6964 
L 617.514695 36.409303 
L 621.241217 34.67267 
L 624.967738 35.04097 
L 628.694259 36.692592 
L 632.420781 40.167127 
L 636.147302 45.902945 
L 639.873824 53.081473 
L 643.600345 60.667113 
L 647.326867 68.926342 
L 651.053388 78.972165 
L 654.779909 90.968144 
L 658.506431 103.513585 
L 662.232952 114.770135 
L 665.959474 123.880369 
L 669.685995 131.433027 
L 673.412516 138.636134 
L 677.139038 146.090455 
L 680.865559 153.602215 
L 684.592081 160.949754 
L 688.318602 168.243981 
L 692.045123 175.545344 
L 695.771645 182.617298 
L 699.498166 189.257779 
L 703.224688 195.708993 
L 706.951209 202.547706 
L 710.677731 210.081309 
L 714.404252 217.9407 
L 718.130773 225.42418 
L 721.857295 232.160129 
L 725.583816 238.22771 
L 729.310338 243.724535 
L 733.036859 248.557205 
L 736.76338 252.701682 
L 740.489902 256.359275 
L 744.216423 259.767921 
L 747.942945 263.064105 
L 751.669466 266.299946 
L 755.395988 269.364968 
L 759.122509 271.941828 
L 762.84903 273.756041 
L 766.575552 274.870679 
L 770.302073 275.655246 
L 774.028595 276.49329 
L 777.755116 277.53474 
L 781.481637 278.673614 
L 785.208159 279.704216 
L 788.93468 280.488202 
L 792.661202 281.013848 
L 796.387723 281.342113 
L 800.114244 281.524667 
L 803.840766 281.583798 
L 807.567287 281.549865 
L 811.293809 281.487422 
L 815.02033 281.469106 
L 818.746852 281.522199 
L 822.473373 281.613557 
L 826.199894 281.693107 
L 829.926416 281.738599 
L 833.652937 281.756908 
L 837.379459 281.762239 
L 841.10598 281.763377 
L 844.832501 281.763557 
L 848.559023 281.763578 
L 852.285544 281.763579 
L 856.012066 281.76358 
L 859.738587 281.76358 
L 863.465108 281.76358 
L 867.19163 281.76358 
L 870.918151 281.76358 
L 874.644673 281.76358 
L 878.371194 281.76358 
L 882.097716 281.76358 
L 885.824237 281.76358 
L 889.550758 281.76358 
L 893.27728 281.76358 
L 897.003801 281.76358 
L 900.730323 281.76358 
L 904.456844 281.76358 
" style="fill:none;stroke:#ff7f0e;stroke-linecap:square;stroke-width:1.5;"/>
   </g>
   <g id="patch_9">
    <path d="M 517.084943 294.118125 
L 517.084943 22.318125 
" style="fill:none;stroke:#000000;stroke-linecap:square;stroke-linejoin:miter;stroke-width:0.8;"/>
   </g>
   <g id="patch_10">
    <path d="M 922.903125 294.118125 
L 922.903125 22.318125 
" style="fill:none;stroke:#000000;stroke-linecap:square;stroke-linejoin:miter;stroke-width:0.8;"/>
   </g>
   <g id="patch_11">
    <path d="M 517.084943 294.118125 
L 922.903125 294.118125 
" style="fill:none;stroke:#000000;stroke-linecap:square;stroke-linejoin:miter;stroke-width:0.8;"/>
   </g>
   <g id="patch_12">
    <path d="M 517.084943 22.318125 
L 922.903125 22.318125 
" style="fill:none;stroke:#000000;stroke-linecap:square;stroke-linejoin:miter;stroke-width:0.8;"/>
   </g>
   <g id="text_29">
    <!-- PDF of mean brightness compared to Gaussian mixture PDF -->
    <defs>
     <path d="M 19.671875 64.796875 
L 19.671875 37.40625 
L 32.078125 37.40625 
Q 38.96875 37.40625 42.71875 40.96875 
Q 46.484375 44.53125 46.484375 51.125 
Q 46.484375 57.671875 42.71875 61.234375 
Q 38.96875 64.796875 32.078125 64.796875 
z
M 9.8125 72.90625 
L 32.078125 72.90625 
Q 44.34375 72.90625 50.609375 67.359375 
Q 56.890625 61.8125 56.890625 51.125 
Q 56.890625 40.328125 50.609375 34.8125 
Q 44.34375 29.296875 32.078125 29.296875 
L 19.671875 29.296875 
L 19.671875 0 
L 9.8125 0 
z
" id="DejaVuSans-80"/>
    </defs>
    <g transform="translate(539.987472 16.318125)scale(0.12 -0.12)">
     <use xlink:href="#DejaVuSans-80"/>
     <use x="60.302734" xlink:href="#DejaVuSans-68"/>
     <use x="137.304688" xlink:href="#DejaVuSans-70"/>
     <use x="194.824219" xlink:href="#DejaVuSans-32"/>
     <use x="226.611328" xlink:href="#DejaVuSans-111"/>
     <use x="287.792969" xlink:href="#DejaVuSans-102"/>
     <use x="322.998047" xlink:href="#DejaVuSans-32"/>
     <use x="354.785156" xlink:href="#DejaVuSans-109"/>
     <use x="452.197266" xlink:href="#DejaVuSans-101"/>
     <use x="513.720703" xlink:href="#DejaVuSans-97"/>
     <use x="575" xlink:href="#DejaVuSans-110"/>
     <use x="638.378906" xlink:href="#DejaVuSans-32"/>
     <use x="670.166016" xlink:href="#DejaVuSans-98"/>
     <use x="733.642578" xlink:href="#DejaVuSans-114"/>
     <use x="774.755859" xlink:href="#DejaVuSans-105"/>
     <use x="802.539062" xlink:href="#DejaVuSans-103"/>
     <use x="866.015625" xlink:href="#DejaVuSans-104"/>
     <use x="929.394531" xlink:href="#DejaVuSans-116"/>
     <use x="968.603516" xlink:href="#DejaVuSans-110"/>
     <use x="1031.982422" xlink:href="#DejaVuSans-101"/>
     <use x="1093.505859" xlink:href="#DejaVuSans-115"/>
     <use x="1145.605469" xlink:href="#DejaVuSans-115"/>
     <use x="1197.705078" xlink:href="#DejaVuSans-32"/>
     <use x="1229.492188" xlink:href="#DejaVuSans-99"/>
     <use x="1284.472656" xlink:href="#DejaVuSans-111"/>
     <use x="1345.654297" xlink:href="#DejaVuSans-109"/>
     <use x="1443.066406" xlink:href="#DejaVuSans-112"/>
     <use x="1506.542969" xlink:href="#DejaVuSans-97"/>
     <use x="1567.822266" xlink:href="#DejaVuSans-114"/>
     <use x="1606.685547" xlink:href="#DejaVuSans-101"/>
     <use x="1668.208984" xlink:href="#DejaVuSans-100"/>
     <use x="1731.685547" xlink:href="#DejaVuSans-32"/>
     <use x="1763.472656" xlink:href="#DejaVuSans-116"/>
     <use x="1802.681641" xlink:href="#DejaVuSans-111"/>
     <use x="1863.863281" xlink:href="#DejaVuSans-32"/>
     <use x="1895.650391" xlink:href="#DejaVuSans-71"/>
     <use x="1973.140625" xlink:href="#DejaVuSans-97"/>
     <use x="2034.419922" xlink:href="#DejaVuSans-117"/>
     <use x="2097.798828" xlink:href="#DejaVuSans-115"/>
     <use x="2149.898438" xlink:href="#DejaVuSans-115"/>
     <use x="2201.998047" xlink:href="#DejaVuSans-105"/>
     <use x="2229.78125" xlink:href="#DejaVuSans-97"/>
     <use x="2291.060547" xlink:href="#DejaVuSans-110"/>
     <use x="2354.439453" xlink:href="#DejaVuSans-32"/>
     <use x="2386.226562" xlink:href="#DejaVuSans-109"/>
     <use x="2483.638672" xlink:href="#DejaVuSans-105"/>
     <use x="2511.421875" xlink:href="#DejaVuSans-120"/>
     <use x="2570.601562" xlink:href="#DejaVuSans-116"/>
     <use x="2609.810547" xlink:href="#DejaVuSans-117"/>
     <use x="2673.189453" xlink:href="#DejaVuSans-114"/>
     <use x="2712.052734" xlink:href="#DejaVuSans-101"/>
     <use x="2773.576172" xlink:href="#DejaVuSans-32"/>
     <use x="2805.363281" xlink:href="#DejaVuSans-80"/>
     <use x="2865.666016" xlink:href="#DejaVuSans-68"/>
     <use x="2942.667969" xlink:href="#DejaVuSans-70"/>
    </g>
   </g>
   <g id="legend_2">
    <g id="patch_13">
     <path d="M 796.114062 59.674375 
L 915.903125 59.674375 
Q 917.903125 59.674375 917.903125 57.674375 
L 917.903125 29.318125 
Q 917.903125 27.318125 915.903125 27.318125 
L 796.114062 27.318125 
Q 794.114062 27.318125 794.114062 29.318125 
L 794.114062 57.674375 
Q 794.114062 59.674375 796.114062 59.674375 
z
" style="fill:#ffffff;opacity:0.8;stroke:#cccccc;stroke-linejoin:miter;"/>
    </g>
    <g id="line2d_34">
     <path d="M 798.114062 35.416562 
L 818.114062 35.416562 
" style="fill:none;stroke:#1f77b4;stroke-linecap:square;stroke-width:1.5;"/>
    </g>
    <g id="line2d_35"/>
    <g id="text_30">
     <!-- Data -->
     <g transform="translate(826.114062 38.916562)scale(0.1 -0.1)">
      <use xlink:href="#DejaVuSans-68"/>
      <use x="77.001953" xlink:href="#DejaVuSans-97"/>
      <use x="138.28125" xlink:href="#DejaVuSans-116"/>
      <use x="177.490234" xlink:href="#DejaVuSans-97"/>
     </g>
    </g>
    <g id="line2d_36">
     <path d="M 798.114062 50.094688 
L 818.114062 50.094688 
" style="fill:none;stroke:#ff7f0e;stroke-linecap:square;stroke-width:1.5;"/>
    </g>
    <g id="line2d_37"/>
    <g id="text_31">
     <!-- Gaussian mixture -->
     <g transform="translate(826.114062 53.594688)scale(0.1 -0.1)">
      <use xlink:href="#DejaVuSans-71"/>
      <use x="77.490234" xlink:href="#DejaVuSans-97"/>
      <use x="138.769531" xlink:href="#DejaVuSans-117"/>
      <use x="202.148438" xlink:href="#DejaVuSans-115"/>
      <use x="254.248047" xlink:href="#DejaVuSans-115"/>
      <use x="306.347656" xlink:href="#DejaVuSans-105"/>
      <use x="334.130859" xlink:href="#DejaVuSans-97"/>
      <use x="395.410156" xlink:href="#DejaVuSans-110"/>
      <use x="458.789062" xlink:href="#DejaVuSans-32"/>
      <use x="490.576172" xlink:href="#DejaVuSans-109"/>
      <use x="587.988281" xlink:href="#DejaVuSans-105"/>
      <use x="615.771484" xlink:href="#DejaVuSans-120"/>
      <use x="674.951172" xlink:href="#DejaVuSans-116"/>
      <use x="714.160156" xlink:href="#DejaVuSans-117"/>
      <use x="777.539062" xlink:href="#DejaVuSans-114"/>
      <use x="816.402344" xlink:href="#DejaVuSans-101"/>
     </g>
    </g>
   </g>
  </g>
 </g>
 <defs>
  <clipPath id="p34d5c32f7a">
   <rect height="271.8" width="405.818182" x="30.103125" y="22.318125"/>
  </clipPath>
  <clipPath id="pdc23bcffca">
   <rect height="271.8" width="405.818182" x="517.084943" y="22.318125"/>
  </clipPath>
 </defs>
</svg>
