<?xml version="1.0" encoding="utf-8" standalone="no"?>
<!DOCTYPE svg PUBLIC "-//W3C//DTD SVG 1.1//EN"
  "http://www.w3.org/Graphics/SVG/1.1/DTD/svg11.dtd">
<!-- Created with matplotlib (https://matplotlib.org/) -->
<svg height="317.99625pt" version="1.1" viewBox="0 0 930.103125 317.99625" width="930.103125pt" xmlns="http://www.w3.org/2000/svg" xmlns:xlink="http://www.w3.org/1999/xlink">
 <defs>
  <style type="text/css">
*{stroke-linecap:butt;stroke-linejoin:round;}
  </style>
 </defs>
 <g id="figure_1">
  <g id="patch_1">
   <path d="M 0 317.99625 
L 930.103125 317.99625 
L 930.103125 0 
L 0 0 
z
" style="fill:none;"/>
  </g>
  <g id="axes_1">
   <g id="patch_2">
    <path d="M 30.103125 294.118125 
L 435.921307 294.118125 
L 435.921307 22.318125 
L 30.103125 22.318125 
z
" style="fill:#ffffff;"/>
   </g>
   <g id="matplotlib.axis_1">
    <g id="xtick_1">
     <g id="line2d_1">
      <defs>
       <path d="M 0 0 
L 0 3.5 
" id="mb4040869da" style="stroke:#000000;stroke-width:0.8;"/>
      </defs>
      <g>
       <use style="stroke:#000000;stroke-width:0.8;" x="48.549406" xlink:href="#mb4040869da" y="294.118125"/>
      </g>
     </g>
     <g id="text_1">
      <!-- 0 -->
      <defs>
       <path d="M 31.78125 66.40625 
Q 24.171875 66.40625 20.328125 58.90625 
Q 16.5 51.421875 16.5 36.375 
Q 16.5 21.390625 20.328125 13.890625 
Q 24.171875 6.390625 31.78125 6.390625 
Q 39.453125 6.390625 43.28125 13.890625 
Q 47.125 21.390625 47.125 36.375 
Q 47.125 51.421875 43.28125 58.90625 
Q 39.453125 66.40625 31.78125 66.40625 
z
M 31.78125 74.21875 
Q 44.046875 74.21875 50.515625 64.515625 
Q 56.984375 54.828125 56.984375 36.375 
Q 56.984375 17.96875 50.515625 8.265625 
Q 44.046875 -1.421875 31.78125 -1.421875 
Q 19.53125 -1.421875 13.0625 8.265625 
Q 6.59375 17.96875 6.59375 36.375 
Q 6.59375 54.828125 13.0625 64.515625 
Q 19.53125 74.21875 31.78125 74.21875 
z
" id="DejaVuSans-48"/>
      </defs>
      <g transform="translate(45.368156 308.716563)scale(0.1 -0.1)">
       <use xlink:href="#DejaVuSans-48"/>
      </g>
     </g>
    </g>
    <g id="xtick_2">
     <g id="line2d_2">
      <g>
       <use style="stroke:#000000;stroke-width:0.8;" x="120.887763" xlink:href="#mb4040869da" y="294.118125"/>
      </g>
     </g>
     <g id="text_2">
      <!-- 50 -->
      <defs>
       <path d="M 10.796875 72.90625 
L 49.515625 72.90625 
L 49.515625 64.59375 
L 19.828125 64.59375 
L 19.828125 46.734375 
Q 21.96875 47.46875 24.109375 47.828125 
Q 26.265625 48.1875 28.421875 48.1875 
Q 40.625 48.1875 47.75 41.5 
Q 54.890625 34.8125 54.890625 23.390625 
Q 54.890625 11.625 47.5625 5.09375 
Q 40.234375 -1.421875 26.90625 -1.421875 
Q 22.3125 -1.421875 17.546875 -0.640625 
Q 12.796875 0.140625 7.71875 1.703125 
L 7.71875 11.625 
Q 12.109375 9.234375 16.796875 8.0625 
Q 21.484375 6.890625 26.703125 6.890625 
Q 35.15625 6.890625 40.078125 11.328125 
Q 45.015625 15.765625 45.015625 23.390625 
Q 45.015625 31 40.078125 35.4375 
Q 35.15625 39.890625 26.703125 39.890625 
Q 22.75 39.890625 18.8125 39.015625 
Q 14.890625 38.140625 10.796875 36.28125 
z
" id="DejaVuSans-53"/>
      </defs>
      <g transform="translate(114.525263 308.716563)scale(0.1 -0.1)">
       <use xlink:href="#DejaVuSans-53"/>
       <use x="63.623047" xlink:href="#DejaVuSans-48"/>
      </g>
     </g>
    </g>
    <g id="xtick_3">
     <g id="line2d_3">
      <g>
       <use style="stroke:#000000;stroke-width:0.8;" x="193.22612" xlink:href="#mb4040869da" y="294.118125"/>
      </g>
     </g>
     <g id="text_3">
      <!-- 100 -->
      <defs>
       <path d="M 12.40625 8.296875 
L 28.515625 8.296875 
L 28.515625 63.921875 
L 10.984375 60.40625 
L 10.984375 69.390625 
L 28.421875 72.90625 
L 38.28125 72.90625 
L 38.28125 8.296875 
L 54.390625 8.296875 
L 54.390625 0 
L 12.40625 0 
z
" id="DejaVuSans-49"/>
      </defs>
      <g transform="translate(183.68237 308.716563)scale(0.1 -0.1)">
       <use xlink:href="#DejaVuSans-49"/>
       <use x="63.623047" xlink:href="#DejaVuSans-48"/>
       <use x="127.246094" xlink:href="#DejaVuSans-48"/>
      </g>
     </g>
    </g>
    <g id="xtick_4">
     <g id="line2d_4">
      <g>
       <use style="stroke:#000000;stroke-width:0.8;" x="265.564476" xlink:href="#mb4040869da" y="294.118125"/>
      </g>
     </g>
     <g id="text_4">
      <!-- 150 -->
      <g transform="translate(256.020726 308.716563)scale(0.1 -0.1)">
       <use xlink:href="#DejaVuSans-49"/>
       <use x="63.623047" xlink:href="#DejaVuSans-53"/>
       <use x="127.246094" xlink:href="#DejaVuSans-48"/>
      </g>
     </g>
    </g>
    <g id="xtick_5">
     <g id="line2d_5">
      <g>
       <use style="stroke:#000000;stroke-width:0.8;" x="337.902833" xlink:href="#mb4040869da" y="294.118125"/>
      </g>
     </g>
     <g id="text_5">
      <!-- 200 -->
      <defs>
       <path d="M 19.1875 8.296875 
L 53.609375 8.296875 
L 53.609375 0 
L 7.328125 0 
L 7.328125 8.296875 
Q 12.9375 14.109375 22.625 23.890625 
Q 32.328125 33.6875 34.8125 36.53125 
Q 39.546875 41.84375 41.421875 45.53125 
Q 43.3125 49.21875 43.3125 52.78125 
Q 43.3125 58.59375 39.234375 62.25 
Q 35.15625 65.921875 28.609375 65.921875 
Q 23.96875 65.921875 18.8125 64.3125 
Q 13.671875 62.703125 7.8125 59.421875 
L 7.8125 69.390625 
Q 13.765625 71.78125 18.9375 73 
Q 24.125 74.21875 28.421875 74.21875 
Q 39.75 74.21875 46.484375 68.546875 
Q 53.21875 62.890625 53.21875 53.421875 
Q 53.21875 48.921875 51.53125 44.890625 
Q 49.859375 40.875 45.40625 35.40625 
Q 44.1875 33.984375 37.640625 27.21875 
Q 31.109375 20.453125 19.1875 8.296875 
z
" id="DejaVuSans-50"/>
      </defs>
      <g transform="translate(328.359083 308.716563)scale(0.1 -0.1)">
       <use xlink:href="#DejaVuSans-50"/>
       <use x="63.623047" xlink:href="#DejaVuSans-48"/>
       <use x="127.246094" xlink:href="#DejaVuSans-48"/>
      </g>
     </g>
    </g>
    <g id="xtick_6">
     <g id="line2d_6">
      <g>
       <use style="stroke:#000000;stroke-width:0.8;" x="410.24119" xlink:href="#mb4040869da" y="294.118125"/>
      </g>
     </g>
     <g id="text_6">
      <!-- 250 -->
      <g transform="translate(400.69744 308.716563)scale(0.1 -0.1)">
       <use xlink:href="#DejaVuSans-50"/>
       <use x="63.623047" xlink:href="#DejaVuSans-53"/>
       <use x="127.246094" xlink:href="#DejaVuSans-48"/>
      </g>
     </g>
    </g>
   </g>
   <g id="matplotlib.axis_2">
    <g id="ytick_1">
     <g id="line2d_7">
      <defs>
       <path d="M 0 0 
L -3.5 0 
" id="me75c405730" style="stroke:#000000;stroke-width:0.8;"/>
      </defs>
      <g>
       <use style="stroke:#000000;stroke-width:0.8;" x="30.103125" xlink:href="#me75c405730" y="281.76358"/>
      </g>
     </g>
     <g id="text_7">
      <!-- 0.0 -->
      <defs>
       <path d="M 10.6875 12.40625 
L 21 12.40625 
L 21 0 
L 10.6875 0 
z
" id="DejaVuSans-46"/>
      </defs>
      <g transform="translate(7.2 285.562798)scale(0.1 -0.1)">
       <use xlink:href="#DejaVuSans-48"/>
       <use x="63.623047" xlink:href="#DejaVuSans-46"/>
       <use x="95.410156" xlink:href="#DejaVuSans-48"/>
      </g>
     </g>
    </g>
    <g id="ytick_2">
     <g id="line2d_8">
      <g>
       <use style="stroke:#000000;stroke-width:0.8;" x="30.103125" xlink:href="#me75c405730" y="232.345398"/>
      </g>
     </g>
     <g id="text_8">
      <!-- 0.2 -->
      <g transform="translate(7.2 236.144616)scale(0.1 -0.1)">
       <use xlink:href="#DejaVuSans-48"/>
       <use x="63.623047" xlink:href="#DejaVuSans-46"/>
       <use x="95.410156" xlink:href="#DejaVuSans-50"/>
      </g>
     </g>
    </g>
    <g id="ytick_3">
     <g id="line2d_9">
      <g>
       <use style="stroke:#000000;stroke-width:0.8;" x="30.103125" xlink:href="#me75c405730" y="182.927216"/>
      </g>
     </g>
     <g id="text_9">
      <!-- 0.4 -->
      <defs>
       <path d="M 37.796875 64.3125 
L 12.890625 25.390625 
L 37.796875 25.390625 
z
M 35.203125 72.90625 
L 47.609375 72.90625 
L 47.609375 25.390625 
L 58.015625 25.390625 
L 58.015625 17.1875 
L 47.609375 17.1875 
L 47.609375 0 
L 37.796875 0 
L 37.796875 17.1875 
L 4.890625 17.1875 
L 4.890625 26.703125 
z
" id="DejaVuSans-52"/>
      </defs>
      <g transform="translate(7.2 186.726435)scale(0.1 -0.1)">
       <use xlink:href="#DejaVuSans-48"/>
       <use x="63.623047" xlink:href="#DejaVuSans-46"/>
       <use x="95.410156" xlink:href="#DejaVuSans-52"/>
      </g>
     </g>
    </g>
    <g id="ytick_4">
     <g id="line2d_10">
      <g>
       <use style="stroke:#000000;stroke-width:0.8;" x="30.103125" xlink:href="#me75c405730" y="133.509034"/>
      </g>
     </g>
     <g id="text_10">
      <!-- 0.6 -->
      <defs>
       <path d="M 33.015625 40.375 
Q 26.375 40.375 22.484375 35.828125 
Q 18.609375 31.296875 18.609375 23.390625 
Q 18.609375 15.53125 22.484375 10.953125 
Q 26.375 6.390625 33.015625 6.390625 
Q 39.65625 6.390625 43.53125 10.953125 
Q 47.40625 15.53125 47.40625 23.390625 
Q 47.40625 31.296875 43.53125 35.828125 
Q 39.65625 40.375 33.015625 40.375 
z
M 52.59375 71.296875 
L 52.59375 62.3125 
Q 48.875 64.0625 45.09375 64.984375 
Q 41.3125 65.921875 37.59375 65.921875 
Q 27.828125 65.921875 22.671875 59.328125 
Q 17.53125 52.734375 16.796875 39.40625 
Q 19.671875 43.65625 24.015625 45.921875 
Q 28.375 48.1875 33.59375 48.1875 
Q 44.578125 48.1875 50.953125 41.515625 
Q 57.328125 34.859375 57.328125 23.390625 
Q 57.328125 12.15625 50.6875 5.359375 
Q 44.046875 -1.421875 33.015625 -1.421875 
Q 20.359375 -1.421875 13.671875 8.265625 
Q 6.984375 17.96875 6.984375 36.375 
Q 6.984375 53.65625 15.1875 63.9375 
Q 23.390625 74.21875 37.203125 74.21875 
Q 40.921875 74.21875 44.703125 73.484375 
Q 48.484375 72.75 52.59375 71.296875 
z
" id="DejaVuSans-54"/>
      </defs>
      <g transform="translate(7.2 137.308253)scale(0.1 -0.1)">
       <use xlink:href="#DejaVuSans-48"/>
       <use x="63.623047" xlink:href="#DejaVuSans-46"/>
       <use x="95.410156" xlink:href="#DejaVuSans-54"/>
      </g>
     </g>
    </g>
    <g id="ytick_5">
     <g id="line2d_11">
      <g>
       <use style="stroke:#000000;stroke-width:0.8;" x="30.103125" xlink:href="#me75c405730" y="84.090852"/>
      </g>
     </g>
     <g id="text_11">
      <!-- 0.8 -->
      <defs>
       <path d="M 31.78125 34.625 
Q 24.75 34.625 20.71875 30.859375 
Q 16.703125 27.09375 16.703125 20.515625 
Q 16.703125 13.921875 20.71875 10.15625 
Q 24.75 6.390625 31.78125 6.390625 
Q 38.8125 6.390625 42.859375 10.171875 
Q 46.921875 13.96875 46.921875 20.515625 
Q 46.921875 27.09375 42.890625 30.859375 
Q 38.875 34.625 31.78125 34.625 
z
M 21.921875 38.8125 
Q 15.578125 40.375 12.03125 44.71875 
Q 8.5 49.078125 8.5 55.328125 
Q 8.5 64.0625 14.71875 69.140625 
Q 20.953125 74.21875 31.78125 74.21875 
Q 42.671875 74.21875 48.875 69.140625 
Q 55.078125 64.0625 55.078125 55.328125 
Q 55.078125 49.078125 51.53125 44.71875 
Q 48 40.375 41.703125 38.8125 
Q 48.828125 37.15625 52.796875 32.3125 
Q 56.78125 27.484375 56.78125 20.515625 
Q 56.78125 9.90625 50.3125 4.234375 
Q 43.84375 -1.421875 31.78125 -1.421875 
Q 19.734375 -1.421875 13.25 4.234375 
Q 6.78125 9.90625 6.78125 20.515625 
Q 6.78125 27.484375 10.78125 32.3125 
Q 14.796875 37.15625 21.921875 38.8125 
z
M 18.3125 54.390625 
Q 18.3125 48.734375 21.84375 45.5625 
Q 25.390625 42.390625 31.78125 42.390625 
Q 38.140625 42.390625 41.71875 45.5625 
Q 45.3125 48.734375 45.3125 54.390625 
Q 45.3125 60.0625 41.71875 63.234375 
Q 38.140625 66.40625 31.78125 66.40625 
Q 25.390625 66.40625 21.84375 63.234375 
Q 18.3125 60.0625 18.3125 54.390625 
z
" id="DejaVuSans-56"/>
      </defs>
      <g transform="translate(7.2 87.890071)scale(0.1 -0.1)">
       <use xlink:href="#DejaVuSans-48"/>
       <use x="63.623047" xlink:href="#DejaVuSans-46"/>
       <use x="95.410156" xlink:href="#DejaVuSans-56"/>
      </g>
     </g>
    </g>
    <g id="ytick_6">
     <g id="line2d_12">
      <g>
       <use style="stroke:#000000;stroke-width:0.8;" x="30.103125" xlink:href="#me75c405730" y="34.67267"/>
      </g>
     </g>
     <g id="text_12">
      <!-- 1.0 -->
      <g transform="translate(7.2 38.471889)scale(0.1 -0.1)">
       <use xlink:href="#DejaVuSans-49"/>
       <use x="63.623047" xlink:href="#DejaVuSans-46"/>
       <use x="95.410156" xlink:href="#DejaVuSans-48"/>
      </g>
     </g>
    </g>
   </g>
   <g id="line2d_13">
    <path clip-path="url(#p41bad99998)" d="M 48.549406 281.76358 
L 48.549406 173.164539 
L 49.996173 173.052757 
L 49.996173 172.84096 
L 51.44294 172.729178 
L 51.44294 172.57033 
L 52.889707 172.458548 
L 52.889707 172.06437 
L 54.336475 171.952588 
L 54.336475 171.481928 
L 55.783242 171.370146 
L 55.783242 171.040684 
L 57.230009 170.928902 
L 57.230009 170.52884 
L 58.676776 170.417058 
L 58.676776 169.981697 
L 60.123543 169.869915 
L 60.123543 169.563986 
L 61.57031 169.452204 
L 61.57031 168.916828 
L 63.017077 168.805046 
L 63.017077 168.416751 
L 64.463844 168.304969 
L 64.463844 167.834309 
L 65.910612 167.722527 
L 65.910612 167.428364 
L 67.357379 167.316582 
L 67.357379 167.004769 
L 68.804146 166.892987 
L 68.804146 166.604708 
L 70.250913 166.492926 
L 70.250913 166.298778 
L 71.69768 166.186997 
L 71.69768 165.892834 
L 73.144447 165.781052 
L 73.144447 165.551605 
L 74.591214 165.439823 
L 74.591214 165.16331 
L 76.037982 165.051528 
L 76.037982 164.727949 
L 77.484749 164.616167 
L 77.484749 164.374953 
L 78.931516 164.263172 
L 78.931516 163.851344 
L 80.378283 163.739562 
L 80.378283 163.539531 
L 81.82505 163.427749 
L 81.82505 163.251251 
L 83.271817 163.139469 
L 83.271817 162.904139 
L 84.718584 162.792357 
L 84.718584 162.551144 
L 86.165352 162.439362 
L 86.165352 162.227565 
L 87.612119 162.115783 
L 87.612119 161.886336 
L 89.058886 161.774554 
L 89.058886 161.521574 
L 90.505653 161.409792 
L 90.505653 160.815583 
L 91.95242 160.703801 
L 91.95242 160.50377 
L 93.399187 160.391988 
L 93.399187 160.103709 
L 94.845954 159.991927 
L 94.845954 159.633048 
L 96.292721 159.521266 
L 96.292721 159.350652 
L 97.739489 159.23887 
L 97.739489 159.109438 
L 99.186256 158.997657 
L 99.186256 158.791743 
L 100.633023 158.679961 
L 100.633023 158.49758 
L 102.07979 158.385798 
L 102.07979 158.221067 
L 103.526557 158.109285 
L 103.526557 157.838655 
L 104.973324 157.726873 
L 104.973324 157.603325 
L 106.420091 157.491543 
L 106.420091 157.403294 
L 107.866859 157.291512 
L 107.866859 156.985583 
L 109.313626 156.873801 
L 109.313626 156.744369 
L 110.760393 156.632587 
L 110.760393 156.514922 
L 112.20716 156.40314 
L 112.20716 156.279592 
L 113.653927 156.16781 
L 113.653927 156.008962 
L 115.100694 155.89718 
L 115.100694 155.697149 
L 116.547461 155.585368 
L 116.547461 155.320621 
L 117.994229 155.208839 
L 117.994229 155.132357 
L 119.440996 155.020575 
L 119.440996 154.879377 
L 120.887763 154.767595 
L 120.887763 154.532265 
L 122.33453 154.420483 
L 122.33453 154.220452 
L 123.781297 154.10867 
L 123.781297 153.991005 
L 125.228064 153.879223 
L 125.228064 153.767441 
L 126.674831 153.655659 
L 126.674831 153.514461 
L 128.121599 153.402679 
L 128.121599 153.290897 
L 129.568366 153.179115 
L 129.568366 152.973201 
L 131.015133 152.86142 
L 131.015133 152.626089 
L 132.4619 152.514307 
L 132.4619 152.455475 
L 133.908667 152.343693 
L 133.908667 152.196612 
L 135.355434 152.08483 
L 135.355434 151.990698 
L 136.802201 151.878916 
L 136.802201 151.643585 
L 138.248968 151.531803 
L 138.248968 151.296473 
L 139.695736 151.184691 
L 139.695736 151.049376 
L 141.142503 150.937595 
L 141.142503 150.466934 
L 142.58927 150.355152 
L 142.58927 150.249253 
L 144.036037 150.137472 
L 144.036037 150.049223 
L 145.482804 149.937441 
L 145.482804 149.796243 
L 146.929571 149.684461 
L 146.929571 149.537379 
L 148.376338 149.425597 
L 148.376338 149.337349 
L 149.823106 149.225567 
L 149.823106 149.078485 
L 151.269873 148.966703 
L 151.269873 148.854922 
L 152.71664 148.74314 
L 152.71664 148.560759 
L 154.163407 148.448977 
L 154.163407 148.195997 
L 155.610174 148.084215 
L 155.610174 147.943017 
L 157.056941 147.831235 
L 157.056941 147.772402 
L 158.503708 147.66062 
L 158.503708 147.472356 
L 159.950476 147.360574 
L 159.950476 147.354691 
L 161.397243 147.242909 
L 161.397243 147.18996 
L 162.84401 147.078178 
L 162.84401 146.960513 
L 164.290777 146.848731 
L 164.290777 146.695766 
L 165.737544 146.583984 
L 165.737544 146.466319 
L 167.184311 146.354537 
L 167.184311 146.048608 
L 168.631078 145.936826 
L 168.631078 145.88976 
L 170.077845 145.777978 
L 170.077845 145.424983 
L 171.524613 145.313201 
L 171.524613 145.066104 
L 172.97138 144.954322 
L 172.97138 144.648393 
L 174.418147 144.536611 
L 174.418147 144.395413 
L 175.864914 144.283631 
L 175.864914 144.207149 
L 177.311681 144.095367 
L 177.311681 143.907102 
L 178.758448 143.795321 
L 178.758448 143.718838 
L 180.205215 143.607056 
L 180.205215 143.501158 
L 181.651983 143.389376 
L 181.651983 143.242294 
L 183.09875 143.130513 
L 183.09875 142.977548 
L 184.545517 142.865766 
L 184.545517 142.830466 
L 185.992284 142.718685 
L 185.992284 142.653969 
L 187.439051 142.542187 
L 187.439051 142.406872 
L 188.885818 142.29509 
L 188.885818 142.153892 
L 190.332585 142.04211 
L 190.332585 142.036227 
L 191.779353 141.924445 
L 191.779353 141.747947 
L 193.22612 141.636165 
L 193.22612 141.565566 
L 194.672887 141.453784 
L 194.672887 141.324353 
L 196.119654 141.212571 
L 196.119654 141.141972 
L 197.566421 141.03019 
L 197.566421 140.924291 
L 199.013188 140.812509 
L 199.013188 140.783093 
L 200.459955 140.671311 
L 200.459955 140.565412 
L 201.906722 140.453631 
L 201.906722 140.27125 
L 203.35349 140.159468 
L 203.35349 140.071219 
L 204.800257 139.959437 
L 204.800257 139.76529 
L 206.247024 139.653508 
L 206.247024 139.629975 
L 207.693791 139.518193 
L 207.693791 139.394644 
L 209.140558 139.282862 
L 209.140558 139.182847 
L 210.587325 139.071065 
L 210.587325 138.959283 
L 212.034092 138.847501 
L 212.034092 138.676887 
L 213.48086 138.565105 
L 213.48086 138.065028 
L 214.927627 137.953246 
L 214.927627 137.90618 
L 216.374394 137.794398 
L 216.374394 137.682617 
L 217.821161 137.570835 
L 217.821161 137.470819 
L 219.267928 137.359037 
L 219.267928 137.241372 
L 220.714695 137.12959 
L 220.714695 137.017809 
L 222.161462 136.906027 
L 222.161462 136.717762 
L 223.60823 136.605981 
L 223.60823 136.488315 
L 225.054997 136.376534 
L 225.054997 136.347117 
L 226.501764 136.235335 
L 226.501764 135.958822 
L 227.948531 135.84704 
L 227.948531 135.705842 
L 229.395298 135.59406 
L 229.395298 135.535228 
L 230.842065 135.423446 
L 230.842065 135.305781 
L 232.288832 135.193999 
L 232.288832 135.023384 
L 233.735599 134.911603 
L 233.735599 134.117363 
L 235.182367 134.005581 
L 235.182367 133.940865 
L 236.629134 133.829083 
L 236.629134 133.599636 
L 238.075901 133.487854 
L 238.075901 133.264291 
L 239.522668 133.152509 
L 239.522668 133.023077 
L 240.969435 132.911295 
L 240.969435 132.82893 
L 242.416202 132.717148 
L 242.416202 132.534767 
L 243.862969 132.422985 
L 243.862969 132.299436 
L 245.309737 132.187655 
L 245.309737 132.099406 
L 246.756504 131.987624 
L 246.756504 131.834659 
L 248.203271 131.722877 
L 248.203271 131.599329 
L 249.650038 131.487547 
L 249.650038 131.269866 
L 251.096805 131.158085 
L 251.096805 130.922754 
L 252.543572 130.810972 
L 252.543572 130.569759 
L 253.990339 130.457977 
L 253.990339 130.346195 
L 255.437107 130.234413 
L 255.437107 130.163814 
L 256.883874 130.052032 
L 256.883874 129.910834 
L 258.330641 129.799052 
L 258.330641 129.657854 
L 259.777408 129.546072 
L 259.777408 129.440174 
L 261.224175 129.328392 
L 261.224175 129.157777 
L 262.670942 129.045995 
L 262.670942 128.898914 
L 264.117709 128.787132 
L 264.117709 128.645934 
L 265.564476 128.534152 
L 265.564476 128.451786 
L 267.011244 128.340005 
L 267.011244 128.098791 
L 268.458011 127.987009 
L 268.458011 127.89876 
L 269.904778 127.786978 
L 269.904778 127.716379 
L 271.351545 127.604597 
L 271.351545 127.522232 
L 272.798312 127.41045 
L 272.798312 127.286902 
L 274.245079 127.17512 
L 274.245079 127.022155 
L 275.691846 126.910373 
L 275.691846 126.775058 
L 277.138614 126.663276 
L 277.138614 126.533845 
L 278.585381 126.422063 
L 278.585381 126.322047 
L 280.032148 126.210266 
L 280.032148 126.080834 
L 281.478915 125.969052 
L 281.478915 125.792554 
L 282.925682 125.680772 
L 282.925682 125.545457 
L 284.372449 125.433676 
L 284.372449 125.357193 
L 285.819216 125.245411 
L 285.819216 125.127746 
L 287.265984 125.015964 
L 287.265984 124.863 
L 288.712751 124.751218 
L 288.712751 124.651202 
L 290.159518 124.539421 
L 290.159518 124.468821 
L 291.606285 124.35704 
L 291.606285 124.03346 
L 293.053052 123.921679 
L 293.053052 123.686348 
L 294.499819 123.574566 
L 294.499819 123.180388 
L 295.946586 123.068606 
L 295.946586 122.915642 
L 297.393353 122.80386 
L 297.393353 122.609712 
L 298.840121 122.49793 
L 298.840121 122.309666 
L 300.286888 122.197884 
L 300.286888 122.074336 
L 301.733655 121.962554 
L 301.733655 121.780173 
L 303.180422 121.668391 
L 303.180422 121.527193 
L 304.627189 121.415411 
L 304.627189 121.327162 
L 306.073956 121.21538 
L 306.073956 121.068299 
L 307.520723 120.956517 
L 307.520723 120.768253 
L 308.967491 120.656471 
L 308.967491 120.532923 
L 310.414258 120.421141 
L 310.414258 120.244643 
L 311.861025 120.132861 
L 311.861025 119.891648 
L 313.307792 119.779866 
L 313.307792 119.644551 
L 314.754559 119.532769 
L 314.754559 119.379804 
L 316.201326 119.268022 
L 316.201326 119.162124 
L 317.648093 119.050342 
L 317.648093 118.897377 
L 319.094861 118.785595 
L 319.094861 118.714996 
L 320.541628 118.603214 
L 320.541628 118.526732 
L 321.988395 118.41495 
L 321.988395 118.150203 
L 323.435162 118.038422 
L 323.435162 117.920756 
L 324.881929 117.808975 
L 324.881929 117.197116 
L 326.328696 117.085334 
L 326.328696 116.87942 
L 327.775463 116.767638 
L 327.775463 116.597024 
L 329.22223 116.485242 
L 329.22223 116.285211 
L 330.668998 116.173429 
L 330.668998 116.043997 
L 332.115765 115.932216 
L 332.115765 115.667469 
L 333.562532 115.555687 
L 333.562532 115.420372 
L 335.009299 115.30859 
L 335.009299 114.961478 
L 336.456066 114.849696 
L 336.456066 114.608483 
L 337.902833 114.496701 
L 337.902833 114.343736 
L 339.3496 114.231954 
L 339.3496 114.073106 
L 340.796368 113.961325 
L 340.796368 113.737761 
L 342.243135 113.625979 
L 342.243135 113.28475 
L 343.689902 113.172968 
L 343.689902 112.943521 
L 345.136669 112.831739 
L 345.136669 112.714074 
L 346.583436 112.602292 
L 346.583436 112.419911 
L 348.030203 112.308129 
L 348.030203 112.008083 
L 349.47697 111.896301 
L 349.47697 111.819819 
L 350.923738 111.708037 
L 350.923738 111.566839 
L 352.370505 111.455057 
L 352.370505 111.290326 
L 353.817272 111.178544 
L 353.817272 110.866731 
L 355.264039 110.754949 
L 355.264039 110.44902 
L 356.710806 110.337238 
L 356.710806 110.066608 
L 358.157573 109.954827 
L 358.157573 109.719496 
L 359.60434 109.607714 
L 359.60434 109.390034 
L 361.051107 109.278252 
L 361.051107 108.919373 
L 362.497875 108.807591 
L 362.497875 108.554611 
L 363.944642 108.442829 
L 363.944642 108.254565 
L 365.391409 108.142783 
L 365.391409 107.948636 
L 366.838176 107.836854 
L 366.838176 107.625057 
L 368.284943 107.513275 
L 368.284943 107.313244 
L 369.73171 107.201462 
L 369.73171 106.8367 
L 371.178477 106.724918 
L 371.178477 106.407223 
L 372.625245 106.295441 
L 372.625245 106.013044 
L 374.072012 105.901262 
L 374.072012 105.630633 
L 375.518779 105.518851 
L 375.518779 105.036424 
L 376.965546 104.924642 
L 376.965546 104.553997 
L 378.412313 104.442215 
L 378.412313 104.136285 
L 379.85908 104.024504 
L 379.85908 103.80094 
L 381.305847 103.689158 
L 381.305847 103.400878 
L 382.752615 103.289096 
L 382.752615 102.836086 
L 384.199382 102.724304 
L 384.199382 102.306592 
L 385.646149 102.194811 
L 385.646149 101.524119 
L 387.092916 101.412337 
L 387.092916 100.865195 
L 388.539683 100.753413 
L 388.539683 100.376884 
L 389.98645 100.265102 
L 389.98645 99.90034 
L 391.433217 99.788558 
L 391.433217 99.459096 
L 392.879985 99.347314 
L 392.879985 98.970786 
L 394.326752 98.859004 
L 394.326752 98.347161 
L 395.773519 98.235379 
L 395.773519 97.811784 
L 397.220286 97.700002 
L 397.220286 97.223458 
L 398.667053 97.111677 
L 398.667053 96.699849 
L 400.11382 96.588067 
L 400.11382 95.958558 
L 401.560587 95.846776 
L 401.560587 95.340816 
L 403.007354 95.229034 
L 403.007354 94.640709 
L 404.454122 94.528927 
L 404.454122 94.022967 
L 405.900889 93.911185 
L 405.900889 93.25226 
L 407.347656 93.140478 
L 407.347656 92.581569 
L 408.794423 92.469787 
L 408.794423 91.828512 
L 410.24119 91.71673 
L 410.24119 90.963673 
L 411.687957 90.851891 
L 411.687957 89.36931 
L 413.134724 89.257529 
L 413.134724 79.120677 
L 414.581492 79.008895 
L 414.581492 53.663824 
L 416.028259 53.552042 
L 416.028259 40.479445 
L 417.475026 40.367663 
L 417.475026 34.67267 
L 417.475026 34.67267 
" style="fill:none;stroke:#1f77b4;stroke-linecap:square;stroke-width:1.5;"/>
   </g>
   <g id="line2d_14">
    <path clip-path="url(#p41bad99998)" d="M 48.549407 281.76358 
L 48.554092 199.857863 
L 52.745306 199.709348 
L 53.00374 199.635091 
L 54.967521 199.449448 
L 56.18121 199.152419 
L 56.688605 199.078162 
L 58.719617 198.929647 
L 58.888125 198.85539 
L 62.383242 198.706876 
L 65.701247 198.446975 
L 71.262611 198.001432 
L 71.281079 197.964304 
L 76.018542 197.630146 
L 76.121617 197.51876 
L 82.704707 197.036088 
L 83.473876 196.850445 
L 92.161638 195.625201 
L 94.348881 195.439558 
L 94.354374 195.402429 
L 95.111775 195.253915 
L 97.311968 194.771243 
L 99.146293 194.5856 
L 99.18885 194.548471 
L 100.490768 194.288571 
L 100.58321 194.251442 
L 101.28228 194.102928 
L 101.29745 194.065799 
L 102.256929 193.880156 
L 104.092148 193.50887 
L 104.515625 193.397484 
L 104.832314 193.24897 
L 104.836297 193.211841 
L 105.768128 193.100455 
L 107.073735 192.914812 
L 107.376603 192.840555 
L 109.037702 192.506398 
L 109.152111 192.43214 
L 109.901242 192.283626 
L 110.619938 192.17224 
L 111.316153 192.023726 
L 112.01144 191.800954 
L 112.585382 191.65244 
L 114.003468 191.466797 
L 114.269434 191.355411 
L 115.852587 191.169768 
L 116.896034 191.021253 
L 118.228475 190.83561 
L 124.020151 189.647495 
L 124.830037 189.424723 
L 125.647523 189.276208 
L 125.817437 189.164823 
L 126.712862 188.904922 
L 127.341054 188.719279 
L 130.618608 188.347993 
L 130.654634 188.310865 
L 131.493859 188.16235 
L 132.480957 187.939578 
L 132.816541 187.865321 
L 134.126032 187.679678 
L 134.173242 187.64255 
L 135.684267 187.419778 
L 135.806296 187.308392 
L 136.489043 187.08562 
L 136.653836 187.011363 
L 137.974214 186.862849 
L 138.045838 186.751463 
L 139.179825 186.528691 
L 140.38491 186.120276 
L 140.52121 186.046019 
L 141.600446 185.526219 
L 142.887501 185.303447 
L 143.024357 185.22919 
L 143.811085 185.043547 
L 144.175276 184.895032 
L 148.442397 183.335631 
L 149.276573 183.187116 
L 149.298459 183.112859 
L 149.703896 182.927216 
L 149.761937 182.890087 
L 151.113709 182.630187 
L 151.181086 182.481673 
L 151.782396 182.333158 
L 151.889575 182.258901 
L 152.91797 181.999001 
L 153.038125 181.887615 
L 154.417859 181.7391 
L 154.651382 181.627715 
L 155.235425 181.330686 
L 155.382977 181.2193 
L 156.962473 180.9594 
L 157.003166 180.885142 
L 157.959962 180.662371 
L 158.031361 180.550985 
L 158.590066 180.365342 
L 158.66368 180.291084 
L 160.626861 179.734155 
L 160.880093 179.585641 
L 161.198079 179.437126 
L 161.326702 179.325741 
L 162.756442 178.954454 
L 163.680864 178.768811 
L 164.482006 178.397525 
L 165.934657 178.174754 
L 166.061528 178.063368 
L 166.543233 177.840596 
L 166.557327 177.803468 
L 169.533053 176.949509 
L 169.536631 176.875252 
L 170.920034 176.689609 
L 170.932895 176.652481 
L 171.370519 176.429709 
L 172.356013 175.909908 
L 172.648967 175.724265 
L 173.711964 175.390108 
L 173.96805 175.315851 
L 174.405699 175.167336 
L 174.684612 175.018822 
L 174.811644 174.944564 
L 175.968049 174.573278 
L 176.348366 174.276249 
L 177.112714 174.053478 
L 178.044671 173.570806 
L 178.707821 173.385163 
L 179.198472 173.162391 
L 179.323339 173.088134 
L 180.029625 172.865362 
L 180.386957 172.716848 
L 180.780537 172.531205 
L 180.893196 172.38269 
L 181.513134 172.234176 
L 182.001935 171.937147 
L 184.087264 171.268832 
L 184.688872 171.083189 
L 184.769695 171.008932 
L 185.272106 170.823289 
L 185.29052 170.78616 
L 186.126658 170.489131 
L 186.446206 170.117845 
L 186.976382 169.857945 
L 187.285853 169.672302 
L 188.584889 169.301016 
L 190.98266 168.224286 
L 191.443723 168.075771 
L 191.841502 167.815871 
L 192.05781 167.704485 
L 192.561636 167.555971 
L 193.494088 167.221813 
L 194.76809 166.51637 
L 194.914646 166.404984 
L 195.612008 166.182212 
L 195.934121 165.996569 
L 196.74693 165.551026 
L 197.284548 165.328254 
L 198.10419 164.882711 
L 198.730949 164.734196 
L 199.573908 164.437167 
L 200.001158 164.251524 
L 202.298335 163.397566 
L 202.487436 163.323309 
L 203.92495 162.617865 
L 203.925346 162.580737 
L 204.529667 162.320837 
L 204.638255 162.209451 
L 204.964264 161.986679 
L 205.547299 161.801036 
L 205.613121 161.68965 
L 206.241474 161.392621 
L 206.966561 161.021335 
L 208.331741 160.650049 
L 208.419281 160.538663 
L 208.684496 160.315892 
L 208.828777 160.241634 
L 210.233359 159.424805 
L 211.571832 159.01639 
L 211.634408 158.942133 
L 212.200994 158.75649 
L 215.797702 156.974317 
L 216.81605 156.640159 
L 216.921238 156.565902 
L 217.13739 156.454516 
L 217.553789 156.306002 
L 218.342511 155.897587 
L 218.728441 155.749072 
L 218.896757 155.637687 
L 220.10402 155.117886 
L 220.365163 154.969371 
L 220.417251 154.932243 
L 220.733085 154.783728 
L 221.183696 154.412442 
L 221.613928 154.263928 
L 222.169923 154.004028 
L 222.247506 153.892642 
L 223.423201 153.298584 
L 223.448578 153.224327 
L 223.916977 153.001555 
L 226.361703 152.258983 
L 226.543013 151.999083 
L 226.774079 151.81344 
L 226.832082 151.739182 
L 227.212898 151.553539 
L 227.399931 151.367896 
L 227.727267 151.182253 
L 228.345863 150.922353 
L 228.494323 150.699581 
L 228.926459 150.402552 
L 228.931759 150.365424 
L 229.731869 150.105523 
L 229.868286 149.994138 
L 231.100247 149.325823 
L 231.652876 149.14018 
L 231.74511 149.065922 
L 232.476998 148.657508 
L 232.960598 148.508993 
L 233.077868 148.397607 
L 233.666218 148.211964 
L 234.509338 147.877807 
L 234.522877 147.840678 
L 235.234888 147.580778 
L 235.779167 147.320878 
L 236.4291 146.72682 
L 236.819526 146.392662 
L 237.55711 146.169891 
L 237.685267 145.947119 
L 238.420737 145.575833 
L 238.423484 145.538704 
L 238.973349 145.315933 
L 239.450918 145.018904 
L 239.571585 144.907518 
L 240.188256 144.387717 
L 240.666489 144.127817 
L 240.833747 143.905045 
L 242.127137 143.125344 
L 242.219663 143.051087 
L 242.815275 142.902573 
L 242.863974 142.865444 
L 243.519458 142.679801 
L 243.647233 142.568415 
L 243.930466 142.382772 
L 243.965881 142.308515 
L 244.494636 142.122872 
L 245.242018 141.714457 
L 245.258905 141.6402 
L 245.929394 141.306042 
L 246.057509 141.231785 
L 246.473301 140.971885 
L 246.659235 140.860499 
L 246.926111 140.711985 
L 248.076118 140.006541 
L 248.213852 139.932284 
L 248.740225 139.709512 
L 249.041083 139.523869 
L 249.773181 139.263969 
L 250.461507 139.078326 
L 250.90431 138.855554 
L 251.002367 138.744168 
L 251.507166 138.521397 
L 251.533103 138.484268 
L 251.940435 138.335754 
L 252.195639 138.150111 
L 252.311194 138.038725 
L 256.199024 136.442194 
L 256.517058 136.108037 
L 256.803159 135.848137 
L 256.864229 135.736751 
L 257.592955 135.439722 
L 258.396079 134.994179 
L 258.459288 134.845664 
L 259.375339 134.474378 
L 262.254511 132.432304 
L 262.614491 132.28379 
L 263.497534 131.912504 
L 263.719626 131.726861 
L 264.027323 131.504089 
L 264.125852 131.392703 
L 264.664291 131.058546 
L 264.680215 131.021417 
L 264.969853 130.835774 
L 265.134983 130.575874 
L 265.49179 130.427359 
L 265.585353 130.315974 
L 266.079103 130.13033 
L 266.483203 129.944687 
L 267.425146 129.35063 
L 267.892483 129.202115 
L 268.036083 128.979343 
L 268.623623 128.422414 
L 268.662447 128.385286 
L 269.086391 128.236771 
L 269.169384 128.162514 
L 269.785862 127.605585 
L 270.063145 127.271427 
L 270.394062 127.085784 
L 271.063344 126.714498 
L 272.948306 125.117968 
L 273.126032 124.820939 
L 273.299405 124.598167 
L 273.395525 124.486782 
L 274.035646 124.078367 
L 274.557138 123.892724 
L 274.55721 123.855595 
L 274.887183 123.707081 
L 274.929112 123.632823 
L 275.191418 123.484309 
L 275.193719 123.44718 
L 275.413177 123.298666 
L 275.546621 123.038766 
L 275.638952 122.815994 
L 276.163678 122.66748 
L 278.506587 121.108078 
L 279.008242 120.848178 
L 279.684332 120.551149 
L 279.741381 120.476891 
L 281.22438 119.585805 
L 281.45297 119.325905 
L 282.264987 118.991747 
L 282.324422 118.91749 
L 282.502047 118.731847 
L 283.069276 118.212046 
L 283.345898 118.063532 
L 283.580791 117.84076 
L 283.64863 117.766503 
L 284.2783 117.543731 
L 284.584012 117.283831 
L 284.705105 117.172445 
L 285.083188 116.986802 
L 285.323977 116.838288 
L 286.229642 116.24423 
L 286.386355 116.095715 
L 286.493699 116.021458 
L 286.852046 115.650172 
L 287.106689 115.4274 
L 287.605187 115.278886 
L 289.459723 114.053642 
L 289.988478 113.57097 
L 290.894726 112.865526 
L 291.068543 112.791269 
L 291.832194 112.345726 
L 292.924599 111.677411 
L 292.931265 111.640282 
L 293.326689 111.41751 
L 293.630809 111.231867 
L 294.037512 111.046224 
L 294.31679 110.860581 
L 294.691654 110.452166 
L 295.02845 110.303652 
L 295.261865 110.118009 
L 295.69651 109.895237 
L 295.768065 109.783851 
L 296.067528 109.598208 
L 296.452257 109.115536 
L 296.951357 108.892765 
L 297.337036 108.48435 
L 298.079103 108.187321 
L 298.380755 107.890292 
L 298.381952 107.853164 
L 298.939796 107.630392 
L 299.860657 106.850691 
L 300.509065 106.553662 
L 300.536391 106.516534 
L 300.941084 106.330891 
L 302.742493 104.994261 
L 303.315614 104.697232 
L 303.348967 104.622974 
L 303.773061 104.400203 
L 303.908271 104.251688 
L 304.258295 104.028917 
L 304.3661 103.917531 
L 304.61921 103.731888 
L 305.241697 103.509116 
L 305.516651 103.360602 
L 305.783557 103.212087 
L 305.800569 103.13783 
L 307.342517 102.618029 
L 307.681216 102.469515 
L 308.103379 102.283872 
L 308.52443 101.912586 
L 309.334246 101.429914 
L 309.875623 101.132885 
L 309.916146 101.058628 
L 310.315102 100.835856 
L 310.458973 100.72447 
L 310.767433 100.575956 
L 311.291098 100.316055 
L 311.293956 100.278927 
L 311.682366 100.093284 
L 311.725513 100.019027 
L 312.255464 99.833384 
L 312.265562 99.796255 
L 312.848454 99.573483 
L 313.640505 98.682397 
L 314.183829 98.385368 
L 314.466042 98.162596 
L 314.855586 97.902696 
L 315.215368 97.717053 
L 315.926567 97.457152 
L 316.040399 97.382895 
L 316.866442 97.011609 
L 316.889766 96.97448 
L 317.470286 96.751709 
L 317.807717 96.45468 
L 318.017004 96.120522 
L 318.386083 95.860622 
L 318.595175 95.489336 
L 319.459224 95.043793 
L 319.619309 94.895278 
L 320.268943 94.486863 
L 320.67877 94.264092 
L 321.069193 94.078449 
L 321.295953 93.892806 
L 322.152226 93.224491 
L 322.91243 92.741819 
L 322.987118 92.630433 
L 323.542807 92.370533 
L 323.923795 91.999247 
L 324.241533 91.850732 
L 324.500259 91.702218 
L 325.163644 91.516575 
L 325.279156 91.293803 
L 325.310413 91.256674 
L 325.563992 91.10816 
L 327.500391 89.437372 
L 328.237582 88.620543 
L 328.602532 88.4349 
L 329.059019 87.952228 
L 329.30521 87.729456 
L 329.403242 87.61807 
L 329.482428 87.543813 
L 329.740791 87.395299 
L 330.228054 87.246784 
L 330.785935 86.949755 
L 331.002973 86.801241 
L 331.545029 86.392826 
L 331.555519 86.318569 
L 331.918696 86.132926 
L 332.027483 85.984411 
L 332.390913 85.724511 
L 332.392578 85.687383 
L 332.916042 85.464611 
L 332.960167 85.353225 
L 333.422248 85.056196 
L 333.531741 84.907682 
L 333.832254 84.68491 
L 333.931232 84.536396 
L 333.991446 84.42501 
L 334.345061 84.276495 
L 335.09568 83.496794 
L 335.445466 83.162637 
L 335.855296 82.939865 
L 335.992844 82.865608 
L 336.28686 82.717094 
L 337.740816 81.677493 
L 338.074942 81.528978 
L 338.593896 81.231949 
L 338.869718 81.083435 
L 339.747603 80.637891 
L 339.90684 80.452248 
L 340.308008 80.303734 
L 340.71801 80.043834 
L 340.991166 79.672548 
L 341.358423 79.524033 
L 341.969607 79.189876 
L 342.398903 79.041361 
L 342.63668 78.929975 
L 343.510908 78.298789 
L 343.586103 78.224532 
L 343.738464 78.038889 
L 343.930594 77.890374 
L 344.398162 77.667602 
L 344.450193 77.630474 
L 344.832885 77.481959 
L 346.105064 76.553744 
L 346.430296 76.40523 
L 346.700022 76.108201 
L 347.323088 75.811172 
L 347.544084 75.5884 
L 347.599534 75.514143 
L 348.314001 75.217114 
L 348.477802 75.0686 
L 349.141448 74.585928 
L 349.852262 74.363156 
L 349.929382 74.214642 
L 350.371712 73.99187 
L 352.532407 72.506726 
L 353.14668 72.321082 
L 353.217781 72.283954 
L 353.808939 72.135439 
L 354.0332 71.986925 
L 354.312169 71.727025 
L 354.502847 71.541382 
L 354.760028 71.429996 
L 355.198271 71.207224 
L 355.60852 71.095838 
L 355.96692 70.947324 
L 356.917555 70.279009 
L 357.026773 70.204752 
L 357.518484 69.944851 
L 357.5914 69.833465 
L 358.14916 69.684951 
L 358.486142 69.499308 
L 358.542062 69.387922 
L 359.101963 69.202279 
L 359.435948 68.942379 
L 362.090403 67.457234 
L 362.242788 67.271591 
L 362.953402 66.937434 
L 363.262936 66.49189 
L 363.756998 66.269119 
L 363.757486 66.23199 
L 364.133729 66.046347 
L 364.168966 65.97209 
L 364.396865 65.823575 
L 364.537876 65.563675 
L 364.95448 65.415161 
L 365.769918 64.821103 
L 366.324767 64.63546 
L 366.340457 64.598331 
L 366.545728 64.449817 
L 366.670981 64.338431 
L 367.046459 64.189917 
L 368.067475 63.29883 
L 368.418061 63.150315 
L 368.429929 63.113187 
L 368.732379 62.964672 
L 368.808354 62.890415 
L 368.923832 62.704772 
L 369.23389 62.407743 
L 369.555764 62.259229 
L 369.567932 62.184972 
L 370.018392 61.999328 
L 370.693519 61.368142 
L 370.912705 61.182499 
L 371.205243 61.033985 
L 371.568151 60.88547 
L 371.904163 60.699827 
L 372.155474 60.402798 
L 372.521086 60.180027 
L 372.703434 60.031512 
L 373.028335 59.734483 
L 373.210221 59.474583 
L 373.544198 59.326068 
L 373.549686 59.28894 
L 374.138912 59.02904 
L 374.294194 58.917654 
L 374.542066 58.620625 
L 374.654548 58.509239 
L 376.233088 57.803795 
L 376.490935 57.469638 
L 376.935304 57.283995 
L 377.052041 57.13548 
L 377.288345 56.986966 
L 377.512602 56.801323 
L 377.558808 56.727066 
L 378.241571 56.392908 
L 378.831189 56.244394 
L 379.168102 56.021622 
L 379.695229 55.761722 
L 379.80416 55.613207 
L 380.061684 55.464693 
L 381.094441 54.833506 
L 381.103478 54.796378 
L 381.73816 54.499349 
L 381.996377 54.276577 
L 382.346482 53.979548 
L 382.994295 53.68252 
L 383.366038 53.496876 
L 383.368687 53.459748 
L 383.677883 53.274105 
L 383.68932 53.236976 
L 384.127471 53.014205 
L 385.277253 52.457275 
L 385.463933 52.308761 
L 385.824357 52.160246 
L 385.85182 52.085989 
L 386.109036 51.937475 
L 386.13145 51.863218 
L 386.410229 51.677574 
L 387.25163 51.232031 
L 387.354883 51.157774 
L 387.640623 50.972131 
L 387.730891 50.823616 
L 390.807026 49.152829 
L 390.897886 49.078572 
L 391.381094 48.670157 
L 391.403806 48.5959 
L 391.996374 48.447385 
L 392.057115 48.373128 
L 392.579492 48.187485 
L 392.62681 48.076099 
L 393.104483 47.816199 
L 394.715128 46.962241 
L 395.018285 46.702341 
L 395.686445 46.405312 
L 396.941417 45.811254 
L 397.277926 45.588482 
L 397.899052 45.254325 
L 398.206671 45.10581 
L 398.632287 44.957296 
L 399.035213 44.734524 
L 399.375159 44.511752 
L 399.755751 44.288981 
L 399.976485 44.066209 
L 400.2439 43.917695 
L 400.333354 43.76918 
L 400.812493 43.620666 
L 401.118117 43.472151 
L 401.350649 43.323637 
L 401.765068 43.100865 
L 404.763036 41.430078 
L 404.767833 41.392949 
L 405.241474 41.207306 
L 405.246331 41.133049 
L 405.693131 40.910277 
L 406.523012 40.353348 
L 406.91576 40.204834 
L 406.990034 40.093448 
L 407.563161 39.944933 
L 408.100919 39.647904 
L 408.696035 39.49939 
L 408.788987 39.388004 
L 409.142619 39.23949 
L 409.8571 38.719689 
L 412.517899 37.160287 
L 413.276972 36.789001 
L 413.84437 36.529101 
L 414.53587 36.269201 
L 414.770344 36.157815 
L 415.461078 35.897915 
L 415.849297 35.675143 
L 416.214944 35.415243 
L 416.385285 35.266728 
L 416.698944 35.006828 
L 417.156734 34.821185 
L 417.426298 34.67267 
L 417.426298 34.67267 
" style="fill:none;stroke:#ff7f0e;stroke-linecap:square;stroke-width:1.5;"/>
   </g>
   <g id="patch_3">
    <path d="M 30.103125 294.118125 
L 30.103125 22.318125 
" style="fill:none;stroke:#000000;stroke-linecap:square;stroke-linejoin:miter;stroke-width:0.8;"/>
   </g>
   <g id="patch_4">
    <path d="M 435.921307 294.118125 
L 435.921307 22.318125 
" style="fill:none;stroke:#000000;stroke-linecap:square;stroke-linejoin:miter;stroke-width:0.8;"/>
   </g>
   <g id="patch_5">
    <path d="M 30.103125 294.118125 
L 435.921307 294.118125 
" style="fill:none;stroke:#000000;stroke-linecap:square;stroke-linejoin:miter;stroke-width:0.8;"/>
   </g>
   <g id="patch_6">
    <path d="M 30.103125 22.318125 
L 435.921307 22.318125 
" style="fill:none;stroke:#000000;stroke-linecap:square;stroke-linejoin:miter;stroke-width:0.8;"/>
   </g>
   <g id="text_13">
    <!-- CDF of single pixel compared to Gaussian mixture CDF -->
    <defs>
     <path d="M 64.40625 67.28125 
L 64.40625 56.890625 
Q 59.421875 61.53125 53.78125 63.8125 
Q 48.140625 66.109375 41.796875 66.109375 
Q 29.296875 66.109375 22.65625 58.46875 
Q 16.015625 50.828125 16.015625 36.375 
Q 16.015625 21.96875 22.65625 14.328125 
Q 29.296875 6.6875 41.796875 6.6875 
Q 48.140625 6.6875 53.78125 8.984375 
Q 59.421875 11.28125 64.40625 15.921875 
L 64.40625 5.609375 
Q 59.234375 2.09375 53.4375 0.328125 
Q 47.65625 -1.421875 41.21875 -1.421875 
Q 24.65625 -1.421875 15.125 8.703125 
Q 5.609375 18.84375 5.609375 36.375 
Q 5.609375 53.953125 15.125 64.078125 
Q 24.65625 74.21875 41.21875 74.21875 
Q 47.75 74.21875 53.53125 72.484375 
Q 59.328125 70.75 64.40625 67.28125 
z
" id="DejaVuSans-67"/>
     <path d="M 19.671875 64.796875 
L 19.671875 8.109375 
L 31.59375 8.109375 
Q 46.6875 8.109375 53.6875 14.9375 
Q 60.6875 21.78125 60.6875 36.53125 
Q 60.6875 51.171875 53.6875 57.984375 
Q 46.6875 64.796875 31.59375 64.796875 
z
M 9.8125 72.90625 
L 30.078125 72.90625 
Q 51.265625 72.90625 61.171875 64.09375 
Q 71.09375 55.28125 71.09375 36.53125 
Q 71.09375 17.671875 61.125 8.828125 
Q 51.171875 0 30.078125 0 
L 9.8125 0 
z
" id="DejaVuSans-68"/>
     <path d="M 9.8125 72.90625 
L 51.703125 72.90625 
L 51.703125 64.59375 
L 19.671875 64.59375 
L 19.671875 43.109375 
L 48.578125 43.109375 
L 48.578125 34.8125 
L 19.671875 34.8125 
L 19.671875 0 
L 9.8125 0 
z
" id="DejaVuSans-70"/>
     <path id="DejaVuSans-32"/>
     <path d="M 30.609375 48.390625 
Q 23.390625 48.390625 19.1875 42.75 
Q 14.984375 37.109375 14.984375 27.296875 
Q 14.984375 17.484375 19.15625 11.84375 
Q 23.34375 6.203125 30.609375 6.203125 
Q 37.796875 6.203125 41.984375 11.859375 
Q 46.1875 17.53125 46.1875 27.296875 
Q 46.1875 37.015625 41.984375 42.703125 
Q 37.796875 48.390625 30.609375 48.390625 
z
M 30.609375 56 
Q 42.328125 56 49.015625 48.375 
Q 55.71875 40.765625 55.71875 27.296875 
Q 55.71875 13.875 49.015625 6.21875 
Q 42.328125 -1.421875 30.609375 -1.421875 
Q 18.84375 -1.421875 12.171875 6.21875 
Q 5.515625 13.875 5.515625 27.296875 
Q 5.515625 40.765625 12.171875 48.375 
Q 18.84375 56 30.609375 56 
z
" id="DejaVuSans-111"/>
     <path d="M 37.109375 75.984375 
L 37.109375 68.5 
L 28.515625 68.5 
Q 23.6875 68.5 21.796875 66.546875 
Q 19.921875 64.59375 19.921875 59.515625 
L 19.921875 54.6875 
L 34.71875 54.6875 
L 34.71875 47.703125 
L 19.921875 47.703125 
L 19.921875 0 
L 10.890625 0 
L 10.890625 47.703125 
L 2.296875 47.703125 
L 2.296875 54.6875 
L 10.890625 54.6875 
L 10.890625 58.5 
Q 10.890625 67.625 15.140625 71.796875 
Q 19.390625 75.984375 28.609375 75.984375 
z
" id="DejaVuSans-102"/>
     <path d="M 44.28125 53.078125 
L 44.28125 44.578125 
Q 40.484375 46.53125 36.375 47.5 
Q 32.28125 48.484375 27.875 48.484375 
Q 21.1875 48.484375 17.84375 46.4375 
Q 14.5 44.390625 14.5 40.28125 
Q 14.5 37.15625 16.890625 35.375 
Q 19.28125 33.59375 26.515625 31.984375 
L 29.59375 31.296875 
Q 39.15625 29.25 43.1875 25.515625 
Q 47.21875 21.78125 47.21875 15.09375 
Q 47.21875 7.46875 41.1875 3.015625 
Q 35.15625 -1.421875 24.609375 -1.421875 
Q 20.21875 -1.421875 15.453125 -0.5625 
Q 10.6875 0.296875 5.421875 2 
L 5.421875 11.28125 
Q 10.40625 8.6875 15.234375 7.390625 
Q 20.0625 6.109375 24.8125 6.109375 
Q 31.15625 6.109375 34.5625 8.28125 
Q 37.984375 10.453125 37.984375 14.40625 
Q 37.984375 18.0625 35.515625 20.015625 
Q 33.0625 21.96875 24.703125 23.78125 
L 21.578125 24.515625 
Q 13.234375 26.265625 9.515625 29.90625 
Q 5.8125 33.546875 5.8125 39.890625 
Q 5.8125 47.609375 11.28125 51.796875 
Q 16.75 56 26.8125 56 
Q 31.78125 56 36.171875 55.265625 
Q 40.578125 54.546875 44.28125 53.078125 
z
" id="DejaVuSans-115"/>
     <path d="M 9.421875 54.6875 
L 18.40625 54.6875 
L 18.40625 0 
L 9.421875 0 
z
M 9.421875 75.984375 
L 18.40625 75.984375 
L 18.40625 64.59375 
L 9.421875 64.59375 
z
" id="DejaVuSans-105"/>
     <path d="M 54.890625 33.015625 
L 54.890625 0 
L 45.90625 0 
L 45.90625 32.71875 
Q 45.90625 40.484375 42.875 44.328125 
Q 39.84375 48.1875 33.796875 48.1875 
Q 26.515625 48.1875 22.3125 43.546875 
Q 18.109375 38.921875 18.109375 30.90625 
L 18.109375 0 
L 9.078125 0 
L 9.078125 54.6875 
L 18.109375 54.6875 
L 18.109375 46.1875 
Q 21.34375 51.125 25.703125 53.5625 
Q 30.078125 56 35.796875 56 
Q 45.21875 56 50.046875 50.171875 
Q 54.890625 44.34375 54.890625 33.015625 
z
" id="DejaVuSans-110"/>
     <path d="M 45.40625 27.984375 
Q 45.40625 37.75 41.375 43.109375 
Q 37.359375 48.484375 30.078125 48.484375 
Q 22.859375 48.484375 18.828125 43.109375 
Q 14.796875 37.75 14.796875 27.984375 
Q 14.796875 18.265625 18.828125 12.890625 
Q 22.859375 7.515625 30.078125 7.515625 
Q 37.359375 7.515625 41.375 12.890625 
Q 45.40625 18.265625 45.40625 27.984375 
z
M 54.390625 6.78125 
Q 54.390625 -7.171875 48.1875 -13.984375 
Q 42 -20.796875 29.203125 -20.796875 
Q 24.46875 -20.796875 20.265625 -20.09375 
Q 16.0625 -19.390625 12.109375 -17.921875 
L 12.109375 -9.1875 
Q 16.0625 -11.328125 19.921875 -12.34375 
Q 23.78125 -13.375 27.78125 -13.375 
Q 36.625 -13.375 41.015625 -8.765625 
Q 45.40625 -4.15625 45.40625 5.171875 
L 45.40625 9.625 
Q 42.625 4.78125 38.28125 2.390625 
Q 33.9375 0 27.875 0 
Q 17.828125 0 11.671875 7.65625 
Q 5.515625 15.328125 5.515625 27.984375 
Q 5.515625 40.671875 11.671875 48.328125 
Q 17.828125 56 27.875 56 
Q 33.9375 56 38.28125 53.609375 
Q 42.625 51.21875 45.40625 46.390625 
L 45.40625 54.6875 
L 54.390625 54.6875 
z
" id="DejaVuSans-103"/>
     <path d="M 9.421875 75.984375 
L 18.40625 75.984375 
L 18.40625 0 
L 9.421875 0 
z
" id="DejaVuSans-108"/>
     <path d="M 56.203125 29.59375 
L 56.203125 25.203125 
L 14.890625 25.203125 
Q 15.484375 15.921875 20.484375 11.0625 
Q 25.484375 6.203125 34.421875 6.203125 
Q 39.59375 6.203125 44.453125 7.46875 
Q 49.3125 8.734375 54.109375 11.28125 
L 54.109375 2.78125 
Q 49.265625 0.734375 44.1875 -0.34375 
Q 39.109375 -1.421875 33.890625 -1.421875 
Q 20.796875 -1.421875 13.15625 6.1875 
Q 5.515625 13.8125 5.515625 26.8125 
Q 5.515625 40.234375 12.765625 48.109375 
Q 20.015625 56 32.328125 56 
Q 43.359375 56 49.78125 48.890625 
Q 56.203125 41.796875 56.203125 29.59375 
z
M 47.21875 32.234375 
Q 47.125 39.59375 43.09375 43.984375 
Q 39.0625 48.390625 32.421875 48.390625 
Q 24.90625 48.390625 20.390625 44.140625 
Q 15.875 39.890625 15.1875 32.171875 
z
" id="DejaVuSans-101"/>
     <path d="M 18.109375 8.203125 
L 18.109375 -20.796875 
L 9.078125 -20.796875 
L 9.078125 54.6875 
L 18.109375 54.6875 
L 18.109375 46.390625 
Q 20.953125 51.265625 25.265625 53.625 
Q 29.59375 56 35.59375 56 
Q 45.5625 56 51.78125 48.09375 
Q 58.015625 40.1875 58.015625 27.296875 
Q 58.015625 14.40625 51.78125 6.484375 
Q 45.5625 -1.421875 35.59375 -1.421875 
Q 29.59375 -1.421875 25.265625 0.953125 
Q 20.953125 3.328125 18.109375 8.203125 
z
M 48.6875 27.296875 
Q 48.6875 37.203125 44.609375 42.84375 
Q 40.53125 48.484375 33.40625 48.484375 
Q 26.265625 48.484375 22.1875 42.84375 
Q 18.109375 37.203125 18.109375 27.296875 
Q 18.109375 17.390625 22.1875 11.75 
Q 26.265625 6.109375 33.40625 6.109375 
Q 40.53125 6.109375 44.609375 11.75 
Q 48.6875 17.390625 48.6875 27.296875 
z
" id="DejaVuSans-112"/>
     <path d="M 54.890625 54.6875 
L 35.109375 28.078125 
L 55.90625 0 
L 45.3125 0 
L 29.390625 21.484375 
L 13.484375 0 
L 2.875 0 
L 24.125 28.609375 
L 4.6875 54.6875 
L 15.28125 54.6875 
L 29.78125 35.203125 
L 44.28125 54.6875 
z
" id="DejaVuSans-120"/>
     <path d="M 48.78125 52.59375 
L 48.78125 44.1875 
Q 44.96875 46.296875 41.140625 47.34375 
Q 37.3125 48.390625 33.40625 48.390625 
Q 24.65625 48.390625 19.8125 42.84375 
Q 14.984375 37.3125 14.984375 27.296875 
Q 14.984375 17.28125 19.8125 11.734375 
Q 24.65625 6.203125 33.40625 6.203125 
Q 37.3125 6.203125 41.140625 7.25 
Q 44.96875 8.296875 48.78125 10.40625 
L 48.78125 2.09375 
Q 45.015625 0.34375 40.984375 -0.53125 
Q 36.96875 -1.421875 32.421875 -1.421875 
Q 20.0625 -1.421875 12.78125 6.34375 
Q 5.515625 14.109375 5.515625 27.296875 
Q 5.515625 40.671875 12.859375 48.328125 
Q 20.21875 56 33.015625 56 
Q 37.15625 56 41.109375 55.140625 
Q 45.0625 54.296875 48.78125 52.59375 
z
" id="DejaVuSans-99"/>
     <path d="M 52 44.1875 
Q 55.375 50.25 60.0625 53.125 
Q 64.75 56 71.09375 56 
Q 79.640625 56 84.28125 50.015625 
Q 88.921875 44.046875 88.921875 33.015625 
L 88.921875 0 
L 79.890625 0 
L 79.890625 32.71875 
Q 79.890625 40.578125 77.09375 44.375 
Q 74.3125 48.1875 68.609375 48.1875 
Q 61.625 48.1875 57.5625 43.546875 
Q 53.515625 38.921875 53.515625 30.90625 
L 53.515625 0 
L 44.484375 0 
L 44.484375 32.71875 
Q 44.484375 40.625 41.703125 44.40625 
Q 38.921875 48.1875 33.109375 48.1875 
Q 26.21875 48.1875 22.15625 43.53125 
Q 18.109375 38.875 18.109375 30.90625 
L 18.109375 0 
L 9.078125 0 
L 9.078125 54.6875 
L 18.109375 54.6875 
L 18.109375 46.1875 
Q 21.1875 51.21875 25.484375 53.609375 
Q 29.78125 56 35.6875 56 
Q 41.65625 56 45.828125 52.96875 
Q 50 49.953125 52 44.1875 
z
" id="DejaVuSans-109"/>
     <path d="M 34.28125 27.484375 
Q 23.390625 27.484375 19.1875 25 
Q 14.984375 22.515625 14.984375 16.5 
Q 14.984375 11.71875 18.140625 8.90625 
Q 21.296875 6.109375 26.703125 6.109375 
Q 34.1875 6.109375 38.703125 11.40625 
Q 43.21875 16.703125 43.21875 25.484375 
L 43.21875 27.484375 
z
M 52.203125 31.203125 
L 52.203125 0 
L 43.21875 0 
L 43.21875 8.296875 
Q 40.140625 3.328125 35.546875 0.953125 
Q 30.953125 -1.421875 24.3125 -1.421875 
Q 15.921875 -1.421875 10.953125 3.296875 
Q 6 8.015625 6 15.921875 
Q 6 25.140625 12.171875 29.828125 
Q 18.359375 34.515625 30.609375 34.515625 
L 43.21875 34.515625 
L 43.21875 35.40625 
Q 43.21875 41.609375 39.140625 45 
Q 35.0625 48.390625 27.6875 48.390625 
Q 23 48.390625 18.546875 47.265625 
Q 14.109375 46.140625 10.015625 43.890625 
L 10.015625 52.203125 
Q 14.9375 54.109375 19.578125 55.046875 
Q 24.21875 56 28.609375 56 
Q 40.484375 56 46.34375 49.84375 
Q 52.203125 43.703125 52.203125 31.203125 
z
" id="DejaVuSans-97"/>
     <path d="M 41.109375 46.296875 
Q 39.59375 47.171875 37.8125 47.578125 
Q 36.03125 48 33.890625 48 
Q 26.265625 48 22.1875 43.046875 
Q 18.109375 38.09375 18.109375 28.8125 
L 18.109375 0 
L 9.078125 0 
L 9.078125 54.6875 
L 18.109375 54.6875 
L 18.109375 46.1875 
Q 20.953125 51.171875 25.484375 53.578125 
Q 30.03125 56 36.53125 56 
Q 37.453125 56 38.578125 55.875 
Q 39.703125 55.765625 41.0625 55.515625 
z
" id="DejaVuSans-114"/>
     <path d="M 45.40625 46.390625 
L 45.40625 75.984375 
L 54.390625 75.984375 
L 54.390625 0 
L 45.40625 0 
L 45.40625 8.203125 
Q 42.578125 3.328125 38.25 0.953125 
Q 33.9375 -1.421875 27.875 -1.421875 
Q 17.96875 -1.421875 11.734375 6.484375 
Q 5.515625 14.40625 5.515625 27.296875 
Q 5.515625 40.1875 11.734375 48.09375 
Q 17.96875 56 27.875 56 
Q 33.9375 56 38.25 53.625 
Q 42.578125 51.265625 45.40625 46.390625 
z
M 14.796875 27.296875 
Q 14.796875 17.390625 18.875 11.75 
Q 22.953125 6.109375 30.078125 6.109375 
Q 37.203125 6.109375 41.296875 11.75 
Q 45.40625 17.390625 45.40625 27.296875 
Q 45.40625 37.203125 41.296875 42.84375 
Q 37.203125 48.484375 30.078125 48.484375 
Q 22.953125 48.484375 18.875 42.84375 
Q 14.796875 37.203125 14.796875 27.296875 
z
" id="DejaVuSans-100"/>
     <path d="M 18.3125 70.21875 
L 18.3125 54.6875 
L 36.8125 54.6875 
L 36.8125 47.703125 
L 18.3125 47.703125 
L 18.3125 18.015625 
Q 18.3125 11.328125 20.140625 9.421875 
Q 21.96875 7.515625 27.59375 7.515625 
L 36.8125 7.515625 
L 36.8125 0 
L 27.59375 0 
Q 17.1875 0 13.234375 3.875 
Q 9.28125 7.765625 9.28125 18.015625 
L 9.28125 47.703125 
L 2.6875 47.703125 
L 2.6875 54.6875 
L 9.28125 54.6875 
L 9.28125 70.21875 
z
" id="DejaVuSans-116"/>
     <path d="M 59.515625 10.40625 
L 59.515625 29.984375 
L 43.40625 29.984375 
L 43.40625 38.09375 
L 69.28125 38.09375 
L 69.28125 6.78125 
Q 63.578125 2.734375 56.6875 0.65625 
Q 49.8125 -1.421875 42 -1.421875 
Q 24.90625 -1.421875 15.25 8.5625 
Q 5.609375 18.5625 5.609375 36.375 
Q 5.609375 54.25 15.25 64.234375 
Q 24.90625 74.21875 42 74.21875 
Q 49.125 74.21875 55.546875 72.453125 
Q 61.96875 70.703125 67.390625 67.28125 
L 67.390625 56.78125 
Q 61.921875 61.421875 55.765625 63.765625 
Q 49.609375 66.109375 42.828125 66.109375 
Q 29.4375 66.109375 22.71875 58.640625 
Q 16.015625 51.171875 16.015625 36.375 
Q 16.015625 21.625 22.71875 14.15625 
Q 29.4375 6.6875 42.828125 6.6875 
Q 48.046875 6.6875 52.140625 7.59375 
Q 56.25 8.5 59.515625 10.40625 
z
" id="DejaVuSans-71"/>
     <path d="M 8.5 21.578125 
L 8.5 54.6875 
L 17.484375 54.6875 
L 17.484375 21.921875 
Q 17.484375 14.15625 20.5 10.265625 
Q 23.53125 6.390625 29.59375 6.390625 
Q 36.859375 6.390625 41.078125 11.03125 
Q 45.3125 15.671875 45.3125 23.6875 
L 45.3125 54.6875 
L 54.296875 54.6875 
L 54.296875 0 
L 45.3125 0 
L 45.3125 8.40625 
Q 42.046875 3.421875 37.71875 1 
Q 33.40625 -1.421875 27.6875 -1.421875 
Q 18.265625 -1.421875 13.375 4.4375 
Q 8.5 10.296875 8.5 21.578125 
z
M 31.109375 56 
z
" id="DejaVuSans-117"/>
    </defs>
    <g transform="translate(68.568153 16.318125)scale(0.12 -0.12)">
     <use xlink:href="#DejaVuSans-67"/>
     <use x="69.824219" xlink:href="#DejaVuSans-68"/>
     <use x="146.826172" xlink:href="#DejaVuSans-70"/>
     <use x="204.345703" xlink:href="#DejaVuSans-32"/>
     <use x="236.132812" xlink:href="#DejaVuSans-111"/>
     <use x="297.314453" xlink:href="#DejaVuSans-102"/>
     <use x="332.519531" xlink:href="#DejaVuSans-32"/>
     <use x="364.306641" xlink:href="#DejaVuSans-115"/>
     <use x="416.40625" xlink:href="#DejaVuSans-105"/>
     <use x="444.189453" xlink:href="#DejaVuSans-110"/>
     <use x="507.568359" xlink:href="#DejaVuSans-103"/>
     <use x="571.044922" xlink:href="#DejaVuSans-108"/>
     <use x="598.828125" xlink:href="#DejaVuSans-101"/>
     <use x="660.351562" xlink:href="#DejaVuSans-32"/>
     <use x="692.138672" xlink:href="#DejaVuSans-112"/>
     <use x="755.615234" xlink:href="#DejaVuSans-105"/>
     <use x="783.398438" xlink:href="#DejaVuSans-120"/>
     <use x="839.453125" xlink:href="#DejaVuSans-101"/>
     <use x="900.976562" xlink:href="#DejaVuSans-108"/>
     <use x="928.759766" xlink:href="#DejaVuSans-32"/>
     <use x="960.546875" xlink:href="#DejaVuSans-99"/>
     <use x="1015.527344" xlink:href="#DejaVuSans-111"/>
     <use x="1076.708984" xlink:href="#DejaVuSans-109"/>
     <use x="1174.121094" xlink:href="#DejaVuSans-112"/>
     <use x="1237.597656" xlink:href="#DejaVuSans-97"/>
     <use x="1298.876953" xlink:href="#DejaVuSans-114"/>
     <use x="1337.740234" xlink:href="#DejaVuSans-101"/>
     <use x="1399.263672" xlink:href="#DejaVuSans-100"/>
     <use x="1462.740234" xlink:href="#DejaVuSans-32"/>
     <use x="1494.527344" xlink:href="#DejaVuSans-116"/>
     <use x="1533.736328" xlink:href="#DejaVuSans-111"/>
     <use x="1594.917969" xlink:href="#DejaVuSans-32"/>
     <use x="1626.705078" xlink:href="#DejaVuSans-71"/>
     <use x="1704.195312" xlink:href="#DejaVuSans-97"/>
     <use x="1765.474609" xlink:href="#DejaVuSans-117"/>
     <use x="1828.853516" xlink:href="#DejaVuSans-115"/>
     <use x="1880.953125" xlink:href="#DejaVuSans-115"/>
     <use x="1933.052734" xlink:href="#DejaVuSans-105"/>
     <use x="1960.835938" xlink:href="#DejaVuSans-97"/>
     <use x="2022.115234" xlink:href="#DejaVuSans-110"/>
     <use x="2085.494141" xlink:href="#DejaVuSans-32"/>
     <use x="2117.28125" xlink:href="#DejaVuSans-109"/>
     <use x="2214.693359" xlink:href="#DejaVuSans-105"/>
     <use x="2242.476562" xlink:href="#DejaVuSans-120"/>
     <use x="2301.65625" xlink:href="#DejaVuSans-116"/>
     <use x="2340.865234" xlink:href="#DejaVuSans-117"/>
     <use x="2404.244141" xlink:href="#DejaVuSans-114"/>
     <use x="2443.107422" xlink:href="#DejaVuSans-101"/>
     <use x="2504.630859" xlink:href="#DejaVuSans-32"/>
     <use x="2536.417969" xlink:href="#DejaVuSans-67"/>
     <use x="2606.242188" xlink:href="#DejaVuSans-68"/>
     <use x="2683.244141" xlink:href="#DejaVuSans-70"/>
    </g>
   </g>
   <g id="legend_1">
    <g id="patch_7">
     <path d="M 37.103125 59.674375 
L 156.892188 59.674375 
Q 158.892188 59.674375 158.892188 57.674375 
L 158.892188 29.318125 
Q 158.892188 27.318125 156.892188 27.318125 
L 37.103125 27.318125 
Q 35.103125 27.318125 35.103125 29.318125 
L 35.103125 57.674375 
Q 35.103125 59.674375 37.103125 59.674375 
z
" style="fill:#ffffff;opacity:0.8;stroke:#cccccc;stroke-linejoin:miter;"/>
    </g>
    <g id="line2d_15">
     <path d="M 39.103125 35.416562 
L 59.103125 35.416562 
" style="fill:none;stroke:#1f77b4;stroke-linecap:square;stroke-width:1.5;"/>
    </g>
    <g id="line2d_16"/>
    <g id="text_14">
     <!-- Data -->
     <g transform="translate(67.103125 38.916562)scale(0.1 -0.1)">
      <use xlink:href="#DejaVuSans-68"/>
      <use x="77.001953" xlink:href="#DejaVuSans-97"/>
      <use x="138.28125" xlink:href="#DejaVuSans-116"/>
      <use x="177.490234" xlink:href="#DejaVuSans-97"/>
     </g>
    </g>
    <g id="line2d_17">
     <path d="M 39.103125 50.094688 
L 59.103125 50.094688 
" style="fill:none;stroke:#ff7f0e;stroke-linecap:square;stroke-width:1.5;"/>
    </g>
    <g id="line2d_18"/>
    <g id="text_15">
     <!-- Gaussian mixture -->
     <g transform="translate(67.103125 53.594688)scale(0.1 -0.1)">
      <use xlink:href="#DejaVuSans-71"/>
      <use x="77.490234" xlink:href="#DejaVuSans-97"/>
      <use x="138.769531" xlink:href="#DejaVuSans-117"/>
      <use x="202.148438" xlink:href="#DejaVuSans-115"/>
      <use x="254.248047" xlink:href="#DejaVuSans-115"/>
      <use x="306.347656" xlink:href="#DejaVuSans-105"/>
      <use x="334.130859" xlink:href="#DejaVuSans-97"/>
      <use x="395.410156" xlink:href="#DejaVuSans-110"/>
      <use x="458.789062" xlink:href="#DejaVuSans-32"/>
      <use x="490.576172" xlink:href="#DejaVuSans-109"/>
      <use x="587.988281" xlink:href="#DejaVuSans-105"/>
      <use x="615.771484" xlink:href="#DejaVuSans-120"/>
      <use x="674.951172" xlink:href="#DejaVuSans-116"/>
      <use x="714.160156" xlink:href="#DejaVuSans-117"/>
      <use x="777.539062" xlink:href="#DejaVuSans-114"/>
      <use x="816.402344" xlink:href="#DejaVuSans-101"/>
     </g>
    </g>
   </g>
  </g>
  <g id="axes_2">
   <g id="patch_8">
    <path d="M 517.084943 294.118125 
L 922.903125 294.118125 
L 922.903125 22.318125 
L 517.084943 22.318125 
z
" style="fill:#ffffff;"/>
   </g>
   <g id="matplotlib.axis_3">
    <g id="xtick_7">
     <g id="line2d_19">
      <g>
       <use style="stroke:#000000;stroke-width:0.8;" x="535.531224" xlink:href="#mb4040869da" y="294.118125"/>
      </g>
     </g>
     <g id="text_16">
      <!-- 0 -->
      <g transform="translate(532.349974 308.716563)scale(0.1 -0.1)">
       <use xlink:href="#DejaVuSans-48"/>
      </g>
     </g>
    </g>
    <g id="xtick_8">
     <g id="line2d_20">
      <g>
       <use style="stroke:#000000;stroke-width:0.8;" x="607.869581" xlink:href="#mb4040869da" y="294.118125"/>
      </g>
     </g>
     <g id="text_17">
      <!-- 50 -->
      <g transform="translate(601.507081 308.716563)scale(0.1 -0.1)">
       <use xlink:href="#DejaVuSans-53"/>
       <use x="63.623047" xlink:href="#DejaVuSans-48"/>
      </g>
     </g>
    </g>
    <g id="xtick_9">
     <g id="line2d_21">
      <g>
       <use style="stroke:#000000;stroke-width:0.8;" x="680.207938" xlink:href="#mb4040869da" y="294.118125"/>
      </g>
     </g>
     <g id="text_18">
      <!-- 100 -->
      <g transform="translate(670.664188 308.716563)scale(0.1 -0.1)">
       <use xlink:href="#DejaVuSans-49"/>
       <use x="63.623047" xlink:href="#DejaVuSans-48"/>
       <use x="127.246094" xlink:href="#DejaVuSans-48"/>
      </g>
     </g>
    </g>
    <g id="xtick_10">
     <g id="line2d_22">
      <g>
       <use style="stroke:#000000;stroke-width:0.8;" x="752.546295" xlink:href="#mb4040869da" y="294.118125"/>
      </g>
     </g>
     <g id="text_19">
      <!-- 150 -->
      <g transform="translate(743.002545 308.716563)scale(0.1 -0.1)">
       <use xlink:href="#DejaVuSans-49"/>
       <use x="63.623047" xlink:href="#DejaVuSans-53"/>
       <use x="127.246094" xlink:href="#DejaVuSans-48"/>
      </g>
     </g>
    </g>
    <g id="xtick_11">
     <g id="line2d_23">
      <g>
       <use style="stroke:#000000;stroke-width:0.8;" x="824.884651" xlink:href="#mb4040869da" y="294.118125"/>
      </g>
     </g>
     <g id="text_20">
      <!-- 200 -->
      <g transform="translate(815.340901 308.716563)scale(0.1 -0.1)">
       <use xlink:href="#DejaVuSans-50"/>
       <use x="63.623047" xlink:href="#DejaVuSans-48"/>
       <use x="127.246094" xlink:href="#DejaVuSans-48"/>
      </g>
     </g>
    </g>
    <g id="xtick_12">
     <g id="line2d_24">
      <g>
       <use style="stroke:#000000;stroke-width:0.8;" x="897.223008" xlink:href="#mb4040869da" y="294.118125"/>
      </g>
     </g>
     <g id="text_21">
      <!-- 250 -->
      <g transform="translate(887.679258 308.716563)scale(0.1 -0.1)">
       <use xlink:href="#DejaVuSans-50"/>
       <use x="63.623047" xlink:href="#DejaVuSans-53"/>
       <use x="127.246094" xlink:href="#DejaVuSans-48"/>
      </g>
     </g>
    </g>
   </g>
   <g id="matplotlib.axis_4">
    <g id="ytick_7">
     <g id="line2d_25">
      <g>
       <use style="stroke:#000000;stroke-width:0.8;" x="517.084943" xlink:href="#me75c405730" y="265.427133"/>
      </g>
     </g>
     <g id="text_22">
      <!-- 0.002 -->
      <g transform="translate(481.456818 269.226352)scale(0.1 -0.1)">
       <use xlink:href="#DejaVuSans-48"/>
       <use x="63.623047" xlink:href="#DejaVuSans-46"/>
       <use x="95.410156" xlink:href="#DejaVuSans-48"/>
       <use x="159.033203" xlink:href="#DejaVuSans-48"/>
       <use x="222.65625" xlink:href="#DejaVuSans-50"/>
      </g>
     </g>
    </g>
    <g id="ytick_8">
     <g id="line2d_26">
      <g>
       <use style="stroke:#000000;stroke-width:0.8;" x="517.084943" xlink:href="#me75c405730" y="234.064414"/>
      </g>
     </g>
     <g id="text_23">
      <!-- 0.004 -->
      <g transform="translate(481.456818 237.863632)scale(0.1 -0.1)">
       <use xlink:href="#DejaVuSans-48"/>
       <use x="63.623047" xlink:href="#DejaVuSans-46"/>
       <use x="95.410156" xlink:href="#DejaVuSans-48"/>
       <use x="159.033203" xlink:href="#DejaVuSans-48"/>
       <use x="222.65625" xlink:href="#DejaVuSans-52"/>
      </g>
     </g>
    </g>
    <g id="ytick_9">
     <g id="line2d_27">
      <g>
       <use style="stroke:#000000;stroke-width:0.8;" x="517.084943" xlink:href="#me75c405730" y="202.701694"/>
      </g>
     </g>
     <g id="text_24">
      <!-- 0.006 -->
      <g transform="translate(481.456818 206.500912)scale(0.1 -0.1)">
       <use xlink:href="#DejaVuSans-48"/>
       <use x="63.623047" xlink:href="#DejaVuSans-46"/>
       <use x="95.410156" xlink:href="#DejaVuSans-48"/>
       <use x="159.033203" xlink:href="#DejaVuSans-48"/>
       <use x="222.65625" xlink:href="#DejaVuSans-54"/>
      </g>
     </g>
    </g>
    <g id="ytick_10">
     <g id="line2d_28">
      <g>
       <use style="stroke:#000000;stroke-width:0.8;" x="517.084943" xlink:href="#me75c405730" y="171.338974"/>
      </g>
     </g>
     <g id="text_25">
      <!-- 0.008 -->
      <g transform="translate(481.456818 175.138192)scale(0.1 -0.1)">
       <use xlink:href="#DejaVuSans-48"/>
       <use x="63.623047" xlink:href="#DejaVuSans-46"/>
       <use x="95.410156" xlink:href="#DejaVuSans-48"/>
       <use x="159.033203" xlink:href="#DejaVuSans-48"/>
       <use x="222.65625" xlink:href="#DejaVuSans-56"/>
      </g>
     </g>
    </g>
    <g id="ytick_11">
     <g id="line2d_29">
      <g>
       <use style="stroke:#000000;stroke-width:0.8;" x="517.084943" xlink:href="#me75c405730" y="139.976254"/>
      </g>
     </g>
     <g id="text_26">
      <!-- 0.010 -->
      <g transform="translate(481.456818 143.775473)scale(0.1 -0.1)">
       <use xlink:href="#DejaVuSans-48"/>
       <use x="63.623047" xlink:href="#DejaVuSans-46"/>
       <use x="95.410156" xlink:href="#DejaVuSans-48"/>
       <use x="159.033203" xlink:href="#DejaVuSans-49"/>
       <use x="222.65625" xlink:href="#DejaVuSans-48"/>
      </g>
     </g>
    </g>
    <g id="ytick_12">
     <g id="line2d_30">
      <g>
       <use style="stroke:#000000;stroke-width:0.8;" x="517.084943" xlink:href="#me75c405730" y="108.613534"/>
      </g>
     </g>
     <g id="text_27">
      <!-- 0.012 -->
      <g transform="translate(481.456818 112.412753)scale(0.1 -0.1)">
       <use xlink:href="#DejaVuSans-48"/>
       <use x="63.623047" xlink:href="#DejaVuSans-46"/>
       <use x="95.410156" xlink:href="#DejaVuSans-48"/>
       <use x="159.033203" xlink:href="#DejaVuSans-49"/>
       <use x="222.65625" xlink:href="#DejaVuSans-50"/>
      </g>
     </g>
    </g>
    <g id="ytick_13">
     <g id="line2d_31">
      <g>
       <use style="stroke:#000000;stroke-width:0.8;" x="517.084943" xlink:href="#me75c405730" y="77.250814"/>
      </g>
     </g>
     <g id="text_28">
      <!-- 0.014 -->
      <g transform="translate(481.456818 81.050033)scale(0.1 -0.1)">
       <use xlink:href="#DejaVuSans-48"/>
       <use x="63.623047" xlink:href="#DejaVuSans-46"/>
       <use x="95.410156" xlink:href="#DejaVuSans-48"/>
       <use x="159.033203" xlink:href="#DejaVuSans-49"/>
       <use x="222.65625" xlink:href="#DejaVuSans-52"/>
      </g>
     </g>
    </g>
    <g id="ytick_14">
     <g id="line2d_32">
      <g>
       <use style="stroke:#000000;stroke-width:0.8;" x="517.084943" xlink:href="#me75c405730" y="45.888094"/>
      </g>
     </g>
     <g id="text_29">
      <!-- 0.016 -->
      <g transform="translate(481.456818 49.687313)scale(0.1 -0.1)">
       <use xlink:href="#DejaVuSans-48"/>
       <use x="63.623047" xlink:href="#DejaVuSans-46"/>
       <use x="95.410156" xlink:href="#DejaVuSans-48"/>
       <use x="159.033203" xlink:href="#DejaVuSans-49"/>
       <use x="222.65625" xlink:href="#DejaVuSans-54"/>
      </g>
     </g>
    </g>
   </g>
   <g id="line2d_33">
    <path clip-path="url(#p7d2b0d963c)" d="M 535.531224 34.67267 
L 539.257746 38.777439 
L 542.984267 55.307165 
L 546.710788 81.534855 
L 550.43731 113.580299 
L 554.163831 147.312018 
L 557.890353 179.174963 
L 561.616874 206.725159 
L 565.343395 228.787562 
L 569.069917 245.289942 
L 572.796438 256.909611 
L 576.52296 264.683249 
L 580.249481 269.689583 
L 583.976003 272.853268 
L 587.702524 274.865648 
L 591.429045 276.188657 
L 595.155567 277.101856 
L 598.882088 277.760775 
L 602.60861 278.247858 
L 606.335131 278.608762 
L 610.061652 278.874027 
L 613.788174 279.069407 
L 617.514695 279.218804 
L 621.241217 279.343238 
L 624.967738 279.458508 
L 628.694259 279.573492 
L 632.420781 279.690295 
L 636.147302 279.806579 
L 639.873824 279.91945 
L 643.600345 280.029414 
L 647.326867 280.142679 
L 651.053388 280.270508 
L 654.779909 280.425545 
L 658.506431 280.616313 
L 662.232952 280.842024 
L 665.959474 281.089848 
L 669.685995 281.335861 
L 673.412516 281.549521 
L 677.139038 281.700185 
L 680.865559 281.76358 
L 684.592081 281.726332 
L 688.318602 281.587621 
L 692.045123 281.358077 
L 695.771645 281.056976 
L 699.498166 280.709018 
L 703.224688 280.341648 
L 706.951209 279.983184 
L 710.677731 279.661347 
L 714.404252 279.401539 
L 718.130773 279.224504 
L 721.857295 279.143603 
L 725.583816 279.162483 
L 729.310338 279.274021 
L 733.036859 279.461047 
L 736.76338 279.698675 
L 740.489902 279.957606 
L 744.216423 280.207561 
L 747.942945 280.420346 
L 751.669466 280.572418 
L 755.395988 280.647061 
L 759.122509 280.636224 
L 762.84903 280.541722 
L 766.575552 280.375203 
L 770.302073 280.156277 
L 774.028595 279.908644 
L 777.755116 279.654834 
L 781.481637 279.410911 
L 785.208159 279.182868 
L 788.93468 278.966058 
L 792.661202 278.748033 
L 796.387723 278.513864 
L 800.114244 278.252029 
L 803.840766 277.95867 
L 807.567287 277.638657 
L 811.293809 277.3031 
L 815.02033 276.964329 
L 818.746852 276.630194 
L 822.473373 276.299607 
L 826.199894 275.960577 
L 829.926416 275.590805 
L 833.652937 275.159794 
L 837.379459 274.630592 
L 841.10598 273.95891 
L 844.832501 273.087372 
L 848.559023 271.933082 
L 852.285544 270.367963 
L 856.012066 268.194091 
L 859.738587 265.120987 
L 863.465108 260.758118 
L 867.19163 254.640999 
L 870.918151 246.308954 
L 874.644673 235.441709 
L 878.371194 222.039085 
L 882.097716 206.598044 
L 885.824237 190.217307 
L 889.550758 174.558364 
L 893.27728 161.624101 
L 897.003801 153.37842 
L 900.730323 151.29961 
L 904.456844 156.00392 
" style="fill:none;stroke:#1f77b4;stroke-linecap:square;stroke-width:1.5;"/>
   </g>
   <g id="line2d_34">
    <path clip-path="url(#p7d2b0d963c)" d="M 535.531224 157.245228 
L 539.257746 158.451728 
L 542.984267 163.259703 
L 546.710788 171.223106 
L 550.43731 181.66158 
L 554.163831 193.749466 
L 557.890353 206.616976 
L 561.616874 219.446503 
L 565.343395 231.549688 
L 569.069917 242.416139 
L 572.796438 251.731065 
L 576.52296 259.364985 
L 580.249481 265.342837 
L 583.976003 269.801751 
L 587.702524 272.946407 
L 591.429045 275.009055 
L 595.155567 276.218515 
L 598.882088 276.779765 
L 602.60861 276.863518 
L 606.335131 276.603759 
L 610.061652 276.10066 
L 613.788174 275.426347 
L 617.514695 274.631495 
L 621.241217 273.751393 
L 624.967738 272.810789 
L 628.694259 271.82735 
L 632.420781 270.813934 
L 636.147302 269.780019 
L 639.873824 268.732653 
L 643.600345 267.677206 
L 647.326867 266.618053 
L 651.053388 265.55921 
L 654.779909 264.504833 
L 658.506431 263.459505 
L 662.232952 262.428213 
L 665.959474 261.416039 
L 669.685995 260.427628 
L 673.412516 259.466574 
L 677.139038 258.53487 
L 680.865559 257.632571 
L 684.592081 256.75773 
L 688.318602 255.906609 
L 692.045123 255.074104 
L 695.771645 254.254251 
L 699.498166 253.440697 
L 703.224688 252.627037 
L 706.951209 251.806999 
L 710.677731 250.974507 
L 714.404252 250.123751 
L 718.130773 249.24939 
L 721.857295 248.34702 
L 725.583816 247.413942 
L 729.310338 246.450184 
L 733.036859 245.459585 
L 736.76338 244.450687 
L 740.489902 243.437139 
L 744.216423 242.437366 
L 747.942945 241.473382 
L 751.669466 240.568792 
L 755.395988 239.74623 
L 759.122509 239.024599 
L 762.84903 238.416601 
L 766.575552 237.926987 
L 770.302073 237.551899 
L 774.028595 237.279455 
L 777.755116 237.091541 
L 781.481637 236.966556 
L 785.208159 236.882656 
L 788.93468 236.82097 
L 792.661202 236.768229 
L 796.387723 236.718352 
L 800.114244 236.672717 
L 803.840766 236.639083 
L 807.567287 236.629407 
L 811.293809 236.657018 
L 815.02033 236.733733 
L 818.746852 236.867557 
L 822.473373 237.061419 
L 826.199894 237.313228 
L 829.926416 237.617216 
L 833.652937 237.966263 
L 837.379459 238.354719 
L 841.10598 238.781161 
L 844.832501 239.250586 
L 848.559023 239.775685 
L 852.285544 240.37709 
L 856.012066 241.082622 
L 859.738587 241.925743 
L 863.465108 242.943414 
L 867.19163 244.173547 
L 870.918151 245.652147 
L 874.644673 247.4102 
L 878.371194 249.470373 
L 882.097716 251.843679 
L 885.824237 254.526386 
L 889.550758 257.49763 
L 893.27728 260.718225 
L 897.003801 264.131158 
L 900.730323 267.664046 
L 904.456844 271.233539 
" style="fill:none;stroke:#ff7f0e;stroke-linecap:square;stroke-width:1.5;"/>
   </g>
   <g id="patch_9">
    <path d="M 517.084943 294.118125 
L 517.084943 22.318125 
" style="fill:none;stroke:#000000;stroke-linecap:square;stroke-linejoin:miter;stroke-width:0.8;"/>
   </g>
   <g id="patch_10">
    <path d="M 922.903125 294.118125 
L 922.903125 22.318125 
" style="fill:none;stroke:#000000;stroke-linecap:square;stroke-linejoin:miter;stroke-width:0.8;"/>
   </g>
   <g id="patch_11">
    <path d="M 517.084943 294.118125 
L 922.903125 294.118125 
" style="fill:none;stroke:#000000;stroke-linecap:square;stroke-linejoin:miter;stroke-width:0.8;"/>
   </g>
   <g id="patch_12">
    <path d="M 517.084943 22.318125 
L 922.903125 22.318125 
" style="fill:none;stroke:#000000;stroke-linecap:square;stroke-linejoin:miter;stroke-width:0.8;"/>
   </g>
   <g id="text_30">
    <!-- PDF of single pixel compared to Gaussian mixture PDF -->
    <defs>
     <path d="M 19.671875 64.796875 
L 19.671875 37.40625 
L 32.078125 37.40625 
Q 38.96875 37.40625 42.71875 40.96875 
Q 46.484375 44.53125 46.484375 51.125 
Q 46.484375 57.671875 42.71875 61.234375 
Q 38.96875 64.796875 32.078125 64.796875 
z
M 9.8125 72.90625 
L 32.078125 72.90625 
Q 44.34375 72.90625 50.609375 67.359375 
Q 56.890625 61.8125 56.890625 51.125 
Q 56.890625 40.328125 50.609375 34.8125 
Q 44.34375 29.296875 32.078125 29.296875 
L 19.671875 29.296875 
L 19.671875 0 
L 9.8125 0 
z
" id="DejaVuSans-80"/>
    </defs>
    <g transform="translate(556.693722 16.318125)scale(0.12 -0.12)">
     <use xlink:href="#DejaVuSans-80"/>
     <use x="60.302734" xlink:href="#DejaVuSans-68"/>
     <use x="137.304688" xlink:href="#DejaVuSans-70"/>
     <use x="194.824219" xlink:href="#DejaVuSans-32"/>
     <use x="226.611328" xlink:href="#DejaVuSans-111"/>
     <use x="287.792969" xlink:href="#DejaVuSans-102"/>
     <use x="322.998047" xlink:href="#DejaVuSans-32"/>
     <use x="354.785156" xlink:href="#DejaVuSans-115"/>
     <use x="406.884766" xlink:href="#DejaVuSans-105"/>
     <use x="434.667969" xlink:href="#DejaVuSans-110"/>
     <use x="498.046875" xlink:href="#DejaVuSans-103"/>
     <use x="561.523438" xlink:href="#DejaVuSans-108"/>
     <use x="589.306641" xlink:href="#DejaVuSans-101"/>
     <use x="650.830078" xlink:href="#DejaVuSans-32"/>
     <use x="682.617188" xlink:href="#DejaVuSans-112"/>
     <use x="746.09375" xlink:href="#DejaVuSans-105"/>
     <use x="773.876953" xlink:href="#DejaVuSans-120"/>
     <use x="829.931641" xlink:href="#DejaVuSans-101"/>
     <use x="891.455078" xlink:href="#DejaVuSans-108"/>
     <use x="919.238281" xlink:href="#DejaVuSans-32"/>
     <use x="951.025391" xlink:href="#DejaVuSans-99"/>
     <use x="1006.005859" xlink:href="#DejaVuSans-111"/>
     <use x="1067.1875" xlink:href="#DejaVuSans-109"/>
     <use x="1164.599609" xlink:href="#DejaVuSans-112"/>
     <use x="1228.076172" xlink:href="#DejaVuSans-97"/>
     <use x="1289.355469" xlink:href="#DejaVuSans-114"/>
     <use x="1328.21875" xlink:href="#DejaVuSans-101"/>
     <use x="1389.742188" xlink:href="#DejaVuSans-100"/>
     <use x="1453.21875" xlink:href="#DejaVuSans-32"/>
     <use x="1485.005859" xlink:href="#DejaVuSans-116"/>
     <use x="1524.214844" xlink:href="#DejaVuSans-111"/>
     <use x="1585.396484" xlink:href="#DejaVuSans-32"/>
     <use x="1617.183594" xlink:href="#DejaVuSans-71"/>
     <use x="1694.673828" xlink:href="#DejaVuSans-97"/>
     <use x="1755.953125" xlink:href="#DejaVuSans-117"/>
     <use x="1819.332031" xlink:href="#DejaVuSans-115"/>
     <use x="1871.431641" xlink:href="#DejaVuSans-115"/>
     <use x="1923.53125" xlink:href="#DejaVuSans-105"/>
     <use x="1951.314453" xlink:href="#DejaVuSans-97"/>
     <use x="2012.59375" xlink:href="#DejaVuSans-110"/>
     <use x="2075.972656" xlink:href="#DejaVuSans-32"/>
     <use x="2107.759766" xlink:href="#DejaVuSans-109"/>
     <use x="2205.171875" xlink:href="#DejaVuSans-105"/>
     <use x="2232.955078" xlink:href="#DejaVuSans-120"/>
     <use x="2292.134766" xlink:href="#DejaVuSans-116"/>
     <use x="2331.34375" xlink:href="#DejaVuSans-117"/>
     <use x="2394.722656" xlink:href="#DejaVuSans-114"/>
     <use x="2433.585938" xlink:href="#DejaVuSans-101"/>
     <use x="2495.109375" xlink:href="#DejaVuSans-32"/>
     <use x="2526.896484" xlink:href="#DejaVuSans-80"/>
     <use x="2587.199219" xlink:href="#DejaVuSans-68"/>
     <use x="2664.201172" xlink:href="#DejaVuSans-70"/>
    </g>
   </g>
   <g id="legend_2">
    <g id="patch_13">
     <path d="M 796.114062 59.674375 
L 915.903125 59.674375 
Q 917.903125 59.674375 917.903125 57.674375 
L 917.903125 29.318125 
Q 917.903125 27.318125 915.903125 27.318125 
L 796.114062 27.318125 
Q 794.114062 27.318125 794.114062 29.318125 
L 794.114062 57.674375 
Q 794.114062 59.674375 796.114062 59.674375 
z
" style="fill:#ffffff;opacity:0.8;stroke:#cccccc;stroke-linejoin:miter;"/>
    </g>
    <g id="line2d_35">
     <path d="M 798.114062 35.416562 
L 818.114062 35.416562 
" style="fill:none;stroke:#1f77b4;stroke-linecap:square;stroke-width:1.5;"/>
    </g>
    <g id="line2d_36"/>
    <g id="text_31">
     <!-- Data -->
     <g transform="translate(826.114062 38.916562)scale(0.1 -0.1)">
      <use xlink:href="#DejaVuSans-68"/>
      <use x="77.001953" xlink:href="#DejaVuSans-97"/>
      <use x="138.28125" xlink:href="#DejaVuSans-116"/>
      <use x="177.490234" xlink:href="#DejaVuSans-97"/>
     </g>
    </g>
    <g id="line2d_37">
     <path d="M 798.114062 50.094688 
L 818.114062 50.094688 
" style="fill:none;stroke:#ff7f0e;stroke-linecap:square;stroke-width:1.5;"/>
    </g>
    <g id="line2d_38"/>
    <g id="text_32">
     <!-- Gaussian mixture -->
     <g transform="translate(826.114062 53.594688)scale(0.1 -0.1)">
      <use xlink:href="#DejaVuSans-71"/>
      <use x="77.490234" xlink:href="#DejaVuSans-97"/>
      <use x="138.769531" xlink:href="#DejaVuSans-117"/>
      <use x="202.148438" xlink:href="#DejaVuSans-115"/>
      <use x="254.248047" xlink:href="#DejaVuSans-115"/>
      <use x="306.347656" xlink:href="#DejaVuSans-105"/>
      <use x="334.130859" xlink:href="#DejaVuSans-97"/>
      <use x="395.410156" xlink:href="#DejaVuSans-110"/>
      <use x="458.789062" xlink:href="#DejaVuSans-32"/>
      <use x="490.576172" xlink:href="#DejaVuSans-109"/>
      <use x="587.988281" xlink:href="#DejaVuSans-105"/>
      <use x="615.771484" xlink:href="#DejaVuSans-120"/>
      <use x="674.951172" xlink:href="#DejaVuSans-116"/>
      <use x="714.160156" xlink:href="#DejaVuSans-117"/>
      <use x="777.539062" xlink:href="#DejaVuSans-114"/>
      <use x="816.402344" xlink:href="#DejaVuSans-101"/>
     </g>
    </g>
   </g>
  </g>
 </g>
 <defs>
  <clipPath id="p41bad99998">
   <rect height="271.8" width="405.818182" x="30.103125" y="22.318125"/>
  </clipPath>
  <clipPath id="p7d2b0d963c">
   <rect height="271.8" width="405.818182" x="517.084943" y="22.318125"/>
  </clipPath>
 </defs>
</svg>
