<?xml version="1.0" encoding="utf-8" standalone="no"?>
<!DOCTYPE svg PUBLIC "-//W3C//DTD SVG 1.1//EN"
  "http://www.w3.org/Graphics/SVG/1.1/DTD/svg11.dtd">
<!-- Created with matplotlib (https://matplotlib.org/) -->
<svg height="263.63625pt" version="1.1" viewBox="0 0 372.103125 263.63625" width="372.103125pt" xmlns="http://www.w3.org/2000/svg" xmlns:xlink="http://www.w3.org/1999/xlink">
 <defs>
  <style type="text/css">
*{stroke-linecap:butt;stroke-linejoin:round;}
  </style>
 </defs>
 <g id="figure_1">
  <g id="patch_1">
   <path d="M 0 263.63625 
L 372.103125 263.63625 
L 372.103125 0 
L 0 0 
z
" style="fill:none;"/>
  </g>
  <g id="axes_1">
   <g id="patch_2">
    <path d="M 30.103125 239.758125 
L 364.903125 239.758125 
L 364.903125 22.318125 
L 30.103125 22.318125 
z
" style="fill:#ffffff;"/>
   </g>
   <g id="matplotlib.axis_1">
    <g id="xtick_1">
     <g id="line2d_1">
      <defs>
       <path d="M 0 0 
L 0 3.5 
" id="m8af955046d" style="stroke:#000000;stroke-width:0.8;"/>
      </defs>
      <g>
       <use style="stroke:#000000;stroke-width:0.8;" x="88.662145" xlink:href="#m8af955046d" y="239.758125"/>
      </g>
     </g>
     <g id="text_1">
      <!-- 20 -->
      <defs>
       <path d="M 19.1875 8.296875 
L 53.609375 8.296875 
L 53.609375 0 
L 7.328125 0 
L 7.328125 8.296875 
Q 12.9375 14.109375 22.625 23.890625 
Q 32.328125 33.6875 34.8125 36.53125 
Q 39.546875 41.84375 41.421875 45.53125 
Q 43.3125 49.21875 43.3125 52.78125 
Q 43.3125 58.59375 39.234375 62.25 
Q 35.15625 65.921875 28.609375 65.921875 
Q 23.96875 65.921875 18.8125 64.3125 
Q 13.671875 62.703125 7.8125 59.421875 
L 7.8125 69.390625 
Q 13.765625 71.78125 18.9375 73 
Q 24.125 74.21875 28.421875 74.21875 
Q 39.75 74.21875 46.484375 68.546875 
Q 53.21875 62.890625 53.21875 53.421875 
Q 53.21875 48.921875 51.53125 44.890625 
Q 49.859375 40.875 45.40625 35.40625 
Q 44.1875 33.984375 37.640625 27.21875 
Q 31.109375 20.453125 19.1875 8.296875 
z
" id="DejaVuSans-50"/>
       <path d="M 31.78125 66.40625 
Q 24.171875 66.40625 20.328125 58.90625 
Q 16.5 51.421875 16.5 36.375 
Q 16.5 21.390625 20.328125 13.890625 
Q 24.171875 6.390625 31.78125 6.390625 
Q 39.453125 6.390625 43.28125 13.890625 
Q 47.125 21.390625 47.125 36.375 
Q 47.125 51.421875 43.28125 58.90625 
Q 39.453125 66.40625 31.78125 66.40625 
z
M 31.78125 74.21875 
Q 44.046875 74.21875 50.515625 64.515625 
Q 56.984375 54.828125 56.984375 36.375 
Q 56.984375 17.96875 50.515625 8.265625 
Q 44.046875 -1.421875 31.78125 -1.421875 
Q 19.53125 -1.421875 13.0625 8.265625 
Q 6.59375 17.96875 6.59375 36.375 
Q 6.59375 54.828125 13.0625 64.515625 
Q 19.53125 74.21875 31.78125 74.21875 
z
" id="DejaVuSans-48"/>
      </defs>
      <g transform="translate(82.299645 254.356563)scale(0.1 -0.1)">
       <use xlink:href="#DejaVuSans-50"/>
       <use x="63.623047" xlink:href="#DejaVuSans-48"/>
      </g>
     </g>
    </g>
    <g id="xtick_2">
     <g id="line2d_2">
      <g>
       <use style="stroke:#000000;stroke-width:0.8;" x="152.810187" xlink:href="#m8af955046d" y="239.758125"/>
      </g>
     </g>
     <g id="text_2">
      <!-- 40 -->
      <defs>
       <path d="M 37.796875 64.3125 
L 12.890625 25.390625 
L 37.796875 25.390625 
z
M 35.203125 72.90625 
L 47.609375 72.90625 
L 47.609375 25.390625 
L 58.015625 25.390625 
L 58.015625 17.1875 
L 47.609375 17.1875 
L 47.609375 0 
L 37.796875 0 
L 37.796875 17.1875 
L 4.890625 17.1875 
L 4.890625 26.703125 
z
" id="DejaVuSans-52"/>
      </defs>
      <g transform="translate(146.447687 254.356563)scale(0.1 -0.1)">
       <use xlink:href="#DejaVuSans-52"/>
       <use x="63.623047" xlink:href="#DejaVuSans-48"/>
      </g>
     </g>
    </g>
    <g id="xtick_3">
     <g id="line2d_3">
      <g>
       <use style="stroke:#000000;stroke-width:0.8;" x="216.958228" xlink:href="#m8af955046d" y="239.758125"/>
      </g>
     </g>
     <g id="text_3">
      <!-- 60 -->
      <defs>
       <path d="M 33.015625 40.375 
Q 26.375 40.375 22.484375 35.828125 
Q 18.609375 31.296875 18.609375 23.390625 
Q 18.609375 15.53125 22.484375 10.953125 
Q 26.375 6.390625 33.015625 6.390625 
Q 39.65625 6.390625 43.53125 10.953125 
Q 47.40625 15.53125 47.40625 23.390625 
Q 47.40625 31.296875 43.53125 35.828125 
Q 39.65625 40.375 33.015625 40.375 
z
M 52.59375 71.296875 
L 52.59375 62.3125 
Q 48.875 64.0625 45.09375 64.984375 
Q 41.3125 65.921875 37.59375 65.921875 
Q 27.828125 65.921875 22.671875 59.328125 
Q 17.53125 52.734375 16.796875 39.40625 
Q 19.671875 43.65625 24.015625 45.921875 
Q 28.375 48.1875 33.59375 48.1875 
Q 44.578125 48.1875 50.953125 41.515625 
Q 57.328125 34.859375 57.328125 23.390625 
Q 57.328125 12.15625 50.6875 5.359375 
Q 44.046875 -1.421875 33.015625 -1.421875 
Q 20.359375 -1.421875 13.671875 8.265625 
Q 6.984375 17.96875 6.984375 36.375 
Q 6.984375 53.65625 15.1875 63.9375 
Q 23.390625 74.21875 37.203125 74.21875 
Q 40.921875 74.21875 44.703125 73.484375 
Q 48.484375 72.75 52.59375 71.296875 
z
" id="DejaVuSans-54"/>
      </defs>
      <g transform="translate(210.595728 254.356563)scale(0.1 -0.1)">
       <use xlink:href="#DejaVuSans-54"/>
       <use x="63.623047" xlink:href="#DejaVuSans-48"/>
      </g>
     </g>
    </g>
    <g id="xtick_4">
     <g id="line2d_4">
      <g>
       <use style="stroke:#000000;stroke-width:0.8;" x="281.106269" xlink:href="#m8af955046d" y="239.758125"/>
      </g>
     </g>
     <g id="text_4">
      <!-- 80 -->
      <defs>
       <path d="M 31.78125 34.625 
Q 24.75 34.625 20.71875 30.859375 
Q 16.703125 27.09375 16.703125 20.515625 
Q 16.703125 13.921875 20.71875 10.15625 
Q 24.75 6.390625 31.78125 6.390625 
Q 38.8125 6.390625 42.859375 10.171875 
Q 46.921875 13.96875 46.921875 20.515625 
Q 46.921875 27.09375 42.890625 30.859375 
Q 38.875 34.625 31.78125 34.625 
z
M 21.921875 38.8125 
Q 15.578125 40.375 12.03125 44.71875 
Q 8.5 49.078125 8.5 55.328125 
Q 8.5 64.0625 14.71875 69.140625 
Q 20.953125 74.21875 31.78125 74.21875 
Q 42.671875 74.21875 48.875 69.140625 
Q 55.078125 64.0625 55.078125 55.328125 
Q 55.078125 49.078125 51.53125 44.71875 
Q 48 40.375 41.703125 38.8125 
Q 48.828125 37.15625 52.796875 32.3125 
Q 56.78125 27.484375 56.78125 20.515625 
Q 56.78125 9.90625 50.3125 4.234375 
Q 43.84375 -1.421875 31.78125 -1.421875 
Q 19.734375 -1.421875 13.25 4.234375 
Q 6.78125 9.90625 6.78125 20.515625 
Q 6.78125 27.484375 10.78125 32.3125 
Q 14.796875 37.15625 21.921875 38.8125 
z
M 18.3125 54.390625 
Q 18.3125 48.734375 21.84375 45.5625 
Q 25.390625 42.390625 31.78125 42.390625 
Q 38.140625 42.390625 41.71875 45.5625 
Q 45.3125 48.734375 45.3125 54.390625 
Q 45.3125 60.0625 41.71875 63.234375 
Q 38.140625 66.40625 31.78125 66.40625 
Q 25.390625 66.40625 21.84375 63.234375 
Q 18.3125 60.0625 18.3125 54.390625 
z
" id="DejaVuSans-56"/>
      </defs>
      <g transform="translate(274.743769 254.356563)scale(0.1 -0.1)">
       <use xlink:href="#DejaVuSans-56"/>
       <use x="63.623047" xlink:href="#DejaVuSans-48"/>
      </g>
     </g>
    </g>
    <g id="xtick_5">
     <g id="line2d_5">
      <g>
       <use style="stroke:#000000;stroke-width:0.8;" x="345.25431" xlink:href="#m8af955046d" y="239.758125"/>
      </g>
     </g>
     <g id="text_5">
      <!-- 100 -->
      <defs>
       <path d="M 12.40625 8.296875 
L 28.515625 8.296875 
L 28.515625 63.921875 
L 10.984375 60.40625 
L 10.984375 69.390625 
L 28.421875 72.90625 
L 38.28125 72.90625 
L 38.28125 8.296875 
L 54.390625 8.296875 
L 54.390625 0 
L 12.40625 0 
z
" id="DejaVuSans-49"/>
      </defs>
      <g transform="translate(335.71056 254.356563)scale(0.1 -0.1)">
       <use xlink:href="#DejaVuSans-49"/>
       <use x="63.623047" xlink:href="#DejaVuSans-48"/>
       <use x="127.246094" xlink:href="#DejaVuSans-48"/>
      </g>
     </g>
    </g>
   </g>
   <g id="matplotlib.axis_2">
    <g id="ytick_1">
     <g id="line2d_6">
      <defs>
       <path d="M 0 0 
L -3.5 0 
" id="mb4d8002a42" style="stroke:#000000;stroke-width:0.8;"/>
      </defs>
      <g>
       <use style="stroke:#000000;stroke-width:0.8;" x="30.103125" xlink:href="#mb4d8002a42" y="229.874489"/>
      </g>
     </g>
     <g id="text_6">
      <!-- 0.0 -->
      <defs>
       <path d="M 10.6875 12.40625 
L 21 12.40625 
L 21 0 
L 10.6875 0 
z
" id="DejaVuSans-46"/>
      </defs>
      <g transform="translate(7.2 233.673707)scale(0.1 -0.1)">
       <use xlink:href="#DejaVuSans-48"/>
       <use x="63.623047" xlink:href="#DejaVuSans-46"/>
       <use x="95.410156" xlink:href="#DejaVuSans-48"/>
      </g>
     </g>
    </g>
    <g id="ytick_2">
     <g id="line2d_7">
      <g>
       <use style="stroke:#000000;stroke-width:0.8;" x="30.103125" xlink:href="#mb4d8002a42" y="190.339943"/>
      </g>
     </g>
     <g id="text_7">
      <!-- 0.2 -->
      <g transform="translate(7.2 194.139162)scale(0.1 -0.1)">
       <use xlink:href="#DejaVuSans-48"/>
       <use x="63.623047" xlink:href="#DejaVuSans-46"/>
       <use x="95.410156" xlink:href="#DejaVuSans-50"/>
      </g>
     </g>
    </g>
    <g id="ytick_3">
     <g id="line2d_8">
      <g>
       <use style="stroke:#000000;stroke-width:0.8;" x="30.103125" xlink:href="#mb4d8002a42" y="150.805398"/>
      </g>
     </g>
     <g id="text_8">
      <!-- 0.4 -->
      <g transform="translate(7.2 154.604616)scale(0.1 -0.1)">
       <use xlink:href="#DejaVuSans-48"/>
       <use x="63.623047" xlink:href="#DejaVuSans-46"/>
       <use x="95.410156" xlink:href="#DejaVuSans-52"/>
      </g>
     </g>
    </g>
    <g id="ytick_4">
     <g id="line2d_9">
      <g>
       <use style="stroke:#000000;stroke-width:0.8;" x="30.103125" xlink:href="#mb4d8002a42" y="111.270852"/>
      </g>
     </g>
     <g id="text_9">
      <!-- 0.6 -->
      <g transform="translate(7.2 115.070071)scale(0.1 -0.1)">
       <use xlink:href="#DejaVuSans-48"/>
       <use x="63.623047" xlink:href="#DejaVuSans-46"/>
       <use x="95.410156" xlink:href="#DejaVuSans-54"/>
      </g>
     </g>
    </g>
    <g id="ytick_5">
     <g id="line2d_10">
      <g>
       <use style="stroke:#000000;stroke-width:0.8;" x="30.103125" xlink:href="#mb4d8002a42" y="71.736307"/>
      </g>
     </g>
     <g id="text_10">
      <!-- 0.8 -->
      <g transform="translate(7.2 75.535526)scale(0.1 -0.1)">
       <use xlink:href="#DejaVuSans-48"/>
       <use x="63.623047" xlink:href="#DejaVuSans-46"/>
       <use x="95.410156" xlink:href="#DejaVuSans-56"/>
      </g>
     </g>
    </g>
    <g id="ytick_6">
     <g id="line2d_11">
      <g>
       <use style="stroke:#000000;stroke-width:0.8;" x="30.103125" xlink:href="#mb4d8002a42" y="32.201761"/>
      </g>
     </g>
     <g id="text_11">
      <!-- 1.0 -->
      <g transform="translate(7.2 36.00098)scale(0.1 -0.1)">
       <use xlink:href="#DejaVuSans-49"/>
       <use x="63.623047" xlink:href="#DejaVuSans-46"/>
       <use x="95.410156" xlink:href="#DejaVuSans-48"/>
      </g>
     </g>
    </g>
   </g>
   <g id="line2d_12">
    <path clip-path="url(#p107ce7f52c)" d="M 45.321307 229.874489 
L 52.394774 229.74741 
L 52.411138 229.737997 
L 55.098974 229.596799 
L 55.622631 229.545026 
L 58.330922 229.281456 
L 59.300507 229.144965 
L 60.351913 229.003767 
L 61.251949 228.829622 
L 63.710685 228.23659 
L 64.582083 227.9589 
L 64.688451 227.897714 
L 65.793041 227.530599 
L 66.013959 227.43176 
L 66.85263 227.125831 
L 67.057183 227.050525 
L 67.458109 226.819902 
L 67.699482 226.69753 
L 68.055405 226.542212 
L 68.288597 226.43396 
L 69.057718 226.024485 
L 69.168177 225.968006 
L 69.610013 225.727969 
L 69.720472 225.67149 
L 73.357437 223.454679 
L 73.463805 223.388786 
L 73.807455 223.209935 
L 73.917914 223.139336 
L 74.372024 222.781634 
L 74.629761 222.612196 
L 74.74022 222.555717 
L 75.04296 222.35804 
L 75.227058 222.202722 
L 75.562526 221.972098 
L 75.922541 221.755594 
L 76.033 221.670875 
L 76.401196 221.397892 
L 76.548475 221.266107 
L 76.654843 221.186095 
L 77.153954 220.771913 
L 77.264413 220.696608 
L 77.743069 220.310666 
L 77.943531 220.117695 
L 78.041717 220.00003 
L 78.254453 219.849419 
L 79.064486 219.072829 
L 79.293586 218.893978 
L 79.723149 218.559809 
L 79.862245 218.390371 
L 80.68046 217.613781 
L 81.077294 217.260786 
L 81.187753 217.194893 
L 81.891418 216.550088 
L 81.993695 216.39477 
L 82.09188 216.295932 
L 82.222795 216.154733 
L 82.333254 216.051188 
L 82.578718 215.839391 
L 83.331476 215.128693 
L 83.507392 214.982789 
L 84.91063 213.203692 
L 85.016998 213.071907 
L 85.21337 212.878936 
L 85.315647 212.780097 
L 85.462925 212.605953 
L 85.565202 212.530647 
L 85.716572 212.356503 
L 86.677974 211.085719 
L 86.77616 211.019827 
L 86.915257 210.864509 
L 89.963107 207.193356 
L 90.073566 207.038038 
L 90.834506 205.997879 
L 90.944965 205.861387 
L 91.669085 204.863587 
L 91.775453 204.694149 
L 91.906367 204.491765 
L 92.483209 203.663402 
L 92.593668 203.489258 
L 93.125507 202.712668 
L 93.235966 202.576176 
L 93.849627 201.705454 
L 93.955995 201.53131 
L 94.062363 201.343046 
L 94.172822 201.187728 
L 94.328283 200.971224 
L 94.827394 200.232287 
L 94.937853 200.048729 
L 95.363325 199.394511 
L 95.469693 199.18742 
L 95.563787 199.008569 
L 95.674246 198.857958 
L 95.99335 198.326112 
L 96.103809 198.095488 
L 96.357456 197.638947 
L 96.467915 197.469509 
L 96.590647 197.271832 
L 96.889295 196.763518 
L 96.999754 196.532895 
L 97.21249 196.12342 
L 97.322949 195.953982 
L 97.474319 195.615107 
L 97.584778 195.440962 
L 97.871153 194.946769 
L 97.977521 194.772624 
L 98.079798 194.617306 
L 98.190257 194.438455 
L 98.533907 193.878369 
L 98.636184 193.675985 
L 98.746643 193.515961 
L 98.857102 193.351229 
L 99.065747 192.946461 
L 99.176206 192.777024 
L 99.245754 192.612292 
L 99.356213 192.447561 
L 99.646679 191.948661 
L 99.757138 191.675678 
L 100.023058 191.205017 
L 100.129426 190.988513 
L 100.243976 190.795543 
L 100.354435 190.517853 
L 100.567171 190.108378 
L 100.67763 189.905994 
L 100.964005 189.411801 
L 101.074464 189.20471 
L 101.160377 189.030566 
L 101.266745 188.823475 
L 101.397659 188.621091 
L 101.504027 188.423413 
L 101.589939 188.286922 
L 101.700398 188.098658 
L 101.790402 187.919807 
L 101.962227 187.557398 
L 102.072686 187.364427 
L 102.232238 187.016138 
L 102.342697 186.813754 
L 102.73544 186.197189 
L 102.845899 185.985392 
L 103.222278 185.387653 
L 103.332737 185.157029 
L 103.435014 184.973472 
L 103.545473 184.80874 
L 103.643659 184.625183 
L 103.979127 184.07451 
L 104.089586 183.843886 
L 104.437327 183.279094 
L 104.547786 183.029643 
L 104.809615 182.563689 
L 104.920074 182.328359 
L 105.034624 182.168335 
L 105.222813 181.7871 
L 105.333272 181.584716 
L 105.480551 181.372918 
L 105.586919 181.189361 
L 105.660558 181.019923 
L 105.771017 180.812832 
L 106.04921 180.328052 
L 106.159669 180.116255 
L 106.253764 179.937404 
L 106.364223 179.673834 
L 106.486955 179.476156 
L 106.593323 179.184347 
L 106.671053 179.014909 
L 106.781512 178.756046 
L 106.920609 178.43129 
L 107.031068 178.144187 
L 107.243804 177.734712 
L 107.354263 177.527622 
L 107.566999 177.118147 
L 107.677458 176.939296 
L 107.771552 176.760445 
L 107.882011 176.572181 
L 108.070201 176.190946 
L 108.18066 175.965028 
L 108.332029 175.626153 
L 108.442488 175.400236 
L 108.597949 175.056654 
L 108.708408 174.79779 
L 108.90478 174.407142 
L 109.015239 174.181225 
L 109.158426 173.851763 
L 109.268885 173.621139 
L 109.334343 173.456408 
L 109.575716 173.013987 
L 109.686175 172.821016 
L 109.788452 172.637458 
L 109.89482 172.430368 
L 109.960277 172.265636 
L 110.070736 172.072666 
L 110.303927 171.639658 
L 110.414386 171.319609 
L 110.578029 170.966613 
L 110.688488 170.698337 
L 110.807129 170.505366 
L 110.917588 170.279449 
L 111.199872 169.789962 
L 111.310331 169.498152 
L 111.53534 169.074558 
L 111.645799 168.867467 
L 111.752167 168.679203 
L 111.862626 168.410927 
L 111.944448 168.236782 
L 112.050816 167.982625 
L 112.161275 167.794361 
L 112.271734 167.493138 
L 112.578564 166.975412 
L 112.689023 166.740082 
L 112.832211 166.532991 
L 112.938579 166.335313 
L 113.0204 166.161169 
L 113.130859 165.916426 
L 113.257683 165.60579 
L 113.368142 165.379873 
L 113.597242 164.951571 
L 113.707701 164.692708 
L 113.867253 164.344419 
L 113.977712 164.085556 
L 114.186356 163.680788 
L 114.292724 163.412511 
L 114.39091 163.228954 
L 114.501369 163.003037 
L 114.701832 162.607682 
L 114.812291 162.400591 
L 114.88593 162.231153 
L 114.996389 161.976997 
L 115.172305 161.609881 
L 115.282764 161.336898 
L 115.450498 160.979196 
L 115.560957 160.772106 
L 115.691872 160.456763 
L 115.802331 160.136714 
L 115.933245 159.821371 
L 116.035522 159.557801 
L 116.125525 159.40719 
L 116.231893 159.148327 
L 116.346443 158.955356 
L 116.456902 158.724732 
L 116.632819 158.357617 
L 116.743278 158.10346 
L 116.931467 157.722225 
L 117.041926 157.468069 
L 117.136021 157.289218 
L 117.24648 156.997408 
L 117.32421 156.82797 
L 117.434669 156.59264 
L 117.491944 156.456148 
L 117.602403 156.164339 
L 117.716953 155.867823 
L 117.827412 155.670145 
L 117.888778 155.510121 
L 117.999237 155.218311 
L 118.109696 154.926502 
L 118.220155 154.728824 
L 118.346979 154.418188 
L 118.457438 154.093432 
L 118.596534 153.768677 
L 118.706993 153.570999 
L 118.952458 153.123872 
L 119.062917 152.879128 
L 119.214286 152.667331 
L 119.324745 152.46024 
L 119.406567 152.286096 
L 119.557937 151.94722 
L 119.664305 151.758956 
L 119.746126 151.584812 
L 119.856585 151.368308 
L 119.946589 151.189457 
L 120.081594 150.869408 
L 120.192053 150.596424 
L 120.380242 150.215189 
L 120.48661 149.9375 
L 120.56025 149.768062 
L 120.662527 149.485666 
L 120.772986 149.193856 
L 120.932537 148.845567 
L 121.042996 148.586704 
L 121.194366 148.247828 
L 121.304825 147.988965 
L 121.51347 147.584197 
L 121.623929 147.306507 
L 121.791663 146.948805 
L 121.902122 146.689942 
L 122.037127 146.369893 
L 122.147586 146.139269 
L 122.368504 145.720381 
L 122.478963 145.499171 
L 122.663062 145.122642 
L 122.773521 144.910845 
L 122.859433 144.736701 
L 122.969892 144.539023 
L 123.231721 144.073069 
L 123.34218 143.922458 
L 123.448548 143.635355 
L 123.559007 143.423558 
L 123.702195 143.094095 
L 123.812654 142.905831 
L 124.004934 142.519889 
L 124.115393 142.204547 
L 124.319947 141.804485 
L 124.430406 141.526796 
L 124.639051 141.122027 
L 124.74951 140.834924 
L 124.814967 140.670193 
L 124.925426 140.378384 
L 125.09316 140.020682 
L 125.203619 139.794765 
L 125.383626 139.422943 
L 125.494085 139.182906 
L 125.661819 138.825204 
L 125.772278 138.589874 
L 125.923648 138.250998 
L 126.030016 137.973308 
L 126.128202 137.789751 
L 126.234569 137.549714 
L 126.316391 137.375569 
L 126.459579 137.046107 
L 126.570038 136.730764 
L 126.69277 136.424835 
L 126.803229 136.07184 
L 126.95869 135.728257 
L 127.069149 135.497634 
L 127.290067 135.078746 
L 127.396434 134.819883 
L 127.502802 134.631618 
L 127.613261 134.377462 
L 127.690992 134.208024 
L 127.801451 133.902094 
L 127.891454 133.723243 
L 128.001913 133.525566 
L 128.153283 133.18669 
L 128.259651 132.95136 
L 128.349655 132.772509 
L 128.460114 132.565419 
L 128.603301 132.235956 
L 128.71376 131.934733 
L 128.82831 131.638217 
L 128.938769 131.379354 
L 129.135141 130.988706 
L 129.237418 130.66395 
L 129.335604 130.508632 
L 129.523793 130.127397 
L 129.634252 129.920306 
L 129.736529 129.63791 
L 129.846988 129.449646 
L 129.998358 129.11077 
L 130.108817 128.814254 
L 130.247913 128.489498 
L 130.358372 128.221222 
L 130.477013 127.919999 
L 130.587472 127.661136 
L 130.783844 127.270487 
L 130.894303 126.978678 
L 131.025217 126.663335 
L 131.135676 126.376232 
L 131.307501 126.013824 
L 131.41796 125.722014 
L 131.536601 125.420791 
L 131.64706 125.147808 
L 131.749337 124.865412 
L 131.859796 124.625375 
L 131.982528 124.427697 
L 132.092987 124.150008 
L 132.219811 123.839372 
L 132.33027 123.556975 
L 132.48164 123.2181 
L 132.592099 122.935704 
L 132.780288 122.554468 
L 132.890747 122.229713 
L 132.988933 121.952023 
L 133.095301 121.660213 
L 133.185304 121.481362 
L 133.455315 121.005995 
L 133.565774 120.742425 
L 133.749872 120.365897 
L 133.860331 120.107034 
L 134.126251 119.636373 
L 134.23671 119.396336 
L 134.416718 119.024514 
L 134.527177 118.817424 
L 134.735821 118.412656 
L 134.842189 118.177325 
L 134.948557 117.989061 
L 135.059016 117.78197 
L 135.267661 117.377202 
L 135.37812 117.113632 
L 135.513125 116.793583 
L 135.623584 116.610026 
L 135.824047 116.214671 
L 135.934506 115.984047 
L 136.159515 115.560453 
L 136.269974 115.278056 
L 136.458164 114.896821 
L 136.568623 114.600305 
L 136.695446 114.289669 
L 136.805905 114.044926 
L 136.932728 113.73429 
L 137.039096 113.550732 
L 137.096371 113.390707 
L 137.20683 113.150671 
L 137.296834 112.97182 
L 137.497296 112.576465 
L 137.607755 112.355254 
L 137.681395 112.185816 
L 137.804127 111.879887 
L 137.914586 111.691623 
L 138.070047 111.348041 
L 138.180506 111.14095 
L 138.417788 110.703236 
L 138.528247 110.524385 
L 138.732801 110.124323 
L 138.84326 109.856047 
L 138.92099 109.710142 
L 139.023267 109.554824 
L 139.100997 109.408919 
L 139.211456 109.192415 
L 139.420101 108.787647 
L 139.53056 108.54761 
L 139.583744 108.392292 
L 139.694203 108.166375 
L 139.849664 107.822793 
L 139.960123 107.662768 
L 140.168768 107.258 
L 140.279227 107.00855 
L 140.36923 106.829699 
L 140.475598 106.603782 
L 140.561511 106.429638 
L 140.67197 106.222547 
L 140.925616 105.766006 
L 141.031984 105.535383 
L 141.154717 105.337705 
L 141.265176 105.003536 
L 141.363361 104.848218 
L 141.490185 104.537582 
L 141.600644 104.297545 
L 141.719285 104.104575 
L 141.829744 103.869244 
L 142.054753 103.44565 
L 142.165212 103.243266 
L 142.226578 103.083241 
L 142.337037 102.843204 
L 142.574319 102.40549 
L 142.684778 102.151333 
L 142.836148 101.812458 
L 142.946607 101.610074 
L 143.179798 101.177066 
L 143.290257 100.857017 
L 143.515266 100.433422 
L 143.625725 100.198092 
L 143.965284 99.642713 
L 144.075743 99.383849 
L 144.353936 98.899069 
L 144.464395 98.649619 
L 144.701678 98.211904 
L 144.812137 97.962454 
L 145.049419 97.52474 
L 145.159878 97.294116 
L 145.249882 97.115265 
L 145.581259 96.569299 
L 145.691718 96.268076 
L 145.998548 95.75035 
L 146.109007 95.467953 
L 146.223557 95.274983 
L 146.334016 95.030239 
L 146.57539 94.587818 
L 146.685849 94.338368 
L 146.898584 93.928893 
L 147.009043 93.735923 
L 147.197233 93.354688 
L 147.307692 93.119357 
L 147.696344 92.507499 
L 147.806803 92.267462 
L 148.06045 91.810921 
L 148.170909 91.61795 
L 148.297732 91.420273 
L 148.408191 91.166116 
L 148.661837 90.709575 
L 148.772296 90.460125 
L 149.173222 89.834147 
L 149.27959 89.608229 
L 149.385958 89.419965 
L 149.733699 88.855173 
L 149.840067 88.633962 
L 149.979163 88.426871 
L 150.089622 88.24802 
L 150.318722 87.819719 
L 150.429181 87.607922 
L 150.719648 87.109022 
L 150.826016 86.854865 
L 150.989659 86.633655 
L 151.321036 86.087689 
L 151.431495 85.838238 
L 151.807873 85.2405 
L 151.918332 85.056942 
L 152.012427 84.878091 
L 152.122886 84.628641 
L 152.470627 84.063848 
L 152.581086 83.93677 
L 152.662908 83.762625 
L 152.990194 83.221366 
L 153.100653 83.047221 
L 153.411574 82.524788 
L 153.517942 82.374177 
L 153.644766 82.176499 
L 153.755225 81.969409 
L 153.861593 81.781144 
L 154.327975 81.07986 
L 154.438434 80.905716 
L 154.786175 80.340923 
L 154.896634 80.199725 
L 155.506204 79.33371 
L 155.612572 79.168978 
L 155.723031 79.023074 
L 155.83349 78.858342 
L 156.173049 78.302963 
L 156.283508 78.119405 
L 156.872623 77.276923 
L 156.978991 77.135725 
L 157.097632 76.9757 
L 157.208091 76.806262 
L 157.31855 76.646238 
L 157.429009 76.4768 
L 158.320863 75.286029 
L 158.431322 75.078938 
L 158.664513 74.64593 
L 158.774972 74.481199 
L 159.130896 73.906993 
L 159.241355 73.718729 
L 159.351814 73.572824 
L 160.108663 72.537371 
L 160.210939 72.382053 
L 160.419584 72.184376 
L 160.51777 72.066711 
L 160.607774 71.934926 
L 160.705959 71.765488 
L 160.804145 71.62429 
L 161.728728 70.395866 
L 161.839187 70.2782 
L 162.424211 69.440425 
L 162.530578 69.332173 
L 162.620582 69.190975 
L 162.792407 69.007417 
L 162.902866 68.828566 
L 166.531649 64.489076 
L 166.638017 64.314931 
L 166.850753 64.065481 
L 171.60049 58.74231 
L 171.75595 58.605819 
L 171.919593 58.384608 
L 172.030052 58.248117 
L 172.81963 57.504473 
L 172.991455 57.339742 
L 173.907855 56.436073 
L 174.030588 56.294875 
L 174.136956 56.17721 
L 174.3456 56.003066 
L 174.451968 55.890107 
L 174.787436 55.570058 
L 174.897895 55.490046 
L 176.317498 54.016878 
L 176.493414 53.833321 
L 177.274809 53.09909 
L 177.65937 52.750801 
L 177.769829 52.647256 
L 177.92529 52.487231 
L 178.424401 52.063637 
L 178.57168 51.922439 
L 178.91533 51.672989 
L 179.377621 51.29646 
L 179.598539 51.141142 
L 180.093559 50.736374 
L 180.613126 50.421032 
L 180.977231 50.162168 
L 181.20224 49.983317 
L 181.721807 49.550309 
L 182.057275 49.305566 
L 182.167734 49.211434 
L 182.601388 48.929038 
L 183.022768 48.604282 
L 183.37051 48.354832 
L 183.824619 47.99713 
L 184.192816 47.775919 
L 185.231948 47.051102 
L 185.493777 46.891077 
L 185.804699 46.754586 
L 186.017435 46.594561 
L 186.30381 46.425123 
L 186.528819 46.269805 
L 186.635187 46.18038 
L 187.093387 45.88857 
L 187.203846 45.827384 
L 187.535223 45.606174 
L 187.846145 45.40379 
L 188.177522 45.187286 
L 188.586629 44.956662 
L 188.697088 44.895477 
L 192.145864 43.031661 
L 192.395419 42.881049 
L 192.604064 42.79633 
L 193.017262 42.565707 
L 193.119539 42.509228 
L 193.46728 42.33979 
L 193.626832 42.278604 
L 193.868206 42.146819 
L 194.052304 42.09034 
L 194.37959 41.939728 
L 194.490049 41.855009 
L 194.678238 41.793824 
L 195.312355 41.57732 
L 195.418723 41.487894 
L 201.420328 39.294616 
L 202.132175 39.101645 
L 203.531323 38.678051 
L 204.226805 38.508613 
L 204.89365 38.24975 
L 205.797778 37.9297 
L 206.104608 37.835568 
L 206.64463 37.699077 
L 216.115466 35.62817 
L 217.105506 35.454026 
L 218.90967 35.204576 
L 223.205298 34.64449 
L 223.340303 34.625663 
L 225.790857 34.362093 
L 225.901316 34.32444 
L 226.163144 34.291494 
L 231.195165 33.769061 
L 231.624728 33.712582 
L 235.981722 33.425479 
L 235.981722 33.420772 
L 237.679518 33.270161 
L 239.692326 33.119549 
L 242.867 32.978351 
L 250.652314 32.667715 
L 262.230053 32.446505 
L 271.619068 32.319427 
L 305.90636 32.211175 
L 349.684943 32.201761 
L 349.684943 32.201761 
" style="fill:none;stroke:#1f77b4;stroke-linecap:square;stroke-width:1.5;"/>
   </g>
   <g id="line2d_13">
    <path clip-path="url(#p107ce7f52c)" d="M 45.321307 228.37845 
L 48.395687 227.981832 
L 51.470067 227.4962 
L 54.544447 226.906005 
L 57.618827 226.194075 
L 60.693208 225.341695 
L 63.767588 224.32876 
L 66.841968 223.133989 
L 69.916348 221.735238 
L 72.990728 220.109876 
L 76.065108 218.235255 
L 79.139489 216.089252 
L 82.213869 213.650877 
L 85.288249 210.900929 
L 88.362629 207.822694 
L 91.437009 204.40264 
L 94.511389 200.631111 
L 97.58577 196.502959 
L 100.66015 192.018115 
L 103.73453 187.182045 
L 106.80891 182.00608 
L 109.88329 176.507586 
L 112.95767 170.709967 
L 116.032051 164.642475 
L 119.106431 158.339839 
L 122.180811 151.841703 
L 125.255191 145.191896 
L 128.329571 138.437559 
L 131.403951 131.628141 
L 134.478332 124.814317 
L 137.552712 118.046864 
L 140.627092 111.375522 
L 143.701472 104.847903 
L 146.775852 98.508478 
L 149.850232 92.397672 
L 152.924613 86.551108 
L 155.998993 80.999018 
L 159.073373 75.765837 
L 162.147753 70.86998 
L 165.222133 66.323816 
L 168.296513 62.133805 
L 171.370894 58.300806 
L 174.445274 54.820513 
L 177.519654 51.684005 
L 180.594034 48.878373 
L 183.668414 46.387402 
L 186.742794 44.192274 
L 189.817175 42.272258 
L 192.891555 40.605382 
L 195.965935 39.169049 
L 199.040315 37.940589 
L 202.114695 36.897744 
L 205.189075 36.01906 
L 208.263456 35.284209 
L 211.337836 34.674225 
L 214.412216 34.17166 
L 217.486596 33.760681 
L 220.560976 33.427102 
L 223.635356 33.158361 
L 226.709737 32.943468 
L 229.784117 32.772914 
L 232.858497 32.638558 
L 235.932877 32.533506 
L 239.007257 32.451978 
L 242.081637 32.389177 
L 245.156018 32.341163 
L 248.230398 32.304727 
L 251.304778 32.277283 
L 254.379158 32.256765 
L 257.453538 32.241541 
L 260.527918 32.230328 
L 263.602299 32.222131 
L 266.676679 32.216184 
L 269.751059 32.2119 
L 272.825439 32.208839 
L 275.899819 32.206666 
L 278.974199 32.205137 
L 282.04858 32.204068 
L 285.12296 32.203326 
L 288.19734 32.202815 
L 291.27172 32.202466 
L 294.3461 32.202229 
L 297.42048 32.20207 
L 300.494861 32.201963 
L 303.569241 32.201892 
L 306.643621 32.201846 
L 309.718001 32.201816 
L 312.792381 32.201796 
L 315.866761 32.201783 
L 318.941142 32.201775 
L 322.015522 32.20177 
L 325.089902 32.201767 
L 328.164282 32.201765 
L 331.238662 32.201763 
L 334.313042 32.201763 
L 337.387423 32.201762 
L 340.461803 32.201762 
L 343.536183 32.201762 
L 346.610563 32.201762 
L 349.684943 32.201761 
" style="fill:none;stroke:#ff7f0e;stroke-linecap:square;stroke-width:1.5;"/>
   </g>
   <g id="patch_3">
    <path d="M 30.103125 239.758125 
L 30.103125 22.318125 
" style="fill:none;stroke:#000000;stroke-linecap:square;stroke-linejoin:miter;stroke-width:0.8;"/>
   </g>
   <g id="patch_4">
    <path d="M 364.903125 239.758125 
L 364.903125 22.318125 
" style="fill:none;stroke:#000000;stroke-linecap:square;stroke-linejoin:miter;stroke-width:0.8;"/>
   </g>
   <g id="patch_5">
    <path d="M 30.103125 239.758125 
L 364.903125 239.758125 
" style="fill:none;stroke:#000000;stroke-linecap:square;stroke-linejoin:miter;stroke-width:0.8;"/>
   </g>
   <g id="patch_6">
    <path d="M 30.103125 22.318125 
L 364.903125 22.318125 
" style="fill:none;stroke:#000000;stroke-linecap:square;stroke-linejoin:miter;stroke-width:0.8;"/>
   </g>
   <g id="text_12">
    <!-- CDF of Mean brightness compared to normal CDF -->
    <defs>
     <path d="M 64.40625 67.28125 
L 64.40625 56.890625 
Q 59.421875 61.53125 53.78125 63.8125 
Q 48.140625 66.109375 41.796875 66.109375 
Q 29.296875 66.109375 22.65625 58.46875 
Q 16.015625 50.828125 16.015625 36.375 
Q 16.015625 21.96875 22.65625 14.328125 
Q 29.296875 6.6875 41.796875 6.6875 
Q 48.140625 6.6875 53.78125 8.984375 
Q 59.421875 11.28125 64.40625 15.921875 
L 64.40625 5.609375 
Q 59.234375 2.09375 53.4375 0.328125 
Q 47.65625 -1.421875 41.21875 -1.421875 
Q 24.65625 -1.421875 15.125 8.703125 
Q 5.609375 18.84375 5.609375 36.375 
Q 5.609375 53.953125 15.125 64.078125 
Q 24.65625 74.21875 41.21875 74.21875 
Q 47.75 74.21875 53.53125 72.484375 
Q 59.328125 70.75 64.40625 67.28125 
z
" id="DejaVuSans-67"/>
     <path d="M 19.671875 64.796875 
L 19.671875 8.109375 
L 31.59375 8.109375 
Q 46.6875 8.109375 53.6875 14.9375 
Q 60.6875 21.78125 60.6875 36.53125 
Q 60.6875 51.171875 53.6875 57.984375 
Q 46.6875 64.796875 31.59375 64.796875 
z
M 9.8125 72.90625 
L 30.078125 72.90625 
Q 51.265625 72.90625 61.171875 64.09375 
Q 71.09375 55.28125 71.09375 36.53125 
Q 71.09375 17.671875 61.125 8.828125 
Q 51.171875 0 30.078125 0 
L 9.8125 0 
z
" id="DejaVuSans-68"/>
     <path d="M 9.8125 72.90625 
L 51.703125 72.90625 
L 51.703125 64.59375 
L 19.671875 64.59375 
L 19.671875 43.109375 
L 48.578125 43.109375 
L 48.578125 34.8125 
L 19.671875 34.8125 
L 19.671875 0 
L 9.8125 0 
z
" id="DejaVuSans-70"/>
     <path id="DejaVuSans-32"/>
     <path d="M 30.609375 48.390625 
Q 23.390625 48.390625 19.1875 42.75 
Q 14.984375 37.109375 14.984375 27.296875 
Q 14.984375 17.484375 19.15625 11.84375 
Q 23.34375 6.203125 30.609375 6.203125 
Q 37.796875 6.203125 41.984375 11.859375 
Q 46.1875 17.53125 46.1875 27.296875 
Q 46.1875 37.015625 41.984375 42.703125 
Q 37.796875 48.390625 30.609375 48.390625 
z
M 30.609375 56 
Q 42.328125 56 49.015625 48.375 
Q 55.71875 40.765625 55.71875 27.296875 
Q 55.71875 13.875 49.015625 6.21875 
Q 42.328125 -1.421875 30.609375 -1.421875 
Q 18.84375 -1.421875 12.171875 6.21875 
Q 5.515625 13.875 5.515625 27.296875 
Q 5.515625 40.765625 12.171875 48.375 
Q 18.84375 56 30.609375 56 
z
" id="DejaVuSans-111"/>
     <path d="M 37.109375 75.984375 
L 37.109375 68.5 
L 28.515625 68.5 
Q 23.6875 68.5 21.796875 66.546875 
Q 19.921875 64.59375 19.921875 59.515625 
L 19.921875 54.6875 
L 34.71875 54.6875 
L 34.71875 47.703125 
L 19.921875 47.703125 
L 19.921875 0 
L 10.890625 0 
L 10.890625 47.703125 
L 2.296875 47.703125 
L 2.296875 54.6875 
L 10.890625 54.6875 
L 10.890625 58.5 
Q 10.890625 67.625 15.140625 71.796875 
Q 19.390625 75.984375 28.609375 75.984375 
z
" id="DejaVuSans-102"/>
     <path d="M 9.8125 72.90625 
L 24.515625 72.90625 
L 43.109375 23.296875 
L 61.8125 72.90625 
L 76.515625 72.90625 
L 76.515625 0 
L 66.890625 0 
L 66.890625 64.015625 
L 48.09375 14.015625 
L 38.1875 14.015625 
L 19.390625 64.015625 
L 19.390625 0 
L 9.8125 0 
z
" id="DejaVuSans-77"/>
     <path d="M 56.203125 29.59375 
L 56.203125 25.203125 
L 14.890625 25.203125 
Q 15.484375 15.921875 20.484375 11.0625 
Q 25.484375 6.203125 34.421875 6.203125 
Q 39.59375 6.203125 44.453125 7.46875 
Q 49.3125 8.734375 54.109375 11.28125 
L 54.109375 2.78125 
Q 49.265625 0.734375 44.1875 -0.34375 
Q 39.109375 -1.421875 33.890625 -1.421875 
Q 20.796875 -1.421875 13.15625 6.1875 
Q 5.515625 13.8125 5.515625 26.8125 
Q 5.515625 40.234375 12.765625 48.109375 
Q 20.015625 56 32.328125 56 
Q 43.359375 56 49.78125 48.890625 
Q 56.203125 41.796875 56.203125 29.59375 
z
M 47.21875 32.234375 
Q 47.125 39.59375 43.09375 43.984375 
Q 39.0625 48.390625 32.421875 48.390625 
Q 24.90625 48.390625 20.390625 44.140625 
Q 15.875 39.890625 15.1875 32.171875 
z
" id="DejaVuSans-101"/>
     <path d="M 34.28125 27.484375 
Q 23.390625 27.484375 19.1875 25 
Q 14.984375 22.515625 14.984375 16.5 
Q 14.984375 11.71875 18.140625 8.90625 
Q 21.296875 6.109375 26.703125 6.109375 
Q 34.1875 6.109375 38.703125 11.40625 
Q 43.21875 16.703125 43.21875 25.484375 
L 43.21875 27.484375 
z
M 52.203125 31.203125 
L 52.203125 0 
L 43.21875 0 
L 43.21875 8.296875 
Q 40.140625 3.328125 35.546875 0.953125 
Q 30.953125 -1.421875 24.3125 -1.421875 
Q 15.921875 -1.421875 10.953125 3.296875 
Q 6 8.015625 6 15.921875 
Q 6 25.140625 12.171875 29.828125 
Q 18.359375 34.515625 30.609375 34.515625 
L 43.21875 34.515625 
L 43.21875 35.40625 
Q 43.21875 41.609375 39.140625 45 
Q 35.0625 48.390625 27.6875 48.390625 
Q 23 48.390625 18.546875 47.265625 
Q 14.109375 46.140625 10.015625 43.890625 
L 10.015625 52.203125 
Q 14.9375 54.109375 19.578125 55.046875 
Q 24.21875 56 28.609375 56 
Q 40.484375 56 46.34375 49.84375 
Q 52.203125 43.703125 52.203125 31.203125 
z
" id="DejaVuSans-97"/>
     <path d="M 54.890625 33.015625 
L 54.890625 0 
L 45.90625 0 
L 45.90625 32.71875 
Q 45.90625 40.484375 42.875 44.328125 
Q 39.84375 48.1875 33.796875 48.1875 
Q 26.515625 48.1875 22.3125 43.546875 
Q 18.109375 38.921875 18.109375 30.90625 
L 18.109375 0 
L 9.078125 0 
L 9.078125 54.6875 
L 18.109375 54.6875 
L 18.109375 46.1875 
Q 21.34375 51.125 25.703125 53.5625 
Q 30.078125 56 35.796875 56 
Q 45.21875 56 50.046875 50.171875 
Q 54.890625 44.34375 54.890625 33.015625 
z
" id="DejaVuSans-110"/>
     <path d="M 48.6875 27.296875 
Q 48.6875 37.203125 44.609375 42.84375 
Q 40.53125 48.484375 33.40625 48.484375 
Q 26.265625 48.484375 22.1875 42.84375 
Q 18.109375 37.203125 18.109375 27.296875 
Q 18.109375 17.390625 22.1875 11.75 
Q 26.265625 6.109375 33.40625 6.109375 
Q 40.53125 6.109375 44.609375 11.75 
Q 48.6875 17.390625 48.6875 27.296875 
z
M 18.109375 46.390625 
Q 20.953125 51.265625 25.265625 53.625 
Q 29.59375 56 35.59375 56 
Q 45.5625 56 51.78125 48.09375 
Q 58.015625 40.1875 58.015625 27.296875 
Q 58.015625 14.40625 51.78125 6.484375 
Q 45.5625 -1.421875 35.59375 -1.421875 
Q 29.59375 -1.421875 25.265625 0.953125 
Q 20.953125 3.328125 18.109375 8.203125 
L 18.109375 0 
L 9.078125 0 
L 9.078125 75.984375 
L 18.109375 75.984375 
z
" id="DejaVuSans-98"/>
     <path d="M 41.109375 46.296875 
Q 39.59375 47.171875 37.8125 47.578125 
Q 36.03125 48 33.890625 48 
Q 26.265625 48 22.1875 43.046875 
Q 18.109375 38.09375 18.109375 28.8125 
L 18.109375 0 
L 9.078125 0 
L 9.078125 54.6875 
L 18.109375 54.6875 
L 18.109375 46.1875 
Q 20.953125 51.171875 25.484375 53.578125 
Q 30.03125 56 36.53125 56 
Q 37.453125 56 38.578125 55.875 
Q 39.703125 55.765625 41.0625 55.515625 
z
" id="DejaVuSans-114"/>
     <path d="M 9.421875 54.6875 
L 18.40625 54.6875 
L 18.40625 0 
L 9.421875 0 
z
M 9.421875 75.984375 
L 18.40625 75.984375 
L 18.40625 64.59375 
L 9.421875 64.59375 
z
" id="DejaVuSans-105"/>
     <path d="M 45.40625 27.984375 
Q 45.40625 37.75 41.375 43.109375 
Q 37.359375 48.484375 30.078125 48.484375 
Q 22.859375 48.484375 18.828125 43.109375 
Q 14.796875 37.75 14.796875 27.984375 
Q 14.796875 18.265625 18.828125 12.890625 
Q 22.859375 7.515625 30.078125 7.515625 
Q 37.359375 7.515625 41.375 12.890625 
Q 45.40625 18.265625 45.40625 27.984375 
z
M 54.390625 6.78125 
Q 54.390625 -7.171875 48.1875 -13.984375 
Q 42 -20.796875 29.203125 -20.796875 
Q 24.46875 -20.796875 20.265625 -20.09375 
Q 16.0625 -19.390625 12.109375 -17.921875 
L 12.109375 -9.1875 
Q 16.0625 -11.328125 19.921875 -12.34375 
Q 23.78125 -13.375 27.78125 -13.375 
Q 36.625 -13.375 41.015625 -8.765625 
Q 45.40625 -4.15625 45.40625 5.171875 
L 45.40625 9.625 
Q 42.625 4.78125 38.28125 2.390625 
Q 33.9375 0 27.875 0 
Q 17.828125 0 11.671875 7.65625 
Q 5.515625 15.328125 5.515625 27.984375 
Q 5.515625 40.671875 11.671875 48.328125 
Q 17.828125 56 27.875 56 
Q 33.9375 56 38.28125 53.609375 
Q 42.625 51.21875 45.40625 46.390625 
L 45.40625 54.6875 
L 54.390625 54.6875 
z
" id="DejaVuSans-103"/>
     <path d="M 54.890625 33.015625 
L 54.890625 0 
L 45.90625 0 
L 45.90625 32.71875 
Q 45.90625 40.484375 42.875 44.328125 
Q 39.84375 48.1875 33.796875 48.1875 
Q 26.515625 48.1875 22.3125 43.546875 
Q 18.109375 38.921875 18.109375 30.90625 
L 18.109375 0 
L 9.078125 0 
L 9.078125 75.984375 
L 18.109375 75.984375 
L 18.109375 46.1875 
Q 21.34375 51.125 25.703125 53.5625 
Q 30.078125 56 35.796875 56 
Q 45.21875 56 50.046875 50.171875 
Q 54.890625 44.34375 54.890625 33.015625 
z
" id="DejaVuSans-104"/>
     <path d="M 18.3125 70.21875 
L 18.3125 54.6875 
L 36.8125 54.6875 
L 36.8125 47.703125 
L 18.3125 47.703125 
L 18.3125 18.015625 
Q 18.3125 11.328125 20.140625 9.421875 
Q 21.96875 7.515625 27.59375 7.515625 
L 36.8125 7.515625 
L 36.8125 0 
L 27.59375 0 
Q 17.1875 0 13.234375 3.875 
Q 9.28125 7.765625 9.28125 18.015625 
L 9.28125 47.703125 
L 2.6875 47.703125 
L 2.6875 54.6875 
L 9.28125 54.6875 
L 9.28125 70.21875 
z
" id="DejaVuSans-116"/>
     <path d="M 44.28125 53.078125 
L 44.28125 44.578125 
Q 40.484375 46.53125 36.375 47.5 
Q 32.28125 48.484375 27.875 48.484375 
Q 21.1875 48.484375 17.84375 46.4375 
Q 14.5 44.390625 14.5 40.28125 
Q 14.5 37.15625 16.890625 35.375 
Q 19.28125 33.59375 26.515625 31.984375 
L 29.59375 31.296875 
Q 39.15625 29.25 43.1875 25.515625 
Q 47.21875 21.78125 47.21875 15.09375 
Q 47.21875 7.46875 41.1875 3.015625 
Q 35.15625 -1.421875 24.609375 -1.421875 
Q 20.21875 -1.421875 15.453125 -0.5625 
Q 10.6875 0.296875 5.421875 2 
L 5.421875 11.28125 
Q 10.40625 8.6875 15.234375 7.390625 
Q 20.0625 6.109375 24.8125 6.109375 
Q 31.15625 6.109375 34.5625 8.28125 
Q 37.984375 10.453125 37.984375 14.40625 
Q 37.984375 18.0625 35.515625 20.015625 
Q 33.0625 21.96875 24.703125 23.78125 
L 21.578125 24.515625 
Q 13.234375 26.265625 9.515625 29.90625 
Q 5.8125 33.546875 5.8125 39.890625 
Q 5.8125 47.609375 11.28125 51.796875 
Q 16.75 56 26.8125 56 
Q 31.78125 56 36.171875 55.265625 
Q 40.578125 54.546875 44.28125 53.078125 
z
" id="DejaVuSans-115"/>
     <path d="M 48.78125 52.59375 
L 48.78125 44.1875 
Q 44.96875 46.296875 41.140625 47.34375 
Q 37.3125 48.390625 33.40625 48.390625 
Q 24.65625 48.390625 19.8125 42.84375 
Q 14.984375 37.3125 14.984375 27.296875 
Q 14.984375 17.28125 19.8125 11.734375 
Q 24.65625 6.203125 33.40625 6.203125 
Q 37.3125 6.203125 41.140625 7.25 
Q 44.96875 8.296875 48.78125 10.40625 
L 48.78125 2.09375 
Q 45.015625 0.34375 40.984375 -0.53125 
Q 36.96875 -1.421875 32.421875 -1.421875 
Q 20.0625 -1.421875 12.78125 6.34375 
Q 5.515625 14.109375 5.515625 27.296875 
Q 5.515625 40.671875 12.859375 48.328125 
Q 20.21875 56 33.015625 56 
Q 37.15625 56 41.109375 55.140625 
Q 45.0625 54.296875 48.78125 52.59375 
z
" id="DejaVuSans-99"/>
     <path d="M 52 44.1875 
Q 55.375 50.25 60.0625 53.125 
Q 64.75 56 71.09375 56 
Q 79.640625 56 84.28125 50.015625 
Q 88.921875 44.046875 88.921875 33.015625 
L 88.921875 0 
L 79.890625 0 
L 79.890625 32.71875 
Q 79.890625 40.578125 77.09375 44.375 
Q 74.3125 48.1875 68.609375 48.1875 
Q 61.625 48.1875 57.5625 43.546875 
Q 53.515625 38.921875 53.515625 30.90625 
L 53.515625 0 
L 44.484375 0 
L 44.484375 32.71875 
Q 44.484375 40.625 41.703125 44.40625 
Q 38.921875 48.1875 33.109375 48.1875 
Q 26.21875 48.1875 22.15625 43.53125 
Q 18.109375 38.875 18.109375 30.90625 
L 18.109375 0 
L 9.078125 0 
L 9.078125 54.6875 
L 18.109375 54.6875 
L 18.109375 46.1875 
Q 21.1875 51.21875 25.484375 53.609375 
Q 29.78125 56 35.6875 56 
Q 41.65625 56 45.828125 52.96875 
Q 50 49.953125 52 44.1875 
z
" id="DejaVuSans-109"/>
     <path d="M 18.109375 8.203125 
L 18.109375 -20.796875 
L 9.078125 -20.796875 
L 9.078125 54.6875 
L 18.109375 54.6875 
L 18.109375 46.390625 
Q 20.953125 51.265625 25.265625 53.625 
Q 29.59375 56 35.59375 56 
Q 45.5625 56 51.78125 48.09375 
Q 58.015625 40.1875 58.015625 27.296875 
Q 58.015625 14.40625 51.78125 6.484375 
Q 45.5625 -1.421875 35.59375 -1.421875 
Q 29.59375 -1.421875 25.265625 0.953125 
Q 20.953125 3.328125 18.109375 8.203125 
z
M 48.6875 27.296875 
Q 48.6875 37.203125 44.609375 42.84375 
Q 40.53125 48.484375 33.40625 48.484375 
Q 26.265625 48.484375 22.1875 42.84375 
Q 18.109375 37.203125 18.109375 27.296875 
Q 18.109375 17.390625 22.1875 11.75 
Q 26.265625 6.109375 33.40625 6.109375 
Q 40.53125 6.109375 44.609375 11.75 
Q 48.6875 17.390625 48.6875 27.296875 
z
" id="DejaVuSans-112"/>
     <path d="M 45.40625 46.390625 
L 45.40625 75.984375 
L 54.390625 75.984375 
L 54.390625 0 
L 45.40625 0 
L 45.40625 8.203125 
Q 42.578125 3.328125 38.25 0.953125 
Q 33.9375 -1.421875 27.875 -1.421875 
Q 17.96875 -1.421875 11.734375 6.484375 
Q 5.515625 14.40625 5.515625 27.296875 
Q 5.515625 40.1875 11.734375 48.09375 
Q 17.96875 56 27.875 56 
Q 33.9375 56 38.25 53.625 
Q 42.578125 51.265625 45.40625 46.390625 
z
M 14.796875 27.296875 
Q 14.796875 17.390625 18.875 11.75 
Q 22.953125 6.109375 30.078125 6.109375 
Q 37.203125 6.109375 41.296875 11.75 
Q 45.40625 17.390625 45.40625 27.296875 
Q 45.40625 37.203125 41.296875 42.84375 
Q 37.203125 48.484375 30.078125 48.484375 
Q 22.953125 48.484375 18.875 42.84375 
Q 14.796875 37.203125 14.796875 27.296875 
z
" id="DejaVuSans-100"/>
     <path d="M 9.421875 75.984375 
L 18.40625 75.984375 
L 18.40625 0 
L 9.421875 0 
z
" id="DejaVuSans-108"/>
    </defs>
    <g transform="translate(48.670313 16.318125)scale(0.12 -0.12)">
     <use xlink:href="#DejaVuSans-67"/>
     <use x="69.824219" xlink:href="#DejaVuSans-68"/>
     <use x="146.826172" xlink:href="#DejaVuSans-70"/>
     <use x="204.345703" xlink:href="#DejaVuSans-32"/>
     <use x="236.132812" xlink:href="#DejaVuSans-111"/>
     <use x="297.314453" xlink:href="#DejaVuSans-102"/>
     <use x="332.519531" xlink:href="#DejaVuSans-32"/>
     <use x="364.306641" xlink:href="#DejaVuSans-77"/>
     <use x="450.585938" xlink:href="#DejaVuSans-101"/>
     <use x="512.109375" xlink:href="#DejaVuSans-97"/>
     <use x="573.388672" xlink:href="#DejaVuSans-110"/>
     <use x="636.767578" xlink:href="#DejaVuSans-32"/>
     <use x="668.554688" xlink:href="#DejaVuSans-98"/>
     <use x="732.03125" xlink:href="#DejaVuSans-114"/>
     <use x="773.144531" xlink:href="#DejaVuSans-105"/>
     <use x="800.927734" xlink:href="#DejaVuSans-103"/>
     <use x="864.404297" xlink:href="#DejaVuSans-104"/>
     <use x="927.783203" xlink:href="#DejaVuSans-116"/>
     <use x="966.992188" xlink:href="#DejaVuSans-110"/>
     <use x="1030.371094" xlink:href="#DejaVuSans-101"/>
     <use x="1091.894531" xlink:href="#DejaVuSans-115"/>
     <use x="1143.994141" xlink:href="#DejaVuSans-115"/>
     <use x="1196.09375" xlink:href="#DejaVuSans-32"/>
     <use x="1227.880859" xlink:href="#DejaVuSans-99"/>
     <use x="1282.861328" xlink:href="#DejaVuSans-111"/>
     <use x="1344.042969" xlink:href="#DejaVuSans-109"/>
     <use x="1441.455078" xlink:href="#DejaVuSans-112"/>
     <use x="1504.931641" xlink:href="#DejaVuSans-97"/>
     <use x="1566.210938" xlink:href="#DejaVuSans-114"/>
     <use x="1605.074219" xlink:href="#DejaVuSans-101"/>
     <use x="1666.597656" xlink:href="#DejaVuSans-100"/>
     <use x="1730.074219" xlink:href="#DejaVuSans-32"/>
     <use x="1761.861328" xlink:href="#DejaVuSans-116"/>
     <use x="1801.070312" xlink:href="#DejaVuSans-111"/>
     <use x="1862.251953" xlink:href="#DejaVuSans-32"/>
     <use x="1894.039062" xlink:href="#DejaVuSans-110"/>
     <use x="1957.417969" xlink:href="#DejaVuSans-111"/>
     <use x="2018.599609" xlink:href="#DejaVuSans-114"/>
     <use x="2057.962891" xlink:href="#DejaVuSans-109"/>
     <use x="2155.375" xlink:href="#DejaVuSans-97"/>
     <use x="2216.654297" xlink:href="#DejaVuSans-108"/>
     <use x="2244.4375" xlink:href="#DejaVuSans-32"/>
     <use x="2276.224609" xlink:href="#DejaVuSans-67"/>
     <use x="2346.048828" xlink:href="#DejaVuSans-68"/>
     <use x="2423.050781" xlink:href="#DejaVuSans-70"/>
    </g>
   </g>
   <g id="legend_1">
    <g id="patch_7">
     <path d="M 37.103125 59.674375 
L 165.45 59.674375 
Q 167.45 59.674375 167.45 57.674375 
L 167.45 29.318125 
Q 167.45 27.318125 165.45 27.318125 
L 37.103125 27.318125 
Q 35.103125 27.318125 35.103125 29.318125 
L 35.103125 57.674375 
Q 35.103125 59.674375 37.103125 59.674375 
z
" style="fill:#ffffff;opacity:0.8;stroke:#cccccc;stroke-linejoin:miter;"/>
    </g>
    <g id="line2d_14">
     <path d="M 39.103125 35.416562 
L 59.103125 35.416562 
" style="fill:none;stroke:#1f77b4;stroke-linecap:square;stroke-width:1.5;"/>
    </g>
    <g id="line2d_15"/>
    <g id="text_13">
     <!-- Data -->
     <g transform="translate(67.103125 38.916562)scale(0.1 -0.1)">
      <use xlink:href="#DejaVuSans-68"/>
      <use x="77.001953" xlink:href="#DejaVuSans-97"/>
      <use x="138.28125" xlink:href="#DejaVuSans-116"/>
      <use x="177.490234" xlink:href="#DejaVuSans-97"/>
     </g>
    </g>
    <g id="line2d_16">
     <path d="M 39.103125 50.094687 
L 59.103125 50.094687 
" style="fill:none;stroke:#ff7f0e;stroke-linecap:square;stroke-width:1.5;"/>
    </g>
    <g id="line2d_17"/>
    <g id="text_14">
     <!-- Normal distribution -->
     <defs>
      <path d="M 9.8125 72.90625 
L 23.09375 72.90625 
L 55.421875 11.921875 
L 55.421875 72.90625 
L 64.984375 72.90625 
L 64.984375 0 
L 51.703125 0 
L 19.390625 60.984375 
L 19.390625 0 
L 9.8125 0 
z
" id="DejaVuSans-78"/>
      <path d="M 8.5 21.578125 
L 8.5 54.6875 
L 17.484375 54.6875 
L 17.484375 21.921875 
Q 17.484375 14.15625 20.5 10.265625 
Q 23.53125 6.390625 29.59375 6.390625 
Q 36.859375 6.390625 41.078125 11.03125 
Q 45.3125 15.671875 45.3125 23.6875 
L 45.3125 54.6875 
L 54.296875 54.6875 
L 54.296875 0 
L 45.3125 0 
L 45.3125 8.40625 
Q 42.046875 3.421875 37.71875 1 
Q 33.40625 -1.421875 27.6875 -1.421875 
Q 18.265625 -1.421875 13.375 4.4375 
Q 8.5 10.296875 8.5 21.578125 
z
M 31.109375 56 
z
" id="DejaVuSans-117"/>
     </defs>
     <g transform="translate(67.103125 53.594687)scale(0.1 -0.1)">
      <use xlink:href="#DejaVuSans-78"/>
      <use x="74.804688" xlink:href="#DejaVuSans-111"/>
      <use x="135.986328" xlink:href="#DejaVuSans-114"/>
      <use x="175.349609" xlink:href="#DejaVuSans-109"/>
      <use x="272.761719" xlink:href="#DejaVuSans-97"/>
      <use x="334.041016" xlink:href="#DejaVuSans-108"/>
      <use x="361.824219" xlink:href="#DejaVuSans-32"/>
      <use x="393.611328" xlink:href="#DejaVuSans-100"/>
      <use x="457.087891" xlink:href="#DejaVuSans-105"/>
      <use x="484.871094" xlink:href="#DejaVuSans-115"/>
      <use x="536.970703" xlink:href="#DejaVuSans-116"/>
      <use x="576.179688" xlink:href="#DejaVuSans-114"/>
      <use x="617.292969" xlink:href="#DejaVuSans-105"/>
      <use x="645.076172" xlink:href="#DejaVuSans-98"/>
      <use x="708.552734" xlink:href="#DejaVuSans-117"/>
      <use x="771.931641" xlink:href="#DejaVuSans-116"/>
      <use x="811.140625" xlink:href="#DejaVuSans-105"/>
      <use x="838.923828" xlink:href="#DejaVuSans-111"/>
      <use x="900.105469" xlink:href="#DejaVuSans-110"/>
     </g>
    </g>
   </g>
  </g>
 </g>
 <defs>
  <clipPath id="p107ce7f52c">
   <rect height="217.44" width="334.8" x="30.103125" y="22.318125"/>
  </clipPath>
 </defs>
</svg>
