<?xml version="1.0" encoding="UTF-8"?>
<!-- Generator: Adobe Illustrator 16.0.0, SVG Export Plug-In . SVG Version: 6.00 Build 0)  -->
<svg width="63.428" height="63.428" enable-background="new 0 0 325.984 65.197" version="1.1" viewBox="0 0 63.428 63.428" xml:space="preserve" xmlns="http://www.w3.org/2000/svg">


<g transform="translate(-71.42 1.9041)"><circle cx="103.13" cy="29.81" r="31.714" stop-color="#000000" style="paint-order:fill markers stroke"/><path d="m81.267 23.439-0.46227 17.869 1.2774 7.9241 15.501 0.58641 24.863-2.6299 4.5656-5.655 1.9267-11.785-10.955-10.662-10.526-12.166-9.8384-1.9731-8.1612 1.9191z" fill="#fff"/><g transform="translate(55.973 1.0935)">
	<g transform="translate(15.581 -5.9747)">
		<path d="m16.177 44.478c-1.524 0-2.764 1.206-2.764 2.692 0 1.482 1.239 2.688 2.764 2.688s2.763-1.206 2.763-2.688c0-1.486-1.238-2.692-2.763-2.692z"/>
		<path d="m27.234 30.514c-0.673 0-1.332-0.067-1.969-0.193l-4.975 11.896c0.616 0.484 1.134 1.082 1.537 1.748l17.824-4.133c0.02-1.389 0.429-2.688 1.125-3.793l-7.771-7.312c-1.635 1.122-3.624 1.787-5.771 1.787z"/>
		<path d="m27.234 26.832c3.45 0 6.258-2.731 6.258-6.09 0-3.357-2.808-6.091-6.258-6.091-3.451 0-6.254 2.733-6.254 6.091 0 3.359 2.804 6.09 6.254 6.09z"/>
		
		<path d="m47.355 36.11c-2.165 0-3.928 1.715-3.928 3.82 0 2.112 1.763 3.826 3.928 3.826s3.928-1.714 3.928-3.826c0-2.105-1.763-3.82-3.928-3.82z"/>
	<path d="m13.7 9.2118-10.164 15.73 5.3218 31.171 46.356-0.52002 3.5286-21.903-14.497-24.425zm33.655 38.229c-2.962 0-5.535-1.638-6.826-4.03l-17.827 4.136c-0.2 3.339-3.049 5.994-6.525 5.994-3.611 0-6.547-2.857-6.547-6.371 0-3.516 2.937-6.375 6.547-6.375 0.206 0 0.411 0.012 0.612 0.03l4.977-11.9c-2.744-1.743-4.569-4.757-4.569-8.184 0-5.386 4.503-9.772 10.038-9.772s10.04 4.386 10.04 9.772c0 1.97-0.607 3.8-1.64 5.339l7.844 7.373c1.141-0.651 2.463-1.029 3.877-1.029 4.254 0 7.71 3.366 7.71 7.505-1e-3 4.144-3.457 7.512-7.711 7.512z"/></g>
</g></g></svg>
