<?xml version="1.0" encoding="UTF-8"?>
<!-- Created with Inkscape (http://www.inkscape.org/) -->
<svg width="71.824" height="71.824" version="1.1" viewBox="0 0 71.824 71.824" xml:space="preserve" xmlns="http://www.w3.org/2000/svg"><defs><clipPath id="clipPath20"><path d="m44.572 62.359c0-14.875 12.06-26.933 26.936-26.933 14.874 0 26.932 12.058 26.932 26.933 0 14.874-12.058 26.935-26.932 26.935-14.876 0-26.936-12.061-26.936-26.935"/></clipPath><clipPath id="clipPath36"><path d="M 0,127.559 H 445.039 V 0 H 0 Z"/></clipPath></defs><g transform="matrix(1.3333 0 0 -1.3333 -59.429 119.06)"><g transform="translate(67.314 88.387)"><path d="m0 0 0.511 0.655 0.866 0.105 0.654-0.513h4.321l0.654 0.513 0.864-0.105 0.513-0.654 4.197-1.035 0.757 0.343 0.814-0.31 0.341-0.759 3.822-2.004 0.817 0.149 0.716-0.493 0.15-0.82 3.236-2.864 0.828-0.052 0.576-0.651-0.049-0.83 2.452-3.551 0.794-0.248 0.406-0.771-0.247-0.793 1.532-4.041 0.713-0.43 0.207-0.845-0.429-0.711 0.519-4.289 0.588-0.588v-0.873l-0.588-0.586-0.519-4.285 0.431-0.711-0.207-0.848-0.713-0.428-1.532-4.041 0.247-0.793-0.407-0.773-0.792-0.246-2.455-3.555 0.049-0.832-0.576-0.65-0.828-0.049-3.231-2.864-0.151-0.818-0.715-0.496-0.818 0.152-3.827-2.007-0.34-0.76-0.814-0.309-0.758 0.342-4.191-1.035-0.513-0.654-0.865-0.104-0.653 0.514h-4.322l-0.654-0.514-0.864 0.104-0.513 0.654-4.196 1.035-0.757-0.342-0.814 0.309-0.342 0.76-3.822 2.003-0.817-0.15-0.717 0.496-0.149 0.819-3.236 2.865-0.829 0.049-0.578 0.65 0.049 0.832-2.451 3.549-0.794 0.248-0.405 0.771 0.248 0.795-1.533 4.041-0.711 0.428-0.209 0.848 0.43 0.709-0.521 4.291-0.588 0.586v0.873l0.588 0.588 0.52 4.283-0.431 0.713 0.209 0.845 0.711 0.43 1.533 4.041-0.248 0.793 0.405 0.772 0.793 0.248 2.455 3.554-0.05 0.83 0.578 0.651 0.829 0.052 3.231 2.862 0.149 0.818 0.718 0.495 0.817-0.151 3.827 2.008 0.341 0.759 0.814 0.31 0.757-0.343z" fill="#ffcd00"/></g><g clip-path="url(#clipPath20)"><g transform="translate(80.747 36.818)"><path d="m0 0-6.66 15.08 1.114-16.449m-12.933 52.452 6.66-15.081-1.114 16.449m-11.387-4.32 10.074-13.051-5.016 15.707m-10.028-6.924 12.906-10.258-8.63 14.047m-8.077-9.117 14.985-6.875-11.739 11.576m-5.664-10.787 16.195-3.086-14.168 8.426m-2.916-11.828 16.463 0.877-15.775 4.793m0-12.182 15.775 4.793-16.463 0.879m2.916-11.83 14.168 8.43-16.195-3.086m5.664-10.789 11.739 11.574-14.985-6.875m8.077-9.115 8.63 14.049-12.906-10.262m10.028-6.922 5.016 15.705-10.074-13.051m11.387-4.318 1.114 16.449-6.66-15.08m12.096-1.469-2.856 16.237-2.857-16.237m17.938 4.418-10.075 13.051 5.015-15.705m10.027 6.922-12.904 10.262 8.629-14.049m8.077 9.115-14.984 6.875 11.738-11.574m5.662 10.789-16.193 3.086 14.167-8.43m2.917 11.83-16.462-0.879 15.774-4.793m0 12.182-15.774-4.793 16.462-0.877m-2.917 11.828-14.167-8.426 16.193 3.086m-5.662 10.787-11.738-11.576 14.984 6.875m-8.077 9.117-8.629-14.047 12.904 10.258m-10.027 6.924-5.015-15.707 10.075 13.051m-11.388 4.32-1.114-16.449 6.66 15.081m-6.383 1.469-2.856-16.238-2.857 16.238"/></g><g transform="translate(51.746 75.992)"><path d="m0 0c0.305 0.441 0.195 1.047-0.247 1.352-0.443 0.304-1.049 0.195-1.354-0.248-0.305-0.442-0.194-1.047 0.249-1.352 0.441-0.307 1.047-0.195 1.352 0.248m18.788-38.613c0-0.539 0.435-0.973 0.974-0.973 0.537 0 0.973 0.434 0.973 0.973s-0.436 0.974-0.973 0.974c-0.539 0-0.974-0.435-0.974-0.974m20.733 38.613c0.304-0.443 0.913-0.555 1.354-0.248 0.442 0.305 0.552 0.91 0.247 1.352-0.304 0.443-0.909 0.552-1.351 0.248-0.444-0.305-0.554-0.911-0.25-1.352m-19.759 10.374c0.537 0 0.973 0.435 0.973 0.973 0 0.537-0.436 0.972-0.973 0.972-0.539 0-0.974-0.435-0.974-0.972 0-0.538 0.435-0.973 0.974-0.973m-6.864-1.847c0.398-0.033 0.826-0.019 1.216 0.077 0.833 0.207 1.487 0.744 1.257 1.669-0.131 0.525-0.486 0.845-1.497 0.822-0.455-0.014-0.597 0.089-0.634 0.24-0.06 0.238 0.072 0.449 0.538 0.564 0.2 0.05 0.557 0.069 0.829 0.04l0.103 0.761c-0.42 0.051-0.834 0.051-1.251-0.052-0.708-0.178-1.428-0.752-1.227-1.558 0.18-0.725 0.68-0.842 1.151-0.863 0.471-0.02 0.917 0.056 1.004-0.29 0.086-0.354-0.218-0.492-0.521-0.567-0.265-0.066-0.661-0.066-0.906-0.053zm-5.687-0.509c-0.394 0.75-0.16 1.314 0.348 1.58 0.513 0.271 1.108 0.142 1.503-0.607 0.394-0.751 0.162-1.313-0.352-1.585-0.509-0.265-1.106-0.136-1.499 0.612m-0.917-0.481c0.52-0.994 1.628-1.449 2.793-0.84 1.162 0.612 1.414 1.782 0.893 2.775-0.522 0.992-1.63 1.449-2.79 0.84-1.164-0.611-1.418-1.783-0.896-2.775m-7.699-30.664c-0.016 0.4-0.082 0.822-0.225 1.197-0.307 0.803-0.917 1.385-1.808 1.045-0.506-0.193-0.78-0.582-0.636-1.584 0.07-0.453-0.015-0.603-0.16-0.658-0.229-0.09-0.455 0.016-0.625 0.463-0.075 0.195-0.137 0.547-0.14 0.818l-0.768 0.014c0-0.426 0.049-0.836 0.203-1.238 0.261-0.68 0.918-1.325 1.694-1.028 0.698 0.266 0.754 0.776 0.718 1.246-0.036 0.469-0.166 0.905 0.168 1.032 0.338 0.129 0.512-0.157 0.624-0.45 0.097-0.253 0.146-0.648 0.161-0.894zm44.318 8.039c-0.174-0.359-0.311-0.764-0.359-1.162-0.102-0.852 0.169-1.654 1.114-1.768 0.536-0.064 0.96 0.155 1.3 1.106 0.148 0.435 0.295 0.529 0.45 0.51 0.241-0.028 0.393-0.227 0.336-0.702-0.024-0.207-0.133-0.548-0.258-0.791l0.676-0.367c0.195 0.377 0.344 0.76 0.394 1.19 0.088 0.724-0.195 1.601-1.018 1.699-0.744 0.09-1.029-0.338-1.218-0.768-0.185-0.433-0.272-0.879-0.627-0.836-0.361 0.043-0.381 0.377-0.344 0.688 0.033 0.271 0.17 0.641 0.272 0.865zm-12.455 24.081c0.393 0.751 0.988 0.878 1.496 0.611 0.513-0.269 0.746-0.832 0.353-1.584-0.393-0.749-0.991-0.877-1.503-0.608-0.509 0.266-0.74 0.83-0.346 1.581m-0.92 0.481c-0.521-0.994-0.267-2.165 0.898-2.777 1.16-0.607 2.268-0.152 2.79 0.842 0.52 0.992 0.266 2.164-0.893 2.773-1.165 0.61-2.274 0.154-2.795-0.838m-5.554-0.296c0.339-0.215 0.724-0.402 1.114-0.497 0.833-0.204 1.662-0.033 1.889 0.892 0.128 0.526-0.038 0.974-0.943 1.425-0.412 0.198-0.488 0.355-0.451 0.506 0.057 0.239 0.272 0.365 0.739 0.251 0.199-0.049 0.525-0.198 0.752-0.351l0.445 0.625c-0.348 0.242-0.715 0.432-1.132 0.536-0.709 0.174-1.612-2e-3 -1.811-0.808-0.176-0.726 0.212-1.062 0.619-1.299 0.406-0.238 0.837-0.377 0.753-0.724-0.087-0.353-0.421-0.333-0.724-0.26-0.266 0.064-0.616 0.248-0.827 0.375zm-23.594-3.885 2.847-2.775c0.195 0.201 0.392 0.394 0.594 0.587l-1.772 1.854 2.805-0.928c0.262 0.221 0.528 0.436 0.799 0.645l-2.372 3.191-0.791-0.623 1.68-2.058-2.909 0.972m-6.014-10.488 1.563-0.129c-0.112-0.281-0.218-0.559-0.319-0.842l-1.248 0.959zm-0.992-0.149 3.258-2.876c0.094 0.332 0.194 0.66 0.302 0.984l-0.707 0.57c0.147 0.428 0.307 0.85 0.478 1.266l0.906-0.041c0.14 0.324 0.287 0.65 0.44 0.969l-4.302 0.117m-0.398-6.545c0.387-0.043 0.435-0.408 0.406-0.647-0.015-0.138-0.034-0.297-0.046-0.429l-0.954 0.095c0.016 0.159 0.019 0.303 0.035 0.448 0.045 0.4 0.243 0.57 0.559 0.533m-1.556-1.955 4.015-0.233c0.018 0.307 0.043 0.612 0.073 0.916l-1.493 0.147c3e-3 0.033 6e-3 0.096 0.016 0.148 0.05 0.266 0.374 0.471 0.721 0.596 0.284 0.105 0.897 0.271 0.897 0.271 0.049 0.346 0.103 0.68 0.189 1.034 0 0-1.05-0.364-1.428-0.582-0.241-0.137-0.375-0.205-0.525-0.381l-0.018 4e-3c-0.012 0.613-0.375 1-0.947 1.039-0.697 0.051-1.074-0.58-1.167-1.348l-0.173 0.014m0.256-8.072 0.985 0.177c-0.057 0.317-0.108 0.637-0.154 0.955l2.953 0.416c-0.042 0.297-0.083 0.616-0.115 0.914l-2.963-0.298c-0.035 0.33-0.062 0.66-0.083 0.986l-0.991-0.063m4.178-12.828 2.999 0.881 6e-3 -8e-3 -1.912-2.461 0.647-0.832 2.379 3.43c-0.212 0.293-0.417 0.592-0.615 0.895l-4.028-1.043m6.356-7.385 2.505 3.082c-0.658 0.531-1.287 1.098-1.883 1.699l-0.606-0.603c0.393-0.397 0.799-0.776 1.218-1.143l-2.045-2.338m6.346-4.164 1.699 3.598c-0.767 0.359-1.512 0.757-2.235 1.197l-0.444-0.731c0.475-0.289 0.961-0.56 1.456-0.816l-1.434-2.779m6.504-2.365 0.883 3.89c-0.295 0.067-0.605 0.139-0.897 0.217l-1.035-3.848m14.04 0.803 0.422 1.588c-0.276-0.086-0.573-0.174-0.839-0.248l0.369-1.352zm-2.532-1.34-0.161 0.988c0.519 0.088 1.037 0.192 1.616 0.327l-0.163 0.648c-0.524-0.119-0.976-0.213-1.443-0.293l-0.126 0.758c0.443 0.078 0.885 0.168 1.384 0.283l-0.167 0.664c-0.532-0.125-1.009-0.219-1.487-0.299l-0.14 0.842c0.779 0.131 1.552 0.303 2.315 0.516l0.294-1.008c0.415 0.115 0.826 0.244 1.234 0.383l0.203 0.777 0.599-1.346-0.784-2.503m5.356 2.238-1.916 3.498c-0.264-0.149-0.544-0.295-0.814-0.432l1.777-3.57m6.979 5.016-0.703 0.71c-0.226-0.228-0.46-0.451-0.7-0.669l-2.016 2.195c-0.221-0.203-0.457-0.416-0.688-0.611l1.927-2.274c-0.251-0.215-0.507-0.422-0.765-0.627l0.621-0.781m5.833 6.332-3.319 2.207c-0.165-0.25-0.345-0.516-0.52-0.76l3.223-2.332m3.857 7.686-0.95 0.299c-0.097-0.307-0.202-0.614-0.31-0.918l-2.807 1.005c-0.1-0.281-0.21-0.58-0.324-0.861l2.761-1.115c-0.121-0.307-0.251-0.613-0.385-0.91l0.917-0.408m2.262 13.285-3.066 0.619-2e-3 0.01 2.837 1.293-0.179 1.041-3.707-1.934c0.053-0.361 0.093-0.719 0.128-1.08l4.049-0.953m-1.918 8.881-3.703-1.479c0.116-0.281 0.23-0.578 0.33-0.859l3.75 1.332m-7.674 11.277-2.04-2.346c0.419-0.369 0.825-0.75 1.216-1.144l-0.606-0.602c-0.596 0.602-1.223 1.166-1.88 1.7l2.505 3.072" fill="#fff"/></g></g><g clip-path="url(#clipPath36)"><g transform="translate(75.201 58.668)"><path d="m0 0c-0.304-0.311-0.725-0.502-1.192-0.502h-0.981c-0.549 0-1.036-0.266-1.34-0.676h-0.361c-0.304 0.41-0.792 0.676-1.341 0.676h-0.979c-0.922 0-1.668 0.746-1.668 1.668v6.695" fill="#c00a35"/></g><g transform="translate(67.338 66.529)"><path d="m0 0h8.338v-6.695c0-0.457-0.181-0.866-0.476-1.166" fill="#fff"/></g><g transform="translate(75.252 66.102)"><path d="m0 0h-7.488v-6.246c0-0.682 0.556-1.24 1.243-1.24h0.979c0.598 0 1.126-0.25 1.508-0.649h0.027c0.383 0.399 0.911 0.649 1.507 0.649h0.981c0.687 0 1.243 0.558 1.243 1.24zm0.86-6.246c0-1.16-0.943-2.1-2.103-2.1h-0.981c-0.514 0-0.956-0.314-1.145-0.759h-0.752c-0.188 0.445-0.629 0.759-1.145 0.759h-0.979c-1.162 0-2.103 0.94-2.103 2.1v7.109h9.208z"/></g></g></g></svg>
