<?xml version="1.0" encoding="UTF-8"?>
<!-- Created with Inkscape (http://www.inkscape.org/) -->
<svg width="109.16mm" height="14.52mm" version="1.1" viewBox="0 0 109.16 14.52" xmlns="http://www.w3.org/2000/svg" xmlns:ns45="http://www.iki.fi/pav/software/textext/" xmlns:xlink="http://www.w3.org/1999/xlink">
 <defs>
  <linearGradient id="linearGradient65489">
   <stop stop-color="#e2faff" offset="0"/>
   <stop stop-color="#c1f5ff" offset="1"/>
  </linearGradient>
  <radialGradient id="radialGradient66257" cx="-75.614" cy="-56.839" r="4.3564" gradientTransform="translate(-52.8 7.542)" gradientUnits="userSpaceOnUse" xlink:href="#linearGradient65489"/>
  <radialGradient id="radialGradient66259" cx="-94.778" cy="-56.81" r="4.3564" gradientTransform="translate(-19.356 7.542)" gradientUnits="userSpaceOnUse" xlink:href="#linearGradient65489"/>
  <g stroke-width="0"></g>
  <g stroke-width="0"></g>
  <radialGradient id="radialGradient66257-3" cx="-75.614" cy="-56.839" r="4.3564" gradientTransform="translate(26.682 7.542)" gradientUnits="userSpaceOnUse" xlink:href="#linearGradient65489"/>
  <radialGradient id="radialGradient66257-4" cx="-75.614" cy="-56.839" r="4.3564" gradientTransform="translate(-.30588 7.542)" gradientUnits="userSpaceOnUse" xlink:href="#linearGradient65489"/>
  <radialGradient id="radialGradient66259-4" cx="-94.778" cy="-56.81" r="4.3564" gradientTransform="translate(32.502 7.542)" gradientUnits="userSpaceOnUse" xlink:href="#linearGradient65489"/>
  <g stroke-width="0"></g>
  <radialGradient id="radialGradient66259-4-7" cx="-94.778" cy="-56.81" r="4.3564" gradientTransform="translate(5.515 7.542)" gradientUnits="userSpaceOnUse" xlink:href="#linearGradient65489"/>
  <g stroke-width="0"></g>
  <radialGradient id="radialGradient66257-3-3" cx="-75.614" cy="-56.839" r="4.3564" gradientTransform="translate(47.652 7.6333)" gradientUnits="userSpaceOnUse" xlink:href="#linearGradient65489"/>
  <g stroke-width="0"></g>
  <g stroke-width="0"></g>
 </defs>
 <g transform="translate(-23.605 -44.849)">
  <g fill="none" stroke="#000">
   <path d="m104.25 49.332h26.055" stroke-width=".186"/>
   <path d="m46.042 49.332h52.401" stroke-width=".186"/>
   <path d="m128.45 49.846v7.4244" stroke-width=".186"/>
  </g>
  <g stroke-width=".186">
   <rect transform="scale(-1)" x="-132.68" y="-53.56" width="8.5268" height="8.5268" ry="2.3389" fill="url(#radialGradient66257)" stroke="#000607" stroke-linecap="round" stroke-linejoin="round" style="paint-order:markers fill stroke"/>
   <path d="m48.966 49.846v7.4244" fill="none" stroke="#000"/>
   <rect transform="scale(-1)" x="-53.196" y="-53.56" width="8.5268" height="8.5268" ry="2.3389" fill="url(#radialGradient66257-3)" stroke="#000607" stroke-linecap="round" stroke-linejoin="round" style="paint-order:markers fill stroke"/>
   <rect transform="scale(-1)" x="-118.4" y="-53.532" width="8.5268" height="8.5268" ry="2.3389" fill="url(#radialGradient66259)" stroke="#000607" stroke-linecap="round" stroke-linejoin="round" style="paint-order:markers fill stroke"/>
   <path d="m75.953 49.846v7.4244" fill="none" stroke="#000"/>
   <rect transform="scale(-1)" x="-80.183" y="-53.56" width="8.5268" height="8.5268" ry="2.3389" fill="url(#radialGradient66257-4)" stroke="#000607" stroke-linecap="round" stroke-linejoin="round" style="paint-order:markers fill stroke"/>
   <rect transform="scale(-1)" x="-66.539" y="-53.532" width="8.5268" height="8.5268" ry="2.3389" fill="url(#radialGradient66259-4)" stroke="#000607" stroke-linecap="round" stroke-linejoin="round" style="paint-order:markers fill stroke"/>
  </g>
  <g transform="matrix(.35278 0 0 .35278 47.208 47.882)" stroke-width="0" ns45:alignment="middle center" ns45:inkscapeversion="1.1.2" ns45:jacobian_sqrt="0.352778" ns45:pdfconverter="inkscape" ns45:preamble="/home/rik/switchdrive/Notes/talks/03-2022-CIRM-poster/poster_text.tex" ns45:scale="1.0" ns45:stroke-to-path="0" ns45:texconverter="pdflatex" ns45:text="$\\Psi_1$" ns45:version="1.6.0">
   <defs id="id-fc94e42c-753d-4bf7-b08c-9454ea4a27db">
    <g id="id-f357c6ae-9e92-4bb8-ac56-267d87afc50d" stroke-width="0"></g>
   </defs>
   <g transform="translate(-89.854 -104.18)">
    <g transform="translate(89.292 110.99)">
     <path id="id-2a87838e-94db-4a21-807f-db23312e2fda" d="m4.25-6.0156c0-0.34375 0-0.48438 0.95312-0.48438h0.32812v-0.3125c-0.35938 0.03125-1.2812 0.03125-1.6875 0.03125s-1.3281 0-1.6875-0.03125v0.3125h0.32812c0.9375 0 0.9375 0.125 0.9375 0.48438v4.4219c-1.2969-0.34375-1.3438-1.8906-1.3438-2.5312-0.015625-1.2031-0.45312-1.3906-0.89062-1.3906h-0.375c-0.14062 0-0.25 0-0.25 0.10938 0 0.046875 0.03125 0.09375 0.09375 0.10938 0.32812 0.03125 0.57812 0.17188 0.59375 1.3438 0 0.23438 0.03125 1.0156 0.5 1.6875 0.39062 0.54688 1 0.82812 1.6719 0.92188v0.5625c0 0.32812 0 0.46875-0.9375 0.46875h-0.32812v0.3125c0.35938-0.03125 1.2656-0.03125 1.6875-0.03125 0.40625 0 1.3281 0 1.6875 0.03125v-0.3125h-0.32812c-0.95312 0-0.95312-0.125-0.95312-0.46875v-0.5625c0.71875-0.09375 1.3281-0.39062 1.7188-0.90625 0.51562-0.70312 0.53125-1.5 0.53125-1.9375 0-0.15625 0.015625-1.0469 0.54688-1.1094 0.0625-0.015625 0.125-0.03125 0.125-0.10938 0-0.10938-0.078125-0.10938-0.23438-0.10938h-0.375c-0.39062 0-0.875 0.0625-0.89062 1.5156-0.015625 1.0938-0.34375 2.1406-1.4219 2.4062z" stroke-width="0"/>
    </g>
    <g transform="translate(97.041 112.48)">
     <path id="id-8943610b-52d8-4b4e-b8db-a796dd13735a" d="m2.3281-4.4375c0-0.1875 0-0.1875-0.20312-0.1875-0.45312 0.4375-1.0781 0.4375-1.3594 0.4375v0.25c0.15625 0 0.625 0 1-0.1875v3.5469c0 0.23438 0 0.32812-0.6875 0.32812h-0.26562v0.25c0.125 0 0.98438-0.03125 1.2344-0.03125 0.21875 0 1.0938 0.03125 1.25 0.03125v-0.25h-0.26562c-0.70312 0-0.70312-0.09375-0.70312-0.32812z" stroke-width="0"/>
    </g>
   </g>
  </g>
  <g transform="matrix(.26458 0 0 .26458 47.93 57.8)" stroke-width="0" ns45:alignment="middle center" ns45:inkscapeversion="1.1.2" ns45:jacobian_sqrt="0.264583" ns45:pdfconverter="inkscape" ns45:preamble="/home/rik/switchdrive/Notes/talks/03-2022-CIRM-poster/poster_text.tex" ns45:scale="0.75" ns45:stroke-to-path="0" ns45:texconverter="pdflatex" ns45:text="$n_1$" ns45:version="1.6.0">
   <defs>
    <g stroke-width="0"></g>
   </defs>
   <g id="id-3617fb97-4fe3-4a91-8fc1-93c851581a4f" transform="translate(-89.589 -106.58)">
    <g transform="translate(89.292 110.99)" stroke-width="0">
     <path d="m0.875-0.59375c-0.03125 0.15625-0.09375 0.39062-0.09375 0.4375 0 0.17188 0.14062 0.26562 0.29688 0.26562 0.125 0 0.29688-0.078125 0.375-0.28125 0-0.015625 0.125-0.48438 0.1875-0.73438l0.21875-0.89062c0.046875-0.23438 0.10938-0.45312 0.17188-0.67188 0.03125-0.17188 0.10938-0.46875 0.125-0.5 0.14062-0.3125 0.67188-1.2188 1.625-1.2188 0.45312 0 0.53125 0.375 0.53125 0.70312 0 0.60938-0.48438 1.8906-0.64062 2.3125-0.09375 0.23438-0.10938 0.35938-0.10938 0.46875 0 0.46875 0.35938 0.8125 0.82812 0.8125 0.9375 0 1.2969-1.4531 1.2969-1.5312 0-0.10938-0.078125-0.10938-0.10938-0.10938-0.10938 0-0.10938 0.03125-0.15625 0.1875-0.20312 0.67188-0.53125 1.2344-1.0156 1.2344-0.17188 0-0.23438-0.09375-0.23438-0.32812 0-0.25 0.078125-0.48438 0.17188-0.70312 0.1875-0.53125 0.60938-1.625 0.60938-2.2031 0-0.65625-0.42188-1.0625-1.1406-1.0625-0.90625 0-1.3906 0.64062-1.5625 0.875-0.046875-0.5625-0.45312-0.875-0.92188-0.875-0.45312 0-0.64062 0.39062-0.73438 0.5625-0.17188 0.34375-0.29688 0.9375-0.29688 0.96875 0 0.10938 0.09375 0.10938 0.10938 0.10938 0.10938 0 0.10938-0.015625 0.17188-0.23438 0.17188-0.70312 0.375-1.1875 0.73438-1.1875 0.1875 0 0.29688 0.125 0.29688 0.45312 0 0.21875-0.03125 0.32812-0.15625 0.84375z" stroke-width="0"/>
    </g>
   </g>
   <g id="id-7abd1534-5373-419f-86e7-f1ff220a980e" transform="translate(-89.589 -106.58)">
    <g transform="translate(95.272 112.48)" stroke-width="0">
     <path d="m2.3281-4.4375c0-0.1875 0-0.1875-0.20312-0.1875-0.45312 0.4375-1.0781 0.4375-1.3594 0.4375v0.25c0.15625 0 0.625 0 1-0.1875v3.5469c0 0.23438 0 0.32812-0.6875 0.32812h-0.26562v0.25c0.125 0 0.98438-0.03125 1.2344-0.03125 0.21875 0 1.0938 0.03125 1.25 0.03125v-0.25h-0.26562c-0.70312 0-0.70312-0.09375-0.70312-0.32812z" stroke-width="0"/>
    </g>
   </g>
  </g>
  <path d="m24.981 49.356v7.4244" fill="none" stroke="#000" stroke-width=".186"/>
  <g transform="matrix(.26458 0 0 .26458 23.945 57.31)" stroke-width="0" ns45:alignment="middle center" ns45:inkscapeversion="1.1.2" ns45:jacobian_sqrt="0.264583" ns45:pdfconverter="inkscape" ns45:preamble="/home/rik/switchdrive/Notes/talks/03-2022-CIRM-poster/poster_text.tex" ns45:scale="0.75" ns45:stroke-to-path="0" ns45:texconverter="pdflatex" ns45:text="$n_1$" ns45:version="1.6.0">
   <defs>
    <g stroke-width="0"></g>
   </defs>
   <g transform="translate(-89.589 -106.58)">
    <g transform="translate(89.292 110.99)">
     <path d="m0.875-0.59375c-0.03125 0.15625-0.09375 0.39062-0.09375 0.4375 0 0.17188 0.14062 0.26562 0.29688 0.26562 0.125 0 0.29688-0.078125 0.375-0.28125 0-0.015625 0.125-0.48438 0.1875-0.73438l0.21875-0.89062c0.046875-0.23438 0.10938-0.45312 0.17188-0.67188 0.03125-0.17188 0.10938-0.46875 0.125-0.5 0.14062-0.3125 0.67188-1.2188 1.625-1.2188 0.45312 0 0.53125 0.375 0.53125 0.70312 0 0.60938-0.48438 1.8906-0.64062 2.3125-0.09375 0.23438-0.10938 0.35938-0.10938 0.46875 0 0.46875 0.35938 0.8125 0.82812 0.8125 0.9375 0 1.2969-1.4531 1.2969-1.5312 0-0.10938-0.078125-0.10938-0.10938-0.10938-0.10938 0-0.10938 0.03125-0.15625 0.1875-0.20312 0.67188-0.53125 1.2344-1.0156 1.2344-0.17188 0-0.23438-0.09375-0.23438-0.32812 0-0.25 0.078125-0.48438 0.17188-0.70312 0.1875-0.53125 0.60938-1.625 0.60938-2.2031 0-0.65625-0.42188-1.0625-1.1406-1.0625-0.90625 0-1.3906 0.64062-1.5625 0.875-0.046875-0.5625-0.45312-0.875-0.92188-0.875-0.45312 0-0.64062 0.39062-0.73438 0.5625-0.17188 0.34375-0.29688 0.9375-0.29688 0.96875 0 0.10938 0.09375 0.10938 0.10938 0.10938 0.10938 0 0.10938-0.015625 0.17188-0.23438 0.17188-0.70312 0.375-1.1875 0.73438-1.1875 0.1875 0 0.29688 0.125 0.29688 0.45312 0 0.21875-0.03125 0.32812-0.15625 0.84375z" stroke-width="0"/>
    </g>
    <g transform="translate(95.272 112.48)">
     <path d="m2.3281-4.4375c0-0.1875 0-0.1875-0.20312-0.1875-0.45312 0.4375-1.0781 0.4375-1.3594 0.4375v0.25c0.15625 0 0.625 0 1-0.1875v3.5469c0 0.23438 0 0.32812-0.6875 0.32812h-0.26562v0.25c0.125 0 0.98438-0.03125 1.2344-0.03125 0.21875 0 1.0938 0.03125 1.25 0.03125v-0.25h-0.26562c-0.70312 0-0.70312-0.09375-0.70312-0.32812z" stroke-width="0"/>
    </g>
   </g>
  </g>
  <path d="m31.331 49.356v7.4244" fill="none" stroke="#000" stroke-width=".186"/>
  <g transform="matrix(.35278 0 0 .35278 60.626 46.886)" stroke-width="0" ns45:alignment="middle center" ns45:inkscapeversion="1.1.2" ns45:jacobian_sqrt="0.352778" ns45:pdfconverter="inkscape" ns45:preamble="/home/rik/switchdrive/Notes/talks/03-2022-CIRM-poster/poster_text.tex" ns45:scale="1.0" ns45:stroke-to-path="0" ns45:texconverter="pdflatex" ns45:text="$\\Omega_{1}^\\dagger$" ns45:version="1.6.0">
   <defs>
    <g id="id-701b7c36-863e-46b5-9b11-445bb8fbfd0f" stroke-width="0"></g>
   </defs>
   <g transform="translate(-89.73 -101.3)">
    <g transform="translate(89.292 110.99)">
     <path id="id-d32eacdb-b2c7-48df-862f-24cdedb8426b" d="m6.75-1.6094h-0.25c-0.046875 0.25-0.09375 0.48438-0.1875 0.71875-0.046875 0.15625-0.078125 0.25-0.65625 0.25h-0.79688c0.14062-0.5625 0.4375-1.0469 0.89062-1.7031 0.46875-0.70312 0.875-1.3906 0.875-2.1875 0-1.375-1.3438-2.5-3.0312-2.5-1.7031 0-3.0312 1.1406-3.0312 2.5 0 0.79688 0.40625 1.4844 0.875 2.1875 0.4375 0.65625 0.75 1.1406 0.89062 1.7031h-0.79688c-0.57812 0-0.60938-0.09375-0.65625-0.23438-0.09375-0.23438-0.14062-0.48438-0.1875-0.73438h-0.25l0.32812 1.6094h1.5938c0.21875 0 0.25 0 0.25-0.20312 0-0.70312-0.3125-1.5781-0.53125-2.2188-0.21875-0.57812-0.5-1.3594-0.5-2.1094 0-1.5938 1.1094-2.2812 2.0156-2.2812 0.95312 0 2.0156 0.71875 2.0156 2.2812 0 0.75-0.28125 1.5-0.5625 2.3125-0.15625 0.42188-0.46875 1.3281-0.46875 2.0156 0 0.20312 0.03125 0.20312 0.25 0.20312h1.5938z" stroke-width="0"/>
    </g>
    <g transform="translate(96.487 106.2)">
     <path d="m1.9062-2.9062c0.10938 0 0.17188 0.015625 0.39062 0.0625 0.21875 0.0625 0.39062 0.10938 0.51562 0.10938 0.28125 0 0.29688-0.20312 0.29688-0.26562s-0.015625-0.28125-0.29688-0.28125c-0.125 0-0.29688 0.046875-0.51562 0.10938s-0.28125 0.0625-0.39062 0.078125c0.015625-0.25 0.0625-0.53125 0.09375-0.75 0.03125-0.14062 0.09375-0.5 0.09375-0.73438 0-0.21875-0.09375-0.32812-0.26562-0.32812-0.15625 0-0.28125 0.078125-0.28125 0.32812 0 0.21875 0.0625 0.57812 0.10938 0.8125 0.015625 0.078125 0.078125 0.40625 0.078125 0.67188-0.09375-0.015625-0.17188-0.015625-0.375-0.078125-0.21875-0.0625-0.39062-0.10938-0.51562-0.10938-0.28125 0-0.3125 0.21875-0.3125 0.28125 0 0.046875 0.03125 0.26562 0.3125 0.26562 0.125 0 0.29688-0.046875 0.51562-0.10938 0.20312-0.046875 0.28125-0.0625 0.375-0.0625 0 0.17188-0.0625 0.39062-0.09375 0.53125-0.09375 0.4375-0.09375 0.48438-0.09375 0.84375 0 1.3438 0.14062 2.7812 0.15625 2.9219 0.015625 0.0625 0.03125 0.09375 0.125 0.09375 0.10938 0 0.10938-0.03125 0.125-0.125 0-0.015625 0.046875-0.625 0.078125-1.0469 0.03125-0.60938 0.0625-1.2188 0.0625-1.8438 0-0.35938 0-0.40625-0.09375-0.85938-0.015625-0.0625-0.078125-0.34375-0.09375-0.51562z" stroke-width="0"/>
    </g>
    <g transform="translate(96.487 113.65)">
     <path d="m2.3281-4.4375c0-0.1875 0-0.1875-0.20312-0.1875-0.45312 0.4375-1.0781 0.4375-1.3594 0.4375v0.25c0.15625 0 0.625 0 1-0.1875v3.5469c0 0.23438 0 0.32812-0.6875 0.32812h-0.26562v0.25c0.125 0 0.98438-0.03125 1.2344-0.03125 0.21875 0 1.0938 0.03125 1.25 0.03125v-0.25h-0.26562c-0.70312 0-0.70312-0.09375-0.70312-0.32812z" stroke-width="0"/>
    </g>
   </g>
  </g>
  <g transform="matrix(.26458 0 0 .26458 74.889 57.8)" stroke-width="0" ns45:alignment="middle center" ns45:inkscapeversion="1.1.2" ns45:jacobian_sqrt="0.264583" ns45:pdfconverter="inkscape" ns45:preamble="/home/rik/switchdrive/Notes/talks/03-2022-CIRM-poster/poster_text.tex" ns45:scale="0.75" ns45:stroke-to-path="0" ns45:texconverter="pdflatex" ns45:text="$n_2$" ns45:version="1.6.0">
   <defs id="id-2231a30a-2184-4046-8de9-168af047e9ce">
    <g stroke-width="0"></g>
   </defs>
   <g id="id-dd6f8ad5-08f8-4dc3-8e79-7949480518ab" transform="translate(-89.589 -106.58)">
    <g transform="translate(89.292 110.99)" stroke-width="0">
     <path id="id-539ff5a0-c434-42c7-9913-76011ff062ac" d="m0.875-0.59375c-0.03125 0.15625-0.09375 0.39062-0.09375 0.4375 0 0.17188 0.14062 0.26562 0.29688 0.26562 0.125 0 0.29688-0.078125 0.375-0.28125 0-0.015625 0.125-0.48438 0.1875-0.73438l0.21875-0.89062c0.046875-0.23438 0.10938-0.45312 0.17188-0.67188 0.03125-0.17188 0.10938-0.46875 0.125-0.5 0.14062-0.3125 0.67188-1.2188 1.625-1.2188 0.45312 0 0.53125 0.375 0.53125 0.70312 0 0.60938-0.48438 1.8906-0.64062 2.3125-0.09375 0.23438-0.10938 0.35938-0.10938 0.46875 0 0.46875 0.35938 0.8125 0.82812 0.8125 0.9375 0 1.2969-1.4531 1.2969-1.5312 0-0.10938-0.078125-0.10938-0.10938-0.10938-0.10938 0-0.10938 0.03125-0.15625 0.1875-0.20312 0.67188-0.53125 1.2344-1.0156 1.2344-0.17188 0-0.23438-0.09375-0.23438-0.32812 0-0.25 0.078125-0.48438 0.17188-0.70312 0.1875-0.53125 0.60938-1.625 0.60938-2.2031 0-0.65625-0.42188-1.0625-1.1406-1.0625-0.90625 0-1.3906 0.64062-1.5625 0.875-0.046875-0.5625-0.45312-0.875-0.92188-0.875-0.45312 0-0.64062 0.39062-0.73438 0.5625-0.17188 0.34375-0.29688 0.9375-0.29688 0.96875 0 0.10938 0.09375 0.10938 0.10938 0.10938 0.10938 0 0.10938-0.015625 0.17188-0.23438 0.17188-0.70312 0.375-1.1875 0.73438-1.1875 0.1875 0 0.29688 0.125 0.29688 0.45312 0 0.21875-0.03125 0.32812-0.15625 0.84375z" stroke-width="0"/>
    </g>
   </g>
   <g transform="translate(-89.589 -106.58)">
    <g transform="translate(95.272 112.48)" stroke-width="0">
     <path d="m3.5156-1.2656h-0.23438c-0.015625 0.15625-0.09375 0.5625-0.1875 0.625-0.046875 0.046875-0.57812 0.046875-0.6875 0.046875h-1.2812c0.73438-0.64062 0.98438-0.84375 1.3906-1.1719 0.51562-0.40625 1-0.84375 1-1.5 0-0.84375-0.73438-1.3594-1.625-1.3594-0.85938 0-1.4531 0.60938-1.4531 1.25 0 0.34375 0.29688 0.39062 0.375 0.39062 0.15625 0 0.35938-0.125 0.35938-0.375 0-0.125-0.046875-0.375-0.40625-0.375 0.21875-0.48438 0.6875-0.64062 1.0156-0.64062 0.70312 0 1.0625 0.54688 1.0625 1.1094 0 0.60938-0.4375 1.0781-0.65625 1.3281l-1.6719 1.6719c-0.078125 0.0625-0.078125 0.078125-0.078125 0.26562h2.875z" stroke-width="0"/>
    </g>
   </g>
  </g>
  <rect transform="scale(-1)" x="-93.527" y="-53.532" width="8.5268" height="8.5268" ry="2.3389" fill="url(#radialGradient66259-4-7)" stroke="#000607" stroke-linecap="round" stroke-linejoin="round" stroke-width=".186" style="paint-order:markers fill stroke"/>
  <g transform="matrix(.26458 0 0 .26458 100.22 49.285)" ns45:alignment="middle center" ns45:inkscapeversion="1.1.2" ns45:jacobian_sqrt="0.264583" ns45:pdfconverter="inkscape" ns45:preamble="/home/rik/switchdrive/Notes/talks/03-2022-CIRM-poster/poster_text.tex" ns45:scale="1.0" ns45:stroke-to-path="0" ns45:texconverter="pdflatex" ns45:text="$\\ldots$" ns45:version="1.6.0">
   <defs id="id-fd811f92-34e5-4093-93db-68a3cc77134d"></defs>
   <g transform="translate(-90.151 -109.93)">
    <g transform="translate(89.292 110.99)">
     <path d="m1.9062-0.53125c0-0.28125-0.23438-0.53125-0.51562-0.53125-0.29688 0-0.53125 0.25-0.53125 0.53125 0 0.29688 0.23438 0.53125 0.53125 0.53125 0.28125 0 0.51562-0.23438 0.51562-0.53125z"/>
    </g>
    <g transform="translate(93.723 110.99)">
     <path d="m1.9062-0.53125c0-0.28125-0.23438-0.53125-0.51562-0.53125-0.29688 0-0.53125 0.25-0.53125 0.53125 0 0.29688 0.23438 0.53125 0.53125 0.53125 0.28125 0 0.51562-0.23438 0.51562-0.53125z"/>
    </g>
    <g transform="translate(98.145 110.99)">
     <path id="id-6c9112ed-1754-461a-94fb-41a2ef558e6a" d="m1.9062-0.53125c0-0.28125-0.23438-0.53125-0.51562-0.53125-0.29688 0-0.53125 0.25-0.53125 0.53125 0 0.29688 0.23438 0.53125 0.53125 0.53125 0.28125 0 0.51562-0.23438 0.51562-0.53125z"/>
    </g>
   </g>
  </g>
  <g transform="matrix(.26458 0 0 .26458 26.753 54.926)" ns45:alignment="middle center" ns45:inkscapeversion="1.1.2" ns45:jacobian_sqrt="0.264583" ns45:pdfconverter="inkscape" ns45:preamble="/home/rik/switchdrive/Notes/talks/03-2022-CIRM-poster/poster_text.tex" ns45:scale="1.0" ns45:stroke-to-path="0" ns45:texconverter="pdflatex" ns45:text="$\\ldots$" ns45:version="1.6.0">
   <defs></defs>
   <g transform="translate(-90.151 -109.93)">
    <g transform="translate(89.292 110.99)">
     <path d="m1.9062-0.53125c0-0.28125-0.23438-0.53125-0.51562-0.53125-0.29688 0-0.53125 0.25-0.53125 0.53125 0 0.29688 0.23438 0.53125 0.53125 0.53125 0.28125 0 0.51562-0.23438 0.51562-0.53125z"/>
    </g>
    <g transform="translate(93.723 110.99)">
     <path d="m1.9062-0.53125c0-0.28125-0.23438-0.53125-0.51562-0.53125-0.29688 0-0.53125 0.25-0.53125 0.53125 0 0.29688 0.23438 0.53125 0.53125 0.53125 0.28125 0 0.51562-0.23438 0.51562-0.53125z"/>
    </g>
    <g transform="translate(98.145 110.99)">
     <path d="m1.9062-0.53125c0-0.28125-0.23438-0.53125-0.51562-0.53125-0.29688 0-0.53125 0.25-0.53125 0.53125 0 0.29688 0.23438 0.53125 0.53125 0.53125 0.28125 0 0.51562-0.23438 0.51562-0.53125z"/>
    </g>
   </g>
  </g>
  <g stroke-width="0">
   <g transform="matrix(.35278 0 0 .35278 110.66 46.813)" ns45:alignment="middle center" ns45:inkscapeversion="1.1.2" ns45:jacobian_sqrt="0.352778" ns45:pdfconverter="inkscape" ns45:preamble="/home/rik/switchdrive/Notes/talks/03-2022-CIRM-poster/poster_text.tex" ns45:scale="1.0" ns45:stroke-to-path="0" ns45:texconverter="pdflatex" ns45:text="$\\Omega_{d-1}^\\dagger$" ns45:version="1.6.0">
    <defs id="id-836d459a-93e6-4e13-aeef-48d2b9fc99ea">
     <g id="id-fa7b8dc9-478e-4afa-baf7-be185384637d" stroke-width="0"></g>
    </defs>
    <g>
     <g transform="translate(-89.73 -101.3)">
      <g transform="translate(89.292 110.99)" stroke-width="0">
       <path d="m6.75-1.6094h-0.25c-0.046875 0.25-0.09375 0.48438-0.1875 0.71875-0.046875 0.15625-0.078125 0.25-0.65625 0.25h-0.79688c0.14062-0.5625 0.4375-1.0469 0.89062-1.7031 0.46875-0.70312 0.875-1.3906 0.875-2.1875 0-1.375-1.3438-2.5-3.0312-2.5-1.7031 0-3.0312 1.1406-3.0312 2.5 0 0.79688 0.40625 1.4844 0.875 2.1875 0.4375 0.65625 0.75 1.1406 0.89062 1.7031h-0.79688c-0.57812 0-0.60938-0.09375-0.65625-0.23438-0.09375-0.23438-0.14062-0.48438-0.1875-0.73438h-0.25l0.32812 1.6094h1.5938c0.21875 0 0.25 0 0.25-0.20312 0-0.70312-0.3125-1.5781-0.53125-2.2188-0.21875-0.57812-0.5-1.3594-0.5-2.1094 0-1.5938 1.1094-2.2812 2.0156-2.2812 0.95312 0 2.0156 0.71875 2.0156 2.2812 0 0.75-0.28125 1.5-0.5625 2.3125-0.15625 0.42188-0.46875 1.3281-0.46875 2.0156 0 0.20312 0.03125 0.20312 0.25 0.20312h1.5938z" stroke-width="0"/>
      </g>
     </g>
     <g id="id-ac25fb1b-79f8-4adc-a68b-c2bc46be284d" transform="translate(-89.73 -101.3)">
      <g transform="translate(96.487 106.2)" stroke-width="0">
       <path id="id-51c77f7c-87d7-493d-80f7-b8e66da8732e" d="m1.9062-2.9062c0.10938 0 0.17188 0.015625 0.39062 0.0625 0.21875 0.0625 0.39062 0.10938 0.51562 0.10938 0.28125 0 0.29688-0.20312 0.29688-0.26562s-0.015625-0.28125-0.29688-0.28125c-0.125 0-0.29688 0.046875-0.51562 0.10938s-0.28125 0.0625-0.39062 0.078125c0.015625-0.25 0.0625-0.53125 0.09375-0.75 0.03125-0.14062 0.09375-0.5 0.09375-0.73438 0-0.21875-0.09375-0.32812-0.26562-0.32812-0.15625 0-0.28125 0.078125-0.28125 0.32812 0 0.21875 0.0625 0.57812 0.10938 0.8125 0.015625 0.078125 0.078125 0.40625 0.078125 0.67188-0.09375-0.015625-0.17188-0.015625-0.375-0.078125-0.21875-0.0625-0.39062-0.10938-0.51562-0.10938-0.28125 0-0.3125 0.21875-0.3125 0.28125 0 0.046875 0.03125 0.26562 0.3125 0.26562 0.125 0 0.29688-0.046875 0.51562-0.10938 0.20312-0.046875 0.28125-0.0625 0.375-0.0625 0 0.17188-0.0625 0.39062-0.09375 0.53125-0.09375 0.4375-0.09375 0.48438-0.09375 0.84375 0 1.3438 0.14062 2.7812 0.15625 2.9219 0.015625 0.0625 0.03125 0.09375 0.125 0.09375 0.10938 0 0.10938-0.03125 0.125-0.125 0-0.015625 0.046875-0.625 0.078125-1.0469 0.03125-0.60938 0.0625-1.2188 0.0625-1.8438 0-0.35938 0-0.40625-0.09375-0.85938-0.015625-0.0625-0.078125-0.34375-0.09375-0.51562z" stroke-width="0"/>
      </g>
     </g>
     <g transform="translate(-89.73 -101.3)">
      <g transform="translate(96.487 114)">
       <path id="id-024b6274-1af1-499c-97b1-40c39281adef" d="m3.9844-4.625c0-0.015625 0.015625-0.10938 0.015625-0.10938 0-0.046875-0.015625-0.10938-0.10938-0.10938-0.14062 0-0.71875 0.0625-0.89062 0.078125-0.046875 0-0.15625 0.015625-0.15625 0.15625 0 0.09375 0.10938 0.09375 0.1875 0.09375 0.32812 0 0.32812 0.0625 0.32812 0.10938s0 0.09375-0.015625 0.15625l-0.40625 1.5938c-0.14062-0.23438-0.375-0.42188-0.71875-0.42188-0.89062 0-1.7969 0.98438-1.7969 1.9844 0 0.6875 0.45312 1.1562 1.0625 1.1562 0.375 0 0.70312-0.20312 0.98438-0.48438 0.125 0.42188 0.53125 0.48438 0.71875 0.48438 0.25 0 0.42188-0.14062 0.54688-0.35938 0.15625-0.28125 0.25-0.67188 0.25-0.70312 0-0.09375-0.09375-0.09375-0.10938-0.09375-0.10938 0-0.10938 0.03125-0.15625 0.21875-0.09375 0.34375-0.21875 0.75-0.51562 0.75-0.17188 0-0.23438-0.15625-0.23438-0.34375 0-0.125 0.015625-0.1875 0.046875-0.28125zm-1.4844 3.75c-0.046875 0.20312-0.20312 0.34375-0.35938 0.46875-0.0625 0.0625-0.34375 0.28125-0.64062 0.28125-0.26562 0-0.51562-0.1875-0.51562-0.67188 0-0.375 0.20312-1.1406 0.375-1.4219 0.3125-0.5625 0.67188-0.65625 0.85938-0.65625 0.48438 0 0.625 0.53125 0.625 0.60938 0 0.015625-0.015625 0.078125-0.015625 0.09375z" stroke-width="0"/>
      </g>
      <g transform="translate(100.64 114)">
       <path d="m5.1875-1.5781c0.10938 0 0.28125 0 0.28125-0.15625 0-0.1875-0.17188-0.1875-0.28125-0.1875h-4.1562c-0.10938 0-0.28125 0-0.28125 0.17188s0.15625 0.17188 0.28125 0.17188z" stroke-width="0"/>
      </g>
      <g transform="translate(106.86 114)">
       <path d="m2.3281-4.4375c0-0.1875 0-0.1875-0.20312-0.1875-0.45312 0.4375-1.0781 0.4375-1.3594 0.4375v0.25c0.15625 0 0.625 0 1-0.1875v3.5469c0 0.23438 0 0.32812-0.6875 0.32812h-0.26562v0.25c0.125 0 0.98438-0.03125 1.2344-0.03125 0.21875 0 1.0938 0.03125 1.25 0.03125v-0.25h-0.26562c-0.70312 0-0.70312-0.09375-0.70312-0.32812z" stroke-width="0"/>
      </g>
     </g>
    </g>
   </g>
   <g transform="matrix(.35278 0 0 .35278 126.57 47.871)" ns45:alignment="middle center" ns45:inkscapeversion="1.1.2" ns45:jacobian_sqrt="0.352778" ns45:pdfconverter="inkscape" ns45:preamble="/home/rik/switchdrive/Notes/talks/03-2022-CIRM-poster/poster_text.tex" ns45:scale="1.0" ns45:stroke-to-path="0" ns45:texconverter="pdflatex" ns45:text="$\\Psi_d$" ns45:version="1.6.0">
    <defs id="id-49e533e5-fffd-49ae-ad52-1904b54c3f4a">
     <g stroke-width="0"></g>
    </defs>
    <g transform="translate(-89.854 -104.18)">
     <g transform="translate(89.292 110.99)">
      <path id="id-3ac00d90-661e-49b0-b6b0-32857c92b77e" d="m4.25-6.0156c0-0.34375 0-0.48438 0.95312-0.48438h0.32812v-0.3125c-0.35938 0.03125-1.2812 0.03125-1.6875 0.03125s-1.3281 0-1.6875-0.03125v0.3125h0.32812c0.9375 0 0.9375 0.125 0.9375 0.48438v4.4219c-1.2969-0.34375-1.3438-1.8906-1.3438-2.5312-0.015625-1.2031-0.45312-1.3906-0.89062-1.3906h-0.375c-0.14062 0-0.25 0-0.25 0.10938 0 0.046875 0.03125 0.09375 0.09375 0.10938 0.32812 0.03125 0.57812 0.17188 0.59375 1.3438 0 0.23438 0.03125 1.0156 0.5 1.6875 0.39062 0.54688 1 0.82812 1.6719 0.92188v0.5625c0 0.32812 0 0.46875-0.9375 0.46875h-0.32812v0.3125c0.35938-0.03125 1.2656-0.03125 1.6875-0.03125 0.40625 0 1.3281 0 1.6875 0.03125v-0.3125h-0.32812c-0.95312 0-0.95312-0.125-0.95312-0.46875v-0.5625c0.71875-0.09375 1.3281-0.39062 1.7188-0.90625 0.51562-0.70312 0.53125-1.5 0.53125-1.9375 0-0.15625 0.015625-1.0469 0.54688-1.1094 0.0625-0.015625 0.125-0.03125 0.125-0.10938 0-0.10938-0.078125-0.10938-0.23438-0.10938h-0.375c-0.39062 0-0.875 0.0625-0.89062 1.5156-0.015625 1.0938-0.34375 2.1406-1.4219 2.4062z" stroke-width="0"/>
     </g>
     <g transform="translate(97.041 112.48)">
      <path id="id-6501c754-4197-4436-a2b4-17d050f6152a" d="m3.9844-4.625c0-0.015625 0.015625-0.10938 0.015625-0.10938 0-0.046875-0.015625-0.10938-0.10938-0.10938-0.14062 0-0.71875 0.0625-0.89062 0.078125-0.046875 0-0.15625 0.015625-0.15625 0.15625 0 0.09375 0.10938 0.09375 0.1875 0.09375 0.32812 0 0.32812 0.0625 0.32812 0.10938s0 0.09375-0.015625 0.15625l-0.40625 1.5938c-0.14062-0.23438-0.375-0.42188-0.71875-0.42188-0.89062 0-1.7969 0.98438-1.7969 1.9844 0 0.6875 0.45312 1.1562 1.0625 1.1562 0.375 0 0.70312-0.20312 0.98438-0.48438 0.125 0.42188 0.53125 0.48438 0.71875 0.48438 0.25 0 0.42188-0.14062 0.54688-0.35938 0.15625-0.28125 0.25-0.67188 0.25-0.70312 0-0.09375-0.09375-0.09375-0.10938-0.09375-0.10938 0-0.10938 0.03125-0.15625 0.21875-0.09375 0.34375-0.21875 0.75-0.51562 0.75-0.17188 0-0.23438-0.15625-0.23438-0.34375 0-0.125 0.015625-0.1875 0.046875-0.28125zm-1.4844 3.75c-0.046875 0.20312-0.20312 0.34375-0.35938 0.46875-0.0625 0.0625-0.34375 0.28125-0.64062 0.28125-0.26562 0-0.51562-0.1875-0.51562-0.67188 0-0.375 0.20312-1.1406 0.375-1.4219 0.3125-0.5625 0.67188-0.65625 0.85938-0.65625 0.48438 0 0.625 0.53125 0.625 0.60938 0 0.015625-0.015625 0.078125-0.015625 0.09375z" stroke-width="0"/>
     </g>
    </g>
   </g>
   <g transform="matrix(.26458 0 0 .26458 127.32 57.792)" ns45:alignment="middle center" ns45:inkscapeversion="1.1.2" ns45:jacobian_sqrt="0.264583" ns45:pdfconverter="inkscape" ns45:preamble="/home/rik/switchdrive/Notes/talks/03-2022-CIRM-poster/poster_text.tex" ns45:scale="0.75" ns45:stroke-to-path="0" ns45:texconverter="pdflatex" ns45:text="$n_d$" ns45:version="1.6.0">
    <defs>
     <g stroke-width="0"></g>
    </defs>
    <g transform="translate(-89.589 -106.58)">
     <g transform="translate(89.292 110.99)">
      <path d="m0.875-0.59375c-0.03125 0.15625-0.09375 0.39062-0.09375 0.4375 0 0.17188 0.14062 0.26562 0.29688 0.26562 0.125 0 0.29688-0.078125 0.375-0.28125 0-0.015625 0.125-0.48438 0.1875-0.73438l0.21875-0.89062c0.046875-0.23438 0.10938-0.45312 0.17188-0.67188 0.03125-0.17188 0.10938-0.46875 0.125-0.5 0.14062-0.3125 0.67188-1.2188 1.625-1.2188 0.45312 0 0.53125 0.375 0.53125 0.70312 0 0.60938-0.48438 1.8906-0.64062 2.3125-0.09375 0.23438-0.10938 0.35938-0.10938 0.46875 0 0.46875 0.35938 0.8125 0.82812 0.8125 0.9375 0 1.2969-1.4531 1.2969-1.5312 0-0.10938-0.078125-0.10938-0.10938-0.10938-0.10938 0-0.10938 0.03125-0.15625 0.1875-0.20312 0.67188-0.53125 1.2344-1.0156 1.2344-0.17188 0-0.23438-0.09375-0.23438-0.32812 0-0.25 0.078125-0.48438 0.17188-0.70312 0.1875-0.53125 0.60938-1.625 0.60938-2.2031 0-0.65625-0.42188-1.0625-1.1406-1.0625-0.90625 0-1.3906 0.64062-1.5625 0.875-0.046875-0.5625-0.45312-0.875-0.92188-0.875-0.45312 0-0.64062 0.39062-0.73438 0.5625-0.17188 0.34375-0.29688 0.9375-0.29688 0.96875 0 0.10938 0.09375 0.10938 0.10938 0.10938 0.10938 0 0.10938-0.015625 0.17188-0.23438 0.17188-0.70312 0.375-1.1875 0.73438-1.1875 0.1875 0 0.29688 0.125 0.29688 0.45312 0 0.21875-0.03125 0.32812-0.15625 0.84375z" stroke-width="0"/>
     </g>
     <g transform="translate(95.272 112.48)">
      <path d="m3.9844-4.625c0-0.015625 0.015625-0.10938 0.015625-0.10938 0-0.046875-0.015625-0.10938-0.10938-0.10938-0.14062 0-0.71875 0.0625-0.89062 0.078125-0.046875 0-0.15625 0.015625-0.15625 0.15625 0 0.09375 0.10938 0.09375 0.1875 0.09375 0.32812 0 0.32812 0.0625 0.32812 0.10938s0 0.09375-0.015625 0.15625l-0.40625 1.5938c-0.14062-0.23438-0.375-0.42188-0.71875-0.42188-0.89062 0-1.7969 0.98438-1.7969 1.9844 0 0.6875 0.45312 1.1562 1.0625 1.1562 0.375 0 0.70312-0.20312 0.98438-0.48438 0.125 0.42188 0.53125 0.48438 0.71875 0.48438 0.25 0 0.42188-0.14062 0.54688-0.35938 0.15625-0.28125 0.25-0.67188 0.25-0.70312 0-0.09375-0.09375-0.09375-0.10938-0.09375-0.10938 0-0.10938 0.03125-0.15625 0.21875-0.09375 0.34375-0.21875 0.75-0.51562 0.75-0.17188 0-0.23438-0.15625-0.23438-0.34375 0-0.125 0.015625-0.1875 0.046875-0.28125zm-1.4844 3.75c-0.046875 0.20312-0.20312 0.34375-0.35938 0.46875-0.0625 0.0625-0.34375 0.28125-0.64062 0.28125-0.26562 0-0.51562-0.1875-0.51562-0.67188 0-0.375 0.20312-1.1406 0.375-1.4219 0.3125-0.5625 0.67188-0.65625 0.85938-0.65625 0.48438 0 0.625 0.53125 0.625 0.60938 0 0.015625-0.015625 0.078125-0.015625 0.09375z" stroke-width="0"/>
     </g>
    </g>
   </g>
   <g transform="matrix(.35278 0 0 .35278 87.575 46.886)" ns45:alignment="middle center" ns45:inkscapeversion="1.1.2" ns45:jacobian_sqrt="0.352778" ns45:pdfconverter="inkscape" ns45:preamble="/home/rik/switchdrive/Notes/talks/03-2022-CIRM-poster/poster_text.tex" ns45:scale="1.0" ns45:stroke-to-path="0" ns45:texconverter="pdflatex" ns45:text="$\\Omega_{2}^\\dagger$" ns45:version="1.6.0">
    <defs>
     <g id="id-a9912d62-f728-4186-bb39-2cadbb9c38ac" stroke-width="0"></g>
    </defs>
    <g transform="translate(-89.73 -101.3)">
     <g transform="translate(89.292 110.99)">
      <path d="m6.75-1.6094h-0.25c-0.046875 0.25-0.09375 0.48438-0.1875 0.71875-0.046875 0.15625-0.078125 0.25-0.65625 0.25h-0.79688c0.14062-0.5625 0.4375-1.0469 0.89062-1.7031 0.46875-0.70312 0.875-1.3906 0.875-2.1875 0-1.375-1.3438-2.5-3.0312-2.5-1.7031 0-3.0312 1.1406-3.0312 2.5 0 0.79688 0.40625 1.4844 0.875 2.1875 0.4375 0.65625 0.75 1.1406 0.89062 1.7031h-0.79688c-0.57812 0-0.60938-0.09375-0.65625-0.23438-0.09375-0.23438-0.14062-0.48438-0.1875-0.73438h-0.25l0.32812 1.6094h1.5938c0.21875 0 0.25 0 0.25-0.20312 0-0.70312-0.3125-1.5781-0.53125-2.2188-0.21875-0.57812-0.5-1.3594-0.5-2.1094 0-1.5938 1.1094-2.2812 2.0156-2.2812 0.95312 0 2.0156 0.71875 2.0156 2.2812 0 0.75-0.28125 1.5-0.5625 2.3125-0.15625 0.42188-0.46875 1.3281-0.46875 2.0156 0 0.20312 0.03125 0.20312 0.25 0.20312h1.5938z" stroke-width="0"/>
     </g>
     <g transform="translate(96.487 106.2)">
      <path d="m1.9062-2.9062c0.10938 0 0.17188 0.015625 0.39062 0.0625 0.21875 0.0625 0.39062 0.10938 0.51562 0.10938 0.28125 0 0.29688-0.20312 0.29688-0.26562s-0.015625-0.28125-0.29688-0.28125c-0.125 0-0.29688 0.046875-0.51562 0.10938s-0.28125 0.0625-0.39062 0.078125c0.015625-0.25 0.0625-0.53125 0.09375-0.75 0.03125-0.14062 0.09375-0.5 0.09375-0.73438 0-0.21875-0.09375-0.32812-0.26562-0.32812-0.15625 0-0.28125 0.078125-0.28125 0.32812 0 0.21875 0.0625 0.57812 0.10938 0.8125 0.015625 0.078125 0.078125 0.40625 0.078125 0.67188-0.09375-0.015625-0.17188-0.015625-0.375-0.078125-0.21875-0.0625-0.39062-0.10938-0.51562-0.10938-0.28125 0-0.3125 0.21875-0.3125 0.28125 0 0.046875 0.03125 0.26562 0.3125 0.26562 0.125 0 0.29688-0.046875 0.51562-0.10938 0.20312-0.046875 0.28125-0.0625 0.375-0.0625 0 0.17188-0.0625 0.39062-0.09375 0.53125-0.09375 0.4375-0.09375 0.48438-0.09375 0.84375 0 1.3438 0.14062 2.7812 0.15625 2.9219 0.015625 0.0625 0.03125 0.09375 0.125 0.09375 0.10938 0 0.10938-0.03125 0.125-0.125 0-0.015625 0.046875-0.625 0.078125-1.0469 0.03125-0.60938 0.0625-1.2188 0.0625-1.8438 0-0.35938 0-0.40625-0.09375-0.85938-0.015625-0.0625-0.078125-0.34375-0.09375-0.51562z" stroke-width="0"/>
     </g>
     <g transform="translate(96.487 113.65)">
      <path d="m3.5156-1.2656h-0.23438c-0.015625 0.15625-0.09375 0.5625-0.1875 0.625-0.046875 0.046875-0.57812 0.046875-0.6875 0.046875h-1.2812c0.73438-0.64062 0.98438-0.84375 1.3906-1.1719 0.51562-0.40625 1-0.84375 1-1.5 0-0.84375-0.73438-1.3594-1.625-1.3594-0.85938 0-1.4531 0.60938-1.4531 1.25 0 0.34375 0.29688 0.39062 0.375 0.39062 0.15625 0 0.35938-0.125 0.35938-0.375 0-0.125-0.046875-0.375-0.40625-0.375 0.21875-0.48438 0.6875-0.64062 1.0156-0.64062 0.70312 0 1.0625 0.54688 1.0625 1.1094 0 0.60938-0.4375 1.0781-0.65625 1.3281l-1.6719 1.6719c-0.078125 0.0625-0.078125 0.078125-0.078125 0.26562h2.875z" stroke-width="0"/>
     </g>
    </g>
   </g>
   <g transform="matrix(.35278 0 0 .35278 74.157 47.882)" ns45:alignment="middle center" ns45:inkscapeversion="1.1.2" ns45:jacobian_sqrt="0.352778" ns45:pdfconverter="inkscape" ns45:preamble="/home/rik/switchdrive/Notes/talks/03-2022-CIRM-poster/poster_text.tex" ns45:scale="1.0" ns45:stroke-to-path="0" ns45:texconverter="pdflatex" ns45:text="$\\Psi_2$" ns45:version="1.6.0">
    <defs>
     <g stroke-width="0"></g>
    </defs>
    <g id="id-25fb4f92-d070-416b-b268-e00880358eff" transform="translate(-89.854 -104.18)">
     <g transform="translate(89.292 110.99)" stroke-width="0">
      <path d="m4.25-6.0156c0-0.34375 0-0.48438 0.95312-0.48438h0.32812v-0.3125c-0.35938 0.03125-1.2812 0.03125-1.6875 0.03125s-1.3281 0-1.6875-0.03125v0.3125h0.32812c0.9375 0 0.9375 0.125 0.9375 0.48438v4.4219c-1.2969-0.34375-1.3438-1.8906-1.3438-2.5312-0.015625-1.2031-0.45312-1.3906-0.89062-1.3906h-0.375c-0.14062 0-0.25 0-0.25 0.10938 0 0.046875 0.03125 0.09375 0.09375 0.10938 0.32812 0.03125 0.57812 0.17188 0.59375 1.3438 0 0.23438 0.03125 1.0156 0.5 1.6875 0.39062 0.54688 1 0.82812 1.6719 0.92188v0.5625c0 0.32812 0 0.46875-0.9375 0.46875h-0.32812v0.3125c0.35938-0.03125 1.2656-0.03125 1.6875-0.03125 0.40625 0 1.3281 0 1.6875 0.03125v-0.3125h-0.32812c-0.95312 0-0.95312-0.125-0.95312-0.46875v-0.5625c0.71875-0.09375 1.3281-0.39062 1.7188-0.90625 0.51562-0.70312 0.53125-1.5 0.53125-1.9375 0-0.15625 0.015625-1.0469 0.54688-1.1094 0.0625-0.015625 0.125-0.03125 0.125-0.10938 0-0.10938-0.078125-0.10938-0.23438-0.10938h-0.375c-0.39062 0-0.875 0.0625-0.89062 1.5156-0.015625 1.0938-0.34375 2.1406-1.4219 2.4062z" stroke-width="0"/>
     </g>
    </g>
    <g transform="translate(-89.854 -104.18)">
     <g transform="translate(97.041 112.48)" stroke-width="0">
      <path id="id-c30b887d-4f7b-4d27-9255-a32f5035cb3b" d="m3.5156-1.2656h-0.23438c-0.015625 0.15625-0.09375 0.5625-0.1875 0.625-0.046875 0.046875-0.57812 0.046875-0.6875 0.046875h-1.2812c0.73438-0.64062 0.98438-0.84375 1.3906-1.1719 0.51562-0.40625 1-0.84375 1-1.5 0-0.84375-0.73438-1.3594-1.625-1.3594-0.85938 0-1.4531 0.60938-1.4531 1.25 0 0.34375 0.29688 0.39062 0.375 0.39062 0.15625 0 0.35938-0.125 0.35938-0.375 0-0.125-0.046875-0.375-0.40625-0.375 0.21875-0.48438 0.6875-0.64062 1.0156-0.64062 0.70312 0 1.0625 0.54688 1.0625 1.1094 0 0.60938-0.4375 1.0781-0.65625 1.3281l-1.6719 1.6719c-0.078125 0.0625-0.078125 0.078125-0.078125 0.26562h2.875z" stroke-width="0"/>
     </g>
    </g>
   </g>
  </g>
  <rect transform="scale(-1)" x="-32.225" y="-53.469" width="8.5268" height="8.5268" ry="2.3389" fill="url(#radialGradient66257-3-3)" stroke="#000607" stroke-linecap="round" stroke-linejoin="round" stroke-width=".186" style="paint-order:markers fill stroke"/>
  <g transform="matrix(.35278 0 0 .35278 26.681 47.165)" stroke-width="0" ns45:alignment="middle center" ns45:inkscapeversion="1.1.2" ns45:jacobian_sqrt="0.352778" ns45:pdfconverter="inkscape" ns45:preamble="/home/rik/Switchdrive/Notes/talks/03-2022-CIRM-poster/poster_text.tex" ns45:scale="1.0" ns45:stroke-to-path="0" ns45:texconverter="pdflatex" ns45:text="$\\widetilde{\\mathcal T}$" ns45:version="1.8.1">
   <defs>
    <g id="id-6925bbb6-bd5f-4fdb-a653-d5cd6089cacd" stroke-width="0"></g>
   </defs>
   <g transform="translate(-89.636 -101.27)">
    <g transform="translate(90.781 108.47)">
     <path d="m5.3906-7.2031c-0.48438 0.42188-1.0156 0.71875-1.5156 0.71875-0.40625 0-0.6875-0.17188-1.0469-0.375-0.28125-0.17188-0.59375-0.34375-1-0.34375-0.25 0-0.5 0.078125-0.71875 0.1875-0.20312 0.09375-0.40625 0.20312-0.57812 0.34375l-0.53125 0.4375 0.14062 0.17188c0.48438-0.40625 1.0156-0.70312 1.5312-0.70312 0.39062 0 0.6875 0.17188 1.0312 0.35938 0.28125 0.17188 0.59375 0.34375 1 0.34375 0.25 0 0.5-0.078125 0.71875-0.17188 0.20312-0.10938 0.40625-0.21875 0.57812-0.35938l0.53125-0.4375z" stroke-width="0"/>
    </g>
    <g transform="translate(89.292 110.99)">
     <path d="m4.8438-6.1875h1.6562c1.3125 0 1.8125-0.76562 1.8125-0.89062 0-0.046875-0.03125-0.0625-0.09375-0.0625-0.10938 0-0.35938 0.09375-0.60938 0.26562-0.078125 0.0625-0.10938 0.0625-0.29688 0.0625h-4.3594c-1.2344 0-2.6094 1.0781-2.6094 1.8906 0 0.0625 0 0.10938 0.078125 0.10938 0.23438 0 0.85938-0.32812 0.89062-0.5625 0-0.17188 0.015625-0.35938 0.21875-0.60938 0.10938-0.125 0.1875-0.20312 0.625-0.20312h1.9844c-0.17188 0.10938-0.21875 0.25-0.23438 0.35938l-1.1406 4.5156c-0.10938 0.48438-0.32812 1.1094-0.60938 1.7656-0.0625 0.10938-0.0625 0.14062-0.0625 0.15625 0 0.0625 0.046875 0.0625 0.09375 0.0625 0.1875 0 0.6875-0.26562 0.82812-0.46875 0.0625-0.10938 0.5-1.125 0.71875-1.9531z" stroke-width="0"/>
    </g>
   </g>
  </g>
  <g transform="matrix(.26458 0 0 .26458 30.202 57.301)" stroke-width="0" ns45:alignment="middle center" ns45:inkscapeversion="1.1.2" ns45:jacobian_sqrt="0.264583" ns45:pdfconverter="inkscape" ns45:preamble="/home/rik/Switchdrive/Notes/talks/03-2022-CIRM-poster/poster_text.tex" ns45:scale="0.75" ns45:stroke-to-path="0" ns45:texconverter="pdflatex" ns45:text="$n_d$" ns45:version="1.8.1">
   <defs id="id-ae44f2b4-ec92-4d21-b843-b8a19c79dfea">
    <g id="id-de842ffc-b5e3-4c42-8490-063aab126f6f" stroke-width="0"></g>
   </defs>
   <g transform="translate(-89.589 -106.58)">
    <g transform="translate(89.292 110.99)">
     <path d="m0.875-0.59375c-0.03125 0.15625-0.09375 0.39062-0.09375 0.4375 0 0.17188 0.14062 0.26562 0.29688 0.26562 0.125 0 0.29688-0.078125 0.375-0.28125 0-0.015625 0.125-0.48438 0.1875-0.73438l0.21875-0.89062c0.046875-0.23438 0.10938-0.45312 0.17188-0.67188 0.03125-0.17188 0.10938-0.46875 0.125-0.5 0.14062-0.3125 0.67188-1.2188 1.625-1.2188 0.45312 0 0.53125 0.375 0.53125 0.70312 0 0.60938-0.48438 1.8906-0.64062 2.3125-0.09375 0.23438-0.10938 0.35938-0.10938 0.46875 0 0.46875 0.35938 0.8125 0.82812 0.8125 0.9375 0 1.2969-1.4531 1.2969-1.5312 0-0.10938-0.078125-0.10938-0.10938-0.10938-0.10938 0-0.10938 0.03125-0.15625 0.1875-0.20312 0.67188-0.53125 1.2344-1.0156 1.2344-0.17188 0-0.23438-0.09375-0.23438-0.32812 0-0.25 0.078125-0.48438 0.17188-0.70312 0.1875-0.53125 0.60938-1.625 0.60938-2.2031 0-0.65625-0.42188-1.0625-1.1406-1.0625-0.90625 0-1.3906 0.64062-1.5625 0.875-0.046875-0.5625-0.45312-0.875-0.92188-0.875-0.45312 0-0.64062 0.39062-0.73438 0.5625-0.17188 0.34375-0.29688 0.9375-0.29688 0.96875 0 0.10938 0.09375 0.10938 0.10938 0.10938 0.10938 0 0.10938-0.015625 0.17188-0.23438 0.17188-0.70312 0.375-1.1875 0.73438-1.1875 0.1875 0 0.29688 0.125 0.29688 0.45312 0 0.21875-0.03125 0.32812-0.15625 0.84375z" stroke-width="0"/>
    </g>
    <g transform="translate(95.272 112.48)">
     <path d="m3.9844-4.625c0-0.015625 0.015625-0.10938 0.015625-0.10938 0-0.046875-0.015625-0.10938-0.10938-0.10938-0.14062 0-0.71875 0.0625-0.89062 0.078125-0.046875 0-0.15625 0.015625-0.15625 0.15625 0 0.09375 0.10938 0.09375 0.1875 0.09375 0.32812 0 0.32812 0.0625 0.32812 0.10938s0 0.09375-0.015625 0.15625l-0.40625 1.5938c-0.14062-0.23438-0.375-0.42188-0.71875-0.42188-0.89062 0-1.7969 0.98438-1.7969 1.9844 0 0.6875 0.45312 1.1562 1.0625 1.1562 0.375 0 0.70312-0.20312 0.98438-0.48438 0.125 0.42188 0.53125 0.48438 0.71875 0.48438 0.25 0 0.42188-0.14062 0.54688-0.35938 0.15625-0.28125 0.25-0.67188 0.25-0.70312 0-0.09375-0.09375-0.09375-0.10938-0.09375-0.10938 0-0.10938 0.03125-0.15625 0.21875-0.09375 0.34375-0.21875 0.75-0.51562 0.75-0.17188 0-0.23438-0.15625-0.23438-0.34375 0-0.125 0.015625-0.1875 0.046875-0.28125zm-1.4844 3.75c-0.046875 0.20312-0.20312 0.34375-0.35938 0.46875-0.0625 0.0625-0.34375 0.28125-0.64062 0.28125-0.26562 0-0.51562-0.1875-0.51562-0.67188 0-0.375 0.20312-1.1406 0.375-1.4219 0.3125-0.5625 0.67188-0.65625 0.85938-0.65625 0.48438 0 0.625 0.53125 0.625 0.60938 0 0.015625-0.015625 0.078125-0.015625 0.09375z" stroke-width="0"/>
    </g>
   </g>
  </g>
  <g transform="matrix(1.6917 0 0 1.6917 -30.677 -31.129)" stroke-width=".59112">
   <g transform="matrix(.19844 0 0 .19844 39.981 47.185)" ns45:alignment="middle center" ns45:inkscapeversion="1.1.2" ns45:jacobian_sqrt="0.198437" ns45:pdfconverter="inkscape" ns45:preamble="/home/rik/Switchdrive/Notes/talks/03-2022-CIRM-poster/poster_text.tex" ns45:scale="0.75" ns45:stroke-to-path="0" ns45:texconverter="pdflatex" ns45:text=":" ns45:version="1.8.1">
    <defs></defs>
    <g transform="translate(-90.151 -106.69)" stroke-width=".42032">
     <g transform="translate(89.292 110.99)" stroke-width=".59112">
      <path d="m1.9062-3.7656c0-0.29688-0.23438-0.53125-0.51562-0.53125-0.29688 0-0.53125 0.23438-0.53125 0.53125 0 0.28125 0.23438 0.53125 0.53125 0.53125 0.28125 0 0.51562-0.25 0.51562-0.53125zm0 3.2344c0-0.28125-0.23438-0.53125-0.51562-0.53125-0.29688 0-0.53125 0.25-0.53125 0.53125 0 0.29688 0.23438 0.53125 0.53125 0.53125 0.28125 0 0.51562-0.23438 0.51562-0.53125z" stroke-width=".59112"/>
     </g>
    </g>
   </g>
   <g transform="matrix(.19844 0 0 .19844 40.365 47.38)" ns45:alignment="middle center" ns45:inkscapeversion="1.1.2" ns45:jacobian_sqrt="0.198437" ns45:pdfconverter="inkscape" ns45:preamble="/home/rik/Switchdrive/Notes/talks/03-2022-CIRM-poster/poster_text.tex" ns45:scale="0.75" ns45:stroke-to-path="0" ns45:texconverter="pdflatex" ns45:text="=" ns45:version="1.8.1">
    <defs></defs>
    <g id="id-0403bcc1-4ab0-4863-a9c7-79a411767d4f" transform="translate(-89.854 -107.34)" stroke-width=".42032">
     <g transform="translate(89.292 110.99)" stroke-width=".59112">
      <path id="id-1646c3a7-9e95-4e06-b78a-3df014f0ca9a" d="m6.8438-3.2656c0.15625 0 0.34375 0 0.34375-0.1875 0-0.20312-0.1875-0.20312-0.32812-0.20312h-5.9688c-0.14062 0-0.32812 0-0.32812 0.20312 0 0.1875 0.1875 0.1875 0.32812 0.1875zm0.015625 1.9375c0.14062 0 0.32812 0 0.32812-0.20312 0-0.1875-0.1875-0.1875-0.34375-0.1875h-5.9531c-0.14062 0-0.32812 0-0.32812 0.1875 0 0.20312 0.1875 0.20312 0.32812 0.20312z" stroke-width=".59112"/>
     </g>
    </g>
   </g>
  </g>
  <g stroke-width="0">
   <g transform="matrix(.26458 0 0 .26458 54.044 46.526)" ns45:alignment="middle center" ns45:inkscapeversion="1.2.2" ns45:jacobian_sqrt="0.264583" ns45:pdfconverter="inkscape" ns45:preamble="/usr/share/inkscape/extensions/textext/default_packages.tex" ns45:scale="0.75" ns45:stroke-to-path="0" ns45:texconverter="pdflatex" ns45:text="$r_R$" ns45:version="1.8.1">
    <defs id="id-6008ef2e-b4b8-4ad1-9cad-f259f1b6d03d">
     <g stroke-width="0"></g>
    </defs>
    <g id="id-7650adf1-e7b8-4c8b-a63b-17a9bee1957c" transform="translate(-149.01 -130.36)">
     <g transform="translate(148.71 134.76)" stroke-width="0">
      <path d="m0.875-0.59375c-0.03125 0.15625-0.09375 0.39062-0.09375 0.4375 0 0.17188 0.14062 0.26562 0.29688 0.26562 0.125 0 0.29688-0.078125 0.375-0.28125 0.015625-0.03125 0.34375-1.3906 0.39062-1.5781 0.078125-0.32812 0.26562-1.0156 0.3125-1.2969 0.046875-0.125 0.32812-0.59375 0.5625-0.8125 0.078125-0.0625 0.375-0.32812 0.79688-0.32812 0.26562 0 0.40625 0.125 0.42188 0.125-0.29688 0.046875-0.51562 0.28125-0.51562 0.54688 0 0.15625 0.10938 0.34375 0.375 0.34375s0.54688-0.23438 0.54688-0.59375c0-0.34375-0.3125-0.64062-0.82812-0.64062-0.64062 0-1.0781 0.48438-1.2656 0.76562-0.09375-0.45312-0.45312-0.76562-0.92188-0.76562-0.45312 0-0.64062 0.39062-0.73438 0.5625-0.17188 0.34375-0.29688 0.9375-0.29688 0.96875 0 0.10938 0.09375 0.10938 0.10938 0.10938 0.10938 0 0.10938-0.015625 0.17188-0.23438 0.17188-0.70312 0.375-1.1875 0.73438-1.1875 0.15625 0 0.29688 0.078125 0.29688 0.45312 0 0.21875-0.03125 0.32812-0.15625 0.84375z" stroke-width="0"/>
     </g>
    </g>
    <g transform="translate(-149.01 -130.36)">
     <g transform="translate(153.21 136.26)" stroke-width="0">
      <path id="id-23133c83-4a82-4c2a-8409-7c26f1abf4fa" d="m2.875-4.2656c0.046875-0.20312 0.0625-0.21875 0.21875-0.25h0.45312c0.64062 0 1.4375 0 1.4375 0.71875 0 0.29688-0.125 0.73438-0.45312 0.98438-0.28125 0.21875-0.71875 0.32812-1.2031 0.32812h-0.89062zm1.2656 1.8906c0.82812-0.1875 1.5625-0.6875 1.5625-1.3125 0-0.59375-0.70312-1.0781-1.7188-1.0781h-2.1406c-0.125 0-0.21875 0-0.21875 0.15625 0 0.09375 0.078125 0.09375 0.21875 0.09375 0.015625 0 0.14062 0 0.26562 0.015625 0.15625 0.015625 0.15625 0.03125 0.15625 0.10938 0 0 0 0.046875-0.015625 0.14062l-0.9375 3.7031c-0.046875 0.23438-0.0625 0.29688-0.60938 0.29688-0.125 0-0.20312 0-0.20312 0.14062 0 0.078125 0.046875 0.10938 0.10938 0.10938 0.125 0 0.29688-0.015625 0.42188-0.015625 0.14062 0 0.34375-0.015625 0.46875-0.015625 0.14062 0 0.29688 0.015625 0.4375 0.015625 0.15625 0 0.32812 0.015625 0.46875 0.015625 0.046875 0 0.15625 0 0.15625-0.14062 0-0.10938-0.078125-0.10938-0.23438-0.10938-0.10938 0-0.14062 0-0.26562-0.015625-0.15625-0.015625-0.15625-0.03125-0.15625-0.10938 0 0 0-0.046875 0.03125-0.14062l0.4375-1.7656h0.95312c0.59375 0 0.85938 0.29688 0.85938 0.625 0 0.09375-0.0625 0.32812-0.10938 0.48438-0.078125 0.32812-0.10938 0.42188-0.10938 0.54688 0 0.54688 0.51562 0.76562 1.0312 0.76562 0.64062 0 0.92188-0.6875 0.92188-0.8125 0-0.015625-0.015625-0.09375-0.125-0.09375-0.09375 0-0.10938 0.046875-0.125 0.125-0.09375 0.29688-0.35938 0.57812-0.64062 0.57812-0.1875 0-0.32812-0.0625-0.32812-0.45312 0-0.17188 0.046875-0.53125 0.078125-0.71875s0.03125-0.25 0.03125-0.32812 0-0.3125-0.20312-0.51562c-0.125-0.14062-0.3125-0.23438-0.46875-0.29688z" stroke-width="0"/>
     </g>
    </g>
   </g>
   <g transform="matrix(.26458 0 0 .26458 80.814 46.609)" ns45:alignment="middle center" ns45:inkscapeversion="1.2.2" ns45:jacobian_sqrt="0.264583" ns45:pdfconverter="inkscape" ns45:preamble="/usr/share/inkscape/extensions/textext/default_packages.tex" ns45:scale="0.75" ns45:stroke-to-path="0" ns45:texconverter="pdflatex" ns45:text="$r_R$" ns45:version="1.8.1">
    <defs>
     <g stroke-width="0"></g>
    </defs>
    <g transform="translate(-149.01 -130.36)">
     <g transform="translate(148.71 134.76)">
      <path d="m0.875-0.59375c-0.03125 0.15625-0.09375 0.39062-0.09375 0.4375 0 0.17188 0.14062 0.26562 0.29688 0.26562 0.125 0 0.29688-0.078125 0.375-0.28125 0.015625-0.03125 0.34375-1.3906 0.39062-1.5781 0.078125-0.32812 0.26562-1.0156 0.3125-1.2969 0.046875-0.125 0.32812-0.59375 0.5625-0.8125 0.078125-0.0625 0.375-0.32812 0.79688-0.32812 0.26562 0 0.40625 0.125 0.42188 0.125-0.29688 0.046875-0.51562 0.28125-0.51562 0.54688 0 0.15625 0.10938 0.34375 0.375 0.34375s0.54688-0.23438 0.54688-0.59375c0-0.34375-0.3125-0.64062-0.82812-0.64062-0.64062 0-1.0781 0.48438-1.2656 0.76562-0.09375-0.45312-0.45312-0.76562-0.92188-0.76562-0.45312 0-0.64062 0.39062-0.73438 0.5625-0.17188 0.34375-0.29688 0.9375-0.29688 0.96875 0 0.10938 0.09375 0.10938 0.10938 0.10938 0.10938 0 0.10938-0.015625 0.17188-0.23438 0.17188-0.70312 0.375-1.1875 0.73438-1.1875 0.15625 0 0.29688 0.078125 0.29688 0.45312 0 0.21875-0.03125 0.32812-0.15625 0.84375z" stroke-width="0"/>
     </g>
     <g transform="translate(153.21 136.26)">
      <path d="m2.875-4.2656c0.046875-0.20312 0.0625-0.21875 0.21875-0.25h0.45312c0.64062 0 1.4375 0 1.4375 0.71875 0 0.29688-0.125 0.73438-0.45312 0.98438-0.28125 0.21875-0.71875 0.32812-1.2031 0.32812h-0.89062zm1.2656 1.8906c0.82812-0.1875 1.5625-0.6875 1.5625-1.3125 0-0.59375-0.70312-1.0781-1.7188-1.0781h-2.1406c-0.125 0-0.21875 0-0.21875 0.15625 0 0.09375 0.078125 0.09375 0.21875 0.09375 0.015625 0 0.14062 0 0.26562 0.015625 0.15625 0.015625 0.15625 0.03125 0.15625 0.10938 0 0 0 0.046875-0.015625 0.14062l-0.9375 3.7031c-0.046875 0.23438-0.0625 0.29688-0.60938 0.29688-0.125 0-0.20312 0-0.20312 0.14062 0 0.078125 0.046875 0.10938 0.10938 0.10938 0.125 0 0.29688-0.015625 0.42188-0.015625 0.14062 0 0.34375-0.015625 0.46875-0.015625 0.14062 0 0.29688 0.015625 0.4375 0.015625 0.15625 0 0.32812 0.015625 0.46875 0.015625 0.046875 0 0.15625 0 0.15625-0.14062 0-0.10938-0.078125-0.10938-0.23438-0.10938-0.10938 0-0.14062 0-0.26562-0.015625-0.15625-0.015625-0.15625-0.03125-0.15625-0.10938 0 0 0-0.046875 0.03125-0.14062l0.4375-1.7656h0.95312c0.59375 0 0.85938 0.29688 0.85938 0.625 0 0.09375-0.0625 0.32812-0.10938 0.48438-0.078125 0.32812-0.10938 0.42188-0.10938 0.54688 0 0.54688 0.51562 0.76562 1.0312 0.76562 0.64062 0 0.92188-0.6875 0.92188-0.8125 0-0.015625-0.015625-0.09375-0.125-0.09375-0.09375 0-0.10938 0.046875-0.125 0.125-0.09375 0.29688-0.35938 0.57812-0.64062 0.57812-0.1875 0-0.32812-0.0625-0.32812-0.45312 0-0.17188 0.046875-0.53125 0.078125-0.71875s0.03125-0.25 0.03125-0.32812 0-0.3125-0.20312-0.51562c-0.125-0.14062-0.3125-0.23438-0.46875-0.29688z" stroke-width="0"/>
     </g>
    </g>
   </g>
   <g transform="matrix(.26458 0 0 .26458 105.45 46.609)" ns45:alignment="middle center" ns45:inkscapeversion="1.2.2" ns45:jacobian_sqrt="0.264583" ns45:pdfconverter="inkscape" ns45:preamble="/usr/share/inkscape/extensions/textext/default_packages.tex" ns45:scale="0.75" ns45:stroke-to-path="0" ns45:texconverter="pdflatex" ns45:text="$r_R$" ns45:version="1.8.1">
    <defs>
     <g stroke-width="0"></g>
    </defs>
    <g transform="translate(-149.01 -130.36)">
     <g transform="translate(148.71 134.76)">
      <path d="m0.875-0.59375c-0.03125 0.15625-0.09375 0.39062-0.09375 0.4375 0 0.17188 0.14062 0.26562 0.29688 0.26562 0.125 0 0.29688-0.078125 0.375-0.28125 0.015625-0.03125 0.34375-1.3906 0.39062-1.5781 0.078125-0.32812 0.26562-1.0156 0.3125-1.2969 0.046875-0.125 0.32812-0.59375 0.5625-0.8125 0.078125-0.0625 0.375-0.32812 0.79688-0.32812 0.26562 0 0.40625 0.125 0.42188 0.125-0.29688 0.046875-0.51562 0.28125-0.51562 0.54688 0 0.15625 0.10938 0.34375 0.375 0.34375s0.54688-0.23438 0.54688-0.59375c0-0.34375-0.3125-0.64062-0.82812-0.64062-0.64062 0-1.0781 0.48438-1.2656 0.76562-0.09375-0.45312-0.45312-0.76562-0.92188-0.76562-0.45312 0-0.64062 0.39062-0.73438 0.5625-0.17188 0.34375-0.29688 0.9375-0.29688 0.96875 0 0.10938 0.09375 0.10938 0.10938 0.10938 0.10938 0 0.10938-0.015625 0.17188-0.23438 0.17188-0.70312 0.375-1.1875 0.73438-1.1875 0.15625 0 0.29688 0.078125 0.29688 0.45312 0 0.21875-0.03125 0.32812-0.15625 0.84375z" stroke-width="0"/>
     </g>
     <g transform="translate(153.21 136.26)">
      <path d="m2.875-4.2656c0.046875-0.20312 0.0625-0.21875 0.21875-0.25h0.45312c0.64062 0 1.4375 0 1.4375 0.71875 0 0.29688-0.125 0.73438-0.45312 0.98438-0.28125 0.21875-0.71875 0.32812-1.2031 0.32812h-0.89062zm1.2656 1.8906c0.82812-0.1875 1.5625-0.6875 1.5625-1.3125 0-0.59375-0.70312-1.0781-1.7188-1.0781h-2.1406c-0.125 0-0.21875 0-0.21875 0.15625 0 0.09375 0.078125 0.09375 0.21875 0.09375 0.015625 0 0.14062 0 0.26562 0.015625 0.15625 0.015625 0.15625 0.03125 0.15625 0.10938 0 0 0 0.046875-0.015625 0.14062l-0.9375 3.7031c-0.046875 0.23438-0.0625 0.29688-0.60938 0.29688-0.125 0-0.20312 0-0.20312 0.14062 0 0.078125 0.046875 0.10938 0.10938 0.10938 0.125 0 0.29688-0.015625 0.42188-0.015625 0.14062 0 0.34375-0.015625 0.46875-0.015625 0.14062 0 0.29688 0.015625 0.4375 0.015625 0.15625 0 0.32812 0.015625 0.46875 0.015625 0.046875 0 0.15625 0 0.15625-0.14062 0-0.10938-0.078125-0.10938-0.23438-0.10938-0.10938 0-0.14062 0-0.26562-0.015625-0.15625-0.015625-0.15625-0.03125-0.15625-0.10938 0 0 0-0.046875 0.03125-0.14062l0.4375-1.7656h0.95312c0.59375 0 0.85938 0.29688 0.85938 0.625 0 0.09375-0.0625 0.32812-0.10938 0.48438-0.078125 0.32812-0.10938 0.42188-0.10938 0.54688 0 0.54688 0.51562 0.76562 1.0312 0.76562 0.64062 0 0.92188-0.6875 0.92188-0.8125 0-0.015625-0.015625-0.09375-0.125-0.09375-0.09375 0-0.10938 0.046875-0.125 0.125-0.09375 0.29688-0.35938 0.57812-0.64062 0.57812-0.1875 0-0.32812-0.0625-0.32812-0.45312 0-0.17188 0.046875-0.53125 0.078125-0.71875s0.03125-0.25 0.03125-0.32812 0-0.3125-0.20312-0.51562c-0.125-0.14062-0.3125-0.23438-0.46875-0.29688z" stroke-width="0"/>
     </g>
    </g>
   </g>
   <g transform="matrix(.26458 0 0 .26458 67.968 46.479)" ns45:alignment="middle center" ns45:inkscapeversion="1.2.2" ns45:jacobian_sqrt="0.264583" ns45:pdfconverter="inkscape" ns45:preamble="/usr/share/inkscape/extensions/textext/default_packages.tex" ns45:scale="0.75" ns45:stroke-to-path="0" ns45:texconverter="pdflatex" ns45:text="$r_L$" ns45:version="1.8.1">
    <defs>
     <g stroke-width="0"></g>
    </defs>
    <g id="id-866f59d8-675f-4d89-9253-0da443a0751a" transform="translate(-149.01 -130.36)">
     <g transform="translate(148.71 134.76)" stroke-width="0">
      <path d="m0.875-0.59375c-0.03125 0.15625-0.09375 0.39062-0.09375 0.4375 0 0.17188 0.14062 0.26562 0.29688 0.26562 0.125 0 0.29688-0.078125 0.375-0.28125 0.015625-0.03125 0.34375-1.3906 0.39062-1.5781 0.078125-0.32812 0.26562-1.0156 0.3125-1.2969 0.046875-0.125 0.32812-0.59375 0.5625-0.8125 0.078125-0.0625 0.375-0.32812 0.79688-0.32812 0.26562 0 0.40625 0.125 0.42188 0.125-0.29688 0.046875-0.51562 0.28125-0.51562 0.54688 0 0.15625 0.10938 0.34375 0.375 0.34375s0.54688-0.23438 0.54688-0.59375c0-0.34375-0.3125-0.64062-0.82812-0.64062-0.64062 0-1.0781 0.48438-1.2656 0.76562-0.09375-0.45312-0.45312-0.76562-0.92188-0.76562-0.45312 0-0.64062 0.39062-0.73438 0.5625-0.17188 0.34375-0.29688 0.9375-0.29688 0.96875 0 0.10938 0.09375 0.10938 0.10938 0.10938 0.10938 0 0.10938-0.015625 0.17188-0.23438 0.17188-0.70312 0.375-1.1875 0.73438-1.1875 0.15625 0 0.29688 0.078125 0.29688 0.45312 0 0.21875-0.03125 0.32812-0.15625 0.84375z" stroke-width="0"/>
     </g>
    </g>
    <g transform="translate(-149.01 -130.36)">
     <g transform="translate(153.21 136.26)" stroke-width="0">
      <path id="id-8bbd47d1-231b-49da-a0f2-c81f2914095c" d="m2.875-4.1875c0.0625-0.25 0.078125-0.32812 0.71875-0.32812 0.21875 0 0.28125 0 0.28125-0.14062 0-0.015625 0-0.10938-0.10938-0.10938-0.15625 0-0.34375 0.015625-0.51562 0.03125h-0.5625-0.48438c-0.14062 0-0.3125-0.03125-0.45312-0.03125-0.03125 0-0.14062 0-0.14062 0.15625 0 0.09375 0.078125 0.09375 0.21875 0.09375 0.015625 0 0.14062 0 0.26562 0.015625 0.15625 0.015625 0.17188 0.03125 0.17188 0.10938 0 0 0 0.046875-0.03125 0.14062l-0.9375 3.7031c-0.0625 0.23438-0.078125 0.29688-0.60938 0.29688-0.10938 0-0.20312 0-0.20312 0.14062 0 0.10938 0.078125 0.10938 0.20312 0.10938h3.5c0.1875 0 0.1875 0 0.25-0.14062 0.0625-0.1875 0.59375-1.5312 0.59375-1.5938 0-0.015625-0.015625-0.09375-0.125-0.09375-0.078125 0-0.09375 0.03125-0.14062 0.14062-0.26562 0.65625-0.57812 1.4375-1.8438 1.4375h-0.79688c-0.20312 0-0.21875-0.015625-0.21875-0.078125 0 0 0-0.03125 0.03125-0.14062z" stroke-width="0"/>
     </g>
    </g>
   </g>
   <g transform="matrix(.26458 0 0 .26458 94.593 46.815)" ns45:alignment="middle center" ns45:inkscapeversion="1.2.2" ns45:jacobian_sqrt="0.264583" ns45:pdfconverter="inkscape" ns45:preamble="/usr/share/inkscape/extensions/textext/default_packages.tex" ns45:scale="0.75" ns45:stroke-to-path="0" ns45:texconverter="pdflatex" ns45:text="$r_L$" ns45:version="1.8.1">
    <defs>
     <g stroke-width="0"></g>
    </defs>
    <g transform="translate(-149.01 -130.36)">
     <g transform="translate(148.71 134.76)">
      <path d="m0.875-0.59375c-0.03125 0.15625-0.09375 0.39062-0.09375 0.4375 0 0.17188 0.14062 0.26562 0.29688 0.26562 0.125 0 0.29688-0.078125 0.375-0.28125 0.015625-0.03125 0.34375-1.3906 0.39062-1.5781 0.078125-0.32812 0.26562-1.0156 0.3125-1.2969 0.046875-0.125 0.32812-0.59375 0.5625-0.8125 0.078125-0.0625 0.375-0.32812 0.79688-0.32812 0.26562 0 0.40625 0.125 0.42188 0.125-0.29688 0.046875-0.51562 0.28125-0.51562 0.54688 0 0.15625 0.10938 0.34375 0.375 0.34375s0.54688-0.23438 0.54688-0.59375c0-0.34375-0.3125-0.64062-0.82812-0.64062-0.64062 0-1.0781 0.48438-1.2656 0.76562-0.09375-0.45312-0.45312-0.76562-0.92188-0.76562-0.45312 0-0.64062 0.39062-0.73438 0.5625-0.17188 0.34375-0.29688 0.9375-0.29688 0.96875 0 0.10938 0.09375 0.10938 0.10938 0.10938 0.10938 0 0.10938-0.015625 0.17188-0.23438 0.17188-0.70312 0.375-1.1875 0.73438-1.1875 0.15625 0 0.29688 0.078125 0.29688 0.45312 0 0.21875-0.03125 0.32812-0.15625 0.84375z" stroke-width="0"/>
     </g>
     <g transform="translate(153.21 136.26)">
      <path d="m2.875-4.1875c0.0625-0.25 0.078125-0.32812 0.71875-0.32812 0.21875 0 0.28125 0 0.28125-0.14062 0-0.015625 0-0.10938-0.10938-0.10938-0.15625 0-0.34375 0.015625-0.51562 0.03125h-0.5625-0.48438c-0.14062 0-0.3125-0.03125-0.45312-0.03125-0.03125 0-0.14062 0-0.14062 0.15625 0 0.09375 0.078125 0.09375 0.21875 0.09375 0.015625 0 0.14062 0 0.26562 0.015625 0.15625 0.015625 0.17188 0.03125 0.17188 0.10938 0 0 0 0.046875-0.03125 0.14062l-0.9375 3.7031c-0.0625 0.23438-0.078125 0.29688-0.60938 0.29688-0.10938 0-0.20312 0-0.20312 0.14062 0 0.10938 0.078125 0.10938 0.20312 0.10938h3.5c0.1875 0 0.1875 0 0.25-0.14062 0.0625-0.1875 0.59375-1.5312 0.59375-1.5938 0-0.015625-0.015625-0.09375-0.125-0.09375-0.078125 0-0.09375 0.03125-0.14062 0.14062-0.26562 0.65625-0.57812 1.4375-1.8438 1.4375h-0.79688c-0.20312 0-0.21875-0.015625-0.21875-0.078125 0 0 0-0.03125 0.03125-0.14062z" stroke-width="0"/>
     </g>
    </g>
   </g>
   <g transform="matrix(.26458 0 0 .26458 120.23 46.815)" ns45:alignment="middle center" ns45:inkscapeversion="1.2.2" ns45:jacobian_sqrt="0.264583" ns45:pdfconverter="inkscape" ns45:preamble="/usr/share/inkscape/extensions/textext/default_packages.tex" ns45:scale="0.75" ns45:stroke-to-path="0" ns45:texconverter="pdflatex" ns45:text="$r_L$" ns45:version="1.8.1">
    <defs>
     <g stroke-width="0"></g>
    </defs>
    <g transform="translate(-149.01 -130.36)">
     <g transform="translate(148.71 134.76)">
      <path d="m0.875-0.59375c-0.03125 0.15625-0.09375 0.39062-0.09375 0.4375 0 0.17188 0.14062 0.26562 0.29688 0.26562 0.125 0 0.29688-0.078125 0.375-0.28125 0.015625-0.03125 0.34375-1.3906 0.39062-1.5781 0.078125-0.32812 0.26562-1.0156 0.3125-1.2969 0.046875-0.125 0.32812-0.59375 0.5625-0.8125 0.078125-0.0625 0.375-0.32812 0.79688-0.32812 0.26562 0 0.40625 0.125 0.42188 0.125-0.29688 0.046875-0.51562 0.28125-0.51562 0.54688 0 0.15625 0.10938 0.34375 0.375 0.34375s0.54688-0.23438 0.54688-0.59375c0-0.34375-0.3125-0.64062-0.82812-0.64062-0.64062 0-1.0781 0.48438-1.2656 0.76562-0.09375-0.45312-0.45312-0.76562-0.92188-0.76562-0.45312 0-0.64062 0.39062-0.73438 0.5625-0.17188 0.34375-0.29688 0.9375-0.29688 0.96875 0 0.10938 0.09375 0.10938 0.10938 0.10938 0.10938 0 0.10938-0.015625 0.17188-0.23438 0.17188-0.70312 0.375-1.1875 0.73438-1.1875 0.15625 0 0.29688 0.078125 0.29688 0.45312 0 0.21875-0.03125 0.32812-0.15625 0.84375z" stroke-width="0"/>
     </g>
     <g transform="translate(153.21 136.26)">
      <path d="m2.875-4.1875c0.0625-0.25 0.078125-0.32812 0.71875-0.32812 0.21875 0 0.28125 0 0.28125-0.14062 0-0.015625 0-0.10938-0.10938-0.10938-0.15625 0-0.34375 0.015625-0.51562 0.03125h-0.5625-0.48438c-0.14062 0-0.3125-0.03125-0.45312-0.03125-0.03125 0-0.14062 0-0.14062 0.15625 0 0.09375 0.078125 0.09375 0.21875 0.09375 0.015625 0 0.14062 0 0.26562 0.015625 0.15625 0.015625 0.17188 0.03125 0.17188 0.10938 0 0 0 0.046875-0.03125 0.14062l-0.9375 3.7031c-0.0625 0.23438-0.078125 0.29688-0.60938 0.29688-0.10938 0-0.20312 0-0.20312 0.14062 0 0.10938 0.078125 0.10938 0.20312 0.10938h3.5c0.1875 0 0.1875 0 0.25-0.14062 0.0625-0.1875 0.59375-1.5312 0.59375-1.5938 0-0.015625-0.015625-0.09375-0.125-0.09375-0.078125 0-0.09375 0.03125-0.14062 0.14062-0.26562 0.65625-0.57812 1.4375-1.8438 1.4375h-0.79688c-0.20312 0-0.21875-0.015625-0.21875-0.078125 0 0 0-0.03125 0.03125-0.14062z" stroke-width="0"/>
     </g>
    </g>
   </g>
  </g>
 </g>
</svg>
