<?xml version="1.0" encoding="UTF-8"?>
<svg xmlns="http://www.w3.org/2000/svg" xmlns:xlink="http://www.w3.org/1999/xlink" width="223.720272" height="54.447609" viewBox="0 0 223.720272 54.447609">
<defs>
<clipPath id="clip-0">
<path clip-rule="nonzero" d="M 17 0 L 54 0 L 54 42 L 17 42 Z M 17 0 "/>
</clipPath>
<clipPath id="clip-1">
<path clip-rule="nonzero" d="M 46.71875 41.175781 L 24.199219 41.175781 C 20.523438 41.175781 17.566406 38.21875 17.566406 34.546875 L 17.566406 6.953125 C 17.566406 3.28125 20.523438 0.324219 24.199219 0.324219 L 46.71875 0.324219 C 50.390625 0.324219 53.347656 3.28125 53.347656 6.953125 L 53.347656 34.546875 C 53.347656 38.21875 50.390625 41.175781 46.71875 41.175781 Z M 46.71875 41.175781 "/>
</clipPath>
<radialGradient id="radial-pattern-0" gradientUnits="userSpaceOnUse" cx="-146.687745" cy="-176.95149" fx="-146.687745" fy="-176.95149" r="19.576214" gradientTransform="matrix(-0.933794, 0, 0, -1.066206, -101.518112, -167.917505)">
<stop offset="0" stop-color="rgb(88.525391%, 98.022461%, 100%)" stop-opacity="1"/>
<stop offset="0.015625" stop-color="rgb(88.247681%, 97.979736%, 100%)" stop-opacity="1"/>
<stop offset="0.0429688" stop-color="rgb(87.893677%, 97.926331%, 100%)" stop-opacity="1"/>
<stop offset="0.0703125" stop-color="rgb(87.539673%, 97.872925%, 100%)" stop-opacity="1"/>
<stop offset="0.0976562" stop-color="rgb(87.185669%, 97.819519%, 100%)" stop-opacity="1"/>
<stop offset="0.125" stop-color="rgb(86.831665%, 97.766113%, 100%)" stop-opacity="1"/>
<stop offset="0.152344" stop-color="rgb(86.503601%, 97.717285%, 100%)" stop-opacity="1"/>
<stop offset="0.175781" stop-color="rgb(86.199951%, 97.669983%, 100%)" stop-opacity="1"/>
<stop offset="0.199219" stop-color="rgb(85.896301%, 97.624207%, 100%)" stop-opacity="1"/>
<stop offset="0.222656" stop-color="rgb(85.592651%, 97.57843%, 100%)" stop-opacity="1"/>
<stop offset="0.246094" stop-color="rgb(85.289001%, 97.532654%, 100%)" stop-opacity="1"/>
<stop offset="0.269531" stop-color="rgb(85.011292%, 97.489929%, 100%)" stop-opacity="1"/>
<stop offset="0.289062" stop-color="rgb(84.759521%, 97.451782%, 100%)" stop-opacity="1"/>
<stop offset="0.308594" stop-color="rgb(84.506226%, 97.413635%, 100%)" stop-opacity="1"/>
<stop offset="0.328125" stop-color="rgb(84.254456%, 97.375488%, 100%)" stop-opacity="1"/>
<stop offset="0.347656" stop-color="rgb(84.00116%, 97.337341%, 100%)" stop-opacity="1"/>
<stop offset="0.367188" stop-color="rgb(83.747864%, 97.299194%, 100%)" stop-opacity="1"/>
<stop offset="0.386719" stop-color="rgb(83.520508%, 97.264099%, 100%)" stop-opacity="1"/>
<stop offset="0.402344" stop-color="rgb(83.319092%, 97.233582%, 100%)" stop-opacity="1"/>
<stop offset="0.417969" stop-color="rgb(83.11615%, 97.203064%, 100%)" stop-opacity="1"/>
<stop offset="0.433594" stop-color="rgb(82.914734%, 97.172546%, 100%)" stop-opacity="1"/>
<stop offset="0.449219" stop-color="rgb(82.711792%, 97.142029%, 100%)" stop-opacity="1"/>
<stop offset="0.464844" stop-color="rgb(82.50885%, 97.111511%, 100%)" stop-opacity="1"/>
<stop offset="0.480469" stop-color="rgb(82.307434%, 97.080994%, 100%)" stop-opacity="1"/>
<stop offset="0.496094" stop-color="rgb(82.104492%, 97.050476%, 100%)" stop-opacity="1"/>
<stop offset="0.511719" stop-color="rgb(81.826782%, 97.007751%, 100%)" stop-opacity="1"/>
<stop offset="0.539062" stop-color="rgb(81.474304%, 96.954346%, 100%)" stop-opacity="1"/>
<stop offset="0.566406" stop-color="rgb(81.144714%, 96.905518%, 100%)" stop-opacity="1"/>
<stop offset="0.589844" stop-color="rgb(80.841064%, 96.858215%, 100%)" stop-opacity="1"/>
<stop offset="0.613281" stop-color="rgb(80.537415%, 96.812439%, 100%)" stop-opacity="1"/>
<stop offset="0.636719" stop-color="rgb(80.259705%, 96.769714%, 100%)" stop-opacity="1"/>
<stop offset="0.65625" stop-color="rgb(80.007935%, 96.731567%, 100%)" stop-opacity="1"/>
<stop offset="0.675781" stop-color="rgb(79.754639%, 96.69342%, 100%)" stop-opacity="1"/>
<stop offset="0.695312" stop-color="rgb(79.527283%, 96.659851%, 100%)" stop-opacity="1"/>
<stop offset="0.710938" stop-color="rgb(79.324341%, 96.629333%, 100%)" stop-opacity="1"/>
<stop offset="0.726562" stop-color="rgb(79.122925%, 96.598816%, 100%)" stop-opacity="1"/>
<stop offset="0.742188" stop-color="rgb(78.919983%, 96.568298%, 100%)" stop-opacity="1"/>
<stop offset="0.757812" stop-color="rgb(78.642273%, 96.525574%, 100%)" stop-opacity="1"/>
<stop offset="0.785156" stop-color="rgb(78.314209%, 96.47522%, 100%)" stop-opacity="1"/>
<stop offset="0.808594" stop-color="rgb(78.010559%, 96.429443%, 100%)" stop-opacity="1"/>
<stop offset="0.832031" stop-color="rgb(77.732849%, 96.386719%, 100%)" stop-opacity="1"/>
<stop offset="0.851562" stop-color="rgb(77.505493%, 96.353149%, 100%)" stop-opacity="1"/>
<stop offset="0.867188" stop-color="rgb(77.302551%, 96.322632%, 100%)" stop-opacity="1"/>
<stop offset="0.882812" stop-color="rgb(77.024841%, 96.279907%, 100%)" stop-opacity="1"/>
<stop offset="0.910156" stop-color="rgb(76.721191%, 96.234131%, 100%)" stop-opacity="1"/>
<stop offset="0.929688" stop-color="rgb(76.493835%, 96.200562%, 100%)" stop-opacity="1"/>
<stop offset="0.945312" stop-color="rgb(76.216125%, 96.157837%, 100%)" stop-opacity="1"/>
<stop offset="0.972656" stop-color="rgb(75.862122%, 96.104431%, 100%)" stop-opacity="1"/>
<stop offset="1" stop-color="rgb(75.68512%, 96.076965%, 100%)" stop-opacity="1"/>
</radialGradient>
<clipPath id="clip-2">
<path clip-rule="nonzero" d="M 173 11 L 210 11 L 210 31 L 173 31 Z M 173 11 "/>
</clipPath>
<clipPath id="clip-3">
<path clip-rule="nonzero" d="M 202.71875 30.058594 L 180.199219 30.058594 C 176.523438 30.058594 173.566406 27.101562 173.566406 23.429688 L 173.566406 17.941406 C 173.566406 14.265625 176.523438 11.308594 180.199219 11.308594 L 202.71875 11.308594 C 206.390625 11.308594 209.347656 14.265625 209.347656 17.941406 L 209.347656 23.429688 C 209.347656 27.101562 206.390625 30.058594 202.71875 30.058594 Z M 202.71875 30.058594 "/>
</clipPath>
<radialGradient id="radial-pattern-1" gradientUnits="userSpaceOnUse" cx="-104.376521" cy="-125.910866" fx="-104.376521" fy="-125.910866" r="13.929569" gradientTransform="matrix(-1.312327, 0, 0, -0.687673, 54.481895, -65.90054)">
<stop offset="0" stop-color="rgb(88.525391%, 98.022461%, 100%)" stop-opacity="1"/>
<stop offset="0.015625" stop-color="rgb(88.247681%, 97.979736%, 100%)" stop-opacity="1"/>
<stop offset="0.0429688" stop-color="rgb(87.893677%, 97.926331%, 100%)" stop-opacity="1"/>
<stop offset="0.0703125" stop-color="rgb(87.539673%, 97.872925%, 100%)" stop-opacity="1"/>
<stop offset="0.0976562" stop-color="rgb(87.185669%, 97.819519%, 100%)" stop-opacity="1"/>
<stop offset="0.125" stop-color="rgb(86.831665%, 97.766113%, 100%)" stop-opacity="1"/>
<stop offset="0.152344" stop-color="rgb(86.503601%, 97.717285%, 100%)" stop-opacity="1"/>
<stop offset="0.175781" stop-color="rgb(86.199951%, 97.669983%, 100%)" stop-opacity="1"/>
<stop offset="0.199219" stop-color="rgb(85.896301%, 97.624207%, 100%)" stop-opacity="1"/>
<stop offset="0.222656" stop-color="rgb(85.592651%, 97.57843%, 100%)" stop-opacity="1"/>
<stop offset="0.246094" stop-color="rgb(85.289001%, 97.532654%, 100%)" stop-opacity="1"/>
<stop offset="0.269531" stop-color="rgb(85.011292%, 97.489929%, 100%)" stop-opacity="1"/>
<stop offset="0.289062" stop-color="rgb(84.759521%, 97.451782%, 100%)" stop-opacity="1"/>
<stop offset="0.308594" stop-color="rgb(84.506226%, 97.413635%, 100%)" stop-opacity="1"/>
<stop offset="0.328125" stop-color="rgb(84.254456%, 97.375488%, 100%)" stop-opacity="1"/>
<stop offset="0.347656" stop-color="rgb(84.00116%, 97.337341%, 100%)" stop-opacity="1"/>
<stop offset="0.367188" stop-color="rgb(83.747864%, 97.299194%, 100%)" stop-opacity="1"/>
<stop offset="0.386719" stop-color="rgb(83.520508%, 97.264099%, 100%)" stop-opacity="1"/>
<stop offset="0.402344" stop-color="rgb(83.319092%, 97.233582%, 100%)" stop-opacity="1"/>
<stop offset="0.417969" stop-color="rgb(83.11615%, 97.203064%, 100%)" stop-opacity="1"/>
<stop offset="0.433594" stop-color="rgb(82.914734%, 97.172546%, 100%)" stop-opacity="1"/>
<stop offset="0.449219" stop-color="rgb(82.711792%, 97.142029%, 100%)" stop-opacity="1"/>
<stop offset="0.464844" stop-color="rgb(82.50885%, 97.111511%, 100%)" stop-opacity="1"/>
<stop offset="0.480469" stop-color="rgb(82.307434%, 97.080994%, 100%)" stop-opacity="1"/>
<stop offset="0.496094" stop-color="rgb(82.104492%, 97.050476%, 100%)" stop-opacity="1"/>
<stop offset="0.511719" stop-color="rgb(81.826782%, 97.007751%, 100%)" stop-opacity="1"/>
<stop offset="0.539062" stop-color="rgb(81.474304%, 96.954346%, 100%)" stop-opacity="1"/>
<stop offset="0.566406" stop-color="rgb(81.144714%, 96.905518%, 100%)" stop-opacity="1"/>
<stop offset="0.589844" stop-color="rgb(80.841064%, 96.858215%, 100%)" stop-opacity="1"/>
<stop offset="0.613281" stop-color="rgb(80.537415%, 96.812439%, 100%)" stop-opacity="1"/>
<stop offset="0.636719" stop-color="rgb(80.259705%, 96.769714%, 100%)" stop-opacity="1"/>
<stop offset="0.65625" stop-color="rgb(80.007935%, 96.731567%, 100%)" stop-opacity="1"/>
<stop offset="0.675781" stop-color="rgb(79.754639%, 96.69342%, 100%)" stop-opacity="1"/>
<stop offset="0.695312" stop-color="rgb(79.527283%, 96.659851%, 100%)" stop-opacity="1"/>
<stop offset="0.710938" stop-color="rgb(79.324341%, 96.629333%, 100%)" stop-opacity="1"/>
<stop offset="0.726562" stop-color="rgb(79.122925%, 96.598816%, 100%)" stop-opacity="1"/>
<stop offset="0.742188" stop-color="rgb(78.919983%, 96.568298%, 100%)" stop-opacity="1"/>
<stop offset="0.757812" stop-color="rgb(78.642273%, 96.525574%, 100%)" stop-opacity="1"/>
<stop offset="0.785156" stop-color="rgb(78.314209%, 96.47522%, 100%)" stop-opacity="1"/>
<stop offset="0.808594" stop-color="rgb(78.010559%, 96.429443%, 100%)" stop-opacity="1"/>
<stop offset="0.832031" stop-color="rgb(77.732849%, 96.386719%, 100%)" stop-opacity="1"/>
<stop offset="0.851562" stop-color="rgb(77.505493%, 96.353149%, 100%)" stop-opacity="1"/>
<stop offset="0.867188" stop-color="rgb(77.302551%, 96.322632%, 100%)" stop-opacity="1"/>
<stop offset="0.882812" stop-color="rgb(77.024841%, 96.279907%, 100%)" stop-opacity="1"/>
<stop offset="0.910156" stop-color="rgb(76.721191%, 96.234131%, 100%)" stop-opacity="1"/>
<stop offset="0.929688" stop-color="rgb(76.493835%, 96.200562%, 100%)" stop-opacity="1"/>
<stop offset="0.945312" stop-color="rgb(76.216125%, 96.157837%, 100%)" stop-opacity="1"/>
<stop offset="0.972656" stop-color="rgb(75.862122%, 96.104431%, 100%)" stop-opacity="1"/>
<stop offset="1" stop-color="rgb(75.68512%, 96.076965%, 100%)" stop-opacity="1"/>
</radialGradient>
<clipPath id="clip-4">
<path clip-rule="nonzero" d="M 113 0 L 133 0 L 133 42 L 113 42 Z M 113 0 "/>
</clipPath>
<clipPath id="clip-5">
<path clip-rule="nonzero" d="M 125.609375 41.175781 L 120.199219 41.175781 C 116.523438 41.175781 113.566406 38.21875 113.566406 34.546875 L 113.566406 6.953125 C 113.566406 3.28125 116.523438 0.324219 120.199219 0.324219 L 125.609375 0.324219 C 129.28125 0.324219 132.238281 3.28125 132.238281 6.953125 L 132.238281 34.546875 C 132.238281 38.21875 129.28125 41.175781 125.609375 41.175781 Z M 125.609375 41.175781 "/>
</clipPath>
<radialGradient id="radial-pattern-2" gradientUnits="userSpaceOnUse" cx="-113.936062" cy="-137.442675" fx="-113.936062" fy="-137.442675" r="15.205338" gradientTransform="matrix(-0.627306, 0, 0, -1.372694, 51.430136, -167.917505)">
<stop offset="0" stop-color="rgb(88.525391%, 98.022461%, 100%)" stop-opacity="1"/>
<stop offset="0.015625" stop-color="rgb(88.247681%, 97.979736%, 100%)" stop-opacity="1"/>
<stop offset="0.0429688" stop-color="rgb(87.893677%, 97.926331%, 100%)" stop-opacity="1"/>
<stop offset="0.0703125" stop-color="rgb(87.539673%, 97.872925%, 100%)" stop-opacity="1"/>
<stop offset="0.0976562" stop-color="rgb(87.185669%, 97.819519%, 100%)" stop-opacity="1"/>
<stop offset="0.125" stop-color="rgb(86.831665%, 97.766113%, 100%)" stop-opacity="1"/>
<stop offset="0.152344" stop-color="rgb(86.503601%, 97.717285%, 100%)" stop-opacity="1"/>
<stop offset="0.175781" stop-color="rgb(86.199951%, 97.669983%, 100%)" stop-opacity="1"/>
<stop offset="0.199219" stop-color="rgb(85.896301%, 97.624207%, 100%)" stop-opacity="1"/>
<stop offset="0.222656" stop-color="rgb(85.592651%, 97.57843%, 100%)" stop-opacity="1"/>
<stop offset="0.246094" stop-color="rgb(85.289001%, 97.532654%, 100%)" stop-opacity="1"/>
<stop offset="0.269531" stop-color="rgb(85.011292%, 97.489929%, 100%)" stop-opacity="1"/>
<stop offset="0.289062" stop-color="rgb(84.759521%, 97.451782%, 100%)" stop-opacity="1"/>
<stop offset="0.308594" stop-color="rgb(84.506226%, 97.413635%, 100%)" stop-opacity="1"/>
<stop offset="0.328125" stop-color="rgb(84.254456%, 97.375488%, 100%)" stop-opacity="1"/>
<stop offset="0.347656" stop-color="rgb(84.00116%, 97.337341%, 100%)" stop-opacity="1"/>
<stop offset="0.367188" stop-color="rgb(83.747864%, 97.299194%, 100%)" stop-opacity="1"/>
<stop offset="0.386719" stop-color="rgb(83.520508%, 97.264099%, 100%)" stop-opacity="1"/>
<stop offset="0.402344" stop-color="rgb(83.319092%, 97.233582%, 100%)" stop-opacity="1"/>
<stop offset="0.417969" stop-color="rgb(83.11615%, 97.203064%, 100%)" stop-opacity="1"/>
<stop offset="0.433594" stop-color="rgb(82.914734%, 97.172546%, 100%)" stop-opacity="1"/>
<stop offset="0.449219" stop-color="rgb(82.711792%, 97.142029%, 100%)" stop-opacity="1"/>
<stop offset="0.464844" stop-color="rgb(82.50885%, 97.111511%, 100%)" stop-opacity="1"/>
<stop offset="0.480469" stop-color="rgb(82.307434%, 97.080994%, 100%)" stop-opacity="1"/>
<stop offset="0.496094" stop-color="rgb(82.104492%, 97.050476%, 100%)" stop-opacity="1"/>
<stop offset="0.511719" stop-color="rgb(81.826782%, 97.007751%, 100%)" stop-opacity="1"/>
<stop offset="0.539062" stop-color="rgb(81.474304%, 96.954346%, 100%)" stop-opacity="1"/>
<stop offset="0.566406" stop-color="rgb(81.144714%, 96.905518%, 100%)" stop-opacity="1"/>
<stop offset="0.589844" stop-color="rgb(80.841064%, 96.858215%, 100%)" stop-opacity="1"/>
<stop offset="0.613281" stop-color="rgb(80.537415%, 96.812439%, 100%)" stop-opacity="1"/>
<stop offset="0.636719" stop-color="rgb(80.259705%, 96.769714%, 100%)" stop-opacity="1"/>
<stop offset="0.65625" stop-color="rgb(80.007935%, 96.731567%, 100%)" stop-opacity="1"/>
<stop offset="0.675781" stop-color="rgb(79.754639%, 96.69342%, 100%)" stop-opacity="1"/>
<stop offset="0.695312" stop-color="rgb(79.527283%, 96.659851%, 100%)" stop-opacity="1"/>
<stop offset="0.710938" stop-color="rgb(79.324341%, 96.629333%, 100%)" stop-opacity="1"/>
<stop offset="0.726562" stop-color="rgb(79.122925%, 96.598816%, 100%)" stop-opacity="1"/>
<stop offset="0.742188" stop-color="rgb(78.919983%, 96.568298%, 100%)" stop-opacity="1"/>
<stop offset="0.757812" stop-color="rgb(78.642273%, 96.525574%, 100%)" stop-opacity="1"/>
<stop offset="0.785156" stop-color="rgb(78.314209%, 96.47522%, 100%)" stop-opacity="1"/>
<stop offset="0.808594" stop-color="rgb(78.010559%, 96.429443%, 100%)" stop-opacity="1"/>
<stop offset="0.832031" stop-color="rgb(77.732849%, 96.386719%, 100%)" stop-opacity="1"/>
<stop offset="0.851562" stop-color="rgb(77.505493%, 96.353149%, 100%)" stop-opacity="1"/>
<stop offset="0.867188" stop-color="rgb(77.302551%, 96.322632%, 100%)" stop-opacity="1"/>
<stop offset="0.882812" stop-color="rgb(77.024841%, 96.279907%, 100%)" stop-opacity="1"/>
<stop offset="0.910156" stop-color="rgb(76.721191%, 96.234131%, 100%)" stop-opacity="1"/>
<stop offset="0.929688" stop-color="rgb(76.493835%, 96.200562%, 100%)" stop-opacity="1"/>
<stop offset="0.945312" stop-color="rgb(76.216125%, 96.157837%, 100%)" stop-opacity="1"/>
<stop offset="0.972656" stop-color="rgb(75.862122%, 96.104431%, 100%)" stop-opacity="1"/>
<stop offset="1" stop-color="rgb(75.68512%, 96.076965%, 100%)" stop-opacity="1"/>
</radialGradient>
<clipPath id="clip-6">
<path clip-rule="nonzero" d="M 32 49 L 39 49 L 39 54.449219 L 32 54.449219 Z M 32 49 "/>
</clipPath>
<clipPath id="clip-7">
<path clip-rule="nonzero" d="M 121 49 L 126 49 L 126 54.449219 L 121 54.449219 Z M 121 49 "/>
</clipPath>
<clipPath id="clip-8">
<path clip-rule="nonzero" d="M 219 18 L 223.71875 18 L 223.71875 24 L 219 24 Z M 219 18 "/>
</clipPath>
</defs>
<g clip-path="url(#clip-0)">
<g clip-path="url(#clip-1)">
<path fill-rule="nonzero" fill="url(#radial-pattern-0)" d="M 53.347656 41.175781 L 53.347656 0.324219 L 17.566406 0.324219 L 17.566406 41.175781 Z M 53.347656 41.175781 "/>
</g>
</g>
<path fill="none" stroke-width="0.527247" stroke-linecap="round" stroke-linejoin="round" stroke="rgb(0%, 2.352905%, 2.745056%)" stroke-opacity="1" stroke-miterlimit="4" d="M -46.71875 -41.175781 L -24.199219 -41.175781 C -20.523438 -41.175781 -17.566406 -38.21875 -17.566406 -34.546875 L -17.566406 -6.953125 C -17.566406 -3.28125 -20.523438 -0.324219 -24.199219 -0.324219 L -46.71875 -0.324219 C -50.390625 -0.324219 -53.347656 -3.28125 -53.347656 -6.953125 L -53.347656 -34.546875 C -53.347656 -38.21875 -50.390625 -41.175781 -46.71875 -41.175781 Z M -46.71875 -41.175781 " transform="matrix(-1, 0, 0, -1, 0, 0)"/>
<g clip-path="url(#clip-2)">
<g clip-path="url(#clip-3)">
<path fill-rule="nonzero" fill="url(#radial-pattern-1)" d="M 209.347656 30.058594 L 209.347656 11.308594 L 173.566406 11.308594 L 173.566406 30.058594 Z M 209.347656 30.058594 "/>
</g>
</g>
<path fill="none" stroke-width="0.527247" stroke-linecap="round" stroke-linejoin="round" stroke="rgb(0%, 2.352905%, 2.745056%)" stroke-opacity="1" stroke-miterlimit="4" d="M -202.71875 -30.058594 L -180.199219 -30.058594 C -176.523438 -30.058594 -173.566406 -27.101562 -173.566406 -23.429688 L -173.566406 -17.941406 C -173.566406 -14.265625 -176.523438 -11.308594 -180.199219 -11.308594 L -202.71875 -11.308594 C -206.390625 -11.308594 -209.347656 -14.265625 -209.347656 -17.941406 L -209.347656 -23.429688 C -209.347656 -27.101562 -206.390625 -30.058594 -202.71875 -30.058594 Z M -202.71875 -30.058594 " transform="matrix(-1, 0, 0, -1, 0, 0)"/>
<g clip-path="url(#clip-4)">
<g clip-path="url(#clip-5)">
<path fill-rule="nonzero" fill="url(#radial-pattern-2)" d="M 132.238281 41.175781 L 132.238281 0.324219 L 113.566406 0.324219 L 113.566406 41.175781 Z M 132.238281 41.175781 "/>
</g>
</g>
<path fill="none" stroke-width="0.527247" stroke-linecap="round" stroke-linejoin="round" stroke="rgb(0%, 2.352905%, 2.745056%)" stroke-opacity="1" stroke-miterlimit="4" d="M -125.609375 -41.175781 L -120.199219 -41.175781 C -116.523438 -41.175781 -113.566406 -38.21875 -113.566406 -34.546875 L -113.566406 -6.953125 C -113.566406 -3.28125 -116.523438 -0.324219 -120.199219 -0.324219 L -125.609375 -0.324219 C -129.28125 -0.324219 -132.238281 -3.28125 -132.238281 -6.953125 L -132.238281 -34.546875 C -132.238281 -38.21875 -129.28125 -41.175781 -125.609375 -41.175781 Z M -125.609375 -41.175781 " transform="matrix(-1, 0, 0, -1, 0, 0)"/>
<path fill-rule="nonzero" fill="rgb(0%, 0%, 0%)" fill-opacity="1" d="M 0.640625 22.296875 C 0.609375 22.453125 0.546875 22.703125 0.546875 22.765625 C 0.546875 22.953125 0.703125 23.0625 0.859375 23.0625 C 1 23.0625 1.1875 22.96875 1.265625 22.75 C 1.28125 22.734375 1.40625 22.21875 1.46875 21.9375 L 1.71875 20.96875 C 1.78125 20.71875 1.84375 20.484375 1.90625 20.234375 C 1.9375 20.046875 2.03125 19.734375 2.046875 19.6875 C 2.203125 19.34375 2.78125 18.359375 3.828125 18.359375 C 4.3125 18.359375 4.40625 18.765625 4.40625 19.125 C 4.40625 19.390625 4.328125 19.703125 4.25 20.03125 L 3.9375 21.296875 L 3.71875 22.125 C 3.671875 22.34375 3.578125 22.703125 3.578125 22.765625 C 3.578125 22.953125 3.734375 23.0625 3.890625 23.0625 C 4.234375 23.0625 4.296875 22.78125 4.390625 22.4375 C 4.546875 21.828125 4.9375 20.234375 5.046875 19.8125 C 5.078125 19.671875 5.65625 18.359375 6.84375 18.359375 C 7.3125 18.359375 7.4375 18.734375 7.4375 19.125 C 7.4375 19.734375 6.96875 20.984375 6.75 21.5625 C 6.65625 21.828125 6.609375 21.9375 6.609375 22.15625 C 6.609375 22.671875 7 23.0625 7.5 23.0625 C 8.53125 23.0625 8.9375 21.46875 8.9375 21.375 C 8.9375 21.265625 8.84375 21.265625 8.8125 21.265625 C 8.703125 21.265625 8.703125 21.296875 8.640625 21.46875 C 8.484375 22.046875 8.125 22.8125 7.53125 22.8125 C 7.34375 22.8125 7.265625 22.703125 7.265625 22.453125 C 7.265625 22.1875 7.359375 21.921875 7.46875 21.6875 C 7.671875 21.109375 8.125 19.90625 8.125 19.28125 C 8.125 18.578125 7.6875 18.109375 6.875 18.109375 C 6.0625 18.109375 5.5 18.59375 5.09375 19.171875 C 5.09375 19.03125 5.046875 18.65625 4.75 18.40625 C 4.46875 18.171875 4.125 18.109375 3.859375 18.109375 C 2.875 18.109375 2.34375 18.8125 2.15625 19.0625 C 2.09375 18.4375 1.640625 18.109375 1.15625 18.109375 C 0.640625 18.109375 0.4375 18.546875 0.34375 18.734375 C 0.140625 19.125 0 19.765625 0 19.796875 C 0 19.90625 0.109375 19.90625 0.140625 19.90625 C 0.25 19.90625 0.25 19.890625 0.3125 19.65625 C 0.5 18.875 0.71875 18.359375 1.109375 18.359375 C 1.296875 18.359375 1.453125 18.4375 1.453125 18.859375 C 1.453125 19.09375 1.421875 19.203125 1.28125 19.78125 Z M 0.640625 22.296875 "/>
<path fill-rule="nonzero" fill="rgb(0%, 0%, 0%)" fill-opacity="1" d="M 32.976562 22.398438 C 32.539062 23.117188 32.117188 23.273438 31.632812 23.304688 C 31.507812 23.320312 31.398438 23.320312 31.398438 23.523438 C 31.398438 23.601562 31.460938 23.648438 31.554688 23.648438 C 31.835938 23.648438 32.179688 23.617188 32.492188 23.617188 C 32.851562 23.617188 33.226562 23.648438 33.570312 23.648438 C 33.648438 23.648438 33.789062 23.648438 33.789062 23.445312 C 33.789062 23.320312 33.679688 23.304688 33.601562 23.304688 C 33.351562 23.289062 33.101562 23.195312 33.101562 22.929688 C 33.101562 22.804688 33.164062 22.679688 33.242188 22.523438 L 34.070312 21.132812 L 36.820312 21.132812 C 36.835938 21.351562 36.992188 22.835938 36.992188 22.945312 C 36.992188 23.273438 36.429688 23.304688 36.210938 23.304688 C 36.054688 23.304688 35.945312 23.304688 35.945312 23.523438 C 35.945312 23.648438 36.070312 23.648438 36.101562 23.648438 C 36.539062 23.648438 37.007812 23.617188 37.460938 23.617188 C 37.726562 23.617188 38.414062 23.648438 38.695312 23.648438 C 38.757812 23.648438 38.882812 23.648438 38.882812 23.429688 C 38.882812 23.304688 38.773438 23.304688 38.632812 23.304688 C 37.960938 23.304688 37.960938 23.226562 37.929688 22.914062 L 37.257812 16.101562 C 37.242188 15.882812 37.242188 15.835938 37.054688 15.835938 C 36.882812 15.835938 36.835938 15.914062 36.773438 16.023438 Z M 34.289062 20.789062 L 36.429688 17.195312 L 36.789062 20.789062 Z M 34.289062 20.789062 "/>
<path fill-rule="nonzero" fill="rgb(0%, 0%, 0%)" fill-opacity="1" d="M 123.089844 19.878906 L 122.167969 17.707031 C 122.136719 17.628906 122.105469 17.582031 122.105469 17.566406 C 122.105469 17.503906 122.292969 17.300781 122.761719 17.253906 C 122.871094 17.238281 122.980469 17.238281 122.980469 17.050781 C 122.980469 16.910156 122.839844 16.910156 122.808594 16.910156 C 122.355469 16.910156 121.886719 16.941406 121.433594 16.941406 C 121.167969 16.941406 120.480469 16.910156 120.214844 16.910156 C 120.152344 16.910156 120.011719 16.910156 120.011719 17.128906 C 120.011719 17.253906 120.121094 17.253906 120.261719 17.253906 C 120.917969 17.253906 120.996094 17.363281 121.089844 17.597656 L 122.371094 20.644531 L 120.074219 23.113281 L 119.933594 23.238281 C 119.402344 23.816406 118.886719 23.988281 118.324219 24.019531 C 118.183594 24.035156 118.089844 24.035156 118.089844 24.238281 C 118.089844 24.253906 118.089844 24.363281 118.230469 24.363281 C 118.558594 24.363281 118.917969 24.332031 119.261719 24.332031 C 119.652344 24.332031 120.089844 24.363281 120.480469 24.363281 C 120.542969 24.363281 120.667969 24.363281 120.667969 24.144531 C 120.667969 24.035156 120.558594 24.019531 120.542969 24.019531 C 120.449219 24.019531 120.105469 23.988281 120.105469 23.691406 C 120.105469 23.519531 120.261719 23.332031 120.402344 23.191406 L 121.511719 22.019531 L 122.496094 20.957031 L 123.589844 23.550781 C 123.636719 23.675781 123.652344 23.691406 123.652344 23.707031 C 123.652344 23.800781 123.449219 23.988281 123.011719 24.019531 C 122.902344 24.035156 122.792969 24.050781 122.792969 24.238281 C 122.792969 24.363281 122.917969 24.363281 122.964844 24.363281 C 123.261719 24.363281 124.027344 24.332031 124.339844 24.332031 C 124.605469 24.332031 125.277344 24.363281 125.542969 24.363281 C 125.621094 24.363281 125.761719 24.363281 125.761719 24.160156 C 125.761719 24.019531 125.652344 24.019531 125.558594 24.019531 C 124.824219 24.019531 124.808594 23.988281 124.621094 23.550781 C 124.199219 22.535156 123.464844 20.832031 123.214844 20.175781 C 123.949219 19.410156 125.105469 18.113281 125.449219 17.816406 C 125.761719 17.550781 126.183594 17.285156 126.839844 17.253906 C 126.980469 17.238281 127.074219 17.238281 127.074219 17.035156 C 127.074219 17.019531 127.074219 16.910156 126.933594 16.910156 C 126.605469 16.910156 126.246094 16.941406 125.902344 16.941406 C 125.496094 16.941406 125.089844 16.910156 124.699219 16.910156 C 124.636719 16.910156 124.496094 16.910156 124.496094 17.128906 C 124.496094 17.207031 124.542969 17.238281 124.621094 17.253906 C 124.714844 17.269531 125.058594 17.285156 125.058594 17.597656 C 125.058594 17.738281 124.933594 17.878906 124.855469 17.988281 Z M 123.089844 19.878906 "/>
<path fill-rule="nonzero" fill="rgb(0%, 0%, 0%)" fill-opacity="1" d="M 190.730469 19.109375 L 190.871094 18.953125 C 191.199219 18.625 191.558594 18.25 192.308594 18.203125 C 192.433594 18.1875 192.527344 18.1875 192.527344 18 C 192.527344 17.90625 192.464844 17.859375 192.386719 17.859375 C 192.105469 17.859375 191.777344 17.890625 191.496094 17.890625 C 191.136719 17.890625 190.746094 17.859375 190.402344 17.859375 C 190.339844 17.859375 190.199219 17.859375 190.199219 18.078125 C 190.199219 18.1875 190.292969 18.203125 190.355469 18.203125 C 190.433594 18.203125 190.746094 18.21875 190.746094 18.453125 C 190.746094 18.640625 190.496094 18.921875 190.449219 18.96875 L 187.917969 21.890625 L 186.730469 18.65625 C 186.652344 18.5 186.652344 18.46875 186.652344 18.46875 C 186.652344 18.203125 187.199219 18.203125 187.308594 18.203125 C 187.449219 18.203125 187.558594 18.203125 187.558594 17.984375 C 187.558594 17.859375 187.433594 17.859375 187.402344 17.859375 C 187.089844 17.859375 186.324219 17.890625 186.027344 17.890625 C 185.746094 17.890625 185.074219 17.859375 184.808594 17.859375 C 184.746094 17.859375 184.589844 17.859375 184.589844 18.078125 C 184.589844 18.203125 184.699219 18.203125 184.839844 18.203125 C 185.496094 18.203125 185.542969 18.296875 185.636719 18.578125 L 186.980469 22.15625 C 186.996094 22.1875 187.027344 22.3125 187.027344 22.34375 C 187.027344 22.375 186.589844 24.140625 186.542969 24.328125 C 186.402344 24.9375 186.386719 24.96875 185.511719 24.96875 C 185.308594 24.96875 185.214844 24.96875 185.214844 25.1875 C 185.214844 25.3125 185.355469 25.3125 185.371094 25.3125 C 185.683594 25.3125 186.433594 25.28125 186.746094 25.28125 C 187.042969 25.28125 187.839844 25.3125 188.136719 25.3125 C 188.214844 25.3125 188.355469 25.3125 188.355469 25.09375 C 188.355469 24.96875 188.246094 24.96875 188.042969 24.96875 C 188.027344 24.96875 187.808594 24.96875 187.621094 24.953125 C 187.402344 24.9375 187.339844 24.90625 187.339844 24.78125 C 187.339844 24.703125 187.433594 24.3125 187.480469 24.09375 L 187.871094 22.546875 C 187.917969 22.34375 187.933594 22.3125 188.027344 22.21875 Z M 190.730469 19.109375 "/>
<path fill-rule="nonzero" fill="rgb(0%, 0%, 0%)" fill-opacity="1" d="M 196.441406 16.199219 L 198.785156 16.199219 C 198.910156 16.199219 199.082031 16.199219 199.082031 16.011719 C 199.082031 15.824219 198.910156 15.824219 198.785156 15.824219 L 193.753906 15.824219 C 193.613281 15.824219 193.441406 15.824219 193.441406 16.011719 C 193.441406 16.199219 193.613281 16.199219 193.753906 16.199219 L 196.082031 16.199219 L 196.082031 21.042969 C 196.082031 21.183594 196.082031 21.355469 196.269531 21.355469 C 196.441406 21.355469 196.441406 21.183594 196.441406 21.058594 Z M 196.441406 16.199219 "/>
<path fill-rule="nonzero" fill="rgb(0%, 0%, 0%)" fill-opacity="1" d="M 13.902344 25.652344 C 13.902344 24.136719 13.074219 21.832031 11.167969 20.613281 C 12.355469 19.824219 13.761719 18.210938 13.886719 15.632812 L 13.902344 15.550781 L 13.902344 6.042969 C 13.902344 4.902344 13.902344 4.664062 13.980469 4.132812 C 14.183594 3.03125 14.699219 1.671875 16.089844 0.648438 C 16.183594 0.570312 16.183594 0.570312 16.183594 0.316406 C 16.183594 0.0195312 16.183594 0 15.933594 0 C 15.746094 0 15.714844 0 15.433594 0.214844 C 12.980469 1.96875 12.839844 4.527344 12.839844 5 L 12.839844 14.765625 C 12.839844 15.769531 12.839844 16.871094 12.277344 18.132812 C 11.777344 19.273438 11.183594 19.824219 10.714844 20.238281 C 10.558594 20.355469 10.558594 20.375 10.558594 20.59375 C 10.558594 20.847656 10.558594 20.867188 10.652344 20.925781 C 11.574219 21.695312 12.574219 22.914062 12.808594 25.160156 C 12.839844 25.453125 12.839844 25.492188 12.839844 25.652344 L 12.839844 36.203125 C 12.839844 37.324219 13.386719 39.628906 15.496094 41.027344 C 15.746094 41.203125 15.761719 41.203125 15.933594 41.203125 C 16.183594 41.203125 16.183594 41.203125 16.183594 40.886719 C 16.183594 40.652344 16.183594 40.632812 16.136719 40.613281 C 15.667969 40.238281 14.230469 39.15625 13.949219 36.753906 C 13.902344 36.398438 13.902344 36.378906 13.902344 36.203125 Z M 13.902344 25.652344 "/>
<path fill-rule="nonzero" fill="rgb(0%, 0%, 0%)" fill-opacity="1" d="M 96.640625 22.296875 C 96.609375 22.453125 96.546875 22.703125 96.546875 22.765625 C 96.546875 22.953125 96.703125 23.0625 96.859375 23.0625 C 97 23.0625 97.1875 22.96875 97.265625 22.75 C 97.28125 22.734375 97.40625 22.21875 97.46875 21.9375 L 97.71875 20.96875 C 97.78125 20.71875 97.84375 20.484375 97.90625 20.234375 C 97.9375 20.046875 98.03125 19.734375 98.046875 19.6875 C 98.203125 19.34375 98.78125 18.359375 99.828125 18.359375 C 100.3125 18.359375 100.40625 18.765625 100.40625 19.125 C 100.40625 19.390625 100.328125 19.703125 100.25 20.03125 L 99.9375 21.296875 L 99.71875 22.125 C 99.671875 22.34375 99.578125 22.703125 99.578125 22.765625 C 99.578125 22.953125 99.734375 23.0625 99.890625 23.0625 C 100.234375 23.0625 100.296875 22.78125 100.390625 22.4375 C 100.546875 21.828125 100.9375 20.234375 101.046875 19.8125 C 101.078125 19.671875 101.65625 18.359375 102.84375 18.359375 C 103.3125 18.359375 103.4375 18.734375 103.4375 19.125 C 103.4375 19.734375 102.96875 20.984375 102.75 21.5625 C 102.65625 21.828125 102.609375 21.9375 102.609375 22.15625 C 102.609375 22.671875 103 23.0625 103.5 23.0625 C 104.53125 23.0625 104.9375 21.46875 104.9375 21.375 C 104.9375 21.265625 104.84375 21.265625 104.8125 21.265625 C 104.703125 21.265625 104.703125 21.296875 104.640625 21.46875 C 104.484375 22.046875 104.125 22.8125 103.53125 22.8125 C 103.34375 22.8125 103.265625 22.703125 103.265625 22.453125 C 103.265625 22.1875 103.359375 21.921875 103.46875 21.6875 C 103.671875 21.109375 104.125 19.90625 104.125 19.28125 C 104.125 18.578125 103.6875 18.109375 102.875 18.109375 C 102.0625 18.109375 101.5 18.59375 101.09375 19.171875 C 101.09375 19.03125 101.046875 18.65625 100.75 18.40625 C 100.46875 18.171875 100.125 18.109375 99.859375 18.109375 C 98.875 18.109375 98.34375 18.8125 98.15625 19.0625 C 98.09375 18.4375 97.640625 18.109375 97.15625 18.109375 C 96.640625 18.109375 96.4375 18.546875 96.34375 18.734375 C 96.140625 19.125 96 19.765625 96 19.796875 C 96 19.90625 96.109375 19.90625 96.140625 19.90625 C 96.25 19.90625 96.25 19.890625 96.3125 19.65625 C 96.5 18.875 96.71875 18.359375 97.109375 18.359375 C 97.296875 18.359375 97.453125 18.4375 97.453125 18.859375 C 97.453125 19.09375 97.421875 19.203125 97.28125 19.78125 Z M 96.640625 22.296875 "/>
<path fill-rule="nonzero" fill="rgb(0%, 0%, 0%)" fill-opacity="1" d="M 109.902344 25.652344 C 109.902344 24.136719 109.074219 21.832031 107.167969 20.613281 C 108.355469 19.824219 109.761719 18.210938 109.886719 15.632812 L 109.902344 15.550781 L 109.902344 6.042969 C 109.902344 4.902344 109.902344 4.664062 109.980469 4.132812 C 110.183594 3.03125 110.699219 1.671875 112.089844 0.648438 C 112.183594 0.570312 112.183594 0.570312 112.183594 0.316406 C 112.183594 0.0195312 112.183594 0 111.933594 0 C 111.746094 0 111.714844 0 111.433594 0.214844 C 108.980469 1.96875 108.839844 4.527344 108.839844 5 L 108.839844 14.765625 C 108.839844 15.769531 108.839844 16.871094 108.277344 18.132812 C 107.777344 19.273438 107.183594 19.824219 106.714844 20.238281 C 106.558594 20.355469 106.558594 20.375 106.558594 20.59375 C 106.558594 20.847656 106.558594 20.867188 106.652344 20.925781 C 107.574219 21.695312 108.574219 22.914062 108.808594 25.160156 C 108.839844 25.453125 108.839844 25.492188 108.839844 25.652344 L 108.839844 36.203125 C 108.839844 37.324219 109.386719 39.628906 111.496094 41.027344 C 111.746094 41.203125 111.761719 41.203125 111.933594 41.203125 C 112.183594 41.203125 112.183594 41.203125 112.183594 40.886719 C 112.183594 40.652344 112.183594 40.632812 112.136719 40.613281 C 111.667969 40.238281 110.230469 39.15625 109.949219 36.753906 C 109.902344 36.398438 109.902344 36.378906 109.902344 36.203125 Z M 109.902344 25.652344 "/>
<path fill-rule="nonzero" fill="rgb(0%, 0%, 0%)" fill-opacity="1" d="M 39.707031 44.382812 C 38.382812 44.382812 36.367188 45.210938 35.300781 47.117188 C 34.613281 45.929688 33.199219 44.523438 30.945312 44.398438 L 30.875 44.382812 L 22.5625 44.382812 C 21.5625 44.382812 21.355469 44.382812 20.890625 44.304688 C 19.925781 44.101562 18.738281 43.585938 17.84375 42.195312 C 17.773438 42.101562 17.773438 42.101562 17.550781 42.101562 C 17.292969 42.101562 17.277344 42.101562 17.277344 42.351562 C 17.277344 42.539062 17.277344 42.570312 17.464844 42.851562 C 18.996094 45.304688 21.234375 45.445312 21.648438 45.445312 L 30.1875 45.445312 C 31.066406 45.445312 32.03125 45.445312 33.132812 46.007812 C 34.128906 46.507812 34.613281 47.101562 34.972656 47.570312 C 35.078125 47.726562 35.09375 47.726562 35.28125 47.726562 C 35.507812 47.726562 35.523438 47.726562 35.574219 47.632812 C 36.246094 46.710938 37.3125 45.710938 39.277344 45.476562 C 39.535156 45.445312 39.570312 45.445312 39.707031 45.445312 L 48.933594 45.445312 C 49.914062 45.445312 51.929688 44.898438 53.152344 42.789062 C 53.308594 42.539062 53.308594 42.523438 53.308594 42.351562 C 53.308594 42.101562 53.308594 42.101562 53.03125 42.101562 C 52.824219 42.101562 52.808594 42.101562 52.789062 42.148438 C 52.464844 42.617188 51.515625 44.054688 49.417969 44.335938 C 49.105469 44.382812 49.089844 44.382812 48.933594 44.382812 Z M 39.707031 44.382812 "/>
<g clip-path="url(#clip-6)">
<path fill-rule="nonzero" fill="rgb(0%, 0%, 0%)" fill-opacity="1" d="M 33.332031 53.683594 C 33.300781 53.839844 33.238281 54.089844 33.238281 54.152344 C 33.238281 54.339844 33.394531 54.449219 33.550781 54.449219 C 33.691406 54.449219 33.878906 54.355469 33.957031 54.136719 C 33.972656 54.121094 34.097656 53.605469 34.160156 53.324219 L 34.410156 52.355469 C 34.472656 52.105469 34.535156 51.871094 34.597656 51.621094 C 34.628906 51.433594 34.722656 51.121094 34.738281 51.074219 C 34.894531 50.730469 35.472656 49.746094 36.519531 49.746094 C 37.003906 49.746094 37.097656 50.152344 37.097656 50.511719 C 37.097656 51.183594 36.566406 52.574219 36.394531 53.042969 C 36.300781 53.292969 36.285156 53.433594 36.285156 53.542969 C 36.285156 54.058594 36.660156 54.449219 37.175781 54.449219 C 38.207031 54.449219 38.613281 52.855469 38.613281 52.761719 C 38.613281 52.652344 38.503906 52.652344 38.472656 52.652344 C 38.363281 52.652344 38.363281 52.683594 38.316406 52.855469 C 38.097656 53.589844 37.738281 54.199219 37.207031 54.199219 C 37.019531 54.199219 36.941406 54.089844 36.941406 53.839844 C 36.941406 53.574219 37.035156 53.308594 37.128906 53.074219 C 37.347656 52.496094 37.800781 51.292969 37.800781 50.667969 C 37.800781 49.933594 37.332031 49.496094 36.550781 49.496094 C 35.566406 49.496094 35.035156 50.199219 34.847656 50.449219 C 34.785156 49.839844 34.347656 49.496094 33.847656 49.496094 C 33.332031 49.496094 33.128906 49.933594 33.019531 50.121094 C 32.847656 50.496094 32.691406 51.136719 32.691406 51.183594 C 32.691406 51.292969 32.800781 51.292969 32.832031 51.292969 C 32.941406 51.292969 32.941406 51.277344 33.003906 51.042969 C 33.191406 50.261719 33.410156 49.746094 33.800781 49.746094 C 34.019531 49.746094 34.144531 49.886719 34.144531 50.246094 C 34.144531 50.480469 34.113281 50.589844 33.972656 51.167969 Z M 33.332031 53.683594 "/>
</g>
<path fill-rule="nonzero" fill="rgb(0%, 0%, 0%)" fill-opacity="1" d="M 195.707031 32.382812 C 194.382812 32.382812 192.367188 33.210938 191.300781 35.117188 C 190.613281 33.929688 189.199219 32.523438 186.945312 32.398438 L 186.875 32.382812 L 178.5625 32.382812 C 177.5625 32.382812 177.355469 32.382812 176.890625 32.304688 C 175.925781 32.101562 174.738281 31.585938 173.84375 30.195312 C 173.773438 30.101562 173.773438 30.101562 173.550781 30.101562 C 173.292969 30.101562 173.277344 30.101562 173.277344 30.351562 C 173.277344 30.539062 173.277344 30.570312 173.464844 30.851562 C 174.996094 33.304688 177.234375 33.445312 177.648438 33.445312 L 186.1875 33.445312 C 187.066406 33.445312 188.03125 33.445312 189.132812 34.007812 C 190.128906 34.507812 190.613281 35.101562 190.972656 35.570312 C 191.078125 35.726562 191.09375 35.726562 191.28125 35.726562 C 191.507812 35.726562 191.523438 35.726562 191.574219 35.632812 C 192.246094 34.710938 193.3125 33.710938 195.277344 33.476562 C 195.535156 33.445312 195.570312 33.445312 195.707031 33.445312 L 204.933594 33.445312 C 205.914062 33.445312 207.929688 32.898438 209.152344 30.789062 C 209.308594 30.539062 209.308594 30.523438 209.308594 30.351562 C 209.308594 30.101562 209.308594 30.101562 209.03125 30.101562 C 208.824219 30.101562 208.808594 30.101562 208.789062 30.148438 C 208.464844 30.617188 207.515625 32.054688 205.417969 32.335938 C 205.105469 32.382812 205.089844 32.382812 204.933594 32.382812 Z M 195.707031 32.382812 "/>
<path fill-rule="nonzero" fill="rgb(0%, 0%, 0%)" fill-opacity="1" d="M 125.402344 43.339844 C 124.695312 43.339844 123.625 44.167969 123.054688 46.074219 C 122.6875 44.886719 121.9375 43.480469 120.738281 43.355469 L 120.699219 43.339844 L 116.273438 43.339844 C 115.742188 43.339844 115.632812 43.339844 115.382812 43.261719 C 114.871094 43.058594 114.238281 42.542969 113.761719 41.152344 C 113.722656 41.058594 113.722656 41.058594 113.605469 41.058594 C 113.46875 41.058594 113.457031 41.058594 113.457031 41.308594 C 113.457031 41.496094 113.457031 41.527344 113.558594 41.808594 C 114.375 44.261719 115.566406 44.402344 115.785156 44.402344 L 120.332031 44.402344 C 120.800781 44.402344 121.3125 44.402344 121.902344 44.964844 C 122.433594 45.464844 122.6875 46.058594 122.882812 46.527344 C 122.9375 46.683594 122.945312 46.683594 123.046875 46.683594 C 123.164062 46.683594 123.175781 46.683594 123.203125 46.589844 C 123.558594 45.667969 124.128906 44.667969 125.171875 44.433594 C 125.308594 44.402344 125.328125 44.402344 125.402344 44.402344 L 130.316406 44.402344 C 130.835938 44.402344 131.910156 43.855469 132.5625 41.746094 C 132.644531 41.496094 132.644531 41.480469 132.644531 41.308594 C 132.644531 41.058594 132.644531 41.058594 132.496094 41.058594 C 132.386719 41.058594 132.378906 41.058594 132.367188 41.105469 C 132.195312 41.574219 131.691406 43.011719 130.570312 43.292969 C 130.40625 43.339844 130.398438 43.339844 130.316406 43.339844 Z M 125.402344 43.339844 "/>
<path fill-rule="nonzero" fill="rgb(0%, 0%, 0%)" fill-opacity="1" d="M 189.332031 41.683594 C 189.300781 41.839844 189.238281 42.089844 189.238281 42.152344 C 189.238281 42.339844 189.394531 42.449219 189.550781 42.449219 C 189.691406 42.449219 189.878906 42.355469 189.957031 42.136719 C 189.972656 42.121094 190.097656 41.605469 190.160156 41.324219 L 190.410156 40.355469 C 190.472656 40.105469 190.535156 39.871094 190.597656 39.621094 C 190.628906 39.433594 190.722656 39.121094 190.738281 39.074219 C 190.894531 38.730469 191.472656 37.746094 192.519531 37.746094 C 193.003906 37.746094 193.097656 38.152344 193.097656 38.511719 C 193.097656 39.183594 192.566406 40.574219 192.394531 41.042969 C 192.300781 41.292969 192.285156 41.433594 192.285156 41.542969 C 192.285156 42.058594 192.660156 42.449219 193.175781 42.449219 C 194.207031 42.449219 194.613281 40.855469 194.613281 40.761719 C 194.613281 40.652344 194.503906 40.652344 194.472656 40.652344 C 194.363281 40.652344 194.363281 40.683594 194.316406 40.855469 C 194.097656 41.589844 193.738281 42.199219 193.207031 42.199219 C 193.019531 42.199219 192.941406 42.089844 192.941406 41.839844 C 192.941406 41.574219 193.035156 41.308594 193.128906 41.074219 C 193.347656 40.496094 193.800781 39.292969 193.800781 38.667969 C 193.800781 37.933594 193.332031 37.496094 192.550781 37.496094 C 191.566406 37.496094 191.035156 38.199219 190.847656 38.449219 C 190.785156 37.839844 190.347656 37.496094 189.847656 37.496094 C 189.332031 37.496094 189.128906 37.933594 189.019531 38.121094 C 188.847656 38.496094 188.691406 39.136719 188.691406 39.183594 C 188.691406 39.292969 188.800781 39.292969 188.832031 39.292969 C 188.941406 39.292969 188.941406 39.277344 189.003906 39.042969 C 189.191406 38.261719 189.410156 37.746094 189.800781 37.746094 C 190.019531 37.746094 190.144531 37.886719 190.144531 38.246094 C 190.144531 38.480469 190.113281 38.589844 189.972656 39.167969 Z M 189.332031 41.683594 "/>
<path fill-rule="nonzero" fill="rgb(0%, 0%, 0%)" fill-opacity="1" d="M 152.875 20.269531 L 149.171875 16.59375 C 148.960938 16.382812 148.910156 16.332031 148.777344 16.332031 C 148.59375 16.332031 148.40625 16.515625 148.40625 16.699219 C 148.40625 16.832031 148.433594 16.886719 148.644531 17.070312 L 152.320312 20.796875 L 148.644531 24.496094 C 148.433594 24.679688 148.40625 24.734375 148.40625 24.867188 C 148.40625 25.050781 148.59375 25.238281 148.777344 25.238281 C 148.910156 25.238281 148.960938 25.183594 149.171875 24.972656 L 152.847656 21.296875 L 156.652344 25.132812 C 156.707031 25.132812 156.839844 25.238281 156.945312 25.238281 C 157.15625 25.238281 157.3125 25.050781 157.3125 24.867188 C 157.3125 24.8125 157.3125 24.761719 157.261719 24.65625 C 157.234375 24.628906 154.300781 21.722656 153.375 20.796875 L 156.757812 17.414062 C 156.839844 17.308594 157.128906 17.070312 157.207031 16.9375 C 157.234375 16.910156 157.3125 16.832031 157.3125 16.699219 C 157.3125 16.515625 157.15625 16.332031 156.945312 16.332031 C 156.785156 16.332031 156.707031 16.410156 156.519531 16.621094 Z M 152.875 20.269531 "/>
<g clip-path="url(#clip-7)">
<path fill-rule="nonzero" fill="rgb(0%, 0%, 0%)" fill-opacity="1" d="M 122.070312 53.308594 C 122.039062 53.464844 121.976562 53.714844 121.976562 53.777344 C 121.976562 53.964844 122.132812 54.074219 122.289062 54.074219 C 122.429688 54.074219 122.617188 53.980469 122.695312 53.761719 C 122.726562 53.714844 123.085938 52.230469 123.132812 52.042969 C 123.226562 51.683594 123.414062 50.917969 123.476562 50.621094 C 123.523438 50.480469 123.835938 49.964844 124.101562 49.730469 C 124.179688 49.652344 124.492188 49.371094 124.960938 49.371094 C 125.257812 49.371094 125.414062 49.496094 125.429688 49.496094 C 125.101562 49.558594 124.851562 49.808594 124.851562 50.105469 C 124.851562 50.277344 124.976562 50.480469 125.273438 50.480469 C 125.570312 50.480469 125.867188 50.230469 125.867188 49.839844 C 125.867188 49.449219 125.523438 49.121094 124.960938 49.121094 C 124.257812 49.121094 123.773438 49.667969 123.570312 49.964844 C 123.476562 49.480469 123.085938 49.121094 122.585938 49.121094 C 122.070312 49.121094 121.867188 49.558594 121.773438 49.746094 C 121.570312 50.121094 121.429688 50.777344 121.429688 50.808594 C 121.429688 50.917969 121.539062 50.917969 121.570312 50.917969 C 121.679688 50.917969 121.679688 50.902344 121.742188 50.667969 C 121.929688 49.886719 122.148438 49.371094 122.539062 49.371094 C 122.726562 49.371094 122.882812 49.449219 122.882812 49.871094 C 122.882812 50.105469 122.851562 50.214844 122.710938 50.792969 Z M 122.070312 53.308594 "/>
</g>
<path fill-rule="nonzero" fill="rgb(0%, 0%, 0%)" fill-opacity="1" d="M 213.523438 22.980469 C 213.523438 22.273438 214.351562 21.199219 216.257812 20.632812 C 215.070312 20.265625 213.664062 19.515625 213.539062 18.3125 L 213.523438 18.277344 L 213.523438 13.847656 C 213.523438 13.316406 213.523438 13.207031 213.445312 12.960938 C 213.242188 12.445312 212.726562 11.816406 211.335938 11.339844 C 211.242188 11.300781 211.242188 11.300781 211.242188 11.183594 C 211.242188 11.042969 211.242188 11.035156 211.492188 11.035156 C 211.679688 11.035156 211.710938 11.035156 211.992188 11.136719 C 214.445312 11.953125 214.585938 13.144531 214.585938 13.363281 L 214.585938 17.910156 C 214.585938 18.378906 214.585938 18.890625 215.148438 19.476562 C 215.648438 20.007812 216.242188 20.265625 216.710938 20.457031 C 216.867188 20.511719 216.867188 20.523438 216.867188 20.625 C 216.867188 20.742188 216.867188 20.75 216.773438 20.777344 C 215.851562 21.136719 214.851562 21.703125 214.617188 22.75 C 214.585938 22.886719 214.585938 22.90625 214.585938 22.980469 L 214.585938 27.890625 C 214.585938 28.414062 214.039062 29.488281 211.929688 30.136719 C 211.679688 30.21875 211.664062 30.21875 211.492188 30.21875 C 211.242188 30.21875 211.242188 30.21875 211.242188 30.074219 C 211.242188 29.964844 211.242188 29.953125 211.289062 29.945312 C 211.757812 29.769531 213.195312 29.265625 213.476562 28.148438 C 213.523438 27.984375 213.523438 27.972656 213.523438 27.890625 Z M 213.523438 22.980469 "/>
<g clip-path="url(#clip-8)">
<path fill-rule="nonzero" fill="rgb(0%, 0%, 0%)" fill-opacity="1" d="M 219.921875 22.382812 C 219.890625 22.539062 219.828125 22.789062 219.828125 22.851562 C 219.828125 23.039062 219.984375 23.148438 220.140625 23.148438 C 220.28125 23.148438 220.46875 23.054688 220.546875 22.835938 C 220.578125 22.789062 220.9375 21.304688 220.984375 21.117188 C 221.078125 20.757812 221.265625 19.992188 221.328125 19.695312 C 221.375 19.554688 221.6875 19.039062 221.953125 18.804688 C 222.03125 18.726562 222.34375 18.445312 222.8125 18.445312 C 223.109375 18.445312 223.265625 18.570312 223.28125 18.570312 C 222.953125 18.632812 222.703125 18.882812 222.703125 19.179688 C 222.703125 19.351562 222.828125 19.554688 223.125 19.554688 C 223.421875 19.554688 223.71875 19.304688 223.71875 18.914062 C 223.71875 18.523438 223.375 18.195312 222.8125 18.195312 C 222.109375 18.195312 221.625 18.742188 221.421875 19.039062 C 221.328125 18.554688 220.9375 18.195312 220.4375 18.195312 C 219.921875 18.195312 219.71875 18.632812 219.625 18.820312 C 219.421875 19.195312 219.28125 19.851562 219.28125 19.882812 C 219.28125 19.992188 219.390625 19.992188 219.421875 19.992188 C 219.53125 19.992188 219.53125 19.976562 219.59375 19.742188 C 219.78125 18.960938 220 18.445312 220.390625 18.445312 C 220.578125 18.445312 220.734375 18.523438 220.734375 18.945312 C 220.734375 19.179688 220.703125 19.289062 220.5625 19.867188 Z M 219.921875 22.382812 "/>
</g>
<path fill-rule="nonzero" fill="rgb(0%, 0%, 0%)" fill-opacity="1" d="M 79.304688 19.628906 C 79.59375 19.628906 79.972656 19.628906 79.972656 19.222656 C 79.972656 18.820312 79.59375 18.820312 79.304688 18.820312 L 67.199219 18.820312 C 66.910156 18.820312 66.53125 18.820312 66.53125 19.222656 C 66.53125 19.628906 66.910156 19.628906 67.226562 19.628906 Z M 79.304688 23.539062 C 79.59375 23.539062 79.972656 23.539062 79.972656 23.132812 C 79.972656 22.730469 79.59375 22.730469 79.304688 22.730469 L 67.226562 22.730469 C 66.910156 22.730469 66.53125 22.730469 66.53125 23.132812 C 66.53125 23.539062 66.910156 23.539062 67.199219 23.539062 Z M 79.304688 23.539062 "/>
</svg>
