<?xml version="1.0" encoding="UTF-8"?>
<!-- Created with Inkscape (http://www.inkscape.org/) -->
<svg width="156.12mm" height="37.681mm" version="1.1" viewBox="0 0 156.12 37.681" xmlns="http://www.w3.org/2000/svg" xmlns:ns45="http://www.iki.fi/pav/software/textext/" xmlns:xlink="http://www.w3.org/1999/xlink">
 <defs>
  <linearGradient id="linearGradient65489">
   <stop stop-color="#e2faff" offset="0"/>
   <stop stop-color="#c1f5ff" offset="1"/>
  </linearGradient>
  <radialGradient id="radialGradient66159-9" cx="-32.643" cy="-39.378" r="4.3564" gradientTransform="matrix(2.5347 0 0 2.5347 9.8389 58.432)" gradientUnits="userSpaceOnUse" xlink:href="#linearGradient65489"/>
  <radialGradient id="radialGradient66159-9-5" cx="-32.643" cy="-39.378" r="4.3564" gradientTransform="matrix(.49975 0 0 2.5347 -22.374 58.432)" gradientUnits="userSpaceOnUse" xlink:href="#linearGradient65489"/>
  <radialGradient id="radialGradient66159-9-3" cx="-32.643" cy="-39.378" r="4.3564" gradientTransform="matrix(3.4039 0 0 3.4039 16.698 83.206)" gradientUnits="userSpaceOnUse" xlink:href="#linearGradient65489"/>
  <radialGradient id="radialGradient66159-9-3-7" cx="-32.643" cy="-39.378" r="4.3564" gradientTransform="matrix(3.4039 0 0 3.4039 10.591 112.25)" gradientUnits="userSpaceOnUse" xlink:href="#linearGradient65489"/>
 </defs>
 <g transform="translate(-29.651 -23.662)">
  <rect transform="scale(-1)" x="-83.71" y="-52.188" width="21.613" height="21.613" rx="0" ry="0" fill="url(#radialGradient66159-9)" stroke="#000607" stroke-linecap="round" stroke-linejoin="round" stroke-width=".1385" style="paint-order:markers fill stroke"/>
  <g fill="none" stroke="#000" stroke-width=".186">
   <path transform="matrix(.74465 0 0 .74465 38.059 2.4485)" d="m32.256 43.434h29.107z"/>
   <path transform="matrix(.74465 0 0 .74465 38.059 6.6489)" d="m32.256 43.434h29.107z"/>
   <path transform="matrix(.74465 0 0 .74465 38.059 10.843)" d="m32.256 43.434h29.107z"/>
   <path transform="matrix(.74465 0 0 .74465 38.059 15.037)" d="m32.256 43.434h29.107z"/>
   <path transform="matrix(0 .74465 -.74465 0 111.55 6.4459)" d="m32.256 43.434h29.107z"/>
   <path transform="matrix(0 .74465 -.74465 0 107.35 6.4459)" d="m32.256 43.434h29.107z"/>
   <path transform="matrix(0 .74465 -.74465 0 103.16 6.4459)" d="m32.256 43.434h29.107z"/>
   <path transform="matrix(0 .74465 -.74465 0 98.964 6.4459)" d="m32.256 43.434h29.107z"/>
  </g>
  <rect transform="scale(-1)" x="-40.818" y="-52.188" width="4.2613" height="21.613" rx="0" ry="0" fill="url(#radialGradient66159-9-5)" stroke="#000607" stroke-linecap="round" stroke-linejoin="round" stroke-width=".1385" style="paint-order:markers fill stroke"/>
  <g fill="none" stroke="#000" stroke-width=".186">
   <path transform="matrix(.14663 0 0 .74465 31.767 2.4485)" d="m32.256 43.434h29.107z"/>
   <path transform="matrix(.14663 0 0 .74465 31.767 6.6489)" d="m32.256 43.434h29.107z"/>
   <path transform="matrix(.14663 0 0 .74465 31.767 10.843)" d="m32.256 43.434h29.107z"/>
   <path transform="matrix(.14663 0 0 .74465 31.767 15.037)" d="m32.256 43.434h29.107z"/>
  </g>
  <g transform="matrix(.66585 0 0 .66978 45.7 8.431)" stroke-width=".186">
   <g transform="matrix(.82739 0 0 .82739 13.776 11.305)">
    <rect transform="scale(-1)" x="-108.93" y="-65.347" width="29.025" height="29.025" rx="0" ry="0" fill="url(#radialGradient66159-9-3)" stroke="#000607" stroke-linecap="round" stroke-linejoin="round" style="paint-order:markers fill stroke"/>
    <g fill="none" stroke="#000">
     <path transform="translate(47.625 -1.4486)" d="m32.256 43.434h29.107z"/>
     <path transform="translate(47.625 4.1922)" d="m32.256 43.434h29.107z"/>
     <path transform="translate(47.625 9.8242)" d="m32.256 43.434h29.107z"/>
     <path transform="translate(47.625 15.456)" d="m32.256 43.434h29.107z"/>
     <path transform="rotate(90 71.2 75.12)" d="m32.256 43.434h29.107z"/>
     <path transform="rotate(90 68.38 72.3)" d="m32.256 43.434h29.107z"/>
     <path transform="rotate(90 65.564 69.484)" d="m32.256 43.434h29.107z"/>
     <path transform="rotate(90 62.748 66.668)" d="m32.256 43.434h29.107z"/>
    </g>
    <rect transform="scale(-1)" x="-108.93" y="-65.347" width="29.025" height="29.025" rx="0" ry="0" fill="url(#radialGradient66159-9-3)" stroke="#000607" stroke-linecap="round" stroke-linejoin="round" style="paint-order:markers fill stroke"/>
    <rect transform="scale(-1)" x="-108.93" y="-65.347" width="29.025" height="29.025" rx="0" ry="0" fill="url(#radialGradient66159-9-3)" stroke="#000607" stroke-linecap="round" stroke-linejoin="round" style="paint-order:markers fill stroke"/>
    <g fill="none" stroke="#000">
     <path transform="translate(47.625 -1.4486)" d="m32.256 43.434h29.107z"/>
     <path transform="translate(47.625 4.1922)" d="m32.256 43.434h29.107z"/>
     <path transform="translate(47.625 9.8242)" d="m32.256 43.434h29.107z"/>
     <path transform="translate(47.625 15.456)" d="m32.256 43.434h29.107z"/>
     <path transform="rotate(90 71.2 75.12)" d="m32.256 43.434h29.107z"/>
     <path transform="rotate(90 68.38 72.3)" d="m32.256 43.434h29.107z"/>
     <path transform="rotate(90 65.564 69.484)" d="m32.256 43.434h29.107z"/>
     <path transform="rotate(90 62.748 66.668)" d="m32.256 43.434h29.107z"/>
    </g>
   </g>
   <g transform="matrix(.82711 0 -.40063 .26359 23.432 31.842)">
    <rect transform="scale(-1)" x="-115.04" y="-36.302" width="29.025" height="29.025" rx="0" ry="0" fill="url(#radialGradient66159-9-3-7)" stroke="#000607" stroke-linecap="round" stroke-linejoin="round" style="paint-order:markers fill stroke"/>
    <g fill="none" stroke="#000">
     <path transform="translate(53.732 -30.494)" d="m32.256 43.434h29.107z"/>
     <path transform="translate(53.732 -24.853)" d="m32.256 43.434h29.107z"/>
     <path transform="translate(53.732 -19.221)" d="m32.256 43.434h29.107z"/>
     <path transform="translate(53.732 -13.589)" d="m32.256 43.434h29.107z"/>
     <path transform="rotate(90 88.777 63.651)" d="m32.256 43.434h29.107z"/>
     <path transform="rotate(90 85.956 60.83)" d="m32.256 43.434h29.107z"/>
     <path transform="rotate(90 83.14 58.014)" d="m32.256 43.434h29.107z"/>
     <path transform="rotate(90 80.324 55.198)" d="m32.256 43.434h29.107z"/>
    </g>
   </g>
   <g transform="matrix(.39952 -.26234 0 .82822 72.007 32.255)">
    <rect transform="scale(-1)" x="-108.93" y="-65.347" width="29.025" height="29.025" rx="0" ry="0" fill="url(#radialGradient66159-9-3)" stroke="#000607" stroke-linecap="round" stroke-linejoin="round" style="paint-order:markers fill stroke"/>
    <g fill="none" stroke="#000">
     <path transform="translate(47.625 -1.4486)" d="m32.256 43.434h29.107z"/>
     <path transform="translate(47.625 4.1922)" d="m32.256 43.434h29.107z"/>
     <path transform="translate(47.625 9.8242)" d="m32.256 43.434h29.107z"/>
     <path transform="translate(47.625 15.456)" d="m32.256 43.434h29.107z"/>
     <path transform="rotate(90 71.2 75.12)" d="m32.256 43.434h29.107z"/>
     <path transform="rotate(90 68.38 72.3)" d="m32.256 43.434h29.107z"/>
     <path transform="rotate(90 65.564 69.484)" d="m32.256 43.434h29.107z"/>
     <path transform="rotate(90 62.748 66.668)" d="m32.256 43.434h29.107z"/>
    </g>
    <rect transform="scale(-1)" x="-108.93" y="-65.347" width="29.025" height="29.025" rx="0" ry="0" fill="url(#radialGradient66159-9-3)" stroke="#000607" stroke-linecap="round" stroke-linejoin="round" style="paint-order:markers fill stroke"/>
    <rect transform="scale(-1)" x="-108.93" y="-65.347" width="29.025" height="29.025" rx="0" ry="0" fill="url(#radialGradient66159-9-3)" stroke="#000607" stroke-linecap="round" stroke-linejoin="round" style="paint-order:markers fill stroke"/>
    <g fill="none" stroke="#000">
     <path transform="translate(47.625 -1.4486)" d="m32.256 43.434h29.107z"/>
     <path transform="translate(47.625 4.1922)" d="m32.256 43.434h29.107z"/>
     <path transform="translate(47.625 9.8242)" d="m32.256 43.434h29.107z"/>
     <path transform="translate(47.625 15.456)" d="m32.256 43.434h29.107z"/>
     <path transform="rotate(90 71.2 75.12)" d="m32.256 43.434h29.107z"/>
     <path transform="rotate(90 68.38 72.3)" d="m32.256 43.434h29.107z"/>
     <path transform="rotate(90 65.564 69.484)" d="m32.256 43.434h29.107z"/>
     <path transform="rotate(90 62.748 66.668)" d="m32.256 43.434h29.107z"/>
    </g>
   </g>
  </g>
  <g transform="matrix(.23984 0 0 .23984 120.75 32.19)" stroke-width=".186">
   <rect transform="scale(-1)" x="-108.93" y="-65.347" width="29.025" height="29.025" rx="0" ry="0" fill="url(#radialGradient66159-9-3)" stroke="#000607" stroke-linecap="round" stroke-linejoin="round" style="paint-order:markers fill stroke"/>
   <g fill="none" stroke="#000">
    <path transform="translate(47.625 -1.4486)" d="m32.256 43.434h29.107z"/>
    <path transform="translate(47.625 4.1922)" d="m32.256 43.434h29.107z"/>
    <path transform="translate(47.625 9.8242)" d="m32.256 43.434h29.107z"/>
    <path transform="translate(47.625 15.456)" d="m32.256 43.434h29.107z"/>
    <path transform="rotate(90 71.2 75.12)" d="m32.256 43.434h29.107z"/>
    <path transform="rotate(90 68.38 72.3)" d="m32.256 43.434h29.107z"/>
    <path transform="rotate(90 65.564 69.484)" d="m32.256 43.434h29.107z"/>
    <path transform="rotate(90 62.748 66.668)" d="m32.256 43.434h29.107z"/>
   </g>
   <rect transform="scale(-1)" x="-108.93" y="-65.347" width="29.025" height="29.025" rx="0" ry="0" fill="url(#radialGradient66159-9-3)" stroke="#000607" stroke-linecap="round" stroke-linejoin="round" style="paint-order:markers fill stroke"/>
   <rect transform="scale(-1)" x="-108.93" y="-65.347" width="29.025" height="29.025" rx="0" ry="0" fill="url(#radialGradient66159-9-3)" stroke="#000607" stroke-linecap="round" stroke-linejoin="round" style="paint-order:markers fill stroke"/>
   <g fill="none" stroke="#000">
    <path transform="translate(47.625 -1.4486)" d="m32.256 43.434h29.107z"/>
    <path transform="translate(47.625 4.1922)" d="m32.256 43.434h29.107z"/>
    <path transform="translate(47.625 9.8242)" d="m32.256 43.434h29.107z"/>
    <path transform="translate(47.625 15.456)" d="m32.256 43.434h29.107z"/>
    <path transform="rotate(90 71.2 75.12)" d="m32.256 43.434h29.107z"/>
    <path transform="rotate(90 68.38 72.3)" d="m32.256 43.434h29.107z"/>
    <path transform="rotate(90 65.564 69.484)" d="m32.256 43.434h29.107z"/>
    <path transform="rotate(90 62.748 66.668)" d="m32.256 43.434h29.107z"/>
   </g>
  </g>
  <g transform="matrix(.23975 0 -.11613 .076407 123.55 38.143)" stroke-width=".186">
   <rect transform="scale(-1)" x="-115.04" y="-36.302" width="29.025" height="29.025" rx="0" ry="0" fill="url(#radialGradient66159-9-3-7)" stroke="#000607" stroke-linecap="round" stroke-linejoin="round" style="paint-order:markers fill stroke"/>
   <g fill="none" stroke="#000">
    <path transform="translate(53.732 -30.494)" d="m32.256 43.434h29.107z"/>
    <path transform="translate(53.732 -24.853)" d="m32.256 43.434h29.107z"/>
    <path transform="translate(53.732 -19.221)" d="m32.256 43.434h29.107z"/>
    <path transform="translate(53.732 -13.589)" d="m32.256 43.434h29.107z"/>
    <path transform="rotate(90 88.777 63.651)" d="m32.256 43.434h29.107z"/>
    <path transform="rotate(90 85.956 60.83)" d="m32.256 43.434h29.107z"/>
    <path transform="rotate(90 83.14 58.014)" d="m32.256 43.434h29.107z"/>
    <path transform="rotate(90 80.324 55.198)" d="m32.256 43.434h29.107z"/>
   </g>
  </g>
  <g transform="matrix(.11581 -.076044 0 .24008 137.63 38.263)" stroke-width=".186">
   <rect transform="scale(-1)" x="-108.93" y="-65.347" width="29.025" height="29.025" rx="0" ry="0" fill="url(#radialGradient66159-9-3)" stroke="#000607" stroke-linecap="round" stroke-linejoin="round" style="paint-order:markers fill stroke"/>
   <g fill="none" stroke="#000">
    <path transform="translate(47.625 -1.4486)" d="m32.256 43.434h29.107z"/>
    <path transform="translate(47.625 4.1922)" d="m32.256 43.434h29.107z"/>
    <path transform="translate(47.625 9.8242)" d="m32.256 43.434h29.107z"/>
    <path transform="translate(47.625 15.456)" d="m32.256 43.434h29.107z"/>
    <path transform="rotate(90 71.2 75.12)" d="m32.256 43.434h29.107z"/>
    <path transform="rotate(90 68.38 72.3)" d="m32.256 43.434h29.107z"/>
    <path transform="rotate(90 65.564 69.484)" d="m32.256 43.434h29.107z"/>
    <path transform="rotate(90 62.748 66.668)" d="m32.256 43.434h29.107z"/>
   </g>
   <rect transform="scale(-1)" x="-108.93" y="-65.347" width="29.025" height="29.025" rx="0" ry="0" fill="url(#radialGradient66159-9-3)" stroke="#000607" stroke-linecap="round" stroke-linejoin="round" style="paint-order:markers fill stroke"/>
   <rect transform="scale(-1)" x="-108.93" y="-65.347" width="29.025" height="29.025" rx="0" ry="0" fill="url(#radialGradient66159-9-3)" stroke="#000607" stroke-linecap="round" stroke-linejoin="round" style="paint-order:markers fill stroke"/>
   <g fill="none" stroke="#000">
    <path transform="translate(47.625 -1.4486)" d="m32.256 43.434h29.107z"/>
    <path transform="translate(47.625 4.1922)" d="m32.256 43.434h29.107z"/>
    <path transform="translate(47.625 9.8242)" d="m32.256 43.434h29.107z"/>
    <path transform="translate(47.625 15.456)" d="m32.256 43.434h29.107z"/>
    <path transform="rotate(90 71.2 75.12)" d="m32.256 43.434h29.107z"/>
    <path transform="rotate(90 68.38 72.3)" d="m32.256 43.434h29.107z"/>
    <path transform="rotate(90 65.564 69.484)" d="m32.256 43.434h29.107z"/>
    <path transform="rotate(90 62.748 66.668)" d="m32.256 43.434h29.107z"/>
   </g>
  </g>
  <g transform="matrix(.23984 0 0 .23984 132.57 32.19)" stroke-width=".186">
   <rect transform="scale(-1)" x="-108.93" y="-65.347" width="29.025" height="29.025" rx="0" ry="0" fill="url(#radialGradient66159-9-3)" stroke="#000607" stroke-linecap="round" stroke-linejoin="round" style="paint-order:markers fill stroke"/>
   <g fill="none" stroke="#000">
    <path transform="translate(47.625 -1.4486)" d="m32.256 43.434h29.107z"/>
    <path transform="translate(47.625 4.1922)" d="m32.256 43.434h29.107z"/>
    <path transform="translate(47.625 9.8242)" d="m32.256 43.434h29.107z"/>
    <path transform="translate(47.625 15.456)" d="m32.256 43.434h29.107z"/>
    <path transform="rotate(90 71.2 75.12)" d="m32.256 43.434h29.107z"/>
    <path transform="rotate(90 68.38 72.3)" d="m32.256 43.434h29.107z"/>
    <path transform="rotate(90 65.564 69.484)" d="m32.256 43.434h29.107z"/>
    <path transform="rotate(90 62.748 66.668)" d="m32.256 43.434h29.107z"/>
   </g>
   <rect transform="scale(-1)" x="-108.93" y="-65.347" width="29.025" height="29.025" rx="0" ry="0" fill="url(#radialGradient66159-9-3)" stroke="#000607" stroke-linecap="round" stroke-linejoin="round" style="paint-order:markers fill stroke"/>
   <rect transform="scale(-1)" x="-108.93" y="-65.347" width="29.025" height="29.025" rx="0" ry="0" fill="url(#radialGradient66159-9-3)" stroke="#000607" stroke-linecap="round" stroke-linejoin="round" style="paint-order:markers fill stroke"/>
   <g fill="none" stroke="#000">
    <path transform="translate(47.625 -1.4486)" d="m32.256 43.434h29.107z"/>
    <path transform="translate(47.625 4.1922)" d="m32.256 43.434h29.107z"/>
    <path transform="translate(47.625 9.8242)" d="m32.256 43.434h29.107z"/>
    <path transform="translate(47.625 15.456)" d="m32.256 43.434h29.107z"/>
    <path transform="rotate(90 71.2 75.12)" d="m32.256 43.434h29.107z"/>
    <path transform="rotate(90 68.38 72.3)" d="m32.256 43.434h29.107z"/>
    <path transform="rotate(90 65.564 69.484)" d="m32.256 43.434h29.107z"/>
    <path transform="rotate(90 62.748 66.668)" d="m32.256 43.434h29.107z"/>
   </g>
  </g>
  <g transform="matrix(.23975 0 -.11613 .076407 135.37 38.143)" stroke-width=".186">
   <rect transform="scale(-1)" x="-115.04" y="-36.302" width="29.025" height="29.025" rx="0" ry="0" fill="url(#radialGradient66159-9-3-7)" stroke="#000607" stroke-linecap="round" stroke-linejoin="round" style="paint-order:markers fill stroke"/>
   <g fill="none" stroke="#000">
    <path transform="translate(53.732 -30.494)" d="m32.256 43.434h29.107z"/>
    <path transform="translate(53.732 -24.853)" d="m32.256 43.434h29.107z"/>
    <path transform="translate(53.732 -19.221)" d="m32.256 43.434h29.107z"/>
    <path transform="translate(53.732 -13.589)" d="m32.256 43.434h29.107z"/>
    <path transform="rotate(90 88.777 63.651)" d="m32.256 43.434h29.107z"/>
    <path transform="rotate(90 85.956 60.83)" d="m32.256 43.434h29.107z"/>
    <path transform="rotate(90 83.14 58.014)" d="m32.256 43.434h29.107z"/>
    <path transform="rotate(90 80.324 55.198)" d="m32.256 43.434h29.107z"/>
   </g>
  </g>
  <g transform="matrix(.11581 -.076044 0 .24008 149.45 38.263)" stroke-width=".186">
   <rect transform="scale(-1)" x="-108.93" y="-65.347" width="29.025" height="29.025" rx="0" ry="0" fill="url(#radialGradient66159-9-3)" stroke="#000607" stroke-linecap="round" stroke-linejoin="round" style="paint-order:markers fill stroke"/>
   <g fill="none" stroke="#000">
    <path transform="translate(47.625 -1.4486)" d="m32.256 43.434h29.107z"/>
    <path transform="translate(47.625 4.1922)" d="m32.256 43.434h29.107z"/>
    <path transform="translate(47.625 9.8242)" d="m32.256 43.434h29.107z"/>
    <path transform="translate(47.625 15.456)" d="m32.256 43.434h29.107z"/>
    <path transform="rotate(90 71.2 75.12)" d="m32.256 43.434h29.107z"/>
    <path transform="rotate(90 68.38 72.3)" d="m32.256 43.434h29.107z"/>
    <path transform="rotate(90 65.564 69.484)" d="m32.256 43.434h29.107z"/>
    <path transform="rotate(90 62.748 66.668)" d="m32.256 43.434h29.107z"/>
   </g>
   <rect transform="scale(-1)" x="-108.93" y="-65.347" width="29.025" height="29.025" rx="0" ry="0" fill="url(#radialGradient66159-9-3)" stroke="#000607" stroke-linecap="round" stroke-linejoin="round" style="paint-order:markers fill stroke"/>
   <rect transform="scale(-1)" x="-108.93" y="-65.347" width="29.025" height="29.025" rx="0" ry="0" fill="url(#radialGradient66159-9-3)" stroke="#000607" stroke-linecap="round" stroke-linejoin="round" style="paint-order:markers fill stroke"/>
   <g fill="none" stroke="#000">
    <path transform="translate(47.625 -1.4486)" d="m32.256 43.434h29.107z"/>
    <path transform="translate(47.625 4.1922)" d="m32.256 43.434h29.107z"/>
    <path transform="translate(47.625 9.8242)" d="m32.256 43.434h29.107z"/>
    <path transform="translate(47.625 15.456)" d="m32.256 43.434h29.107z"/>
    <path transform="rotate(90 71.2 75.12)" d="m32.256 43.434h29.107z"/>
    <path transform="rotate(90 68.38 72.3)" d="m32.256 43.434h29.107z"/>
    <path transform="rotate(90 65.564 69.484)" d="m32.256 43.434h29.107z"/>
    <path transform="rotate(90 62.748 66.668)" d="m32.256 43.434h29.107z"/>
   </g>
  </g>
  <g transform="matrix(.23984 0 0 .23984 144.39 32.19)" stroke-width=".186">
   <rect transform="scale(-1)" x="-108.93" y="-65.347" width="29.025" height="29.025" rx="0" ry="0" fill="url(#radialGradient66159-9-3)" stroke="#000607" stroke-linecap="round" stroke-linejoin="round" style="paint-order:markers fill stroke"/>
   <g fill="none" stroke="#000">
    <path transform="translate(47.625 -1.4486)" d="m32.256 43.434h29.107z"/>
    <path transform="translate(47.625 4.1922)" d="m32.256 43.434h29.107z"/>
    <path transform="translate(47.625 9.8242)" d="m32.256 43.434h29.107z"/>
    <path transform="translate(47.625 15.456)" d="m32.256 43.434h29.107z"/>
    <path transform="rotate(90 71.2 75.12)" d="m32.256 43.434h29.107z"/>
    <path transform="rotate(90 68.38 72.3)" d="m32.256 43.434h29.107z"/>
    <path transform="rotate(90 65.564 69.484)" d="m32.256 43.434h29.107z"/>
    <path transform="rotate(90 62.748 66.668)" d="m32.256 43.434h29.107z"/>
   </g>
   <rect transform="scale(-1)" x="-108.93" y="-65.347" width="29.025" height="29.025" rx="0" ry="0" fill="url(#radialGradient66159-9-3)" stroke="#000607" stroke-linecap="round" stroke-linejoin="round" style="paint-order:markers fill stroke"/>
   <rect transform="scale(-1)" x="-108.93" y="-65.347" width="29.025" height="29.025" rx="0" ry="0" fill="url(#radialGradient66159-9-3)" stroke="#000607" stroke-linecap="round" stroke-linejoin="round" style="paint-order:markers fill stroke"/>
   <g fill="none" stroke="#000">
    <path transform="translate(47.625 -1.4486)" d="m32.256 43.434h29.107z"/>
    <path transform="translate(47.625 4.1922)" d="m32.256 43.434h29.107z"/>
    <path transform="translate(47.625 9.8242)" d="m32.256 43.434h29.107z"/>
    <path transform="translate(47.625 15.456)" d="m32.256 43.434h29.107z"/>
    <path transform="rotate(90 71.2 75.12)" d="m32.256 43.434h29.107z"/>
    <path transform="rotate(90 68.38 72.3)" d="m32.256 43.434h29.107z"/>
    <path transform="rotate(90 65.564 69.484)" d="m32.256 43.434h29.107z"/>
    <path transform="rotate(90 62.748 66.668)" d="m32.256 43.434h29.107z"/>
   </g>
  </g>
  <g transform="matrix(.23975 0 -.11613 .076407 147.19 38.143)" stroke-width=".186">
   <rect transform="scale(-1)" x="-115.04" y="-36.302" width="29.025" height="29.025" rx="0" ry="0" fill="url(#radialGradient66159-9-3-7)" stroke="#000607" stroke-linecap="round" stroke-linejoin="round" style="paint-order:markers fill stroke"/>
   <g fill="none" stroke="#000">
    <path transform="translate(53.732 -30.494)" d="m32.256 43.434h29.107z"/>
    <path transform="translate(53.732 -24.853)" d="m32.256 43.434h29.107z"/>
    <path transform="translate(53.732 -19.221)" d="m32.256 43.434h29.107z"/>
    <path transform="translate(53.732 -13.589)" d="m32.256 43.434h29.107z"/>
    <path transform="rotate(90 88.777 63.651)" d="m32.256 43.434h29.107z"/>
    <path transform="rotate(90 85.956 60.83)" d="m32.256 43.434h29.107z"/>
    <path transform="rotate(90 83.14 58.014)" d="m32.256 43.434h29.107z"/>
    <path transform="rotate(90 80.324 55.198)" d="m32.256 43.434h29.107z"/>
   </g>
  </g>
  <g transform="matrix(.11581 -.076044 0 .24008 161.27 38.263)" stroke-width=".186">
   <rect transform="scale(-1)" x="-108.93" y="-65.347" width="29.025" height="29.025" rx="0" ry="0" fill="url(#radialGradient66159-9-3)" stroke="#000607" stroke-linecap="round" stroke-linejoin="round" style="paint-order:markers fill stroke"/>
   <g fill="none" stroke="#000">
    <path transform="translate(47.625 -1.4486)" d="m32.256 43.434h29.107z"/>
    <path transform="translate(47.625 4.1922)" d="m32.256 43.434h29.107z"/>
    <path transform="translate(47.625 9.8242)" d="m32.256 43.434h29.107z"/>
    <path transform="translate(47.625 15.456)" d="m32.256 43.434h29.107z"/>
    <path transform="rotate(90 71.2 75.12)" d="m32.256 43.434h29.107z"/>
    <path transform="rotate(90 68.38 72.3)" d="m32.256 43.434h29.107z"/>
    <path transform="rotate(90 65.564 69.484)" d="m32.256 43.434h29.107z"/>
    <path transform="rotate(90 62.748 66.668)" d="m32.256 43.434h29.107z"/>
   </g>
   <rect transform="scale(-1)" x="-108.93" y="-65.347" width="29.025" height="29.025" rx="0" ry="0" fill="url(#radialGradient66159-9-3)" stroke="#000607" stroke-linecap="round" stroke-linejoin="round" style="paint-order:markers fill stroke"/>
   <rect transform="scale(-1)" x="-108.93" y="-65.347" width="29.025" height="29.025" rx="0" ry="0" fill="url(#radialGradient66159-9-3)" stroke="#000607" stroke-linecap="round" stroke-linejoin="round" style="paint-order:markers fill stroke"/>
   <g fill="none" stroke="#000">
    <path transform="translate(47.625 -1.4486)" d="m32.256 43.434h29.107z"/>
    <path transform="translate(47.625 4.1922)" d="m32.256 43.434h29.107z"/>
    <path transform="translate(47.625 9.8242)" d="m32.256 43.434h29.107z"/>
    <path transform="translate(47.625 15.456)" d="m32.256 43.434h29.107z"/>
    <path transform="rotate(90 71.2 75.12)" d="m32.256 43.434h29.107z"/>
    <path transform="rotate(90 68.38 72.3)" d="m32.256 43.434h29.107z"/>
    <path transform="rotate(90 65.564 69.484)" d="m32.256 43.434h29.107z"/>
    <path transform="rotate(90 62.748 66.668)" d="m32.256 43.434h29.107z"/>
   </g>
  </g>
  <g transform="matrix(.23984 0 0 .23984 156.21 32.19)" stroke-width=".186">
   <rect transform="scale(-1)" x="-108.93" y="-65.347" width="29.025" height="29.025" rx="0" ry="0" fill="url(#radialGradient66159-9-3)" stroke="#000607" stroke-linecap="round" stroke-linejoin="round" style="paint-order:markers fill stroke"/>
   <g fill="none" stroke="#000">
    <path transform="translate(47.625 -1.4486)" d="m32.256 43.434h29.107z"/>
    <path transform="translate(47.625 4.1922)" d="m32.256 43.434h29.107z"/>
    <path transform="translate(47.625 9.8242)" d="m32.256 43.434h29.107z"/>
    <path transform="translate(47.625 15.456)" d="m32.256 43.434h29.107z"/>
    <path transform="rotate(90 71.2 75.12)" d="m32.256 43.434h29.107z"/>
    <path transform="rotate(90 68.38 72.3)" d="m32.256 43.434h29.107z"/>
    <path transform="rotate(90 65.564 69.484)" d="m32.256 43.434h29.107z"/>
    <path transform="rotate(90 62.748 66.668)" d="m32.256 43.434h29.107z"/>
   </g>
   <rect transform="scale(-1)" x="-108.93" y="-65.347" width="29.025" height="29.025" rx="0" ry="0" fill="url(#radialGradient66159-9-3)" stroke="#000607" stroke-linecap="round" stroke-linejoin="round" style="paint-order:markers fill stroke"/>
   <rect transform="scale(-1)" x="-108.93" y="-65.347" width="29.025" height="29.025" rx="0" ry="0" fill="url(#radialGradient66159-9-3)" stroke="#000607" stroke-linecap="round" stroke-linejoin="round" style="paint-order:markers fill stroke"/>
   <g fill="none" stroke="#000">
    <path transform="translate(47.625 -1.4486)" d="m32.256 43.434h29.107z"/>
    <path transform="translate(47.625 4.1922)" d="m32.256 43.434h29.107z"/>
    <path transform="translate(47.625 9.8242)" d="m32.256 43.434h29.107z"/>
    <path transform="translate(47.625 15.456)" d="m32.256 43.434h29.107z"/>
    <path transform="rotate(90 71.2 75.12)" d="m32.256 43.434h29.107z"/>
    <path transform="rotate(90 68.38 72.3)" d="m32.256 43.434h29.107z"/>
    <path transform="rotate(90 65.564 69.484)" d="m32.256 43.434h29.107z"/>
    <path transform="rotate(90 62.748 66.668)" d="m32.256 43.434h29.107z"/>
   </g>
  </g>
  <g transform="matrix(.23975 0 -.11613 .076407 159.01 38.143)" stroke-width=".186">
   <rect transform="scale(-1)" x="-115.04" y="-36.302" width="29.025" height="29.025" rx="0" ry="0" fill="url(#radialGradient66159-9-3-7)" stroke="#000607" stroke-linecap="round" stroke-linejoin="round" style="paint-order:markers fill stroke"/>
   <g fill="none" stroke="#000">
    <path transform="translate(53.732 -30.494)" d="m32.256 43.434h29.107z"/>
    <path transform="translate(53.732 -24.853)" d="m32.256 43.434h29.107z"/>
    <path transform="translate(53.732 -19.221)" d="m32.256 43.434h29.107z"/>
    <path transform="translate(53.732 -13.589)" d="m32.256 43.434h29.107z"/>
    <path transform="rotate(90 88.777 63.651)" d="m32.256 43.434h29.107z"/>
    <path transform="rotate(90 85.956 60.83)" d="m32.256 43.434h29.107z"/>
    <path transform="rotate(90 83.14 58.014)" d="m32.256 43.434h29.107z"/>
    <path transform="rotate(90 80.324 55.198)" d="m32.256 43.434h29.107z"/>
   </g>
  </g>
  <g transform="matrix(.11581 -.076044 0 .24008 173.09 38.263)" stroke-width=".186">
   <rect transform="scale(-1)" x="-108.93" y="-65.347" width="29.025" height="29.025" rx="0" ry="0" fill="url(#radialGradient66159-9-3)" stroke="#000607" stroke-linecap="round" stroke-linejoin="round" style="paint-order:markers fill stroke"/>
   <g fill="none" stroke="#000">
    <path transform="translate(47.625 -1.4486)" d="m32.256 43.434h29.107z"/>
    <path transform="translate(47.625 4.1922)" d="m32.256 43.434h29.107z"/>
    <path transform="translate(47.625 9.8242)" d="m32.256 43.434h29.107z"/>
    <path transform="translate(47.625 15.456)" d="m32.256 43.434h29.107z"/>
    <path transform="rotate(90 71.2 75.12)" d="m32.256 43.434h29.107z"/>
    <path transform="rotate(90 68.38 72.3)" d="m32.256 43.434h29.107z"/>
    <path transform="rotate(90 65.564 69.484)" d="m32.256 43.434h29.107z"/>
    <path transform="rotate(90 62.748 66.668)" d="m32.256 43.434h29.107z"/>
   </g>
   <rect transform="scale(-1)" x="-108.93" y="-65.347" width="29.025" height="29.025" rx="0" ry="0" fill="url(#radialGradient66159-9-3)" stroke="#000607" stroke-linecap="round" stroke-linejoin="round" style="paint-order:markers fill stroke"/>
   <rect transform="scale(-1)" x="-108.93" y="-65.347" width="29.025" height="29.025" rx="0" ry="0" fill="url(#radialGradient66159-9-3)" stroke="#000607" stroke-linecap="round" stroke-linejoin="round" style="paint-order:markers fill stroke"/>
   <g fill="none" stroke="#000">
    <path transform="translate(47.625 -1.4486)" d="m32.256 43.434h29.107z"/>
    <path transform="translate(47.625 4.1922)" d="m32.256 43.434h29.107z"/>
    <path transform="translate(47.625 9.8242)" d="m32.256 43.434h29.107z"/>
    <path transform="translate(47.625 15.456)" d="m32.256 43.434h29.107z"/>
    <path transform="rotate(90 71.2 75.12)" d="m32.256 43.434h29.107z"/>
    <path transform="rotate(90 68.38 72.3)" d="m32.256 43.434h29.107z"/>
    <path transform="rotate(90 65.564 69.484)" d="m32.256 43.434h29.107z"/>
    <path transform="rotate(90 62.748 66.668)" d="m32.256 43.434h29.107z"/>
   </g>
  </g>
  <g transform="matrix(.35278 0 0 .35278 36.065 23.693)" ns45:alignment="middle center" ns45:inkscapeversion="1.2.1" ns45:jacobian_sqrt="0.352778" ns45:pdfconverter="inkscape" ns45:preamble="/home/rik/git/thesis/preambule.tex" ns45:scale="1.0" ns45:stroke-to-path="0" ns45:texconverter="pdflatex" ns45:text="$A[i]$" ns45:version="1.8.1">
   <defs id="id-fd965c1e-a48c-41ee-8338-21e27fa52a6f"></defs>
   <g transform="translate(-57.068 -59.48)">
    <g transform="translate(56.693,67.652)">
     <path d="m1.9531-1.25c-0.4375 0.71875-0.85938 0.875-1.3438 0.90625-0.125 0.015625-0.23438 0.015625-0.23438 0.21875 0 0.078125 0.0625 0.125 0.15625 0.125 0.28125 0 0.625-0.03125 0.9375-0.03125 0.35938 0 0.73438 0.03125 1.0781 0.03125 0.078125 0 0.21875 0 0.21875-0.20312 0-0.125-0.10938-0.14062-0.1875-0.14062-0.25-0.015625-0.5-0.10938-0.5-0.375 0-0.125 0.0625-0.25 0.14062-0.40625l0.82812-1.3906h2.75c0.015625 0.21875 0.17188 1.7031 0.17188 1.8125 0 0.32812-0.5625 0.35938-0.78125 0.35938-0.15625 0-0.26562 0-0.26562 0.21875 0 0.125 0.125 0.125 0.15625 0.125 0.4375 0 0.90625-0.03125 1.3594-0.03125 0.26562 0 0.95312 0.03125 1.2344 0.03125 0.0625 0 0.1875 0 0.1875-0.21875 0-0.125-0.10938-0.125-0.25-0.125-0.67188 0-0.67188-0.078125-0.70312-0.39062l-0.67188-6.8125c-0.015625-0.21875-0.015625-0.26562-0.20312-0.26562-0.17188 0-0.21875 0.078125-0.28125 0.1875zm1.3125-1.6094 2.1406-3.5938 0.35938 3.5938z"/>
    </g>
    <g transform="translate(64.875,67.652)">
     <path d="m2.7812 2.7188v-0.42188h-1.0625v-10.047h1.0625v-0.42188h-1.5v10.891z"/>
    </g>
    <g transform="translate(67.905,67.652)">
     <path d="m3.0938-6.8125c0-0.21875-0.15625-0.39062-0.40625-0.39062-0.28125 0-0.57812 0.28125-0.57812 0.57812 0 0.20312 0.14062 0.39062 0.40625 0.39062 0.25 0 0.57812-0.25 0.57812-0.57812zm-0.82812 4.0938c0.14062-0.3125 0.14062-0.32812 0.25-0.625 0.078125-0.21875 0.14062-0.375 0.14062-0.57812 0-0.5-0.35938-0.90625-0.90625-0.90625-1.0156 0-1.4375 1.5938-1.4375 1.6875 0 0.10938 0.10938 0.10938 0.14062 0.10938 0.10938 0 0.10938-0.015625 0.17188-0.20312 0.29688-1.0156 0.73438-1.3438 1.0938-1.3438 0.09375 0 0.28125 0 0.28125 0.34375 0 0.23438-0.078125 0.45312-0.125 0.5625-0.09375 0.29688-0.57812 1.5625-0.75 2.0312-0.10938 0.28125-0.25 0.64062-0.25 0.85938 0 0.51562 0.375 0.90625 0.89062 0.90625 1.0312 0 1.4375-1.5938 1.4375-1.6875 0-0.10938-0.10938-0.10938-0.14062-0.10938-0.10938 0-0.10938 0.03125-0.15625 0.20312-0.20312 0.6875-0.5625 1.3438-1.125 1.3438-0.17188 0-0.25-0.10938-0.25-0.35938 0-0.26562 0.0625-0.42188 0.3125-1.0938z"/>
    </g>
   </g>
   <g id="id-8968faef-ba43-4fe1-a207-e31c789bc82f" transform="translate(-57.068 -59.48)">
    <g transform="translate(71.663,67.652)">
     <path id="id-18fed61d-f0f1-4dca-a642-f0f6e820472d" d="m1.7344-8.1719h-1.5v0.42188h1.0625v10.047h-1.0625v0.42188h1.5z"/>
    </g>
   </g>
  </g>
  <g transform="matrix(.35278 0 0 .35278 68.956 23.662)" ns45:alignment="middle center" ns45:inkscapeversion="1.2.1" ns45:jacobian_sqrt="0.352778" ns45:pdfconverter="inkscape" ns45:preamble="/home/rik/git/thesis/preambule.tex" ns45:scale="1.0" ns45:stroke-to-path="0" ns45:texconverter="pdflatex" ns45:text="$A[i,j]$" ns45:version="1.8.1">
   <defs>
    <g id="id-423162ec-1496-405b-8b2b-3085fb79a95d"></g>
   </defs>
   <g>
    <g id="id-94f43efe-c0d7-43d7-998c-221766cf586a" transform="translate(-57.068 -59.48)">
     <g transform="translate(56.693,67.652)">
      <path id="id-6cf704f8-5ce3-496d-a4d8-e551f58f8eaf" d="m1.9531-1.25c-0.4375 0.71875-0.85938 0.875-1.3438 0.90625-0.125 0.015625-0.23438 0.015625-0.23438 0.21875 0 0.078125 0.0625 0.125 0.15625 0.125 0.28125 0 0.625-0.03125 0.9375-0.03125 0.35938 0 0.73438 0.03125 1.0781 0.03125 0.078125 0 0.21875 0 0.21875-0.20312 0-0.125-0.10938-0.14062-0.1875-0.14062-0.25-0.015625-0.5-0.10938-0.5-0.375 0-0.125 0.0625-0.25 0.14062-0.40625l0.82812-1.3906h2.75c0.015625 0.21875 0.17188 1.7031 0.17188 1.8125 0 0.32812-0.5625 0.35938-0.78125 0.35938-0.15625 0-0.26562 0-0.26562 0.21875 0 0.125 0.125 0.125 0.15625 0.125 0.4375 0 0.90625-0.03125 1.3594-0.03125 0.26562 0 0.95312 0.03125 1.2344 0.03125 0.0625 0 0.1875 0 0.1875-0.21875 0-0.125-0.10938-0.125-0.25-0.125-0.67188 0-0.67188-0.078125-0.70312-0.39062l-0.67188-6.8125c-0.015625-0.21875-0.015625-0.26562-0.20312-0.26562-0.17188 0-0.21875 0.078125-0.28125 0.1875zm1.3125-1.6094 2.1406-3.5938 0.35938 3.5938z"/>
     </g>
    </g>
    <g transform="translate(-57.068 -59.48)">
     <g transform="translate(64.875,67.652)">
      <path id="id-da7ca06b-33ad-40c6-a366-bde6048abeaa" d="m2.7812 2.7188v-0.42188h-1.0625v-10.047h1.0625v-0.42188h-1.5v10.891z"/>
     </g>
     <g transform="translate(67.905,67.652)">
      <path d="m3.0938-6.8125c0-0.21875-0.15625-0.39062-0.40625-0.39062-0.28125 0-0.57812 0.28125-0.57812 0.57812 0 0.20312 0.14062 0.39062 0.40625 0.39062 0.25 0 0.57812-0.25 0.57812-0.57812zm-0.82812 4.0938c0.14062-0.3125 0.14062-0.32812 0.25-0.625 0.078125-0.21875 0.14062-0.375 0.14062-0.57812 0-0.5-0.35938-0.90625-0.90625-0.90625-1.0156 0-1.4375 1.5938-1.4375 1.6875 0 0.10938 0.10938 0.10938 0.14062 0.10938 0.10938 0 0.10938-0.015625 0.17188-0.20312 0.29688-1.0156 0.73438-1.3438 1.0938-1.3438 0.09375 0 0.28125 0 0.28125 0.34375 0 0.23438-0.078125 0.45312-0.125 0.5625-0.09375 0.29688-0.57812 1.5625-0.75 2.0312-0.10938 0.28125-0.25 0.64062-0.25 0.85938 0 0.51562 0.375 0.90625 0.89062 0.90625 1.0312 0 1.4375-1.5938 1.4375-1.6875 0-0.10938-0.10938-0.10938-0.14062-0.10938-0.10938 0-0.10938 0.03125-0.15625 0.20312-0.20312 0.6875-0.5625 1.3438-1.125 1.3438-0.17188 0-0.25-0.10938-0.25-0.35938 0-0.26562 0.0625-0.42188 0.3125-1.0938z"/>
     </g>
     <g transform="translate(71.663 67.652)">
      <path d="m2.2188-0.015625c0-0.71875-0.28125-1.1406-0.70312-1.1406-0.35938 0-0.57812 0.26562-0.57812 0.57812 0 0.29688 0.21875 0.57812 0.57812 0.57812 0.125 0 0.26562-0.046875 0.375-0.14062 0.046875-0.015625 0.046875-0.03125 0.0625-0.03125s0.015625 0.015625 0.015625 0.15625c0 0.8125-0.375 1.4688-0.73438 1.8281-0.125 0.125-0.125 0.14062-0.125 0.17188 0 0.078125 0.0625 0.125 0.10938 0.125 0.125 0 1-0.84375 1-2.125z"/>
     </g>
     <g transform="translate(76.516 67.652)">
      <path id="id-146b4f46-10f7-4ee8-9b0b-8f5b87e37e0c" d="m4.3281-6.8125c0-0.21875-0.15625-0.39062-0.40625-0.39062s-0.57812 0.25-0.57812 0.57812c0 0.21875 0.14062 0.39062 0.39062 0.39062 0.29688 0 0.59375-0.28125 0.59375-0.57812zm-2.1875 7.3594c-0.20312 0.82812-0.73438 1.4531-1.3438 1.4531-0.0625 0-0.23438 0-0.42188-0.10938 0.32812-0.0625 0.48438-0.35938 0.48438-0.57812 0-0.17188-0.125-0.375-0.40625-0.375s-0.59375 0.23438-0.59375 0.625c0 0.4375 0.4375 0.67188 0.95312 0.67188 0.76562 0 1.7812-0.57812 2.0625-1.6562l1-3.9844c0.046875-0.21875 0.046875-0.375 0.046875-0.40625 0-0.625-0.45312-1.0156-1-1.0156-1.1094 0-1.7344 1.5938-1.7344 1.6875 0 0.10938 0.10938 0.10938 0.125 0.10938 0.10938 0 0.10938-0.015625 0.20312-0.21875 0.26562-0.67188 0.78125-1.3281 1.375-1.3281 0.15625 0 0.34375 0.046875 0.34375 0.5 0 0.25-0.03125 0.375-0.078125 0.5625z"/>
     </g>
    </g>
    <g id="id-b83df3ed-9175-46f0-9a06-25aed3c39eeb" transform="translate(-57.068 -59.48)">
     <g transform="translate(81.629,67.652)">
      <path id="id-4c179271-18a1-49af-b668-8130c0c3e9fc" d="m1.7344-8.1719h-1.5v0.42188h1.0625v10.047h-1.0625v0.42188h1.5z"/>
     </g>
    </g>
   </g>
  </g>
  <g transform="matrix(.35278 0 0 .35278 106.86 23.731)" ns45:alignment="middle center" ns45:inkscapeversion="1.2.1" ns45:jacobian_sqrt="0.352778" ns45:pdfconverter="inkscape" ns45:preamble="/home/rik/git/thesis/preambule.tex" ns45:scale="1.0" ns45:stroke-to-path="0" ns45:texconverter="pdflatex" ns45:text="$A[i,j,k]$" ns45:version="1.8.1">
   <defs></defs>
   <g>
    <g id="id-dddf7a6b-ff5a-4834-8360-b23b3639bf6b" transform="translate(-57.068 -59.48)">
     <g transform="translate(56.693,67.652)">
      <path id="id-e1d222d4-53a9-4fe9-bf35-8e6b3b29932b" d="m1.9531-1.25c-0.4375 0.71875-0.85938 0.875-1.3438 0.90625-0.125 0.015625-0.23438 0.015625-0.23438 0.21875 0 0.078125 0.0625 0.125 0.15625 0.125 0.28125 0 0.625-0.03125 0.9375-0.03125 0.35938 0 0.73438 0.03125 1.0781 0.03125 0.078125 0 0.21875 0 0.21875-0.20312 0-0.125-0.10938-0.14062-0.1875-0.14062-0.25-0.015625-0.5-0.10938-0.5-0.375 0-0.125 0.0625-0.25 0.14062-0.40625l0.82812-1.3906h2.75c0.015625 0.21875 0.17188 1.7031 0.17188 1.8125 0 0.32812-0.5625 0.35938-0.78125 0.35938-0.15625 0-0.26562 0-0.26562 0.21875 0 0.125 0.125 0.125 0.15625 0.125 0.4375 0 0.90625-0.03125 1.3594-0.03125 0.26562 0 0.95312 0.03125 1.2344 0.03125 0.0625 0 0.1875 0 0.1875-0.21875 0-0.125-0.10938-0.125-0.25-0.125-0.67188 0-0.67188-0.078125-0.70312-0.39062l-0.67188-6.8125c-0.015625-0.21875-0.015625-0.26562-0.20312-0.26562-0.17188 0-0.21875 0.078125-0.28125 0.1875zm1.3125-1.6094 2.1406-3.5938 0.35938 3.5938z"/>
     </g>
    </g>
    <g id="id-9e7cd637-d3df-4c88-beb5-28250a941fbe" transform="translate(-57.068 -59.48)">
     <g transform="translate(64.875,67.652)">
      <path d="m2.7812 2.7188v-0.42188h-1.0625v-10.047h1.0625v-0.42188h-1.5v10.891z"/>
     </g>
    </g>
    <g transform="translate(-57.068 -59.48)">
     <g transform="translate(67.905,67.652)">
      <path id="id-72aded0e-c0e7-4af2-8a05-664c45f114ac" d="m3.0938-6.8125c0-0.21875-0.15625-0.39062-0.40625-0.39062-0.28125 0-0.57812 0.28125-0.57812 0.57812 0 0.20312 0.14062 0.39062 0.40625 0.39062 0.25 0 0.57812-0.25 0.57812-0.57812zm-0.82812 4.0938c0.14062-0.3125 0.14062-0.32812 0.25-0.625 0.078125-0.21875 0.14062-0.375 0.14062-0.57812 0-0.5-0.35938-0.90625-0.90625-0.90625-1.0156 0-1.4375 1.5938-1.4375 1.6875 0 0.10938 0.10938 0.10938 0.14062 0.10938 0.10938 0 0.10938-0.015625 0.17188-0.20312 0.29688-1.0156 0.73438-1.3438 1.0938-1.3438 0.09375 0 0.28125 0 0.28125 0.34375 0 0.23438-0.078125 0.45312-0.125 0.5625-0.09375 0.29688-0.57812 1.5625-0.75 2.0312-0.10938 0.28125-0.25 0.64062-0.25 0.85938 0 0.51562 0.375 0.90625 0.89062 0.90625 1.0312 0 1.4375-1.5938 1.4375-1.6875 0-0.10938-0.10938-0.10938-0.14062-0.10938-0.10938 0-0.10938 0.03125-0.15625 0.20312-0.20312 0.6875-0.5625 1.3438-1.125 1.3438-0.17188 0-0.25-0.10938-0.25-0.35938 0-0.26562 0.0625-0.42188 0.3125-1.0938z"/>
     </g>
     <g transform="translate(71.663 67.652)">
      <path d="m2.2188-0.015625c0-0.71875-0.28125-1.1406-0.70312-1.1406-0.35938 0-0.57812 0.26562-0.57812 0.57812 0 0.29688 0.21875 0.57812 0.57812 0.57812 0.125 0 0.26562-0.046875 0.375-0.14062 0.046875-0.015625 0.046875-0.03125 0.0625-0.03125s0.015625 0.015625 0.015625 0.15625c0 0.8125-0.375 1.4688-0.73438 1.8281-0.125 0.125-0.125 0.14062-0.125 0.17188 0 0.078125 0.0625 0.125 0.10938 0.125 0.125 0 1-0.84375 1-2.125z"/>
     </g>
    </g>
    <g id="id-ce53d3ca-0c8f-485f-baa3-a1240c944b9f" transform="translate(-57.068 -59.48)">
     <g transform="translate(76.516 67.652)">
      <path id="id-8675dd47-29a7-4287-bc96-d7bc65fb765e" d="m4.3281-6.8125c0-0.21875-0.15625-0.39062-0.40625-0.39062s-0.57812 0.25-0.57812 0.57812c0 0.21875 0.14062 0.39062 0.39062 0.39062 0.29688 0 0.59375-0.28125 0.59375-0.57812zm-2.1875 7.3594c-0.20312 0.82812-0.73438 1.4531-1.3438 1.4531-0.0625 0-0.23438 0-0.42188-0.10938 0.32812-0.0625 0.48438-0.35938 0.48438-0.57812 0-0.17188-0.125-0.375-0.40625-0.375s-0.59375 0.23438-0.59375 0.625c0 0.4375 0.4375 0.67188 0.95312 0.67188 0.76562 0 1.7812-0.57812 2.0625-1.6562l1-3.9844c0.046875-0.21875 0.046875-0.375 0.046875-0.40625 0-0.625-0.45312-1.0156-1-1.0156-1.1094 0-1.7344 1.5938-1.7344 1.6875 0 0.10938 0.10938 0.10938 0.125 0.10938 0.10938 0 0.10938-0.015625 0.20312-0.21875 0.26562-0.67188 0.78125-1.3281 1.375-1.3281 0.15625 0 0.34375 0.046875 0.34375 0.5 0 0.25-0.03125 0.375-0.078125 0.5625z"/>
     </g>
    </g>
    <g transform="translate(-57.068 -59.48)">
     <g transform="translate(81.019 67.652)">
      <path d="m2.2188-0.015625c0-0.71875-0.28125-1.1406-0.70312-1.1406-0.35938 0-0.57812 0.26562-0.57812 0.57812 0 0.29688 0.21875 0.57812 0.57812 0.57812 0.125 0 0.26562-0.046875 0.375-0.14062 0.046875-0.015625 0.046875-0.03125 0.0625-0.03125s0.015625 0.015625 0.015625 0.15625c0 0.8125-0.375 1.4688-0.73438 1.8281-0.125 0.125-0.125 0.14062-0.125 0.17188 0 0.078125 0.0625 0.125 0.10938 0.125 0.125 0 1-0.84375 1-2.125z"/>
     </g>
    </g>
    <g id="id-d43b16e1-ffd7-4dbb-95e7-3163a37990cd" transform="translate(-57.068 -59.48)">
     <g transform="translate(85.871 67.652)">
      <path id="id-087104aa-4dcb-455c-a56f-347a7454156a" d="m3.125-7.4531s0-0.10938-0.14062-0.10938c-0.25 0-1.0469 0.078125-1.3281 0.10938-0.078125 0-0.20312 0.015625-0.20312 0.21875 0 0.125 0.09375 0.125 0.26562 0.125 0.51562 0 0.53125 0.078125 0.53125 0.1875l-0.03125 0.21875-1.5781 6.2812c-0.046875 0.15625-0.046875 0.17188-0.046875 0.23438 0 0.25 0.21875 0.3125 0.32812 0.3125 0.14062 0 0.29688-0.10938 0.35938-0.23438 0.0625-0.09375 0.54688-2.1094 0.60938-2.3906 0.375 0.03125 1.2656 0.20312 1.2656 0.92188 0 0.078125 0 0.125-0.03125 0.23438-0.015625 0.14062-0.03125 0.26562-0.03125 0.39062 0 0.64062 0.42188 1.0781 1 1.0781 0.32812 0 0.625-0.17188 0.85938-0.57812 0.26562-0.48438 0.39062-1.0781 0.39062-1.1094 0-0.10938-0.09375-0.10938-0.125-0.10938-0.10938 0-0.125 0.046875-0.15625 0.20312-0.21875 0.79688-0.46875 1.3438-0.95312 1.3438-0.20312 0-0.34375-0.10938-0.34375-0.5 0-0.1875 0.046875-0.4375 0.078125-0.625 0.046875-0.17188 0.046875-0.21875 0.046875-0.32812 0-0.71875-0.6875-1.0312-1.6094-1.1406 0.34375-0.20312 0.6875-0.54688 0.9375-0.8125 0.51562-0.57812 1.0312-1.0469 1.5625-1.0469 0.0625 0 0.078125 0 0.09375 0.015625 0.125 0.015625 0.14062 0.015625 0.23438 0.078125 0.015625 0.015625 0.015625 0.03125 0.03125 0.046875-0.51562 0.03125-0.60938 0.45312-0.60938 0.59375 0 0.17188 0.10938 0.375 0.40625 0.375 0.28125 0 0.60938-0.23438 0.60938-0.67188 0-0.3125-0.25-0.6875-0.75-0.6875-0.29688 0-0.8125 0.09375-1.5938 0.96875-0.375 0.40625-0.79688 0.84375-1.2031 1.0156z"/>
     </g>
    </g>
    <g transform="translate(-57.068 -59.48)">
     <g transform="translate(91.894,67.652)">
      <path id="id-4b9ccb47-a1bd-443f-bdee-b555a567e64b" d="m1.7344-8.1719h-1.5v0.42188h1.0625v10.047h-1.0625v0.42188h1.5z"/>
     </g>
    </g>
   </g>
  </g>
  <g transform="matrix(.35278 0 0 .35278 156.53 23.68)" ns45:alignment="middle center" ns45:inkscapeversion="1.2.1" ns45:jacobian_sqrt="0.352778" ns45:pdfconverter="inkscape" ns45:preamble="/home/rik/git/thesis/preambule.tex" ns45:scale="1.0" ns45:stroke-to-path="0" ns45:texconverter="pdflatex" ns45:text="$A[i,j,k,l]$" ns45:version="1.8.1">
   <defs id="id-afb034a7-cd9a-4038-8342-403e6f80f27b"></defs>
   <g>
    <g id="id-b827924a-c21c-4a80-9543-90cdae09004f" transform="translate(-57.068 -59.48)">
     <g transform="translate(56.693,67.652)">
      <path d="m1.9531-1.25c-0.4375 0.71875-0.85938 0.875-1.3438 0.90625-0.125 0.015625-0.23438 0.015625-0.23438 0.21875 0 0.078125 0.0625 0.125 0.15625 0.125 0.28125 0 0.625-0.03125 0.9375-0.03125 0.35938 0 0.73438 0.03125 1.0781 0.03125 0.078125 0 0.21875 0 0.21875-0.20312 0-0.125-0.10938-0.14062-0.1875-0.14062-0.25-0.015625-0.5-0.10938-0.5-0.375 0-0.125 0.0625-0.25 0.14062-0.40625l0.82812-1.3906h2.75c0.015625 0.21875 0.17188 1.7031 0.17188 1.8125 0 0.32812-0.5625 0.35938-0.78125 0.35938-0.15625 0-0.26562 0-0.26562 0.21875 0 0.125 0.125 0.125 0.15625 0.125 0.4375 0 0.90625-0.03125 1.3594-0.03125 0.26562 0 0.95312 0.03125 1.2344 0.03125 0.0625 0 0.1875 0 0.1875-0.21875 0-0.125-0.10938-0.125-0.25-0.125-0.67188 0-0.67188-0.078125-0.70312-0.39062l-0.67188-6.8125c-0.015625-0.21875-0.015625-0.26562-0.20312-0.26562-0.17188 0-0.21875 0.078125-0.28125 0.1875zm1.3125-1.6094 2.1406-3.5938 0.35938 3.5938z"/>
     </g>
    </g>
    <g id="id-83fbbbb5-58be-4ce9-979e-4760d515bade" transform="translate(-57.068 -59.48)">
     <g transform="translate(64.875,67.652)">
      <path d="m2.7812 2.7188v-0.42188h-1.0625v-10.047h1.0625v-0.42188h-1.5v10.891z"/>
     </g>
    </g>
    <g id="id-684bc716-ead0-4afc-a658-00aecdff65be" transform="translate(-57.068 -59.48)">
     <g transform="translate(67.905,67.652)">
      <path id="id-60f0ea66-96e9-4712-aa7f-c6af5036e55f" d="m3.0938-6.8125c0-0.21875-0.15625-0.39062-0.40625-0.39062-0.28125 0-0.57812 0.28125-0.57812 0.57812 0 0.20312 0.14062 0.39062 0.40625 0.39062 0.25 0 0.57812-0.25 0.57812-0.57812zm-0.82812 4.0938c0.14062-0.3125 0.14062-0.32812 0.25-0.625 0.078125-0.21875 0.14062-0.375 0.14062-0.57812 0-0.5-0.35938-0.90625-0.90625-0.90625-1.0156 0-1.4375 1.5938-1.4375 1.6875 0 0.10938 0.10938 0.10938 0.14062 0.10938 0.10938 0 0.10938-0.015625 0.17188-0.20312 0.29688-1.0156 0.73438-1.3438 1.0938-1.3438 0.09375 0 0.28125 0 0.28125 0.34375 0 0.23438-0.078125 0.45312-0.125 0.5625-0.09375 0.29688-0.57812 1.5625-0.75 2.0312-0.10938 0.28125-0.25 0.64062-0.25 0.85938 0 0.51562 0.375 0.90625 0.89062 0.90625 1.0312 0 1.4375-1.5938 1.4375-1.6875 0-0.10938-0.10938-0.10938-0.14062-0.10938-0.10938 0-0.10938 0.03125-0.15625 0.20312-0.20312 0.6875-0.5625 1.3438-1.125 1.3438-0.17188 0-0.25-0.10938-0.25-0.35938 0-0.26562 0.0625-0.42188 0.3125-1.0938z"/>
     </g>
     <g transform="translate(71.663 67.652)">
      <path d="m2.2188-0.015625c0-0.71875-0.28125-1.1406-0.70312-1.1406-0.35938 0-0.57812 0.26562-0.57812 0.57812 0 0.29688 0.21875 0.57812 0.57812 0.57812 0.125 0 0.26562-0.046875 0.375-0.14062 0.046875-0.015625 0.046875-0.03125 0.0625-0.03125s0.015625 0.015625 0.015625 0.15625c0 0.8125-0.375 1.4688-0.73438 1.8281-0.125 0.125-0.125 0.14062-0.125 0.17188 0 0.078125 0.0625 0.125 0.10938 0.125 0.125 0 1-0.84375 1-2.125z"/>
     </g>
    </g>
    <g transform="translate(-57.068 -59.48)">
     <g transform="translate(76.516 67.652)">
      <path d="m4.3281-6.8125c0-0.21875-0.15625-0.39062-0.40625-0.39062s-0.57812 0.25-0.57812 0.57812c0 0.21875 0.14062 0.39062 0.39062 0.39062 0.29688 0 0.59375-0.28125 0.59375-0.57812zm-2.1875 7.3594c-0.20312 0.82812-0.73438 1.4531-1.3438 1.4531-0.0625 0-0.23438 0-0.42188-0.10938 0.32812-0.0625 0.48438-0.35938 0.48438-0.57812 0-0.17188-0.125-0.375-0.40625-0.375s-0.59375 0.23438-0.59375 0.625c0 0.4375 0.4375 0.67188 0.95312 0.67188 0.76562 0 1.7812-0.57812 2.0625-1.6562l1-3.9844c0.046875-0.21875 0.046875-0.375 0.046875-0.40625 0-0.625-0.45312-1.0156-1-1.0156-1.1094 0-1.7344 1.5938-1.7344 1.6875 0 0.10938 0.10938 0.10938 0.125 0.10938 0.10938 0 0.10938-0.015625 0.20312-0.21875 0.26562-0.67188 0.78125-1.3281 1.375-1.3281 0.15625 0 0.34375 0.046875 0.34375 0.5 0 0.25-0.03125 0.375-0.078125 0.5625z"/>
     </g>
     <g transform="translate(81.019 67.652)">
      <path d="m2.2188-0.015625c0-0.71875-0.28125-1.1406-0.70312-1.1406-0.35938 0-0.57812 0.26562-0.57812 0.57812 0 0.29688 0.21875 0.57812 0.57812 0.57812 0.125 0 0.26562-0.046875 0.375-0.14062 0.046875-0.015625 0.046875-0.03125 0.0625-0.03125s0.015625 0.015625 0.015625 0.15625c0 0.8125-0.375 1.4688-0.73438 1.8281-0.125 0.125-0.125 0.14062-0.125 0.17188 0 0.078125 0.0625 0.125 0.10938 0.125 0.125 0 1-0.84375 1-2.125z"/>
     </g>
     <g transform="translate(85.871 67.652)">
      <path d="m3.125-7.4531s0-0.10938-0.14062-0.10938c-0.25 0-1.0469 0.078125-1.3281 0.10938-0.078125 0-0.20312 0.015625-0.20312 0.21875 0 0.125 0.09375 0.125 0.26562 0.125 0.51562 0 0.53125 0.078125 0.53125 0.1875l-0.03125 0.21875-1.5781 6.2812c-0.046875 0.15625-0.046875 0.17188-0.046875 0.23438 0 0.25 0.21875 0.3125 0.32812 0.3125 0.14062 0 0.29688-0.10938 0.35938-0.23438 0.0625-0.09375 0.54688-2.1094 0.60938-2.3906 0.375 0.03125 1.2656 0.20312 1.2656 0.92188 0 0.078125 0 0.125-0.03125 0.23438-0.015625 0.14062-0.03125 0.26562-0.03125 0.39062 0 0.64062 0.42188 1.0781 1 1.0781 0.32812 0 0.625-0.17188 0.85938-0.57812 0.26562-0.48438 0.39062-1.0781 0.39062-1.1094 0-0.10938-0.09375-0.10938-0.125-0.10938-0.10938 0-0.125 0.046875-0.15625 0.20312-0.21875 0.79688-0.46875 1.3438-0.95312 1.3438-0.20312 0-0.34375-0.10938-0.34375-0.5 0-0.1875 0.046875-0.4375 0.078125-0.625 0.046875-0.17188 0.046875-0.21875 0.046875-0.32812 0-0.71875-0.6875-1.0312-1.6094-1.1406 0.34375-0.20312 0.6875-0.54688 0.9375-0.8125 0.51562-0.57812 1.0312-1.0469 1.5625-1.0469 0.0625 0 0.078125 0 0.09375 0.015625 0.125 0.015625 0.14062 0.015625 0.23438 0.078125 0.015625 0.015625 0.015625 0.03125 0.03125 0.046875-0.51562 0.03125-0.60938 0.45312-0.60938 0.59375 0 0.17188 0.10938 0.375 0.40625 0.375 0.28125 0 0.60938-0.23438 0.60938-0.67188 0-0.3125-0.25-0.6875-0.75-0.6875-0.29688 0-0.8125 0.09375-1.5938 0.96875-0.375 0.40625-0.79688 0.84375-1.2031 1.0156z"/>
     </g>
    </g>
    <g id="id-371a4415-d7b4-40e8-8cda-1e2cb1ced97d" transform="translate(-57.068 -59.48)">
     <g transform="translate(91.889 67.652)">
      <path id="id-75ddd30e-4c26-4936-9010-da79991d78ff" d="m2.2188-0.015625c0-0.71875-0.28125-1.1406-0.70312-1.1406-0.35938 0-0.57812 0.26562-0.57812 0.57812 0 0.29688 0.21875 0.57812 0.57812 0.57812 0.125 0 0.26562-0.046875 0.375-0.14062 0.046875-0.015625 0.046875-0.03125 0.0625-0.03125s0.015625 0.015625 0.015625 0.15625c0 0.8125-0.375 1.4688-0.73438 1.8281-0.125 0.125-0.125 0.14062-0.125 0.17188 0 0.078125 0.0625 0.125 0.10938 0.125 0.125 0 1-0.84375 1-2.125z"/>
     </g>
    </g>
    <g transform="translate(-57.068 -59.48)">
     <g transform="translate(96.741,67.652)">
      <path d="m2.8125-7.4531s0-0.10938-0.14062-0.10938c-0.25 0-1.0469 0.078125-1.3281 0.10938-0.09375 0-0.20312 0.015625-0.20312 0.21875 0 0.125 0.10938 0.125 0.26562 0.125 0.53125 0 0.53125 0.09375 0.53125 0.1875l-0.03125 0.21875-1.375 5.4531c-0.03125 0.10938-0.046875 0.1875-0.046875 0.35938 0 0.625 0.46875 1.0156 0.98438 1.0156 0.35938 0 0.64062-0.21875 0.82812-0.60938 0.1875-0.42188 0.32812-1.0469 0.32812-1.0781 0-0.10938-0.10938-0.10938-0.14062-0.10938-0.10938 0-0.125 0.046875-0.15625 0.20312-0.17188 0.70312-0.39062 1.3438-0.82812 1.3438-0.32812 0-0.32812-0.34375-0.32812-0.5 0-0.26562 0.015625-0.3125 0.078125-0.51562z"/>
     </g>
     <g transform="translate(100.21 67.652)">
      <path id="id-1d669f23-be8b-4f71-a183-0b9920ecb98f" d="m1.7344-8.1719h-1.5v0.42188h1.0625v10.047h-1.0625v0.42188h1.5z"/>
     </g>
    </g>
   </g>
  </g>
  <g transform="matrix(.35278 0 0 .35278 149.93 47.185)" ns45:alignment="middle center" ns45:inkscapeversion="1.2.1" ns45:jacobian_sqrt="0.352778" ns45:pdfconverter="inkscape" ns45:preamble="/home/rik/git/thesis/preambule.tex" ns45:scale="1.0" ns45:stroke-to-path="0" ns45:texconverter="pdflatex" ns45:text="$,$" ns45:version="1.8.1">
   <defs id="id-36c23512-67ef-49c3-a977-d59d0d0e334a">
    <g id="id-b7fff8fe-d6f3-4f1c-9aac-66550626214a"></g>
   </defs>
   <g id="id-65fc0b47-172f-4656-b193-cbbec5f307ce" transform="translate(-57.63 -66.496)">
    <g transform="translate(56.693,67.652)">
     <path d="m2.2188-0.015625c0-0.71875-0.28125-1.1406-0.70312-1.1406-0.35938 0-0.57812 0.26562-0.57812 0.57812 0 0.29688 0.21875 0.57812 0.57812 0.57812 0.125 0 0.26562-0.046875 0.375-0.14062 0.046875-0.015625 0.046875-0.03125 0.0625-0.03125s0.015625 0.015625 0.015625 0.15625c0 0.8125-0.375 1.4688-0.73438 1.8281-0.125 0.125-0.125 0.14062-0.125 0.17188 0 0.078125 0.0625 0.125 0.10938 0.125 0.125 0 1-0.84375 1-2.125z"/>
    </g>
   </g>
  </g>
  <g transform="matrix(.35278 0 0 .35278 161.04 47.185)" ns45:alignment="middle center" ns45:inkscapeversion="1.2.1" ns45:jacobian_sqrt="0.352778" ns45:pdfconverter="inkscape" ns45:preamble="/home/rik/git/thesis/preambule.tex" ns45:scale="1.0" ns45:stroke-to-path="0" ns45:texconverter="pdflatex" ns45:text="$,$" ns45:version="1.8.1">
   <defs></defs>
   <g transform="translate(-57.63 -66.496)">
    <g transform="translate(56.693,67.652)">
     <path d="m2.2188-0.015625c0-0.71875-0.28125-1.1406-0.70312-1.1406-0.35938 0-0.57812 0.26562-0.57812 0.57812 0 0.29688 0.21875 0.57812 0.57812 0.57812 0.125 0 0.26562-0.046875 0.375-0.14062 0.046875-0.015625 0.046875-0.03125 0.0625-0.03125s0.015625 0.015625 0.015625 0.15625c0 0.8125-0.375 1.4688-0.73438 1.8281-0.125 0.125-0.125 0.14062-0.125 0.17188 0 0.078125 0.0625 0.125 0.10938 0.125 0.125 0 1-0.84375 1-2.125z"/>
    </g>
   </g>
  </g>
  <g transform="matrix(.35278 0 0 .35278 173.21 47.185)" ns45:alignment="middle center" ns45:inkscapeversion="1.2.1" ns45:jacobian_sqrt="0.352778" ns45:pdfconverter="inkscape" ns45:preamble="/home/rik/git/thesis/preambule.tex" ns45:scale="1.0" ns45:stroke-to-path="0" ns45:texconverter="pdflatex" ns45:text="$,$" ns45:version="1.8.1">
   <defs></defs>
   <g transform="translate(-57.63 -66.496)">
    <g transform="translate(56.693,67.652)">
     <path d="m2.2188-0.015625c0-0.71875-0.28125-1.1406-0.70312-1.1406-0.35938 0-0.57812 0.26562-0.57812 0.57812 0 0.29688 0.21875 0.57812 0.57812 0.57812 0.125 0 0.26562-0.046875 0.375-0.14062 0.046875-0.015625 0.046875-0.03125 0.0625-0.03125s0.015625 0.015625 0.015625 0.15625c0 0.8125-0.375 1.4688-0.73438 1.8281-0.125 0.125-0.125 0.14062-0.125 0.17188 0 0.078125 0.0625 0.125 0.10938 0.125 0.125 0 1-0.84375 1-2.125z"/>
    </g>
   </g>
  </g>
  <g transform="matrix(.35278 0 0 .35278 29.651 57.172)" ns45:alignment="middle center" ns45:inkscapeversion="1.2.1" ns45:jacobian_sqrt="0.352778" ns45:pdfconverter="inkscape" ns45:preamble="/home/rik/git/thesis/preambule.tex" ns45:scale="1.0" ns45:stroke-to-path="0" ns45:texconverter="pdflatex" ns45:text="\\textsf{1D (vector)}" ns45:version="1.8.1">
   <defs id="id-ecb84dbe-c056-42f2-a501-fdb27e5da39c"></defs>
   <g>
    <g transform="translate(-57.693 -59.464)">
     <g transform="translate(56.693,67.652)">
      <path d="m1-6.6562v0.64062c0.5 0 0.9375-0.0625 1.4219-0.25v5.5938h-1.3594v0.65625h3.5469v-0.65625h-1.3438v-6.7031h-0.10938c-0.15625 0-0.23438 0.10938-0.34375 0.20312-0.51562 0.40625-1.1719 0.51562-1.8125 0.51562z"/>
     </g>
     <g transform="translate(62.113 67.652)">
      <path d="m1.0625-7.5781v7.5625h2.1406c0.17188 0 0.375 0.015625 0.5625 0.015625 0.84375 0 1.6719-0.3125 2.3125-0.9375 0.76562-0.71875 1.125-1.7812 1.125-2.8125 0-1.8906-1.2344-3.8438-3.4688-3.8438-0.21875 0-0.4375 0.015625-0.65625 0.015625zm0.85938 6.9531v-6.3281h1.5938c1.6406 0 2.6875 1.3438 2.7344 3.1094v0.125c0 1.4844-0.8125 3.0938-2.7656 3.0938z"/>
     </g>
    </g>
    <g id="id-be0b3c4b-91ce-469a-a9d3-7a6cb51c762d" transform="translate(-57.693 -59.464)">
     <g transform="translate(73.532 67.652)">
      <path d="m3.5938 2.7188c-0.125-0.15625-0.28125-0.29688-0.40625-0.46875-1.1094-1.3281-1.4688-3.1719-1.4688-4.875 0-1.7656 0.28125-3.6719 1.4688-5.0938 0.125-0.17188 0.28125-0.3125 0.40625-0.46875h-0.5625c-0.23438 0-0.46875 0.32812-0.60938 0.51562-1.1562 1.3281-1.5625 3.1406-1.5625 4.8594 0 1.9531 0.45312 3.9375 1.8906 5.375 0.078125 0.09375 0.125 0.15625 0.28125 0.15625z"/>
     </g>
     <g transform="translate(77.748 67.652)">
      <path d="m0.15625-4.8594 1.8125 4.8438h1.0156l1.8125-4.8438h-0.82812l-1.1719 3.2031-0.21875 0.65625-0.09375 0.42188-0.125-0.5625-0.26562-0.79688-1.0625-2.9219z"/>
     </g>
     <g transform="translate(82.716 67.652)">
      <path d="m4.3906-1.1875c-0.5 0.34375-0.98438 0.625-1.625 0.625-0.625 0-1.2031-0.39062-1.4688-1.0312-0.125-0.26562-0.15625-0.5625-0.1875-0.84375h3.375c0-0.71875-0.10938-1.4844-0.59375-2.0312-0.32812-0.39062-0.82812-0.5625-1.3281-0.5625-1.3906 0-2.1719 1.375-2.1719 2.6094v0.0625c0.03125 1.2344 0.96875 2.4688 2.3281 2.4688 0.54688 0 1.125-0.17188 1.5625-0.45312 0.09375-0.078125 0.17188-0.09375 0.17188-0.20312 0-0.20312-0.0625-0.42188-0.0625-0.64062zm-3.2031-1.8594c0.15625-0.65625 0.67188-1.3125 1.375-1.3125h0.03125c0.78125 0 1.1094 0.65625 1.2812 1.3125z"/>
     </g>
     <g transform="translate(87.533,67.652)">
      <path d="m4.4375-1.2031c-0.5 0.34375-0.98438 0.60938-1.6719 0.60938-1.0156 0-1.5625-0.92188-1.5625-1.875 0-0.9375 0.53125-1.8594 1.625-1.8594 0.32812 0 0.64062 0.046875 0.9375 0.17188 0.1875 0.09375 0.375 0.21875 0.54688 0.32812 0.046875-0.17188 0.078125-0.34375 0.10938-0.53125 0-0.03125 0.015625-0.078125 0.015625-0.14062 0-0.375-1.3906-0.53125-1.6562-0.53125-1.4219 0-2.3281 1.1875-2.375 2.4688v0.10938c0 1.2344 0.82812 2.5625 2.3438 2.5625 0.54688 0 1.125-0.15625 1.5938-0.45312 0.0625-0.046875 0.15625-0.078125 0.15625-0.1875 0-0.20312-0.046875-0.45312-0.0625-0.67188z"/>
     </g>
     <g transform="translate(92.35 67.652)">
      <path id="id-1e75e3d2-0453-40aa-ac3f-823eaa3d66bc" d="m1.1406-6.2344v1.375h-0.9375v0.65625h0.89062v2.9531c0 0.54688 0.15625 1.3594 0.89062 1.3594 0.57812 0 1.125-0.15625 1.625-0.42188l-0.17188-0.65625c-0.34375 0.21875-0.57812 0.375-0.98438 0.375-0.5 0-0.54688-0.59375-0.54688-0.96875v-2.6406h1.5156v-0.65625h-1.5156v-1.375z"/>
     </g>
     <g transform="translate(96.265 67.652)">
      <path d="m2.5469-5.0312c-1.3438 0.14062-2.2031 1.3438-2.2031 2.5938 0 1 0.54688 2.0625 1.6875 2.4375 0.21875 0.078125 0.4375 0.10938 0.6875 0.10938 1.2812 0 2.3438-1.1406 2.3438-2.5312 0-1.2188-0.84375-2.6094-2.375-2.6094zm-1.3906 2.6719c-0.015625-0.0625-0.015625-0.125-0.015625-0.1875 0-0.90625 0.57812-1.8125 1.5625-1.8125s1.5469 0.875 1.5469 1.8438c0 0.84375-0.4375 1.9219-1.5312 1.9219-0.90625 0-1.4688-0.76562-1.5625-1.7656z"/>
     </g>
    </g>
    <g transform="translate(-57.693 -59.464)">
     <g transform="translate(101.39,67.652)">
      <path d="m1.6406-3.9688v-0.9375h-0.78125v4.8906h0.82812v-2.2031c0-0.73438 0.25-1.5625 1.2188-1.8906 0.1875-0.078125 0.40625-0.10938 0.60938-0.10938v-0.75c-0.76562 0-1.3594 0.35938-1.875 1z"/>
     </g>
     <g transform="translate(105.08 67.652)">
      <path d="m0.59375-8.1875c0.14062 0.15625 0.29688 0.29688 0.42188 0.46875 1.0938 1.3281 1.4531 3.1719 1.4531 4.875 0 1.7812-0.28125 3.6875-1.4531 5.0938-0.125 0.17188-0.28125 0.3125-0.42188 0.46875h0.57812c0.20312 0 0.42188-0.28125 0.54688-0.4375 1.2344-1.3594 1.625-3.3125 1.625-5.0781 0-1.9219-0.51562-3.8594-1.875-5.2188-0.09375-0.09375-0.14062-0.17188-0.29688-0.17188z"/>
     </g>
    </g>
   </g>
  </g>
  <g transform="matrix(.35278 0 0 .35278 63.362 57.495)" ns45:alignment="middle center" ns45:inkscapeversion="1.2.1" ns45:jacobian_sqrt="0.352778" ns45:pdfconverter="inkscape" ns45:preamble="/home/rik/git/thesis/preambule.tex" ns45:scale="1.0" ns45:stroke-to-path="0" ns45:texconverter="pdflatex" ns45:text="\\textsf{2D (matrix)}" ns45:version="1.8.1">
   <defs id="id-3cb68278-ea69-40db-ad3f-cc7849f6f40b"></defs>
   <g transform="translate(-57.146 -59.464)">
    <g transform="translate(56.693,67.652)">
     <path d="m0.92188-5c0.17188-0.76562 0.51562-1.6719 1.5-1.6719 0.92188 0 1.5625 0.76562 1.5625 1.6719 0 1.2031-1.125 2.0156-1.9062 2.75l-1.4375 1.4375c-0.078125 0.078125-0.09375 0.10938-0.09375 0.21875v0.57812h4.3125v-0.76562h-3.5312c0.59375-0.53125 1.1406-1.1094 1.7344-1.6406 0.8125-0.70312 1.7969-1.4219 1.7969-2.6562s-0.9375-2.2344-2.1875-2.2969h-0.09375c-0.92188 0-1.6719 0.45312-2.0625 1.5469-0.03125 0.0625-0.0625 0.14062-0.0625 0.1875 0.015625 0.078125 0.09375 0.14062 0.14062 0.20312 0.10938 0.14062 0.20312 0.3125 0.32812 0.4375z"/>
    </g>
    <g transform="translate(62.113 67.652)">
     <path d="m1.0625-7.5781v7.5625h2.1406c0.17188 0 0.375 0.015625 0.5625 0.015625 0.84375 0 1.6719-0.3125 2.3125-0.9375 0.76562-0.71875 1.125-1.7812 1.125-2.8125 0-1.8906-1.2344-3.8438-3.4688-3.8438-0.21875 0-0.4375 0.015625-0.65625 0.015625zm0.85938 6.9531v-6.3281h1.5938c1.6406 0 2.6875 1.3438 2.7344 3.1094v0.125c0 1.4844-0.8125 3.0938-2.7656 3.0938z"/>
    </g>
   </g>
   <g id="id-87d05c8c-2c04-41fe-9a59-19a48bc2028b" transform="translate(-57.146 -59.464)">
    <g transform="translate(73.532 67.652)">
     <path id="id-25fb81ed-ebca-4e9b-9b62-0d77586c754a" d="m3.5938 2.7188c-0.125-0.15625-0.28125-0.29688-0.40625-0.46875-1.1094-1.3281-1.4688-3.1719-1.4688-4.875 0-1.7656 0.28125-3.6719 1.4688-5.0938 0.125-0.17188 0.28125-0.3125 0.40625-0.46875h-0.5625c-0.23438 0-0.46875 0.32812-0.60938 0.51562-1.1562 1.3281-1.5625 3.1406-1.5625 4.8594 0 1.9531 0.45312 3.9375 1.8906 5.375 0.078125 0.09375 0.125 0.15625 0.28125 0.15625z"/>
    </g>
    <g transform="translate(77.748 67.652)">
     <path d="m1.6406-4.1719v-0.73438h-0.79688v4.8906h0.85938v-2.5c0-0.6875 0.125-1.7812 1.0781-1.7812 0.3125 0 0.64062 0.0625 0.85938 0.3125 0.20312 0.21875 0.23438 0.51562 0.23438 0.8125 0 0.14062-0.015625 0.26562-0.015625 0.40625v2.75h0.85938v-2.5c0-0.6875 0.125-1.7812 1.0781-1.7812 0.3125 0 0.65625 0.0625 0.85938 0.3125 0.20312 0.21875 0.23438 0.51562 0.23438 0.8125 0 0.14062-0.015625 0.26562-0.015625 0.40625v2.75h0.875v-3.2031c0-0.8125-0.21875-1.75-1.4844-1.75-0.625 0-1.3281 0.29688-1.6406 0.875-0.14062-0.26562-0.20312-0.4375-0.40625-0.59375-0.28125-0.21875-0.64062-0.28125-0.98438-0.28125-0.65625 0-1.1719 0.3125-1.5938 0.79688z"/>
    </g>
    <g transform="translate(86.329 67.652)">
     <path id="id-fc311d87-ce18-498c-980c-450a570faefa" d="m0.89062-3.8125c0.60938-0.35938 0.96875-0.57812 1.6875-0.57812h0.0625c0.60938 0.078125 0.84375 0.6875 0.84375 1.2812v0.39062c-1.1406 0-2.9844 0.25-2.9844 1.4688 0 0.64062 0.42188 1.3594 1.1875 1.3594 0.625 0 1.3281-0.125 1.8281-0.51562v0.39062h0.82812v-3.0625c0-1.0156-0.60938-1.9531-1.7812-1.9531-0.53125 0-1.0625 0.10938-1.5312 0.35938-0.078125 0.03125-0.20312 0.0625-0.20312 0.1875 0 0.21875 0.0625 0.45312 0.0625 0.67188zm2.5938 1.6562v0.60938c0 0.73438-0.54688 0.98438-1.2344 0.98438-0.39062 0-1-0.1875-1-0.71875 0-0.54688 0.875-0.73438 1.2812-0.79688 0.3125-0.046875 0.625-0.078125 0.95312-0.078125z"/>
    </g>
    <g transform="translate(91.522 67.652)">
     <path id="id-b0f3ba93-4822-4db7-8f1b-bfd4878e67bd" d="m1.1406-6.2344v1.375h-0.9375v0.65625h0.89062v2.9531c0 0.54688 0.15625 1.3594 0.89062 1.3594 0.57812 0 1.125-0.15625 1.625-0.42188l-0.17188-0.65625c-0.34375 0.21875-0.57812 0.375-0.98438 0.375-0.5 0-0.54688-0.59375-0.54688-0.96875v-2.6406h1.5156v-0.65625h-1.5156v-1.375z"/>
    </g>
    <g transform="translate(95.437 67.652)">
     <path id="id-fa1392d9-bb32-4832-a01d-ff16b0f1683a" d="m1.6406-3.9688v-0.9375h-0.78125v4.8906h0.82812v-2.2031c0-0.73438 0.25-1.5625 1.2188-1.8906 0.1875-0.078125 0.40625-0.10938 0.60938-0.10938v-0.75c-0.76562 0-1.3594 0.35938-1.875 1z"/>
    </g>
    <g transform="translate(99.125,67.652)">
     <path id="id-dce0dc4a-5e3e-4d55-9474-8784494536be" d="m0.85938-4.8594v4.8438h0.82812v-4.8438zm-0.078125-2.5625v0.96875h0.96875v-0.96875z"/>
    </g>
    <g transform="translate(101.68 67.652)">
     <path d="m0.0625-4.8594c0.14062 0.21875 0.34375 0.40625 0.5 0.60938l1.3281 1.5469c0.046875 0.046875 0.15625 0.125 0.15625 0.1875v0.015625c0 0.0625-0.078125 0.125-0.125 0.17188l-0.39062 0.46875c-0.32812 0.39062-0.64062 0.76562-0.96875 1.1562-0.1875 0.23438-0.39062 0.45312-0.5625 0.6875h0.92188l1.5156-2.0156 1.5781 2.0156h0.9375c-0.17188-0.21875-0.375-0.4375-0.5625-0.65625l-1.4062-1.6406c-0.046875-0.046875-0.14062-0.125-0.14062-0.20312 0-0.10938 0.35938-0.42188 0.5-0.625l0.9375-1.1094c0.15625-0.20312 0.34375-0.39062 0.48438-0.60938l-0.92188 0.015625-1.3906 1.75-1.3125-1.6094-0.14062-0.14062-0.29688-0.015625z"/>
    </g>
    <g transform="translate(106.65 67.652)">
     <path d="m0.59375-8.1875c0.14062 0.15625 0.29688 0.29688 0.42188 0.46875 1.0938 1.3281 1.4531 3.1719 1.4531 4.875 0 1.7812-0.28125 3.6875-1.4531 5.0938-0.125 0.17188-0.28125 0.3125-0.42188 0.46875h0.57812c0.20312 0 0.42188-0.28125 0.54688-0.4375 1.2344-1.3594 1.625-3.3125 1.625-5.0781 0-1.9219-0.51562-3.8594-1.875-5.2188-0.09375-0.09375-0.14062-0.17188-0.29688-0.17188z"/>
    </g>
   </g>
  </g>
  <g transform="matrix(.35278 0 0 .35278 106.78 57.513)" ns45:alignment="middle center" ns45:inkscapeversion="1.2.1" ns45:jacobian_sqrt="0.352778" ns45:pdfconverter="inkscape" ns45:preamble="/home/rik/git/thesis/preambule.tex" ns45:scale="1.0" ns45:stroke-to-path="0" ns45:texconverter="pdflatex" ns45:text="\\textsf{3D}" ns45:version="1.8.1">
   <defs id="id-20c9c01f-6677-452c-b440-f95abbb609fd"></defs>
   <g id="id-a665fcf2-df7f-4f1f-bef1-f2e7fec4166f" transform="translate(-57.146 -60.058)">
    <g transform="translate(56.693,67.652)">
     <path d="m1-5.5938c0.25-0.35938 0.35938-0.60938 0.6875-0.8125 0.28125-0.1875 0.64062-0.3125 1-0.3125 0.59375 0 1.0938 0.39062 1.0938 1.0156 0 0.6875-0.51562 1.2969-1.1562 1.4219-0.26562 0.078125-0.5625 0.0625-0.82812 0.078125v0.6875h0.64062c0.25 0 0.5 0 0.73438 0.10938 0.5625 0.23438 0.8125 0.82812 0.8125 1.4219 0 0.75-0.46875 1.5312-1.3438 1.5312-0.84375 0-1.5781-0.45312-2.0781-1.125-0.03125 0.20312-0.10938 0.42188-0.10938 0.625v0.046875c0.0625 0.15625 0.28125 0.34375 0.42188 0.45312 0.48438 0.40625 1.0625 0.625 1.6719 0.67188h0.14062c1.1875 0 2.2812-0.95312 2.2812-2.1875 0-0.71875-0.4375-1.3438-1.0469-1.7031l-0.46875-0.1875c0.71875-0.32812 1.2031-1.1094 1.2031-1.8594 0-1.0625-1.0625-1.6562-1.9688-1.6562-0.75 0-1.625 0.39062-2.0156 1.0625-0.015625 0.03125-0.046875 0.0625-0.046875 0.10938v0.015625c0 0.09375 0.25 0.40625 0.375 0.59375z"/>
    </g>
    <g transform="translate(62.113 67.652)">
     <path d="m1.0625-7.5781v7.5625h2.1406c0.17188 0 0.375 0.015625 0.5625 0.015625 0.84375 0 1.6719-0.3125 2.3125-0.9375 0.76562-0.71875 1.125-1.7812 1.125-2.8125 0-1.8906-1.2344-3.8438-3.4688-3.8438-0.21875 0-0.4375 0.015625-0.65625 0.015625zm0.85938 6.9531v-6.3281h1.5938c1.6406 0 2.6875 1.3438 2.7344 3.1094v0.125c0 1.4844-0.8125 3.0938-2.7656 3.0938z"/>
    </g>
   </g>
  </g>
  <g transform="matrix(.35278 0 0 .35278 160.12 57.651)" ns45:alignment="middle center" ns45:inkscapeversion="1.2.1" ns45:jacobian_sqrt="0.352778" ns45:pdfconverter="inkscape" ns45:preamble="/home/rik/git/thesis/preambule.tex" ns45:scale="1.0" ns45:stroke-to-path="0" ns45:texconverter="pdflatex" ns45:text="\\textsf{4D}" ns45:version="1.8.1">
   <defs></defs>
   <g transform="translate(-57.006 -60.058)">
    <g transform="translate(56.693,67.652)">
     <path d="m0.3125-1.875h2.875v1.8594h0.84375v-1.8594h1.0781v-0.67188h-1.0781v-4.5938h-0.875c-0.14062 0-0.17188 0.046875-0.21875 0.15625l-0.17188 0.25c-0.71875 1.2656-1.4688 2.5312-2.2031 3.75l-0.15625 0.26562c-0.0625 0.10938-0.09375 0.17188-0.09375 0.28125zm0.85938-0.67188c0.6875-1.125 1.375-2.3125 1.8906-3.5312 0.078125-0.20312 0.17188-0.42188 0.17188-0.64062v4.1719z"/>
    </g>
    <g transform="translate(62.113 67.652)">
     <path d="m1.0625-7.5781v7.5625h2.1406c0.17188 0 0.375 0.015625 0.5625 0.015625 0.84375 0 1.6719-0.3125 2.3125-0.9375 0.76562-0.71875 1.125-1.7812 1.125-2.8125 0-1.8906-1.2344-3.8438-3.4688-3.8438-0.21875 0-0.4375 0.015625-0.65625 0.015625zm0.85938 6.9531v-6.3281h1.5938c1.6406 0 2.6875 1.3438 2.7344 3.1094v0.125c0 1.4844-0.8125 3.0938-2.7656 3.0938z"/>
    </g>
   </g>
  </g>
 </g>
</svg>
