<?xml version="1.0" encoding="UTF-8"?>
<!-- Created with Inkscape (http://www.inkscape.org/) -->
<svg width="62.561mm" height="22.069mm" version="1.1" viewBox="0 0 62.561 22.069" xmlns="http://www.w3.org/2000/svg" xmlns:ns45="http://www.iki.fi/pav/software/textext/" xmlns:xlink="http://www.w3.org/1999/xlink">
 <defs>
  <radialGradient id="radialGradient66159-1-7" cx="-32.643" cy="-39.378" r="4.3564" gradientTransform="translate(-114.86 22.429)" gradientUnits="userSpaceOnUse" xlink:href="#linearGradient65489"/>
  <linearGradient id="linearGradient65489">
   <stop stop-color="#e2faff" offset="0"/>
   <stop stop-color="#c1f5ff" offset="1"/>
  </linearGradient>
  <radialGradient id="radialGradient66159-1" cx="-32.643" cy="-39.378" r="4.3564" gradientTransform="translate(-97.401 22.429)" gradientUnits="userSpaceOnUse" xlink:href="#linearGradient65489"/>
  <radialGradient id="radialGradient66159" cx="-32.643" cy="-39.378" r="4.3564" gradientTransform="translate(-69.885 22.429)" gradientUnits="userSpaceOnUse" xlink:href="#linearGradient65489"/>
  <g id="id-6beadefa-9c1a-4805-9034-13b7fea8226b"></g>
  <g stroke-width="0">
   <g id="id-50e7fe0b-4eea-45b2-b4a6-c72cfbabefcd"></g>
   <g id="id-e3fea240-26e3-4dfd-a16d-c6edd4d564bf"></g>
  </g>
  <g stroke-width="0">
   <g id="id-2ebae005-534d-40b8-930f-d873e97450ff"></g>
  </g>
  <radialGradient id="radialGradient66159-1-7-0" cx="-32.643" cy="-39.378" r="4.3564" gradientTransform="translate(-105.9 13.294)" gradientUnits="userSpaceOnUse" xlink:href="#linearGradient65489"/>
  <g stroke-width="0"></g>
 </defs>
 <g transform="translate(-93.75 -12.593)">
  <g fill="none" stroke="#000" stroke-width=".186">
   <path d="m93.75 16.984h18.074"/>
   <path d="m102.6 12.8v13.163"/>
   <path d="m121.27 16.984h35.044"/>
   <path d="m138.55 16.81v17.852"/>
  </g>
  <rect transform="scale(-1)" x="-106.79" y="-21.213" width="8.5268" height="8.5268" rx="2.3389" ry="2.3389" fill="url(#radialGradient66159)" stroke="#000607" stroke-linecap="round" stroke-linejoin="round" stroke-width=".186" style="paint-order:markers fill stroke"/>
  <g stroke-width="0">
   <g transform="matrix(.26458 0 0 .26458 108.27 14.241)" ns45:alignment="middle center" ns45:jacobian_sqrt="0.264583" ns45:pdfconverter="inkscape" ns45:preamble="/home/rik/git/thesis/preambule.tex" ns45:scale="0.75" ns45:stroke-to-path="0" ns45:texconverter="pdflatex" ns45:text="$n$" ns45:version="1.8.1">
    <defs>
     <g stroke-width="0"></g>
    </defs>
    <g transform="translate(-57.006 -62.824)">
     <g transform="translate(56.693,67.652)" stroke-width="0">
      <path d="m0.95312-0.64062c-0.03125 0.15625-0.09375 0.40625-0.09375 0.46875 0 0.1875 0.15625 0.29688 0.3125 0.29688 0.14062 0 0.32812-0.09375 0.40625-0.3125 0.015625-0.015625 0.14062-0.53125 0.20312-0.8125l0.25-0.96875c0.0625-0.25 0.125-0.48438 0.1875-0.73438 0.03125-0.1875 0.125-0.5 0.14062-0.54688 0.15625-0.34375 0.73438-1.3281 1.7812-1.3281 0.48438 0 0.57812 0.40625 0.57812 0.76562 0 0.67188-0.53125 2.0625-0.70312 2.5312-0.09375 0.25-0.10938 0.39062-0.10938 0.5 0 0.51562 0.375 0.90625 0.89062 0.90625 1.0312 0 1.4375-1.5938 1.4375-1.6875 0-0.10938-0.10938-0.10938-0.14062-0.10938-0.10938 0-0.10938 0.03125-0.15625 0.20312-0.21875 0.73438-0.57812 1.3438-1.1094 1.3438-0.1875 0-0.26562-0.10938-0.26562-0.35938 0-0.26562 0.09375-0.53125 0.1875-0.76562 0.21875-0.57812 0.67188-1.7812 0.67188-2.4062 0-0.73438-0.46875-1.1719-1.25-1.1719-0.98438 0-1.5156 0.70312-1.7031 0.95312-0.0625-0.60938-0.5-0.95312-1-0.95312-0.51562 0-0.71875 0.4375-0.82812 0.625-0.17188 0.375-0.32812 1.0156-0.32812 1.0625 0 0.10938 0.10938 0.10938 0.14062 0.10938 0.10938 0 0.10938-0.015625 0.17188-0.25 0.1875-0.78125 0.40625-1.2969 0.79688-1.2969 0.21875 0 0.34375 0.14062 0.34375 0.5 0 0.23438-0.03125 0.34375-0.17188 0.92188z" stroke-width="0"/>
     </g>
    </g>
   </g>
   <g transform="matrix(.26458 0 0 .26458 94.394 14.025)" ns45:alignment="middle center" ns45:jacobian_sqrt="0.264583" ns45:pdfconverter="inkscape" ns45:preamble="/home/rik/git/thesis/preambule.tex" ns45:scale="0.75" ns45:stroke-to-path="0" ns45:texconverter="pdflatex" ns45:text="$m$" ns45:version="1.8.1">
    <defs id="id-24b5a478-ebeb-4293-80e4-6bad0173840b">
     <g stroke-width="0"></g>
    </defs>
    <g transform="translate(-57.006 -62.824)">
     <g transform="translate(56.693,67.652)" stroke-width="0">
      <path d="m0.95312-0.64062c-0.03125 0.15625-0.09375 0.40625-0.09375 0.46875 0 0.1875 0.15625 0.29688 0.3125 0.29688 0.14062 0 0.32812-0.09375 0.40625-0.3125 0.015625-0.015625 0.14062-0.53125 0.20312-0.8125l0.25-0.96875c0.0625-0.25 0.125-0.48438 0.1875-0.73438 0.03125-0.1875 0.125-0.5 0.14062-0.54688 0.15625-0.34375 0.73438-1.3281 1.7812-1.3281 0.48438 0 0.57812 0.40625 0.57812 0.76562 0 0.26562-0.078125 0.57812-0.15625 0.90625l-0.3125 1.2656-0.21875 0.82812c-0.046875 0.21875-0.14062 0.57812-0.14062 0.64062 0 0.1875 0.15625 0.29688 0.3125 0.29688 0.34375 0 0.40625-0.28125 0.5-0.625 0.15625-0.60938 0.54688-2.2031 0.65625-2.625 0.03125-0.14062 0.60938-1.4531 1.7969-1.4531 0.46875 0 0.59375 0.375 0.59375 0.76562 0 0.60938-0.46875 1.8594-0.6875 2.4375-0.09375 0.26562-0.14062 0.375-0.14062 0.59375 0 0.51562 0.39062 0.90625 0.89062 0.90625 1.0312 0 1.4375-1.5938 1.4375-1.6875 0-0.10938-0.09375-0.10938-0.125-0.10938-0.10938 0-0.10938 0.03125-0.17188 0.20312-0.15625 0.57812-0.51562 1.3438-1.1094 1.3438-0.1875 0-0.26562-0.10938-0.26562-0.35938 0-0.26562 0.09375-0.53125 0.20312-0.76562 0.20312-0.57812 0.65625-1.7812 0.65625-2.4062 0-0.70312-0.4375-1.1719-1.25-1.1719s-1.375 0.48438-1.7812 1.0625c0-0.14062-0.046875-0.51562-0.34375-0.76562-0.28125-0.23438-0.625-0.29688-0.89062-0.29688-0.98438 0-1.5156 0.70312-1.7031 0.95312-0.0625-0.625-0.51562-0.95312-1-0.95312-0.51562 0-0.71875 0.4375-0.8125 0.625-0.20312 0.39062-0.34375 1.0312-0.34375 1.0625 0 0.10938 0.10938 0.10938 0.14062 0.10938 0.10938 0 0.10938-0.015625 0.17188-0.25 0.1875-0.78125 0.40625-1.2969 0.79688-1.2969 0.1875 0 0.34375 0.078125 0.34375 0.5 0 0.23438-0.03125 0.34375-0.17188 0.92188z" stroke-width="0"/>
     </g>
    </g>
   </g>
   <g transform="matrix(.35278 0 0 .35278 101.21 15.367)" ns45:alignment="middle center" ns45:jacobian_sqrt="0.352778" ns45:pdfconverter="inkscape" ns45:preamble="/home/rik/git/thesis/preambule.tex" ns45:scale="1.0" ns45:stroke-to-path="0" ns45:texconverter="pdflatex" ns45:text="$A$" ns45:version="1.8.1">
    <defs id="id-4d4fa8a3-992c-431c-9fec-a3237a0e6f4c">
     <g stroke-width="0"></g>
    </defs>
    <g transform="translate(-57.068 -59.84)">
     <g transform="translate(56.693,67.652)" stroke-width="0">
      <path d="m1.9531-1.25c-0.4375 0.71875-0.85938 0.875-1.3438 0.90625-0.125 0.015625-0.23438 0.015625-0.23438 0.21875 0 0.078125 0.0625 0.125 0.15625 0.125 0.28125 0 0.625-0.03125 0.9375-0.03125 0.35938 0 0.73438 0.03125 1.0781 0.03125 0.078125 0 0.21875 0 0.21875-0.20312 0-0.125-0.10938-0.14062-0.1875-0.14062-0.25-0.015625-0.5-0.10938-0.5-0.375 0-0.125 0.0625-0.25 0.14062-0.40625l0.82812-1.3906h2.75c0.015625 0.21875 0.17188 1.7031 0.17188 1.8125 0 0.32812-0.5625 0.35938-0.78125 0.35938-0.15625 0-0.26562 0-0.26562 0.21875 0 0.125 0.125 0.125 0.15625 0.125 0.4375 0 0.90625-0.03125 1.3594-0.03125 0.26562 0 0.95312 0.03125 1.2344 0.03125 0.0625 0 0.1875 0 0.1875-0.21875 0-0.125-0.10938-0.125-0.25-0.125-0.67188 0-0.67188-0.078125-0.70312-0.39062l-0.67188-6.8125c-0.015625-0.21875-0.015625-0.26562-0.20312-0.26562-0.17188 0-0.21875 0.078125-0.28125 0.1875zm1.3125-1.6094 2.1406-3.5938 0.35938 3.5938z" stroke-width="0"/>
     </g>
    </g>
   </g>
  </g>
  <rect transform="scale(-1)" x="-134.31" y="-21.213" width="8.5268" height="8.5268" rx="2.3389" ry="2.3389" fill="url(#radialGradient66159-1)" stroke="#000607" stroke-linecap="round" stroke-linejoin="round" stroke-width=".186" style="paint-order:markers fill stroke"/>
  <g transform="matrix(.26458 0 0 .26458 121.91 14.025)" stroke-width="0" ns45:alignment="middle center" ns45:jacobian_sqrt="0.264583" ns45:pdfconverter="inkscape" ns45:preamble="/home/rik/git/thesis/preambule.tex" ns45:scale="0.75" ns45:stroke-to-path="0" ns45:texconverter="pdflatex" ns45:text="$m$" ns45:version="1.8.1">
   <defs>
    <g stroke-width="0"></g>
   </defs>
   <g transform="translate(-57.006 -62.824)">
    <g transform="translate(56.693,67.652)" stroke-width="0">
     <path d="m0.95312-0.64062c-0.03125 0.15625-0.09375 0.40625-0.09375 0.46875 0 0.1875 0.15625 0.29688 0.3125 0.29688 0.14062 0 0.32812-0.09375 0.40625-0.3125 0.015625-0.015625 0.14062-0.53125 0.20312-0.8125l0.25-0.96875c0.0625-0.25 0.125-0.48438 0.1875-0.73438 0.03125-0.1875 0.125-0.5 0.14062-0.54688 0.15625-0.34375 0.73438-1.3281 1.7812-1.3281 0.48438 0 0.57812 0.40625 0.57812 0.76562 0 0.26562-0.078125 0.57812-0.15625 0.90625l-0.3125 1.2656-0.21875 0.82812c-0.046875 0.21875-0.14062 0.57812-0.14062 0.64062 0 0.1875 0.15625 0.29688 0.3125 0.29688 0.34375 0 0.40625-0.28125 0.5-0.625 0.15625-0.60938 0.54688-2.2031 0.65625-2.625 0.03125-0.14062 0.60938-1.4531 1.7969-1.4531 0.46875 0 0.59375 0.375 0.59375 0.76562 0 0.60938-0.46875 1.8594-0.6875 2.4375-0.09375 0.26562-0.14062 0.375-0.14062 0.59375 0 0.51562 0.39062 0.90625 0.89062 0.90625 1.0312 0 1.4375-1.5938 1.4375-1.6875 0-0.10938-0.09375-0.10938-0.125-0.10938-0.10938 0-0.10938 0.03125-0.17188 0.20312-0.15625 0.57812-0.51562 1.3438-1.1094 1.3438-0.1875 0-0.26562-0.10938-0.26562-0.35938 0-0.26562 0.09375-0.53125 0.20312-0.76562 0.20312-0.57812 0.65625-1.7812 0.65625-2.4062 0-0.70312-0.4375-1.1719-1.25-1.1719s-1.375 0.48438-1.7812 1.0625c0-0.14062-0.046875-0.51562-0.34375-0.76562-0.28125-0.23438-0.625-0.29688-0.89062-0.29688-0.98438 0-1.5156 0.70312-1.7031 0.95312-0.0625-0.625-0.51562-0.95312-1-0.95312-0.51562 0-0.71875 0.4375-0.8125 0.625-0.20312 0.39062-0.34375 1.0312-0.34375 1.0625 0 0.10938 0.10938 0.10938 0.14062 0.10938 0.10938 0 0.10938-0.015625 0.17188-0.25 0.1875-0.78125 0.40625-1.2969 0.79688-1.2969 0.1875 0 0.34375 0.078125 0.34375 0.5 0 0.23438-0.03125 0.34375-0.17188 0.92188z" stroke-width="0"/>
    </g>
   </g>
  </g>
  <rect transform="scale(-1)" x="-151.77" y="-21.213" width="8.5268" height="8.5268" rx="2.3389" ry="2.3389" fill="url(#radialGradient66159-1-7)" stroke="#000607" stroke-linecap="round" stroke-linejoin="round" stroke-width=".186" style="paint-order:markers fill stroke"/>
  <g transform="matrix(.26458 0 0 .26458 153.25 14.241)" stroke-width="0" ns45:alignment="middle center" ns45:jacobian_sqrt="0.264583" ns45:pdfconverter="inkscape" ns45:preamble="/home/rik/git/thesis/preambule.tex" ns45:scale="0.75" ns45:stroke-to-path="0" ns45:texconverter="pdflatex" ns45:text="$n$" ns45:version="1.8.1">
   <defs>
    <g stroke-width="0"></g>
   </defs>
   <g transform="translate(-57.006 -62.824)">
    <g transform="translate(56.693,67.652)" stroke-width="0">
     <path d="m0.95312-0.64062c-0.03125 0.15625-0.09375 0.40625-0.09375 0.46875 0 0.1875 0.15625 0.29688 0.3125 0.29688 0.14062 0 0.32812-0.09375 0.40625-0.3125 0.015625-0.015625 0.14062-0.53125 0.20312-0.8125l0.25-0.96875c0.0625-0.25 0.125-0.48438 0.1875-0.73438 0.03125-0.1875 0.125-0.5 0.14062-0.54688 0.15625-0.34375 0.73438-1.3281 1.7812-1.3281 0.48438 0 0.57812 0.40625 0.57812 0.76562 0 0.67188-0.53125 2.0625-0.70312 2.5312-0.09375 0.25-0.10938 0.39062-0.10938 0.5 0 0.51562 0.375 0.90625 0.89062 0.90625 1.0312 0 1.4375-1.5938 1.4375-1.6875 0-0.10938-0.10938-0.10938-0.14062-0.10938-0.10938 0-0.10938 0.03125-0.15625 0.20312-0.21875 0.73438-0.57812 1.3438-1.1094 1.3438-0.1875 0-0.26562-0.10938-0.26562-0.35938 0-0.26562 0.09375-0.53125 0.1875-0.76562 0.21875-0.57812 0.67188-1.7812 0.67188-2.4062 0-0.73438-0.46875-1.1719-1.25-1.1719-0.98438 0-1.5156 0.70312-1.7031 0.95312-0.0625-0.60938-0.5-0.95312-1-0.95312-0.51562 0-0.71875 0.4375-0.82812 0.625-0.17188 0.375-0.32812 1.0156-0.32812 1.0625 0 0.10938 0.10938 0.10938 0.14062 0.10938 0.10938 0 0.10938-0.015625 0.17188-0.25 0.1875-0.78125 0.40625-1.2969 0.79688-1.2969 0.21875 0 0.34375 0.14062 0.34375 0.5 0 0.23438-0.03125 0.34375-0.17188 0.92188z" stroke-width="0"/>
    </g>
   </g>
  </g>
  <g transform="matrix(.35278 0 0 .35278 115.39 16.631)" ns45:alignment="middle center" ns45:jacobian_sqrt="0.352778" ns45:pdfconverter="inkscape" ns45:preamble="/home/rik/git/thesis/preambule.tex" ns45:scale="1.0" ns45:stroke-to-path="0" ns45:texconverter="pdflatex" ns45:text="$=$" ns45:version="1.8.1">
   <defs id="id-e442e393-4cd8-4cd9-85bd-0523a948edac"></defs>
   <g transform="translate(-57.302 -63.652)">
    <g transform="translate(56.693,67.652)">
     <path d="m7.5-3.5625c0.15625 0 0.35938 0 0.35938-0.21875s-0.20312-0.21875-0.35938-0.21875h-6.5312c-0.15625 0-0.35938 0-0.35938 0.21875s0.20312 0.21875 0.375 0.21875zm0 2.1094c0.15625 0 0.35938 0 0.35938-0.21875s-0.20312-0.21875-0.35938-0.21875h-6.5156c-0.17188 0-0.375 0-0.375 0.21875s0.20312 0.21875 0.35938 0.21875z"/>
    </g>
   </g>
  </g>
  <g stroke-width="0">
   <g transform="matrix(.26458 0 0 .26458 138.1 14.241)" ns45:alignment="middle center" ns45:jacobian_sqrt="0.264583" ns45:pdfconverter="inkscape" ns45:preamble="/home/rik/git/thesis/preambule.tex" ns45:scale="0.75" ns45:stroke-to-path="0" ns45:texconverter="pdflatex" ns45:text="$r$" ns45:version="1.8.1">
    <defs>
     <g stroke-width="0"></g>
    </defs>
    <g transform="translate(-57.006 -62.824)">
     <g transform="translate(56.693,67.652)" stroke-width="0">
      <path d="m0.95312-0.64062c-0.03125 0.15625-0.09375 0.40625-0.09375 0.46875 0 0.1875 0.15625 0.29688 0.3125 0.29688 0.14062 0 0.32812-0.09375 0.40625-0.3125 0.03125-0.046875 0.39062-1.5312 0.4375-1.7188 0.09375-0.35938 0.28125-1.125 0.34375-1.4219 0.046875-0.14062 0.35938-0.65625 0.625-0.89062 0.078125-0.078125 0.39062-0.35938 0.85938-0.35938 0.29688 0 0.45312 0.125 0.46875 0.125-0.32812 0.0625-0.57812 0.3125-0.57812 0.60938 0 0.17188 0.125 0.375 0.42188 0.375s0.59375-0.25 0.59375-0.64062-0.34375-0.71875-0.90625-0.71875c-0.70312 0-1.1875 0.54688-1.3906 0.84375-0.09375-0.48438-0.48438-0.84375-0.98438-0.84375-0.51562 0-0.71875 0.4375-0.8125 0.625-0.20312 0.375-0.34375 1.0312-0.34375 1.0625 0 0.10938 0.10938 0.10938 0.14062 0.10938 0.10938 0 0.10938-0.015625 0.17188-0.25 0.1875-0.78125 0.40625-1.2969 0.79688-1.2969 0.1875 0 0.34375 0.078125 0.34375 0.5 0 0.23438-0.03125 0.34375-0.17188 0.92188z" stroke-width="0"/>
     </g>
    </g>
   </g>
   <g transform="matrix(.35278 0 0 .35278 128.46 15.431)" ns45:alignment="middle center" ns45:jacobian_sqrt="0.352778" ns45:pdfconverter="inkscape" ns45:preamble="/home/rik/git/thesis/preambule.tex" ns45:scale="1.0" ns45:stroke-to-path="0" ns45:texconverter="pdflatex" ns45:text="$X$" ns45:version="1.8.1">
    <defs id="id-0fe0454c-6906-4156-9957-0e18d2ba63fe">
     <g stroke-width="0"></g>
    </defs>
    <g id="id-ef03515f-8ddf-4dc3-a339-8301dba6c69d" transform="translate(-56.99 -60.199)">
     <g transform="translate(56.693,67.652)" stroke-width="0">
      <path id="id-06072001-e2c7-42f3-a013-22709be6fbec" d="m5.2969-4.4844-0.92188-2.1719c-0.03125-0.078125-0.0625-0.125-0.0625-0.14062 0-0.0625 0.1875-0.26562 0.65625-0.3125 0.10938-0.015625 0.21875-0.015625 0.21875-0.20312 0-0.14062-0.14062-0.14062-0.17188-0.14062-0.45312 0-0.92188 0.03125-1.375 0.03125-0.26562 0-0.95312-0.03125-1.2188-0.03125-0.0625 0-0.20312 0-0.20312 0.21875 0 0.125 0.10938 0.125 0.25 0.125 0.65625 0 0.73438 0.10938 0.82812 0.34375l1.2812 3.0469-2.2969 2.4688-0.14062 0.125c-0.53125 0.57812-1.0469 0.75-1.6094 0.78125-0.14062 0.015625-0.23438 0.015625-0.23438 0.21875 0 0.015625 0 0.125 0.14062 0.125 0.32812 0 0.6875-0.03125 1.0312-0.03125 0.39062 0 0.82812 0.03125 1.2188 0.03125 0.0625 0 0.1875 0 0.1875-0.21875 0-0.10938-0.10938-0.125-0.125-0.125-0.09375 0-0.4375-0.03125-0.4375-0.32812 0-0.17188 0.15625-0.35938 0.29688-0.5l1.1094-1.1719 0.98438-1.0625 1.0938 2.5938c0.046875 0.125 0.0625 0.14062 0.0625 0.15625 0 0.09375-0.20312 0.28125-0.64062 0.3125-0.10938 0.015625-0.21875 0.03125-0.21875 0.21875 0 0.125 0.125 0.125 0.17188 0.125 0.29688 0 1.0625-0.03125 1.375-0.03125 0.26562 0 0.9375 0.03125 1.2031 0.03125 0.078125 0 0.21875 0 0.21875-0.20312 0-0.14062-0.10938-0.14062-0.20312-0.14062-0.73438 0-0.75-0.03125-0.9375-0.46875-0.42188-1.0156-1.1562-2.7188-1.4062-3.375 0.73438-0.76562 1.8906-2.0625 2.2344-2.3594 0.3125-0.26562 0.73438-0.53125 1.3906-0.5625 0.14062-0.015625 0.23438-0.015625 0.23438-0.21875 0-0.015625 0-0.125-0.14062-0.125-0.32812 0-0.6875 0.03125-1.0312 0.03125-0.40625 0-0.8125-0.03125-1.2031-0.03125-0.0625 0-0.20312 0-0.20312 0.21875 0 0.078125 0.046875 0.10938 0.125 0.125 0.09375 0.015625 0.4375 0.03125 0.4375 0.34375 0 0.14062-0.125 0.28125-0.20312 0.39062z" stroke-width="0"/>
     </g>
    </g>
   </g>
   <g transform="matrix(.35278 0 0 .35278 146.1 15.431)" ns45:alignment="middle center" ns45:jacobian_sqrt="0.352778" ns45:pdfconverter="inkscape" ns45:preamble="/home/rik/git/thesis/preambule.tex" ns45:scale="1.0" ns45:stroke-to-path="0" ns45:texconverter="pdflatex" ns45:text="$Y$" ns45:version="1.8.1">
    <defs id="id-26db3991-c3c2-4879-9dd0-33e24af3e0ce">
     <g stroke-width="0"></g>
    </defs>
    <g id="id-8c4adde3-3189-4240-a81e-a8cc98c9930a" transform="translate(-57.068 -60.199)">
     <g transform="translate(56.693,67.652)" stroke-width="0">
      <path id="id-8c77705f-023e-4460-91c0-960dda47067f" d="m6.5156-6.2031 0.14062-0.15625c0.32812-0.32812 0.6875-0.70312 1.4375-0.75 0.125-0.015625 0.21875-0.015625 0.21875-0.20312 0-0.09375-0.0625-0.14062-0.14062-0.14062-0.28125 0-0.60938 0.03125-0.89062 0.03125-0.35938 0-0.75-0.03125-1.0938-0.03125-0.0625 0-0.20312 0-0.20312 0.21875 0 0.10938 0.09375 0.125 0.15625 0.125 0.078125 0 0.39062 0.015625 0.39062 0.25 0 0.1875-0.25 0.46875-0.29688 0.51562l-2.5312 2.9219-1.1875-3.2344c-0.078125-0.15625-0.078125-0.1875-0.078125-0.1875 0-0.26562 0.54688-0.26562 0.65625-0.26562 0.14062 0 0.25 0 0.25-0.21875 0-0.125-0.125-0.125-0.15625-0.125-0.3125 0-1.0781 0.03125-1.375 0.03125-0.28125 0-0.95312-0.03125-1.2188-0.03125-0.0625 0-0.21875 0-0.21875 0.21875 0 0.125 0.10938 0.125 0.25 0.125 0.65625 0 0.70312 0.09375 0.79688 0.375l1.3438 3.5781c0.015625 0.03125 0.046875 0.15625 0.046875 0.1875s-0.4375 1.7969-0.48438 1.9844c-0.14062 0.60938-0.15625 0.64062-1.0312 0.64062-0.20312 0-0.29688 0-0.29688 0.21875 0 0.125 0.14062 0.125 0.15625 0.125 0.3125 0 1.0625-0.03125 1.375-0.03125 0.29688 0 1.0938 0.03125 1.3906 0.03125 0.078125 0 0.21875 0 0.21875-0.21875 0-0.125-0.10938-0.125-0.3125-0.125-0.015625 0-0.23438 0-0.42188-0.015625-0.21875-0.015625-0.28125-0.046875-0.28125-0.17188 0-0.078125 0.09375-0.46875 0.14062-0.6875l0.39062-1.5469c0.046875-0.20312 0.0625-0.23438 0.15625-0.32812z" stroke-width="0"/>
     </g>
    </g>
   </g>
  </g>
  <rect transform="scale(-1)" x="-142.8" y="-30.347" width="8.5268" height="8.5268" rx="2.3389" ry="2.3389" fill="url(#radialGradient66159-1-7-0)" stroke="#000607" stroke-linecap="round" stroke-linejoin="round" stroke-width=".186" style="paint-order:markers fill stroke"/>
  <g transform="matrix(.26458 0 0 .26458 103.57 23.24)" stroke-width="0" ns45:alignment="middle center" ns45:jacobian_sqrt="0.264583" ns45:pdfconverter="inkscape" ns45:preamble="/home/rik/git/thesis/preambule.tex" ns45:scale="0.75" ns45:stroke-to-path="0" ns45:texconverter="pdflatex" ns45:text="$o$" ns45:version="1.8.1">
   <defs>
    <g id="id-091d89f6-16a7-411b-a4b4-66704ea46ffa" stroke-width="0"></g>
   </defs>
   <g transform="translate(-57.146 -62.824)">
    <g transform="translate(56.693,67.652)" stroke-width="0">
     <path d="m5.1094-2.9844c0-1.125-0.75-1.8438-1.7344-1.8438-1.4688 0-2.9219 1.5625-2.9219 3.1094 0 1.0781 0.71875 1.8438 1.7344 1.8438 1.4531 0 2.9219-1.5156 2.9219-3.1094zm-2.9062 2.8594c-0.46875 0-0.95312-0.32812-0.95312-1.1875 0-0.53125 0.28125-1.7031 0.64062-2.2656 0.54688-0.84375 1.1562-1 1.4688-1 0.625 0 0.95312 0.51562 0.95312 1.1719 0 0.42188-0.21875 1.5781-0.625 2.2812-0.39062 0.64062-0.98438 1-1.4844 1z" stroke-width="0"/>
    </g>
   </g>
  </g>
  <g transform="matrix(.35278 0 0 .35278 137.26 24.565)" stroke-width="0" ns45:alignment="middle center" ns45:jacobian_sqrt="0.352778" ns45:pdfconverter="inkscape" ns45:preamble="/home/rik/git/thesis/preambule.tex" ns45:scale="1.0" ns45:stroke-to-path="0" ns45:texconverter="pdflatex" ns45:text="$Z$" ns45:version="1.8.1">
   <defs>
    <g stroke-width="0"></g>
   </defs>
   <g id="id-a0a7fc81-9202-4d61-8b94-625fdc607a2f" transform="translate(-57.318 -60.199)">
    <g transform="translate(56.693,67.652)" stroke-width="0">
     <path id="id-27605cdf-4b01-49d0-b245-8a55d707717e" d="m7.8594-7.1875c0-0.046875 0.03125-0.09375 0.03125-0.15625 0-0.10938-0.0625-0.10938-0.28125-0.10938h-4.5938c-0.26562 0-0.28125 0.015625-0.34375 0.21875l-0.59375 1.9688c-0.03125 0.046875-0.03125 0.125-0.03125 0.15625 0 0 0 0.10938 0.125 0.10938 0.09375 0 0.125-0.078125 0.14062-0.10938 0.40625-1.2812 0.98438-2 2.6875-2h1.7656l-6.0938 6.8125c0 0.015625-0.046875 0.17188-0.046875 0.20312 0 0.09375 0.078125 0.09375 0.28125 0.09375h4.75c0.25 0 0.26562-0.015625 0.32812-0.21875l0.78125-2.4062c0-0.046875 0.046875-0.125 0.046875-0.17188s-0.046875-0.10938-0.15625-0.10938c-0.09375 0-0.10938 0.03125-0.17188 0.26562-0.48438 1.4844-1.0156 2.2656-2.8594 2.2656h-1.875z" stroke-width="0"/>
    </g>
   </g>
  </g>
  <circle cx="138.56" cy="16.997" r=".71224" stop-color="#000000" stroke="#000" stroke-linecap="square" stroke-linejoin="round" stroke-width=".186" style="paint-order:markers fill stroke"/>
  <g transform="matrix(.26458 0 0 .26458 139.4 31.884)" stroke-width="0" ns45:alignment="middle center" ns45:jacobian_sqrt="0.264583" ns45:pdfconverter="inkscape" ns45:preamble="/home/rik/git/thesis/preambule.tex" ns45:scale="0.75" ns45:stroke-to-path="0" ns45:texconverter="pdflatex" ns45:text="$o$" ns45:version="1.8.1">
   <defs>
    <g stroke-width="0"></g>
   </defs>
   <g transform="translate(-57.146 -62.824)">
    <g transform="translate(56.693,67.652)" stroke-width="0">
     <path d="m5.1094-2.9844c0-1.125-0.75-1.8438-1.7344-1.8438-1.4688 0-2.9219 1.5625-2.9219 3.1094 0 1.0781 0.71875 1.8438 1.7344 1.8438 1.4531 0 2.9219-1.5156 2.9219-3.1094zm-2.9062 2.8594c-0.46875 0-0.95312-0.32812-0.95312-1.1875 0-0.53125 0.28125-1.7031 0.64062-2.2656 0.54688-0.84375 1.1562-1 1.4688-1 0.625 0 0.95312 0.51562 0.95312 1.1719 0 0.42188-0.21875 1.5781-0.625 2.2812-0.39062 0.64062-0.98438 1-1.4844 1z" stroke-width="0"/>
    </g>
   </g>
  </g>
 </g>
</svg>
