<?xml version="1.0" encoding="utf-8" standalone="no"?>
<!DOCTYPE svg PUBLIC "-//W3C//DTD SVG 1.1//EN"
  "http://www.w3.org/Graphics/SVG/1.1/DTD/svg11.dtd">
<!-- Created with matplotlib (https://matplotlib.org/) -->
<svg height="263.63625pt" version="1.1" viewBox="0 0 372.103125 263.63625" width="372.103125pt" xmlns="http://www.w3.org/2000/svg" xmlns:xlink="http://www.w3.org/1999/xlink">
 <defs>
  <style type="text/css">
*{stroke-linecap:butt;stroke-linejoin:round;}
  </style>
 </defs>
 <g id="figure_1">
  <g id="patch_1">
   <path d="M 0 263.63625 
L 372.103125 263.63625 
L 372.103125 0 
L 0 0 
z
" style="fill:none;"/>
  </g>
  <g id="axes_1">
   <g id="patch_2">
    <path d="M 30.103125 239.758125 
L 364.903125 239.758125 
L 364.903125 22.318125 
L 30.103125 22.318125 
z
" style="fill:#ffffff;"/>
   </g>
   <g id="matplotlib.axis_1">
    <g id="xtick_1">
     <g id="line2d_1">
      <defs>
       <path d="M 0 0 
L 0 3.5 
" id="mb79357bc7e" style="stroke:#000000;stroke-width:0.8;"/>
      </defs>
      <g>
       <use style="stroke:#000000;stroke-width:0.8;" x="45.321307" xlink:href="#mb79357bc7e" y="239.758125"/>
      </g>
     </g>
     <g id="text_1">
      <!-- 0 -->
      <defs>
       <path d="M 31.78125 66.40625 
Q 24.171875 66.40625 20.328125 58.90625 
Q 16.5 51.421875 16.5 36.375 
Q 16.5 21.390625 20.328125 13.890625 
Q 24.171875 6.390625 31.78125 6.390625 
Q 39.453125 6.390625 43.28125 13.890625 
Q 47.125 21.390625 47.125 36.375 
Q 47.125 51.421875 43.28125 58.90625 
Q 39.453125 66.40625 31.78125 66.40625 
z
M 31.78125 74.21875 
Q 44.046875 74.21875 50.515625 64.515625 
Q 56.984375 54.828125 56.984375 36.375 
Q 56.984375 17.96875 50.515625 8.265625 
Q 44.046875 -1.421875 31.78125 -1.421875 
Q 19.53125 -1.421875 13.0625 8.265625 
Q 6.59375 17.96875 6.59375 36.375 
Q 6.59375 54.828125 13.0625 64.515625 
Q 19.53125 74.21875 31.78125 74.21875 
z
" id="DejaVuSans-48"/>
      </defs>
      <g transform="translate(42.140057 254.356563)scale(0.1 -0.1)">
       <use xlink:href="#DejaVuSans-48"/>
      </g>
     </g>
    </g>
    <g id="xtick_2">
     <g id="line2d_2">
      <g>
       <use style="stroke:#000000;stroke-width:0.8;" x="105.000451" xlink:href="#mb79357bc7e" y="239.758125"/>
      </g>
     </g>
     <g id="text_2">
      <!-- 50 -->
      <defs>
       <path d="M 10.796875 72.90625 
L 49.515625 72.90625 
L 49.515625 64.59375 
L 19.828125 64.59375 
L 19.828125 46.734375 
Q 21.96875 47.46875 24.109375 47.828125 
Q 26.265625 48.1875 28.421875 48.1875 
Q 40.625 48.1875 47.75 41.5 
Q 54.890625 34.8125 54.890625 23.390625 
Q 54.890625 11.625 47.5625 5.09375 
Q 40.234375 -1.421875 26.90625 -1.421875 
Q 22.3125 -1.421875 17.546875 -0.640625 
Q 12.796875 0.140625 7.71875 1.703125 
L 7.71875 11.625 
Q 12.109375 9.234375 16.796875 8.0625 
Q 21.484375 6.890625 26.703125 6.890625 
Q 35.15625 6.890625 40.078125 11.328125 
Q 45.015625 15.765625 45.015625 23.390625 
Q 45.015625 31 40.078125 35.4375 
Q 35.15625 39.890625 26.703125 39.890625 
Q 22.75 39.890625 18.8125 39.015625 
Q 14.890625 38.140625 10.796875 36.28125 
z
" id="DejaVuSans-53"/>
      </defs>
      <g transform="translate(98.637951 254.356563)scale(0.1 -0.1)">
       <use xlink:href="#DejaVuSans-53"/>
       <use x="63.623047" xlink:href="#DejaVuSans-48"/>
      </g>
     </g>
    </g>
    <g id="xtick_3">
     <g id="line2d_3">
      <g>
       <use style="stroke:#000000;stroke-width:0.8;" x="164.679596" xlink:href="#mb79357bc7e" y="239.758125"/>
      </g>
     </g>
     <g id="text_3">
      <!-- 100 -->
      <defs>
       <path d="M 12.40625 8.296875 
L 28.515625 8.296875 
L 28.515625 63.921875 
L 10.984375 60.40625 
L 10.984375 69.390625 
L 28.421875 72.90625 
L 38.28125 72.90625 
L 38.28125 8.296875 
L 54.390625 8.296875 
L 54.390625 0 
L 12.40625 0 
z
" id="DejaVuSans-49"/>
      </defs>
      <g transform="translate(155.135846 254.356563)scale(0.1 -0.1)">
       <use xlink:href="#DejaVuSans-49"/>
       <use x="63.623047" xlink:href="#DejaVuSans-48"/>
       <use x="127.246094" xlink:href="#DejaVuSans-48"/>
      </g>
     </g>
    </g>
    <g id="xtick_4">
     <g id="line2d_4">
      <g>
       <use style="stroke:#000000;stroke-width:0.8;" x="224.35874" xlink:href="#mb79357bc7e" y="239.758125"/>
      </g>
     </g>
     <g id="text_4">
      <!-- 150 -->
      <g transform="translate(214.81499 254.356563)scale(0.1 -0.1)">
       <use xlink:href="#DejaVuSans-49"/>
       <use x="63.623047" xlink:href="#DejaVuSans-53"/>
       <use x="127.246094" xlink:href="#DejaVuSans-48"/>
      </g>
     </g>
    </g>
    <g id="xtick_5">
     <g id="line2d_5">
      <g>
       <use style="stroke:#000000;stroke-width:0.8;" x="284.037884" xlink:href="#mb79357bc7e" y="239.758125"/>
      </g>
     </g>
     <g id="text_5">
      <!-- 200 -->
      <defs>
       <path d="M 19.1875 8.296875 
L 53.609375 8.296875 
L 53.609375 0 
L 7.328125 0 
L 7.328125 8.296875 
Q 12.9375 14.109375 22.625 23.890625 
Q 32.328125 33.6875 34.8125 36.53125 
Q 39.546875 41.84375 41.421875 45.53125 
Q 43.3125 49.21875 43.3125 52.78125 
Q 43.3125 58.59375 39.234375 62.25 
Q 35.15625 65.921875 28.609375 65.921875 
Q 23.96875 65.921875 18.8125 64.3125 
Q 13.671875 62.703125 7.8125 59.421875 
L 7.8125 69.390625 
Q 13.765625 71.78125 18.9375 73 
Q 24.125 74.21875 28.421875 74.21875 
Q 39.75 74.21875 46.484375 68.546875 
Q 53.21875 62.890625 53.21875 53.421875 
Q 53.21875 48.921875 51.53125 44.890625 
Q 49.859375 40.875 45.40625 35.40625 
Q 44.1875 33.984375 37.640625 27.21875 
Q 31.109375 20.453125 19.1875 8.296875 
z
" id="DejaVuSans-50"/>
      </defs>
      <g transform="translate(274.494134 254.356563)scale(0.1 -0.1)">
       <use xlink:href="#DejaVuSans-50"/>
       <use x="63.623047" xlink:href="#DejaVuSans-48"/>
       <use x="127.246094" xlink:href="#DejaVuSans-48"/>
      </g>
     </g>
    </g>
    <g id="xtick_6">
     <g id="line2d_6">
      <g>
       <use style="stroke:#000000;stroke-width:0.8;" x="343.717029" xlink:href="#mb79357bc7e" y="239.758125"/>
      </g>
     </g>
     <g id="text_6">
      <!-- 250 -->
      <g transform="translate(334.173279 254.356563)scale(0.1 -0.1)">
       <use xlink:href="#DejaVuSans-50"/>
       <use x="63.623047" xlink:href="#DejaVuSans-53"/>
       <use x="127.246094" xlink:href="#DejaVuSans-48"/>
      </g>
     </g>
    </g>
   </g>
   <g id="matplotlib.axis_2">
    <g id="ytick_1">
     <g id="line2d_7">
      <defs>
       <path d="M 0 0 
L -3.5 0 
" id="m27a210860b" style="stroke:#000000;stroke-width:0.8;"/>
      </defs>
      <g>
       <use style="stroke:#000000;stroke-width:0.8;" x="30.103125" xlink:href="#m27a210860b" y="229.874489"/>
      </g>
     </g>
     <g id="text_7">
      <!-- 0.0 -->
      <defs>
       <path d="M 10.6875 12.40625 
L 21 12.40625 
L 21 0 
L 10.6875 0 
z
" id="DejaVuSans-46"/>
      </defs>
      <g transform="translate(7.2 233.673707)scale(0.1 -0.1)">
       <use xlink:href="#DejaVuSans-48"/>
       <use x="63.623047" xlink:href="#DejaVuSans-46"/>
       <use x="95.410156" xlink:href="#DejaVuSans-48"/>
      </g>
     </g>
    </g>
    <g id="ytick_2">
     <g id="line2d_8">
      <g>
       <use style="stroke:#000000;stroke-width:0.8;" x="30.103125" xlink:href="#m27a210860b" y="190.339943"/>
      </g>
     </g>
     <g id="text_8">
      <!-- 0.2 -->
      <g transform="translate(7.2 194.139162)scale(0.1 -0.1)">
       <use xlink:href="#DejaVuSans-48"/>
       <use x="63.623047" xlink:href="#DejaVuSans-46"/>
       <use x="95.410156" xlink:href="#DejaVuSans-50"/>
      </g>
     </g>
    </g>
    <g id="ytick_3">
     <g id="line2d_9">
      <g>
       <use style="stroke:#000000;stroke-width:0.8;" x="30.103125" xlink:href="#m27a210860b" y="150.805398"/>
      </g>
     </g>
     <g id="text_9">
      <!-- 0.4 -->
      <defs>
       <path d="M 37.796875 64.3125 
L 12.890625 25.390625 
L 37.796875 25.390625 
z
M 35.203125 72.90625 
L 47.609375 72.90625 
L 47.609375 25.390625 
L 58.015625 25.390625 
L 58.015625 17.1875 
L 47.609375 17.1875 
L 47.609375 0 
L 37.796875 0 
L 37.796875 17.1875 
L 4.890625 17.1875 
L 4.890625 26.703125 
z
" id="DejaVuSans-52"/>
      </defs>
      <g transform="translate(7.2 154.604616)scale(0.1 -0.1)">
       <use xlink:href="#DejaVuSans-48"/>
       <use x="63.623047" xlink:href="#DejaVuSans-46"/>
       <use x="95.410156" xlink:href="#DejaVuSans-52"/>
      </g>
     </g>
    </g>
    <g id="ytick_4">
     <g id="line2d_10">
      <g>
       <use style="stroke:#000000;stroke-width:0.8;" x="30.103125" xlink:href="#m27a210860b" y="111.270852"/>
      </g>
     </g>
     <g id="text_10">
      <!-- 0.6 -->
      <defs>
       <path d="M 33.015625 40.375 
Q 26.375 40.375 22.484375 35.828125 
Q 18.609375 31.296875 18.609375 23.390625 
Q 18.609375 15.53125 22.484375 10.953125 
Q 26.375 6.390625 33.015625 6.390625 
Q 39.65625 6.390625 43.53125 10.953125 
Q 47.40625 15.53125 47.40625 23.390625 
Q 47.40625 31.296875 43.53125 35.828125 
Q 39.65625 40.375 33.015625 40.375 
z
M 52.59375 71.296875 
L 52.59375 62.3125 
Q 48.875 64.0625 45.09375 64.984375 
Q 41.3125 65.921875 37.59375 65.921875 
Q 27.828125 65.921875 22.671875 59.328125 
Q 17.53125 52.734375 16.796875 39.40625 
Q 19.671875 43.65625 24.015625 45.921875 
Q 28.375 48.1875 33.59375 48.1875 
Q 44.578125 48.1875 50.953125 41.515625 
Q 57.328125 34.859375 57.328125 23.390625 
Q 57.328125 12.15625 50.6875 5.359375 
Q 44.046875 -1.421875 33.015625 -1.421875 
Q 20.359375 -1.421875 13.671875 8.265625 
Q 6.984375 17.96875 6.984375 36.375 
Q 6.984375 53.65625 15.1875 63.9375 
Q 23.390625 74.21875 37.203125 74.21875 
Q 40.921875 74.21875 44.703125 73.484375 
Q 48.484375 72.75 52.59375 71.296875 
z
" id="DejaVuSans-54"/>
      </defs>
      <g transform="translate(7.2 115.070071)scale(0.1 -0.1)">
       <use xlink:href="#DejaVuSans-48"/>
       <use x="63.623047" xlink:href="#DejaVuSans-46"/>
       <use x="95.410156" xlink:href="#DejaVuSans-54"/>
      </g>
     </g>
    </g>
    <g id="ytick_5">
     <g id="line2d_11">
      <g>
       <use style="stroke:#000000;stroke-width:0.8;" x="30.103125" xlink:href="#m27a210860b" y="71.736307"/>
      </g>
     </g>
     <g id="text_11">
      <!-- 0.8 -->
      <defs>
       <path d="M 31.78125 34.625 
Q 24.75 34.625 20.71875 30.859375 
Q 16.703125 27.09375 16.703125 20.515625 
Q 16.703125 13.921875 20.71875 10.15625 
Q 24.75 6.390625 31.78125 6.390625 
Q 38.8125 6.390625 42.859375 10.171875 
Q 46.921875 13.96875 46.921875 20.515625 
Q 46.921875 27.09375 42.890625 30.859375 
Q 38.875 34.625 31.78125 34.625 
z
M 21.921875 38.8125 
Q 15.578125 40.375 12.03125 44.71875 
Q 8.5 49.078125 8.5 55.328125 
Q 8.5 64.0625 14.71875 69.140625 
Q 20.953125 74.21875 31.78125 74.21875 
Q 42.671875 74.21875 48.875 69.140625 
Q 55.078125 64.0625 55.078125 55.328125 
Q 55.078125 49.078125 51.53125 44.71875 
Q 48 40.375 41.703125 38.8125 
Q 48.828125 37.15625 52.796875 32.3125 
Q 56.78125 27.484375 56.78125 20.515625 
Q 56.78125 9.90625 50.3125 4.234375 
Q 43.84375 -1.421875 31.78125 -1.421875 
Q 19.734375 -1.421875 13.25 4.234375 
Q 6.78125 9.90625 6.78125 20.515625 
Q 6.78125 27.484375 10.78125 32.3125 
Q 14.796875 37.15625 21.921875 38.8125 
z
M 18.3125 54.390625 
Q 18.3125 48.734375 21.84375 45.5625 
Q 25.390625 42.390625 31.78125 42.390625 
Q 38.140625 42.390625 41.71875 45.5625 
Q 45.3125 48.734375 45.3125 54.390625 
Q 45.3125 60.0625 41.71875 63.234375 
Q 38.140625 66.40625 31.78125 66.40625 
Q 25.390625 66.40625 21.84375 63.234375 
Q 18.3125 60.0625 18.3125 54.390625 
z
" id="DejaVuSans-56"/>
      </defs>
      <g transform="translate(7.2 75.535526)scale(0.1 -0.1)">
       <use xlink:href="#DejaVuSans-48"/>
       <use x="63.623047" xlink:href="#DejaVuSans-46"/>
       <use x="95.410156" xlink:href="#DejaVuSans-56"/>
      </g>
     </g>
    </g>
    <g id="ytick_6">
     <g id="line2d_12">
      <g>
       <use style="stroke:#000000;stroke-width:0.8;" x="30.103125" xlink:href="#m27a210860b" y="32.201761"/>
      </g>
     </g>
     <g id="text_12">
      <!-- 1.0 -->
      <g transform="translate(7.2 36.00098)scale(0.1 -0.1)">
       <use xlink:href="#DejaVuSans-49"/>
       <use x="63.623047" xlink:href="#DejaVuSans-46"/>
       <use x="95.410156" xlink:href="#DejaVuSans-48"/>
      </g>
     </g>
    </g>
   </g>
   <g id="line2d_13">
    <path clip-path="url(#p5083aa5492)" d="M 45.321307 229.874489 
L 45.321307 142.995256 
L 46.51489 142.882298 
L 46.51489 142.736393 
L 47.708473 142.623435 
L 47.708473 142.519889 
L 48.902055 142.406931 
L 48.902055 142.115121 
L 50.095638 142.002163 
L 50.095638 141.649167 
L 51.289221 141.536209 
L 51.289221 141.296172 
L 52.482804 141.183213 
L 52.482804 140.886697 
L 53.676387 140.773739 
L 53.676387 140.448983 
L 54.86997 140.336024 
L 54.86997 140.114814 
L 56.063553 140.001855 
L 56.063553 139.597087 
L 57.257136 139.484129 
L 57.257136 139.197026 
L 58.450719 139.084067 
L 58.450719 138.731072 
L 59.644301 138.618113 
L 59.644301 138.406316 
L 60.837884 138.293357 
L 60.837884 138.06744 
L 62.031467 137.954482 
L 62.031467 137.747391 
L 63.22505 137.634433 
L 63.22505 137.502648 
L 64.418633 137.389689 
L 64.418633 137.177892 
L 65.612216 137.064933 
L 65.612216 136.904909 
L 66.805799 136.79195 
L 66.805799 136.594273 
L 67.999382 136.481314 
L 67.999382 136.245984 
L 69.192965 136.133026 
L 69.192965 135.963588 
L 70.386547 135.850629 
L 70.386547 135.5447 
L 71.58013 135.431741 
L 71.58013 135.29525 
L 72.773713 135.182291 
L 72.773713 135.064626 
L 73.967296 134.951668 
L 73.967296 134.786936 
L 75.160879 134.673978 
L 75.160879 134.50454 
L 76.354462 134.391581 
L 76.354462 134.245677 
L 77.548045 134.132718 
L 77.548045 133.972694 
L 78.741628 133.859735 
L 78.741628 133.680884 
L 79.935211 133.567925 
L 79.935211 133.116091 
L 81.128793 133.003133 
L 81.128793 132.866641 
L 82.322376 132.753683 
L 82.322376 132.546592 
L 83.515959 132.433634 
L 83.515959 132.170064 
L 84.709542 132.057105 
L 84.709542 131.944147 
L 85.903125 131.831188 
L 85.903125 131.751176 
L 87.096708 131.638217 
L 87.096708 131.497019 
L 88.290291 131.384061 
L 88.290291 131.261689 
L 89.483874 131.14873 
L 89.483874 131.040478 
L 90.677457 130.92752 
L 90.677457 130.734549 
L 91.871039 130.62159 
L 91.871039 130.546285 
L 93.064622 130.433326 
L 93.064622 130.38626 
L 94.258205 130.273302 
L 94.258205 130.052091 
L 95.451788 129.939133 
L 95.451788 129.85912 
L 96.645371 129.746162 
L 96.645371 129.675563 
L 97.838954 129.562604 
L 97.838954 129.487298 
L 99.032537 129.37434 
L 99.032537 129.270795 
L 100.22612 129.157836 
L 100.22612 129.021345 
L 101.419703 128.908386 
L 101.419703 128.720122 
L 102.613285 128.607163 
L 102.613285 128.56951 
L 103.806868 128.456552 
L 103.806868 128.367126 
L 105.000451 128.254168 
L 105.000451 128.089437 
L 106.194034 127.976478 
L 106.194034 127.839987 
L 107.387617 127.727028 
L 107.387617 127.656429 
L 108.5812 127.54347 
L 108.5812 127.477578 
L 109.774783 127.364619 
L 109.774783 127.275194 
L 110.968366 127.162235 
L 110.968366 127.096343 
L 112.161949 126.983384 
L 112.161949 126.842186 
L 113.355531 126.729228 
L 113.355531 126.564496 
L 114.549114 126.451538 
L 114.549114 126.428005 
L 115.742697 126.315046 
L 115.742697 126.220914 
L 116.93628 126.107956 
L 116.93628 126.056183 
L 118.129863 125.943224 
L 118.129863 125.778493 
L 119.323446 125.665535 
L 119.323446 125.500804 
L 120.517029 125.387845 
L 120.517029 125.303126 
L 121.710612 125.190168 
L 121.710612 124.837172 
L 122.904195 124.724214 
L 122.904195 124.663028 
L 124.097777 124.550069 
L 124.097777 124.503003 
L 125.29136 124.390045 
L 125.29136 124.300619 
L 126.484943 124.187661 
L 126.484943 124.093528 
L 127.678526 123.98057 
L 127.678526 123.933504 
L 128.872109 123.820545 
L 128.872109 123.726413 
L 130.065692 123.613455 
L 130.065692 123.547562 
L 131.259275 123.434604 
L 131.259275 123.312232 
L 132.452858 123.199273 
L 132.452858 123.020422 
L 133.646441 122.907464 
L 133.646441 122.818038 
L 134.840023 122.70508 
L 134.840023 122.681547 
L 136.033606 122.568588 
L 136.033606 122.44151 
L 138.420772 122.323845 
L 138.420772 122.215593 
L 139.614355 122.102634 
L 139.614355 122.032035 
L 140.807938 121.919077 
L 140.807938 121.820238 
L 142.001521 121.707279 
L 142.001521 121.63668 
L 143.195104 121.523722 
L 143.195104 121.302511 
L 144.388686 121.189553 
L 144.388686 121.175433 
L 145.582269 121.062474 
L 145.582269 120.803611 
L 146.775852 120.690653 
L 146.775852 120.516508 
L 147.969435 120.40355 
L 147.969435 120.182339 
L 149.163018 120.069381 
L 149.163018 119.979955 
L 150.356601 119.866997 
L 150.356601 119.829344 
L 151.550184 119.716385 
L 151.550184 119.589307 
L 152.743767 119.476348 
L 152.743767 119.438696 
L 153.93735 119.325737 
L 153.93735 119.264551 
L 155.130932 119.151593 
L 155.130932 119.057461 
L 156.324515 118.944502 
L 156.324515 118.845663 
L 157.518098 118.732705 
L 157.518098 118.727998 
L 158.711681 118.61504 
L 158.711681 118.5868 
L 159.905264 118.473841 
L 159.905264 118.389123 
L 161.098847 118.276164 
L 161.098847 118.186738 
L 163.486013 118.069073 
L 163.486013 117.861983 
L 164.679596 117.749024 
L 164.679596 117.716078 
L 165.873178 117.603119 
L 165.873178 117.523107 
L 167.066761 117.410149 
L 167.066761 117.377202 
L 168.260344 117.264244 
L 168.260344 117.203058 
L 170.64751 117.085393 
L 170.64751 116.915955 
L 171.841093 116.802996 
L 171.841093 116.680625 
L 173.034676 116.567666 
L 173.034676 116.5206 
L 174.228259 116.407642 
L 174.228259 116.275857 
L 176.615424 116.158191 
L 176.615424 115.97934 
L 177.809007 115.866382 
L 177.809007 115.809903 
L 179.00259 115.696944 
L 179.00259 115.631052 
L 180.196173 115.518093 
L 180.196173 115.405135 
L 181.389756 115.292176 
L 181.389756 114.915648 
L 182.583339 114.802689 
L 182.583339 114.788569 
L 183.776922 114.675611 
L 183.776922 114.609718 
L 184.970505 114.49676 
L 184.970505 114.44028 
L 186.164088 114.327322 
L 186.164088 114.256723 
L 187.35767 114.143764 
L 187.35767 114.077872 
L 188.551253 113.964913 
L 188.551253 113.837835 
L 189.744836 113.724876 
L 189.744836 113.654277 
L 192.132002 113.536612 
L 192.132002 113.230683 
L 193.325585 113.117724 
L 193.325585 113.028299 
L 194.519168 112.91534 
L 194.519168 112.891807 
L 195.712751 112.778849 
L 195.712751 112.70825 
L 196.906334 112.595291 
L 196.906334 112.482333 
L 198.099916 112.369374 
L 198.099916 111.757515 
L 199.293499 111.644557 
L 199.293499 111.616317 
L 200.487082 111.503359 
L 200.487082 111.343334 
L 201.680665 111.230375 
L 201.680665 111.075057 
L 202.874248 110.962099 
L 202.874248 110.882087 
L 204.067831 110.769128 
L 204.067831 110.726769 
L 205.261414 110.61381 
L 205.261414 110.491438 
L 206.454997 110.37848 
L 206.454997 110.303174 
L 207.64858 110.190216 
L 207.64858 110.14315 
L 208.842162 110.030191 
L 208.842162 109.931352 
L 210.035745 109.818394 
L 210.035745 109.743088 
L 211.229328 109.63013 
L 211.229328 109.479518 
L 212.422911 109.36656 
L 212.422911 109.201828 
L 213.616494 109.08887 
L 213.616494 108.919432 
L 214.810077 108.806474 
L 214.810077 108.740581 
L 216.00366 108.627623 
L 216.00366 108.594676 
L 217.197243 108.481718 
L 217.197243 108.392292 
L 218.390826 108.279334 
L 218.390826 108.189908 
L 219.584408 108.07695 
L 219.584408 108.015764 
L 220.777991 107.902805 
L 220.777991 107.789847 
L 221.971574 107.676888 
L 221.971574 107.582756 
L 223.165157 107.469798 
L 223.165157 107.380372 
L 224.35874 107.267414 
L 224.35874 107.225054 
L 225.552323 107.112096 
L 225.552323 106.942658 
L 226.745906 106.829699 
L 226.745906 106.782633 
L 227.939489 106.669675 
L 227.939489 106.636728 
L 229.133072 106.52377 
L 229.133072 106.48141 
L 230.326654 106.368452 
L 230.326654 106.293146 
L 231.520237 106.180188 
L 231.520237 106.081349 
L 232.71382 105.96839 
L 232.71382 105.883672 
L 233.907403 105.770713 
L 233.907403 105.690701 
L 235.100986 105.577742 
L 235.100986 105.521263 
L 236.294569 105.408304 
L 236.294569 105.328292 
L 237.488152 105.215334 
L 237.488152 105.097668 
L 238.681735 104.98471 
L 238.681735 104.899991 
L 239.875318 104.787032 
L 239.875318 104.74938 
L 241.0689 104.636421 
L 241.0689 104.565822 
L 242.262483 104.452863 
L 242.262483 104.354025 
L 243.456066 104.241066 
L 243.456066 104.184587 
L 244.649649 104.071628 
L 244.649649 104.038682 
L 245.843232 103.925724 
L 245.843232 103.690393 
L 247.036815 103.577435 
L 247.036815 103.412704 
L 248.230398 103.299745 
L 248.230398 103.007936 
L 249.423981 102.894977 
L 249.423981 102.796138 
L 250.617564 102.68318 
L 250.617564 102.551395 
L 251.811146 102.438436 
L 251.811146 102.311358 
L 253.004729 102.198399 
L 253.004729 102.123094 
L 254.198312 102.010135 
L 254.198312 101.887763 
L 255.391895 101.774805 
L 255.391895 101.685379 
L 256.585478 101.572421 
L 256.585478 101.525355 
L 257.779061 101.412396 
L 257.779061 101.318264 
L 258.972644 101.205306 
L 258.972644 101.078227 
L 260.166227 100.965269 
L 260.166227 100.889963 
L 261.359809 100.777004 
L 261.359809 100.659339 
L 262.553392 100.546381 
L 262.553392 100.376943 
L 263.746975 100.263984 
L 263.746975 100.179266 
L 264.940558 100.066307 
L 264.940558 99.967468 
L 266.134141 99.85451 
L 266.134141 99.793324 
L 267.327724 99.680365 
L 267.327724 99.581527 
L 268.521307 99.468568 
L 268.521307 99.435622 
L 269.71489 99.322663 
L 269.71489 99.285011 
L 270.908473 99.172052 
L 270.908473 98.983788 
L 272.102055 98.870829 
L 272.102055 98.80023 
L 273.295638 98.687272 
L 273.295638 98.221318 
L 274.489221 98.108359 
L 274.489221 97.967161 
L 275.682804 97.854202 
L 275.682804 97.741244 
L 276.876387 97.628285 
L 276.876387 97.491794 
L 278.06997 97.378835 
L 278.06997 97.298823 
L 279.263553 97.185864 
L 279.263553 96.9976 
L 280.457136 96.884642 
L 280.457136 96.799923 
L 281.650719 96.686964 
L 281.650719 96.432808 
L 282.844301 96.319849 
L 282.844301 96.150411 
L 284.037884 96.037453 
L 284.037884 95.938614 
L 285.231467 95.825655 
L 285.231467 95.72211 
L 286.42505 95.609152 
L 286.42505 95.453834 
L 287.618633 95.340875 
L 287.618633 95.091425 
L 288.812216 94.978466 
L 288.812216 94.818442 
L 290.005799 94.705483 
L 290.005799 94.634884 
L 291.199382 94.521926 
L 291.199382 94.399554 
L 292.392965 94.286595 
L 292.392965 94.070092 
L 293.586547 93.957133 
L 293.586547 93.91948 
L 294.78013 93.806522 
L 294.78013 93.717096 
L 295.973713 93.604138 
L 295.973713 93.495886 
L 297.167296 93.382927 
L 297.167296 93.15701 
L 298.360879 93.044052 
L 298.360879 92.822841 
L 299.554462 92.709883 
L 299.554462 92.516912 
L 300.748045 92.403953 
L 300.748045 92.239222 
L 301.941628 92.126263 
L 301.941628 91.975652 
L 303.135211 91.862694 
L 303.135211 91.599124 
L 304.328793 91.486165 
L 304.328793 91.307314 
L 305.522376 91.194356 
L 305.522376 91.067277 
L 306.715959 90.954319 
L 306.715959 90.822534 
L 307.909542 90.709575 
L 307.909542 90.56367 
L 309.103125 90.450712 
L 309.103125 90.31422 
L 310.296708 90.201262 
L 310.296708 89.932985 
L 311.490291 89.820027 
L 311.490291 89.589403 
L 312.683874 89.476445 
L 312.683874 89.27406 
L 313.877457 89.161102 
L 313.877457 88.968131 
L 315.071039 88.855173 
L 315.071039 88.492764 
L 316.264622 88.379805 
L 316.264622 88.106822 
L 317.458205 87.993864 
L 317.458205 87.772653 
L 318.651788 87.659695 
L 318.651788 87.504377 
L 319.845371 87.391418 
L 319.845371 87.184328 
L 321.038954 87.071369 
L 321.038954 86.732493 
L 322.232537 86.619535 
L 322.232537 86.308899 
L 323.42612 86.19594 
L 323.42612 85.68292 
L 324.619703 85.569962 
L 324.619703 85.155781 
L 325.813285 85.042822 
L 325.813285 84.765132 
L 327.006868 84.652174 
L 327.006868 84.383897 
L 328.200451 84.270939 
L 328.200451 84.030902 
L 329.394034 83.917943 
L 329.394034 83.640254 
L 330.587617 83.527295 
L 330.587617 83.141353 
L 331.7812 83.028395 
L 331.7812 82.713052 
L 332.974783 82.600094 
L 332.974783 82.242392 
L 334.168366 82.129433 
L 334.168366 81.823504 
L 335.361949 81.710545 
L 335.361949 81.230472 
L 336.555531 81.117513 
L 336.555531 80.736278 
L 337.749114 80.623319 
L 337.749114 80.176192 
L 338.942697 80.063233 
L 338.942697 79.681998 
L 340.13628 79.56904 
L 340.13628 79.065433 
L 341.329863 78.952474 
L 341.329863 78.52888 
L 342.523446 78.415921 
L 342.523446 77.926434 
L 343.717029 77.813476 
L 343.717029 77.234563 
L 344.910612 77.121605 
L 344.910612 75.959073 
L 346.104195 75.846115 
L 346.104195 67.760166 
L 347.297777 67.647208 
L 347.297777 47.394684 
L 348.49136 47.281726 
L 348.49136 36.847181 
L 349.684943 36.734223 
L 349.684943 32.201761 
L 349.684943 32.201761 
" style="fill:none;stroke:#1f77b4;stroke-linecap:square;stroke-width:1.5;"/>
   </g>
   <g id="line2d_14">
    <path clip-path="url(#p5083aa5492)" d="M 45.321307 194.545972 
L 48.395687 193.33136 
L 51.470067 192.091128 
L 54.544447 190.82542 
L 57.618827 189.534413 
L 60.693208 188.218313 
L 63.767588 186.877361 
L 66.841968 185.511826 
L 69.916348 184.122011 
L 72.990728 182.708249 
L 76.065108 181.270907 
L 79.139489 179.810383 
L 82.213869 178.327106 
L 85.288249 176.821539 
L 88.362629 175.294172 
L 91.437009 173.74553 
L 94.511389 172.176166 
L 97.58577 170.586664 
L 100.66015 168.977638 
L 103.73453 167.34973 
L 106.80891 165.703609 
L 109.88329 164.039974 
L 112.95767 162.359548 
L 116.032051 160.663081 
L 119.106431 158.951347 
L 122.180811 157.225144 
L 125.255191 155.485293 
L 128.329571 153.732634 
L 131.403951 151.96803 
L 134.478332 150.192362 
L 137.552712 148.406526 
L 140.627092 146.611438 
L 143.701472 144.808026 
L 146.775852 142.997234 
L 149.850232 141.180015 
L 152.924613 139.357334 
L 155.998993 137.530164 
L 159.073373 135.699486 
L 162.147753 133.866287 
L 165.222133 132.031557 
L 168.296513 130.196289 
L 171.370894 128.361477 
L 174.445274 126.528113 
L 177.519654 124.69719 
L 180.594034 122.869693 
L 183.668414 121.046604 
L 186.742794 119.228897 
L 189.817175 117.417537 
L 192.891555 115.61348 
L 195.965935 113.817669 
L 199.040315 112.031035 
L 202.114695 110.254492 
L 205.189075 108.48894 
L 208.263456 106.735262 
L 211.337836 104.99432 
L 214.412216 103.266959 
L 217.486596 101.553999 
L 220.560976 99.856242 
L 223.635356 98.174462 
L 226.709737 96.509412 
L 229.784117 94.861818 
L 232.858497 93.232379 
L 235.932877 91.621768 
L 239.007257 90.03063 
L 242.081637 88.45958 
L 245.156018 86.909205 
L 248.230398 85.380061 
L 251.304778 83.872673 
L 254.379158 82.387537 
L 257.453538 80.925117 
L 260.527918 79.485845 
L 263.602299 78.070121 
L 266.676679 76.678314 
L 269.751059 75.310761 
L 272.825439 73.967768 
L 275.899819 72.649606 
L 278.974199 71.356518 
L 282.04858 70.088713 
L 285.12296 68.84637 
L 288.19734 67.629637 
L 291.27172 66.438631 
L 294.3461 65.27344 
L 297.42048 64.13412 
L 300.494861 63.020702 
L 303.569241 61.933185 
L 306.643621 60.871541 
L 309.718001 59.835717 
L 312.792381 58.825631 
L 315.866761 57.841178 
L 318.941142 56.882227 
L 322.015522 55.948622 
L 325.089902 55.040186 
L 328.164282 54.156719 
L 331.238662 53.298 
L 334.313042 52.463788 
L 337.387423 51.653822 
L 340.461803 50.867822 
L 343.536183 50.105494 
L 346.610563 49.366524 
L 349.684943 48.650585 
" style="fill:none;stroke:#ff7f0e;stroke-linecap:square;stroke-width:1.5;"/>
   </g>
   <g id="patch_3">
    <path d="M 30.103125 239.758125 
L 30.103125 22.318125 
" style="fill:none;stroke:#000000;stroke-linecap:square;stroke-linejoin:miter;stroke-width:0.8;"/>
   </g>
   <g id="patch_4">
    <path d="M 364.903125 239.758125 
L 364.903125 22.318125 
" style="fill:none;stroke:#000000;stroke-linecap:square;stroke-linejoin:miter;stroke-width:0.8;"/>
   </g>
   <g id="patch_5">
    <path d="M 30.103125 239.758125 
L 364.903125 239.758125 
" style="fill:none;stroke:#000000;stroke-linecap:square;stroke-linejoin:miter;stroke-width:0.8;"/>
   </g>
   <g id="patch_6">
    <path d="M 30.103125 22.318125 
L 364.903125 22.318125 
" style="fill:none;stroke:#000000;stroke-linecap:square;stroke-linejoin:miter;stroke-width:0.8;"/>
   </g>
   <g id="text_13">
    <!-- CDF of Single pixel compared to normal CDF -->
    <defs>
     <path d="M 64.40625 67.28125 
L 64.40625 56.890625 
Q 59.421875 61.53125 53.78125 63.8125 
Q 48.140625 66.109375 41.796875 66.109375 
Q 29.296875 66.109375 22.65625 58.46875 
Q 16.015625 50.828125 16.015625 36.375 
Q 16.015625 21.96875 22.65625 14.328125 
Q 29.296875 6.6875 41.796875 6.6875 
Q 48.140625 6.6875 53.78125 8.984375 
Q 59.421875 11.28125 64.40625 15.921875 
L 64.40625 5.609375 
Q 59.234375 2.09375 53.4375 0.328125 
Q 47.65625 -1.421875 41.21875 -1.421875 
Q 24.65625 -1.421875 15.125 8.703125 
Q 5.609375 18.84375 5.609375 36.375 
Q 5.609375 53.953125 15.125 64.078125 
Q 24.65625 74.21875 41.21875 74.21875 
Q 47.75 74.21875 53.53125 72.484375 
Q 59.328125 70.75 64.40625 67.28125 
z
" id="DejaVuSans-67"/>
     <path d="M 19.671875 64.796875 
L 19.671875 8.109375 
L 31.59375 8.109375 
Q 46.6875 8.109375 53.6875 14.9375 
Q 60.6875 21.78125 60.6875 36.53125 
Q 60.6875 51.171875 53.6875 57.984375 
Q 46.6875 64.796875 31.59375 64.796875 
z
M 9.8125 72.90625 
L 30.078125 72.90625 
Q 51.265625 72.90625 61.171875 64.09375 
Q 71.09375 55.28125 71.09375 36.53125 
Q 71.09375 17.671875 61.125 8.828125 
Q 51.171875 0 30.078125 0 
L 9.8125 0 
z
" id="DejaVuSans-68"/>
     <path d="M 9.8125 72.90625 
L 51.703125 72.90625 
L 51.703125 64.59375 
L 19.671875 64.59375 
L 19.671875 43.109375 
L 48.578125 43.109375 
L 48.578125 34.8125 
L 19.671875 34.8125 
L 19.671875 0 
L 9.8125 0 
z
" id="DejaVuSans-70"/>
     <path id="DejaVuSans-32"/>
     <path d="M 30.609375 48.390625 
Q 23.390625 48.390625 19.1875 42.75 
Q 14.984375 37.109375 14.984375 27.296875 
Q 14.984375 17.484375 19.15625 11.84375 
Q 23.34375 6.203125 30.609375 6.203125 
Q 37.796875 6.203125 41.984375 11.859375 
Q 46.1875 17.53125 46.1875 27.296875 
Q 46.1875 37.015625 41.984375 42.703125 
Q 37.796875 48.390625 30.609375 48.390625 
z
M 30.609375 56 
Q 42.328125 56 49.015625 48.375 
Q 55.71875 40.765625 55.71875 27.296875 
Q 55.71875 13.875 49.015625 6.21875 
Q 42.328125 -1.421875 30.609375 -1.421875 
Q 18.84375 -1.421875 12.171875 6.21875 
Q 5.515625 13.875 5.515625 27.296875 
Q 5.515625 40.765625 12.171875 48.375 
Q 18.84375 56 30.609375 56 
z
" id="DejaVuSans-111"/>
     <path d="M 37.109375 75.984375 
L 37.109375 68.5 
L 28.515625 68.5 
Q 23.6875 68.5 21.796875 66.546875 
Q 19.921875 64.59375 19.921875 59.515625 
L 19.921875 54.6875 
L 34.71875 54.6875 
L 34.71875 47.703125 
L 19.921875 47.703125 
L 19.921875 0 
L 10.890625 0 
L 10.890625 47.703125 
L 2.296875 47.703125 
L 2.296875 54.6875 
L 10.890625 54.6875 
L 10.890625 58.5 
Q 10.890625 67.625 15.140625 71.796875 
Q 19.390625 75.984375 28.609375 75.984375 
z
" id="DejaVuSans-102"/>
     <path d="M 53.515625 70.515625 
L 53.515625 60.890625 
Q 47.90625 63.578125 42.921875 64.890625 
Q 37.9375 66.21875 33.296875 66.21875 
Q 25.25 66.21875 20.875 63.09375 
Q 16.5 59.96875 16.5 54.203125 
Q 16.5 49.359375 19.40625 46.890625 
Q 22.3125 44.4375 30.421875 42.921875 
L 36.375 41.703125 
Q 47.40625 39.59375 52.65625 34.296875 
Q 57.90625 29 57.90625 20.125 
Q 57.90625 9.515625 50.796875 4.046875 
Q 43.703125 -1.421875 29.984375 -1.421875 
Q 24.8125 -1.421875 18.96875 -0.25 
Q 13.140625 0.921875 6.890625 3.21875 
L 6.890625 13.375 
Q 12.890625 10.015625 18.65625 8.296875 
Q 24.421875 6.59375 29.984375 6.59375 
Q 38.421875 6.59375 43.015625 9.90625 
Q 47.609375 13.234375 47.609375 19.390625 
Q 47.609375 24.75 44.3125 27.78125 
Q 41.015625 30.8125 33.5 32.328125 
L 27.484375 33.5 
Q 16.453125 35.6875 11.515625 40.375 
Q 6.59375 45.0625 6.59375 53.421875 
Q 6.59375 63.09375 13.40625 68.65625 
Q 20.21875 74.21875 32.171875 74.21875 
Q 37.3125 74.21875 42.625 73.28125 
Q 47.953125 72.359375 53.515625 70.515625 
z
" id="DejaVuSans-83"/>
     <path d="M 9.421875 54.6875 
L 18.40625 54.6875 
L 18.40625 0 
L 9.421875 0 
z
M 9.421875 75.984375 
L 18.40625 75.984375 
L 18.40625 64.59375 
L 9.421875 64.59375 
z
" id="DejaVuSans-105"/>
     <path d="M 54.890625 33.015625 
L 54.890625 0 
L 45.90625 0 
L 45.90625 32.71875 
Q 45.90625 40.484375 42.875 44.328125 
Q 39.84375 48.1875 33.796875 48.1875 
Q 26.515625 48.1875 22.3125 43.546875 
Q 18.109375 38.921875 18.109375 30.90625 
L 18.109375 0 
L 9.078125 0 
L 9.078125 54.6875 
L 18.109375 54.6875 
L 18.109375 46.1875 
Q 21.34375 51.125 25.703125 53.5625 
Q 30.078125 56 35.796875 56 
Q 45.21875 56 50.046875 50.171875 
Q 54.890625 44.34375 54.890625 33.015625 
z
" id="DejaVuSans-110"/>
     <path d="M 45.40625 27.984375 
Q 45.40625 37.75 41.375 43.109375 
Q 37.359375 48.484375 30.078125 48.484375 
Q 22.859375 48.484375 18.828125 43.109375 
Q 14.796875 37.75 14.796875 27.984375 
Q 14.796875 18.265625 18.828125 12.890625 
Q 22.859375 7.515625 30.078125 7.515625 
Q 37.359375 7.515625 41.375 12.890625 
Q 45.40625 18.265625 45.40625 27.984375 
z
M 54.390625 6.78125 
Q 54.390625 -7.171875 48.1875 -13.984375 
Q 42 -20.796875 29.203125 -20.796875 
Q 24.46875 -20.796875 20.265625 -20.09375 
Q 16.0625 -19.390625 12.109375 -17.921875 
L 12.109375 -9.1875 
Q 16.0625 -11.328125 19.921875 -12.34375 
Q 23.78125 -13.375 27.78125 -13.375 
Q 36.625 -13.375 41.015625 -8.765625 
Q 45.40625 -4.15625 45.40625 5.171875 
L 45.40625 9.625 
Q 42.625 4.78125 38.28125 2.390625 
Q 33.9375 0 27.875 0 
Q 17.828125 0 11.671875 7.65625 
Q 5.515625 15.328125 5.515625 27.984375 
Q 5.515625 40.671875 11.671875 48.328125 
Q 17.828125 56 27.875 56 
Q 33.9375 56 38.28125 53.609375 
Q 42.625 51.21875 45.40625 46.390625 
L 45.40625 54.6875 
L 54.390625 54.6875 
z
" id="DejaVuSans-103"/>
     <path d="M 9.421875 75.984375 
L 18.40625 75.984375 
L 18.40625 0 
L 9.421875 0 
z
" id="DejaVuSans-108"/>
     <path d="M 56.203125 29.59375 
L 56.203125 25.203125 
L 14.890625 25.203125 
Q 15.484375 15.921875 20.484375 11.0625 
Q 25.484375 6.203125 34.421875 6.203125 
Q 39.59375 6.203125 44.453125 7.46875 
Q 49.3125 8.734375 54.109375 11.28125 
L 54.109375 2.78125 
Q 49.265625 0.734375 44.1875 -0.34375 
Q 39.109375 -1.421875 33.890625 -1.421875 
Q 20.796875 -1.421875 13.15625 6.1875 
Q 5.515625 13.8125 5.515625 26.8125 
Q 5.515625 40.234375 12.765625 48.109375 
Q 20.015625 56 32.328125 56 
Q 43.359375 56 49.78125 48.890625 
Q 56.203125 41.796875 56.203125 29.59375 
z
M 47.21875 32.234375 
Q 47.125 39.59375 43.09375 43.984375 
Q 39.0625 48.390625 32.421875 48.390625 
Q 24.90625 48.390625 20.390625 44.140625 
Q 15.875 39.890625 15.1875 32.171875 
z
" id="DejaVuSans-101"/>
     <path d="M 18.109375 8.203125 
L 18.109375 -20.796875 
L 9.078125 -20.796875 
L 9.078125 54.6875 
L 18.109375 54.6875 
L 18.109375 46.390625 
Q 20.953125 51.265625 25.265625 53.625 
Q 29.59375 56 35.59375 56 
Q 45.5625 56 51.78125 48.09375 
Q 58.015625 40.1875 58.015625 27.296875 
Q 58.015625 14.40625 51.78125 6.484375 
Q 45.5625 -1.421875 35.59375 -1.421875 
Q 29.59375 -1.421875 25.265625 0.953125 
Q 20.953125 3.328125 18.109375 8.203125 
z
M 48.6875 27.296875 
Q 48.6875 37.203125 44.609375 42.84375 
Q 40.53125 48.484375 33.40625 48.484375 
Q 26.265625 48.484375 22.1875 42.84375 
Q 18.109375 37.203125 18.109375 27.296875 
Q 18.109375 17.390625 22.1875 11.75 
Q 26.265625 6.109375 33.40625 6.109375 
Q 40.53125 6.109375 44.609375 11.75 
Q 48.6875 17.390625 48.6875 27.296875 
z
" id="DejaVuSans-112"/>
     <path d="M 54.890625 54.6875 
L 35.109375 28.078125 
L 55.90625 0 
L 45.3125 0 
L 29.390625 21.484375 
L 13.484375 0 
L 2.875 0 
L 24.125 28.609375 
L 4.6875 54.6875 
L 15.28125 54.6875 
L 29.78125 35.203125 
L 44.28125 54.6875 
z
" id="DejaVuSans-120"/>
     <path d="M 48.78125 52.59375 
L 48.78125 44.1875 
Q 44.96875 46.296875 41.140625 47.34375 
Q 37.3125 48.390625 33.40625 48.390625 
Q 24.65625 48.390625 19.8125 42.84375 
Q 14.984375 37.3125 14.984375 27.296875 
Q 14.984375 17.28125 19.8125 11.734375 
Q 24.65625 6.203125 33.40625 6.203125 
Q 37.3125 6.203125 41.140625 7.25 
Q 44.96875 8.296875 48.78125 10.40625 
L 48.78125 2.09375 
Q 45.015625 0.34375 40.984375 -0.53125 
Q 36.96875 -1.421875 32.421875 -1.421875 
Q 20.0625 -1.421875 12.78125 6.34375 
Q 5.515625 14.109375 5.515625 27.296875 
Q 5.515625 40.671875 12.859375 48.328125 
Q 20.21875 56 33.015625 56 
Q 37.15625 56 41.109375 55.140625 
Q 45.0625 54.296875 48.78125 52.59375 
z
" id="DejaVuSans-99"/>
     <path d="M 52 44.1875 
Q 55.375 50.25 60.0625 53.125 
Q 64.75 56 71.09375 56 
Q 79.640625 56 84.28125 50.015625 
Q 88.921875 44.046875 88.921875 33.015625 
L 88.921875 0 
L 79.890625 0 
L 79.890625 32.71875 
Q 79.890625 40.578125 77.09375 44.375 
Q 74.3125 48.1875 68.609375 48.1875 
Q 61.625 48.1875 57.5625 43.546875 
Q 53.515625 38.921875 53.515625 30.90625 
L 53.515625 0 
L 44.484375 0 
L 44.484375 32.71875 
Q 44.484375 40.625 41.703125 44.40625 
Q 38.921875 48.1875 33.109375 48.1875 
Q 26.21875 48.1875 22.15625 43.53125 
Q 18.109375 38.875 18.109375 30.90625 
L 18.109375 0 
L 9.078125 0 
L 9.078125 54.6875 
L 18.109375 54.6875 
L 18.109375 46.1875 
Q 21.1875 51.21875 25.484375 53.609375 
Q 29.78125 56 35.6875 56 
Q 41.65625 56 45.828125 52.96875 
Q 50 49.953125 52 44.1875 
z
" id="DejaVuSans-109"/>
     <path d="M 34.28125 27.484375 
Q 23.390625 27.484375 19.1875 25 
Q 14.984375 22.515625 14.984375 16.5 
Q 14.984375 11.71875 18.140625 8.90625 
Q 21.296875 6.109375 26.703125 6.109375 
Q 34.1875 6.109375 38.703125 11.40625 
Q 43.21875 16.703125 43.21875 25.484375 
L 43.21875 27.484375 
z
M 52.203125 31.203125 
L 52.203125 0 
L 43.21875 0 
L 43.21875 8.296875 
Q 40.140625 3.328125 35.546875 0.953125 
Q 30.953125 -1.421875 24.3125 -1.421875 
Q 15.921875 -1.421875 10.953125 3.296875 
Q 6 8.015625 6 15.921875 
Q 6 25.140625 12.171875 29.828125 
Q 18.359375 34.515625 30.609375 34.515625 
L 43.21875 34.515625 
L 43.21875 35.40625 
Q 43.21875 41.609375 39.140625 45 
Q 35.0625 48.390625 27.6875 48.390625 
Q 23 48.390625 18.546875 47.265625 
Q 14.109375 46.140625 10.015625 43.890625 
L 10.015625 52.203125 
Q 14.9375 54.109375 19.578125 55.046875 
Q 24.21875 56 28.609375 56 
Q 40.484375 56 46.34375 49.84375 
Q 52.203125 43.703125 52.203125 31.203125 
z
" id="DejaVuSans-97"/>
     <path d="M 41.109375 46.296875 
Q 39.59375 47.171875 37.8125 47.578125 
Q 36.03125 48 33.890625 48 
Q 26.265625 48 22.1875 43.046875 
Q 18.109375 38.09375 18.109375 28.8125 
L 18.109375 0 
L 9.078125 0 
L 9.078125 54.6875 
L 18.109375 54.6875 
L 18.109375 46.1875 
Q 20.953125 51.171875 25.484375 53.578125 
Q 30.03125 56 36.53125 56 
Q 37.453125 56 38.578125 55.875 
Q 39.703125 55.765625 41.0625 55.515625 
z
" id="DejaVuSans-114"/>
     <path d="M 45.40625 46.390625 
L 45.40625 75.984375 
L 54.390625 75.984375 
L 54.390625 0 
L 45.40625 0 
L 45.40625 8.203125 
Q 42.578125 3.328125 38.25 0.953125 
Q 33.9375 -1.421875 27.875 -1.421875 
Q 17.96875 -1.421875 11.734375 6.484375 
Q 5.515625 14.40625 5.515625 27.296875 
Q 5.515625 40.1875 11.734375 48.09375 
Q 17.96875 56 27.875 56 
Q 33.9375 56 38.25 53.625 
Q 42.578125 51.265625 45.40625 46.390625 
z
M 14.796875 27.296875 
Q 14.796875 17.390625 18.875 11.75 
Q 22.953125 6.109375 30.078125 6.109375 
Q 37.203125 6.109375 41.296875 11.75 
Q 45.40625 17.390625 45.40625 27.296875 
Q 45.40625 37.203125 41.296875 42.84375 
Q 37.203125 48.484375 30.078125 48.484375 
Q 22.953125 48.484375 18.875 42.84375 
Q 14.796875 37.203125 14.796875 27.296875 
z
" id="DejaVuSans-100"/>
     <path d="M 18.3125 70.21875 
L 18.3125 54.6875 
L 36.8125 54.6875 
L 36.8125 47.703125 
L 18.3125 47.703125 
L 18.3125 18.015625 
Q 18.3125 11.328125 20.140625 9.421875 
Q 21.96875 7.515625 27.59375 7.515625 
L 36.8125 7.515625 
L 36.8125 0 
L 27.59375 0 
Q 17.1875 0 13.234375 3.875 
Q 9.28125 7.765625 9.28125 18.015625 
L 9.28125 47.703125 
L 2.6875 47.703125 
L 2.6875 54.6875 
L 9.28125 54.6875 
L 9.28125 70.21875 
z
" id="DejaVuSans-116"/>
    </defs>
    <g transform="translate(64.025625 16.318125)scale(0.12 -0.12)">
     <use xlink:href="#DejaVuSans-67"/>
     <use x="69.824219" xlink:href="#DejaVuSans-68"/>
     <use x="146.826172" xlink:href="#DejaVuSans-70"/>
     <use x="204.345703" xlink:href="#DejaVuSans-32"/>
     <use x="236.132812" xlink:href="#DejaVuSans-111"/>
     <use x="297.314453" xlink:href="#DejaVuSans-102"/>
     <use x="332.519531" xlink:href="#DejaVuSans-32"/>
     <use x="364.306641" xlink:href="#DejaVuSans-83"/>
     <use x="427.783203" xlink:href="#DejaVuSans-105"/>
     <use x="455.566406" xlink:href="#DejaVuSans-110"/>
     <use x="518.945312" xlink:href="#DejaVuSans-103"/>
     <use x="582.421875" xlink:href="#DejaVuSans-108"/>
     <use x="610.205078" xlink:href="#DejaVuSans-101"/>
     <use x="671.728516" xlink:href="#DejaVuSans-32"/>
     <use x="703.515625" xlink:href="#DejaVuSans-112"/>
     <use x="766.992188" xlink:href="#DejaVuSans-105"/>
     <use x="794.775391" xlink:href="#DejaVuSans-120"/>
     <use x="850.830078" xlink:href="#DejaVuSans-101"/>
     <use x="912.353516" xlink:href="#DejaVuSans-108"/>
     <use x="940.136719" xlink:href="#DejaVuSans-32"/>
     <use x="971.923828" xlink:href="#DejaVuSans-99"/>
     <use x="1026.904297" xlink:href="#DejaVuSans-111"/>
     <use x="1088.085938" xlink:href="#DejaVuSans-109"/>
     <use x="1185.498047" xlink:href="#DejaVuSans-112"/>
     <use x="1248.974609" xlink:href="#DejaVuSans-97"/>
     <use x="1310.253906" xlink:href="#DejaVuSans-114"/>
     <use x="1349.117188" xlink:href="#DejaVuSans-101"/>
     <use x="1410.640625" xlink:href="#DejaVuSans-100"/>
     <use x="1474.117188" xlink:href="#DejaVuSans-32"/>
     <use x="1505.904297" xlink:href="#DejaVuSans-116"/>
     <use x="1545.113281" xlink:href="#DejaVuSans-111"/>
     <use x="1606.294922" xlink:href="#DejaVuSans-32"/>
     <use x="1638.082031" xlink:href="#DejaVuSans-110"/>
     <use x="1701.460938" xlink:href="#DejaVuSans-111"/>
     <use x="1762.642578" xlink:href="#DejaVuSans-114"/>
     <use x="1802.005859" xlink:href="#DejaVuSans-109"/>
     <use x="1899.417969" xlink:href="#DejaVuSans-97"/>
     <use x="1960.697266" xlink:href="#DejaVuSans-108"/>
     <use x="1988.480469" xlink:href="#DejaVuSans-32"/>
     <use x="2020.267578" xlink:href="#DejaVuSans-67"/>
     <use x="2090.091797" xlink:href="#DejaVuSans-68"/>
     <use x="2167.09375" xlink:href="#DejaVuSans-70"/>
    </g>
   </g>
   <g id="legend_1">
    <g id="patch_7">
     <path d="M 37.103125 59.674375 
L 165.45 59.674375 
Q 167.45 59.674375 167.45 57.674375 
L 167.45 29.318125 
Q 167.45 27.318125 165.45 27.318125 
L 37.103125 27.318125 
Q 35.103125 27.318125 35.103125 29.318125 
L 35.103125 57.674375 
Q 35.103125 59.674375 37.103125 59.674375 
z
" style="fill:#ffffff;opacity:0.8;stroke:#cccccc;stroke-linejoin:miter;"/>
    </g>
    <g id="line2d_15">
     <path d="M 39.103125 35.416562 
L 59.103125 35.416562 
" style="fill:none;stroke:#1f77b4;stroke-linecap:square;stroke-width:1.5;"/>
    </g>
    <g id="line2d_16"/>
    <g id="text_14">
     <!-- Data -->
     <g transform="translate(67.103125 38.916562)scale(0.1 -0.1)">
      <use xlink:href="#DejaVuSans-68"/>
      <use x="77.001953" xlink:href="#DejaVuSans-97"/>
      <use x="138.28125" xlink:href="#DejaVuSans-116"/>
      <use x="177.490234" xlink:href="#DejaVuSans-97"/>
     </g>
    </g>
    <g id="line2d_17">
     <path d="M 39.103125 50.094687 
L 59.103125 50.094687 
" style="fill:none;stroke:#ff7f0e;stroke-linecap:square;stroke-width:1.5;"/>
    </g>
    <g id="line2d_18"/>
    <g id="text_15">
     <!-- Normal distribution -->
     <defs>
      <path d="M 9.8125 72.90625 
L 23.09375 72.90625 
L 55.421875 11.921875 
L 55.421875 72.90625 
L 64.984375 72.90625 
L 64.984375 0 
L 51.703125 0 
L 19.390625 60.984375 
L 19.390625 0 
L 9.8125 0 
z
" id="DejaVuSans-78"/>
      <path d="M 44.28125 53.078125 
L 44.28125 44.578125 
Q 40.484375 46.53125 36.375 47.5 
Q 32.28125 48.484375 27.875 48.484375 
Q 21.1875 48.484375 17.84375 46.4375 
Q 14.5 44.390625 14.5 40.28125 
Q 14.5 37.15625 16.890625 35.375 
Q 19.28125 33.59375 26.515625 31.984375 
L 29.59375 31.296875 
Q 39.15625 29.25 43.1875 25.515625 
Q 47.21875 21.78125 47.21875 15.09375 
Q 47.21875 7.46875 41.1875 3.015625 
Q 35.15625 -1.421875 24.609375 -1.421875 
Q 20.21875 -1.421875 15.453125 -0.5625 
Q 10.6875 0.296875 5.421875 2 
L 5.421875 11.28125 
Q 10.40625 8.6875 15.234375 7.390625 
Q 20.0625 6.109375 24.8125 6.109375 
Q 31.15625 6.109375 34.5625 8.28125 
Q 37.984375 10.453125 37.984375 14.40625 
Q 37.984375 18.0625 35.515625 20.015625 
Q 33.0625 21.96875 24.703125 23.78125 
L 21.578125 24.515625 
Q 13.234375 26.265625 9.515625 29.90625 
Q 5.8125 33.546875 5.8125 39.890625 
Q 5.8125 47.609375 11.28125 51.796875 
Q 16.75 56 26.8125 56 
Q 31.78125 56 36.171875 55.265625 
Q 40.578125 54.546875 44.28125 53.078125 
z
" id="DejaVuSans-115"/>
      <path d="M 48.6875 27.296875 
Q 48.6875 37.203125 44.609375 42.84375 
Q 40.53125 48.484375 33.40625 48.484375 
Q 26.265625 48.484375 22.1875 42.84375 
Q 18.109375 37.203125 18.109375 27.296875 
Q 18.109375 17.390625 22.1875 11.75 
Q 26.265625 6.109375 33.40625 6.109375 
Q 40.53125 6.109375 44.609375 11.75 
Q 48.6875 17.390625 48.6875 27.296875 
z
M 18.109375 46.390625 
Q 20.953125 51.265625 25.265625 53.625 
Q 29.59375 56 35.59375 56 
Q 45.5625 56 51.78125 48.09375 
Q 58.015625 40.1875 58.015625 27.296875 
Q 58.015625 14.40625 51.78125 6.484375 
Q 45.5625 -1.421875 35.59375 -1.421875 
Q 29.59375 -1.421875 25.265625 0.953125 
Q 20.953125 3.328125 18.109375 8.203125 
L 18.109375 0 
L 9.078125 0 
L 9.078125 75.984375 
L 18.109375 75.984375 
z
" id="DejaVuSans-98"/>
      <path d="M 8.5 21.578125 
L 8.5 54.6875 
L 17.484375 54.6875 
L 17.484375 21.921875 
Q 17.484375 14.15625 20.5 10.265625 
Q 23.53125 6.390625 29.59375 6.390625 
Q 36.859375 6.390625 41.078125 11.03125 
Q 45.3125 15.671875 45.3125 23.6875 
L 45.3125 54.6875 
L 54.296875 54.6875 
L 54.296875 0 
L 45.3125 0 
L 45.3125 8.40625 
Q 42.046875 3.421875 37.71875 1 
Q 33.40625 -1.421875 27.6875 -1.421875 
Q 18.265625 -1.421875 13.375 4.4375 
Q 8.5 10.296875 8.5 21.578125 
z
M 31.109375 56 
z
" id="DejaVuSans-117"/>
     </defs>
     <g transform="translate(67.103125 53.594687)scale(0.1 -0.1)">
      <use xlink:href="#DejaVuSans-78"/>
      <use x="74.804688" xlink:href="#DejaVuSans-111"/>
      <use x="135.986328" xlink:href="#DejaVuSans-114"/>
      <use x="175.349609" xlink:href="#DejaVuSans-109"/>
      <use x="272.761719" xlink:href="#DejaVuSans-97"/>
      <use x="334.041016" xlink:href="#DejaVuSans-108"/>
      <use x="361.824219" xlink:href="#DejaVuSans-32"/>
      <use x="393.611328" xlink:href="#DejaVuSans-100"/>
      <use x="457.087891" xlink:href="#DejaVuSans-105"/>
      <use x="484.871094" xlink:href="#DejaVuSans-115"/>
      <use x="536.970703" xlink:href="#DejaVuSans-116"/>
      <use x="576.179688" xlink:href="#DejaVuSans-114"/>
      <use x="617.292969" xlink:href="#DejaVuSans-105"/>
      <use x="645.076172" xlink:href="#DejaVuSans-98"/>
      <use x="708.552734" xlink:href="#DejaVuSans-117"/>
      <use x="771.931641" xlink:href="#DejaVuSans-116"/>
      <use x="811.140625" xlink:href="#DejaVuSans-105"/>
      <use x="838.923828" xlink:href="#DejaVuSans-111"/>
      <use x="900.105469" xlink:href="#DejaVuSans-110"/>
     </g>
    </g>
   </g>
  </g>
 </g>
 <defs>
  <clipPath id="p5083aa5492">
   <rect height="217.44" width="334.8" x="30.103125" y="22.318125"/>
  </clipPath>
 </defs>
</svg>
